<?xml version="1.0" encoding="UTF-8" standalone="no"?>
<!-- Created with Inkscape (http://www.inkscape.org/) -->

<svg
   version="1.1"
   id="svg2"
   width="1066.6667"
   height="1066.6667"
   viewBox="0 0 1066.6667 1066.6667"
   sodipodi:docname="17463-NRHGCU.eps"
   xmlns:inkscape="http://www.inkscape.org/namespaces/inkscape"
   xmlns:sodipodi="http://sodipodi.sourceforge.net/DTD/sodipodi-0.dtd"
   xmlns="http://www.w3.org/2000/svg"
   xmlns:svg="http://www.w3.org/2000/svg">
  <defs
     id="defs6" />
  <sodipodi:namedview
     id="namedview4"
     pagecolor="#ffffff"
     bordercolor="#000000"
     borderopacity="0.25"
     inkscape:showpageshadow="2"
     inkscape:pageopacity="0.0"
     inkscape:pagecheckerboard="0"
     inkscape:deskcolor="#d1d1d1" />
  <g
     id="g8"
     inkscape:groupmode="layer"
     inkscape:label="ink_ext_XXXXXX"
     transform="matrix(1.3333333,0,0,-1.3333333,0,1066.6667)">
    <g
       id="g10"
       transform="scale(0.1)">
      <path
         d="M 2000,6000 H 0 V 8000 H 2000 V 6000"
         style="fill:#bae8ec;fill-opacity:1;fill-rule:nonzero;stroke:none"
         id="path12" />
      <path
         d="M 2000,6000 H 4000 V 8000 H 2000 Z"
         style="fill:#e5f6f9;fill-opacity:1;fill-rule:nonzero;stroke:none"
         id="path14" />
      <path
         d="M 4000,6000 H 6000 V 8000 H 4000 Z"
         style="fill:#bae8ec;fill-opacity:1;fill-rule:nonzero;stroke:none"
         id="path16" />
      <path
         d="M 8000,6000 H 6000 V 8000 H 8000 V 6000"
         style="fill:#e5f6f9;fill-opacity:1;fill-rule:nonzero;stroke:none"
         id="path18" />
      <path
         d="M 2000,4000 H 0 V 6000 H 2000 V 4000"
         style="fill:#e5f6f9;fill-opacity:1;fill-rule:nonzero;stroke:none"
         id="path20" />
      <path
         d="M 4000,4000 H 2000 V 6000 H 4000 V 4000"
         style="fill:#bae8ec;fill-opacity:1;fill-rule:nonzero;stroke:none"
         id="path22" />
      <path
         d="M 6000,4000 H 4000 V 6000 H 6000 V 4000"
         style="fill:#e5f6f9;fill-opacity:1;fill-rule:nonzero;stroke:none"
         id="path24" />
      <path
         d="M 8000,4000 H 6000 V 6000 H 8000 V 4000"
         style="fill:#bae8ec;fill-opacity:1;fill-rule:nonzero;stroke:none"
         id="path26" />
      <path
         d="M 2000,2000 H 0 V 4000 H 2000 V 2000"
         style="fill:#bae8ec;fill-opacity:1;fill-rule:nonzero;stroke:none"
         id="path28" />
      <path
         d="M 4000,2000 H 2000 V 4000 H 4000 V 2000"
         style="fill:#e5f6f9;fill-opacity:1;fill-rule:nonzero;stroke:none"
         id="path30" />
      <path
         d="M 6000,2000 H 4000 V 4000 H 6000 V 2000"
         style="fill:#bae8ec;fill-opacity:1;fill-rule:nonzero;stroke:none"
         id="path32" />
      <path
         d="M 8000,2000 H 6000 V 4000 H 8000 V 2000"
         style="fill:#e5f6f9;fill-opacity:1;fill-rule:nonzero;stroke:none"
         id="path34" />
      <path
         d="M 2000,0 H 0 V 2000 H 2000 V 0"
         style="fill:#e5f6f9;fill-opacity:1;fill-rule:nonzero;stroke:none"
         id="path36" />
      <path
         d="M 4000,0 H 2000 V 2000 H 4000 V 0"
         style="fill:#bae8ec;fill-opacity:1;fill-rule:nonzero;stroke:none"
         id="path38" />
      <path
         d="M 6000,0 H 4000 V 2000 H 6000 V 0"
         style="fill:#e5f6f9;fill-opacity:1;fill-rule:nonzero;stroke:none"
         id="path40" />
      <path
         d="M 8000,0 H 6000 V 2000 H 8000 V 0"
         style="fill:#bae8ec;fill-opacity:1;fill-rule:nonzero;stroke:none"
         id="path42" />
      <path
         d="m 3000,6311.97 c -147.29,0 -267.12,119.83 -267.12,267.12 v 803.23 c 0,58.29 47.42,105.71 105.7,105.71 h 225.4 c 56.92,0 103.22,-46.3 103.22,-103.22 v -688.5 c 0,-93.78 -76.3,-170.08 -170.08,-170.08 -93.79,0 -170.08,76.3 -170.08,170.08 v 485.21 c 0,13.8 11.19,25 25,25 13.8,0 25,-11.2 25,-25 v -485.21 c 0,-66.21 53.86,-120.08 120.08,-120.08 66.21,0 120.08,53.87 120.08,120.08 v 688.5 c 0,29.35 -23.87,53.22 -53.22,53.22 h -225.4 c -30.71,0 -55.7,-24.99 -55.7,-55.71 v -803.23 c 0,-119.72 97.4,-217.12 217.12,-217.12 119.72,0 217.12,97.4 217.12,217.12 V 7194 c 0,13.81 11.2,25 25,25 13.81,0 25,-11.19 25,-25 v -614.91 c 0,-147.29 -119.83,-267.12 -267.12,-267.12"
         style="fill:#33414b;fill-opacity:1;fill-rule:nonzero;stroke:none"
         id="path44" />
      <path
         d="m 1000,7548.75 c -118.355,0 -214.617,-94.5 -219.164,-215.14 l -0.852,-22.62 -22.597,-1.38 c -2.723,-0.18 -4.082,-0.55 -4.735,-0.84 -12.125,-5.29 -17.172,-30.7 -5.797,-56.81 11.364,-26.07 36.219,-49.19 50.856,-52.46 l 11.883,-2.64 5.246,-10.99 C 849.805,7112.6 916.813,7034.3 1000,7034.3 c 83.19,0 150.2,78.3 185.16,151.57 l 5.25,10.99 11.88,2.64 c 14.63,3.27 39.49,26.39 50.85,52.46 11.38,26.11 6.34,51.52 -5.78,56.81 -0.67,0.29 -2.02,0.66 -4.75,0.84 l -22.6,1.38 -0.84,22.62 c -4.55,120.64 -100.82,215.14 -219.17,215.14 z m 0,-564.45 c -102.504,0 -182.629,86.25 -225.512,170.35 -31.636,13.14 -60.582,47.77 -73.468,77.34 -22.266,51.08 -8.559,104.73 31.191,122.41 14.461,138.47 128.695,244.35 267.789,244.35 139.09,0 253.33,-105.88 267.79,-244.35 39.74,-17.67 53.46,-71.33 31.18,-122.42 -12.88,-29.56 -41.83,-64.19 -73.46,-77.32 C 1182.63,7070.55 1102.5,6984.3 1000,6984.3"
         style="fill:#33414b;fill-opacity:1;fill-rule:nonzero;stroke:none"
         id="path46" />
      <path
         d="M 1197.44,6972.05 1096.83,6597.71 H 903.172 L 802.563,6972.05 C 668.316,6938.13 568.188,6816.02 568.188,6671.61 v -245.35 h 863.622 v 245.35 c 0,144.41 -100.13,266.52 -234.37,300.44"
         style="fill:#33414b;fill-opacity:1;fill-rule:nonzero;stroke:none"
         id="path48" />
      <path
         d="m 1000,6925.93 v 0 c 17.44,0 31.95,-13.44 33.28,-30.83 l 31.07,-404.65 c -7.28,-5.56 -14.8,-8.68 -22.54,-8.68 h -83.622 c -7.735,0 -15.262,3.12 -22.536,8.68 l 31.067,404.65 c 1.332,17.39 15.836,30.83 33.281,30.83"
         style="fill:#33414b;fill-opacity:1;fill-rule:nonzero;stroke:none"
         id="path50" />
      <path
         d="m 1225.06,7421.75 c -37.07,89.29 -123.76,152 -225.06,152 -101.305,0 -187.988,-62.71 -225.059,-152 h 450.119"
         style="fill:#33414b;fill-opacity:1;fill-rule:nonzero;stroke:none"
         id="path52" />
      <path
         d="m 790.43,7431.75 h 419.14 c -39.55,80.67 -120.24,132 -209.57,132 -89.324,0 -170.023,-51.33 -209.57,-132 z m 449.61,-20 H 759.961 l 5.746,13.83 c 39.891,96.08 131.856,158.17 234.293,158.17 102.44,0 194.4,-62.09 234.29,-158.17 l 5.75,-13.83"
         style="fill:#33414b;fill-opacity:1;fill-rule:nonzero;stroke:none"
         id="path54" />
      <path
         d="m 4636.46,6935.1 c 0,-4.4 -3.56,-7.95 -7.95,-7.95 H 4428.6 c -4.39,0 -7.95,3.55 -7.95,7.95 v 451.51 c 0,4.39 3.56,7.95 7.95,7.95 h 33.96 l 58.37,-58.37 c 4.21,-4.21 11.04,-4.21 15.25,0 l 58.37,58.37 h 33.96 c 4.39,0 7.95,-3.56 7.95,-7.95 z m -107.91,-374.09 c -41.71,0 -75.53,33.82 -75.53,75.53 0,41.72 33.82,75.53 75.53,75.53 41.72,0 75.54,-33.81 75.54,-75.53 0,-41.71 -33.82,-75.53 -75.54,-75.53 z m 136.73,917.17 h -273.45 c -16.86,0 -30.52,-13.66 -30.52,-30.52 V 6516 c 0,-16.86 13.66,-30.52 30.52,-30.52 h 273.45 c 16.86,0 30.52,13.66 30.52,30.52 v 931.66 c 0,16.86 -13.66,30.52 -30.52,30.52"
         style="fill:#33414b;fill-opacity:1;fill-rule:nonzero;stroke:none"
         id="path56" />
      <path
         d="m 4604.08,7257.14 h -151.05 c -8.28,0 -15,6.72 -15,15 0,8.29 6.72,15 15,15 h 151.05 c 8.28,0 15,-6.71 15,-15 0,-8.28 -6.72,-15 -15,-15"
         style="fill:#33414b;fill-opacity:1;fill-rule:nonzero;stroke:none"
         id="path58" />
      <path
         d="m 4604.08,7190.48 h -151.05 c -8.28,0 -15,6.71 -15,15 0,8.29 6.72,15 15,15 h 151.05 c 8.28,0 15,-6.71 15,-15 0,-8.29 -6.72,-15 -15,-15"
         style="fill:#33414b;fill-opacity:1;fill-rule:nonzero;stroke:none"
         id="path60" />
      <path
         d="m 4604.08,7123.81 h -151.05 c -8.28,0 -15,6.72 -15,15 0,8.29 6.72,15 15,15 h 151.05 c 8.28,0 15,-6.71 15,-15 0,-8.28 -6.72,-15 -15,-15"
         style="fill:#33414b;fill-opacity:1;fill-rule:nonzero;stroke:none"
         id="path62" />
      <path
         d="m 4604.08,7057.14 h -151.05 c -8.28,0 -15,6.72 -15,15 0,8.29 6.72,15 15,15 h 151.05 c 8.28,0 15,-6.71 15,-15 0,-8.28 -6.72,-15 -15,-15"
         style="fill:#33414b;fill-opacity:1;fill-rule:nonzero;stroke:none"
         id="path64" />
      <path
         d="m 4604.08,6990.48 h -151.05 c -8.28,0 -15,6.71 -15,15 0,8.29 6.72,15 15,15 h 151.05 c 8.28,0 15,-6.71 15,-15 0,-8.29 -6.72,-15 -15,-15"
         style="fill:#33414b;fill-opacity:1;fill-rule:nonzero;stroke:none"
         id="path66" />
      <path
         d="m 5026.46,6935.1 c 0,-4.4 -3.56,-7.95 -7.95,-7.95 H 4818.6 c -4.39,0 -7.95,3.55 -7.95,7.95 v 451.51 c 0,4.39 3.56,7.95 7.95,7.95 h 33.96 l 58.37,-58.37 c 4.21,-4.21 11.04,-4.21 15.25,0 l 58.37,58.37 h 33.96 c 4.39,0 7.95,-3.56 7.95,-7.95 z m -107.91,-374.09 c -41.71,0 -75.53,33.82 -75.53,75.53 0,41.72 33.82,75.53 75.53,75.53 41.72,0 75.54,-33.81 75.54,-75.53 0,-41.71 -33.82,-75.53 -75.54,-75.53 z m 136.73,917.17 h -273.45 c -16.86,0 -30.52,-13.66 -30.52,-30.52 V 6516 c 0,-16.86 13.66,-30.52 30.52,-30.52 h 273.45 c 16.86,0 30.52,13.66 30.52,30.52 v 931.66 c 0,16.86 -13.66,30.52 -30.52,30.52"
         style="fill:#33414b;fill-opacity:1;fill-rule:nonzero;stroke:none"
         id="path68" />
      <path
         d="m 4994.08,7257.14 h -151.05 c -8.28,0 -15,6.72 -15,15 0,8.29 6.72,15 15,15 h 151.05 c 8.28,0 15,-6.71 15,-15 0,-8.28 -6.72,-15 -15,-15"
         style="fill:#33414b;fill-opacity:1;fill-rule:nonzero;stroke:none"
         id="path70" />
      <path
         d="m 4994.08,7190.48 h -151.05 c -8.28,0 -15,6.71 -15,15 0,8.29 6.72,15 15,15 h 151.05 c 8.28,0 15,-6.71 15,-15 0,-8.29 -6.72,-15 -15,-15"
         style="fill:#33414b;fill-opacity:1;fill-rule:nonzero;stroke:none"
         id="path72" />
      <path
         d="m 4994.08,7123.81 h -151.05 c -8.28,0 -15,6.72 -15,15 0,8.29 6.72,15 15,15 h 151.05 c 8.28,0 15,-6.71 15,-15 0,-8.28 -6.72,-15 -15,-15"
         style="fill:#33414b;fill-opacity:1;fill-rule:nonzero;stroke:none"
         id="path74" />
      <path
         d="m 4994.08,7057.14 h -151.05 c -8.28,0 -15,6.72 -15,15 0,8.29 6.72,15 15,15 h 151.05 c 8.28,0 15,-6.71 15,-15 0,-8.28 -6.72,-15 -15,-15"
         style="fill:#33414b;fill-opacity:1;fill-rule:nonzero;stroke:none"
         id="path76" />
      <path
         d="m 4994.08,6990.48 h -151.05 c -8.28,0 -15,6.71 -15,15 0,8.29 6.72,15 15,15 h 151.05 c 8.28,0 15,-6.71 15,-15 0,-8.29 -6.72,-15 -15,-15"
         style="fill:#33414b;fill-opacity:1;fill-rule:nonzero;stroke:none"
         id="path78" />
      <path
         d="m 5465.1,6588.18 c -40.82,-8.58 -80.87,17.56 -89.45,58.38 -8.58,40.82 17.56,80.87 58.39,89.45 40.82,8.58 80.87,-17.56 89.45,-58.38 8.58,-40.83 -17.56,-80.87 -58.39,-89.45 z m -173.11,337.75 c -4.3,-0.91 -8.52,1.84 -9.42,6.14 l -92.86,441.86 c -0.9,4.3 1.85,8.52 6.14,9.42 l 33.23,6.98 69.13,-45.12 c 4.99,-3.25 11.67,-1.85 14.93,3.14 l 45.12,69.13 33.23,6.98 c 4.29,0.91 8.51,-1.85 9.41,-6.14 l 92.86,-441.86 c 0.91,-4.3 -1.84,-8.52 -6.14,-9.42 z m 346.05,-347.41 -191.62,911.75 c -3.46,16.5 -19.65,27.06 -36.14,23.59 l -267.62,-56.24 c -16.49,-3.47 -27.05,-19.65 -23.59,-36.14 l 191.62,-911.75 c 3.46,-16.5 19.65,-27.06 36.14,-23.59 l 267.62,56.24 c 16.49,3.47 27.05,19.65 23.59,36.14"
         style="fill:#33414b;fill-opacity:1;fill-rule:nonzero;stroke:none"
         id="path80" />
      <path
         d="m 5244.91,7253.57 c -6.94,0 -13.17,4.85 -14.66,11.92 -1.71,8.11 3.49,16.06 11.6,17.76 l 147.83,31.07 c 8.13,1.72 16.05,-3.48 17.76,-11.59 1.71,-8.11 -3.48,-16.06 -11.59,-17.77 l -147.83,-31.07 c -1.05,-0.21 -2.08,-0.32 -3.11,-0.32"
         style="fill:#33414b;fill-opacity:1;fill-rule:nonzero;stroke:none"
         id="path82" />
      <path
         d="m 5258.62,7188.32 c -6.94,0 -13.17,4.86 -14.66,11.93 -1.7,8.11 3.49,16.05 11.6,17.76 l 147.83,31.07 c 8.12,1.7 16.06,-3.49 17.76,-11.6 1.71,-8.1 -3.48,-16.05 -11.59,-17.76 l -147.83,-31.07 c -1.05,-0.22 -2.08,-0.33 -3.11,-0.33"
         style="fill:#33414b;fill-opacity:1;fill-rule:nonzero;stroke:none"
         id="path84" />
      <path
         d="m 5272.33,7123.09 c -6.94,0 -13.17,4.85 -14.65,11.91 -1.71,8.12 3.48,16.06 11.59,17.77 l 147.83,31.07 c 8.11,1.71 16.06,-3.49 17.76,-11.59 1.71,-8.11 -3.48,-16.06 -11.59,-17.77 l -147.83,-31.07 c -1.05,-0.22 -2.08,-0.32 -3.11,-0.32"
         style="fill:#33414b;fill-opacity:1;fill-rule:nonzero;stroke:none"
         id="path86" />
      <path
         d="m 5286.04,7057.84 c -6.94,0 -13.17,4.86 -14.65,11.92 -1.71,8.11 3.48,16.06 11.59,17.76 l 147.83,31.07 c 8.14,1.72 16.06,-3.48 17.76,-11.59 1.71,-8.11 -3.48,-16.06 -11.59,-17.76 l -147.83,-31.07 c -1.04,-0.22 -2.08,-0.33 -3.11,-0.33"
         style="fill:#33414b;fill-opacity:1;fill-rule:nonzero;stroke:none"
         id="path88" />
      <path
         d="m 5299.76,6992.6 c -6.95,0 -13.18,4.86 -14.66,11.92 -1.71,8.11 3.48,16.06 11.59,17.77 l 147.83,31.07 c 8.13,1.69 16.07,-3.48 17.77,-11.6 1.7,-8.11 -3.49,-16.06 -11.6,-17.76 l -147.83,-31.07 c -1.04,-0.22 -2.08,-0.33 -3.1,-0.33"
         style="fill:#33414b;fill-opacity:1;fill-rule:nonzero;stroke:none"
         id="path90" />
      <path
         d="m 7341.36,7043.38 h -682.72 c -39.05,0 -70.7,-31.66 -70.7,-70.71 v -395.36 c 0,-39.05 31.65,-70.7 70.7,-70.7 h 119.06 v 108.44 h 444.6 v -108.44 h 119.06 c 39.05,0 70.7,31.65 70.7,70.7 v 395.36 c 0,39.05 -31.65,70.71 -70.7,70.71"
         style="fill:#33414b;fill-opacity:1;fill-rule:nonzero;stroke:none"
         id="path92" />
      <path
         d="m 6821.53,6549.99 h 356.94 v -70.49 h -356.94 v 70.49"
         style="fill:#33414b;fill-opacity:1;fill-rule:nonzero;stroke:none"
         id="path94" />
      <path
         d="m 6754.21,7075.91 h -65.06 v 54.22 c 0,35.93 29.13,65.06 65.06,65.06 v -119.28"
         style="fill:#33414b;fill-opacity:1;fill-rule:nonzero;stroke:none"
         id="path96" />
      <path
         d="m 7310.85,7075.91 h -65.06 v 119.28 c 35.93,0 65.06,-29.13 65.06,-65.06 v -54.22"
         style="fill:#33414b;fill-opacity:1;fill-rule:nonzero;stroke:none"
         id="path98" />
      <path
         d="m 7156.78,7436.82 h -313.56 c -8.28,0 -15,6.72 -15,15 0,8.29 6.72,15 15,15 h 313.56 c 8.28,0 15,-6.71 15,-15 0,-8.28 -6.72,-15 -15,-15 z m 0,-75.9 h -313.56 c -8.28,0 -15,6.71 -15,15 0,8.28 6.72,15 15,15 h 313.56 c 8.28,0 15,-6.72 15,-15 0,-8.29 -6.72,-15 -15,-15 z m 0,-75.91 h -313.56 c -8.28,0 -15,6.71 -15,15 0,8.29 6.72,15 15,15 h 313.56 c 8.28,0 15,-6.71 15,-15 0,-8.29 -6.72,-15 -15,-15 z m 0,-75.9 h -313.56 c -8.28,0 -15,6.71 -15,15 0,8.28 6.72,15 15,15 h 313.56 c 8.28,0 15,-6.72 15,-15 0,-8.29 -6.72,-15 -15,-15 z m 0,-75.91 h -313.56 c -8.28,0 -15,6.71 -15,15 0,8.28 6.72,15 15,15 h 313.56 c 8.28,0 15,-6.72 15,-15 0,-8.29 -6.72,-15 -15,-15 z m 13.33,387.3 h -340.22 c -20.84,0 -37.73,-16.89 -37.73,-37.73 v -406.86 h 415.68 v 406.86 c 0,20.84 -16.89,37.73 -37.73,37.73"
         style="fill:#33414b;fill-opacity:1;fill-rule:nonzero;stroke:none"
         id="path100" />
      <path
         d="m 6323.75,5351.25 c -2.75,0 -5,-2.24 -5,-5 v -587.4 c 0,-2.76 2.25,-5 5,-5 h 881.68 c 2.75,0 5,2.24 5,5 v 587.4 c 0,2.76 -2.25,5 -5,5 z m 881.68,-647.4 h -881.68 c -30.32,0 -55,24.67 -55,55 v 587.4 c 0,30.33 24.68,55 55,55 h 881.68 c 30.32,0 55,-24.67 55,-55 v -587.4 c 0,-30.33 -24.68,-55 -55,-55"
         style="fill:#33414b;fill-opacity:1;fill-rule:nonzero;stroke:none"
         id="path102" />
      <path
         d="m 7215.42,4728.85 h -901.67 c -11.05,0 -20,8.95 -20,20 v 52.48 c 0,11.05 8.95,20 20,20 h 901.67 c 11.05,0 20,-8.95 20,-20 v -52.48 c 0,-11.05 -8.95,-20 -20,-20"
         style="fill:#33414b;fill-opacity:1;fill-rule:nonzero;stroke:none"
         id="path104" />
      <path
         d="m 6313.75,4816.57 c -8.4,0 -15.23,-6.84 -15.23,-15.24 v -52.48 c 0,-8.4 6.83,-15.24 15.23,-15.24 h 901.68 c 8.4,0 15.23,6.84 15.23,15.24 v 52.48 c 0,8.4 -6.83,15.24 -15.23,15.24 z m 901.68,-92.49 h -901.68 c -13.65,0 -24.77,11.11 -24.77,24.77 v 52.48 c 0,13.66 11.12,24.77 24.77,24.77 h 901.68 c 13.65,0 24.77,-11.11 24.77,-24.77 v -52.48 c 0,-13.66 -11.12,-24.77 -24.77,-24.77"
         style="fill:#33414b;fill-opacity:1;fill-rule:nonzero;stroke:none"
         id="path106" />
      <path
         d="m 6865.48,4728.85 h -201.79 v -105.1 h 201.79 v 105.1"
         style="fill:#33414b;fill-opacity:1;fill-rule:nonzero;stroke:none"
         id="path108" />
      <path
         d="m 6668.46,4628.52 h 192.25 v 95.56 h -192.25 z m 201.78,-9.54 h -211.31 v 114.63 h 211.31 v -114.63"
         style="fill:#33414b;fill-opacity:1;fill-rule:nonzero;stroke:none"
         id="path110" />
      <path
         d="m 7004.21,4598.75 h -479.25 c -13.81,0 -25,11.19 -25,25 0,13.81 11.19,25 25,25 h 479.25 c 13.81,0 25,-11.19 25,-25 0,-13.81 -11.19,-25 -25,-25"
         style="fill:#33414b;fill-opacity:1;fill-rule:nonzero;stroke:none"
         id="path112" />
      <path
         d="m 7654.75,5052.29 h -208.06 c -14.6,0 -26.43,11.83 -26.43,26.42 0,14.6 11.83,26.43 26.43,26.43 h 208.06 c 14.59,0 26.42,-11.83 26.42,-26.43 0,-14.59 -11.83,-26.42 -26.42,-26.42 z m -104.03,-372.24 c -18.41,0 -33.33,14.92 -33.33,33.33 0,18.4 14.92,33.32 33.33,33.32 18.4,0 33.33,-14.92 33.33,-33.32 0,-18.41 -14.93,-33.33 -33.33,-33.33 z m -120.35,647.72 h 240.7 v -146.44 h -240.7 z m 254.74,69.95 h -268.78 c -11.68,0 -21.14,-9.47 -21.14,-21.14 v -753.16 c 0,-11.67 9.46,-21.14 21.14,-21.14 h 268.78 c 11.68,0 21.14,9.47 21.14,21.14 v 753.16 c 0,11.67 -9.46,21.14 -21.14,21.14"
         style="fill:#33414b;fill-opacity:1;fill-rule:nonzero;stroke:none"
         id="path114" />
      <path
         d="m 2516.28,5422.75 c -4.36,0 -7.91,-3.55 -7.91,-7.92 V 4770.3 c 0,-4.36 3.55,-7.92 7.91,-7.92 h 967.44 c 4.36,0 7.91,3.56 7.91,7.92 v 644.53 c 0,4.37 -3.55,7.92 -7.91,7.92 z m 967.44,-710.37 h -967.44 c -31.93,0 -57.91,25.98 -57.91,57.92 v 644.53 c 0,31.94 25.98,57.92 57.91,57.92 h 967.44 c 31.93,0 57.91,-25.98 57.91,-57.92 V 4770.3 c 0,-31.94 -25.98,-57.92 -57.91,-57.92"
         style="fill:#33414b;fill-opacity:1;fill-rule:nonzero;stroke:none"
         id="path116" />
      <path
         d="m 3631.55,4552.25 h -1263.1 c -20.23,0 -36.64,16.4 -36.64,36.64 v 32.01 c 0,20.23 16.41,36.64 36.64,36.64 h 1263.1 c 20.23,0 36.64,-16.41 36.64,-36.64 v -32.01 c 0,-20.24 -16.41,-36.64 -36.64,-36.64"
         style="fill:#33414b;fill-opacity:1;fill-rule:nonzero;stroke:none"
         id="path118" />
      <path
         d="m 3000,5363.04 c -15.19,0 -27.5,12.32 -27.5,27.5 0,15.19 12.31,27.5 27.5,27.5 15.19,0 27.5,-12.31 27.5,-27.5 0,-15.18 -12.31,-27.5 -27.5,-27.5 z m 483.72,84.71 h -967.44 c -18.18,0 -32.91,-14.73 -32.91,-32.91 v -81.51 h 1033.26 v 81.51 c 0,18.18 -14.73,32.91 -32.91,32.91"
         style="fill:#33414b;fill-opacity:1;fill-rule:nonzero;stroke:none"
         id="path120" />
      <path
         d="m 3282.76,4950.19 c -6.8,0 -13.43,3.47 -17.17,9.73 l -46.23,77.22 c -5.67,9.48 -2.59,21.76 6.89,27.43 9.47,5.68 21.76,2.59 27.43,-6.88 l 46.22,-77.23 c 5.68,-9.47 2.6,-21.76 -6.88,-27.43 -3.22,-1.93 -6.76,-2.84 -10.26,-2.84"
         style="fill:#33414b;fill-opacity:1;fill-rule:nonzero;stroke:none"
         id="path122" />
      <path
         d="m 3188.79,4991.89 -32.24,166.81 c -2.17,11.18 10.83,18.96 19.66,11.77 L 3308,5063.25 c 9.08,-7.39 3.55,-22.08 -8.15,-21.64 l -53.29,1.98 c -4.82,0.18 -9.29,-2.5 -11.41,-6.83 l -23.43,-47.91 c -5.14,-10.52 -20.71,-8.45 -22.93,3.04"
         style="fill:#33414b;fill-opacity:1;fill-rule:nonzero;stroke:none"
         id="path124" />
      <path
         d="m 3245.1,2377.75 h -616.23 c -31.05,0 -56.31,25.26 -56.31,56.3 v 934.71 c 0,31.04 25.26,56.3 56.31,56.3 h 151.72 c 11.04,0 20,-8.96 20,-20 0,-11.05 -8.96,-20 -20,-20 h -151.72 c -8.99,0 -16.31,-7.32 -16.31,-16.3 v -934.71 c 0,-8.98 7.32,-16.3 16.31,-16.3 h 616.23 c 4.35,0 8.45,1.7 11.53,4.78 l 126.03,126.02 c 3.04,3.04 4.78,7.24 4.78,11.54 v 808.67 c 0,8.98 -7.32,16.3 -16.31,16.3 h -151.72 c -11.05,0 -20,8.95 -20,20 0,11.04 8.95,20 20,20 h 151.72 c 31.05,0 56.31,-25.26 56.31,-56.3 v -808.67 c 0,-15.05 -5.86,-29.19 -16.5,-39.83 l -126.03,-126.01 c -10.63,-10.64 -24.77,-16.5 -39.81,-16.5"
         style="fill:#33414b;fill-opacity:1;fill-rule:nonzero;stroke:none"
         id="path126" />
      <path
         d="m 3260.14,2384.88 c -11.04,0 -20,8.96 -20,20 v 103.87 c 0,31.04 25.26,56.3 56.3,56.3 h 103.87 c 11.04,0 20,-8.96 20,-20 0,-11.05 -8.96,-20 -20,-20 h -103.87 c -8.99,0 -16.3,-7.32 -16.3,-16.3 v -103.87 c 0,-11.04 -8.95,-20 -20,-20"
         style="fill:#33414b;fill-opacity:1;fill-rule:nonzero;stroke:none"
         id="path128" />
      <path
         d="m 2926.73,3415.75 h 146.54"
         style="fill:#33414b;fill-opacity:1;fill-rule:nonzero;stroke:none"
         id="path130" />
      <path
         d="m 3139.31,3476.33 h -41.1 v -60.58 c 0,-13.77 -11.17,-24.94 -24.95,-24.94 h -146.53 c -13.77,0 -24.94,11.17 -24.94,24.94 v 60.58 h -41.1 c -16.63,0 -30.12,-13.48 -30.12,-30.12 v -77.55 c 0,-16.63 13.49,-30.12 30.12,-30.12 h 278.62 c 16.63,0 30.12,13.49 30.12,30.12 v 77.55 c 0,16.64 -13.49,30.12 -30.12,30.12"
         style="fill:#33414b;fill-opacity:1;fill-rule:nonzero;stroke:none"
         id="path132" />
      <path
         d="m 2860.69,3472.28 c -14.37,0 -26.07,-11.69 -26.07,-26.07 v -77.55 c 0,-14.37 11.7,-26.07 26.07,-26.07 h 278.62 c 14.37,0 26.07,11.7 26.07,26.07 v 77.55 c 0,14.38 -11.7,26.07 -26.07,26.07 h -37.05 v -56.53 c 0,-15.98 -13.01,-28.99 -28.99,-28.99 h -146.54 c -15.99,0 -29,13.01 -29,28.99 v 56.53 z m 278.62,-137.8 h -278.62 c -18.84,0 -34.17,15.33 -34.17,34.18 v 77.55 c 0,18.84 15.33,34.17 34.17,34.17 h 41.1 c 2.23,0 4.05,-1.82 4.05,-4.05 v -60.58 c 0,-11.51 9.37,-20.89 20.89,-20.89 h 146.54 c 11.52,0 20.89,9.38 20.89,20.89 v 60.58 c 0,2.23 1.81,4.05 4.05,4.05 h 41.1 c 18.84,0 34.17,-15.33 34.17,-34.17 v -77.55 c 0,-18.85 -15.33,-34.18 -34.17,-34.18"
         style="fill:#33414b;fill-opacity:1;fill-rule:nonzero;stroke:none"
         id="path134" />
      <path
         d="m 3048.32,3476.33 h -96.64 v -35.63 h 96.64 v 35.63"
         style="fill:#33414b;fill-opacity:1;fill-rule:nonzero;stroke:none"
         id="path136" />
      <path
         d="m 2955.73,3444.75 h 88.54 v 27.53 h -88.54 z m 92.59,-8.11 h -96.64 c -2.24,0 -4.05,1.82 -4.05,4.05 v 35.64 c 0,2.23 1.81,4.05 4.05,4.05 h 96.64 c 2.24,0 4.05,-1.82 4.05,-4.05 v -35.64 c 0,-2.23 -1.81,-4.05 -4.05,-4.05"
         style="fill:#33414b;fill-opacity:1;fill-rule:nonzero;stroke:none"
         id="path138" />
      <path
         d="m 3000,3479.06 c -16.54,0 -29.94,13.4 -29.94,29.94 0,16.53 13.4,29.94 29.94,29.94 16.54,0 29.94,-13.41 29.94,-29.94 0,-16.54 -13.4,-29.94 -29.94,-29.94 z m 0,123.19 c -40.46,0 -73.27,-32.81 -73.27,-73.27 v -113.23 h 146.54 v 113.23 c 0,40.46 -32.81,73.27 -73.27,73.27"
         style="fill:#33414b;fill-opacity:1;fill-rule:nonzero;stroke:none"
         id="path140" />
      <path
         d="M 3139.76,3233.62 H 2680.9 c -11.05,0 -20,8.96 -20,20 0,11.05 8.95,20 20,20 h 458.86 c 11.05,0 20,-8.95 20,-20 0,-11.04 -8.95,-20 -20,-20"
         style="fill:#33414b;fill-opacity:1;fill-rule:nonzero;stroke:none"
         id="path142" />
      <path
         d="M 3139.76,3132.85 H 2680.9 c -11.05,0 -20,8.96 -20,20 0,11.05 8.95,20 20,20 h 458.86 c 11.05,0 20,-8.95 20,-20 0,-11.04 -8.95,-20 -20,-20"
         style="fill:#33414b;fill-opacity:1;fill-rule:nonzero;stroke:none"
         id="path144" />
      <path
         d="m 3319.1,3032.08 h -638.2 c -11.05,0 -20,8.96 -20,20 0,11.04 8.95,20 20,20 h 638.2 c 11.05,0 20,-8.96 20,-20 0,-11.04 -8.95,-20 -20,-20"
         style="fill:#33414b;fill-opacity:1;fill-rule:nonzero;stroke:none"
         id="path146" />
      <path
         d="m 3319.1,2931.3 h -638.2 c -11.05,0 -20,8.95 -20,20 0,11.04 8.95,20 20,20 h 638.2 c 11.05,0 20,-8.96 20,-20 0,-11.05 -8.95,-20 -20,-20"
         style="fill:#33414b;fill-opacity:1;fill-rule:nonzero;stroke:none"
         id="path148" />
      <path
         d="m 3319.1,2830.53 h -638.2 c -11.05,0 -20,8.95 -20,20 0,11.04 8.95,20 20,20 h 638.2 c 11.05,0 20,-8.96 20,-20 0,-11.05 -8.95,-20 -20,-20"
         style="fill:#33414b;fill-opacity:1;fill-rule:nonzero;stroke:none"
         id="path150" />
      <path
         d="m 3319.1,2729.76 h -638.2 c -11.05,0 -20,8.95 -20,20 0,11.04 8.95,20 20,20 h 638.2 c 11.05,0 20,-8.96 20,-20 0,-11.05 -8.95,-20 -20,-20"
         style="fill:#33414b;fill-opacity:1;fill-rule:nonzero;stroke:none"
         id="path152" />
      <path
         d="m 3319.1,3140.47 h -83.15 v 83.15 h 83.15 v -83.15"
         style="fill:#33414b;fill-opacity:1;fill-rule:nonzero;stroke:none"
         id="path154" />
      <path
         d="m 3255.95,3160.48 h 43.15 v 43.14 h -43.15 z m 63.15,-40 h -83.15 c -11.04,0 -20,8.95 -20,20 v 83.14 c 0,11.05 8.96,20 20,20 h 83.15 c 11.05,0 20,-8.95 20,-20 v -83.14 c 0,-11.05 -8.95,-20 -20,-20"
         style="fill:#33414b;fill-opacity:1;fill-rule:nonzero;stroke:none"
         id="path156" />
      <path
         d="m 1501.02,2437.9 h -1050 c -13.809,0 -25,11.19 -25,25 v 1050 c 0,13.81 11.191,25 25,25 13.808,0 25,-11.19 25,-25 v -1025 h 1025 c 13.81,0 25,-11.19 25,-25 0,-13.81 -11.19,-25 -25,-25"
         style="fill:#33414b;fill-opacity:1;fill-rule:nonzero;stroke:none"
         id="path158" />
      <path
         d="m 465.074,2882.53 -28.105,41.35 525.492,357.19 c 12.242,8.34 28.019,9.28 41.159,2.49 l 188.25,-96.97 207.46,225.89 36.83,-33.83 -212.45,-231.32 c -12.26,-13.36 -32.07,-16.87 -48.18,-8.56 l -189.717,97.72 -520.739,-353.96"
         style="fill:#33414b;fill-opacity:1;fill-rule:nonzero;stroke:none"
         id="path160" />
      <path
         d="m 1547.98,3516.39 -83.39,-224.96 c -5.09,-13.72 -24.66,-13.2 -29.01,0.77 l -25.9,83.2 c -1.64,5.26 -5.97,9.24 -11.34,10.42 l -85.08,18.73 c -14.29,3.14 -16.47,22.61 -3.23,28.84 l 217.05,102.2 c 12.42,5.85 25.67,-6.33 20.9,-19.2"
         style="fill:#33414b;fill-opacity:1;fill-rule:nonzero;stroke:none"
         id="path162" />
      <path
         d="m 587.379,2861.48 v -289.5 h 140.617 v 385.08 l -140.617,-95.58"
         style="fill:#33414b;fill-opacity:1;fill-rule:nonzero;stroke:none"
         id="path164" />
      <path
         d="m 800.715,3006.49 v -434.51 h 140.613 v 530.09 l -140.613,-95.58"
         style="fill:#33414b;fill-opacity:1;fill-rule:nonzero;stroke:none"
         id="path166" />
      <path
         d="m 1014.05,3119.45 v -547.47 h 140.61 v 475.03 l -140.61,72.44"
         style="fill:#33414b;fill-opacity:1;fill-rule:nonzero;stroke:none"
         id="path168" />
      <path
         d="m 1227.38,3041.77 v -469.79 h 140.61 v 622.89 l -140.61,-153.1"
         style="fill:#33414b;fill-opacity:1;fill-rule:nonzero;stroke:none"
         id="path170" />
      <path
         d="M 1310.27,5281.31 H 689.734 c -7.398,0 -13.394,6 -13.394,13.39 v 202.36 c 0,7.39 5.996,13.39 13.394,13.39 h 620.536 c 7.39,0 13.39,-6 13.39,-13.39 V 5294.7 c 0,-7.39 -6,-13.39 -13.39,-13.39 z m -6.39,-280.5 h -66.42 c -10.92,0 -19.78,8.86 -19.78,19.78 v 66.43 c 0,10.92 8.86,19.77 19.78,19.77 h 66.42 c 10.93,0 19.78,-8.85 19.78,-19.77 v -66.43 c 0,-10.92 -8.85,-19.78 -19.78,-19.78 z m 0,-170.42 h -66.42 c -10.92,0 -19.78,8.86 -19.78,19.78 v 66.42 c 0,10.93 8.86,19.78 19.78,19.78 h 66.42 c 10.93,0 19.78,-8.85 19.78,-19.78 v -66.42 c 0,-10.92 -8.85,-19.78 -19.78,-19.78 z m 0,-340.84 h -66.42 c -10.92,0 -19.78,8.85 -19.78,19.78 v 236.84 c 0,10.92 8.86,19.78 19.78,19.78 h 66.42 c 10.93,0 19.78,-8.86 19.78,-19.78 v -236.84 c 0,-10.93 -8.85,-19.78 -19.78,-19.78 z m -211.95,511.26 h -66.42 c -10.93,0 -19.78,8.86 -19.78,19.78 v 66.43 c 0,10.92 8.85,19.77 19.78,19.77 h 66.42 c 10.92,0 19.77,-8.85 19.77,-19.77 v -66.43 c 0,-10.92 -8.85,-19.78 -19.77,-19.78 z m 0,-170.42 h -66.42 c -10.93,0 -19.78,8.86 -19.78,19.78 v 66.42 c 0,10.93 8.85,19.78 19.78,19.78 h 66.42 c 10.92,0 19.77,-8.85 19.77,-19.78 v -66.42 c 0,-10.92 -8.85,-19.78 -19.77,-19.78 z m 0,-170.42 h -66.42 c -10.93,0 -19.78,8.86 -19.78,19.78 v 66.42 c 0,10.92 8.85,19.78 19.78,19.78 h 66.42 c 10.92,0 19.77,-8.86 19.77,-19.78 v -66.42 c 0,-10.92 -8.85,-19.78 -19.77,-19.78 z m 0,-170.42 h -66.42 c -10.93,0 -19.78,8.85 -19.78,19.78 v 66.42 c 0,10.92 8.85,19.77 19.78,19.77 h 66.42 c 10.92,0 19.77,-8.85 19.77,-19.77 v -66.42 c 0,-10.93 -8.85,-19.78 -19.77,-19.78 z m -164.696,511.26 h -66.425 c -10.922,0 -19.778,8.86 -19.778,19.78 v 66.43 c 0,10.92 8.856,19.77 19.778,19.77 h 66.425 c 10.922,0 19.778,-8.85 19.778,-19.77 v -66.43 c 0,-10.92 -8.856,-19.78 -19.778,-19.78 z m 0,-170.42 h -66.425 c -10.922,0 -19.778,8.86 -19.778,19.78 v 66.42 c 0,10.93 8.856,19.78 19.778,19.78 h 66.425 c 10.922,0 19.778,-8.85 19.778,-19.78 v -66.42 c 0,-10.92 -8.856,-19.78 -19.778,-19.78 z m 0,-170.42 h -66.425 c -10.922,0 -19.778,8.86 -19.778,19.78 v 66.42 c 0,10.92 8.856,19.78 19.778,19.78 h 66.425 c 10.922,0 19.778,-8.86 19.778,-19.78 v -66.42 c 0,-10.92 -8.856,-19.78 -19.778,-19.78 z m 0,-170.42 h -66.425 c -10.922,0 -19.778,8.85 -19.778,19.78 v 66.42 c 0,10.92 8.856,19.77 19.778,19.77 h 66.425 c 10.922,0 19.778,-8.85 19.778,-19.77 v -66.42 c 0,-10.93 -8.856,-19.78 -19.778,-19.78 z m -164.695,511.26 h -66.422 c -10.922,0 -19.777,8.86 -19.777,19.78 v 66.43 c 0,10.92 8.855,19.77 19.777,19.77 h 66.422 c 10.926,0 19.777,-8.85 19.777,-19.77 v -66.43 c 0,-10.92 -8.851,-19.78 -19.777,-19.78 z m 0,-170.42 h -66.422 c -10.922,0 -19.777,8.86 -19.777,19.78 v 66.42 c 0,10.93 8.855,19.78 19.777,19.78 h 66.422 c 10.926,0 19.777,-8.85 19.777,-19.78 v -66.42 c 0,-10.92 -8.851,-19.78 -19.777,-19.78 z m 0,-170.42 h -66.422 c -10.922,0 -19.777,8.86 -19.777,19.78 v 66.42 c 0,10.92 8.855,19.78 19.777,19.78 h 66.422 c 10.926,0 19.777,-8.86 19.777,-19.78 v -66.42 c 0,-10.92 -8.851,-19.78 -19.777,-19.78 z m 0,-170.42 h -66.422 c -10.922,0 -19.777,8.85 -19.777,19.78 v 66.42 c 0,10.92 8.855,19.77 19.777,19.77 h 66.422 c 10.926,0 19.777,-8.85 19.777,-19.77 v -66.42 c 0,-10.93 -8.851,-19.78 -19.777,-19.78 z M 564.637,5556.08 V 4443.92 c 0,-35.42 28.707,-64.13 64.125,-64.13 h 742.478 c 35.41,0 64.12,28.71 64.12,64.13 v 1112.16 c 0,35.42 -28.71,64.13 -64.12,64.13 H 628.762 c -35.418,0 -64.125,-28.71 -64.125,-64.13"
         style="fill:#33414b;fill-opacity:1;fill-rule:nonzero;stroke:none"
         id="path172" />
      <path
         d="m 954.859,5346.61 h 24.266 c 10.637,0 16.016,4.7 16.016,15.5 v 71.82 c 0,9.2 -3.946,15.5 -15.457,15.5 h -25.313 c -12.746,0 -16.242,-8.35 -16.242,-15.5 v -71.75 c 0,-12.63 8.957,-15.57 16.73,-15.57 z m -39.933,89.42 c 0,23.14 14.844,35.21 35.949,35.21 h 32.801 c 26.014,0 34.664,-16.05 34.664,-34.51 v -77.42 c 0,-23.8 -13.46,-34.51 -34.731,-34.51 h -32.804 c -20.938,0 -35.879,10.51 -35.879,34.51 v 76.72"
         style="fill:#33414b;fill-opacity:1;fill-rule:nonzero;stroke:none"
         id="path174" />
      <path
         d="m 1081.86,5346.61 h 24.27 c 10.63,0 16.01,4.7 16.01,15.5 v 71.82 c 0,9.2 -3.94,15.5 -15.46,15.5 h -25.31 c -12.74,0 -16.24,-8.35 -16.24,-15.5 v -71.75 c 0,-12.63 8.96,-15.57 16.73,-15.57 z m -39.93,89.42 c 0,23.14 14.84,35.21 35.95,35.21 h 32.8 c 26.01,0 34.67,-16.05 34.67,-34.51 v -77.42 c 0,-23.8 -13.47,-34.51 -34.74,-34.51 h -32.8 c -20.94,0 -35.88,10.51 -35.88,34.51 v 76.72"
         style="fill:#33414b;fill-opacity:1;fill-rule:nonzero;stroke:none"
         id="path176" />
      <path
         d="m 1208.85,5346.61 h 24.27 c 10.63,0 16.02,4.7 16.02,15.5 v 71.82 c 0,9.2 -3.95,15.5 -15.46,15.5 h -25.32 c -12.74,0 -16.24,-8.35 -16.24,-15.5 v -71.75 c 0,-12.63 8.96,-15.57 16.73,-15.57 z m -39.93,89.42 c 0,23.14 14.84,35.21 35.95,35.21 h 32.8 c 26.02,0 34.67,-16.05 34.67,-34.51 v -77.42 c 0,-23.8 -13.47,-34.51 -34.74,-34.51 h -32.8 c -20.94,0 -35.88,10.51 -35.88,34.51 v 76.72"
         style="fill:#33414b;fill-opacity:1;fill-rule:nonzero;stroke:none"
         id="path178" />
      <path
         d="m 7060.1,1395.06 c 39.24,-31.52 96.82,-25.24 128.34,14.01 31.52,39.25 25.23,96.82 -14.02,128.34 -39.24,31.52 -96.82,25.23 -128.34,-14.02 -31.52,-39.24 -25.23,-96.82 14.02,-128.33 z m 158.28,197.09 c 69.43,-55.76 80.55,-157.61 24.8,-227.04 -55.76,-69.43 -157.61,-80.55 -227.04,-24.79 -69.43,55.76 -80.55,157.61 -24.79,227.03 55.75,69.43 157.6,80.55 227.03,24.8"
         style="fill:#33414b;fill-opacity:1;fill-rule:nonzero;stroke:none"
         id="path180" />
      <path
         d="m 7356.97,1156.64 c 39.24,-31.52 96.82,-25.23 128.34,14.02 31.51,39.24 25.23,96.82 -14.02,128.34 -39.24,31.52 -96.82,25.23 -128.34,-14.02 -31.52,-39.24 -25.23,-96.82 14.02,-128.34 z m 158.28,197.09 c 69.43,-55.75 80.55,-157.6 24.79,-227.03 -55.75,-69.43 -157.6,-80.55 -227.03,-24.79 -69.43,55.75 -80.55,157.6 -24.8,227.03 55.76,69.43 157.61,80.55 227.04,24.79"
         style="fill:#33414b;fill-opacity:1;fill-rule:nonzero;stroke:none"
         id="path182" />
      <path
         d="m 6434.85,607.73 440.86,275.352 51.53,145.328 -423.76,-264.66 c -65.98,-41.211 -96.71,-111.059 -68.63,-156.02"
         style="fill:#33414b;fill-opacity:1;fill-rule:nonzero;stroke:none"
         id="path184" />
      <path
         d="M 7043.13,1278.63 6723.16,376.191 c 49.95,-17.711 111.53,27.368 137.52,100.688 l 180.71,509.68 34.9,21.791 170.66,106.59 c -9.34,13.46 -16.37,28.13 -20.97,43.48 l -224.21,-140.04 88.34,249.16 c -15.98,1.18 -31.83,4.88 -46.98,11.09"
         style="fill:#33414b;fill-opacity:1;fill-rule:nonzero;stroke:none"
         id="path186" />
      <path
         d="M 3570.79,1456.21 H 2429.21 c -28.56,0 -51.71,23.15 -51.71,51.7 0,28.56 23.15,51.71 51.71,51.71 h 1141.58 c 28.56,0 51.71,-23.15 51.71,-51.71 0,-28.55 -23.15,-51.7 -51.71,-51.7"
         style="fill:#33414b;fill-opacity:1;fill-rule:nonzero;stroke:none"
         id="path188" />
      <path
         d="M 3570.79,440.379 H 2429.21 c -28.56,0 -51.71,23.152 -51.71,51.711 0,28.551 23.15,51.699 51.71,51.699 h 1141.58 c 28.56,0 51.71,-23.148 51.71,-51.699 0,-28.559 -23.15,-51.711 -51.71,-51.711"
         style="fill:#33414b;fill-opacity:1;fill-rule:nonzero;stroke:none"
         id="path190" />
      <path
         d="M 2478.33,538.789 H 3521.67 V 1461.21 H 2478.33 Z m 1052.31,-50 H 2469.36 c -22.62,0 -41.03,18.41 -41.03,41.02 v 940.381 c 0,22.61 18.41,41.02 41.03,41.02 h 1061.28 c 22.62,0 41.03,-18.41 41.03,-41.02 V 529.809 c 0,-22.61 -18.41,-41.02 -41.03,-41.02"
         style="fill:#33414b;fill-opacity:1;fill-rule:nonzero;stroke:none"
         id="path192" />
      <path
         d="m 2975.79,1278.25 c -151.85,0 -274.96,-123.1 -274.96,-274.96 0,-151.849 123.11,-274.958 274.96,-274.958 151.86,0 274.96,123.109 274.96,274.958 h -274.96 v 274.96"
         style="fill:#33414b;fill-opacity:1;fill-rule:nonzero;stroke:none"
         id="path194" />
      <path
         d="m 3059.21,1086.71 h 234.18 c -9.72,124.68 -109.5,224.47 -234.18,234.18 z m 274.96,-40 h -314.96 v 314.96 h 20 c 162.64,0 294.96,-132.31 294.96,-294.96 v -20"
         style="fill:#33414b;fill-opacity:1;fill-rule:nonzero;stroke:none"
         id="path196" />
      <path
         d="M 1522.02,408.91 H 483.59 c -13.809,0 -25,11.192 -25,25 0,13.801 11.191,25 25,25 h 1038.43 c 13.81,0 25,-11.199 25,-25 0,-13.808 -11.19,-25 -25,-25"
         style="fill:#33414b;fill-opacity:1;fill-rule:nonzero;stroke:none"
         id="path198" />
      <path
         d="m 815.941,1146.76 181.313,-144.8 -80.258,-84.171 -165.394,132.081 64.339,96.89"
         style="fill:#33414b;fill-opacity:1;fill-rule:nonzero;stroke:none"
         id="path200" />
      <path
         d="m 846.328,1184.81 181.312,-144.8 296.32,417.32 -136.18,108.76 -341.452,-381.28"
         style="fill:#33414b;fill-opacity:1;fill-rule:nonzero;stroke:none"
         id="path202" />
      <path
         d="m 478.703,583.48 c -3.805,-9.148 8.32,-16.398 14.504,-8.66 L 639.84,758.43 c -12.852,16.629 -13.328,40.41 0.371,57.57 16.082,20.141 45.445,23.422 65.586,7.34 20.137,-16.078 23.426,-45.449 7.344,-65.59 -13.7,-17.148 -36.996,-21.941 -56.059,-13.09 L 510.449,561.051 c -6.183,-7.742 3.571,-17.961 11.653,-12.231 130.16,92.371 233.074,120.09 233.074,120.09 l 130.863,210.11 -74.281,59.32 -17.242,13.769 -74.282,59.321 L 544.27,837.34 c 0,0 -4.27,-106.488 -65.567,-253.86"
         style="fill:#33414b;fill-opacity:1;fill-rule:nonzero;stroke:none"
         id="path204" />
      <path
         d="m 4590.84,5003.33 h -65.86 c -5.74,0 -10.4,4.66 -10.4,10.41 v 65.86 c 0,5.74 4.66,10.4 10.4,10.4 h 65.86 c 5.75,0 10.41,-4.66 10.41,-10.4 v -65.86 c 0,-5.75 -4.66,-10.41 -10.41,-10.41"
         style="fill:#33414b;fill-opacity:1;fill-rule:nonzero;stroke:none"
         id="path206" />
      <path
         d="m 4529.58,5018.33 h 56.67 V 5075 h -56.67 z m 61.27,-30 h -65.87 c -14,0 -25.4,11.4 -25.4,25.41 v 65.86 c 0,14 11.4,25.4 25.4,25.4 h 65.87 c 14,0 25.4,-11.4 25.4,-25.4 v -65.86 c 0,-14.01 -11.4,-25.41 -25.4,-25.41"
         style="fill:#33414b;fill-opacity:1;fill-rule:nonzero;stroke:none"
         id="path208" />
      <path
         d="m 4765.84,5003.33 h -65.86 c -5.74,0 -10.4,4.66 -10.4,10.41 v 65.86 c 0,5.74 4.66,10.4 10.4,10.4 h 65.86 c 5.75,0 10.41,-4.66 10.41,-10.4 v -65.86 c 0,-5.75 -4.66,-10.41 -10.41,-10.41"
         style="fill:#33414b;fill-opacity:1;fill-rule:nonzero;stroke:none"
         id="path210" />
      <path
         d="m 4704.58,5018.33 h 56.67 V 5075 h -56.67 z m 61.27,-30 h -65.87 c -14,0 -25.4,11.4 -25.4,25.41 v 65.86 c 0,14 11.4,25.4 25.4,25.4 h 65.87 c 14,0 25.4,-11.4 25.4,-25.4 v -65.86 c 0,-14.01 -11.4,-25.41 -25.4,-25.41"
         style="fill:#33414b;fill-opacity:1;fill-rule:nonzero;stroke:none"
         id="path212" />
      <path
         d="m 4940.84,5003.33 h -65.86 c -5.74,0 -10.4,4.66 -10.4,10.41 v 65.86 c 0,5.74 4.66,10.4 10.4,10.4 h 65.86 c 5.75,0 10.41,-4.66 10.41,-10.4 v -65.86 c 0,-5.75 -4.66,-10.41 -10.41,-10.41"
         style="fill:#33414b;fill-opacity:1;fill-rule:nonzero;stroke:none"
         id="path214" />
      <path
         d="m 4879.58,5018.33 h 56.67 V 5075 h -56.67 z m 61.27,-30 h -65.87 c -14,0 -25.4,11.4 -25.4,25.41 v 65.86 c 0,14 11.4,25.4 25.4,25.4 h 65.87 c 14,0 25.4,-11.4 25.4,-25.4 v -65.86 c 0,-14.01 -11.4,-25.41 -25.4,-25.41"
         style="fill:#33414b;fill-opacity:1;fill-rule:nonzero;stroke:none"
         id="path216" />
      <path
         d="m 5115.84,5003.33 h -65.86 c -5.74,0 -10.4,4.66 -10.4,10.41 v 65.86 c 0,5.74 4.66,10.4 10.4,10.4 h 65.86 c 5.75,0 10.41,-4.66 10.41,-10.4 v -65.86 c 0,-5.75 -4.66,-10.41 -10.41,-10.41"
         style="fill:#33414b;fill-opacity:1;fill-rule:nonzero;stroke:none"
         id="path218" />
      <path
         d="m 5054.58,5018.33 h 56.67 V 5075 h -56.67 z m 61.27,-30 h -65.87 c -14,0 -25.4,11.4 -25.4,25.41 v 65.86 c 0,14 11.4,25.4 25.4,25.4 h 65.87 c 14,0 25.4,-11.4 25.4,-25.4 v -65.86 c 0,-14.01 -11.4,-25.41 -25.4,-25.41"
         style="fill:#33414b;fill-opacity:1;fill-rule:nonzero;stroke:none"
         id="path220" />
      <path
         d="m 5290.84,5003.33 h -65.86 c -5.74,0 -10.4,4.66 -10.4,10.41 v 65.86 c 0,5.74 4.66,10.4 10.4,10.4 h 65.86 c 5.75,0 10.41,-4.66 10.41,-10.4 v -65.86 c 0,-5.75 -4.66,-10.41 -10.41,-10.41"
         style="fill:#33414b;fill-opacity:1;fill-rule:nonzero;stroke:none"
         id="path222" />
      <path
         d="m 5229.58,5018.33 h 56.67 V 5075 h -56.67 z m 61.27,-30 h -65.87 c -14,0 -25.4,11.4 -25.4,25.41 v 65.86 c 0,14 11.4,25.4 25.4,25.4 h 65.87 c 14,0 25.4,-11.4 25.4,-25.4 v -65.86 c 0,-14.01 -11.4,-25.41 -25.4,-25.41"
         style="fill:#33414b;fill-opacity:1;fill-rule:nonzero;stroke:none"
         id="path224" />
      <path
         d="m 5404.58,5018.33 h 56.67 V 5075 h -56.67 z m 61.27,-30 h -65.87 c -14,0 -25.4,11.4 -25.4,25.41 v 65.86 c 0,14 11.4,25.4 25.4,25.4 h 65.87 c 14,0 25.4,-11.4 25.4,-25.4 v -65.86 c 0,-14.01 -11.4,-25.41 -25.4,-25.41"
         style="fill:#33414b;fill-opacity:1;fill-rule:nonzero;stroke:none"
         id="path226" />
      <path
         d="m 4590.84,4846.67 h -65.86 c -5.74,0 -10.4,4.65 -10.4,10.4 v 65.86 c 0,5.75 4.66,10.4 10.4,10.4 h 65.86 c 5.75,0 10.41,-4.65 10.41,-10.4 v -65.86 c 0,-5.75 -4.66,-10.4 -10.41,-10.4"
         style="fill:#33414b;fill-opacity:1;fill-rule:nonzero;stroke:none"
         id="path228" />
      <path
         d="m 4529.58,4861.67 h 56.67 v 56.66 h -56.67 z m 61.27,-30 h -65.87 c -14,0 -25.4,11.39 -25.4,25.4 v 65.86 c 0,14.01 11.4,25.4 25.4,25.4 h 65.87 c 14,0 25.4,-11.39 25.4,-25.4 v -65.86 c 0,-14.01 -11.4,-25.4 -25.4,-25.4"
         style="fill:#33414b;fill-opacity:1;fill-rule:nonzero;stroke:none"
         id="path230" />
      <path
         d="m 4765.84,4846.67 h -65.86 c -5.74,0 -10.4,4.65 -10.4,10.4 v 65.86 c 0,5.75 4.66,10.4 10.4,10.4 h 65.86 c 5.75,0 10.41,-4.65 10.41,-10.4 v -65.86 c 0,-5.75 -4.66,-10.4 -10.41,-10.4"
         style="fill:#33414b;fill-opacity:1;fill-rule:nonzero;stroke:none"
         id="path232" />
      <path
         d="m 4704.58,4861.67 h 56.67 v 56.66 h -56.67 z m 61.27,-30 h -65.87 c -14,0 -25.4,11.39 -25.4,25.4 v 65.86 c 0,14.01 11.4,25.4 25.4,25.4 h 65.87 c 14,0 25.4,-11.39 25.4,-25.4 v -65.86 c 0,-14.01 -11.4,-25.4 -25.4,-25.4"
         style="fill:#33414b;fill-opacity:1;fill-rule:nonzero;stroke:none"
         id="path234" />
      <path
         d="m 4940.84,4846.67 h -65.86 c -5.74,0 -10.4,4.65 -10.4,10.4 v 65.86 c 0,5.75 4.66,10.4 10.4,10.4 h 65.86 c 5.75,0 10.41,-4.65 10.41,-10.4 v -65.86 c 0,-5.75 -4.66,-10.4 -10.41,-10.4"
         style="fill:#33414b;fill-opacity:1;fill-rule:nonzero;stroke:none"
         id="path236" />
      <path
         d="m 4879.58,4861.67 h 56.67 v 56.66 h -56.67 z m 61.27,-30 h -65.87 c -14,0 -25.4,11.39 -25.4,25.4 v 65.86 c 0,14.01 11.4,25.4 25.4,25.4 h 65.87 c 14,0 25.4,-11.39 25.4,-25.4 v -65.86 c 0,-14.01 -11.4,-25.4 -25.4,-25.4"
         style="fill:#33414b;fill-opacity:1;fill-rule:nonzero;stroke:none"
         id="path238" />
      <path
         d="m 5115.84,4846.67 h -65.86 c -5.74,0 -10.4,4.65 -10.4,10.4 v 65.86 c 0,5.75 4.66,10.4 10.4,10.4 h 65.86 c 5.75,0 10.41,-4.65 10.41,-10.4 v -65.86 c 0,-5.75 -4.66,-10.4 -10.41,-10.4"
         style="fill:#33414b;fill-opacity:1;fill-rule:nonzero;stroke:none"
         id="path240" />
      <path
         d="m 5054.58,4861.67 h 56.67 v 56.66 h -56.67 z m 61.27,-30 h -65.87 c -14,0 -25.4,11.39 -25.4,25.4 v 65.86 c 0,14.01 11.4,25.4 25.4,25.4 h 65.87 c 14,0 25.4,-11.39 25.4,-25.4 v -65.86 c 0,-14.01 -11.4,-25.4 -25.4,-25.4"
         style="fill:#33414b;fill-opacity:1;fill-rule:nonzero;stroke:none"
         id="path242" />
      <path
         d="m 5290.84,4846.67 h -65.86 c -5.74,0 -10.4,4.65 -10.4,10.4 v 65.86 c 0,5.75 4.66,10.4 10.4,10.4 h 65.86 c 5.75,0 10.41,-4.65 10.41,-10.4 v -65.86 c 0,-5.75 -4.66,-10.4 -10.41,-10.4"
         style="fill:#33414b;fill-opacity:1;fill-rule:nonzero;stroke:none"
         id="path244" />
      <path
         d="m 5229.58,4861.67 h 56.67 v 56.66 h -56.67 z m 61.27,-30 h -65.87 c -14,0 -25.4,11.39 -25.4,25.4 v 65.86 c 0,14.01 11.4,25.4 25.4,25.4 h 65.87 c 14,0 25.4,-11.39 25.4,-25.4 v -65.86 c 0,-14.01 -11.4,-25.4 -25.4,-25.4"
         style="fill:#33414b;fill-opacity:1;fill-rule:nonzero;stroke:none"
         id="path246" />
      <path
         d="m 5404.58,4861.67 h 56.67 v 56.66 h -56.67 z m 61.27,-30 h -65.87 c -14,0 -25.4,11.39 -25.4,25.4 v 65.86 c 0,14.01 11.4,25.4 25.4,25.4 h 65.87 c 14,0 25.4,-11.39 25.4,-25.4 v -65.86 c 0,-14.01 -11.4,-25.4 -25.4,-25.4"
         style="fill:#33414b;fill-opacity:1;fill-rule:nonzero;stroke:none"
         id="path248" />
      <path
         d="m 4590.84,4690 h -65.86 c -5.74,0 -10.4,4.66 -10.4,10.4 v 65.86 c 0,5.75 4.66,10.41 10.4,10.41 h 65.86 c 5.75,0 10.41,-4.66 10.41,-10.41 v -65.86 c 0,-5.74 -4.66,-10.4 -10.41,-10.4"
         style="fill:#33414b;fill-opacity:1;fill-rule:nonzero;stroke:none"
         id="path250" />
      <path
         d="m 4529.58,4705 h 56.67 v 56.67 h -56.67 z m 61.27,-30 h -65.87 c -14,0 -25.4,11.4 -25.4,25.4 v 65.86 c 0,14.01 11.4,25.41 25.4,25.41 h 65.87 c 14,0 25.4,-11.4 25.4,-25.41 v -65.86 c 0,-14 -11.4,-25.4 -25.4,-25.4"
         style="fill:#33414b;fill-opacity:1;fill-rule:nonzero;stroke:none"
         id="path252" />
      <path
         d="m 4765.84,4690 h -65.86 c -5.74,0 -10.4,4.66 -10.4,10.4 v 65.86 c 0,5.75 4.66,10.41 10.4,10.41 h 65.86 c 5.75,0 10.41,-4.66 10.41,-10.41 v -65.86 c 0,-5.74 -4.66,-10.4 -10.41,-10.4"
         style="fill:#33414b;fill-opacity:1;fill-rule:nonzero;stroke:none"
         id="path254" />
      <path
         d="m 4704.58,4705 h 56.67 v 56.67 h -56.67 z m 61.27,-30 h -65.87 c -14,0 -25.4,11.4 -25.4,25.4 v 65.86 c 0,14.01 11.4,25.41 25.4,25.41 h 65.87 c 14,0 25.4,-11.4 25.4,-25.41 v -65.86 c 0,-14 -11.4,-25.4 -25.4,-25.4"
         style="fill:#33414b;fill-opacity:1;fill-rule:nonzero;stroke:none"
         id="path256" />
      <path
         d="m 4940.84,4690 h -65.86 c -5.74,0 -10.4,4.66 -10.4,10.4 v 65.86 c 0,5.75 4.66,10.41 10.4,10.41 h 65.86 c 5.75,0 10.41,-4.66 10.41,-10.41 v -65.86 c 0,-5.74 -4.66,-10.4 -10.41,-10.4"
         style="fill:#33414b;fill-opacity:1;fill-rule:nonzero;stroke:none"
         id="path258" />
      <path
         d="m 4879.58,4705 h 56.67 v 56.67 h -56.67 z m 61.27,-30 h -65.87 c -14,0 -25.4,11.4 -25.4,25.4 v 65.86 c 0,14.01 11.4,25.41 25.4,25.41 h 65.87 c 14,0 25.4,-11.4 25.4,-25.41 v -65.86 c 0,-14 -11.4,-25.4 -25.4,-25.4"
         style="fill:#33414b;fill-opacity:1;fill-rule:nonzero;stroke:none"
         id="path260" />
      <path
         d="m 5115.84,4690 h -65.86 c -5.74,0 -10.4,4.66 -10.4,10.4 v 65.86 c 0,5.75 4.66,10.41 10.4,10.41 h 65.86 c 5.75,0 10.41,-4.66 10.41,-10.41 v -65.86 c 0,-5.74 -4.66,-10.4 -10.41,-10.4"
         style="fill:#33414b;fill-opacity:1;fill-rule:nonzero;stroke:none"
         id="path262" />
      <path
         d="m 5054.58,4705 h 56.67 v 56.67 h -56.67 z m 61.27,-30 h -65.87 c -14,0 -25.4,11.4 -25.4,25.4 v 65.86 c 0,14.01 11.4,25.41 25.4,25.41 h 65.87 c 14,0 25.4,-11.4 25.4,-25.41 v -65.86 c 0,-14 -11.4,-25.4 -25.4,-25.4"
         style="fill:#33414b;fill-opacity:1;fill-rule:nonzero;stroke:none"
         id="path264" />
      <path
         d="m 5290.84,4690 h -65.86 c -5.74,0 -10.4,4.66 -10.4,10.4 v 65.86 c 0,5.75 4.66,10.41 10.4,10.41 h 65.86 c 5.75,0 10.41,-4.66 10.41,-10.41 v -65.86 c 0,-5.74 -4.66,-10.4 -10.41,-10.4"
         style="fill:#33414b;fill-opacity:1;fill-rule:nonzero;stroke:none"
         id="path266" />
      <path
         d="m 5229.58,4705 h 56.67 v 56.67 h -56.67 z m 61.27,-30 h -65.87 c -14,0 -25.4,11.4 -25.4,25.4 v 65.86 c 0,14.01 11.4,25.41 25.4,25.41 h 65.87 c 14,0 25.4,-11.4 25.4,-25.41 v -65.86 c 0,-14 -11.4,-25.4 -25.4,-25.4"
         style="fill:#33414b;fill-opacity:1;fill-rule:nonzero;stroke:none"
         id="path268" />
      <path
         d="m 5367.91,4545 c -13.81,0 -25,11.19 -25,25 v 180.4 c 0,22.75 18.52,41.27 41.27,41.27 h 180.4 c 13.81,0 25,-11.2 25,-25 0,-13.81 -11.19,-25 -25,-25 H 5392.91 V 4570 c 0,-13.81 -11.19,-25 -25,-25"
         style="fill:#33414b;fill-opacity:1;fill-rule:nonzero;stroke:none"
         id="path270" />
      <path
         d="m 4641.81,5480 h 142.74"
         style="fill:#33414b;fill-opacity:1;fill-rule:nonzero;stroke:none"
         id="path272" />
      <path
         d="m 5221.28,5480 h 142.73"
         style="fill:#33414b;fill-opacity:1;fill-rule:nonzero;stroke:none"
         id="path274" />
      <path
         d="m 4713.18,5320 c -16.11,0 -29.17,13.06 -29.17,29.17 0,16.11 13.06,29.16 29.17,29.16 16.11,0 29.17,-13.05 29.17,-29.16 0,-16.11 -13.06,-29.17 -29.17,-29.17 z m -71.37,160 v -150.3 c 0,-39.41 31.96,-71.37 71.37,-71.37 39.42,0 71.37,31.96 71.37,71.37 V 5480 h -142.74"
         style="fill:#33414b;fill-opacity:1;fill-rule:nonzero;stroke:none"
         id="path276" />
      <path
         d="m 5292.65,5320 c -16.11,0 -29.17,13.06 -29.17,29.17 0,16.11 13.06,29.16 29.17,29.16 16.1,0 29.16,-13.05 29.16,-29.16 0,-16.11 -13.06,-29.17 -29.16,-29.17 z m -71.37,160 v -150.3 c 0,-39.41 31.95,-71.37 71.37,-71.37 v 0 c 39.41,0 71.36,31.96 71.36,71.37 V 5480 h -142.73"
         style="fill:#33414b;fill-opacity:1;fill-rule:nonzero;stroke:none"
         id="path278" />
      <path
         d="m 5589.58,5196.67 v 135.4 c 0,25.51 -20.75,46.26 -46.26,46.26 h -159.31 v -48.63 c 0,-50.38 -40.98,-91.37 -91.36,-91.37 -50.38,0 -91.37,40.99 -91.37,91.37 v 48.63 h -396.73 v -48.63 c 0,-50.38 -40.99,-91.37 -91.37,-91.37 -50.38,0 -91.36,40.99 -91.36,91.37 v 48.63 h -159.31 c -25.51,0 -46.26,-20.75 -46.26,-46.26 v -135.4 h 1173.33"
         style="fill:#33414b;fill-opacity:1;fill-rule:nonzero;stroke:none"
         id="path280" />
      <path
         d="m 5527.49,5403.33 h -141.63 l -1.85,-0.18 v -49.63 l 1.85,-0.19 h 141.63 c 17.24,0 31.26,-14.02 31.26,-31.26 v -559.59 c 0,-8.24 -3.34,-16.29 -9.15,-22.11 l -161.23,-161.21 c -5.9,-5.91 -13.74,-9.16 -22.09,-9.16 h -893.77 c -17.24,0 -31.26,14.02 -31.26,31.26 v 720.81 c 0,17.24 14.02,31.26 31.26,31.26 h 138.74 c 3.79,0 7.35,0.91 10.57,2.42 v 45.17 c -3.22,1.51 -6.78,2.41 -10.57,2.41 h -138.74 c -44.8,0 -81.26,-36.45 -81.26,-81.26 v -720.81 c 0,-44.8 36.46,-81.26 81.26,-81.26 h 893.77 c 21.71,0 42.11,8.45 57.45,23.8 l 161.22,161.22 c 15.35,15.34 23.8,35.75 23.8,57.46 v 559.59 c 0,44.81 -36.46,81.26 -81.26,81.26"
         style="fill:#33414b;fill-opacity:1;fill-rule:nonzero;stroke:none"
         id="path282" />
      <path
         d="m 7333.91,2449.8 c -13.81,0 -25,11.2 -25,25 v 795.15 c 0,2.8 -1.1,5.43 -3.07,7.41 L 7156.3,3426.9 c -1.98,1.98 -4.62,3.07 -7.42,3.07 h -553 c -13.81,0 -25,11.19 -25,25 0,13.81 11.19,25 25,25 h 553 c 16.16,0 31.35,-6.29 42.77,-17.71 l 149.54,-149.55 c 11.43,-11.41 17.72,-26.61 17.72,-42.76 V 2474.8 c 0,-13.8 -11.2,-25 -25,-25"
         style="fill:#33414b;fill-opacity:1;fill-rule:nonzero;stroke:none"
         id="path284" />
      <path
         d="m 7419.61,2535.51 c -13.81,0 -25,11.19 -25,25 v 795.14 c 0,2.76 -1.11,5.45 -3.07,7.4 l -149.55,149.56 c -1.98,1.97 -4.61,3.06 -7.41,3.06 h -553 c -13.81,0 -25,11.2 -25,25 0,13.81 11.19,25 25,25 h 553 c 16.15,0 31.35,-6.29 42.76,-17.71 l 149.54,-149.54 c 11.26,-11.24 17.73,-26.84 17.73,-42.77 v -795.14 c 0,-13.81 -11.19,-25 -25,-25"
         style="fill:#33414b;fill-opacity:1;fill-rule:nonzero;stroke:none"
         id="path286" />
      <path
         d="m 7505.3,2621.21 c -13.81,0 -25,11.19 -25,25 v 795.14 c 0,2.8 -1.09,5.44 -3.08,7.43 l -149.52,149.53 c -1.96,1.94 -4.65,3.07 -7.42,3.07 h -552.99 c -13.81,0 -25,11.19 -25,25 0,13.81 11.19,25 25,25 h 552.99 c 15.92,0 31.51,-6.46 42.77,-17.72 l 149.54,-149.54 c 11.42,-11.44 17.71,-26.63 17.71,-42.77 v -795.14 c 0,-13.81 -11.19,-25 -25,-25"
         style="fill:#33414b;fill-opacity:1;fill-rule:nonzero;stroke:none"
         id="path288" />
      <path
         d="m 7258.74,3184.76 h -145.38 c -27.39,0 -49.67,22.28 -49.67,49.67 v 145.38 c 0,7.85 6.35,14.19 14.19,14.19 7.84,0 14.19,-6.34 14.19,-14.19 v -145.38 c 0,-11.73 9.55,-21.3 21.29,-21.3 h 145.38 c 7.84,0 14.19,-6.34 14.19,-14.18 0,-7.85 -6.35,-14.19 -14.19,-14.19"
         style="fill:#33414b;fill-opacity:1;fill-rule:nonzero;stroke:none"
         id="path290" />
      <path
         d="m 7128.53,3233.64 h 124.98 l -141.92,141.92 v -124.99 c 0,-9.34 7.6,-16.93 16.94,-16.93"
         style="fill:#33414b;fill-opacity:1;fill-rule:nonzero;stroke:none"
         id="path292" />
      <path
         d="m 7175.97,3115.81 h -589.05 c -8.28,0 -15,6.72 -15,15 0,8.28 6.72,15 15,15 h 589.05 c 8.28,0 15,-6.72 15,-15 0,-8.28 -6.72,-15 -15,-15 z m 0,-112.87 h -589.05 c -8.28,0 -15,6.72 -15,15 0,8.28 6.72,15 15,15 h 589.05 c 8.28,0 15,-6.72 15,-15 0,-8.28 -6.72,-15 -15,-15 z m 0,-112.87 h -589.05 c -8.28,0 -15,6.72 -15,15 0,8.28 6.72,15 15,15 h 589.05 c 8.28,0 15,-6.72 15,-15 0,-8.28 -6.72,-15 -15,-15 z m 0,-112.87 h -589.05 c -8.28,0 -15,6.72 -15,15 0,8.28 6.72,15 15,15 h 589.05 c 8.28,0 15,-6.72 15,-15 0,-8.28 -6.72,-15 -15,-15 z m 0,-112.86 h -589.05 c -8.28,0 -15,6.71 -15,15 0,8.28 6.72,15 15,15 h 589.05 c 8.28,0 15,-6.72 15,-15 0,-8.29 -6.72,-15 -15,-15 z m 0,-112.88 h -589.05 c -8.28,0 -15,6.72 -15,15 0,8.29 6.72,15 15,15 h 589.05 c 8.28,0 15,-6.71 15,-15 0,-8.28 -6.72,-15 -15,-15 z m -589.05,707.22 h 418.73 c 8.28,0 15,-6.72 15,-15 0,-8.28 -6.72,-15 -15,-15 h -418.73 c -8.28,0 -15,6.72 -15,15 0,8.28 6.72,15 15,15 z m 541.61,-65.04 c -31.4,0 -56.94,25.54 -56.94,56.93 v 138.7 h -541.41 c -19.6,0 -35.49,-15.88 -35.49,-35.48 v -944.68 c 0,-19.6 15.89,-35.49 35.49,-35.49 h 702.54 c 19.6,0 35.48,15.89 35.48,35.49 v 784.53 h -139.67"
         style="fill:#33414b;fill-opacity:1;fill-rule:nonzero;stroke:none"
         id="path294" />
      <path
         d="M 5296.94,1424.44 H 4700.4 c -11.04,0 -20,8.96 -20,20 0,11.05 8.96,20 20,20 h 596.54 c 11.05,0 20,-8.95 20,-20 0,-11.04 -8.95,-20 -20,-20"
         style="fill:#33414b;fill-opacity:1;fill-rule:nonzero;stroke:none"
         id="path296" />
      <path
         d="M 5296.94,1329.46 H 4700.4 c -11.04,0 -20,8.96 -20,20 0,11.05 8.96,20 20,20 h 596.54 c 11.05,0 20,-8.95 20,-20 0,-11.04 -8.95,-20 -20,-20"
         style="fill:#33414b;fill-opacity:1;fill-rule:nonzero;stroke:none"
         id="path298" />
      <path
         d="M 5296.94,1234.47 H 4700.4 c -11.04,0 -20,8.96 -20,20 0,11.05 8.96,20 20,20 h 596.54 c 11.05,0 20,-8.95 20,-20 0,-11.04 -8.95,-20 -20,-20"
         style="fill:#33414b;fill-opacity:1;fill-rule:nonzero;stroke:none"
         id="path300" />
      <path
         d="M 5296.94,1139.48 H 4700.4 c -11.04,0 -20,8.96 -20,20 0,11.05 8.96,20 20,20 h 596.54 c 11.05,0 20,-8.95 20,-20 0,-11.04 -8.95,-20 -20,-20"
         style="fill:#33414b;fill-opacity:1;fill-rule:nonzero;stroke:none"
         id="path302" />
      <path
         d="m 5408.06,1110.64 c -13.81,0 -25,11.2 -25,25 v 344.58 c 0,15.06 -12.25,27.31 -27.31,27.31 h -714.16 c -15.06,0 -27.3,-12.25 -27.3,-27.31 v -344.58 c 0,-13.8 -11.19,-25 -25,-25 -13.81,0 -25,11.2 -25,25 v 344.58 c 0,42.63 34.67,77.31 77.3,77.31 h 714.16 c 42.63,0 77.31,-34.68 77.31,-77.31 v -344.58 c 0,-13.8 -11.19,-25 -25,-25"
         style="fill:#33414b;fill-opacity:1;fill-rule:nonzero;stroke:none"
         id="path304" />
      <path
         d="m 4361.78,1295.18 150.15,113.03 c 7.14,5.38 17.36,0.28 17.36,-8.66 v -224.23 c 0,-8.91 -10.14,-14.02 -17.3,-8.72 l -150.14,111.21 c -5.83,4.31 -5.86,13.01 -0.07,17.37"
         style="fill:#33414b;fill-opacity:1;fill-rule:nonzero;stroke:none"
         id="path306" />
      <path
         d="m 5487.75,1399.4 149.69,-104.32 c 6.08,-4.24 6.21,-13.2 0.25,-17.61 L 5488.01,1166.6 c -7.16,-5.3 -17.3,-0.19 -17.3,8.72 v 215.19 c 0,8.76 9.85,13.9 17.04,8.89"
         style="fill:#33414b;fill-opacity:1;fill-rule:nonzero;stroke:none"
         id="path308" />
      <path
         d="M 4350.18,1205.1 V 494.539 c 0,-9.777 11.93,-14.559 18.69,-7.48 l 399.5,418.773 c 4.52,4.738 3.84,12.379 -1.45,16.238 l -399.5,291.79 c -7.17,5.23 -17.24,0.12 -17.24,-8.76"
         style="fill:#33414b;fill-opacity:1;fill-rule:nonzero;stroke:none"
         id="path310" />
      <path
         d="M 5649.82,1205.1 V 494.539 c 0,-9.777 -11.93,-14.559 -18.69,-7.48 l -399.5,418.773 c -4.52,4.738 -3.84,12.379 1.45,16.238 l 399.5,291.79 c 7.17,5.23 17.24,0.12 17.24,-8.76"
         style="fill:#33414b;fill-opacity:1;fill-rule:nonzero;stroke:none"
         id="path312" />
      <path
         d="M 4987.17,1069.97 4427.75,485.809 c -6.61,-6.887 -1.72,-18.34 7.83,-18.34 h 1118.84 c 9.55,0 14.44,11.453 7.83,18.34 l -559.42,584.161 c -4.27,4.46 -11.39,4.46 -15.66,0"
         style="fill:#33414b;fill-opacity:1;fill-rule:nonzero;stroke:none"
         id="path314" />
      <path
         d="m 5200.27,3341.46 c -13.81,0 -25,11.2 -25,25 v 96.59 c 0,36.91 -30.04,66.95 -66.96,66.95 h -216.63 c -36.91,0 -66.95,-30.04 -66.95,-66.95 v -96.59 c 0,-13.8 -11.19,-25 -25,-25 -13.81,0 -25,11.2 -25,25 v 96.59 c 0,64.49 52.46,116.95 116.95,116.95 h 216.63 c 64.49,0 116.96,-52.46 116.96,-116.95 v -96.59 c 0,-13.8 -11.19,-25 -25,-25"
         style="fill:#33414b;fill-opacity:1;fill-rule:nonzero;stroke:none"
         id="path316" />
      <path
         d="m 4587.47,2978.33 c 9.21,-5.45 19.74,-8.33 30.43,-8.33 h 764.18 c 10.71,0 21.23,2.88 30.43,8.33 l 195.17,115.47 v 127.22 c 0,42.91 -35.11,78.01 -78.02,78.01 H 4470.34 c -42.91,0 -78.02,-35.1 -78.02,-78.01 V 3093.8 l 195.15,-115.47"
         style="fill:#33414b;fill-opacity:1;fill-rule:nonzero;stroke:none"
         id="path318" />
      <path
         d="m 5437.98,2935.3 c -16.91,-10.01 -36.24,-15.3 -55.9,-15.3 h -227.65 v -87.64 c 0,-53.77 -43.59,-97.36 -97.36,-97.36 h -114.14 c -53.77,0 -97.36,43.59 -97.36,97.36 V 2920 H 4617.9 c -19.64,0 -38.97,5.29 -55.88,15.3 l -169.7,100.4 v -512.69 c 0,-42.9 35.11,-78.01 78.02,-78.01 h 1059.32 c 42.91,0 78.02,35.11 78.02,78.01 v 512.69 l -169.7,-100.4"
         style="fill:#33414b;fill-opacity:1;fill-rule:nonzero;stroke:none"
         id="path320" />
      <path
         d="m 5055.27,2786.65 h -110.54 c -22.93,0 -41.68,18.76 -41.68,41.68 0,22.93 18.75,41.69 41.68,41.69 h 110.54 c 22.93,0 41.68,-18.76 41.68,-41.69 0,-22.92 -18.75,-41.68 -41.68,-41.68"
         style="fill:#33414b;fill-opacity:1;fill-rule:nonzero;stroke:none"
         id="path322" />
      <path
         d="m 2897.17,7667.74 c -3.54,0 -6.47,1.28 -8.79,3.84 -2.31,2.58 -3.46,6.23 -3.46,10.98 v 2.57 c -3.48,-3.99 -6.92,-7.24 -10.3,-9.73 -3.39,-2.51 -7.07,-4.42 -11.03,-5.7 -3.95,-1.32 -8.27,-1.96 -12.96,-1.96 -6.21,0 -11.95,1.31 -17.24,3.94 -5.28,2.62 -9.86,6.39 -13.72,11.26 -3.87,4.87 -6.79,10.6 -8.79,17.19 -1.99,6.59 -2.99,13.71 -2.99,21.37 0,16.2 3.96,28.85 11.88,37.9 7.91,9.05 18.33,13.58 31.25,13.58 7.46,0 13.77,-1.29 18.89,-3.84 5.14,-2.57 10.13,-6.52 15.01,-11.82 v 38.27 c 0,5.32 1.06,9.33 3.19,12.05 2.11,2.73 5.13,4.09 9.06,4.09 3.93,0 6.95,-1.25 9.07,-3.75 2.12,-2.51 3.18,-6.18 3.18,-11.07 v -114.35 c 0,-4.94 -1.13,-8.64 -3.41,-11.11 -2.28,-2.47 -5.22,-3.71 -8.84,-3.71 m -38.75,86.05 c -4.74,0 -8.99,-1.35 -12.73,-4.03 -3.73,-2.69 -6.63,-6.55 -8.68,-11.58 -2.07,-5.05 -3.09,-10.89 -3.09,-17.54 0,-7.03 1.09,-13 3.27,-17.94 2.19,-4.95 5.18,-8.66 8.98,-11.16 3.8,-2.51 7.95,-3.77 12.44,-3.77 4.56,0 8.72,1.19 12.49,3.58 3.77,2.36 6.78,6.01 9.02,10.91 2.25,4.91 3.37,11.05 3.37,18.38 0,6.91 -1.12,12.84 -3.37,17.83 -2.24,4.96 -5.28,8.76 -9.11,11.39 -3.84,2.62 -8.03,3.93 -12.59,3.93"
         style="fill:#9bbac0;fill-opacity:1;fill-rule:nonzero;stroke:none"
         id="path324" />
      <path
         d="m 2974.75,7667.74 c -16.64,0 -29.59,4.76 -38.84,14.25 -9.24,9.49 -13.86,22.39 -13.86,38.65 0,7.67 1.14,14.78 3.41,21.32 2.29,6.56 5.61,12.18 9.98,16.87 4.37,4.69 9.75,8.27 16.15,10.78 6.39,2.5 13.48,3.74 21.27,3.74 10.13,0 18.82,-2.12 26.06,-6.4 7.26,-4.27 12.7,-9.8 16.3,-16.57 3.6,-6.78 5.42,-13.69 5.42,-20.7 0,-6.54 -1.88,-10.75 -5.6,-12.7 -3.74,-1.92 -9,-2.9 -15.78,-2.9 h -50.71 c 0.06,-5.88 1.24,-11.07 3.56,-15.56 2.31,-4.51 5.38,-7.89 9.21,-10.17 3.83,-2.29 8.06,-3.41 12.68,-3.41 3.1,0 5.93,0.35 8.5,1.08 2.57,0.74 5.05,1.86 7.46,3.42 2.41,1.55 4.62,3.22 6.65,4.99 2.02,1.78 4.64,4.2 7.88,7.23 1.33,1.13 3.23,1.71 5.71,1.71 2.65,0 4.8,-0.74 6.44,-2.2 1.65,-1.46 2.48,-3.5 2.48,-6.17 0,-2.34 -0.93,-5.07 -2.75,-8.21 -1.85,-3.14 -4.62,-6.15 -8.32,-9.03 -3.71,-2.88 -8.35,-5.26 -13.97,-7.17 -5.59,-1.9 -12.04,-2.85 -19.33,-2.85 m -2.74,87.57 c -6.46,0 -11.77,-2.22 -15.91,-6.68 -4.15,-4.47 -6.66,-11.08 -7.55,-19.82 h 47.01 c -0.62,8.87 -3.03,15.51 -7.17,19.9 -4.15,4.41 -9.61,6.6 -16.38,6.6"
         style="fill:#9bbac0;fill-opacity:1;fill-rule:nonzero;stroke:none"
         id="path326" />
      <path
         d="m 3071.91,7667.74 c -9.3,0 -17.28,1.43 -23.93,4.28 -6.65,2.84 -11.56,6.42 -14.72,10.68 -3.17,4.28 -4.75,8.56 -4.75,12.87 0,2.86 1.01,5.29 3.04,7.31 2.02,2.02 4.59,3.04 7.7,3.04 2.71,0 4.8,-0.67 6.26,-1.99 1.46,-1.33 2.85,-3.21 4.17,-5.6 2.66,-4.64 5.85,-8.06 9.56,-10.36 3.7,-2.27 8.74,-3.42 15.15,-3.42 5.19,0 9.45,1.16 12.77,3.47 3.32,2.32 4.98,4.96 4.98,7.94 0,4.56 -1.71,7.87 -5.17,9.96 -3.45,2.09 -9.14,4.09 -17.05,5.99 -8.93,2.21 -16.19,4.55 -21.8,6.99 -5.61,2.42 -10.08,5.64 -13.44,9.63 -3.35,3.99 -5.03,8.9 -5.03,14.72 0,5.19 1.55,10.1 4.65,14.73 3.11,4.61 7.68,8.3 13.74,11.06 6.03,2.76 13.33,4.14 21.88,4.14 6.71,0 12.75,-0.7 18.09,-2.11 5.36,-1.37 9.83,-3.26 13.4,-5.6 3.58,-2.33 6.3,-4.93 8.16,-7.77 1.87,-2.86 2.8,-5.64 2.8,-8.37 0,-2.97 -1,-5.41 -2.98,-7.32 -2,-1.88 -4.83,-2.85 -8.51,-2.85 -2.66,0 -4.92,0.76 -6.79,2.3 -1.86,1.51 -4,3.79 -6.41,6.82 -1.96,2.53 -4.26,4.56 -6.93,6.09 -2.66,1.52 -6.27,2.27 -10.83,2.27 -4.69,0 -8.58,-0.98 -11.68,-3 -3.1,-1.98 -4.66,-4.46 -4.66,-7.44 0,-2.74 1.14,-4.96 3.42,-6.7 2.28,-1.75 5.35,-3.19 9.22,-4.32 3.86,-1.14 9.17,-2.52 15.96,-4.18 8.03,-1.97 14.6,-4.31 19.7,-7.03 5.09,-2.71 8.96,-5.93 11.6,-9.64 2.62,-3.7 3.93,-7.92 3.93,-12.67 0,-7.16 -1.74,-13.29 -5.23,-18.39 -3.47,-5.1 -8.62,-8.97 -15.43,-11.59 -6.8,-2.63 -15.08,-3.94 -24.84,-3.94"
         style="fill:#9bbac0;fill-opacity:1;fill-rule:nonzero;stroke:none"
         id="path328" />
      <path
         d="m 3143.61,7667.74 c -3.8,0 -6.89,1.36 -9.26,4.09 -2.38,2.72 -3.56,6.62 -3.56,11.69 v 74.18 c 0,5.11 1.18,8.98 3.56,11.58 2.37,2.6 5.46,3.9 9.26,3.9 3.81,0 6.93,-1.3 9.41,-3.9 2.47,-2.6 3.7,-6.21 3.7,-10.83 v -74.93 c 0,-5.2 -1.23,-9.14 -3.7,-11.79 -2.48,-2.66 -5.6,-3.99 -9.41,-3.99 m 0.29,117.49 c -3.61,0 -6.7,1.11 -9.26,3.32 -2.56,2.21 -3.85,5.34 -3.85,9.41 0,3.68 1.31,6.69 3.94,9.07 2.63,2.38 5.69,3.56 9.17,3.56 3.36,0 6.33,-1.07 8.92,-3.23 2.6,-2.15 3.9,-5.28 3.9,-9.4 0,-4 -1.27,-7.11 -3.8,-9.36 -2.53,-2.24 -5.54,-3.37 -9.02,-3.37"
         style="fill:#9bbac0;fill-opacity:1;fill-rule:nonzero;stroke:none"
         id="path330" />
      <path
         d="m 3218.35,7629.28 c -8.93,0 -16.9,1.25 -23.94,3.75 -7.02,2.51 -12.43,5.73 -16.24,9.68 -3.79,3.96 -5.7,8.03 -5.7,12.21 0,3.17 1.08,5.76 3.24,7.74 2.15,2 4.75,2.99 7.78,2.99 3.8,0 7.13,-1.68 9.98,-5.02 1.38,-1.72 2.83,-3.45 4.31,-5.19 1.49,-1.75 3.15,-3.23 4.94,-4.47 1.81,-1.22 3.98,-2.14 6.51,-2.75 2.53,-0.58 5.45,-0.9 8.74,-0.9 6.71,0 11.92,0.93 15.63,2.81 3.7,1.86 6.3,4.48 7.79,7.84 1.49,3.34 2.36,6.93 2.61,10.77 0.25,3.84 0.44,9.99 0.56,18.49 -3.99,-5.59 -8.58,-9.84 -13.82,-12.75 -5.22,-2.91 -11.44,-4.36 -18.66,-4.36 -8.67,0 -16.25,2.22 -22.75,6.65 -6.48,4.43 -11.47,10.63 -14.95,18.61 -3.48,7.99 -5.22,17.19 -5.22,27.64 0,7.78 1.05,14.82 3.17,21.08 2.13,6.28 5.16,11.56 9.08,15.87 3.92,4.31 8.45,7.55 13.58,9.74 5.12,2.18 10.76,3.27 16.9,3.27 7.34,0 13.71,-1.42 19.1,-4.22 5.37,-2.83 10.38,-7.25 15,-13.26 v 3.52 c 0,4.5 1.1,7.97 3.32,10.45 2.22,2.46 5.07,3.71 8.56,3.71 5,0 8.32,-1.65 9.96,-4.9 1.65,-3.26 2.48,-7.97 2.48,-14.11 v -75.31 c 0,-8.61 -0.93,-16.03 -2.77,-22.24 -1.82,-6.19 -4.77,-11.33 -8.82,-15.38 -4.06,-4.04 -9.36,-7.06 -15.91,-9.01 -6.55,-1.98 -14.7,-2.95 -24.46,-2.95 m 1.33,124.51 c -7.41,0 -13.35,-2.83 -17.8,-8.46 -4.47,-5.62 -6.7,-13.64 -6.7,-24.02 0,-10.51 2.29,-18.46 6.88,-23.84 4.59,-5.39 10.53,-8.08 17.81,-8.08 4.31,0 8.37,1.16 12.2,3.47 3.84,2.32 6.95,5.8 9.37,10.45 2.39,4.66 3.61,10.3 3.61,16.95 0,10.57 -2.33,18.81 -6.99,24.69 -4.66,5.89 -10.78,8.84 -18.38,8.84"
         style="fill:#9bbac0;fill-opacity:1;fill-rule:nonzero;stroke:none"
         id="path332" />
      <path
         d="m 3366.8,7667.74 c -3.87,0 -7,1.36 -9.41,4.09 -2.41,2.72 -3.6,6.62 -3.6,11.69 v 43.21 c 0,8.54 -1.2,15.09 -3.57,19.61 -2.38,4.52 -7.1,6.8 -14.2,6.8 -4.62,0 -8.83,-1.38 -12.63,-4.14 -3.8,-2.76 -6.59,-6.55 -8.36,-11.36 -1.27,-3.86 -1.9,-11.07 -1.9,-21.64 v -32.48 c 0,-5.26 -1.23,-9.22 -3.65,-11.84 -2.44,-2.63 -5.59,-3.94 -9.45,-3.94 -3.74,0 -6.81,1.36 -9.22,4.09 -2.4,2.72 -3.61,6.62 -3.61,11.69 v 74.93 c 0,4.94 1.08,8.63 3.23,11.07 2.15,2.43 5.1,3.66 8.83,3.66 2.28,0 4.34,-0.54 6.19,-1.63 1.82,-1.08 3.3,-2.69 4.41,-4.83 1.11,-2.16 1.66,-4.8 1.66,-7.89 v -3.14 c 4.55,6.02 9.54,10.44 14.95,13.26 5.42,2.81 11.64,4.23 18.67,4.23 6.84,0 12.95,-1.5 18.33,-4.48 5.38,-2.98 9.41,-7.19 12.06,-12.62 1.72,-3.17 2.82,-6.6 3.32,-10.26 0.51,-3.68 0.77,-8.36 0.77,-14.06 v -48.24 c 0,-5.2 -1.19,-9.14 -3.56,-11.79 -2.38,-2.66 -5.46,-3.99 -9.26,-3.99"
         style="fill:#9bbac0;fill-opacity:1;fill-rule:nonzero;stroke:none"
         id="path334" />
      <path
         d="m 3444.76,7667.74 c -16.65,0 -29.6,4.76 -38.85,14.25 -9.23,9.49 -13.86,22.39 -13.86,38.65 0,7.67 1.14,14.78 3.42,21.32 2.27,6.56 5.61,12.18 9.98,16.87 4.36,4.69 9.75,8.27 16.14,10.78 6.39,2.5 13.49,3.74 21.28,3.74 10.12,0 18.81,-2.12 26.06,-6.4 7.25,-4.27 12.68,-9.8 16.3,-16.57 3.6,-6.78 5.41,-13.69 5.41,-20.7 0,-6.54 -1.87,-10.75 -5.6,-12.7 -3.74,-1.92 -8.99,-2.9 -15.78,-2.9 h -50.71 c 0.07,-5.88 1.25,-11.07 3.56,-15.56 2.31,-4.51 5.38,-7.89 9.22,-10.17 3.82,-2.29 8.05,-3.41 12.67,-3.41 3.11,0 5.94,0.35 8.51,1.08 2.55,0.74 5.04,1.86 7.46,3.42 2.39,1.55 4.61,3.22 6.65,4.99 2.01,1.78 4.64,4.2 7.87,7.23 1.33,1.13 3.23,1.71 5.7,1.71 2.66,0 4.82,-0.74 6.46,-2.2 1.65,-1.46 2.47,-3.5 2.47,-6.17 0,-2.34 -0.92,-5.07 -2.76,-8.21 -1.84,-3.14 -4.61,-6.15 -8.31,-9.03 -3.71,-2.88 -8.35,-5.26 -13.96,-7.17 -5.6,-1.9 -12.05,-2.85 -19.33,-2.85 m -2.75,87.57 c -6.46,0 -11.77,-2.22 -15.92,-6.68 -4.15,-4.47 -6.65,-11.08 -7.54,-19.82 h 47.01 c -0.63,8.87 -3.02,15.51 -7.16,19.9 -4.16,4.41 -9.61,6.6 -16.39,6.6"
         style="fill:#9bbac0;fill-opacity:1;fill-rule:nonzero;stroke:none"
         id="path336" />
      <path
         d="m 3587.22,7667.74 c -3.54,0 -6.47,1.28 -8.79,3.84 -2.31,2.58 -3.47,6.23 -3.47,10.98 v 2.57 c -3.48,-3.99 -6.91,-7.24 -10.3,-9.73 -3.39,-2.51 -7.06,-4.42 -11.02,-5.7 -3.95,-1.32 -8.27,-1.96 -12.96,-1.96 -6.21,0 -11.95,1.31 -17.24,3.94 -5.29,2.62 -9.86,6.39 -13.72,11.26 -3.87,4.87 -6.79,10.6 -8.79,17.19 -1.99,6.59 -2.99,13.71 -2.99,21.37 0,16.2 3.96,28.85 11.87,37.9 7.92,9.05 18.34,13.58 31.25,13.58 7.47,0 13.77,-1.29 18.9,-3.84 5.13,-2.57 10.13,-6.52 15,-11.82 v 38.27 c 0,5.32 1.07,9.33 3.19,12.05 2.11,2.73 5.15,4.09 9.07,4.09 3.92,0 6.95,-1.25 9.07,-3.75 2.12,-2.51 3.18,-6.18 3.18,-11.07 v -114.35 c 0,-4.94 -1.14,-8.64 -3.41,-11.11 -2.29,-2.47 -5.22,-3.71 -8.84,-3.71 m -38.76,86.05 c -4.74,0 -8.99,-1.35 -12.72,-4.03 -3.73,-2.69 -6.63,-6.55 -8.69,-11.58 -2.06,-5.05 -3.08,-10.89 -3.08,-17.54 0,-7.03 1.08,-13 3.27,-17.94 2.18,-4.95 5.17,-8.66 8.98,-11.16 3.8,-2.51 7.94,-3.77 12.43,-3.77 4.57,0 8.73,1.19 12.49,3.58 3.77,2.36 6.79,6.01 9.03,10.91 2.25,4.91 3.37,11.05 3.37,18.38 0,6.91 -1.12,12.84 -3.37,17.83 -2.24,4.96 -5.29,8.76 -9.12,11.39 -3.84,2.62 -8.03,3.93 -12.59,3.93"
         style="fill:#9bbac0;fill-opacity:1;fill-rule:nonzero;stroke:none"
         id="path338" />
      <path
         d="m 3714.38,7667.74 c -3.99,0 -7.75,0.47 -11.25,1.43 -3.53,0.95 -6.52,2.19 -8.98,3.75 -2.46,1.54 -4.57,3.15 -6.32,4.79 -1.74,1.65 -4.04,4.13 -6.89,7.42 v -2.57 c 0,-4.88 -1.17,-8.56 -3.51,-11.08 -2.34,-2.5 -5.32,-3.74 -8.93,-3.74 -3.67,0 -6.6,1.24 -8.78,3.74 -2.19,2.52 -3.28,6.2 -3.28,11.08 v 113.22 c 0,5.26 1.06,9.23 3.17,11.92 2.13,2.68 5.1,4.03 8.89,4.03 4,0 7.06,-1.28 9.21,-3.84 2.15,-2.58 3.23,-6.22 3.23,-10.98 v -39.59 c 4.88,5.06 9.85,8.94 14.92,11.63 5.06,2.68 11.33,4.03 18.8,4.03 8.62,0 16.16,-2.04 22.66,-6.11 6.48,-4.11 11.51,-10.03 15.1,-17.78 3.57,-7.74 5.37,-16.95 5.37,-27.59 0,-7.86 -1,-15.04 -3,-21.61 -1.99,-6.55 -4.89,-12.23 -8.69,-17.04 -3.8,-4.81 -8.4,-8.55 -13.81,-11.17 -5.42,-2.63 -11.39,-3.94 -17.91,-3.94 m -6.56,86.05 c -4.93,0 -9.34,-1.35 -13.2,-4.03 -3.86,-2.69 -6.9,-6.58 -9.12,-11.68 -2.21,-5.09 -3.32,-11.17 -3.32,-18.2 0,-10.32 2.36,-18.24 7.07,-23.77 4.72,-5.56 10.91,-8.34 18.57,-8.34 6.52,0 12.15,2.84 16.86,8.51 4.71,5.67 7.07,13.79 7.07,24.36 0,6.84 -0.97,12.74 -2.94,17.67 -1.96,4.94 -4.74,8.76 -8.35,11.45 -3.61,2.68 -7.83,4.03 -12.64,4.03"
         style="fill:#9bbac0;fill-opacity:1;fill-rule:nonzero;stroke:none"
         id="path340" />
      <path
         d="m 3778.77,7629.28 c -7.6,0 -13.3,0.82 -17.09,2.46 -3.81,1.66 -5.7,4.67 -5.7,9.03 0,2.97 0.89,5.28 2.71,6.89 1.79,1.61 4.47,2.43 8.01,2.43 1.4,0 2.77,-0.2 4.09,-0.59 1.65,-0.37 3.07,-0.56 4.27,-0.56 2.97,0 5.32,0.44 7.03,1.33 1.71,0.88 3.24,2.41 4.61,4.61 1.36,2.17 2.93,5.39 4.7,9.63 l 2.37,5.8 -31.91,80.35 c -1.96,4.61 -2.95,7.98 -2.95,10.07 0,2.22 0.58,4.27 1.72,6.16 1.14,1.91 2.7,3.43 4.69,4.57 2,1.15 4.07,1.72 6.23,1.72 3.73,0 6.55,-1.2 8.46,-3.57 1.9,-2.38 3.57,-5.77 5.02,-10.21 l 21.95,-63.83 20.8,59.37 c 1.64,4.79 3.13,8.58 4.46,11.3 1.33,2.72 2.74,4.56 4.23,5.5 1.48,0.96 3.59,1.44 6.31,1.44 1.97,0 3.85,-0.52 5.66,-1.58 1.8,-1.04 3.19,-2.45 4.17,-4.23 0.98,-1.76 1.48,-3.63 1.48,-5.59 -0.26,-1.21 -0.66,-2.91 -1.24,-5.14 -0.57,-2.21 -1.26,-4.47 -2.08,-6.74 l -33.82,-88.52 c -2.92,-7.79 -5.76,-13.89 -8.55,-18.33 -2.79,-4.42 -6.47,-7.84 -11.07,-10.21 -4.59,-2.38 -10.78,-3.56 -18.56,-3.56"
         style="fill:#9bbac0;fill-opacity:1;fill-rule:nonzero;stroke:none"
         id="path342" />
      <path
         d="m 4186.03,7667.76 c -3.67,0 -6.71,1.34 -9.17,4.07 -2.45,2.67 -3.65,6.57 -3.65,11.68 v 68.71 h -7.14 c -3.88,0 -6.82,0.83 -8.93,2.61 -2.09,1.71 -3.15,4 -3.15,6.78 0,6.24 4.35,9.32 13.04,9.32 h 6.18 v 7.78 c 0,8.15 1,14.57 3.07,19.38 2.04,4.78 5.55,8.26 10.47,10.45 4.9,2.16 11.63,3.26 20.16,3.26 15.2,0 22.73,-3.67 22.73,-11.15 0,-2.38 -0.79,-4.44 -2.4,-6.15 -1.55,-1.69 -3.43,-2.55 -5.58,-2.55 -1,0 -2.78,0.18 -5.27,0.59 -2.38,0.33 -4.53,0.55 -6.24,0.55 -4.67,0 -7.66,-1.4 -9.05,-4.14 -1.27,-2.76 -1.95,-6.69 -1.95,-11.85 v -6.17 h 6.33 c 9.91,0 14.81,-2.97 14.81,-8.96 0,-4.18 -1.27,-6.9 -3.92,-8.04 -2.62,-1.14 -6.24,-1.71 -10.89,-1.71 h -6.33 v -68.71 c 0,-5.11 -1.2,-9.01 -3.69,-11.68 -2.41,-2.73 -5.54,-4.07 -9.43,-4.07"
         style="fill:#7bb1ba;fill-opacity:1;fill-rule:nonzero;stroke:none"
         id="path344" />
      <path
         d="m 4238.81,7667.76 c -3.82,0 -6.88,1.31 -9.27,4.01 -2.36,2.63 -3.6,6.56 -3.6,11.74 v 72.22 c 0,11.66 4.2,17.49 12.6,17.49 4.34,0 7.44,-1.34 9.34,-4.08 1.89,-2.73 2.95,-6.74 3.17,-12.08 3.08,5.34 6.24,9.35 9.48,12.08 3.33,2.74 7.63,4.08 13.1,4.08 5.49,0 10.73,-1.34 15.85,-4.08 5.16,-2.73 7.72,-6.37 7.72,-10.85 0,-3.15 -1.11,-5.8 -3.27,-7.81 -2.19,-2.09 -4.54,-3.12 -7.06,-3.12 -0.99,0 -3.31,0.63 -6.92,1.8 -3.65,1.13 -6.88,1.73 -9.63,1.73 -3.8,0 -6.92,-1.03 -9.31,-2.98 -2.43,-2.05 -4.31,-4.97 -5.65,-8.87 -1.29,-3.94 -2.19,-8.65 -2.72,-14.04 -0.49,-5.42 -0.72,-12.03 -0.72,-19.82 v -21.67 c 0,-5.24 -1.32,-9.19 -3.74,-11.8 -2.47,-2.66 -5.58,-3.95 -9.37,-3.95"
         style="fill:#7bb1ba;fill-opacity:1;fill-rule:nonzero;stroke:none"
         id="path346" />
      <path
         d="m 4346.64,7667.76 c -16.71,0 -29.64,4.73 -38.87,14.22 -9.24,9.52 -13.91,22.42 -13.91,38.68 0,7.67 1.17,14.79 3.47,21.35 2.25,6.58 5.58,12.16 9.99,16.88 4.36,4.7 9.7,8.28 16.13,10.78 6.37,2.49 13.46,3.74 21.28,3.74 10.1,0 18.8,-2.14 26.06,-6.46 7.24,-4.23 12.74,-9.76 16.29,-16.54 3.61,-6.81 5.42,-13.68 5.42,-20.74 0,-6.49 -1.89,-10.71 -5.62,-12.66 -3.73,-1.93 -8.97,-2.9 -15.75,-2.9 h -50.74 c 0.09,-5.88 1.24,-11.1 3.54,-15.59 2.36,-4.46 5.4,-7.86 9.25,-10.16 3.85,-2.27 8.04,-3.4 12.69,-3.4 3.1,0 5.92,0.33 8.49,1.11 2.54,0.7 5.05,1.86 7.46,3.41 2.42,1.53 4.59,3.18 6.64,5 2.02,1.75 4.66,4.16 7.9,7.19 1.34,1.13 3.24,1.74 5.68,1.74 2.69,0 4.81,-0.74 6.49,-2.22 1.67,-1.47 2.44,-3.5 2.44,-6.17 0,-2.36 -0.89,-5.08 -2.68,-8.2 -1.87,-3.17 -4.63,-6.16 -8.36,-9.06 -3.74,-2.85 -8.39,-5.27 -13.97,-7.13 -5.6,-1.91 -12.06,-2.87 -19.32,-2.87 m -2.78,87.56 c -6.46,0 -11.77,-2.19 -15.92,-6.69 -4.14,-4.46 -6.68,-11.04 -7.55,-19.77 h 47.01 c -0.62,8.84 -2.98,15.5 -7.14,19.86 -4.18,4.42 -9.59,6.6 -16.4,6.6"
         style="fill:#7bb1ba;fill-opacity:1;fill-rule:nonzero;stroke:none"
         id="path348" />
      <path
         d="m 4454.46,7667.76 c -16.67,0 -29.59,4.73 -38.86,14.22 -9.24,9.52 -13.89,22.42 -13.89,38.68 0,7.67 1.16,14.79 3.48,21.35 2.26,6.58 5.58,12.16 9.95,16.88 4.36,4.7 9.73,8.28 16.15,10.78 6.38,2.49 13.5,3.74 21.29,3.74 10.09,0 18.78,-2.14 26.13,-6.46 7.2,-4.23 12.66,-9.76 16.21,-16.54 3.6,-6.81 5.45,-13.68 5.45,-20.74 0,-6.49 -1.91,-10.71 -5.62,-12.66 -3.74,-1.93 -8.99,-2.9 -15.75,-2.9 h -50.73 c 0.06,-5.88 1.25,-11.1 3.55,-15.59 2.31,-4.46 5.39,-7.86 9.21,-10.16 3.82,-2.27 8.05,-3.4 12.71,-3.4 3.08,0 5.93,0.33 8.45,1.11 2.58,0.7 5.06,1.86 7.5,3.41 2.42,1.53 4.59,3.18 6.64,5 1.99,1.75 4.64,4.16 7.88,7.19 1.35,1.13 3.26,1.74 5.68,1.74 2.69,0 4.84,-0.74 6.5,-2.22 1.66,-1.47 2.41,-3.5 2.41,-6.17 0,-2.36 -0.87,-5.08 -2.74,-8.2 -1.76,-3.17 -4.55,-6.16 -8.3,-9.06 -3.7,-2.85 -8.4,-5.27 -13.95,-7.13 -5.58,-1.91 -12.08,-2.87 -19.35,-2.87 m -2.75,87.56 c -6.46,0 -11.76,-2.19 -15.93,-6.69 -4.13,-4.46 -6.67,-11.04 -7.51,-19.77 h 47.01 c -0.63,8.84 -3.04,15.5 -7.15,19.86 -4.21,4.42 -9.61,6.6 -16.42,6.6"
         style="fill:#7bb1ba;fill-opacity:1;fill-rule:nonzero;stroke:none"
         id="path350" />
      <path
         d="m 4523.36,7629.27 c -4.9,0 -8.09,1.46 -9.72,4.39 -1.51,2.99 -2.33,7.24 -2.33,12.91 v 111.94 c 0,4.95 1.06,8.59 3.2,11.07 2.15,2.39 5.12,3.64 8.85,3.64 3.69,0 6.66,-1.25 8.95,-3.74 2.36,-2.53 3.49,-6.1 3.49,-10.85 v -3.1 c 4.86,6.01 9.94,10.42 15.24,13.24 5.19,2.84 11.19,4.27 17.83,4.27 7.95,0 15.35,-2.08 22.07,-6.17 6.71,-4.15 11.98,-10.16 15.88,-18.07 3.9,-7.95 5.86,-17.3 5.86,-28.14 0,-7.96 -1.12,-15.31 -3.36,-22.01 -2.23,-6.68 -5.37,-12.26 -9.28,-16.79 -3.94,-4.51 -8.56,-8.02 -13.9,-10.47 -5.42,-2.41 -11.11,-3.63 -17.27,-3.63 -7.39,0 -13.65,1.49 -18.66,4.47 -5.02,2.93 -9.82,7.34 -14.41,13.06 v -38.92 c 0,-11.36 -4.16,-17.1 -12.44,-17.1 m 39.15,124.56 c -7.14,0 -13.19,-2.85 -18.09,-8.44 -4.92,-5.66 -7.39,-13.95 -7.39,-24.93 0,-10.26 2.44,-18.33 7.35,-24.07 4.88,-5.73 10.86,-8.58 18.13,-8.58 4.29,0 8.3,1.26 11.97,3.73 3.71,2.52 6.65,6.26 8.84,11.26 2.21,5.02 3.32,11.08 3.32,18.16 0,6.84 -1.07,12.73 -3.14,17.62 -2.1,4.93 -5,8.67 -8.67,11.28 -3.67,2.63 -7.82,3.97 -12.32,3.97"
         style="fill:#7bb1ba;fill-opacity:1;fill-rule:nonzero;stroke:none"
         id="path352" />
      <path
         d="m 4638.53,7667.76 c -3.81,0 -6.85,1.34 -9.28,4.07 -2.34,2.76 -3.56,6.65 -3.56,11.66 v 74.27 c 0,5.1 1.22,8.95 3.56,11.54 2.43,2.65 5.47,3.92 9.28,3.92 3.8,0 6.91,-1.27 9.41,-3.92 2.46,-2.59 3.7,-6.21 3.7,-10.79 v -75.02 c 0,-5.16 -1.24,-9.09 -3.7,-11.72 -2.5,-2.7 -5.61,-4.01 -9.41,-4.01 m 0.27,117.53 c -3.62,0 -6.69,1.14 -9.23,3.35 -2.6,2.23 -3.88,5.32 -3.88,9.37 0,3.68 1.31,6.7 3.97,9.1 2.62,2.34 5.66,3.55 9.14,3.55 3.4,0 6.35,-1.06 8.93,-3.19 2.6,-2.18 3.91,-5.34 3.91,-9.46 0,-4 -1.27,-7.11 -3.78,-9.36 -2.54,-2.22 -5.55,-3.36 -9.06,-3.36"
         style="fill:#7bb1ba;fill-opacity:1;fill-rule:nonzero;stroke:none"
         id="path354" />
      <path
         d="m 4749.54,7667.76 c -3.16,0 -5.64,0.81 -7.33,2.56 -1.7,1.73 -4.08,4.84 -6.98,9.28 l -22.84,37.66 -14.08,-13.29 v -20.65 c 0,-4.99 -1.33,-8.82 -3.96,-11.49 -2.57,-2.73 -5.67,-4.07 -9.07,-4.07 -3.98,0 -7.15,1.31 -9.4,4.01 -2.27,2.63 -3.44,6.56 -3.44,11.74 v 110.63 c 0,5.74 1.14,10.11 3.31,13.13 2.23,3.05 5.45,4.53 9.53,4.53 4,0 7.13,-1.37 9.49,-4.12 2.35,-2.7 3.54,-6.73 3.54,-12.02 v -62.93 l 29.16,30.63 c 3.62,3.76 6.33,6.41 8.27,7.78 1.9,1.39 4.19,2.08 6.89,2.08 3.27,0 5.94,-1.03 8.16,-3.08 2.11,-2.07 3.2,-4.66 3.2,-7.74 0,-3.79 -3.53,-8.88 -10.54,-15.21 l -13.77,-12.63 26.59,-41.83 c 1.93,-3.13 3.39,-5.43 4.24,-7.05 0.84,-1.6 1.3,-3.2 1.3,-4.63 0,-4.12 -1.15,-7.34 -3.41,-9.75 -2.25,-2.37 -5.24,-3.54 -8.86,-3.54"
         style="fill:#7bb1ba;fill-opacity:1;fill-rule:nonzero;stroke:none"
         id="path356" />
      <path
         d="m 4791.59,7667.76 c -3.92,0 -7.27,1.26 -10.14,3.81 -2.84,2.49 -4.28,6.06 -4.28,10.65 0,3.85 1.37,7.19 4.1,9.95 2.74,2.79 6.07,4.19 10.08,4.19 3.97,0 7.35,-1.4 10.22,-4.12 2.79,-2.76 4.22,-6.13 4.22,-10.02 0,-4.52 -1.43,-8.08 -4.22,-10.6 -2.87,-2.6 -6.19,-3.86 -9.98,-3.86"
         style="fill:#7bb1ba;fill-opacity:1;fill-rule:nonzero;stroke:none"
         id="path358" />
      <path
         d="m 4873.55,7667.92 c -16.06,0 -28.58,4.7 -37.57,14.01 -8.96,9.36 -13.46,21.9 -13.46,37.6 0,10.67 2.04,20.06 6.19,28.24 4.07,8.15 10.04,14.48 17.81,18.94 7.8,4.48 17.16,6.7 27.94,6.7 6.74,0 12.88,-0.98 18.53,-2.95 5.6,-1.95 10.32,-4.51 14.25,-7.59 3.86,-3.14 6.85,-6.43 8.89,-9.92 2.07,-3.52 3.08,-6.81 3.08,-9.87 0,-3.08 -1.14,-5.72 -3.43,-7.87 -2.35,-2.16 -5.16,-3.25 -8.39,-3.25 -2.19,0 -3.97,0.57 -5.41,1.67 -1.43,1.12 -3.05,2.89 -4.78,5.41 -3.18,4.79 -6.47,8.42 -9.96,10.8 -3.43,2.43 -7.81,3.62 -13.14,3.62 -7.62,0 -13.84,-2.98 -18.53,-8.98 -4.68,-5.96 -7.04,-14.2 -7.04,-24.54 0,-4.88 0.63,-9.39 1.83,-13.48 1.17,-4.07 2.91,-7.55 5.21,-10.43 2.3,-2.88 5.03,-5.05 8.26,-6.55 3.24,-1.53 6.8,-2.25 10.63,-2.25 5.22,0 9.67,1.2 13.37,3.6 3.76,2.41 7.02,6.08 9.86,11.03 1.59,2.91 3.28,5.17 5.09,6.83 1.83,1.63 4.09,2.49 6.76,2.49 3.16,0 5.8,-1.23 7.86,-3.62 2.11,-2.4 3.17,-4.99 3.17,-7.7 0,-3.2 -0.96,-6.68 -2.91,-10.34 -1.91,-3.7 -4.88,-7.18 -8.85,-10.5 -3.95,-3.32 -8.92,-6.02 -14.95,-8.04 -6.01,-2.02 -12.81,-3.06 -20.31,-3.06"
         style="fill:#7bb1ba;fill-opacity:1;fill-rule:nonzero;stroke:none"
         id="path360" />
      <path
         d="m 4980.72,7667.74 c -7.85,0 -14.93,1.28 -21.21,3.83 -6.23,2.49 -11.71,6.14 -16.26,10.82 -4.61,4.77 -8.09,10.34 -10.52,16.77 -2.29,6.43 -3.5,13.54 -3.5,21.31 0,7.86 1.24,15.06 3.58,21.58 2.42,6.54 5.89,12.12 10.39,16.73 4.51,4.62 9.93,8.17 16.31,10.7 6.44,2.49 13.5,3.74 21.21,3.74 7.84,0 14.98,-1.25 21.39,-3.82 6.38,-2.51 11.82,-6.14 16.43,-10.79 4.58,-4.74 8.03,-10.29 10.4,-16.72 2.34,-6.51 3.54,-13.6 3.54,-21.42 0,-7.7 -1.22,-14.84 -3.55,-21.39 -2.48,-6.52 -5.92,-12.13 -10.5,-16.78 -4.56,-4.69 -10.02,-8.28 -16.32,-10.8 -6.4,-2.48 -13.5,-3.76 -21.39,-3.76 m 0,86.29 c -5.08,0 -9.55,-1.32 -13.43,-3.93 -3.86,-2.62 -6.8,-6.5 -8.89,-11.64 -2.09,-5.14 -3.16,-11.14 -3.16,-17.99 0,-6.79 1.03,-12.68 3.1,-17.74 2.08,-5.1 5.02,-8.97 8.86,-11.66 3.85,-2.66 8.35,-4.04 13.52,-4.04 7.84,0 14.11,2.96 18.74,8.92 4.64,5.91 6.98,14.11 6.98,24.52 0,10.58 -2.34,18.81 -6.98,24.69 -4.63,5.95 -10.9,8.87 -18.74,8.87"
         style="fill:#7bb1ba;fill-opacity:1;fill-rule:nonzero;stroke:none"
         id="path362" />
      <path
         d="m 5178.64,7667.74 c -3.95,0 -7.14,1.39 -9.65,4.13 -2.5,2.77 -3.76,6.85 -3.76,12.23 v 43.61 c 0,5.59 -0.23,10.04 -0.69,13.38 -0.47,3.37 -1.77,6.21 -3.83,8.47 -2.12,2.28 -5.3,3.44 -9.53,3.44 -3.42,0 -6.66,-1.07 -9.74,-3.08 -3.06,-1.98 -5.46,-4.76 -7.2,-8.12 -1.86,-4.39 -2.84,-12.13 -2.84,-23.24 v -34.46 c 0,-5.47 -1.21,-9.51 -3.7,-12.27 -2.5,-2.73 -5.71,-4.09 -9.77,-4.09 -3.93,0 -7.14,1.36 -9.51,4.09 -2.47,2.76 -3.72,6.8 -3.72,12.27 v 41.31 c 0,6.53 -0.21,11.62 -0.64,15.24 -0.46,3.54 -1.68,6.56 -3.62,8.83 -1.96,2.36 -5.09,3.52 -9.31,3.52 -8.5,0 -14.07,-2.9 -16.77,-8.81 -2.67,-5.76 -4.06,-14.13 -4.06,-25.07 v -35.02 c 0,-5.38 -1.22,-9.46 -3.61,-12.23 -2.49,-2.74 -5.68,-4.13 -9.65,-4.13 -3.96,0 -7.17,1.39 -9.67,4.13 -2.52,2.77 -3.76,6.85 -3.76,12.23 v 74.19 c 0,4.89 1.12,8.6 3.35,11.11 2.3,2.57 5.27,3.82 8.9,3.82 3.56,0 6.51,-1.23 8.91,-3.55 2.37,-2.38 3.55,-5.67 3.55,-9.85 v -2.44 c 4.53,5.34 9.35,9.31 14.44,11.8 5.17,2.6 10.82,3.86 17.13,3.86 6.51,0 12.11,-1.31 16.78,-3.9 4.7,-2.6 8.53,-6.55 11.6,-11.76 4.39,5.28 9.09,9.22 14.1,11.8 5,2.57 10.53,3.86 16.62,3.86 7.06,0 13.22,-1.43 18.34,-4.19 5.1,-2.78 8.93,-6.8 11.48,-11.96 2.21,-4.72 3.3,-12.09 3.3,-22.16 v -50.63 c 0,-5.47 -1.22,-9.51 -3.67,-12.27 -2.46,-2.73 -5.76,-4.09 -9.8,-4.09"
         style="fill:#7bb1ba;fill-opacity:1;fill-rule:nonzero;stroke:none"
         id="path364" />
      <path
         d="m 3925.69,7718.46 h -0.03 c -0.47,2.33 -0.86,4.68 -1.16,7.02 0.3,-2.32 0.69,-4.66 1.19,-7.02"
         style="fill:#9bbac0;fill-opacity:1;fill-rule:nonzero;stroke:none"
         id="path366" />
      <path
         d="m 3932.64,7697.61 c -1.77,3.7 -3.3,7.57 -4.57,11.58 h 0.03 v 0 0 c 1.24,-3.92 2.74,-7.8 4.54,-11.58"
         style="fill:#9bbac0;fill-opacity:1;fill-rule:nonzero;stroke:none"
         id="path368" />
      <path
         d="m 3980.46,7818.82 -2.3,7.05 c 0,0 9.2,4.51 21.84,7.28 v -9.17 c -5.96,-1.09 -12.41,-2.79 -19.54,-5.16 m 19.54,24.2 c -1.37,1.78 -2.19,4.02 -2.19,6.44 0,2.42 0.82,4.65 2.19,6.43 v -12.87"
         style="fill:#9bbac0;fill-opacity:1;fill-rule:nonzero;stroke:none"
         id="path370" />
      <path
         d="m 4000,7823.98 v 9.17 c 2.39,0.52 4.91,0.98 7.51,1.34 l -1.34,4.63 c -2.5,0.53 -4.67,1.94 -6.17,3.9 v 12.87 c 1.93,2.5 4.96,4.11 8.37,4.11 5.83,0 10.57,-4.71 10.57,-10.54 0,-5.07 -3.59,-9.33 -8.38,-10.34 l 1.21,-4.15 c 2.29,0.19 4.5,0.27 6.6,0.27 12.02,0 20.51,-2.61 20.51,-2.61 l -1.21,-7.63 c -4.23,0.71 -7.93,1.11 -12.94,1.11 -4.68,0 -10.41,-0.35 -18.03,-1.16 -2.17,-0.23 -4.4,-0.56 -6.7,-0.97"
         style="fill:#7bb1ba;fill-opacity:1;fill-rule:nonzero;stroke:none"
         id="path372" />
      <path
         d="m 3918.21,7741.29 -10.57,0.42 c 0,0 -1.25,14.81 3.11,26.7 l 0.03,0.05 c -0.12,1.32 -0.49,3.06 -1.6,4.27 -0.95,1.05 -2.36,1.56 -4.27,1.56 -0.04,0 -0.07,0 -0.11,0 -0.09,0 -0.18,0 -0.26,0 -3.68,0 -6.21,1.55 -7.81,3.34 l -1.67,-0.21 c -3.69,0 -6.69,2.99 -6.69,6.69 0,3.68 3,6.69 6.69,6.69 3.69,0 6.69,-3.01 6.69,-6.69 0,-1.57 -0.53,-3 -1.43,-4.13 0.9,-0.81 2.27,-1.47 4.27,-1.47 h 0.15 c 0.08,0 0.17,0 0.26,0 3.1,0 5.55,-1.01 7.32,-2.94 l 0.9,-1.19 c 6.06,13.03 13.74,20.09 14.01,20.48 l 4.88,-3.57 3.13,-2.25 -1.13,-1.43 -0.06,-0.08 c -0.27,-0.38 -6.86,-9.44 -12.13,-23.94 -2.73,-7.48 -3.5,-16.91 -3.71,-22.3"
         style="fill:#9bbac0;fill-opacity:1;fill-rule:nonzero;stroke:none"
         id="path374" />
      <path
         d="m 4105.89,7764.63 c -3.37,7.25 -7.42,14.51 -11.36,20.14 -5.69,8.16 -11.55,14.69 -17.29,19.91 l 7.59,8.13 c 0,0 9.69,-6.72 17.56,-17.75 1.05,0.25 2.11,0.65 2.96,1.4 1.06,0.97 1.57,2.4 1.54,4.37 -0.06,3.83 1.54,6.44 3.37,8.1 l -0.23,1.66 c 0,3.7 3,6.68 6.69,6.68 3.71,0 6.7,-2.98 6.7,-6.68 0,-3.7 -2.99,-6.7 -6.7,-6.7 -1.55,0 -2.98,0.56 -4.12,1.43 -0.82,-0.93 -1.51,-2.33 -1.49,-4.41 0.06,-3.21 -0.93,-5.77 -2.93,-7.58 -1.01,-0.9 -2.16,-1.53 -3.31,-1.92 6.58,-10.36 11.26,-21.92 11.26,-21.92 l -10.24,-4.86"
         style="fill:#7bb1ba;fill-opacity:1;fill-rule:nonzero;stroke:none"
         id="path376" />
      <path
         d="m 4000,7656.5 c -15.43,0.85 -25.18,4 -25.3,4.04 l -0.21,0.08 -0.23,0.02 c -0.14,0.02 -14.81,2.51 -29.21,18.27 -4.14,4.54 -7.78,9.78 -10.81,15.48 l -0.17,0.34 -0.65,1.27 -0.65,1.33 -0.13,0.28 v 0 c -1.8,3.78 -3.3,7.66 -4.54,11.58 v 0 c 5.15,-1.16 13.56,-2.82 24.33,-4.18 9.42,-1.19 21.71,-2.22 35.62,-2.22 3.87,0 7.86,0.07 11.95,0.26 v -46.55"
         style="fill:#9bbac0;fill-opacity:1;fill-rule:nonzero;stroke:none"
         id="path378" />
      <path
         d="m 4007.62,7656.29 c -2.67,0 -5.21,0.08 -7.62,0.21 v 46.55 c 7.2,0.32 14.69,0.95 22.33,2.01 30.53,4.26 53.72,13.33 67.82,20.19 8.48,4.14 14.75,7.93 18.72,10.6 0.51,-7.18 -0.37,-13.99 -1.48,-18.25 -2.09,-8.01 -5.61,-15.71 -10.5,-22.94 -6.32,-9.34 -19.06,-19.81 -32.54,-26.7 -18.19,-7.75 -37.28,-11.67 -56.73,-11.67"
         style="fill:#7bb1ba;fill-opacity:1;fill-rule:nonzero;stroke:none"
         id="path380" />
      <path
         d="m 3988.2,7711.23 c -32.1,0 -57.22,5.89 -62.51,7.23 v 0 c -0.5,2.36 -0.89,4.7 -1.19,7.02 v 0 l -0.15,1.27 -0.02,0.18 c -0.38,3.33 -0.57,6.7 -0.57,10.1 v 0.03 c 0,0.17 -0.16,14.65 3.46,24.6 4.83,13.28 10.94,21.93 11.35,22.53 3.41,4.35 6.38,7.1 7.8,8.41 l 0.33,0.3 c 9.6,8.89 21.79,15.97 35.27,20.48 6.58,2.21 12.54,3.83 18.03,4.87 v -36.26 c -5.16,5.86 -12.72,9.56 -21.15,9.56 -15.54,0 -28.16,-12.62 -28.16,-28.17 0,-15.56 12.62,-28.15 28.16,-28.15 8.43,0 15.99,3.7 21.15,9.55 v -33.28 c -4.02,-0.19 -7.96,-0.27 -11.8,-0.27"
         style="fill:#9bbac0;fill-opacity:1;fill-rule:nonzero;stroke:none"
         id="path382" />
      <path
         d="m 4000,7711.5 v 33.28 c 4.37,4.95 7.02,11.47 7.02,18.6 0,7.13 -2.65,13.65 -7.02,18.61 v 36.26 c 2.53,0.48 4.95,0.84 7.29,1.09 7.42,0.78 12.96,1.14 17.44,1.14 4.8,0 8.19,-0.4 12.43,-1.09 11.1,-1.83 32.72,-9.18 52.77,-37.84 7.01,-10.05 14.66,-26.18 17.43,-36.46 -2.78,-2.02 -9.99,-6.95 -21.2,-12.38 -13.5,-6.55 -35.72,-15.2 -64.99,-19.27 -7.21,-1.01 -14.3,-1.62 -21.17,-1.94 m 61.27,79.36 c -9.62,0 -17.42,-7.81 -17.42,-17.43 0,-9.62 7.8,-17.45 17.42,-17.45 9.61,0 17.43,7.83 17.43,17.45 0,9.62 -7.82,17.43 -17.43,17.43"
         style="fill:#7bb1ba;fill-opacity:1;fill-rule:nonzero;stroke:none"
         id="path384" />
    </g>
  </g>
</svg>
