<?xml version="1.0" encoding="UTF-8" standalone="no"?>
<!-- Created with Inkscape (http://www.inkscape.org/) -->

<svg
   width="316.94501mm"
   height="316.94321mm"
   viewBox="0 0 316.94501 316.94321"
   version="1.1"
   id="svg1"
   inkscape:version="1.3.1 (91b66b0783, 2023-11-16)"
   sodipodi:docname="right arrow normal.svg"
   xmlns:inkscape="http://www.inkscape.org/namespaces/inkscape"
   xmlns:sodipodi="http://sodipodi.sourceforge.net/DTD/sodipodi-0.dtd"
   xmlns="http://www.w3.org/2000/svg"
   xmlns:svg="http://www.w3.org/2000/svg">
  <sodipodi:namedview
     id="namedview1"
     pagecolor="#ffffff"
     bordercolor="#000000"
     borderopacity="0.25"
     inkscape:showpageshadow="2"
     inkscape:pageopacity="0.0"
     inkscape:pagecheckerboard="0"
     inkscape:deskcolor="#d1d1d1"
     inkscape:document-units="mm"
     inkscape:zoom="0.65834035"
     inkscape:cx="592.39875"
     inkscape:cy="596.19618"
     inkscape:window-width="1920"
     inkscape:window-height="974"
     inkscape:window-x="-11"
     inkscape:window-y="-11"
     inkscape:window-maximized="1"
     inkscape:current-layer="layer1" />
  <defs
     id="defs1" />
  <g
     inkscape:label="Layer 1"
     inkscape:groupmode="layer"
     id="layer1"
     transform="translate(116.68127,90.487508)">
    <g
       transform="matrix(0.04393071,0,0,-0.04393071,-535.78329,633.40798)"
       id="g42">
      <path
         id="path44"
         style="fill:#040606;fill-opacity:1;fill-rule:nonzero;stroke:none"
         d="m 15159.9,12523 -340.8,-340.9 -839.8,-839.7 c -95,-95.2 -219.7,-142.7 -344.3,-142.7 -124.6,0 -249.4,47.5 -344.4,142.7 -190.3,190.1 -190.3,498.6 0,688.9 l 352.5,352.6 h -2165.3 c -269,0 -487,218 -487,487 0,134.5 54.4,256.3 142.7,344.5 88.1,88.1 209.7,142.5 344.3,142.5 h 2165.3 l -346.5,346.6 c -190.7,190.8 -195.8,507.9 -3.7,697.3 94.7,93.5 218.4,140.2 342.1,140.2 124.6,0 249.3,-47.5 344.3,-142.5 l 1180.6,-1180.6 c 192.2,-192.2 192.1,-503.8 0,-695.9 z m 498.9,3500.4 h -5022.7 c -354.2,0 -641.26,-287.1 -641.26,-641.2 v -5022.7 c 0,-354.1 287.06,-641.23 641.26,-641.23 h 5022.7 c 354,0 641.2,287.13 641.2,641.23 v 5022.7 c 0,354.1 -287.2,641.2 -641.2,641.2" />
    </g>
    <g
       transform="matrix(0.04515626,0,0,-0.04515626,-535.78329,633.40798)"
       id="g46">
      <path
         id="path48"
         style="fill:#040606;fill-opacity:1;fill-rule:nonzero;stroke:none"
         d="m 16060.9,9968.66 c 0,-395.55 -322,-717.43 -717.5,-717.43 h -5105.7 c -395.54,0 -717.41,321.88 -717.41,717.43 v 5105.74 c 0,395.5 321.87,717.4 717.41,717.4 h 5105.7 c 395.5,0 717.5,-321.9 717.5,-717.4 z m -717.5,6062.24 h -5105.7 c -527.42,0 -956.55,-429.1 -956.55,-956.5 V 9968.66 c 0,-527.43 429.13,-956.57 956.55,-956.57 h 5105.7 c 527.5,0 956.6,429.14 956.6,956.57 v 5105.74 c 0,527.4 -429.1,956.5 -956.6,956.5" />
    </g>
  </g>
</svg>
