<?xml version="1.0" encoding="UTF-8" standalone="no"?>
<!-- Created with Inkscape (http://www.inkscape.org/) -->

<svg
   width="316.94611mm"
   height="316.94711mm"
   viewBox="0 0 316.94611 316.94711"
   version="1.1"
   id="svg1"
   inkscape:version="1.3.1 (91b66b0783, 2023-11-16)"
   sodipodi:docname="right arrow hover.svg"
   xmlns:inkscape="http://www.inkscape.org/namespaces/inkscape"
   xmlns:sodipodi="http://sodipodi.sourceforge.net/DTD/sodipodi-0.dtd"
   xmlns="http://www.w3.org/2000/svg"
   xmlns:svg="http://www.w3.org/2000/svg">
  <sodipodi:namedview
     id="namedview1"
     pagecolor="#ffffff"
     bordercolor="#000000"
     borderopacity="0.25"
     inkscape:showpageshadow="2"
     inkscape:pageopacity="0.0"
     inkscape:pagecheckerboard="0"
     inkscape:deskcolor="#d1d1d1"
     inkscape:document-units="mm"
     inkscape:zoom="0.65834035"
     inkscape:cx="601.51258"
     inkscape:cy="618.98075"
     inkscape:window-width="1920"
     inkscape:window-height="974"
     inkscape:window-x="-11"
     inkscape:window-y="-11"
     inkscape:window-maximized="1"
     inkscape:current-layer="layer1" />
  <defs
     id="defs1" />
  <g
     inkscape:label="Layer 1"
     inkscape:groupmode="layer"
     id="layer1"
     transform="translate(133.87917,35.454117)">
    <g
       transform="matrix(0.04407993,0,0,-0.04407993,-173.94175,688.44828)"
       id="g18">
      <path
         id="path20"
         style="fill:#608fd2;fill-opacity:1;fill-rule:nonzero;stroke:none"
         d="M 7119.21,9354.66 H 1888.79 c -473.54,0 -857.44,383.93 -857.44,857.44 v 5230.5 c 0,473.5 383.9,857.4 857.44,857.4 h 5230.42 c 473.56,0 857.44,-383.9 857.44,-857.4 v -5230.5 c 0,-473.51 -383.88,-857.44 -857.44,-857.44" />
    </g>
    <g
       transform="matrix(0.04318529,0,0,-0.04318529,-173.94175,688.44828)"
       id="g22">
      <path
         id="path24"
         style="fill:#4a72c1;fill-opacity:1;fill-rule:nonzero;stroke:none"
         d="M 7152.01,9886.01 H 2042.56 c -360.24,0 -652.27,291.99 -652.27,652.29 v 5109.4 c 0,360.3 292.03,652.3 652.27,652.3 h 5109.45 c 360.24,0 652.27,-292 652.27,-652.3 v -5109.4 c 0,-360.3 -292.03,-652.29 -652.27,-652.29" />
    </g>
    <g
       transform="matrix(0.04441119,0,0,-0.04441119,-173.94175,688.44828)"
       id="g26">
      <path
         id="path28"
         style="fill:#3968bb;fill-opacity:1;fill-rule:nonzero;stroke:none"
         d="m 7795.59,10136 c 0,-402.22 -327.3,-729.5 -729.48,-729.5 h -5191.4 c -402.18,0 -729.47,327.28 -729.47,729.5 v 5191.4 c 0,402.2 327.29,729.4 729.47,729.4 h 5191.4 c 402.18,0 729.48,-327.2 729.48,-729.4 z m -729.48,6164 h -5191.4 c -536.28,0 -972.627,-436.3 -972.627,-972.6 V 10136 c 0,-536.32 436.347,-972.65 972.627,-972.65 h 5191.4 c 536.28,0 972.6,436.33 972.6,972.65 v 5191.4 c 0,536.3 -436.32,972.6 -972.6,972.6" />
    </g>
    <g
       transform="matrix(0.0391929,0,0,-0.0391929,-173.94175,688.44828)"
       id="g30">
      <path
         id="path32"
         style="fill:#ffffff;fill-opacity:1;fill-rule:nonzero;stroke:none"
         d="m 7321.42,14036.9 -382.12,-382.2 -941.1,-941.2 c -106.59,-106.6 -246.36,-160 -386.13,-160 -139.66,0 -279.44,53.4 -386.02,160 -213.28,213.2 -213.28,558.9 0,772.2 l 395.21,395.2 H 3194.14 c -301.49,0 -545.9,244.4 -545.9,545.9 0,150.8 61.08,287.3 159.88,386.1 98.8,98.8 235.22,159.9 386.02,159.9 h 2427.12 l -388.39,388.4 c -213.72,213.8 -219.45,569.2 -4.22,781.5 106.25,104.9 244.84,157.3 383.42,157.3 139.77,0 279.54,-53.3 386.13,-159.9 l 941.2,-941.2 382.02,-382 c 215.44,-215.4 215.33,-564.7 0,-780" />
    </g>
  </g>
</svg>
