<?xml version="1.0" encoding="UTF-8" standalone="no"?>
<svg
   xmlns:dc="http://purl.org/dc/elements/1.1/"
   xmlns:cc="http://creativecommons.org/ns#"
   xmlns:rdf="http://www.w3.org/1999/02/22-rdf-syntax-ns#"
   xmlns:svg="http://www.w3.org/2000/svg"
   xmlns="http://www.w3.org/2000/svg"
   viewBox="0 0 2933.3333 2933.3333"
   height="2933.3333"
   width="2933.3333"
   xml:space="preserve"
   id="svg2"
   version="1.1"><metadata
     id="metadata8"><rdf:RDF><cc:Work
         rdf:about=""><dc:format>image/svg+xml</dc:format><dc:type
           rdf:resource="http://purl.org/dc/dcmitype/StillImage" /></cc:Work></rdf:RDF></metadata><defs
     id="defs6" /><g
     transform="matrix(1.3333333,0,0,-1.3333333,0,2933.3333)"
     id="g10"><g
       transform="scale(0.1)"
       id="g12"><g
         transform="scale(1.34969)"
         id="g14"><path
           id="path16"
           style="fill:#ffffff;fill-opacity:1;fill-rule:nonzero;stroke:none"
           d="M 16300,0 H 0 V 16300 H 16300 V 0" /></g><g
         transform="scale(1.24951)"
         id="g18"><path
           id="path20"
           style="fill:#608fd2;fill-opacity:1;fill-rule:nonzero;stroke:none"
           d="M 7119.21,9354.66 H 1888.79 c -473.54,0 -857.44,383.93 -857.44,857.44 v 5230.5 c 0,473.5 383.9,857.4 857.44,857.4 h 5230.42 c 473.56,0 857.44,-383.9 857.44,-857.4 v -5230.5 c 0,-473.51 -383.88,-857.44 -857.44,-857.44" /></g><g
         transform="scale(1.22415)"
         id="g22"><path
           id="path24"
           style="fill:#4a72c1;fill-opacity:1;fill-rule:nonzero;stroke:none"
           d="M 7152.01,9886.01 H 2042.56 c -360.24,0 -652.27,291.99 -652.27,652.29 v 5109.4 c 0,360.3 292.03,652.3 652.27,652.3 h 5109.45 c 360.24,0 652.27,-292 652.27,-652.3 v -5109.4 c 0,-360.3 -292.03,-652.29 -652.27,-652.29" /></g><g
         transform="scale(1.2589)"
         id="g26"><path
           id="path28"
           style="fill:#3968bb;fill-opacity:1;fill-rule:nonzero;stroke:none"
           d="m 7795.59,10136 c 0,-402.22 -327.3,-729.5 -729.48,-729.5 h -5191.4 c -402.18,0 -729.47,327.28 -729.47,729.5 v 5191.4 c 0,402.2 327.29,729.4 729.47,729.4 h 5191.4 c 402.18,0 729.48,-327.2 729.48,-729.4 z m -729.48,6164 h -5191.4 c -536.28,0 -972.627,-436.3 -972.627,-972.6 V 10136 c 0,-536.32 436.347,-972.65 972.627,-972.65 h 5191.4 c 536.28,0 972.6,436.33 972.6,972.65 v 5191.4 c 0,536.3 -436.32,972.6 -972.6,972.6" /></g><g
         transform="scale(1.11098)"
         id="g30"><path
           id="path32"
           style="fill:#ffffff;fill-opacity:1;fill-rule:nonzero;stroke:none"
           d="m 7321.42,14036.9 -382.12,-382.2 -941.1,-941.2 c -106.59,-106.6 -246.36,-160 -386.13,-160 -139.66,0 -279.44,53.4 -386.02,160 -213.28,213.2 -213.28,558.9 0,772.2 l 395.21,395.2 H 3194.14 c -301.49,0 -545.9,244.4 -545.9,545.9 0,150.8 61.08,287.3 159.88,386.1 98.8,98.8 235.22,159.9 386.02,159.9 h 2427.12 l -388.39,388.4 c -213.72,213.8 -219.45,569.2 -4.22,781.5 106.25,104.9 244.84,157.3 383.42,157.3 139.77,0 279.54,-53.3 386.13,-159.9 l 941.2,-941.2 382.02,-382 c 215.44,-215.4 215.33,-564.7 0,-780" /></g><path
         id="path34"
         style="fill:#608fd2;fill-opacity:1;fill-rule:nonzero;stroke:none"
         d="m 5627.79,1633.1 h -0.01 c -2396.42,0 -4339.1,1942.6 -4339.1,4339 v 0.1 c 0,2396.4 1942.68,4339.1 4339.1,4339.1 h 0.01 c 2396.41,0 4339.09,-1942.7 4339.09,-4339.1 v -0.1 c 0,-2396.4 -1942.68,-4339 -4339.09,-4339" /><path
         id="path36"
         style="fill:#4a72c1;fill-opacity:1;fill-rule:nonzero;stroke:none"
         d="m 5627.79,2046.3 h -0.01 c -2168.19,0 -3925.85,1757.7 -3925.85,3925.9 v 0 c 0,2168.1 1757.66,3925.8 3925.85,3925.8 h 0.01 c 2168.18,0 3925.84,-1757.7 3925.84,-3925.8 v 0 C 9553.63,3804 7795.97,2046.3 5627.79,2046.3" /><path
         id="path38"
         style="fill:#3968bb;fill-opacity:1;fill-rule:nonzero;stroke:none"
         d="m 7230.57,2102.6 c -501.41,-207.7 -1043.83,-316.5 -1602.79,-316.5 -1118.06,0 -2169.4,435.4 -2959.92,1226.1 -790.68,790.6 -1226.12,1841.9 -1226.12,2960 0,1118 435.44,2169.4 1226.12,2959.9 790.52,790.7 1841.86,1226.1 2959.92,1226.1 1118.07,0 2169.4,-435.4 2959.93,-1226.1 790.68,-790.5 1226.12,-1841.9 1226.12,-2959.9 0,-1118.1 -435.44,-2169.4 -1226.12,-2960 -395.34,-395.3 -855.73,-701.9 -1357.14,-909.6 z M 8804.28,9148.7 C 7955.74,9997 6827.73,10464.3 5627.78,10464.3 4427.83,10464.3 3299.82,9997 2451.29,9148.7 1602.9,8300.1 1135.63,7172.1 1135.63,5972.2 c 0,-1200 467.27,-2328 1315.66,-3176.5 C 3299.82,1947.3 4427.83,1480 5627.78,1480 c 1199.95,0 2327.96,467.3 3176.5,1315.7 848.38,848.5 1315.62,1976.5 1315.62,3176.5 0,1199.9 -467.24,2327.9 -1315.62,3176.5" /><path
         id="path40"
         style="fill:#ffffff;fill-opacity:1;fill-rule:nonzero;stroke:none"
         d="M 8133.95,5539 7709.42,5114.4 6663.88,4068.8 C 6545.46,3950.4 6390.18,3891 6234.9,3891 c -155.16,0 -310.45,59.4 -428.86,177.8 -236.95,236.8 -236.95,620.9 0,857.8 l 439.07,439.1 H 3548.62 c -334.94,0 -606.48,271.5 -606.48,606.5 0,167.5 67.86,319.2 177.62,428.9 109.77,109.8 261.33,177.7 428.86,177.7 h 2696.49 l -431.5,431.5 c -237.43,237.5 -243.8,632.4 -4.69,868.2 118.05,116.5 272.02,174.8 425.98,174.8 155.28,0 310.56,-59.2 428.98,-177.6 L 7709.54,6830 8133.95,6405.6 c 239.35,-239.4 239.23,-627.4 0,-866.6" /><g
         transform="scale(1.24528)"
         id="g42"><path
           id="path44"
           style="fill:#040606;fill-opacity:1;fill-rule:nonzero;stroke:none"
           d="m 15159.9,12523 -340.8,-340.9 -839.8,-839.7 c -95,-95.2 -219.7,-142.7 -344.3,-142.7 -124.6,0 -249.4,47.5 -344.4,142.7 -190.3,190.1 -190.3,498.6 0,688.9 l 352.5,352.6 h -2165.3 c -269,0 -487,218 -487,487 0,134.5 54.4,256.3 142.7,344.5 88.1,88.1 209.7,142.5 344.3,142.5 h 2165.3 l -346.5,346.6 c -190.7,190.8 -195.8,507.9 -3.7,697.3 94.7,93.5 218.4,140.2 342.1,140.2 124.6,0 249.3,-47.5 344.3,-142.5 l 1180.6,-1180.6 c 192.2,-192.2 192.1,-503.8 0,-695.9 z m 498.9,3500.4 h -5022.7 c -354.2,0 -641.26,-287.1 -641.26,-641.2 v -5022.7 c 0,-354.1 287.06,-641.23 641.26,-641.23 h 5022.7 c 354,0 641.2,287.13 641.2,641.23 v 5022.7 c 0,354.1 -287.2,641.2 -641.2,641.2" /></g><g
         transform="scale(1.28002)"
         id="g46"><path
           id="path48"
           style="fill:#040606;fill-opacity:1;fill-rule:nonzero;stroke:none"
           d="m 16060.9,9968.66 c 0,-395.55 -322,-717.43 -717.5,-717.43 h -5105.7 c -395.54,0 -717.41,321.88 -717.41,717.43 v 5105.74 c 0,395.5 321.87,717.4 717.41,717.4 h 5105.7 c 395.5,0 717.5,-321.9 717.5,-717.4 z m -717.5,6062.24 h -5105.7 c -527.42,0 -956.55,-429.1 -956.55,-956.5 V 9968.66 c 0,-527.43 429.13,-956.57 956.55,-956.57 h 5105.7 c 527.5,0 956.6,429.14 956.6,956.57 v 5105.74 c 0,527.4 -429.1,956.5 -956.6,956.5" /></g><g
         transform="scale(1.24528)"
         id="g50"><path
           id="path52"
           style="fill:#040606;fill-opacity:1;fill-rule:nonzero;stroke:none"
           d="m 15159.9,4447.99 -340.8,-340.97 -839.8,-839.65 c -95,-95.16 -219.7,-142.7 -344.3,-142.7 -124.6,0 -249.4,47.54 -344.4,142.7 -190.3,190.08 -190.3,498.6 0,688.84 l 352.5,352.69 h -2165.3 c -269,0 -487,218.03 -487,486.96 0,134.51 54.4,256.33 142.7,344.5 88.1,88.09 209.7,142.54 344.3,142.54 h 2165.3 l -346.5,346.59 c -190.7,190.8 -195.8,507.83 -3.7,697.27 94.7,93.55 218.4,140.21 342.1,140.21 124.6,0 249.3,-47.54 344.3,-142.54 L 15159.9,5143.9 c 192.2,-192.25 192.1,-503.83 0,-695.91 z m 216.7,2577 c -570.5,570.56 -1358.7,923.41 -2229.2,923.41 -870.6,0 -1658.8,-352.85 -2229.2,-923.41 -570.5,-570.39 -923.36,-1358.64 -923.36,-2229.13 0,-1741.13 1411.36,-3152.62 3152.56,-3152.62 870.5,0 1658.7,352.85 2229.2,923.41 570.5,570.39 923.4,1358.65 923.4,2229.21 0,870.49 -352.9,1658.74 -923.4,2229.13" /></g><g
         transform="scale(1.28002)"
         id="g54"><path
           id="path56"
           style="fill:#040606;fill-opacity:1;fill-rule:nonzero;stroke:none"
           d="m 15102.9,2353.24 c -617.6,-617.73 -1438.9,-957.87 -2312.4,-957.87 -873.4,0 -1694.8,340.14 -2312.3,957.87 -617.76,617.64 -957.91,1438.95 -957.91,2312.45 0,873.42 340.15,1694.81 957.91,2312.38 617.5,617.72 1438.9,957.87 2312.3,957.87 873.5,0 1694.8,-340.15 2312.4,-957.87 617.7,-617.57 958,-1438.96 958,-2312.38 0,-873.5 -340.3,-1694.81 -958,-2312.45 z m 169.2,4794.04 c -662.8,662.73 -1544.1,1027.8 -2481.6,1027.8 -937.4,0 -1818.6,-365.07 -2481.6,-1027.8 C 9646.14,6484.33 9281.15,5603.1 9281.15,4665.69 c 0,-937.48 364.99,-1818.71 1027.75,-2481.59 663,-662.8 1544.2,-1027.87 2481.6,-1027.87 937.5,0 1818.8,365.07 2481.6,1027.87 662.8,662.88 1027.9,1544.11 1027.9,2481.59 0,937.41 -365.1,1818.64 -1027.9,2481.59" /></g></g></g></svg>