<?xml version="1.0" encoding="UTF-8" standalone="no"?>
<!-- Created with Inkscape (http://www.inkscape.org/) -->

<svg
   version="1.1"
   id="svg2"
   width="359.30933"
   height="465.44919"
   viewBox="0 0 359.30933 465.44919"
   sodipodi:docname="outline - veneto.svg"
   inkscape:version="1.3.1 (91b66b0783, 2023-11-16)"
   inkscape:export-filename="outline - veneto.png"
   inkscape:export-xdpi="96"
   inkscape:export-ydpi="96"
   xmlns:inkscape="http://www.inkscape.org/namespaces/inkscape"
   xmlns:sodipodi="http://sodipodi.sourceforge.net/DTD/sodipodi-0.dtd"
   xmlns="http://www.w3.org/2000/svg"
   xmlns:svg="http://www.w3.org/2000/svg">
  <defs
     id="defs6" />
  <sodipodi:namedview
     id="namedview4"
     pagecolor="#ffffff"
     bordercolor="#000000"
     borderopacity="0.25"
     inkscape:showpageshadow="2"
     inkscape:pageopacity="0.0"
     inkscape:pagecheckerboard="0"
     inkscape:deskcolor="#d1d1d1"
     inkscape:zoom="6.9178612"
     inkscape:cx="142.24049"
     inkscape:cy="97.212127"
     inkscape:window-width="2880"
     inkscape:window-height="1514"
     inkscape:window-x="2869"
     inkscape:window-y="-11"
     inkscape:window-maximized="1"
     inkscape:current-layer="g8" />
  <g
     id="g8"
     inkscape:groupmode="layer"
     inkscape:label="ink_ext_XXXXXX"
     transform="matrix(1.3333333,0,0,-1.3333333,-300.36666,586.08665)">
    <path
       d="m 356.456,386.541 -0.123,-0.15 -0.164,-0.075 -0.333,-0.121 0.223,-0.261 0.246,0.117 0.287,0.23 0.217,0.39 -0.096,0.142 z m 15.325,6.543 -0.14,0.294 -0.512,1.442 -0.112,0.181 -0.227,0.277 -0.11,0.16 -0.07,0.151 0.014,0.219 0.007,0.052 -0.021,0.102 -0.07,0.168 -0.54,0.724 -0.038,0.118 -0.025,0.158 -0.038,0.38 -0.004,0.339 0.053,0.337 -0.007,0.073 -0.151,0.259 -0.446,0.296 -0.238,-0.292 -0.172,-0.323 -0.067,-0.093 -0.112,-0.045 h -0.157 l -1.024,0.21 -0.133,0.106 -0.053,0.111 0.017,0.115 -0.021,0.106 -0.056,0.086 -0.084,0.067 -0.108,0.053 -0.116,0.035 -0.154,-0.011 -0.169,-0.065 -0.232,-0.19 -0.108,-0.146 -0.074,-0.133 -0.045,-0.107 -0.088,-0.062 -0.108,-0.01 -0.183,0.107 -0.073,0.113 -0.028,0.094 0.007,0.098 -0.004,0.116 -0.024,0.111 -0.057,0.086 -0.073,0.075 -0.166,0.129 -0.185,0.097 -0.102,-0.025 -0.084,-0.072 -0.126,-0.205 -0.074,-0.145 -0.101,-0.125 -0.123,-0.072 -0.393,-0.066 -0.182,-0.089 -0.183,-0.139 -0.733,-0.762 -0.2,-0.097 -0.392,0.048 -0.165,0.411 -0.105,0.137 -0.375,0.346 -0.122,0.076 -0.106,0.034 -0.109,-0.011 -0.105,-0.031 -0.263,-0.173 -0.112,-0.023 -0.112,0.016 -0.796,0.407 -0.085,0.103 -0.073,0.146 -0.07,0.271 -0.578,1.54 -0.06,0.272 -0.025,0.175 -0.049,0.129 -0.092,0.124 -0.213,0.142 -0.34,0.114 -0.084,0.051 -0.474,0.534 -0.126,0.087 -0.095,0.041 -0.238,0.06 -0.112,0.119 -0.07,0.214 -0.098,1.015 -0.134,0.623 -0.35,1.099 0.256,0.403 0.115,0.226 0.088,0.217 0.049,0.104 0.063,0.091 0.07,0.08 0.081,0.07 0.087,0.056 0.555,0.169 0.186,0.104 0.157,0.141 0.06,0.077 0.045,0.079 0.064,0.143 0.014,0.211 -0.011,0.313 -0.088,0.643 -0.073,0.284 -0.081,0.186 -0.431,0.324 -0.155,0.147 -0.059,0.083 -0.049,0.095 -0.021,0.114 -0.036,0.462 -0.038,0.237 -0.081,0.109 -0.112,0.044 -0.259,0.004 -0.116,0.02 -0.073,0.067 -0.042,0.098 -0.035,0.111 -0.046,0.097 -0.07,0.074 -0.108,0.037 -0.51,0.014 -0.112,0.042 -0.101,0.05 -0.555,0.491 -0.347,0.415 -0.059,0.089 -0.084,0.193 -0.014,0.1 0.056,0.155 0.115,0.252 0.375,0.525 0.233,0.267 0.332,0.237 1.165,0.605 0.182,0.184 0.466,0.61 0.722,1.334 0.232,0.824 0.287,0.645 0.087,0.111 0.117,0.109 0.494,0.275 0.947,0.204 1.077,0.007 0.245,-0.066 0.207,-0.103 0.108,-0.027 0.098,0.04 0.056,0.136 -0.003,0.288 -0.042,0.161 -0.074,0.118 -0.196,0.111 -0.115,0.036 -0.102,0.052 -0.084,0.06 -0.063,0.09 0.009,0.149 0.085,0.194 0.389,0.483 0.119,0.112 0.091,0.062 0.197,0.102 0.22,0.078 1.485,0.233 0.07,0.081 0.035,0.153 -0.06,0.279 0.042,0.312 0.011,0.422 -0.155,0.683 -0.137,1.561 -0.195,0.065 -0.178,-0.023 -0.362,-0.142 -0.212,-0.007 -0.208,0.092 -0.411,0.311 -0.177,0.08 -0.04,0.018 -1.117,0.114 -1.315,-0.173 -0.331,0.032 -0.374,0.18 -0.698,0.475 -0.684,0.12 -0.567,-0.341 -0.28,-0.256 -0.119,-0.187 -0.07,-0.081 -0.119,-0.086 -0.436,-0.233 -0.115,-0.118 -0.046,-0.122 0.028,-0.232 -0.021,-0.116 -0.084,-0.078 -0.14,-0.042 -0.252,0.032 -0.144,0.058 -0.117,0.076 -0.077,0.075 -0.091,0.062 -0.105,0.043 -0.158,-0.017 -0.168,-0.07 -0.245,-0.181 -0.207,-0.107 -0.245,-0.086 -1.115,-0.124 -0.359,-0.162 -0.525,-0.322 -0.133,-0.037 -0.088,0.114 -0.056,0.253 -0.035,0.107 -0.502,0.833 -0.081,0.071 -0.105,0.046 -0.508,0.089 -0.196,0.105 -0.891,0.772 -0.101,0.015 -0.113,-0.048 -0.122,-0.223 -0.061,-0.169 -0.028,-0.164 -0.03,-0.444 -0.042,-0.268 -0.135,-0.493 -0.164,-0.441 -0.207,-0.423 -0.298,-0.378 -0.07,-0.128 -0.049,-0.137 -0.056,-0.408 -0.035,-0.128 -0.045,-0.107 -0.053,-0.099 -0.063,-0.088 -0.07,-0.078 -0.366,-0.13 -3.478,-0.696 -0.445,-0.332 0.046,-0.661 0.203,-0.176 0.624,-0.131 0.225,-0.1 0.168,-0.13 0.066,-0.081 0.056,-0.09 0.042,-0.108 0.004,-0.134 -0.039,-0.155 -0.14,-0.204 -0.119,-0.101 -0.2,-0.139 -0.157,-0.133 -0.07,-0.081 -0.06,-0.092 -0.059,-0.172 -0.056,-0.24 -0.124,-0.978 -0.049,-0.114 -0.119,-0.089 -0.372,-0.038 -0.101,-0.048 -0.431,-0.308 -0.075,-0.086 -0.037,-0.13 0.028,-0.209 0.044,-0.143 0.061,-0.115 0.834,-0.952 0.115,-0.172 0.049,-0.096 0.042,-0.11 0.007,-0.171 -0.035,-0.545 0.035,-0.177 0.074,-0.11 0.11,-0.039 0.126,-0.012 0.536,0.018 0.119,-0.026 0.094,-0.052 0.067,-0.085 0.088,-0.203 0.063,-0.08 0.095,-0.062 0.221,-0.085 0.088,-0.046 0.045,-0.059 0.018,-0.022 -0.154,-0.547 -0.018,-0.196 0.014,-0.164 0.049,-0.095 0.063,-0.081 0.165,-0.151 0.683,-0.381 0.081,-0.07 0.067,-0.082 0.042,-0.105 -0.014,-0.126 -0.077,-0.133 -0.218,-0.129 -0.287,-0.121 -0.137,-0.11 -0.154,-0.171 -0.495,-0.722 -0.095,-0.207 -0.084,-0.118 -0.13,-0.127 -0.276,-0.144 -0.989,-0.331 -0.449,-0.295 -0.224,-0.067 -0.245,-0.041 -1.259,-0.011 -0.723,-0.138 -0.119,-0.055 -0.095,-0.136 -0.084,-0.263 0.025,-0.368 0.031,-0.2 0.092,-0.255 0.01,-0.131 -0.028,-0.139 -0.112,-0.17 -0.193,-0.18 -0.084,-0.157 -0.068,-0.244 -0.084,-0.836 0.091,-0.653 -0.7,-0.288 -0.364,-0.049 -0.545,0.054 -0.231,0.073 -0.091,0.051 -0.073,0.072 -0.067,0.083 -0.053,0.096 -0.14,0.415 -0.01,0.022 -0.119,0.179 -0.152,0.144 -0.084,0.061 -0.095,0.053 -0.115,0.035 -0.13,0.02 -0.28,0.005 -1.038,-0.115 -0.204,-0.084 -1.027,-0.72 -0.571,-0.156 -0.513,-0.057 -0.115,-0.07 -0.095,-0.116 -0.081,-0.251 -0.003,-0.162 0.018,-0.142 0.084,-0.205 0.014,-0.107 -0.039,-0.12 -0.154,-0.157 -0.13,-0.156 -0.15,-0.263 -0.109,-0.134 -0.179,-0.048 -0.112,0.037 -0.106,0.058 -0.165,0.136 -0.073,0.075 -0.06,0.084 -0.049,0.091 -0.063,0.073 -0.091,0.038 -0.102,-0.012 -0.091,-0.053 -0.08,-0.07 -0.285,-0.31 -0.357,-0.227 -0.095,-0.129 -0.088,-0.192 -0.108,-0.396 -0.175,-0.417 -1.301,-2.36 -0.039,-0.111 0.014,-0.165 0.067,-0.245 -0.011,-0.114 -0.056,-0.096 -0.241,-0.145 -0.095,-0.071 -0.047,-0.102 0.012,-0.16 0.063,-0.379 -0.007,-0.116 -0.014,-0.11 -0.835,-1.426 -0.389,-0.353 -0.4,0.022 -1.115,0.397 -0.123,0.016 -0.116,-0.013 -0.227,-0.057 -0.154,0.01 -0.176,0.038 -0.255,0.089 -0.133,-0.017 -0.103,-0.056 -0.298,-0.448 -0.067,-0.081 -0.077,-0.071 -0.084,-0.05 -0.098,-0.029 -0.378,0.105 -0.105,-0.03 -0.077,-0.063 -0.124,-0.176 -0.07,-0.077 -0.088,-0.06 -0.108,-0.027 -0.119,0.008 -0.155,0.127 -0.182,0.215 -0.32,0.511 -0.196,0.189 -0.161,0.088 -0.231,-0.036 -0.095,0.065 -0.049,0.136 0.011,0.285 0.112,0.625 v 0.014 l 0.01,0.125 0.025,0.106 0.031,0.114 0.049,0.111 0.053,0.092 0.294,0.308 0.061,0.086 0.03,0.135 -0.016,0.192 -0.092,0.312 -0.035,0.207 -0.119,0.219 -0.092,0.132 -0.896,0.553 -0.958,-1.459 -0.109,-0.209 -0.333,-0.844 -0.505,-0.859 -0.34,-0.395 -2.29,-3.475 -0.07,-0.603 -0.014,-0.894 0.225,-2.089 -0.018,-1.201 -0.056,-0.048 -0.088,-0.188 -0.007,-0.169 0.049,-0.227 0.109,-0.347 0.266,-0.356 0.579,0.154 0.34,-0.033 0.042,-0.661 -0.049,-0.633 0.07,-0.277 0.288,-0.204 v -0.2 l -0.249,-0.239 -0.012,-0.777 -0.202,-0.296 0.477,-0.15 0.241,0.073 0.121,-0.002 0.126,-0.056 0.115,-0.163 0.06,-0.131 0.08,-0.235 0.049,-0.098 0.074,-0.063 0.095,-0.026 0.133,0.051 0.091,0.068 0.073,0.084 0.112,0.175 0.078,0.074 0.094,0.038 0.176,-0.057 0.221,-0.14 0.708,-0.702 0.105,-0.181 0.131,-0.3 0.056,-0.089 2.197,-1.708 0.762,-0.296 0.175,-0.097 0.129,-0.109 0.176,-0.218 0.066,-0.111 0.035,-0.117 -0.01,-0.097 -0.018,-0.081 -0.084,-0.21 -0.021,-0.074 -0.01,-0.102 0.01,-0.099 0.021,-0.07 0.035,-0.063 0.102,-0.057 0.145,-0.04 0.276,0.003 0.312,0.058 h 0.123 l 0.112,-0.062 0.108,-0.152 0.025,-0.137 -0.028,-0.119 -0.095,-0.196 -0.038,-0.104 -0.014,-0.117 0.021,-0.112 0.042,-0.103 0.052,-0.09 0.277,-0.352 0.109,-0.09 0.176,-0.104 0.147,-0.033 0.158,0.026 0.161,0.122 0.091,0.112 0.084,0.084 0.084,0.046 0.649,0.072 0.169,0.062 0.126,0.074 0.084,0.068 0.168,0.02 0.252,-0.027 0.691,-0.212 0.141,-0.26 -0.326,-0.256 -0.067,-0.076 -0.038,-0.094 -0.007,-0.109 0.091,-0.708 0.017,-0.061 0.393,-0.134 1.349,0.012 -0.003,-0.822 0.733,-0.663 1.893,-1.253 0.383,-0.039 0.298,-0.176 0.056,-0.541 0.235,-0.388 0.406,-0.005 0.873,0.191 0.473,-0.03 0.35,-0.083 0.643,-0.341 1.196,-0.967 0.361,-0.119 0.407,0.102 0.308,0.24 0.533,0.527 0.921,0.303 0.394,0.21 0.073,0.355 0.194,0.224 0.201,0.141 0.257,0.069 0.358,0.02 0.091,0.068 0.134,0.299 0.085,0.068 h 0.546 l 1.087,0.246 0.571,-0.132 0.355,-0.02 0.281,-0.067 h 0.168 l 0.852,0.204 0.228,0.022 0.175,-0.01 0.105,-0.045 2.181,-0.426 0.386,-0.176 0.259,-0.189 0.067,-0.079 0.049,-0.093 0.101,-0.318 0.084,-0.113 0.137,-0.102 0.292,-0.108 0.189,-0.007 0.151,0.046 0.154,0.079 0.105,-0.01 0.379,-0.173 0.722,-0.168 0.161,0.005 0.053,0.037 0.059,0.053 0.077,0.054 0.152,0.054 0.599,0.125 h 0.207 l 0.147,-0.035 0.074,-0.069 0.052,-0.089 0.035,-0.093 -0.003,-0.104 -0.035,-0.096 -0.112,-0.181 -0.05,-0.101 -0.031,-0.115 -0.007,-0.129 0.01,-0.122 0.06,-0.351 0.028,-0.339 0.042,-0.238 0.028,-0.113 0.039,-0.103 0.094,-0.105 0.161,-0.091 0.506,-0.178 0.133,-0.07 0.081,-0.068 0.066,-0.078 0.053,-0.091 0.038,-0.104 0.018,-0.121 0.003,-0.273 0.018,-0.123 0.042,-0.098 0.059,-0.084 0.306,-0.278 0.675,-0.497 0.006,-0.005 0.104,0.01 0.411,0.302 0.177,0.547 -0.175,0.029 -0.281,0.127 -0.16,0.038 v 0.218 l 0.259,0.087 0.173,0.233 0.015,0.24 -0.563,0.244 0.011,0.304 0.259,0.519 0.076,0.209 0.195,0.272 0.257,0.163 0.258,-0.123 0.106,-0.351 -0.086,-0.397 -0.344,-0.729 0.184,-0.274 0.149,-0.352 0.099,-0.314 0.033,-0.143 0.668,0.802 0.298,0.523 0.127,0.505 0.044,1.027 0.094,0.35 0.171,0.027 h 0.137 l 0.061,0.193 0.077,0.172 0.186,0.304 -0.088,0.212 0.222,0.344 0.021,0.293 -0.142,0.323 -0.245,0.237 -0.32,0.121 -0.373,-0.009 v -0.237 l 0.068,-0.013 0.153,0.021 0.075,-0.008 -0.294,-0.229 -0.486,0.494 -0.454,0.603 -0.237,0.145 -0.176,0.143 -0.361,0.388 0.07,0.341 -0.272,0.223 -0.408,0.206 -0.328,0.295 0.267,-0.468 0.134,-0.387 -0.068,-0.393 -0.333,-0.493 -0.309,0.436 0.129,0.078 0.074,0.072 0.095,0.057 0.179,0.033 v 0.216 l -0.293,0.422 -0.232,0.47 -0.275,0.462 -0.447,0.387 0.057,-0.218 0.037,-0.098 0.073,-0.12 -0.493,-0.043 -0.224,0.319 0.015,0.567 0.224,0.703 v -0.134 l 0.026,-0.31 -0.026,-0.211 0.25,-0.14 0.228,-0.078 -0.147,1.204 -0.02,1.073 -0.134,0.451 -0.252,0.456 -0.135,0.469 0.21,0.489 -0.254,-0.13 -0.505,-0.505 -0.333,-0.256 0.081,-0.067 0.022,-0.013 0.064,-0.119 -0.43,0.01 -0.381,0.234 -0.206,0.384 0.079,0.462 -0.219,0.195 -0.092,0.198 0.063,0.163 0.248,0.098 -0.097,0.564 0.02,0.463 -0.094,0.339 -0.449,0.185 0.102,-0.362 -0.057,-0.439 -0.175,-0.375 -0.248,-0.155 -0.269,0.131 -0.202,0.671 -0.243,0.29 0.122,0.682 0.191,0.088 0.257,-0.182 0.298,-0.13 0.48,0.083 0.171,0.229 0.103,0.347 0.256,0.432 -0.19,0.429 0.101,0.114 0.216,0.008 0.169,0.107 0.062,0.318 -0.014,0.232 0.04,0.232 0.221,0.312 -0.236,0.235 -0.055,0.282 0.088,0.301 0.203,0.298 h -0.142 v 0.199 l 0.452,0.879 0.834,0.813 0.923,0.513 0.737,-0.014 -0.057,-0.311 0.291,-0.1 0.411,0.053 0.28,0.158 v 0.2 l -0.759,0.306 -0.142,0.291 0.285,0.522 0.154,-0.679 h 0.153 l 0.167,0.175 0.388,-0.361 0.374,-0.014 v 0.2 l -0.215,0.392 0.375,0.578 0.603,0.537 0.484,0.267 0.088,-0.458 0.176,-0.293 0.429,-0.454 0.156,0.023 0.576,0.412 0.272,0.113 -0.184,-0.414 -0.25,-0.269 -0.326,-0.149 -0.399,-0.046 -0.202,-0.212 -0.022,-0.448 -0.121,-0.395 -0.502,-0.063 v 0.239 l 0.231,-0.011 0.078,0.011 -0.01,0.028 -0.068,0.121 -0.075,0.096 -0.015,-0.045 -0.042,0.074 -0.23,-0.085 -0.245,-0.017 -0.255,0.028 0.309,-0.439 -0.153,-0.157 -0.112,-0.01 -0.092,0.133 -0.107,0.273 h -0.152 l -0.009,-0.296 -0.085,-0.15 -0.151,-0.044 -0.219,0.034 0.111,-0.292 -0.149,-0.351 -0.249,-0.414 -0.178,-0.478 0.302,0.059 0.627,0.397 0.822,0.203 0.184,0.117 0.378,0.323 2.237,0.826 3.821,1.844 3.685,2.414 0.855,0.202 1.782,0.059 0.552,0.169 0.239,0.33 0.002,0.005 z m -16.462,-7.43 0.223,0.133 0.038,0.369 -0.375,0.294 h -0.392 l -0.299,-0.505 0.092,-0.424 0.375,-0.079 z m 0.543,-0.367 0.645,-0.009 0.303,-0.062 0.287,-0.15 -0.529,0.481 -0.414,0.092 -0.392,-0.278 -0.447,-0.622 -0.546,-1.065 -0.178,-0.58 0.033,-0.197 1.238,2.39"
       style="fill:none;fill-opacity:1;fill-rule:evenodd;stroke:#591902;stroke-width:2.25000006;stroke-opacity:1;stroke-dasharray:none"
       id="path14" />
  </g>
</svg>
