<?xml version="1.0" encoding="UTF-8" standalone="no"?>
<!-- Created with Inkscape (http://www.inkscape.org/) -->

<svg
   version="1.1"
   id="svg2"
   width="359.30933"
   height="465.44919"
   viewBox="0 0 359.30933 465.44919"
   sodipodi:docname="outline - lazio.svg"
   inkscape:version="1.3.1 (91b66b0783, 2023-11-16)"
   inkscape:export-filename="outline - lazio.png"
   inkscape:export-xdpi="96"
   inkscape:export-ydpi="96"
   xmlns:inkscape="http://www.inkscape.org/namespaces/inkscape"
   xmlns:sodipodi="http://sodipodi.sourceforge.net/DTD/sodipodi-0.dtd"
   xmlns="http://www.w3.org/2000/svg"
   xmlns:svg="http://www.w3.org/2000/svg">
  <defs
     id="defs6" />
  <sodipodi:namedview
     id="namedview4"
     pagecolor="#ffffff"
     bordercolor="#000000"
     borderopacity="0.25"
     inkscape:showpageshadow="2"
     inkscape:pageopacity="0.0"
     inkscape:pagecheckerboard="0"
     inkscape:deskcolor="#d1d1d1"
     inkscape:zoom="2.4458332"
     inkscape:cx="109.36968"
     inkscape:cy="228.7564"
     inkscape:window-width="2880"
     inkscape:window-height="1514"
     inkscape:window-x="2869"
     inkscape:window-y="-11"
     inkscape:window-maximized="1"
     inkscape:current-layer="g8"
     showgrid="false" />
  <g
     id="g8"
     inkscape:groupmode="layer"
     inkscape:label="ink_ext_XXXXXX"
     transform="matrix(1.3333333,0,0,-1.3333333,-300.36666,586.08665)">
    <path
       d="m 371.065,247.618 0.082,-0.047 h 0.172 l 0.026,0.305 -0.198,-0.033 z m -13.466,28.089 -0.009,0.008 0.001,0.013 0.006,0.014 0.021,-0.001 0.002,-0.034 z m 35.147,-11.171 -0.021,0.146 0.025,0.487 -0.018,0.165 -0.042,0.121 -0.063,0.061 -0.112,0.076 -0.049,0.18 -0.042,0.291 0.007,1.036 -0.014,0.227 -0.032,0.099 -0.295,0.514 -0.074,0.19 -0.049,0.214 -0.038,0.093 -0.049,0.091 -0.056,0.077 -0.225,0.193 -0.14,0.156 -0.133,0.276 -1.217,1.07 -0.431,0.211 -0.316,-0.009 -0.357,0.103 -0.277,0.147 -0.453,0.318 -0.224,0.103 -0.155,0.028 -0.084,-0.056 -0.073,-0.064 -0.123,-0.043 -0.178,-0.017 -0.333,0.049 -0.201,0.08 -0.13,0.084 -0.063,0.087 -0.049,0.09 -0.08,0.186 -0.126,0.404 -0.06,0.125 -0.098,0.129 -0.189,0.191 -1.336,0.444 -0.204,0.031 -0.095,-0.034 -0.088,-0.049 -0.15,-0.133 -0.379,-0.455 -0.36,-0.311 -0.46,-0.244 -0.365,-0.048 -0.396,-0.003 -0.206,0.031 -0.152,0.047 -0.088,0.056 -0.077,0.07 -0.066,0.075 -0.049,0.082 -0.039,0.089 -0.031,0.1 -0.106,0.134 -0.175,0.153 -2.174,1.077 -0.119,0.017 -0.119,-0.003 -0.109,-0.016 -0.28,-0.078 -0.239,-0.039 -0.13,0.03 -0.091,0.065 -0.039,0.094 -0.024,0.108 -0.014,0.117 -0.004,0.126 0.042,0.786 0.028,0.12 0.042,0.1 0.196,0.374 0.04,0.11 0.021,0.119 0.007,0.131 -0.035,0.141 -0.11,0.142 -0.238,0.203 -0.262,0.094 -0.246,0.146 -0.311,0.416 -0.117,0.093 -0.116,0.065 -0.249,0.036 -0.35,-0.014 -4.137,2.327 -0.109,-0.029 -0.07,-0.066 -0.155,-0.05 -0.231,0.005 -0.519,0.126 -0.291,0.146 -0.176,0.118 -0.063,0.098 -0.042,0.09 -0.133,0.402 -0.021,0.099 -0.112,1.346 v 0.099 l 0.038,0.187 0.849,0.516 0.498,0.479 0.091,0.129 0.052,0.094 0.046,0.1 0.085,0.316 0.094,0.251 0.106,0.078 0.101,0.016 0.986,-0.454 0.694,-0.174 0.371,-0.205 0.411,-0.306 0.123,-0.071 0.164,-0.067 0.305,-0.077 h 0.172 l 0.126,0.036 0.175,0.163 0.134,0.091 0.091,-0.018 0.232,-0.136 0.217,-0.064 0.133,0.009 0.112,0.045 0.08,0.061 0.071,0.071 0.059,0.081 0.039,0.086 0.014,0.102 -0.032,0.089 -0.091,0.178 -0.024,0.106 0.028,0.134 0.08,0.132 0.267,0.158 0.845,0.182 0.206,0.094 0.085,0.104 -0.045,0.081 -0.085,0.06 -0.102,0.035 -0.119,0.02 -0.375,0.005 -0.241,0.05 -0.098,0.048 -0.077,0.057 -0.054,0.089 -0.035,0.099 -0.049,0.219 -0.031,0.107 -0.043,0.088 -0.056,0.07 -0.056,0.045 -0.059,0.033 -0.435,0.109 -0.095,0.048 -0.084,0.059 -0.066,0.072 -0.063,0.077 -0.266,0.544 -0.054,0.083 -0.063,0.076 -0.449,0.391 -0.063,0.078 -0.101,0.186 -0.07,0.196 -0.056,0.217 -0.067,0.469 -0.035,0.098 -0.045,0.092 -0.113,0.163 -0.141,0.139 -0.238,0.18 -0.585,0.281 -0.074,0.068 -0.056,0.113 -0.035,0.148 -0.01,0.256 0.021,0.138 0.066,0.151 0.354,0.614 0.074,0.225 v 0.158 l -0.063,0.072 -0.091,0.054 -0.421,0.16 -0.175,0.117 -0.075,0.065 -0.122,0.156 -0.091,0.181 -0.035,0.135 -0.032,0.165 -0.021,0.277 0.028,0.167 0.046,0.125 0.063,0.078 0.32,0.229 0.101,0.092 0.105,0.124 0.154,0.249 0.042,0.167 0.007,0.142 -0.045,0.196 -0.007,0.072 0.014,0.189 -0.011,0.112 -0.028,0.105 -0.049,0.088 -0.066,0.077 -0.074,0.068 -0.25,0.177 -0.08,0.085 -0.063,0.111 -0.053,0.186 0.021,0.122 0.053,0.096 0.073,0.061 0.096,0.039 0.364,0.036 0.13,0.047 0.144,0.182 0.063,0.225 0.056,0.394 0.063,0.177 0.084,0.107 0.098,0.024 0.119,-0.007 0.236,-0.047 0.315,-0.121 0.238,-0.057 0.636,-0.014 0.112,-0.026 0.203,-0.084 0.091,-0.052 0.21,-0.065 0.119,-10e-4 0.337,0.054 0.491,-0.027 0.123,0.016 0.105,0.03 0.698,0.349 0.396,1.371 0.007,0.187 -0.01,0.229 -0.067,0.068 -0.081,0.062 -0.091,0.051 -0.102,0.042 -0.246,0.059 -0.105,0.041 -0.087,0.05 -0.088,0.092 -0.091,0.12 -0.126,0.203 -0.049,0.163 -0.021,0.124 0.052,0.248 -0.585,0.968 -0.169,0.204 -0.49,0.417 -0.182,0.109 -0.148,0.048 -0.07,-0.013 -0.066,-0.03 -0.233,-0.173 -0.098,-0.038 -0.112,-0.023 -1.08,-0.03 -0.203,-0.338 -0.028,-0.114 -0.021,-0.144 0.01,-0.119 0.028,-0.107 0.067,-0.202 0.021,-0.111 0.003,-0.11 -0.028,-0.112 -0.049,-0.095 -0.252,-0.318 -0.105,-0.173 -0.091,-0.202 -0.109,-0.326 -0.045,-0.096 -0.056,-0.092 -0.06,-0.082 -0.101,-0.057 -0.137,-0.021 -0.394,0.094 -0.161,0.01 -0.143,-0.051 -0.372,-0.353 -0.116,-0.062 -0.712,-0.213 -0.147,-0.002 -0.248,0.059 -0.141,0.063 -0.2,0.125 -0.095,0.025 -0.112,-0.032 -0.112,-0.146 -0.067,-0.132 -0.091,-0.23 -0.042,-0.08 -0.056,-0.069 -0.045,-0.036 -0.256,-0.027 -1.943,0.049 -0.515,-0.59 -0.046,-0.271 0.042,-0.092 0.035,-0.096 0.025,-0.111 v -0.113 l -0.035,-0.1 -0.242,-0.161 -2.02,-0.989 -0.081,-0.091 -0.241,-0.485 -0.06,-0.079 -0.115,-0.115 -0.049,-0.038 -0.014,-0.009 -0.765,-0.123 -0.084,-0.068 -0.035,-0.136 0.013,-0.11 0.039,-0.107 0.175,-0.376 0.028,-0.102 0.004,-0.112 -0.028,-0.104 -0.039,-0.09 -0.056,-0.085 -0.207,-0.102 -0.318,-0.094 -0.751,-0.126 -0.308,0.011 -0.193,0.056 -0.313,0.51 -0.074,0.07 -0.094,0.044 -0.119,-0.016 -0.109,-0.075 -0.084,-0.193 -0.007,-0.135 0.028,-0.118 0.035,-0.1 0.025,-0.105 0.007,-0.121 -0.014,-0.122 -0.092,-0.35 -0.084,-0.199 -0.255,-0.451 -0.126,-0.149 -0.243,-0.179 -0.61,-0.35 -0.28,-0.287 -0.088,-0.026 -0.105,0.031 -0.131,0.175 -0.143,0.363 -0.144,0.068 -0.133,0.037 -0.905,-0.115 -0.186,0.078 -0.197,-0.044 -0.187,0.033 -0.173,0.124 0.218,0.417 0.106,0.133 0.139,0.112 v 0.19 l -0.103,0.077 -0.257,0.074 -0.103,0.075 -0.061,0.022 -0.18,-0.031 -0.068,0.009 -0.014,0.07 0.027,0.255 -0.013,0.072 -0.537,0.641 -1.147,0.898 -0.538,0.187 -0.415,-0.248 -0.122,0.216 -0.26,0.282 -0.08,0.127 -0.063,0.263 -0.04,0.521 -0.068,0.376 0.017,0.414 -0.042,0.128 -0.097,-0.013 -0.109,-0.043 -0.075,0.042 -0.308,0.607 0.047,0.408 -0.053,0.641 -0.105,0.59 -0.107,0.26 -0.324,0.163 -0.039,0.066 -0.345,-0.016 -1.083,0.639 -0.095,0.012 -0.077,-0.039 -0.067,-0.07 -0.164,-0.262 -0.063,-0.077 -0.075,-0.067 -0.088,-0.05 -0.108,-0.017 -0.123,0.004 -0.452,0.115 -0.115,-0.004 -0.66,-0.149 -0.69,-0.296 -0.088,-0.019 -0.105,0.005 -0.119,0.088 -0.548,0.636 -0.227,0.19 -0.587,0.282 -0.119,0.087 -0.126,0.13 -0.417,0.532 -0.042,0.106 -0.01,0.124 0.059,0.184 0.07,0.101 0.088,0.085 0.165,0.109 0.266,0.133 0.155,0.126 0.066,0.082 0.053,0.09 0.046,0.093 0.038,0.098 0.032,0.106 -0.011,0.132 -0.07,0.146 -0.218,0.185 -0.284,0.16 -0.34,0.454 -0.996,1.819 -1.094,-0.448 -0.179,-0.098 -0.557,-0.59 -0.162,-0.069 -0.114,0.008 -0.159,0.153 -0.112,0.08 -0.207,0.061 -0.123,-0.018 -0.101,-0.05 -0.273,-0.31 -0.049,-0.071 -0.074,-0.241 0.603,-0.547 0.084,-0.117 0.101,-0.167 0.084,-0.358 0.095,-0.137 0.124,-0.122 0.192,-0.143 0.07,-0.125 0.018,-0.127 -0.028,-0.114 -0.081,-0.206 -0.099,-0.186 -0.063,-0.076 -0.084,-0.057 -0.074,-0.2 -0.049,-0.326 0.07,-0.896 -0.021,-0.37 -0.045,-0.237 -0.088,-0.051 -0.098,-0.035 -0.35,-0.052 -0.091,-0.033 -0.07,-0.035 -0.049,-0.037 -0.056,-0.067 -0.046,-0.082 -0.187,-0.452 -0.066,-0.127 -0.067,-0.103 -0.143,-0.142 -0.169,-0.103 -0.409,-0.128 -0.106,-0.068 -0.108,-0.105 -0.289,-0.452 -0.063,-0.079 -0.073,-0.065 -0.088,-0.054 -1.143,-0.516 -0.088,-0.014 -0.073,0.04 -0.172,0.227 -0.105,0.033 -0.129,-0.008 -0.165,-0.095 -0.07,-0.105 -0.014,-0.119 0.017,-0.109 0.032,-0.109 0.021,-0.13 0.007,-0.14 -0.053,-0.212 -0.337,-0.339 -0.084,-0.139 -0.021,-0.126 0.049,-0.084 0.07,-0.072 0.635,-0.497 0.133,-0.143 0.06,-0.083 0.038,-0.158 v -0.23 l -0.052,-0.456 -0.056,-0.222 -0.067,-0.153 -0.073,-0.069 -0.092,-0.054 -0.098,-0.042 -2.079,-0.241 -0.116,-0.041 -0.133,-0.068 -0.189,-0.141 -0.091,-0.115 -0.063,-0.107 -0.46,-1.342 -0.002,-0.006 0.853,-0.457 1.126,-0.32 2.692,-2.115 0.54,-0.828 1.221,-2.53 0.153,-0.504 0.061,-0.475 0.103,-0.265 0.493,-0.657 0.176,-0.417 0.313,-0.244 0.357,-0.549 0.286,-0.594 0.122,-0.382 0.276,0.069 1.743,0.045 0.401,-0.195 0.408,-0.279 0.37,-0.329 0.298,-0.354 0.222,-0.104 0.64,-0.098 0.131,-0.22 0.082,-0.392 0.204,-0.233 0.252,-0.151 2.203,-1.715 0.513,-0.722 0.552,-0.974 0.263,-0.605 0.112,-0.586 0.013,-0.616 0.077,-0.585 0.188,-0.527 0.351,-0.435 0.179,-0.077 0.671,-0.129 0.189,-0.067 0.353,-0.295 0.6,-0.183 0.353,-0.273 2.378,-2.155 2.204,-2.607 1.668,-2.554 0.359,-0.35 0.162,0.322 0.261,0.223 0.555,-0.231 1.582,-1.027 0.325,-0.071 1.777,-0.089 0.465,-0.147 0.71,-0.426 0.684,-0.586 1.257,-1.462 0.298,-0.461 0.436,-0.872 0.265,-0.387 0.221,-0.5 0.075,-0.493 0.177,-0.386 0.533,-0.173 0.504,0.144 0.542,0.728 0.83,0.279 0.809,0.533 0.402,0.172 1.83,0.358 0.872,-0.026 3.521,-1.667 0.44,-0.521 h 0.167 l 0.166,0.237 0.116,-0.135 0.128,-0.292 0.208,-0.219 0.215,-0.044 0.712,0.044 -0.267,0.895 0.695,0.453 1.405,0.193 0.153,-0.266 0.347,-0.004 0.674,0.175 0.301,-0.12 0.493,-0.443 0.407,0.26 0.207,0.088 0.77,0.135 0.116,0.089 0.056,0.108 -0.011,0.132 0.021,0.142 0.102,0.215 0.113,0.118 0.179,0.102 0.161,0.067 0.207,0.054 0.185,0.138 0.112,0.102 0.074,0.099 0.053,0.093 0.035,0.094 0.021,0.112 -0.007,0.367 0.112,0.415 -0.07,0.681 0.119,0.705 0.019,0.206 -0.005,0.153 -0.07,0.2 -0.284,0.569 0.011,0.114 0.045,0.089 0.084,0.051 0.534,0.168 0.164,0.076 0.288,0.197 0.045,0.036 0.604,0.625 0.151,0.111 0.175,0.07 0.206,0.008 0.457,0.475 0.016,0.107 0.005,0.134 -0.054,0.097 -0.031,0.121 0.038,0.077 0.558,0.452 0.084,0.158 0.018,0.129 z m -13.322,-22.022 -0.096,-0.289 0.276,0.147 0.114,0.316 -0.177,-0.036 z m -12.634,4.553 -0.074,0.047 -0.098,-0.06 0.043,-0.096 -0.074,-0.102 -0.029,-0.218 -0.026,-0.168 0.026,-0.071 0.261,0.145 -0.029,0.236 z m 2.744,-0.32 -0.123,-0.066 -0.107,-0.076 -0.082,-0.028 -0.036,-0.047 -0.005,-0.097 -0.041,-0.047 -0.233,-0.11 -0.129,-0.115 -0.15,-0.537 0.139,-0.129 0.039,-0.137 -0.022,-0.156 0.068,-0.123 0.143,0.016 0.137,0.197 0.049,0.127 v 0.076 l -0.067,0.074 -0.056,0.157 0.177,0.482 0.266,0.262 0.25,0.142 -0.047,0.102 z"
       style="fill:#ffffff;stroke:#a67d03;stroke-width:1.12500003;stroke-linecap:round;stroke-linejoin:round;stroke-miterlimit:4;stroke-dasharray:none;stroke-opacity:1;fill-opacity:1"
       id="path56" />
  </g>
</svg>
