<?xml version="1.0" encoding="UTF-8" standalone="no"?>
<!-- Created with Inkscape (http://www.inkscape.org/) -->

<svg
   version="1.1"
   id="svg2"
   width="359.30933"
   height="465.44919"
   viewBox="0 0 359.30933 465.44919"
   sodipodi:docname="outline - le marche.svg"
   inkscape:version="1.3.1 (91b66b0783, 2023-11-16)"
   inkscape:export-filename="outline - le marche.png"
   inkscape:export-xdpi="96"
   inkscape:export-ydpi="96"
   xmlns:inkscape="http://www.inkscape.org/namespaces/inkscape"
   xmlns:sodipodi="http://sodipodi.sourceforge.net/DTD/sodipodi-0.dtd"
   xmlns="http://www.w3.org/2000/svg"
   xmlns:svg="http://www.w3.org/2000/svg">
  <defs
     id="defs6" />
  <sodipodi:namedview
     id="namedview4"
     pagecolor="#ffffff"
     bordercolor="#000000"
     borderopacity="0.25"
     inkscape:showpageshadow="2"
     inkscape:pageopacity="0.0"
     inkscape:pagecheckerboard="0"
     inkscape:deskcolor="#d1d1d1"
     inkscape:zoom="9.7833331"
     inkscape:cx="188.17718"
     inkscape:cy="198.34753"
     inkscape:window-width="2880"
     inkscape:window-height="1514"
     inkscape:window-x="2869"
     inkscape:window-y="-11"
     inkscape:window-maximized="1"
     inkscape:current-layer="g8" />
  <g
     id="g8"
     inkscape:groupmode="layer"
     inkscape:label="ink_ext_XXXXXX"
     transform="matrix(1.3333333,0,0,-1.3333333,-300.36666,586.08665)">
    <path
       d="m 389.512,309.406 -0.379,2.6 -0.313,1.096 -0.724,1.572 -0.27,0.428 -0.094,0.263 -0.144,1.109 -0.095,0.219 -0.357,0.623 -3.238,8.289 0.171,0.493 -0.203,0.414 -0.399,0.28 -0.43,0.105 -0.219,0.23 -0.257,0.511 -0.329,0.512 -0.431,0.232 -0.071,0.063 -0.044,0.139 -0.067,0.142 -0.132,0.062 -0.133,-0.03 -0.071,-0.067 -0.05,-0.066 -0.062,-0.03 -0.125,-0.122 -0.171,-0.228 -0.221,-0.132 -0.605,0.364 -1.061,0.371 -0.223,0.278 -0.445,0.183 -2.64,1.641 -6.915,6.064 -0.195,0.219 -0.22,0.35 -1.508,0.611 -0.885,0.725 -0.43,0.26 -1.081,0.156 -0.052,0.017 -0.004,-0.035 -0.084,-0.315 -0.242,-0.704 -0.046,-0.245 -0.011,-0.136 -0.003,-0.126 0.014,-0.122 0.025,-0.111 0.073,-0.203 0.021,-0.108 -0.01,-0.113 -0.028,-0.113 -0.225,-0.496 -0.059,-0.089 -0.07,-0.074 -0.084,-0.067 -0.47,-0.225 -0.085,-0.058 -0.072,-0.078 -0.061,-0.087 -0.049,-0.092 -0.088,-0.208 -0.052,-0.095 -0.06,-0.081 -0.112,-0.052 -0.147,-0.025 h -0.8 l -0.137,0.034 -0.122,0.092 -0.13,0.212 -0.056,0.152 -0.126,0.457 -0.098,0.191 -0.175,0.265 -0.098,0.184 -0.081,0.064 -0.103,0.024 -0.178,-0.082 -0.084,-0.105 -0.06,-0.119 -0.038,-0.11 -0.046,-0.098 -0.06,-0.088 -0.077,-0.059 -0.094,0.006 -0.095,0.086 -0.073,0.222 -0.007,0.158 0.01,0.146 v 0.119 l -0.123,0.153 -0.112,0.108 -0.922,0.516 -0.304,0.179 -0.021,-0.04 -0.058,-0.066 -0.035,-0.081 -0.012,-0.099 0.018,-0.094 -0.403,-0.681 -0.701,-0.1 -0.675,0.349 -0.315,0.666 0.226,0.747 0.348,0.352 -0.477,0.203 -0.123,0.021 -0.248,0.003 -0.898,-0.236 -0.127,-0.007 -0.192,-0.08 -0.242,-0.142 -0.463,-0.348 -0.985,-0.588 -0.162,-0.036 -0.144,0.002 -0.115,0.032 -0.765,0.013 -0.116,0.031 -0.284,0.129 -0.094,0.026 -0.06,0.006 -0.084,-0.012 -0.056,-0.073 -0.031,-0.12 -0.004,-0.29 0.056,-0.449 -0.007,-0.133 -0.42,-1.926 -0.119,-0.328 -0.408,-0.544 -0.143,-0.333 -0.267,-1.085 0.281,0.116 0.241,0.043 0.13,-0.003 0.236,-0.048 0.213,-0.094 0.165,-0.124 0.294,-0.277 0.091,-0.064 0.109,-0.039 0.116,-0.014 0.105,0.022 0.084,0.056 0.068,0.075 0.227,0.346 0.07,0.069 0.091,0.058 0.102,0.035 0.119,0.009 0.481,-0.091 0.115,0.01 0.099,0.037 0.217,0.216 0.095,0.047 0.112,0.012 0.115,-0.016 0.105,-0.037 0.186,-0.104 0.327,-0.253 1.177,-1.123 -0.007,-0.143 -0.066,-0.214 -0.319,-0.449 -0.14,-0.236 -0.126,-0.147 -0.085,-0.03 -0.133,0.07 -0.07,0.092 -0.049,0.111 -0.084,0.993 -0.031,0.106 -0.051,0.074 -0.098,-0.03 -0.112,-0.153 -0.157,-0.401 -0.113,-0.424 -0.059,-0.132 -0.105,-0.112 -0.217,-0.117 -0.411,-0.109 -0.122,-0.102 -0.4,-0.432 -0.162,-0.126 -0.14,-0.087 -0.311,-0.106 -0.088,-0.051 -0.036,-0.152 -0.017,-0.135 0.256,-0.85 0.091,-0.185 0.095,-0.057 0.238,-0.032 h 0.287 l 0.201,-0.049 0.343,-0.13 0.438,-0.284 0.14,-0.047 0.169,0.04 0.084,0.089 0.087,0.217 0.054,0.085 0.081,0.067 0.087,0.053 0.904,0.336 0.095,0.015 0.087,-0.037 0.04,-0.146 -0.005,-0.132 -0.035,-0.12 -0.087,-0.202 -0.032,-0.101 v -0.107 l 0.07,-0.188 0.014,-0.106 -0.016,-0.11 -0.033,-0.106 -0.046,-0.099 -0.052,-0.09 -0.067,-0.08 -0.084,-0.058 -0.098,-0.037 -0.119,-0.007 -0.354,0.076 -0.112,0.008 -0.094,-0.034 -0.067,-0.07 -0.04,-0.094 v -0.108 l 0.037,-0.099 0.056,-0.083 0.073,-0.067 0.172,-0.116 1.399,-0.671 0.241,-0.069 0.242,0.053 0.126,0.069 0.102,0.084 0.127,0.163 0.081,0.061 0.091,0.045 0.115,0.024 0.246,-0.058 1.034,-0.453 0.501,-0.294 2.129,-2.548 0.095,-0.046 0.115,0.01 0.203,0.158 0.2,0.217 0.067,0.053 0.087,0.019 0.138,0.008 0.266,-0.045 0.298,-0.095 0.27,-0.163 0.098,-0.021 0.115,0.027 0.116,0.145 0.201,0.306 0.066,0.075 0.105,0.083 0.438,0.217 0.59,0.009 0.007,-0.517 -0.028,-0.117 -0.071,-0.406 -0.007,-0.251 0.007,-0.128 -0.021,-0.267 -0.147,-0.735 -0.004,-0.132 0.06,-0.188 0.112,-0.237 0.786,-1.27 0.052,-0.136 0.049,-0.168 0.056,-0.465 -0.031,-0.407 0.028,-0.235 0.136,-0.285 1.112,-1.87 0.116,-0.527 0.028,-0.236 0.003,-0.13 -0.014,-0.131 -0.024,-0.115 -0.035,-0.112 -0.046,-0.104 -0.052,-0.097 -0.13,-0.164 -0.14,-0.141 -0.056,-0.074 -0.035,-0.093 v -0.107 l 0.08,-0.322 0.063,-0.095 0.105,-0.074 0.347,-0.051 0.17,-0.111 0.168,-0.185 0.287,-0.434 0.112,-0.24 0.056,-0.199 -0.017,-0.272 -0.067,-0.531 -0.014,-0.269 0.028,-0.368 0.112,-0.37 0.011,-0.066 0.007,-0.108 -0.007,-0.119 -0.039,-0.248 -0.003,-0.121 0.017,-0.099 0.039,-0.101 0.098,-0.186 0.035,-0.107 0.01,-0.123 0.004,-0.26 0.052,-0.221 0.137,-0.25 0.376,-0.494 0.14,-0.14 0.585,-0.415 0.063,-0.077 0.049,-0.093 0.028,-0.108 0.018,-0.114 0.007,-0.126 -0.007,-0.522 0.01,-0.113 0.063,-0.095 0.107,-0.044 0.217,0.072 0.091,0.099 0.035,0.114 -0.028,0.104 -0.081,0.196 -0.024,0.102 0.007,0.102 0.049,0.084 0.143,0.046 0.652,-0.033 0.197,0.033 0.137,0.047 0.102,0.02 0.129,-0.046 0.168,-0.166 0.302,-0.367 0.48,-0.369 0.214,-0.215 0.109,-0.158 0.725,-0.826 0.105,-0.165 0.042,-0.096 0.028,-0.099 0.042,-0.232 0.033,-0.106 0.049,-0.096 0.368,0.028 1.301,0.711 0.157,-0.069 0.064,-0.05 0.066,-0.076 0.056,-0.085 0.172,-0.37 0.14,-0.41 0.054,-0.213 0.014,-0.114 0.002,-0.144 -0.007,-0.168 -0.13,-0.659 -0.031,-0.093 -0.091,-0.091 -0.147,-0.1 -0.277,-0.093 -0.158,-0.008 -0.133,0.029 -0.098,0.041 -0.124,-0.022 -0.093,-0.118 -0.11,-0.211 v -0.444 l 1.08,0.03 0.112,0.023 0.098,0.038 0.233,0.173 0.066,0.03 0.07,0.013 0.148,-0.048 0.182,-0.109 0.49,-0.417 0.169,-0.204 0.585,-0.968 1.673,0.229 0.189,0.079 0.222,0.124 0.038,0.259 0.035,0.157 0.07,0.176 0.172,0.236 0.186,0.115 0.22,0.084 0.368,0.089 0.166,0.082 0.109,0.1 0.035,0.109 0.028,0.124 0.031,0.261 0.032,0.121 0.045,0.1 0.056,0.091 0.189,0.24 0.056,0.085 0.246,0.525 0.192,0.287 0.135,0.113 0.136,0.046 0.098,-0.037 0.088,-0.06 0.147,-0.133 0.084,-0.053 0.098,-0.036 0.123,-0.003 0.15,0.03 0.622,0.233 0.143,0.028 0.112,-0.019 0.204,-0.076 0.115,-0.025 0.172,-0.008 0.614,0.122 0.378,0.171 0.155,0.134 0.063,0.077 0.059,0.087 0.046,0.108 0.017,0.113 0.025,0.282 0.049,0.137 0.087,0.155 0.201,0.229 0.144,0.09 0.136,0.047 0.337,-0.023 0.467,0.149 1.273,0.568 1.616,0.399 0.383,0.044 z"
       style="fill:none;stroke:#593b02;stroke-width:2.25000006;stroke-linecap:round;stroke-linejoin:round;stroke-miterlimit:4;stroke-dasharray:none;stroke-opacity:1"
       id="path48" />
  </g>
</svg>
