<?xml version="1.0" encoding="UTF-8" standalone="no"?>
<!-- Created with Inkscape (http://www.inkscape.org/) -->

<svg
   version="1.1"
   id="svg2"
   width="359.30933"
   height="465.44919"
   viewBox="0 0 359.30933 465.44919"
   sodipodi:docname="outline - trentino.svg"
   inkscape:version="1.3.1 (91b66b0783, 2023-11-16)"
   inkscape:export-filename="outline - trentino.png"
   inkscape:export-xdpi="96"
   inkscape:export-ydpi="96"
   xmlns:inkscape="http://www.inkscape.org/namespaces/inkscape"
   xmlns:sodipodi="http://sodipodi.sourceforge.net/DTD/sodipodi-0.dtd"
   xmlns="http://www.w3.org/2000/svg"
   xmlns:svg="http://www.w3.org/2000/svg">
  <defs
     id="defs6" />
  <sodipodi:namedview
     id="namedview4"
     pagecolor="#ffffff"
     bordercolor="#000000"
     borderopacity="0.25"
     inkscape:showpageshadow="2"
     inkscape:pageopacity="0.0"
     inkscape:pagecheckerboard="0"
     inkscape:deskcolor="#d1d1d1"
     inkscape:zoom="4.8916666"
     inkscape:cx="136.35435"
     inkscape:cy="51.209541"
     inkscape:window-width="2880"
     inkscape:window-height="1514"
     inkscape:window-x="2869"
     inkscape:window-y="-11"
     inkscape:window-maximized="1"
     inkscape:current-layer="g8" />
  <g
     id="g8"
     inkscape:groupmode="layer"
     inkscape:label="ink_ext_XXXXXX"
     transform="matrix(1.3333333,0,0,-1.3333333,-300.36666,586.08665)">
    <path
       d="m 357.43,426.046 -0.918,0.375 -0.782,0.69 -0.428,1.055 -0.198,0.719 -0.376,0.242 -0.47,0.065 -0.472,0.182 -0.217,0.153 -0.128,0.129 -0.054,0.222 0.005,0.425 0.06,0.381 0.085,0.228 0.063,0.238 -0.007,0.405 -0.208,0.72 -0.358,0.246 -0.95,0.033 -0.308,0.114 -0.138,0.16 -0.124,0.207 -0.257,0.263 -0.252,0.127 -0.533,0.095 -0.238,0.097 0.332,0.329 0.002,0.301 -0.156,0.312 -0.147,0.368 -0.138,0.761 -0.098,0.377 -0.15,0.327 0.238,0.579 1.369,0.763 0.481,0.652 0.007,0.452 0.007,0.419 -0.532,0.183 -1.073,-0.211 -0.382,-0.075 -2.289,-1.193 -1.611,-0.077 -0.998,-0.345 -0.96,-0.519 -0.78,-0.619 -1.025,-0.164 -0.25,-0.16 -0.443,-0.363 -0.262,-0.06 -0.423,0.16 -0.731,0.543 -0.429,0.044 -0.171,-0.024 -0.17,0.015 -0.028,0.009 h -0.012 l -1.163,0.237 -0.537,-0.05 -0.657,-0.192 h -0.002 l -0.005,-0.004 h -0.002 l -0.212,-0.114 -0.213,-0.039 -0.205,0.037 -0.19,0.116 -0.119,0.161 -0.131,0.124 -0.147,0.086 -0.397,0.094 -0.226,-0.052 -0.201,-0.152 -0.173,-0.257 -0.002,-0.004 -0.769,-0.742 -0.691,0.035 -0.703,0.342 -0.806,0.176 -1.583,-0.264 -1.565,-0.509 -0.404,-0.242 -1.462,-1.453 -0.187,-0.406 -0.238,-1.159 -0.425,-1.015 -0.019,-0.125 0.026,-0.342 -0.04,-0.165 -0.098,-0.107 -0.249,-0.113 -0.094,-0.088 -0.507,-0.867 -0.315,-0.332 -0.322,-0.045 -0.383,0.128 -0.787,0.077 -0.388,-0.054 -0.754,-0.255 -0.225,-0.017 -0.231,0.096 -0.385,0.331 -0.203,0.105 -0.231,0.003 -0.43,-0.122 -0.222,0.009 -0.649,0.368 -0.262,0.088 -0.476,-0.15 -0.243,0.008 -0.136,0.288 0.105,0.162 0.503,0.408 0.109,0.228 -0.219,0.332 -1.728,1.035 -0.348,0.091 -0.4,-0.044 -2.298,-0.632 -0.936,0.104 -0.734,0.595 -0.119,-1.06 -0.081,-0.296 -0.134,-0.21 -0.492,-0.593 0.042,-0.49 0.161,-0.478 0.056,-0.453 -0.273,-0.415 -0.383,-0.245 -0.091,-0.301 0.021,-0.374 -0.049,-0.466 -0.218,-0.388 -0.245,-0.233 -0.107,-0.312 0.189,-0.627 0.409,-0.475 0.962,-0.103 0.471,-0.397 0.171,-0.632 -0.016,-0.846 -0.18,-0.811 -0.138,-0.229 0.13,-0.134 0.234,-0.782 0.102,-0.197 0.224,-0.367 0.137,-0.135 0.122,-0.095 1.073,-0.164 0.632,-0.28 1.072,-0.681 0.18,-0.183 0.067,-0.222 0.056,-0.246 0.192,-0.95 0.014,-0.393 -0.031,-0.137 -0.046,-0.131 -0.08,-0.147 -0.074,-0.108 -0.229,-0.25 -0.164,-0.126 -0.095,-0.055 -0.21,-0.08 -0.259,-0.031 -0.527,0.031 -0.116,-0.021 -0.143,-0.077 -0.396,-0.361 -0.147,-0.347 0.884,-0.672 0.241,-0.304 0.035,-0.116 0.032,-0.25 -0.004,-0.132 -0.021,-0.132 -0.031,-0.123 0.003,-0.237 0.042,-0.323 0.179,-0.706 0.042,-0.334 0.007,-0.232 -0.326,-0.889 -0.192,-0.408 -0.042,-0.162 -0.033,-0.211 0.003,-0.827 -0.126,-1.254 -0.038,-0.182 -0.049,-0.099 -0.06,-0.088 -0.672,-0.67 -0.162,-0.131 -0.098,-0.201 -0.113,-0.305 -0.154,-0.742 -0.098,-0.328 -0.088,-0.212 -0.283,-0.171 -0.109,-0.123 -0.109,-0.196 -0.147,-0.429 -0.052,-0.243 -0.014,-0.196 0.028,-0.111 0.056,-0.094 0.07,-0.078 0.091,-0.06 0.108,-0.044 0.47,-0.122 0.07,-0.054 0.031,-0.08 0.025,-0.139 0.021,-0.43 0.021,-0.149 0.028,-0.118 0.039,-0.112 0.042,-0.102 0.19,-0.323 0.074,-0.195 0.007,-0.147 -0.032,-0.126 -0.144,-0.322 -0.099,-0.323 -0.017,-0.199 0.007,-0.154 0.137,-0.373 0.218,-0.795 0.066,-0.155 0.063,-0.079 0.088,-0.06 0.378,-0.088 0.116,-0.058 0.105,-0.107 0.014,-0.153 -0.077,-0.404 0.031,-0.131 0.074,-0.089 0.197,-0.103 0.217,-0.079 0.123,-0.016 0.112,0.009 0.105,0.037 0.091,0.054 0.302,0.297 0.094,0.048 0.117,0.027 0.546,-0.032 0.253,0.027 0.108,0.035 0.095,0.056 0.07,0.081 0.056,0.096 0.035,0.109 0.017,0.12 0.022,0.261 0.028,0.118 0.039,0.111 0.06,0.091 0.073,0.07 0.098,0.034 0.365,-0.032 0.122,0.018 0.445,0.129 0.121,0.012 0.122,-0.018 0.109,-0.039 0.291,-0.157 0.108,-0.028 0.126,-0.002 0.727,0.128 0.206,-0.005 0.084,-0.015 0.323,-0.121 0.411,-0.232 0.896,-0.553 0.092,-0.132 0.119,-0.219 0.035,-0.207 0.092,-0.312 0.016,-0.192 -0.03,-0.135 -0.061,-0.086 -0.294,-0.308 -0.053,-0.092 -0.049,-0.111 -0.031,-0.114 -0.025,-0.106 -0.01,-0.125 v -0.014 l -0.112,-0.625 -0.011,-0.285 0.049,-0.136 0.095,-0.065 0.231,0.036 0.161,-0.088 0.196,-0.189 0.32,-0.511 0.182,-0.215 0.155,-0.127 0.119,-0.008 0.108,0.027 0.088,0.06 0.07,0.077 0.124,0.176 0.077,0.063 0.105,0.03 0.378,-0.105 0.098,0.029 0.084,0.05 0.077,0.071 0.067,0.081 0.298,0.448 0.103,0.056 0.133,0.017 0.255,-0.089 0.176,-0.038 0.154,-0.01 0.227,0.057 0.116,0.013 0.123,-0.016 1.115,-0.397 0.4,-0.022 0.389,0.353 0.835,1.426 0.014,0.11 0.007,0.116 -0.063,0.379 -0.012,0.16 0.047,0.102 0.095,0.071 0.241,0.145 0.056,0.096 0.011,0.114 -0.067,0.245 -0.014,0.165 0.039,0.111 1.301,2.36 0.175,0.417 0.108,0.396 0.088,0.192 0.095,0.129 0.357,0.227 0.285,0.31 0.08,0.07 0.091,0.053 0.102,0.012 0.091,-0.038 0.063,-0.073 0.049,-0.091 0.06,-0.084 0.073,-0.075 0.165,-0.136 0.106,-0.058 0.112,-0.037 0.179,0.048 0.109,0.134 0.15,0.263 0.13,0.156 0.154,0.157 0.039,0.12 -0.014,0.107 -0.084,0.205 -0.018,0.142 0.003,0.162 0.081,0.251 0.095,0.116 0.115,0.07 0.513,0.057 0.571,0.156 1.027,0.72 0.204,0.084 1.038,0.115 0.28,-0.005 0.13,-0.02 0.115,-0.035 0.095,-0.053 0.084,-0.061 0.152,-0.144 0.119,-0.179 0.01,-0.022 0.14,-0.415 0.053,-0.096 0.067,-0.083 0.073,-0.072 0.091,-0.051 0.231,-0.073 0.545,-0.054 0.364,0.049 0.7,0.288 -0.091,0.653 0.084,0.836 0.068,0.244 0.084,0.157 0.193,0.18 0.112,0.17 0.028,0.139 -0.01,0.131 -0.092,0.255 -0.031,0.2 -0.025,0.368 0.084,0.263 0.095,0.136 0.119,0.055 0.723,0.138 1.259,0.011 0.245,0.041 0.224,0.067 0.449,0.295 0.989,0.331 0.276,0.144 0.13,0.127 0.084,0.118 0.095,0.207 0.495,0.722 0.154,0.171 0.137,0.11 0.287,0.121 0.218,0.129 0.077,0.133 0.014,0.126 -0.042,0.105 -0.067,0.082 -0.081,0.07 -0.683,0.381 -0.165,0.151 -0.063,0.081 -0.049,0.095 -0.014,0.164 0.018,0.196 0.154,0.547 -0.018,0.022 -0.045,0.059 -0.088,0.046 -0.221,0.085 -0.095,0.062 -0.063,0.08 -0.088,0.203 -0.067,0.085 -0.094,0.052 -0.119,0.026 -0.536,-0.018 -0.126,0.012 -0.11,0.039 -0.074,0.11 -0.035,0.177 0.035,0.545 -0.007,0.171 -0.042,0.11 -0.049,0.096 -0.115,0.172 -0.834,0.952 -0.061,0.115 -0.044,0.143 -0.028,0.209 0.037,0.13 0.075,0.086 0.431,0.308 0.101,0.048 0.372,0.038 0.119,0.089 0.049,0.114 0.124,0.978 0.056,0.24 0.059,0.172 0.06,0.092 0.07,0.081 0.157,0.133 0.2,0.139 0.119,0.101 0.14,0.204 0.039,0.155 -0.004,0.134 -0.042,0.108 -0.056,0.09 -0.066,0.081 -0.168,0.13 -0.225,0.1 -0.624,0.131 -0.203,0.176 -0.046,0.661 0.445,0.332 3.478,0.696 0.366,0.13 0.07,0.078 0.063,0.088 0.053,0.099 0.045,0.107 0.035,0.128 0.056,0.408 0.049,0.137 0.07,0.128 0.298,0.378 0.207,0.423 0.164,0.441 0.135,0.493 0.042,0.268 0.03,0.444 0.028,0.164 0.061,0.169 0.122,0.223 0.113,0.048 0.101,-0.015 0.891,-0.772 0.196,-0.105 0.508,-0.089 0.105,-0.046 0.081,-0.071 0.502,-0.833 0.035,-0.107 0.056,-0.253 0.088,-0.114 0.133,0.037 0.525,0.322 0.359,0.162 1.115,0.124 0.245,0.086 0.207,0.107 0.245,0.181 0.168,0.07 0.158,0.017 0.105,-0.043 0.091,-0.062 0.077,-0.075 0.117,-0.076 0.144,-0.058 0.252,-0.032 0.14,0.042 0.084,0.078 0.021,0.116 -0.028,0.232 0.046,0.122 0.115,0.118 0.436,0.233 0.119,0.086 0.07,0.081 0.119,0.187 0.28,0.256 0.567,0.341 -0.542,0.095"
       style="fill:#ffffff;fill-opacity:1;fill-rule:evenodd;stroke:none;stroke-width:0.1"
       id="path26" />
    <path
       d="m 357.43,426.046 -0.918,0.375 -0.782,0.69 -0.428,1.055 -0.198,0.719 -0.376,0.242 -0.47,0.065 -0.472,0.182 -0.217,0.153 -0.128,0.129 -0.054,0.222 0.005,0.425 0.06,0.381 0.085,0.228 0.063,0.238 -0.007,0.405 -0.208,0.72 -0.358,0.246 -0.95,0.033 -0.308,0.114 -0.138,0.16 -0.124,0.207 -0.257,0.263 -0.252,0.127 -0.533,0.095 -0.238,0.097 0.332,0.329 0.002,0.301 -0.156,0.312 -0.147,0.368 -0.138,0.761 -0.098,0.377 -0.15,0.327 0.238,0.579 1.369,0.763 0.481,0.652 0.007,0.452 0.007,0.419 -0.532,0.183 -1.073,-0.211 -0.382,-0.075 -2.289,-1.193 -1.611,-0.077 -0.998,-0.345 -0.96,-0.519 -0.78,-0.619 -1.025,-0.164 -0.25,-0.16 -0.443,-0.363 -0.262,-0.06 -0.423,0.16 -0.731,0.543 -0.429,0.044 -0.171,-0.024 -0.17,0.015 -0.028,0.009 h -0.012 l -1.163,0.237 -0.537,-0.05 -0.657,-0.192 h -0.002 l -0.005,-0.004 h -0.002 l -0.212,-0.114 -0.213,-0.039 -0.205,0.037 -0.19,0.116 -0.119,0.161 -0.131,0.124 -0.147,0.086 -0.397,0.094 -0.226,-0.052 -0.201,-0.152 -0.173,-0.257 -0.002,-0.004 -0.769,-0.742 -0.691,0.035 -0.703,0.342 -0.806,0.176 -1.583,-0.264 -1.565,-0.509 -0.404,-0.242 -1.462,-1.453 -0.187,-0.406 -0.238,-1.159 -0.425,-1.015 -0.019,-0.125 0.026,-0.342 -0.04,-0.165 -0.098,-0.107 -0.249,-0.113 -0.094,-0.088 -0.507,-0.867 -0.315,-0.332 -0.322,-0.045 -0.383,0.128 -0.787,0.077 -0.388,-0.054 -0.754,-0.255 -0.225,-0.017 -0.231,0.096 -0.385,0.331 -0.203,0.105 -0.231,0.003 -0.43,-0.122 -0.222,0.009 -0.649,0.368 -0.262,0.088 -0.476,-0.15 -0.243,0.008 -0.136,0.288 0.105,0.162 0.503,0.408 0.109,0.228 -0.219,0.332 -1.728,1.035 -0.348,0.091 -0.4,-0.044 -2.298,-0.632 -0.936,0.104 -0.734,0.595 -0.119,-1.06 -0.081,-0.296 -0.134,-0.21 -0.492,-0.593 0.042,-0.49 0.161,-0.478 0.056,-0.453 -0.273,-0.415 -0.383,-0.245 -0.091,-0.301 0.021,-0.374 -0.049,-0.466 -0.218,-0.388 -0.245,-0.233 -0.107,-0.312 0.189,-0.627 0.409,-0.475 0.962,-0.103 0.471,-0.397 0.171,-0.632 -0.016,-0.846 -0.18,-0.811 -0.138,-0.229 0.13,-0.134 0.234,-0.782 0.102,-0.197 0.224,-0.367 0.137,-0.135 0.122,-0.095 1.073,-0.164 0.632,-0.28 1.072,-0.681 0.18,-0.183 0.067,-0.222 0.056,-0.246 0.192,-0.95 0.014,-0.393 -0.031,-0.137 -0.046,-0.131 -0.08,-0.147 -0.074,-0.108 -0.229,-0.25 -0.164,-0.126 -0.095,-0.055 -0.21,-0.08 -0.259,-0.031 -0.527,0.031 -0.116,-0.021 -0.143,-0.077 -0.396,-0.361 -0.147,-0.347 0.884,-0.672 0.241,-0.304 0.035,-0.116 0.032,-0.25 -0.004,-0.132 -0.021,-0.132 -0.031,-0.123 0.003,-0.237 0.042,-0.323 0.179,-0.706 0.042,-0.334 0.007,-0.232 -0.326,-0.889 -0.192,-0.408 -0.042,-0.162 -0.033,-0.211 0.003,-0.827 -0.126,-1.254 -0.038,-0.182 -0.049,-0.099 -0.06,-0.088 -0.672,-0.67 -0.162,-0.131 -0.098,-0.201 -0.113,-0.305 -0.154,-0.742 -0.098,-0.328 -0.088,-0.212 -0.283,-0.171 -0.109,-0.123 -0.109,-0.196 -0.147,-0.429 -0.052,-0.243 -0.014,-0.196 0.028,-0.111 0.056,-0.094 0.07,-0.078 0.091,-0.06 0.108,-0.044 0.47,-0.122 0.07,-0.054 0.031,-0.08 0.025,-0.139 0.021,-0.43 0.021,-0.149 0.028,-0.118 0.039,-0.112 0.042,-0.102 0.19,-0.323 0.074,-0.195 0.007,-0.147 -0.032,-0.126 -0.144,-0.322 -0.099,-0.323 -0.017,-0.199 0.007,-0.154 0.137,-0.373 0.218,-0.795 0.066,-0.155 0.063,-0.079 0.088,-0.06 0.378,-0.088 0.116,-0.058 0.105,-0.107 0.014,-0.153 -0.077,-0.404 0.031,-0.131 0.074,-0.089 0.197,-0.103 0.217,-0.079 0.123,-0.016 0.112,0.009 0.105,0.037 0.091,0.054 0.302,0.297 0.094,0.048 0.117,0.027 0.546,-0.032 0.253,0.027 0.108,0.035 0.095,0.056 0.07,0.081 0.056,0.096 0.035,0.109 0.017,0.12 0.022,0.261 0.028,0.118 0.039,0.111 0.06,0.091 0.073,0.07 0.098,0.034 0.365,-0.032 0.122,0.018 0.445,0.129 0.121,0.012 0.122,-0.018 0.109,-0.039 0.291,-0.157 0.108,-0.028 0.126,-0.002 0.727,0.128 0.206,-0.005 0.084,-0.015 0.323,-0.121 0.411,-0.232 0.896,-0.553 0.092,-0.132 0.119,-0.219 0.035,-0.207 0.092,-0.312 0.016,-0.192 -0.03,-0.135 -0.061,-0.086 -0.294,-0.308 -0.053,-0.092 -0.049,-0.111 -0.031,-0.114 -0.025,-0.106 -0.01,-0.125 v -0.014 l -0.112,-0.625 -0.011,-0.285 0.049,-0.136 0.095,-0.065 0.231,0.036 0.161,-0.088 0.196,-0.189 0.32,-0.511 0.182,-0.215 0.155,-0.127 0.119,-0.008 0.108,0.027 0.088,0.06 0.07,0.077 0.124,0.176 0.077,0.063 0.105,0.03 0.378,-0.105 0.098,0.029 0.084,0.05 0.077,0.071 0.067,0.081 0.298,0.448 0.103,0.056 0.133,0.017 0.255,-0.089 0.176,-0.038 0.154,-0.01 0.227,0.057 0.116,0.013 0.123,-0.016 1.115,-0.397 0.4,-0.022 0.389,0.353 0.835,1.426 0.014,0.11 0.007,0.116 -0.063,0.379 -0.012,0.16 0.047,0.102 0.095,0.071 0.241,0.145 0.056,0.096 0.011,0.114 -0.067,0.245 -0.014,0.165 0.039,0.111 1.301,2.36 0.175,0.417 0.108,0.396 0.088,0.192 0.095,0.129 0.357,0.227 0.285,0.31 0.08,0.07 0.091,0.053 0.102,0.012 0.091,-0.038 0.063,-0.073 0.049,-0.091 0.06,-0.084 0.073,-0.075 0.165,-0.136 0.106,-0.058 0.112,-0.037 0.179,0.048 0.109,0.134 0.15,0.263 0.13,0.156 0.154,0.157 0.039,0.12 -0.014,0.107 -0.084,0.205 -0.018,0.142 0.003,0.162 0.081,0.251 0.095,0.116 0.115,0.07 0.513,0.057 0.571,0.156 1.027,0.72 0.204,0.084 1.038,0.115 0.28,-0.005 0.13,-0.02 0.115,-0.035 0.095,-0.053 0.084,-0.061 0.152,-0.144 0.119,-0.179 0.01,-0.022 0.14,-0.415 0.053,-0.096 0.067,-0.083 0.073,-0.072 0.091,-0.051 0.231,-0.073 0.545,-0.054 0.364,0.049 0.7,0.288 -0.091,0.653 0.084,0.836 0.068,0.244 0.084,0.157 0.193,0.18 0.112,0.17 0.028,0.139 -0.01,0.131 -0.092,0.255 -0.031,0.2 -0.025,0.368 0.084,0.263 0.095,0.136 0.119,0.055 0.723,0.138 1.259,0.011 0.245,0.041 0.224,0.067 0.449,0.295 0.989,0.331 0.276,0.144 0.13,0.127 0.084,0.118 0.095,0.207 0.495,0.722 0.154,0.171 0.137,0.11 0.287,0.121 0.218,0.129 0.077,0.133 0.014,0.126 -0.042,0.105 -0.067,0.082 -0.081,0.07 -0.683,0.381 -0.165,0.151 -0.063,0.081 -0.049,0.095 -0.014,0.164 0.018,0.196 0.154,0.547 -0.018,0.022 -0.045,0.059 -0.088,0.046 -0.221,0.085 -0.095,0.062 -0.063,0.08 -0.088,0.203 -0.067,0.085 -0.094,0.052 -0.119,0.026 -0.536,-0.018 -0.126,0.012 -0.11,0.039 -0.074,0.11 -0.035,0.177 0.035,0.545 -0.007,0.171 -0.042,0.11 -0.049,0.096 -0.115,0.172 -0.834,0.952 -0.061,0.115 -0.044,0.143 -0.028,0.209 0.037,0.13 0.075,0.086 0.431,0.308 0.101,0.048 0.372,0.038 0.119,0.089 0.049,0.114 0.124,0.978 0.056,0.24 0.059,0.172 0.06,0.092 0.07,0.081 0.157,0.133 0.2,0.139 0.119,0.101 0.14,0.204 0.039,0.155 -0.004,0.134 -0.042,0.108 -0.056,0.09 -0.066,0.081 -0.168,0.13 -0.225,0.1 -0.624,0.131 -0.203,0.176 -0.046,0.661 0.445,0.332 3.478,0.696 0.366,0.13 0.07,0.078 0.063,0.088 0.053,0.099 0.045,0.107 0.035,0.128 0.056,0.408 0.049,0.137 0.07,0.128 0.298,0.378 0.207,0.423 0.164,0.441 0.135,0.493 0.042,0.268 0.03,0.444 0.028,0.164 0.061,0.169 0.122,0.223 0.113,0.048 0.101,-0.015 0.891,-0.772 0.196,-0.105 0.508,-0.089 0.105,-0.046 0.081,-0.071 0.502,-0.833 0.035,-0.107 0.056,-0.253 0.088,-0.114 0.133,0.037 0.525,0.322 0.359,0.162 1.115,0.124 0.245,0.086 0.207,0.107 0.245,0.181 0.168,0.07 0.158,0.017 0.105,-0.043 0.091,-0.062 0.077,-0.075 0.117,-0.076 0.144,-0.058 0.252,-0.032 0.14,0.042 0.084,0.078 0.021,0.116 -0.028,0.232 0.046,0.122 0.115,0.118 0.436,0.233 0.119,0.086 0.07,0.081 0.119,0.187 0.28,0.256 0.567,0.341 z"
       style="fill:none;stroke:#4f4c4c;stroke-width:0.25;stroke-linecap:round;stroke-linejoin:round;stroke-miterlimit:4;stroke-dasharray:none;stroke-opacity:1"
       id="path28" />
    <path
       style="opacity:0.5;fill:#ffffff;fill-opacity:1;stroke-width:4.99999999;stroke-linejoin:bevel;stroke:#591902;stroke-opacity:1;stroke-dasharray:none"
       d="m 129.97197,59.776867 c -0.35554,-0.355537 -0.51223,-1.473443 -0.3482,-2.48423 0.36788,-2.266975 -0.52832,-3.111997 -3.72664,-3.513848 -1.55389,-0.195239 -2.62878,-0.03124 -3.13893,0.478911 -0.42671,0.426703 -1.16147,0.907014 -1.63282,1.067356 -1.20835,0.411056 -3.00887,-1.829323 -2.64269,-3.288286 0.16546,-0.659247 -0.0704,-1.914237 -0.52419,-2.788866 -0.86146,-1.660464 -0.43733,-3.577965 1.24126,-5.611804 0.9969,-1.207871 1.75925,-10.388831 0.86265,-10.388831 -0.36374,0 -0.66135,-0.260196 -0.66135,-0.578213 0,-0.318017 0.35844,-0.578213 0.79652,-0.578213 1.3759,0 2.22117,-1.576492 1.82134,-3.396919 -0.28573,-1.300911 -0.92003,-1.92752 -2.65311,-2.620963 -2.17893,-0.871835 -2.55163,-1.38432 -2.30292,-3.166661 0.22754,-1.63068 -0.57362,-3.406696 -1.66558,-3.69225 -0.85045,-0.222398 -1.04345,-0.627679 -0.79013,-1.659178 0.18436,-0.750694 0.58693,-1.686829 0.89459,-2.0803 0.30766,-0.393472 0.42913,-1.054862 0.26992,-1.469756 -0.49449,-1.288622 0.91493,-2.466659 3.69883,-3.091596 2.80329,-0.629289 5.10369,0.164802 4.29025,1.480979 -0.53072,0.858719 2.27476,1.832368 5.87636,2.039409 3.52684,0.202743 4.49078,-0.550087 5.62563,-4.393574 1.00975,-3.4198169 2.96137,-4.7506893 7.1217,-4.8565314 1.82892,-0.046529 3.45541,-0.1531667 3.61442,-0.2369725 0.90982,-0.4795228 5.22424,-0.4112688 7.07159,0.1118725 1.89431,0.5364398 2.51649,0.424137 5.11272,-0.9228384 1.62578,-0.8434822 3.51739,-1.5428241 4.20358,-1.5540932 0.68619,-0.011269 1.89811,-0.392343 2.69315,-0.8468309 0.79504,-0.4544878 1.96593,-0.82620431 2.60196,-0.82603657 1.03129,2.7204e-4 0.98594,0.13993047 -0.41912,1.29061877 -1.39106,1.1392248 -1.53216,1.5599507 -1.20501,3.5930394 0.38723,2.4064739 1.50083,3.6987322 3.21422,3.7298702 1.04327,0.01896 1.21949,0.4996431 1.02901,2.8067781 -0.0761,0.921899 0.26033,1.439929 1.07327,1.652517 0.65128,0.170314 1.34319,0.810761 1.53758,1.423218 0.19438,0.612457 0.87308,1.597686 1.5082,2.189398 1.35935,1.26643 0.89559,1.732034 -2.6513,2.661785 -2.03346,0.533036 -2.42996,0.453754 -3.72279,-0.744407 -2.00282,-1.85615 -2.97735,-1.450326 -3.96609,1.651602 -0.80356,2.520971 -0.98871,2.687409 -3.53777,3.180174 -2.15588,0.41676 -2.7265,0.778228 -2.8746,1.820959 -0.12082,0.850713 0.11399,1.30098 0.67845,1.30098 0.76501,0 0.76477,0.197354 -0.002,1.73464 -0.47594,0.954052 -1.10649,1.73464 -1.40122,1.73464 -0.29472,0 -0.53586,0.350318 -0.53586,0.778484 0,1.118295 1.7284,4.425436 2.31285,4.425436 0.27144,0 0.86322,0.741081 1.31507,1.646847 0.60844,1.219646 0.65693,1.870107 0.18691,2.507513 -0.95752,1.298511 -2.9599,2.205988 -4.86759,2.205988 -1.57852,0 -1.73622,0.194836 -2.09517,2.588483 -0.43832,2.92294 -1.31913,3.827212 -2.352,2.414667 -0.38434,-0.525611 -1.34568,-0.955657 -2.13631,-0.955657 -2.00322,0 -5.08445,1.639968 -5.08445,2.706172 0,0.524404 -0.33226,0.759336 -0.813,0.574858 -1.19574,-0.458848 -2.54446,1.327615 -4.36188,5.777562 -1.598,3.912712 -1.63372,3.949613 -3.66641,3.787373 -1.12898,-0.09011 -2.21886,0.105038 -2.42196,0.43366 -0.48444,0.783843 -1.64113,0.760749 -2.45081,-0.04894 z"
       id="path7"
       transform="matrix(0.75000002,0,0,-0.75000002,225.275,439.565)" />
  </g>
</svg>
