<?xml version="1.0" encoding="UTF-8" standalone="no"?>
<!-- Created with Inkscape (http://www.inkscape.org/) -->

<svg
   version="1.1"
   id="svg2"
   width="359.30933"
   height="465.44919"
   viewBox="0 0 359.30933 465.44919"
   sodipodi:docname="outline - sicily.svg"
   inkscape:version="1.3.1 (91b66b0783, 2023-11-16)"
   inkscape:export-filename="outline - sicily.png"
   inkscape:export-xdpi="96"
   inkscape:export-ydpi="96"
   xmlns:inkscape="http://www.inkscape.org/namespaces/inkscape"
   xmlns:sodipodi="http://sodipodi.sourceforge.net/DTD/sodipodi-0.dtd"
   xmlns="http://www.w3.org/2000/svg"
   xmlns:svg="http://www.w3.org/2000/svg">
  <defs
     id="defs6" />
  <sodipodi:namedview
     id="namedview4"
     pagecolor="#ffffff"
     bordercolor="#000000"
     borderopacity="0.25"
     inkscape:showpageshadow="2"
     inkscape:pageopacity="0.0"
     inkscape:pagecheckerboard="0"
     inkscape:deskcolor="#d1d1d1"
     inkscape:zoom="3.4589306"
     inkscape:cx="322.93218"
     inkscape:cy="284.91465"
     inkscape:window-width="2880"
     inkscape:window-height="1514"
     inkscape:window-x="2869"
     inkscape:window-y="-11"
     inkscape:window-maximized="1"
     inkscape:current-layer="g8" />
  <g
     id="g8"
     inkscape:groupmode="layer"
     inkscape:label="ink_ext_XXXXXX"
     transform="matrix(1.3333333,0,0,-1.3333333,-300.36666,586.08665)">
    <path
       d="m 420.064,183.283 0.162,0.109 0.114,0.179 0.062,0.181 0.114,0.193 0.041,0.232 -0.105,0.11 -0.155,0.071 -0.208,0.049 -0.147,-0.044 -0.075,-0.131 -0.116,-0.125 -0.215,-0.101 -0.16,-0.155 v -0.107 l 0.43,-0.398 z m -46.374,-2.364 0.261,0.056 0.467,0.441 -0.033,0.092 -0.232,0.173 -0.371,-0.007 -0.258,-0.213 -0.108,-0.218 0.009,-0.217 z m 31.328,-3.729 0.496,-0.145 0.269,0.026 -0.006,0.102 -0.127,0.148 -0.081,0.302 -0.272,0.228 -0.401,0.098 -0.084,-0.032 0.027,-0.354 z m 7.006,-0.641 0.037,0.279 0.127,0.331 0.068,0.137 0.114,0.123 -0.227,0.333 -0.351,0.109 -0.824,-0.032 -0.478,-0.351 0.683,-0.569 z m -11.317,-0.007 -0.083,0.35 -0.325,-0.114 0.083,-0.349 z m 12.67,-2.019 0.295,-0.293 0.32,-0.222 0.397,0.073 v 0.214 l -0.116,0.118 -0.075,0.131 -0.118,0.34 h 0.603 v 0.177 l -0.118,0.072 -0.195,0.215 -0.15,0.124 0.163,0.414 -0.185,0.167 -0.747,0.009 -0.342,-0.203 -0.204,-0.478 -0.028,-0.489 0.188,-0.222 z m 1.012,-1.031 h -0.169 l -0.306,-0.594 0.067,-0.454 0.345,-0.424 0.526,-0.505 0.265,0.2 0.199,0.19 -0.127,0.39 -0.182,0.338 -0.254,0.27 -0.364,0.18 z m 14.68,-4.382 -1.282,0.571 -0.691,0.072 -0.357,-0.145 -0.903,-0.853 -0.884,-0.42 -0.269,-0.246 -0.502,-0.344 -1.776,-0.621 -0.661,-0.111 -0.399,0.014 -0.375,0.077 -0.276,0.202 -0.104,0.374 0.127,0.689 -0.072,0.299 h -0.136 l 0.081,-0.089 -0.085,-0.235 -0.02,-0.07 0.035,-0.063 0.07,-0.22 -0.846,-1.657 -0.585,-0.772 -1.239,-0.436 -0.39,-0.217 -0.394,-0.15 -0.434,0.088 -0.123,0.125 -0.23,0.363 -0.092,0.098 -0.224,0.043 -0.717,-0.043 -0.578,0.185 -0.272,0.028 -0.151,0.119 -0.408,0.526 -0.219,0.119 -0.638,0.05 -0.217,-0.05 -0.213,-0.095 -0.316,-0.198 -1.716,-0.439 -0.464,-0.032 -0.741,0.061 -0.25,-0.107 -0.853,-1.047 -0.638,-0.624 -0.749,-0.506 -2.776,-1.061 -1.076,-0.206 -0.728,0.349 -1.069,-0.567 -1.206,-0.329 -1.311,-0.082 -2.753,0.392 -0.688,-0.179 -0.331,-0.033 -0.52,0.068 -0.469,0.183 -0.949,0.547 -0.302,-0.317 -1.552,-0.269 -0.309,-0.197 -0.283,-0.266 -0.316,-0.234 -0.929,-0.22 -1.006,-0.537 -0.494,-0.123 -1.448,0.208 -0.489,-0.013 0.05,0.102 0.011,0.03 0.094,0.082 -0.32,0.161 -1.054,0.21 -0.649,0.407 -0.798,0.683 -0.67,0.286 -0.228,0.203 -0.147,0.323 -0.035,0.266 0.045,0.492 -0.628,0.471 -2.76,-0.21 -0.331,0.804 -0.077,0.268 -0.031,0.919 -0.129,0.197 -0.855,0.587 -0.053,0.131 -0.022,0.197 -0.041,0.181 -0.116,0.077 -0.178,-0.032 -0.307,-0.147 -0.443,-0.114 -0.25,-0.148 -0.262,-0.078 -0.347,0.128 -0.197,-0.64 -0.522,-0.245 -0.629,0.004 -0.506,0.099 -0.781,0.323 -0.225,0.052 -0.261,-0.077 -0.255,-0.193 -0.133,-0.247 0.127,-0.25 -0.783,-0.691 0.047,-0.261 0.212,-0.277 0.046,-0.259 0.031,-0.357 0.039,-0.17 -0.037,-0.126 -0.188,-0.218 -0.768,-0.603 -1.88,-0.844 -0.972,-0.137 -0.712,0.414 -0.017,0.251 -0.27,0.207 -0.636,0.323 -0.236,0.23 -0.623,1.119 -0.557,1.304 -0.118,0.524 -0.261,0.031 -0.261,-0.031 -0.136,0.338 -0.269,-0.495 0.092,-0.72 0.032,-0.698 -0.469,-0.432 -0.287,0.037 -0.359,0.108 -0.307,0.011 -0.125,-0.255 -0.12,-0.453 -0.292,-0.343 -0.684,-0.489 -0.725,0.266 -0.603,-0.482 -0.592,-0.668 -0.689,-0.286 0.253,-0.292 -0.027,-0.404 -0.144,-0.469 -0.138,-0.76 -0.529,-1.079 -0.057,-0.058 -0.009,-0.035 0.02,-0.197 0.062,-0.253 0.203,-0.319 0.044,-0.136 -0.022,-0.246 -0.12,-0.523 -0.049,-0.022 -0.162,-0.788 0.044,-0.083 -0.103,-0.108 -0.326,-0.205 -0.033,0.118 -0.388,-0.191 -0.009,-0.349 0.21,-0.395 0.265,-0.337 0.187,-0.329 0.064,-0.341 0.03,-0.374 0.103,-0.421 0.211,-0.479 0.331,-0.577 0.388,-0.488 0.394,-0.203 0.901,-0.016 0.324,-0.164 0.382,-0.402 0.938,-1.58 0.522,-0.485 0.868,-0.068 1.88,0.325 1.835,0.063 1.818,-0.224 0.712,-0.315 0.585,-0.623 0.094,-0.238 0.141,-0.572 0.146,-0.266 0.215,-0.122 0.235,0.046 0.333,0.165 2.769,-0.387 0.12,-0.09 0.222,-0.401 0.122,-0.09 0.259,-0.073 0.18,-0.166 0.256,-0.342 0.496,-0.286 0.135,-0.117 0.559,-1.079 0.253,-0.129 0.289,-0.097 0.21,-0.138 0.414,-0.412 0.963,-0.57 1.114,-0.898 0.703,-0.441 0.813,-0.292 1.035,-0.178 0.785,-0.246 0.67,-0.473 1.912,-1.904 0.732,-0.508 0.809,-0.349 0.971,-0.202 0.861,-0.347 1.394,-1.093 0.996,-0.137 0.228,0.081 0.423,0.265 0.204,0.059 2.538,0.21 0.851,-0.155 1.858,-0.878 1.589,-1.046 2.057,-1.998 0.558,-0.79 1.835,-3.94 0.261,-0.324 1.776,-0.423 0.368,0.084 0.405,-0.258 1.329,-0.514 0.287,-0.283 0.292,-0.497 1.35,-0.193 0.375,-0.363 0.284,0.107 0.06,-0.065 0.105,-0.234 1.493,0.755 0.798,0.123 0.824,-0.302 0.874,-0.619 0.568,-0.251 0.254,0.198 0.093,0.176 0.212,0.016 0.313,-0.096 0.272,-0.153 0.173,-0.174 0.327,-0.456 0.416,-0.346 0.459,-0.117 0.465,0.139 0.447,0.429 0.015,0.351 -0.401,1.668 -0.414,0.907 -0.11,0.564 0.285,0.254 0.024,0.325 1.146,2.927 0.367,0.558 0.484,0.241 0.353,0.109 0.34,0.233 0.401,0.206 0.534,0.028 v 0.21 l -0.096,0.185 0.051,0.065 0.199,0.118 -0.154,0.192 0.798,0.444 0.125,0.044 0.119,-0.15 0.237,-0.111 0.173,0.088 -0.066,0.454 -0.189,0.352 -0.199,0.107 -0.462,-0.057 -0.183,0.181 -0.039,0.351 0.134,0.229 0.335,-0.183 0.116,0.681 -0.105,0.411 -0.326,0.202 -0.546,0.054 -0.408,0.224 -0.335,0.47 -0.058,0.416 0.415,0.062 v 0.193 l -0.324,0.175 -0.378,-0.273 -0.493,0.596 -0.254,0.879 0.353,0.569 -0.14,0.35 0.284,0.133 h 0.235 l 0.132,-0.204 -0.033,-0.489 0.195,0.286 0.153,0.329 0.209,0.12 0.37,-0.349 -0.21,0.675 -0.345,0.481 -0.434,0.29 -0.846,0.163 -1.567,0.879 -0.162,0.225 -0.154,0.394 -0.105,0.476 -0.057,2.802 0.046,0.511 0.116,0.481 0.434,0.789 1.083,1.288 0.333,1.04 0.136,0.61 0.276,0.832 0.051,0.587 0.07,0.274 0.314,0.323 0.094,0.284 -0.037,0.323 -0.233,0.539 -0.039,0.305 0.147,0.39 0.637,0.97 0.566,0.466 0.388,0.599 0.436,0.896 2.03,3.187 2.435,3.107 0.603,1.483 1.105,1.814 -0.362,-0.012 0.07,0.416 0.151,0.362 0.318,0.386 0.915,0.609 0.23,-0.021 0.181,0.038 0.132,0.128 0.075,0.245 z m -80.076,-8.931 -0.176,0.523 -0.247,0.176 -0.397,-0.039 -0.125,-0.191 0.151,-0.304 0.237,-0.369 0.388,-0.283 0.327,-0.017 -0.031,0.281 z m 5.977,-0.995 -0.35,0.213 -0.16,0.167 -0.198,-0.04 -0.19,-0.104 -0.228,-0.079 -0.311,0.028 0.124,-0.295 0.206,-0.218 0.268,-0.065 0.329,0.171 0.271,-0.197 0.36,-0.146 0.351,0.023 0.252,0.32 -0.32,0.049 z m -6.76,-31.885 -0.861,0.824 -0.149,-0.297 -0.127,-0.034 -0.15,0.082 -0.208,0.056 -0.094,0.06 -0.217,0.263 -0.143,0.062 -0.118,-0.03 -0.166,-0.13 -0.101,-0.032 -0.274,-0.213 0.063,-0.461 0.18,-0.458 0.099,-0.193 0.539,-0.662 0.789,-0.569 0.78,-0.1 0.516,0.738 -0.044,0.637 z m 18.742,-26.091 -0.162,-0.001 -0.143,-0.027 -0.147,-0.081 -0.026,-0.156 0.114,-0.189 0.136,-0.1 h 0.353 l 0.094,0.099 -0.061,0.294 z m -5.542,-10.0389 0.044,0.0598 -0.055,0.041 -0.192,0.0531 -1.037,0.1032 -0.254,0.0609 -0.492,0.0109 -0.175,-0.1371 0.226,-0.1129 0.441,-0.1261 0.865,-0.375 0.099,-0.0039 0.107,-0.0809 0.182,-0.059 0.23,0.0848 0.058,0.257 -0.058,0.1832 z"
       style="fill:none;stroke:#593b02;stroke-width:2.25000006;stroke-linecap:round;stroke-linejoin:round;stroke-miterlimit:4;stroke-dasharray:none;stroke-opacity:1"
       id="path32" />
  </g>
</svg>
