<?xml version="1.0" encoding="UTF-8" standalone="no"?>
<!-- Created with Inkscape (http://www.inkscape.org/) -->

<svg
   version="1.1"
   id="svg2"
   width="359.30933"
   height="465.44919"
   viewBox="0 0 359.30933 465.44919"
   sodipodi:docname="outline - friula.svg"
   inkscape:version="1.3.1 (91b66b0783, 2023-11-16)"
   inkscape:export-filename="italy outline map 2.png"
   inkscape:export-xdpi="96"
   inkscape:export-ydpi="96"
   xmlns:inkscape="http://www.inkscape.org/namespaces/inkscape"
   xmlns:sodipodi="http://sodipodi.sourceforge.net/DTD/sodipodi-0.dtd"
   xmlns="http://www.w3.org/2000/svg"
   xmlns:svg="http://www.w3.org/2000/svg">
  <defs
     id="defs6" />
  <sodipodi:namedview
     id="namedview4"
     pagecolor="#ffffff"
     bordercolor="#000000"
     borderopacity="0.25"
     inkscape:showpageshadow="2"
     inkscape:pageopacity="0.0"
     inkscape:pagecheckerboard="0"
     inkscape:deskcolor="#d1d1d1"
     inkscape:zoom="6.9178612"
     inkscape:cx="179.1016"
     inkscape:cy="81.166705"
     inkscape:window-width="2880"
     inkscape:window-height="1514"
     inkscape:window-x="2869"
     inkscape:window-y="-11"
     inkscape:window-maximized="1"
     inkscape:current-layer="g8" />
  <g
     id="g8"
     inkscape:groupmode="layer"
     inkscape:label="ink_ext_XXXXXX"
     transform="matrix(1.3333333,0,0,-1.3333333,-300.36666,586.08665)">
    <path
       d="m 390.15,392.075 -0.011,0.03 -0.204,0.015 -0.338,0.193 -0.243,0.265 -1.801,3.032 -1.565,0.707 -0.216,0.168 -0.894,0.694 -0.378,0.117 -0.778,0.095 -0.631,0.344 -0.16,0.316 -0.185,0.365 0.074,1.106 0.679,1.546 0.202,0.461 0.16,0.626 0.169,0.664 -0.383,0.616 -0.116,-0.027 -0.657,-0.154 -0.728,-0.35 -0.678,-0.052 -0.614,0.707 -0.009,0.037 -0.014,0.032 -0.019,0.03 -0.021,0.027 -0.105,0.085 -0.294,0.345 0.345,0.313 0.117,0.077 0.175,0.232 0.063,0.224 -0.056,0.21 -0.182,0.191 0.516,0.687 0.395,0.301 2.12,1.616 0.647,1.192 -0.089,0.315 -0.084,0.292 -0.226,0.044 -0.304,0.058 -0.665,-0.072 -0.575,0.091 -0.679,0.674 -0.425,0.298 -0.631,0.127 -0.315,0.18 -0.678,0.047 -0.35,0.122 0.329,-0.576 -0.616,-0.095 -0.192,0.282 -0.079,0.451 -0.299,0.41 -0.002,0.004 -0.003,0.003 -0.137,0.816 -0.127,0.388 -0.175,0.326 0.589,0.367 0.098,0.169 0.32,0.55 0.304,0.693 0.245,0.294 0.299,0.032 0.28,0.136 0.542,0.396 1.046,0.561 0.551,0.575 0.481,0.677 0.554,0.522 0.766,0.1 0.558,-0.019 0.423,0.227 0.189,0.391 0.058,0.122 0.033,0.836 0.126,0.173 0.084,0.203 0.042,0.231 -0.002,0.257 -0.353,-0.069 -0.341,0.035 -2.735,0.888 -0.959,0.036 -0.173,0.121 -0.32,0.364 -0.157,0.06 -1.378,-0.101 -0.988,0.174 -2.302,-0.492 -0.911,0.046 -0.476,0.191 -1.437,0.883 -1.852,0.428 -5.29,0.38 -1.284,0.838 -0.566,0.191 0.137,-1.561 0.155,-0.683 -0.011,-0.422 -0.042,-0.312 0.06,-0.279 -0.035,-0.153 -0.07,-0.081 -1.485,-0.233 -0.22,-0.078 -0.197,-0.102 -0.091,-0.062 -0.119,-0.112 -0.389,-0.483 -0.085,-0.194 -0.009,-0.149 0.063,-0.09 0.084,-0.06 0.102,-0.052 0.115,-0.036 0.196,-0.111 0.074,-0.118 0.042,-0.161 0.003,-0.288 -0.056,-0.136 -0.098,-0.04 -0.108,0.027 -0.207,0.103 -0.245,0.066 -1.077,-0.007 -0.947,-0.204 -0.494,-0.275 -0.117,-0.109 -0.087,-0.111 -0.287,-0.645 -0.232,-0.824 -0.722,-1.334 -0.466,-0.61 -0.182,-0.184 -1.165,-0.605 -0.332,-0.237 -0.233,-0.267 -0.375,-0.525 -0.115,-0.252 -0.056,-0.155 0.014,-0.1 0.084,-0.193 0.059,-0.089 0.347,-0.415 0.555,-0.491 0.101,-0.05 0.112,-0.042 0.51,-0.014 0.108,-0.037 0.07,-0.074 0.046,-0.097 0.035,-0.111 0.042,-0.098 0.073,-0.067 0.116,-0.02 0.259,-0.004 0.112,-0.044 0.081,-0.109 0.038,-0.237 0.036,-0.462 0.021,-0.114 0.049,-0.095 0.059,-0.083 0.155,-0.147 0.431,-0.324 0.081,-0.186 0.073,-0.284 0.088,-0.643 0.011,-0.313 -0.014,-0.211 -0.064,-0.143 -0.045,-0.079 -0.06,-0.077 -0.157,-0.141 -0.186,-0.104 -0.555,-0.169 -0.087,-0.056 -0.081,-0.07 -0.07,-0.08 -0.063,-0.091 -0.049,-0.104 -0.088,-0.217 -0.115,-0.226 -0.256,-0.403 0.35,-1.099 0.134,-0.623 0.098,-1.015 0.07,-0.214 0.112,-0.119 0.238,-0.06 0.095,-0.041 0.126,-0.087 0.474,-0.534 0.084,-0.051 0.34,-0.114 0.213,-0.142 0.092,-0.124 0.049,-0.129 0.025,-0.175 0.06,-0.272 0.578,-1.54 0.07,-0.271 0.073,-0.146 0.085,-0.103 0.796,-0.407 0.112,-0.016 0.112,0.023 0.263,0.173 0.105,0.031 0.109,0.011 0.106,-0.034 0.122,-0.076 0.375,-0.346 0.105,-0.137 0.165,-0.411 0.392,-0.048 0.2,0.097 0.733,0.762 0.183,0.139 0.182,0.089 0.393,0.066 0.123,0.072 0.101,0.125 0.074,0.145 0.126,0.205 0.084,0.072 0.102,0.025 0.185,-0.097 0.166,-0.129 0.073,-0.075 0.057,-0.086 0.024,-0.111 0.004,-0.116 -0.007,-0.098 0.028,-0.094 0.073,-0.113 0.183,-0.107 0.108,0.01 0.088,0.062 0.045,0.107 0.074,0.133 0.108,0.146 0.232,0.19 0.169,0.065 0.154,0.011 0.116,-0.035 0.108,-0.053 0.084,-0.067 0.056,-0.086 0.021,-0.106 -0.017,-0.115 0.053,-0.111 0.133,-0.106 1.024,-0.21 h 0.157 l 0.112,0.045 0.067,0.093 0.172,0.323 0.238,0.292 0.446,-0.296 0.151,-0.259 0.007,-0.073 -0.053,-0.337 0.004,-0.339 0.038,-0.38 0.025,-0.158 0.038,-0.118 0.54,-0.724 0.07,-0.168 0.021,-0.102 -0.007,-0.052 -0.014,-0.219 0.07,-0.151 0.11,-0.16 0.227,-0.277 0.112,-0.181 0.512,-1.442 0.14,-0.294 0.337,-0.411 v 0 l 0.167,0.538 0.791,0.657 0.263,0.463 -0.859,-0.4 -0.456,-0.07 -0.372,0.247 -0.123,0.543 0.248,0.449 0.453,0.278 0.504,0.032 v 0.239 l -0.25,0.136 -0.083,0.302 0.06,0.305 0.192,0.139 0.272,-0.1 0.191,-0.452 0.223,-0.107 0.182,0.098 0.265,0.457 0.801,0.291 0.239,0.034 0.144,-0.088 0.542,-0.553 0.204,-0.093 2.191,-0.509 0.397,0.14 0.277,-0.47 0.925,-0.193 0.199,-0.555 -0.149,-0.268 -0.353,-0.234 -0.412,-0.178 -0.322,-0.084 0.565,-0.249 0.594,0.184 0.535,0.407 0.397,0.422 0.248,0.123 0.624,0.121 0.125,0.204 0.114,0.132 0.825,0.399 -0.601,0.107 -0.094,0.63 0.232,0.71 0.381,0.335 0.518,-0.091 1.236,-0.549 0.416,-0.341 1.783,-1.88 0.291,-0.392 0.329,-0.622 0.09,-0.558 -0.415,-0.189 0.855,-0.44 0.211,-0.358 0.206,-0.236 0.283,-0.086 -0.48,-0.103 -0.675,0.082 -0.606,-0.019 -0.258,-0.401 -0.158,-0.239 1.114,0.097 0.892,-0.482 1.067,0.11 0.456,0.563 0.432,0.535 0.173,0.42 -0.024,0.062"
       style="fill:#ffffff;fill-opacity:1;fill-rule:evenodd;stroke:none;stroke-width:0.1"
       id="path62" />
    <path
       d="m 390.15,392.075 -0.011,0.03 -0.204,0.015 -0.338,0.193 -0.243,0.265 -1.801,3.032 -1.565,0.707 -0.216,0.168 -0.894,0.694 -0.378,0.117 -0.778,0.095 -0.631,0.344 -0.16,0.316 -0.185,0.365 0.074,1.106 0.679,1.546 0.202,0.461 0.16,0.626 0.169,0.664 -0.383,0.616 -0.116,-0.027 -0.657,-0.154 -0.728,-0.35 -0.678,-0.052 -0.614,0.707 -0.009,0.037 -0.014,0.032 -0.019,0.03 -0.021,0.027 -0.105,0.085 -0.294,0.345 0.345,0.313 0.117,0.077 0.175,0.232 0.063,0.224 -0.056,0.21 -0.182,0.191 0.516,0.687 0.395,0.301 2.12,1.616 0.647,1.192 -0.089,0.315 -0.084,0.292 -0.226,0.044 -0.304,0.058 -0.665,-0.072 -0.575,0.091 -0.679,0.674 -0.425,0.298 -0.631,0.127 -0.315,0.18 -0.678,0.047 -0.35,0.122 0.329,-0.576 -0.616,-0.095 -0.192,0.282 -0.079,0.451 -0.299,0.41 -0.002,0.004 -0.003,0.003 -0.137,0.816 -0.127,0.388 -0.175,0.326 0.589,0.367 0.098,0.169 0.32,0.55 0.304,0.693 0.245,0.294 0.299,0.032 0.28,0.136 0.542,0.396 1.046,0.561 0.551,0.575 0.481,0.677 0.554,0.522 0.766,0.1 0.558,-0.019 0.423,0.227 0.189,0.391 0.058,0.122 0.033,0.836 0.126,0.173 0.084,0.203 0.042,0.231 -0.002,0.257 -0.353,-0.069 -0.341,0.035 -2.735,0.888 -0.959,0.036 -0.173,0.121 -0.32,0.364 -0.157,0.06 -1.378,-0.101 -0.988,0.174 -2.302,-0.492 -0.911,0.046 -0.476,0.191 -1.437,0.883 -1.852,0.428 -5.29,0.38 -1.284,0.838 -0.566,0.191 0.137,-1.561 0.155,-0.683 -0.011,-0.422 -0.042,-0.312 0.06,-0.279 -0.035,-0.153 -0.07,-0.081 -1.485,-0.233 -0.22,-0.078 -0.197,-0.102 -0.091,-0.062 -0.119,-0.112 -0.389,-0.483 -0.085,-0.194 -0.009,-0.149 0.063,-0.09 0.084,-0.06 0.102,-0.052 0.115,-0.036 0.196,-0.111 0.074,-0.118 0.042,-0.161 0.003,-0.288 -0.056,-0.136 -0.098,-0.04 -0.108,0.027 -0.207,0.103 -0.245,0.066 -1.077,-0.007 -0.947,-0.204 -0.494,-0.275 -0.117,-0.109 -0.087,-0.111 -0.287,-0.645 -0.232,-0.824 -0.722,-1.334 -0.466,-0.61 -0.182,-0.184 -1.165,-0.605 -0.332,-0.237 -0.233,-0.267 -0.375,-0.525 -0.115,-0.252 -0.056,-0.155 0.014,-0.1 0.084,-0.193 0.059,-0.089 0.347,-0.415 0.555,-0.491 0.101,-0.05 0.112,-0.042 0.51,-0.014 0.108,-0.037 0.07,-0.074 0.046,-0.097 0.035,-0.111 0.042,-0.098 0.073,-0.067 0.116,-0.02 0.259,-0.004 0.112,-0.044 0.081,-0.109 0.038,-0.237 0.036,-0.462 0.021,-0.114 0.049,-0.095 0.059,-0.083 0.155,-0.147 0.431,-0.324 0.081,-0.186 0.073,-0.284 0.088,-0.643 0.011,-0.313 -0.014,-0.211 -0.064,-0.143 -0.045,-0.079 -0.06,-0.077 -0.157,-0.141 -0.186,-0.104 -0.555,-0.169 -0.087,-0.056 -0.081,-0.07 -0.07,-0.08 -0.063,-0.091 -0.049,-0.104 -0.088,-0.217 -0.115,-0.226 -0.256,-0.403 0.35,-1.099 0.134,-0.623 0.098,-1.015 0.07,-0.214 0.112,-0.119 0.238,-0.06 0.095,-0.041 0.126,-0.087 0.474,-0.534 0.084,-0.051 0.34,-0.114 0.213,-0.142 0.092,-0.124 0.049,-0.129 0.025,-0.175 0.06,-0.272 0.578,-1.54 0.07,-0.271 0.073,-0.146 0.085,-0.103 0.796,-0.407 0.112,-0.016 0.112,0.023 0.263,0.173 0.105,0.031 0.109,0.011 0.106,-0.034 0.122,-0.076 0.375,-0.346 0.105,-0.137 0.165,-0.411 0.392,-0.048 0.2,0.097 0.733,0.762 0.183,0.139 0.182,0.089 0.393,0.066 0.123,0.072 0.101,0.125 0.074,0.145 0.126,0.205 0.084,0.072 0.102,0.025 0.185,-0.097 0.166,-0.129 0.073,-0.075 0.057,-0.086 0.024,-0.111 0.004,-0.116 -0.007,-0.098 0.028,-0.094 0.073,-0.113 0.183,-0.107 0.108,0.01 0.088,0.062 0.045,0.107 0.074,0.133 0.108,0.146 0.232,0.19 0.169,0.065 0.154,0.011 0.116,-0.035 0.108,-0.053 0.084,-0.067 0.056,-0.086 0.021,-0.106 -0.017,-0.115 0.053,-0.111 0.133,-0.106 1.024,-0.21 h 0.157 l 0.112,0.045 0.067,0.093 0.172,0.323 0.238,0.292 0.446,-0.296 0.151,-0.259 0.007,-0.073 -0.053,-0.337 0.004,-0.339 0.038,-0.38 0.025,-0.158 0.038,-0.118 0.54,-0.724 0.07,-0.168 0.021,-0.102 -0.007,-0.052 -0.014,-0.219 0.07,-0.151 0.11,-0.16 0.227,-0.277 0.112,-0.181 0.512,-1.442 0.14,-0.294 0.337,-0.411 v 0 l 0.167,0.538 0.791,0.657 0.263,0.463 -0.859,-0.4 -0.456,-0.07 -0.372,0.247 -0.123,0.543 0.248,0.449 0.453,0.278 0.504,0.032 v 0.239 l -0.25,0.136 -0.083,0.302 0.06,0.305 0.192,0.139 0.272,-0.1 0.191,-0.452 0.223,-0.107 0.182,0.098 0.265,0.457 0.801,0.291 0.239,0.034 0.144,-0.088 0.542,-0.553 0.204,-0.093 2.191,-0.509 0.397,0.14 0.277,-0.47 0.925,-0.193 0.199,-0.555 -0.149,-0.268 -0.353,-0.234 -0.412,-0.178 -0.322,-0.084 0.565,-0.249 0.594,0.184 0.535,0.407 0.397,0.422 0.248,0.123 0.624,0.121 0.125,0.204 0.114,0.132 0.825,0.399 -0.601,0.107 -0.094,0.63 0.232,0.71 0.381,0.335 0.518,-0.091 1.236,-0.549 0.416,-0.341 1.783,-1.88 0.291,-0.392 0.329,-0.622 0.09,-0.558 -0.415,-0.189 0.855,-0.44 0.211,-0.358 0.206,-0.236 0.283,-0.086 -0.48,-0.103 -0.675,0.082 -0.606,-0.019 -0.258,-0.401 -0.158,-0.239 1.114,0.097 0.892,-0.482 1.067,0.11 0.456,0.563 0.432,0.535 0.173,0.42 z"
       style="fill:none;stroke:#591902;stroke-width:3.75000009;stroke-linecap:round;stroke-linejoin:round;stroke-miterlimit:4;stroke-dasharray:none;stroke-opacity:1"
       id="path64" />
    <path
       style="opacity:0.5;fill:#ffffff;fill-opacity:1;stroke-width:1.73464;stroke-linejoin:bevel"
       d="m 205.29979,58.959376 c -0.61731,-0.466912 -1.67341,-0.848931 -2.34689,-0.848931 -0.67348,0 -1.68375,-0.335803 -2.24504,-0.74623 -1.56138,-1.141707 -4.80967,-0.555836 -5.2003,0.937942 -0.41484,1.586356 -1.25279,0.76109 -1.95595,-1.926352 -0.39317,-1.502654 -0.81425,-1.991202 -1.63535,-1.897353 -0.60821,0.06952 -1.49614,-0.04041 -1.97316,-0.244294 -1.75547,-0.750276 -3.78059,-0.678442 -5.09167,0.180607 -1.03071,0.67535 -1.53427,0.725792 -2.14937,0.215305 -0.44181,-0.366671 -1.06381,-0.50567 -1.38221,-0.308885 -0.31841,0.196785 -1.01073,-0.496354 -1.5385,-1.540309 -0.52777,-1.043954 -1.42144,-2.41849 -1.98594,-3.054525 -0.56451,-0.636035 -1.20231,-1.988771 -1.41736,-3.006081 -0.31658,-1.497673 -0.16341,-1.991775 0.8049,-2.596495 0.65909,-0.411611 1.19588,-1.358073 1.19588,-2.10858 0,-1.61543 -2.07118,-4.720432 -3.14875,-4.720432 -0.41643,0 -1.06198,-0.367304 -1.43456,-0.816232 -0.54491,-0.656576 -0.26753,-1.128862 1.41806,-2.414525 1.15251,-0.879062 2.53172,-2.528276 3.06492,-3.664922 0.83189,-1.773381 1.28454,-2.092542 3.18998,-2.249253 2.01392,-0.165633 2.1886,-0.309824 1.8774,-1.549755 -0.27734,-1.105006 -0.0935,-1.402578 0.95874,-1.552015 1.04624,-0.148582 1.33713,-0.610967 1.48143,-2.354798 0.15108,-1.825765 0.33448,-2.089757 1.15643,-1.664518 0.53728,0.277967 2.80032,0.629739 5.02897,0.781717 2.22866,0.151977 4.92276,0.726553 5.98689,1.276836 1.46654,0.758377 2.62579,0.905477 4.79003,0.607819 1.98899,-0.273557 3.99658,-0.08375 6.61723,0.625626 3.22214,0.872192 3.73723,1.190765 3.58945,2.220004 -0.0958,0.667228 -0.68685,1.2922 -1.32895,1.405206 -0.63604,0.111938 -1.73375,0.810025 -2.43937,1.551304 -0.70562,0.741279 -1.79256,1.509525 -2.41542,1.707214 -0.62286,0.197689 -1.6392,1.218261 -2.25852,2.267937 -1.00906,1.710219 -1.0436,2.104581 -0.3325,3.795785 0.65507,1.557974 1.02747,1.828571 2.13418,1.550802 0.73736,-0.185064 1.84383,0.01549 2.45882,0.445669 0.61499,0.430183 1.63856,0.890114 2.27459,1.022068 1.01447,0.210466 0.86092,0.509043 -1.25079,2.432164 -3.83802,3.495262 -3.88066,7.238806 -0.0729,6.402487 l 1.67219,-0.367274 -0.897,2.146822 c -0.49335,1.180751 -0.897,2.750178 -0.897,3.487616 0,0.737437 -0.2602,1.501605 -0.57821,1.698151 -0.31802,0.196546 -0.57822,0.964651 -0.57822,1.706902 0,0.742251 -0.41157,1.507483 -0.91461,1.700516 -1.11399,0.427479 -0.88764,0.481719 -2.23152,-0.53474 z"
       id="path9"
       transform="matrix(0.75000002,0,0,-0.75000002,225.275,439.565)" />
  </g>
</svg>
