<?xml version="1.0" encoding="UTF-8" standalone="no"?>
<!-- Created with Inkscape (http://www.inkscape.org/) -->

<svg
   version="1.1"
   id="svg2"
   width="359.30933"
   height="465.44919"
   viewBox="0 0 359.30933 465.44919"
   sodipodi:docname="outline - piedmont.svg"
   inkscape:version="1.3.1 (91b66b0783, 2023-11-16)"
   inkscape:export-filename="outline - piedmont.png"
   inkscape:export-xdpi="96"
   inkscape:export-ydpi="96"
   xmlns:inkscape="http://www.inkscape.org/namespaces/inkscape"
   xmlns:sodipodi="http://sodipodi.sourceforge.net/DTD/sodipodi-0.dtd"
   xmlns="http://www.w3.org/2000/svg"
   xmlns:svg="http://www.w3.org/2000/svg">
  <defs
     id="defs6" />
  <sodipodi:namedview
     id="namedview4"
     pagecolor="#ffffff"
     bordercolor="#000000"
     borderopacity="0.25"
     inkscape:showpageshadow="2"
     inkscape:pageopacity="0.0"
     inkscape:pagecheckerboard="0"
     inkscape:deskcolor="#d1d1d1"
     inkscape:zoom="1.7294653"
     inkscape:cx="201.21826"
     inkscape:cy="179.53526"
     inkscape:window-width="2880"
     inkscape:window-height="1514"
     inkscape:window-x="2869"
     inkscape:window-y="-11"
     inkscape:window-maximized="1"
     inkscape:current-layer="g8" />
  <g
     id="g8"
     inkscape:groupmode="layer"
     inkscape:label="ink_ext_XXXXXX"
     transform="matrix(1.3333333,0,0,-1.3333333,-300.36666,586.08665)">
    <path
       d="m 284.223,362.915 -0.084,0.36 -0.077,0.067 -0.098,0.143 -0.115,0.234 -0.407,1.249 -0.232,0.506 -0.098,0.164 -0.091,0.12 -0.081,0.064 -0.087,0.052 -0.106,0.046 -0.515,0.081 h -0.544 l -0.182,0.067 -0.221,0.141 -0.367,0.394 -0.158,0.202 -0.099,0.169 -0.018,0.119 0.011,0.122 0.024,0.124 0.103,0.211 0.039,0.118 v 0.195 l -0.046,0.119 -0.067,0.09 -1.216,1.099 -0.429,0.488 -0.115,0.189 -0.053,0.166 0.053,0.263 0.007,0.172 -0.06,0.298 -0.067,0.16 -0.073,0.118 -0.112,0.125 -0.042,0.038 -0.161,0.104 -0.193,0.07 -0.667,0.053 -0.147,0.047 -0.158,0.078 -0.315,0.217 -0.045,0.042 -0.047,0.098 -0.035,0.094 -0.028,0.104 -0.025,0.121 -0.01,0.127 0.003,0.138 0.112,0.799 -0.007,0.176 -0.066,0.041 -0.623,0.147 -0.379,-0.162 -1.343,-0.82 -0.523,-0.09 h -0.856 l -0.431,0.184 -0.265,0.024 -0.299,-0.208 -0.531,0.523 -0.304,0.632 -0.553,1.497 -0.776,0.928 -0.189,0.555 -0.042,0.051 -0.147,0.279 -0.049,0.158 -0.067,0.287 0.172,0.459 -0.032,0.093 -0.052,0.105 -0.126,0.104 -0.145,0.152 -0.21,0.328 -0.042,0.227 0.01,0.189 0.056,0.227 -0.038,0.116 -0.088,0.091 -0.112,0.076 -0.119,0.189 -0.032,0.603 -0.052,0.183 -0.098,0.121 -0.123,0.08 -0.129,0.142 -0.039,0.135 0.004,0.113 0.031,0.078 0.137,0.216 0.112,0.237 0.291,0.337 0.171,0.462 0.14,0.501 0.098,0.224 0.103,0.146 0.095,0.046 0.129,0.028 0.358,0.006 0.996,-0.231 0.21,-0.081 0.088,-0.059 0.077,-0.075 0.119,-0.175 0.105,-0.188 0.358,-0.802 0.116,-0.121 0.168,-0.117 0.41,-0.132 0.179,-0.025 0.122,0.023 0.049,0.081 0.032,0.109 0.052,0.392 0.032,0.119 0.042,0.111 0.061,0.098 0.066,0.084 0.151,0.14 0.623,0.369 0.091,0.079 0.035,0.093 -0.01,0.102 -0.053,0.085 -0.08,0.068 -0.284,0.161 -0.084,0.062 0.007,0.112 0.68,0.489 1.512,0.559 -0.411,0.502 -0.063,0.12 -0.568,1.552 -0.168,0.352 -0.137,0.217 -0.095,0.054 -0.452,0.16 -0.48,0.386 -0.144,0.19 -0.08,0.153 -0.025,0.308 -0.045,0.216 -0.135,0.344 -0.063,0.218 -0.021,0.159 0.035,0.316 -0.217,0.279 0.06,0.585 -0.032,0.149 -0.049,0.124 -0.606,0.72 -0.088,0.208 0.011,0.118 0.088,0.01 0.108,-0.005 0.105,0.017 0.091,0.14 -0.014,0.138 -0.08,0.195 -0.032,0.175 -0.007,0.179 0.011,0.23 -0.046,0.113 -0.094,0.035 -0.228,-0.038 -0.124,0.026 -0.144,0.122 -0.056,0.122 -0.007,0.131 0.074,0.261 0.028,0.186 0.011,0.311 -0.05,0.159 -0.07,0.113 -0.178,0.104 -0.463,0.123 -0.189,0.218 -0.243,0.379 -0.501,0.962 -0.171,0.436 -0.07,0.294 0.038,0.101 0.056,0.099 0.06,0.08 0.473,0.417 0.063,0.087 0.056,0.1 0.042,0.099 0.04,0.113 0.014,0.202 -0.107,0.958 -0.154,0.606 -0.056,0.503 -0.003,0.245 0.045,0.142 0.06,0.092 2.883,3.062 0.087,0.133 0.081,0.19 0.105,0.394 0.028,0.221 0.004,0.185 -0.119,1.999 -0.115,0.042 -0.14,-0.065 -0.35,-0.311 -0.162,-0.09 -0.397,0.02 -1.053,0.614 -0.437,0.151 -0.219,0.113 -1.427,2.106 -0.642,0.659 -0.624,0.315 -0.591,0.237 -0.415,0.343 -0.248,0.523 -0.089,0.795 0.077,0.838 0.367,1.69 0.077,0.94 -0.012,0.985 -0.093,0.738 -0.311,0.449 -0.649,0.114 -0.299,-0.064 -0.96,-0.207 -0.614,-0.334 -0.481,-0.51 -0.189,-0.414 0.086,-0.139 0.15,-0.114 0.009,-0.33 -0.135,-0.299 -0.225,-0.269 -0.259,-0.198 -0.64,-0.324 -1.111,-1.466 -0.468,-0.325 -0.98,-0.219 -0.489,-0.226 -0.441,-0.448 -0.226,-0.318 -0.096,-0.274 0.079,-0.126 0.528,-0.46 0.668,-1.288 0.063,-1.193 -0.49,-1.053 -0.988,-0.856 -0.246,-0.082 -0.467,-0.051 -0.226,-0.174 -0.161,-0.334 -0.049,-0.373 -0.003,-0.363 -0.119,-0.924 -0.042,-0.066 -0.219,-0.482 -0.017,-0.071 -0.282,-0.366 -0.161,-0.134 -0.218,-0.067 -1.602,-0.362 -0.6,-0.42 -0.498,-0.948 0.143,-0.661 -0.154,-0.048 -0.032,-0.09 v -0.236 l 0.281,-1.826 0.07,-0.931 0.007,-0.533 0.119,-0.668 0.042,-0.16 0.092,-0.554 0.046,-0.147 0.059,-0.113 0.067,-0.072 0.192,-0.148 0.47,-0.251 0.077,-0.074 0.028,-0.277 -0.007,-0.435 -0.112,-1.035 v -0.436 l 0.028,-0.28 0.109,-0.188 0.035,-0.103 0.021,-0.121 -0.155,-0.425 -0.735,-1.068 -2.175,-0.687 -0.6,-0.445 -0.182,-0.108 -0.172,-0.048 -0.234,-0.03 -1.319,0.061 -0.22,0.064 -0.267,0.194 -0.095,0.053 -0.109,0.043 -2.18,0.488 -0.179,-0.032 -0.204,-0.065 -0.308,-0.18 -0.203,-0.083 -0.197,-0.05 -0.414,0.029 -0.175,-0.039 -0.158,-0.081 -0.452,-0.425 -0.27,-0.326 -0.147,-0.15 -0.463,-0.271 -0.081,-0.064 -0.291,-0.306 -0.084,-0.061 -3.303,-1.108 -0.147,-0.139 -0.186,-0.043 -0.277,-0.013 -1.101,0.152 -0.392,0.118 -0.068,0.038 -0.06,0.058 -0.031,0.078 -0.004,0.055 v 0.028 l 0.081,0.277 0.01,0.112 -0.115,-0.019 -0.144,-0.058 -0.956,-1.055 -0.313,-0.346 -10e-4,-10e-4 0.146,-0.231 0.156,-0.399 0.182,-0.36 0.302,-0.229 0.967,-0.423 0.175,-0.134 -0.024,-0.4 -0.201,-0.488 -0.467,-0.838 -0.731,-0.873 -0.116,-0.188 0.114,-0.929 0.243,-0.641 v -0.503 l -0.614,-0.516 -0.43,-0.784 -0.152,-0.156 -0.119,0.043 -0.283,0.344 -0.179,0.078 -0.797,-0.22 -0.808,-0.368 -0.292,-0.28 -0.392,-0.686 -0.332,-0.301 -0.205,-0.049 -0.528,-0.007 -0.178,-0.079 -0.119,-0.271 0.105,-0.173 0.131,-0.147 -0.044,-0.198 -0.736,-0.354 -0.812,0.287 -0.83,0.448 -0.791,0.134 -0.171,-0.087 -0.406,-0.316 -0.196,-0.112 -0.178,-0.029 -0.408,0.015 -0.201,-0.037 -0.784,-0.45 -0.075,-0.063 -0.334,-0.28 -0.268,-0.361 0.397,-0.607 0.368,-0.318 0.035,-0.224 -0.026,-0.255 0.061,-0.288 0.271,-0.47 0.238,-0.204 0.792,-0.074 0.593,-0.431 0.145,-0.913 -0.045,-1.781 0.395,-0.665 0.74,-0.641 1.558,-0.908 0.427,-0.108 1.114,0.223 0.393,-0.033 1.132,-0.466 0.407,-0.445 0.093,-0.159 0.049,-0.187 -0.007,-0.097 -0.021,-0.085 0.003,-0.152 -0.043,-0.023 -0.112,-0.5 -0.016,-0.041 0.257,-0.687 0.121,-0.783 0.087,-0.271 0.686,-1.298 0.131,-0.413 -0.404,-0.008 -0.815,0.242 -0.416,-0.003 -0.518,-0.285 -0.416,-0.512 -0.161,-0.643 0.255,-0.671 -0.316,-0.237 -0.775,-1.345 -1.151,-0.884 -0.241,-0.424 0.07,-0.982 0.507,-0.884 0.687,-0.724 0.59,-0.494 -0.759,-0.419 -0.158,-0.272 -0.19,-0.983 -0.056,-0.189 -0.004,-0.159 0.084,-0.29 0.093,-0.143 0.498,-0.584 0.177,-0.309 0.266,-0.639 0.126,-0.238 0.204,-0.213 0.448,-0.323 0.208,-0.244 0.142,-0.309 0.075,-0.294 0.103,-0.274 0.212,-0.242 0.302,-0.124 0.268,0.044 0.271,0.091 0.304,0.026 0.285,-0.083 1.329,-0.708 0.906,-0.331 2.403,-1.481 0.425,-0.18 0.588,-0.099 0.297,-0.115 0.156,-0.228 0.122,-0.261 0.212,-0.208 0.218,-0.05 0.908,-0.023 3.931,1.133 0.651,0.052 0.93,0.608 0.698,-0.126 -0.311,-1.02 0.276,-0.584 0.5,-0.5 0.265,-0.571 0.483,0.023 0.648,0.246 0.004,0.06 -0.011,0.067 -0.084,0.058 -0.059,0.081 -0.039,0.107 -0.014,0.112 0.014,0.11 0.028,0.105 0.039,0.091 0.168,0.284 0.066,0.078 0.151,0.139 0.084,0.057 0.095,0.045 0.162,0.003 0.21,-0.044 0.368,-0.162 0.312,-0.191 0.073,-0.071 0.611,-0.112 1.473,-0.065 0.427,-0.13 1.561,-0.197 0.161,0.035 0.126,0.065 0.043,0.073 0.024,0.101 -0.017,0.172 -0.046,0.09 -0.053,0.054 -0.178,0.079 -0.091,0.054 -0.065,0.082 -0.035,0.102 0.028,0.159 0.079,0.172 0.21,0.25 0.109,0.09 0.136,0.041 0.228,-0.04 0.312,-0.12 0.22,-0.049 0.114,0.005 0.073,0.024 0.06,0.034 0.143,0.12 0.235,0.334 0.217,0.361 0.049,0.141 0.035,0.167 v 0.297 l -0.049,0.154 -0.073,0.109 -0.084,0.064 -0.046,0.126 -0.014,0.194 0.063,0.354 v 0.21 l -0.017,0.166 -0.028,0.115 -0.007,0.122 0.028,0.212 0.157,0.764 -0.01,0.224 -0.053,0.154 -0.08,0.066 -0.06,0.08 v 0.113 l 0.056,0.116 0.165,0.12 0.249,0.116 0.154,0.127 0.137,0.165 0.158,0.228 0.151,0.161 0.427,0.303 0.081,0.092 0.056,0.132 0.059,0.332 0.084,0.301 0.254,0.503 0.115,0.189 0.112,0.132 0.092,0.039 0.339,0.103 0.081,0.049 0.077,0.068 0.077,0.083 0.165,0.252 0.081,0.193 0.046,0.199 -0.011,0.342 -0.05,0.168 -0.066,0.127 -0.14,0.148 -0.06,0.083 -0.042,0.103 -0.018,0.122 0.028,0.158 0.074,0.209 0.182,0.308 0.103,0.349 0.154,0.393 0.06,0.115 0.343,0.45 0.308,0.072 0.238,-0.237 0.156,-0.225 0.168,-0.131 0.361,-0.201 0.22,-0.205 0.172,-0.129 0.112,-0.06 0.422,-0.143 0.192,-0.093 0.074,-0.069 0.063,-0.075 0.06,-0.086 0.101,-0.049 0.144,0.01 0.266,0.172 0.119,0.132 0.082,0.133 0.028,0.097 0.035,0.095 0.035,0.053 0.052,0.066 0.067,0.069 0.326,0.246 0.101,0.041 0.12,0.006 0.196,-0.099 0.164,-0.039 0.18,0.005 0.231,0.106 0.634,0.089 1.986,-0.058 0.406,0.269 0.168,0.198 0.172,0.265 0.049,0.098 0.038,0.105 0.007,0.107 -0.028,0.105 -0.038,0.092 -0.035,0.101 0.007,0.106 0.031,0.109 0.082,0.211 0.032,0.111 0.08,0.218 0.053,0.087 0.08,0.069 0.182,0.033 0.249,0.005 1.781,-0.195 0.183,-0.055 0.126,-0.069 0.063,-0.083 0.049,-0.093 0.088,-0.205 0.105,-0.193 0.189,-0.241 0.13,-0.295 0.109,-0.191 0.175,-0.246 0.042,-0.1 0.014,-0.118 -0.063,-0.351 v -0.12 l 0.031,-0.103 0.053,-0.078 0.06,-0.04 0.057,0.013 0.063,0.059 0.21,0.299 0.119,0.21 0.063,0.078 0.336,0.247 0.074,0.072 0.063,0.083 0.049,0.095 0.038,0.109 0.12,0.472 0.049,0.095 0.169,0.068 0.259,0.031 0.568,-0.011 0.46,-0.071 0.133,0.031 0.178,0.152 0.081,0.138 0.039,0.142 0.007,0.131 -0.004,0.132 -0.021,0.262 -0.003,0.424 -0.011,0.132 -0.028,0.115 -0.045,0.102 -0.057,0.084 -0.234,0.198 -0.275,0.166 -0.07,0.069 -0.031,0.09 0.017,0.095 0.049,0.086 0.387,0.341 0.249,0.273 0.031,0.054 0.035,0.086 0.102,0.408 0.031,0.07 0.056,0.069 0.126,0.054 0.488,0.062 0.19,-0.014 0.14,-0.055 0.203,-0.329 0.13,-0.099 0.182,-0.113 0.383,-0.178 0.312,-0.207 0.322,-0.407 0.315,-0.263 1.087,-0.408 0.235,-0.147 0.137,-0.152 0.018,-0.272 0.018,-0.123 0.038,-0.098 0.067,-0.078 0.091,-0.075 0.116,-0.064 0.308,-0.122 0.315,-0.076 0.133,0.005 0.348,0.079 0.214,0.1 0.284,0.182 0.168,0.21 0.087,0.457 -0.038,2.164 0.101,1.226"
       style="fill:#ffffff;fill-opacity:1;fill-rule:evenodd;stroke:none;stroke-width:0.1"
       id="path38" />
    <path
       d="m 284.223,362.915 -0.084,0.36 -0.077,0.067 -0.098,0.143 -0.115,0.234 -0.407,1.249 -0.232,0.506 -0.098,0.164 -0.091,0.12 -0.081,0.064 -0.087,0.052 -0.106,0.046 -0.515,0.081 h -0.544 l -0.182,0.067 -0.221,0.141 -0.367,0.394 -0.158,0.202 -0.099,0.169 -0.018,0.119 0.011,0.122 0.024,0.124 0.103,0.211 0.039,0.118 v 0.195 l -0.046,0.119 -0.067,0.09 -1.216,1.099 -0.429,0.488 -0.115,0.189 -0.053,0.166 0.053,0.263 0.007,0.172 -0.06,0.298 -0.067,0.16 -0.073,0.118 -0.112,0.125 -0.042,0.038 -0.161,0.104 -0.193,0.07 -0.667,0.053 -0.147,0.047 -0.158,0.078 -0.315,0.217 -0.045,0.042 -0.047,0.098 -0.035,0.094 -0.028,0.104 -0.025,0.121 -0.01,0.127 0.003,0.138 0.112,0.799 -0.007,0.176 -0.066,0.041 -0.623,0.147 -0.379,-0.162 -1.343,-0.82 -0.523,-0.09 h -0.856 l -0.431,0.184 -0.265,0.024 -0.299,-0.208 -0.531,0.523 -0.304,0.632 -0.553,1.497 -0.776,0.928 -0.189,0.555 -0.042,0.051 -0.147,0.279 -0.049,0.158 -0.067,0.287 0.172,0.459 -0.032,0.093 -0.052,0.105 -0.126,0.104 -0.145,0.152 -0.21,0.328 -0.042,0.227 0.01,0.189 0.056,0.227 -0.038,0.116 -0.088,0.091 -0.112,0.076 -0.119,0.189 -0.032,0.603 -0.052,0.183 -0.098,0.121 -0.123,0.08 -0.129,0.142 -0.039,0.135 0.004,0.113 0.031,0.078 0.137,0.216 0.112,0.237 0.291,0.337 0.171,0.462 0.14,0.501 0.098,0.224 0.103,0.146 0.095,0.046 0.129,0.028 0.358,0.006 0.996,-0.231 0.21,-0.081 0.088,-0.059 0.077,-0.075 0.119,-0.175 0.105,-0.188 0.358,-0.802 0.116,-0.121 0.168,-0.117 0.41,-0.132 0.179,-0.025 0.122,0.023 0.049,0.081 0.032,0.109 0.052,0.392 0.032,0.119 0.042,0.111 0.061,0.098 0.066,0.084 0.151,0.14 0.623,0.369 0.091,0.079 0.035,0.093 -0.01,0.102 -0.053,0.085 -0.08,0.068 -0.284,0.161 -0.084,0.062 0.007,0.112 0.68,0.489 1.512,0.559 -0.411,0.502 -0.063,0.12 -0.568,1.552 -0.168,0.352 -0.137,0.217 -0.095,0.054 -0.452,0.16 -0.48,0.386 -0.144,0.19 -0.08,0.153 -0.025,0.308 -0.045,0.216 -0.135,0.344 -0.063,0.218 -0.021,0.159 0.035,0.316 -0.217,0.279 0.06,0.585 -0.032,0.149 -0.049,0.124 -0.606,0.72 -0.088,0.208 0.011,0.118 0.088,0.01 0.108,-0.005 0.105,0.017 0.091,0.14 -0.014,0.138 -0.08,0.195 -0.032,0.175 -0.007,0.179 0.011,0.23 -0.046,0.113 -0.094,0.035 -0.228,-0.038 -0.124,0.026 -0.144,0.122 -0.056,0.122 -0.007,0.131 0.074,0.261 0.028,0.186 0.011,0.311 -0.05,0.159 -0.07,0.113 -0.178,0.104 -0.463,0.123 -0.189,0.218 -0.243,0.379 -0.501,0.962 -0.171,0.436 -0.07,0.294 0.038,0.101 0.056,0.099 0.06,0.08 0.473,0.417 0.063,0.087 0.056,0.1 0.042,0.099 0.04,0.113 0.014,0.202 -0.107,0.958 -0.154,0.606 -0.056,0.503 -0.003,0.245 0.045,0.142 0.06,0.092 2.883,3.062 0.087,0.133 0.081,0.19 0.105,0.394 0.028,0.221 0.004,0.185 -0.119,1.999 -0.115,0.042 -0.14,-0.065 -0.35,-0.311 -0.162,-0.09 -0.397,0.02 -1.053,0.614 -0.437,0.151 -0.219,0.113 -1.427,2.106 -0.642,0.659 -0.624,0.315 -0.591,0.237 -0.415,0.343 -0.248,0.523 -0.089,0.795 0.077,0.838 0.367,1.69 0.077,0.94 -0.012,0.985 -0.093,0.738 -0.311,0.449 -0.649,0.114 -0.299,-0.064 -0.96,-0.207 -0.614,-0.334 -0.481,-0.51 -0.189,-0.414 0.086,-0.139 0.15,-0.114 0.009,-0.33 -0.135,-0.299 -0.225,-0.269 -0.259,-0.198 -0.64,-0.324 -1.111,-1.466 -0.468,-0.325 -0.98,-0.219 -0.489,-0.226 -0.441,-0.448 -0.226,-0.318 -0.096,-0.274 0.079,-0.126 0.528,-0.46 0.668,-1.288 0.063,-1.193 -0.49,-1.053 -0.988,-0.856 -0.246,-0.082 -0.467,-0.051 -0.226,-0.174 -0.161,-0.334 -0.049,-0.373 -0.003,-0.363 -0.119,-0.924 -0.042,-0.066 -0.219,-0.482 -0.017,-0.071 -0.282,-0.366 -0.161,-0.134 -0.218,-0.067 -1.602,-0.362 -0.6,-0.42 -0.498,-0.948 0.143,-0.661 -0.154,-0.048 -0.032,-0.09 v -0.236 l 0.281,-1.826 0.07,-0.931 0.007,-0.533 0.119,-0.668 0.042,-0.16 0.092,-0.554 0.046,-0.147 0.059,-0.113 0.067,-0.072 0.192,-0.148 0.47,-0.251 0.077,-0.074 0.028,-0.277 -0.007,-0.435 -0.112,-1.035 v -0.436 l 0.028,-0.28 0.109,-0.188 0.035,-0.103 0.021,-0.121 -0.155,-0.425 -0.735,-1.068 -2.175,-0.687 -0.6,-0.445 -0.182,-0.108 -0.172,-0.048 -0.234,-0.03 -1.319,0.061 -0.22,0.064 -0.267,0.194 -0.095,0.053 -0.109,0.043 -2.18,0.488 -0.179,-0.032 -0.204,-0.065 -0.308,-0.18 -0.203,-0.083 -0.197,-0.05 -0.414,0.029 -0.175,-0.039 -0.158,-0.081 -0.452,-0.425 -0.27,-0.326 -0.147,-0.15 -0.463,-0.271 -0.081,-0.064 -0.291,-0.306 -0.084,-0.061 -3.303,-1.108 -0.147,-0.139 -0.186,-0.043 -0.277,-0.013 -1.101,0.152 -0.392,0.118 -0.068,0.038 -0.06,0.058 -0.031,0.078 -0.004,0.055 v 0.028 l 0.081,0.277 0.01,0.112 -0.115,-0.019 -0.144,-0.058 -0.956,-1.055 -0.313,-0.346 -10e-4,-10e-4 0.146,-0.231 0.156,-0.399 0.182,-0.36 0.302,-0.229 0.967,-0.423 0.175,-0.134 -0.024,-0.4 -0.201,-0.488 -0.467,-0.838 -0.731,-0.873 -0.116,-0.188 0.114,-0.929 0.243,-0.641 v -0.503 l -0.614,-0.516 -0.43,-0.784 -0.152,-0.156 -0.119,0.043 -0.283,0.344 -0.179,0.078 -0.797,-0.22 -0.808,-0.368 -0.292,-0.28 -0.392,-0.686 -0.332,-0.301 -0.205,-0.049 -0.528,-0.007 -0.178,-0.079 -0.119,-0.271 0.105,-0.173 0.131,-0.147 -0.044,-0.198 -0.736,-0.354 -0.812,0.287 -0.83,0.448 -0.791,0.134 -0.171,-0.087 -0.406,-0.316 -0.196,-0.112 -0.178,-0.029 -0.408,0.015 -0.201,-0.037 -0.784,-0.45 -0.075,-0.063 -0.334,-0.28 -0.268,-0.361 0.397,-0.607 0.368,-0.318 0.035,-0.224 -0.026,-0.255 0.061,-0.288 0.271,-0.47 0.238,-0.204 0.792,-0.074 0.593,-0.431 0.145,-0.913 -0.045,-1.781 0.395,-0.665 0.74,-0.641 1.558,-0.908 0.427,-0.108 1.114,0.223 0.393,-0.033 1.132,-0.466 0.407,-0.445 0.093,-0.159 0.049,-0.187 -0.007,-0.097 -0.021,-0.085 0.003,-0.152 -0.043,-0.023 -0.112,-0.5 -0.016,-0.041 0.257,-0.687 0.121,-0.783 0.087,-0.271 0.686,-1.298 0.131,-0.413 -0.404,-0.008 -0.815,0.242 -0.416,-0.003 -0.518,-0.285 -0.416,-0.512 -0.161,-0.643 0.255,-0.671 -0.316,-0.237 -0.775,-1.345 -1.151,-0.884 -0.241,-0.424 0.07,-0.982 0.507,-0.884 0.687,-0.724 0.59,-0.494 -0.759,-0.419 -0.158,-0.272 -0.19,-0.983 -0.056,-0.189 -0.004,-0.159 0.084,-0.29 0.093,-0.143 0.498,-0.584 0.177,-0.309 0.266,-0.639 0.126,-0.238 0.204,-0.213 0.448,-0.323 0.208,-0.244 0.142,-0.309 0.075,-0.294 0.103,-0.274 0.212,-0.242 0.302,-0.124 0.268,0.044 0.271,0.091 0.304,0.026 0.285,-0.083 1.329,-0.708 0.906,-0.331 2.403,-1.481 0.425,-0.18 0.588,-0.099 0.297,-0.115 0.156,-0.228 0.122,-0.261 0.212,-0.208 0.218,-0.05 0.908,-0.023 3.931,1.133 0.651,0.052 0.93,0.608 0.698,-0.126 -0.311,-1.02 0.276,-0.584 0.5,-0.5 0.265,-0.571 0.483,0.023 0.648,0.246 0.004,0.06 -0.011,0.067 -0.084,0.058 -0.059,0.081 -0.039,0.107 -0.014,0.112 0.014,0.11 0.028,0.105 0.039,0.091 0.168,0.284 0.066,0.078 0.151,0.139 0.084,0.057 0.095,0.045 0.162,0.003 0.21,-0.044 0.368,-0.162 0.312,-0.191 0.073,-0.071 0.611,-0.112 1.473,-0.065 0.427,-0.13 1.561,-0.197 0.161,0.035 0.126,0.065 0.043,0.073 0.024,0.101 -0.017,0.172 -0.046,0.09 -0.053,0.054 -0.178,0.079 -0.091,0.054 -0.065,0.082 -0.035,0.102 0.028,0.159 0.079,0.172 0.21,0.25 0.109,0.09 0.136,0.041 0.228,-0.04 0.312,-0.12 0.22,-0.049 0.114,0.005 0.073,0.024 0.06,0.034 0.143,0.12 0.235,0.334 0.217,0.361 0.049,0.141 0.035,0.167 v 0.297 l -0.049,0.154 -0.073,0.109 -0.084,0.064 -0.046,0.126 -0.014,0.194 0.063,0.354 v 0.21 l -0.017,0.166 -0.028,0.115 -0.007,0.122 0.028,0.212 0.157,0.764 -0.01,0.224 -0.053,0.154 -0.08,0.066 -0.06,0.08 v 0.113 l 0.056,0.116 0.165,0.12 0.249,0.116 0.154,0.127 0.137,0.165 0.158,0.228 0.151,0.161 0.427,0.303 0.081,0.092 0.056,0.132 0.059,0.332 0.084,0.301 0.254,0.503 0.115,0.189 0.112,0.132 0.092,0.039 0.339,0.103 0.081,0.049 0.077,0.068 0.077,0.083 0.165,0.252 0.081,0.193 0.046,0.199 -0.011,0.342 -0.05,0.168 -0.066,0.127 -0.14,0.148 -0.06,0.083 -0.042,0.103 -0.018,0.122 0.028,0.158 0.074,0.209 0.182,0.308 0.103,0.349 0.154,0.393 0.06,0.115 0.343,0.45 0.308,0.072 0.238,-0.237 0.156,-0.225 0.168,-0.131 0.361,-0.201 0.22,-0.205 0.172,-0.129 0.112,-0.06 0.422,-0.143 0.192,-0.093 0.074,-0.069 0.063,-0.075 0.06,-0.086 0.101,-0.049 0.144,0.01 0.266,0.172 0.119,0.132 0.082,0.133 0.028,0.097 0.035,0.095 0.035,0.053 0.052,0.066 0.067,0.069 0.326,0.246 0.101,0.041 0.12,0.006 0.196,-0.099 0.164,-0.039 0.18,0.005 0.231,0.106 0.634,0.089 1.986,-0.058 0.406,0.269 0.168,0.198 0.172,0.265 0.049,0.098 0.038,0.105 0.007,0.107 -0.028,0.105 -0.038,0.092 -0.035,0.101 0.007,0.106 0.031,0.109 0.082,0.211 0.032,0.111 0.08,0.218 0.053,0.087 0.08,0.069 0.182,0.033 0.249,0.005 1.781,-0.195 0.183,-0.055 0.126,-0.069 0.063,-0.083 0.049,-0.093 0.088,-0.205 0.105,-0.193 0.189,-0.241 0.13,-0.295 0.109,-0.191 0.175,-0.246 0.042,-0.1 0.014,-0.118 -0.063,-0.351 v -0.12 l 0.031,-0.103 0.053,-0.078 0.06,-0.04 0.057,0.013 0.063,0.059 0.21,0.299 0.119,0.21 0.063,0.078 0.336,0.247 0.074,0.072 0.063,0.083 0.049,0.095 0.038,0.109 0.12,0.472 0.049,0.095 0.169,0.068 0.259,0.031 0.568,-0.011 0.46,-0.071 0.133,0.031 0.178,0.152 0.081,0.138 0.039,0.142 0.007,0.131 -0.004,0.132 -0.021,0.262 -0.003,0.424 -0.011,0.132 -0.028,0.115 -0.045,0.102 -0.057,0.084 -0.234,0.198 -0.275,0.166 -0.07,0.069 -0.031,0.09 0.017,0.095 0.049,0.086 0.387,0.341 0.249,0.273 0.031,0.054 0.035,0.086 0.102,0.408 0.031,0.07 0.056,0.069 0.126,0.054 0.488,0.062 0.19,-0.014 0.14,-0.055 0.203,-0.329 0.13,-0.099 0.182,-0.113 0.383,-0.178 0.312,-0.207 0.322,-0.407 0.315,-0.263 1.087,-0.408 0.235,-0.147 0.137,-0.152 0.018,-0.272 0.018,-0.123 0.038,-0.098 0.067,-0.078 0.091,-0.075 0.116,-0.064 0.308,-0.122 0.315,-0.076 0.133,0.005 0.348,0.079 0.214,0.1 0.284,0.182 0.168,0.21 0.087,0.457 -0.038,2.164 z"
       style="fill:none;stroke:#4f4c4c;stroke-width:0.25;stroke-linecap:round;stroke-linejoin:round;stroke-miterlimit:4;stroke-dasharray:none;stroke-opacity:1"
       id="path40" />
    <path
       d="m 364.394,339.352 -0.984,0.328 -0.423,0.242 -0.693,0.553 -0.667,0.683 -1.291,1.738 -0.607,0.247 -0.824,0.662 -0.726,0.777 -0.469,0.849 -0.923,0.912 -0.615,0.856 -0.478,0.879 -0.419,1.178 -0.136,0.633 -0.048,0.667 -0.066,0.152 -0.311,0.425 -0.099,0.186 -0.065,0.234 -0.09,0.82 -0.689,3.167 -0.083,1.397 0.131,2.238 -0.054,0.35 -0.193,0.213 -0.204,0.496 -0.298,1.02 -0.138,1.368 0.158,1.258 0.598,2.196 h -0.309 v 0.194 l 0.587,0.528 0.241,-0.011 0.408,-0.299 0.583,-0.577 0.239,-0.355 0.412,-0.378 0.4,0.039 -0.006,0.005 -0.675,0.497 -0.306,0.278 -0.059,0.084 -0.042,0.098 -0.018,0.123 -0.003,0.273 -0.018,0.121 -0.038,0.104 -0.053,0.091 -0.066,0.078 -0.081,0.068 -0.133,0.07 -0.506,0.178 -0.161,0.091 -0.094,0.105 -0.039,0.103 -0.028,0.113 -0.042,0.238 -0.028,0.339 -0.06,0.351 -0.01,0.122 0.007,0.129 0.031,0.115 0.05,0.101 0.112,0.181 0.035,0.096 0.003,0.104 -0.035,0.093 -0.052,0.089 -0.074,0.069 -0.147,0.035 h -0.207 l -0.599,-0.125 -0.152,-0.054 -0.077,-0.054 -0.059,-0.053 -0.053,-0.037 -0.161,-0.005 -0.722,0.168 -0.379,0.173 -0.105,0.01 -0.154,-0.079 -0.151,-0.046 -0.189,0.007 -0.292,0.108 -0.137,0.102 -0.084,0.113 -0.101,0.318 -0.049,0.093 -0.067,0.079 -0.259,0.189 -0.386,0.176 -2.181,0.426 -0.105,0.045 -0.175,0.01 -0.228,-0.022 -0.852,-0.204 h -0.168 l -0.281,0.067 -0.355,0.02 -0.571,0.132 -1.087,-0.246 h -0.546 l -0.085,-0.068 -0.134,-0.299 -0.091,-0.068 -0.358,-0.02 -0.257,-0.069 -0.201,-0.141 -0.194,-0.224 -0.073,-0.355 -0.394,-0.21 -0.921,-0.303 -0.533,-0.527 -0.308,-0.24 -0.407,-0.102 -0.361,0.119 -1.196,0.967 -0.643,0.341 -0.35,0.083 -0.473,0.03 -0.873,-0.191 -0.406,0.005 -0.235,0.388 -1.143,0.263 -1.536,0.062 -0.108,-0.039 -0.082,-0.059 -0.063,-0.09 -0.112,-0.253 -0.161,-0.112 -0.106,-0.007 -0.406,0.155 -1.623,-0.477 -0.492,-0.026 -0.073,0.071 -0.189,0.254 -0.074,0.068 -0.087,0.059 -1.224,0.5 -0.168,0.014 -1.891,-0.269 -0.066,-0.05 -0.064,-0.066 -0.063,-0.085 -0.112,-0.187 -0.105,-0.09 -0.147,-0.081 -0.677,-0.161 -0.189,-0.091 -0.088,-0.059 -0.266,-0.148 -0.719,-0.253 -0.267,0.175 -0.077,0.065 -0.178,0.127 -0.141,0.064 -2.149,0.526 -0.084,0.064 -0.049,0.082 0.007,0.102 0.035,0.103 0.045,0.1 0.025,0.109 -0.004,0.119 -0.031,0.108 -0.042,0.102 -0.067,0.087 -0.067,0.073 -0.311,0.257 -0.074,0.044 -0.281,0.023 -0.34,-0.023 -0.182,0.033 -0.133,0.047 -0.074,0.06 -0.277,-0.106 -0.38,-0.694 -0.695,-0.82 -0.71,-0.543 -0.808,-0.215 -0.997,0.017 -0.985,0.227 -0.773,0.425 -0.305,0.469 -0.364,1.062 -0.333,0.207 -0.454,-0.077 -0.313,-0.128 -0.337,-0.027 -0.531,0.232 -2.331,1.492 -0.908,0.268 -0.918,-0.102 -0.858,-0.26 -0.747,0.074 -0.577,0.901 -0.406,0.999 -0.056,0.238 -0.099,0.176 -0.435,0.306 -0.098,0.161 -0.256,0.127 -1.595,-0.661 0.161,0.704 -0.434,0.269 -0.476,-0.139 0.047,-0.518 0.331,-0.598 -0.084,-0.232 -0.341,-0.01 -0.949,0.223 -0.195,-0.073 0.152,-0.399 0.075,-0.317 -0.147,-0.177 -0.209,0.013 -0.105,0.254 -0.18,0.257 -0.83,0.536 -0.239,0.425 h -0.14 l -0.01,-0.152 -0.022,-0.027 -0.042,0.007 -0.066,-0.046 0.007,-0.829 -0.681,-0.31 -0.923,0.097 -0.731,0.388 -0.277,0.206 -0.039,0.151 -0.007,0.406 0.06,0.18 0.088,0.161 -0.021,0.127 -0.267,0.076 -0.318,-0.094 -0.262,-0.233 -0.284,-0.179 -0.384,0.071 -0.273,0.453 -0.194,0.185 -0.228,-0.104 -0.084,-0.236 0.038,-0.266 0.08,-0.285 0.043,-0.301 -0.094,-0.365 -0.222,0.071 -0.454,0.412 -0.256,0.061 -0.199,0.017 -0.485,-0.078 h -1.024 l -0.155,-0.421 -0.091,-0.214 -0.701,-1.155 -1.431,-3.286 -0.175,-0.276 -0.126,-0.262 -0.049,-0.168 -0.039,-0.206 -0.021,-0.343 0.021,-0.196 0.046,-0.143 0.052,-0.087 0.137,-0.149 0.084,-0.064 0.189,-0.108 0.418,-0.176 0.168,-0.122 0.063,-0.075 0.049,-0.091 0.035,-0.111 0.018,-0.135 0.004,-0.138 -0.074,-0.813 -0.326,-0.66 -0.523,-0.831 -0.175,-0.385 -0.091,-0.272 0.017,-0.123 0.028,-0.11 0.225,-0.649 0.108,-0.468 0.011,-0.124 -0.021,-0.146 -0.06,-0.13 -0.13,-0.16 -0.105,-0.09 -0.168,-0.052 -0.206,-0.005 -0.4,0.069 -0.18,0.083 -0.108,0.098 -0.116,0.323 -0.052,0.091 -0.074,0.027 -0.088,-0.043 -0.059,-0.193 -0.004,-0.146 0.011,-0.285 -0.014,-0.129 -0.056,-0.241 -0.214,-0.132 -0.705,0.105 0.038,-2.164 0.267,0.131 0.228,0.075 0.137,-0.01 0.147,-0.06 0.175,-0.168 0.186,-0.215 0.105,-0.046 0.126,-0.011 0.189,0.064 0.229,0.124 0.182,-0.024 0.26,-0.105 0.915,-0.589 0.074,-0.07 0.14,-0.065 0.196,-0.037 0.399,-0.005 0.194,0.049 0.13,0.069 0.175,0.261 0.07,0.068 0.105,0.008 0.14,-0.067 0.256,-0.388 0.147,-0.149 0.203,-0.117 0.888,-0.329 0.235,-0.255 0.101,-0.809 -0.035,-0.557 -0.056,-0.187 -0.098,-0.222 -0.238,-0.392 -0.161,-0.153 -0.14,-0.098 -0.102,-0.04 -0.077,-0.067 -0.053,-0.093 -0.038,-0.103 -0.212,-0.952 -0.073,-0.246 -0.032,-0.153 -0.021,-0.187 0.042,-0.176 0.056,-0.088 0.296,-0.009 0.518,0.038 0.245,0.096 0.092,0.049 0.098,0.071 0.102,0.092 0.127,0.176 0.15,0.037 0.533,-0.03 0.456,0.035 0.322,-0.065 0.463,0.039 0.172,-0.037 1.195,-0.662 0.098,-0.127 0.098,-0.187 0.13,-0.408 0.176,-0.427 0.365,-0.379 -0.063,0.187 0.007,0.099 0.035,0.105 0.059,0.086 0.088,0.06 0.094,0.052 0.368,0.065 0.628,0.228 0.095,0.051 0.081,0.061 0.056,0.09 0.091,0.344 0.045,0.107 0.049,0.094 0.358,0.51 0.544,0.621 0.413,0.606 0.348,0.372 0.179,0.104 0.203,0.08 0.144,0.026 0.168,0.002 0.684,-0.109 0.879,-0.288 1.228,-0.705 0.101,-0.091 0.088,-0.134 0.084,-0.261 -0.007,-0.139 -0.035,-0.082 -0.221,-0.125 -0.077,-0.071 -0.042,-0.099 -0.003,-0.109 0.143,-0.196 1.378,-1.177 0.053,-0.087 0.127,-0.162 0.28,-0.289 0.291,-0.099 0.821,-0.025 1.072,-0.685 0.432,-0.159 0.126,-0.021 0.123,-0.077 0.112,-0.128 0.234,-0.559 0.067,-0.117 0.264,-0.353 0.445,-0.366 0.329,0.07 0.548,0.324 h 0.189 l 1.238,-0.234 0.185,-0.091 0.274,-0.267 0.582,-0.796 0.07,-0.074 0.368,-0.142 1.238,-0.212 0.115,-0.351 0.029,-0.415 0.021,-0.119 0.028,-0.112 0.042,-0.096 0.052,-0.094 0.705,-0.772 0.162,-0.21 1.087,-0.938 0.266,-0.076 0.641,0.079 0.147,0.163 0.117,0.173 0.126,0.308 0.049,0.093 0.063,0.076 0.074,0.06 0.213,0.105 0.099,0.029 1.3,0.132 0.601,-0.231 1.521,-1.161 0.753,-0.296 0.236,-0.203 0.06,-0.085 0.07,-0.071 0.108,-0.068 0.477,-0.192 0.101,-0.076 0.2,-0.233 0.168,-0.115 0.394,-0.197 0.098,-0.026 0.091,0.005 0.873,1.074 0.204,0.382 0.063,0.082 0.21,0.209 0.052,0.069 0.028,0.056 0.028,0.084 0.014,0.109 0.021,0.109 0.032,0.084 0.207,0.031 0.101,-0.008 0.12,-0.029 0.122,-0.088 0.05,-0.109 -0.043,-0.172 -0.077,-0.105 -0.154,-0.168 -0.056,-0.098 -0.032,-0.111 0.077,-0.153 0.074,-0.115 0.758,-0.386 3.527,0.415 0.372,-0.073 h 0.346 l 0.376,0.131 0.186,0.168 0.049,0.116 -0.028,0.097 -0.077,0.067 -0.095,0.059 -0.74,0.303 -0.189,0.105 -0.077,0.07 -0.063,0.074 -0.053,0.094 -0.028,0.101 -0.007,0.113 0.032,0.102 0.056,0.091 0.077,0.068 1.753,0.3 0.224,0.076 0.702,0.742 0.108,0.152 0.035,0.067 0.032,0.073 0.098,0.091 0.175,0.066 0.422,-0.002 0.206,0.038 0.133,0.059 0.06,0.086 0.189,0.397 0.056,0.086 0.063,0.082 0.102,0.053 0.136,0.024 0.222,-0.042 0.14,-0.044 0.302,-0.159 0.084,-0.094 0.094,-0.13 0.088,-0.255 0.13,-0.233 0.792,-0.949 0.26,-0.243 0.481,-0.139 0.763,0.02 0.116,0.048 0.133,0.08 0.06,0.091 0.07,0.073 0.091,0.053 0.162,-0.013 0.21,-0.082 0.358,-0.255 0.119,-0.175 0.031,-0.146 -0.045,-0.093 -0.07,-0.081 -0.281,-0.269 -0.07,-0.088 -0.038,-0.103 -0.007,-0.102 0.126,-0.092 0.217,-0.083 0.698,-0.17 0.232,-0.012 0.21,0.044 0.571,0.282 0.295,0.085 0.694,0.039 0.2,0.028 0.105,-0.004 0.115,-0.026 0.096,-0.052 0.039,-0.109 -0.004,-0.155 -0.112,-0.273 -0.082,-0.144 -0.182,-0.397 -0.102,-0.439 -0.07,-0.21 -0.063,-0.149 -0.381,-0.534 -0.123,-0.335 -0.06,-0.128 -0.236,-0.366 -0.073,-0.071 -0.095,-0.045 -0.382,-0.036 -0.108,-0.029 -0.074,-0.101 -0.028,-0.157 -0.007,-0.415 -0.017,-0.139 0.014,-0.13 0.059,-0.139 0.151,-0.184 0.523,-0.467 0.056,-0.111 0.035,-0.141 -0.047,-0.439 0.007,-0.155 0.057,-0.122 0.172,-0.099 0.133,-0.061 0.109,-0.17 0.053,-0.14 0.007,-1.086 0.269,-0.285 0.267,-0.223 1.181,-0.659 0.105,-0.094 0.177,-0.256 0.269,-0.307 0.085,-0.063 0.154,-0.061 0.22,-0.05 1.038,-0.108 0.214,-0.061 0.765,-0.371 0.382,-0.253 0.413,-0.445 0.33,-0.25 2.24,-0.586 0.282,-0.005 0.497,0.152 0.267,1.085 0.143,0.333 0.408,0.544 0.119,0.328 0.42,1.926 0.007,0.133 -0.056,0.449 0.004,0.29 0.031,0.12 0.056,0.073 0.084,0.012 0.06,-0.006 0.094,-0.026 0.284,-0.129 0.116,-0.031 0.765,-0.013 0.115,-0.032 0.144,-0.002 0.162,0.036 0.985,0.588 0.463,0.348 0.242,0.142 0.192,0.08 0.127,0.007 0.898,0.236 0.248,-0.003 0.123,-0.021 0.477,-0.203 0.234,0.236 0.722,0.37 0.651,0.11 0.159,-0.296 0.072,-0.522 -0.046,-0.54 -0.164,-0.311 0.304,-0.179 0.922,-0.516 0.112,-0.108 0.123,-0.153 v -0.119 l -0.01,-0.146 0.007,-0.158 0.073,-0.222 0.095,-0.086 0.094,-0.006 0.077,0.059 0.06,0.088 0.046,0.098 0.038,0.11 0.06,0.119 0.084,0.105 0.178,0.082 0.103,-0.024 0.081,-0.064 0.098,-0.184 0.175,-0.265 0.098,-0.191 0.126,-0.457 0.056,-0.152 0.13,-0.212 0.122,-0.092 0.137,-0.034 h 0.8 l 0.147,0.025 0.112,0.052 0.06,0.081 0.052,0.095 0.088,0.208 0.049,0.092 0.061,0.087 0.072,0.078 0.085,0.058 0.47,0.225 0.084,0.067 0.07,0.074 0.059,0.089 0.225,0.496 0.028,0.113 0.01,0.113 -0.021,0.108 -0.073,0.203 -0.025,0.111 -0.014,0.122 0.003,0.126 0.011,0.136 0.046,0.245 0.242,0.704 0.084,0.315 0.004,0.035 v 0"
       style="fill:#ffffff;fill-opacity:1;fill-rule:evenodd;stroke:none;stroke-width:0.1"
       id="path66" />
    <path
       style="opacity:0.5;fill:#ffffff;fill-opacity:1;stroke-width:4.99999999;stroke-linejoin:bevel;stroke:#591902;stroke-opacity:1;stroke-dasharray:none"
       d="m 32.796486,127.3922 c -0.388104,-0.38811 -0.705643,-1.174 -0.705643,-1.74643 0,-1.30883 -0.188494,-1.30213 -4.978032,0.17721 -3.203829,0.98956 -4.153941,1.08653 -5.065915,0.51699 -2.960894,-1.84911 -9.114241,-4.64663 -9.583156,-4.35682 -0.289909,0.17918 -0.693472,-0.1984 -0.896807,-0.83905 -0.203336,-0.64066 -0.570598,-1.16482 -0.816138,-1.16482 -0.646988,0 -2.0163447,-3.02746 -1.8307295,-4.0475 0.086805,-0.47702 0.4502466,-1.04876 0.807649,-1.27052 0.4380085,-0.27178 0.2306985,-0.84935 -0.6360058,-1.77191 -1.6386064,-1.74421 -1.6091436,-2.7033 0.1338124,-4.35594 0.7698137,-0.72993 1.4808579,-2.03091 1.5800969,-2.89107 0.151071,-1.30941 0.439217,-1.54621 1.770523,-1.45508 1.714426,0.11737 1.940896,-0.3967 0.972172,-2.20678 -0.339853,-0.63502 -0.640223,-1.93922 -0.66749,-2.898222 -0.05748,-2.021729 -2.104394,-3.694813 -3.9347726,-3.216156 -1.911829,0.499958 -4.60945,-2.176979 -4.60945,-4.574096 0,-1.556429 -0.2959288,-2.099175 -1.3664948,-2.506202 C 1.4283715,88.19964 0.64548423,86.179282 1.6497784,85.3785 c 1.2986932,-1.035519 3.1544538,-1.274045 4.6413578,-0.596566 1.3835282,0.630378 1.6832942,0.508387 3.5997675,-1.464943 1.3198963,-1.359054 2.4188553,-2.026604 2.9811153,-1.810845 1.238835,0.475386 3.220979,-1.782863 2.840833,-3.236546 -0.166762,-0.6377 0.241502,-2.082664 0.907255,-3.21103 l 1.21046,-2.051577 -1.337115,-1.008587 c -1.510099,-1.13907 -1.172094,-2.366974 0.529097,-1.922103 1.519671,0.397403 6.963236,-1.430529 8.543361,-2.868834 1.350979,-1.229725 2.80809,-1.372163 7.172349,-0.701125 1.758115,0.270323 2.807405,0.190268 3.069745,-0.234207 0.219219,-0.354705 0.86329,-0.644918 1.431267,-0.644918 1.767915,0 2.946559,-1.907076 2.946559,-4.767605 0,-1.557973 -0.28805,-2.748817 -0.697953,-2.885451 -0.42674,-0.142247 -0.788366,-1.832747 -0.930628,-4.350425 l -0.232675,-4.117774 2.226284,-1.048277 c 1.565264,-0.737026 2.313705,-1.506437 2.520714,-2.591342 0.161938,-0.848686 1.009971,-2.102583 1.884518,-2.786437 1.846635,-1.44398 2.153267,-4.20446 0.651372,-5.864036 -0.877587,-0.969721 -0.83052,-1.084194 0.722766,-1.757879 2.108953,-0.914684 5.236196,-4.005404 5.509599,-5.44525 0.136679,-0.719802 0.786586,-1.168189 1.873657,-1.292681 l 1.664392,-0.190607 -0.403157,4.09141 -0.403157,4.09141 3.536703,3.471417 c 1.945191,1.909281 4.042417,3.471418 4.66051,3.471418 1.828501,0 1.348954,2.168723 -1.09298,4.942904 -1.788778,2.032164 -2.166692,2.859686 -1.957339,4.28607 0.142692,0.97222 -0.04699,2.136892 -0.421506,2.588161 -0.528961,0.637358 -0.475939,1.216925 0.237548,2.596664 0.505173,0.976897 1.187367,1.776176 1.515988,1.776176 0.328616,0 0.429636,0.271594 0.22448,0.603542 -0.205156,0.331948 -0.112543,0.917389 0.20581,1.30098 0.318352,0.383591 0.591367,0.895457 0.606696,1.137479 0.10749,1.697166 1.670371,5.616326 2.782097,6.976543 1.650359,2.019243 1.69446,3.088622 0.147606,3.579572 -0.653537,0.207426 -1.087972,0.67798 -0.965408,1.045676 0.122564,0.367695 -0.1395,1.030883 -0.582365,1.473751 -0.688144,0.688141 -0.930854,0.625841 -1.669337,-0.428498 -1.276238,-1.822084 -3.251265,-1.586277 -4.174007,0.498354 -0.969138,2.189428 0.06379,6.125228 2.953341,11.25318 1.078876,1.914626 1.63454,2.321394 3.402849,2.490995 1.162377,0.111491 2.283567,-0.07261 2.491527,-0.409097 0.428543,-0.6934 2.080915,-0.842365 1.976039,-0.178148 -0.189122,1.197787 0.155389,1.879194 0.950103,1.879194 0.484895,0 1.105526,0.585441 1.379177,1.30098 0.273651,0.715539 1.041663,1.791097 1.706695,2.390132 0.665033,0.599029 1.062786,1.325964 0.883898,1.615412 -0.481617,0.77927 0.910484,2.21025 2.150196,2.21025 2.045337,0 3.11402,4.939518 1.876488,8.673198 -0.25549,0.77081 -0.363309,0.77076 -0.968947,-5.3e-4 -0.812708,-1.03499 -5.349393,-4.04696 -6.095601,-4.04696 -0.862827,0 -2.445883,2.78936 -1.807107,3.18414 0.987062,0.61004 0.622186,2.01978 -0.522781,2.01978 -0.602012,0 -1.257035,0.4234 -1.455611,0.94087 -0.305956,0.79732 -0.581203,0.70334 -1.803835,-0.61591 -1.818308,-1.96199 -4.507642,-1.901 -4.793065,0.1087 -0.159957,1.12628 -0.529823,1.30098 -2.75436,1.30098 -1.413275,0 -3.071897,0.3137 -3.685827,0.6971 -0.911271,0.5691 -1.316337,0.51601 -2.205983,-0.28911 -0.599361,-0.54241 -1.400945,-0.9862 -1.781297,-0.9862 -0.847331,0 -1.979323,2.79661 -1.56696,3.87121 0.164775,0.4294 -0.0943,1.23017 -0.575729,1.77948 -2.942679,3.35766 -3.525856,4.53836 -3.448708,6.98223 0.06728,2.13121 -0.123808,2.59143 -1.254467,3.02131 -0.73361,0.27891 -1.333836,0.79996 -1.333836,1.15786 0,0.7038 -4.138715,0.4976 -5.922964,-0.29509 -0.7397,-0.32863 -1.129176,-0.12073 -1.462656,0.78075 -0.357724,0.96702 -0.604768,1.07839 -1.160151,0.52301 z"
       id="path3"
       transform="matrix(0.75000002,0,0,-0.75000002,225.275,439.565)" />
  </g>
</svg>
