<?xml version="1.0" encoding="UTF-8" standalone="no"?>
<!-- Created with Inkscape (http://www.inkscape.org/) -->

<svg
   version="1.1"
   id="svg2"
   width="359.30933"
   height="465.44919"
   viewBox="0 0 359.30933 465.44919"
   sodipodi:docname="outline - piedmont.svg"
   inkscape:version="1.3.1 (91b66b0783, 2023-11-16)"
   inkscape:export-filename="outline - piedmont.png"
   inkscape:export-xdpi="96"
   inkscape:export-ydpi="96"
   xmlns:inkscape="http://www.inkscape.org/namespaces/inkscape"
   xmlns:sodipodi="http://sodipodi.sourceforge.net/DTD/sodipodi-0.dtd"
   xmlns="http://www.w3.org/2000/svg"
   xmlns:svg="http://www.w3.org/2000/svg">
  <defs
     id="defs6" />
  <sodipodi:namedview
     id="namedview4"
     pagecolor="#ffffff"
     bordercolor="#000000"
     borderopacity="0.25"
     inkscape:showpageshadow="2"
     inkscape:pageopacity="0.0"
     inkscape:pagecheckerboard="0"
     inkscape:deskcolor="#d1d1d1"
     inkscape:zoom="2.4458333"
     inkscape:cx="41.703578"
     inkscape:cy="63.577514"
     inkscape:window-width="2880"
     inkscape:window-height="1514"
     inkscape:window-x="2869"
     inkscape:window-y="-11"
     inkscape:window-maximized="1"
     inkscape:current-layer="g8" />
  <g
     id="g8"
     inkscape:groupmode="layer"
     inkscape:label="ink_ext_XXXXXX"
     transform="matrix(1.3333333,0,0,-1.3333333,-300.36666,586.08665)">
    <path
       d="m 284.223,362.915 -0.084,0.36 -0.077,0.067 -0.098,0.143 -0.115,0.234 -0.407,1.249 -0.232,0.506 -0.098,0.164 -0.091,0.12 -0.081,0.064 -0.087,0.052 -0.106,0.046 -0.515,0.081 h -0.544 l -0.182,0.067 -0.221,0.141 -0.367,0.394 -0.158,0.202 -0.099,0.169 -0.018,0.119 0.011,0.122 0.024,0.124 0.103,0.211 0.039,0.118 v 0.195 l -0.046,0.119 -0.067,0.09 -1.216,1.099 -0.429,0.488 -0.115,0.189 -0.053,0.166 0.053,0.263 0.007,0.172 -0.06,0.298 -0.067,0.16 -0.073,0.118 -0.112,0.125 -0.042,0.038 -0.161,0.104 -0.193,0.07 -0.667,0.053 -0.147,0.047 -0.158,0.078 -0.315,0.217 -0.045,0.042 -0.047,0.098 -0.035,0.094 -0.028,0.104 -0.025,0.121 -0.01,0.127 0.003,0.138 0.112,0.799 -0.007,0.176 -0.066,0.041 -0.623,0.147 -0.379,-0.162 -1.343,-0.82 -0.523,-0.09 h -0.856 l -0.431,0.184 -0.265,0.024 -0.299,-0.208 -0.531,0.523 -0.304,0.632 -0.553,1.497 -0.776,0.928 -0.189,0.555 -0.042,0.051 -0.147,0.279 -0.049,0.158 -0.067,0.287 0.172,0.459 -0.032,0.093 -0.052,0.105 -0.126,0.104 -0.145,0.152 -0.21,0.328 -0.042,0.227 0.01,0.189 0.056,0.227 -0.038,0.116 -0.088,0.091 -0.112,0.076 -0.119,0.189 -0.032,0.603 -0.052,0.183 -0.098,0.121 -0.123,0.08 -0.129,0.142 -0.039,0.135 0.004,0.113 0.031,0.078 0.137,0.216 0.112,0.237 0.291,0.337 0.171,0.462 0.14,0.501 0.098,0.224 0.103,0.146 0.095,0.046 0.129,0.028 0.358,0.006 0.996,-0.231 0.21,-0.081 0.088,-0.059 0.077,-0.075 0.119,-0.175 0.105,-0.188 0.358,-0.802 0.116,-0.121 0.168,-0.117 0.41,-0.132 0.179,-0.025 0.122,0.023 0.049,0.081 0.032,0.109 0.052,0.392 0.032,0.119 0.042,0.111 0.061,0.098 0.066,0.084 0.151,0.14 0.623,0.369 0.091,0.079 0.035,0.093 -0.01,0.102 -0.053,0.085 -0.08,0.068 -0.284,0.161 -0.084,0.062 0.007,0.112 0.68,0.489 1.512,0.559 -0.411,0.502 -0.063,0.12 -0.568,1.552 -0.168,0.352 -0.137,0.217 -0.095,0.054 -0.452,0.16 -0.48,0.386 -0.144,0.19 -0.08,0.153 -0.025,0.308 -0.045,0.216 -0.135,0.344 -0.063,0.218 -0.021,0.159 0.035,0.316 -0.217,0.279 0.06,0.585 -0.032,0.149 -0.049,0.124 -0.606,0.72 -0.088,0.208 0.011,0.118 0.088,0.01 0.108,-0.005 0.105,0.017 0.091,0.14 -0.014,0.138 -0.08,0.195 -0.032,0.175 -0.007,0.179 0.011,0.23 -0.046,0.113 -0.094,0.035 -0.228,-0.038 -0.124,0.026 -0.144,0.122 -0.056,0.122 -0.007,0.131 0.074,0.261 0.028,0.186 0.011,0.311 -0.05,0.159 -0.07,0.113 -0.178,0.104 -0.463,0.123 -0.189,0.218 -0.243,0.379 -0.501,0.962 -0.171,0.436 -0.07,0.294 0.038,0.101 0.056,0.099 0.06,0.08 0.473,0.417 0.063,0.087 0.056,0.1 0.042,0.099 0.04,0.113 0.014,0.202 -0.107,0.958 -0.154,0.606 -0.056,0.503 -0.003,0.245 0.045,0.142 0.06,0.092 2.883,3.062 0.087,0.133 0.081,0.19 0.105,0.394 0.028,0.221 0.004,0.185 -0.119,1.999 -0.115,0.042 -0.14,-0.065 -0.35,-0.311 -0.162,-0.09 -0.397,0.02 -1.053,0.614 -0.437,0.151 -0.219,0.113 -1.427,2.106 -0.642,0.659 -0.624,0.315 -0.591,0.237 -0.415,0.343 -0.248,0.523 -0.089,0.795 0.077,0.838 0.367,1.69 0.077,0.94 -0.012,0.985 -0.093,0.738 -0.311,0.449 -0.649,0.114 -0.299,-0.064 -0.96,-0.207 -0.614,-0.334 -0.481,-0.51 -0.189,-0.414 0.086,-0.139 0.15,-0.114 0.009,-0.33 -0.135,-0.299 -0.225,-0.269 -0.259,-0.198 -0.64,-0.324 -1.111,-1.466 -0.468,-0.325 -0.98,-0.219 -0.489,-0.226 -0.441,-0.448 -0.226,-0.318 -0.096,-0.274 0.079,-0.126 0.528,-0.46 0.668,-1.288 0.063,-1.193 -0.49,-1.053 -0.988,-0.856 -0.246,-0.082 -0.467,-0.051 -0.226,-0.174 -0.161,-0.334 -0.049,-0.373 -0.003,-0.363 -0.119,-0.924 -0.042,-0.066 -0.219,-0.482 -0.017,-0.071 -0.282,-0.366 -0.161,-0.134 -0.218,-0.067 -1.602,-0.362 -0.6,-0.42 -0.498,-0.948 0.143,-0.661 -0.154,-0.048 -0.032,-0.09 v -0.236 l 0.281,-1.826 0.07,-0.931 0.007,-0.533 0.119,-0.668 0.042,-0.16 0.092,-0.554 0.046,-0.147 0.059,-0.113 0.067,-0.072 0.192,-0.148 0.47,-0.251 0.077,-0.074 0.028,-0.277 -0.007,-0.435 -0.112,-1.035 v -0.436 l 0.028,-0.28 0.109,-0.188 0.035,-0.103 0.021,-0.121 -0.155,-0.425 -0.735,-1.068 -2.175,-0.687 -0.6,-0.445 -0.182,-0.108 -0.172,-0.048 -0.234,-0.03 -1.319,0.061 -0.22,0.064 -0.267,0.194 -0.095,0.053 -0.109,0.043 -2.18,0.488 -0.179,-0.032 -0.204,-0.065 -0.308,-0.18 -0.203,-0.083 -0.197,-0.05 -0.414,0.029 -0.175,-0.039 -0.158,-0.081 -0.452,-0.425 -0.27,-0.326 -0.147,-0.15 -0.463,-0.271 -0.081,-0.064 -0.291,-0.306 -0.084,-0.061 -3.303,-1.108 -0.147,-0.139 -0.186,-0.043 -0.277,-0.013 -1.101,0.152 -0.392,0.118 -0.068,0.038 -0.06,0.058 -0.031,0.078 -0.004,0.055 v 0.028 l 0.081,0.277 0.01,0.112 -0.115,-0.019 -0.144,-0.058 -0.956,-1.055 -0.313,-0.346 -10e-4,-10e-4 0.146,-0.231 0.156,-0.399 0.182,-0.36 0.302,-0.229 0.967,-0.423 0.175,-0.134 -0.024,-0.4 -0.201,-0.488 -0.467,-0.838 -0.731,-0.873 -0.116,-0.188 0.114,-0.929 0.243,-0.641 v -0.503 l -0.614,-0.516 -0.43,-0.784 -0.152,-0.156 -0.119,0.043 -0.283,0.344 -0.179,0.078 -0.797,-0.22 -0.808,-0.368 -0.292,-0.28 -0.392,-0.686 -0.332,-0.301 -0.205,-0.049 -0.528,-0.007 -0.178,-0.079 -0.119,-0.271 0.105,-0.173 0.131,-0.147 -0.044,-0.198 -0.736,-0.354 -0.812,0.287 -0.83,0.448 -0.791,0.134 -0.171,-0.087 -0.406,-0.316 -0.196,-0.112 -0.178,-0.029 -0.408,0.015 -0.201,-0.037 -0.784,-0.45 -0.075,-0.063 -0.334,-0.28 -0.268,-0.361 0.397,-0.607 0.368,-0.318 0.035,-0.224 -0.026,-0.255 0.061,-0.288 0.271,-0.47 0.238,-0.204 0.792,-0.074 0.593,-0.431 0.145,-0.913 -0.045,-1.781 0.395,-0.665 0.74,-0.641 1.558,-0.908 0.427,-0.108 1.114,0.223 0.393,-0.033 1.132,-0.466 0.407,-0.445 0.093,-0.159 0.049,-0.187 -0.007,-0.097 -0.021,-0.085 0.003,-0.152 -0.043,-0.023 -0.112,-0.5 -0.016,-0.041 0.257,-0.687 0.121,-0.783 0.087,-0.271 0.686,-1.298 0.131,-0.413 -0.404,-0.008 -0.815,0.242 -0.416,-0.003 -0.518,-0.285 -0.416,-0.512 -0.161,-0.643 0.255,-0.671 -0.316,-0.237 -0.775,-1.345 -1.151,-0.884 -0.241,-0.424 0.07,-0.982 0.507,-0.884 0.687,-0.724 0.59,-0.494 -0.759,-0.419 -0.158,-0.272 -0.19,-0.983 -0.056,-0.189 -0.004,-0.159 0.084,-0.29 0.093,-0.143 0.498,-0.584 0.177,-0.309 0.266,-0.639 0.126,-0.238 0.204,-0.213 0.448,-0.323 0.208,-0.244 0.142,-0.309 0.075,-0.294 0.103,-0.274 0.212,-0.242 0.302,-0.124 0.268,0.044 0.271,0.091 0.304,0.026 0.285,-0.083 1.329,-0.708 0.906,-0.331 2.403,-1.481 0.425,-0.18 0.588,-0.099 0.297,-0.115 0.156,-0.228 0.122,-0.261 0.212,-0.208 0.218,-0.05 0.908,-0.023 3.931,1.133 0.651,0.052 0.93,0.608 0.698,-0.126 -0.311,-1.02 0.276,-0.584 0.5,-0.5 0.265,-0.571 0.483,0.023 0.648,0.246 0.004,0.06 -0.011,0.067 -0.084,0.058 -0.059,0.081 -0.039,0.107 -0.014,0.112 0.014,0.11 0.028,0.105 0.039,0.091 0.168,0.284 0.066,0.078 0.151,0.139 0.084,0.057 0.095,0.045 0.162,0.003 0.21,-0.044 0.368,-0.162 0.312,-0.191 0.073,-0.071 0.611,-0.112 1.473,-0.065 0.427,-0.13 1.561,-0.197 0.161,0.035 0.126,0.065 0.043,0.073 0.024,0.101 -0.017,0.172 -0.046,0.09 -0.053,0.054 -0.178,0.079 -0.091,0.054 -0.065,0.082 -0.035,0.102 0.028,0.159 0.079,0.172 0.21,0.25 0.109,0.09 0.136,0.041 0.228,-0.04 0.312,-0.12 0.22,-0.049 0.114,0.005 0.073,0.024 0.06,0.034 0.143,0.12 0.235,0.334 0.217,0.361 0.049,0.141 0.035,0.167 v 0.297 l -0.049,0.154 -0.073,0.109 -0.084,0.064 -0.046,0.126 -0.014,0.194 0.063,0.354 v 0.21 l -0.017,0.166 -0.028,0.115 -0.007,0.122 0.028,0.212 0.157,0.764 -0.01,0.224 -0.053,0.154 -0.08,0.066 -0.06,0.08 v 0.113 l 0.056,0.116 0.165,0.12 0.249,0.116 0.154,0.127 0.137,0.165 0.158,0.228 0.151,0.161 0.427,0.303 0.081,0.092 0.056,0.132 0.059,0.332 0.084,0.301 0.254,0.503 0.115,0.189 0.112,0.132 0.092,0.039 0.339,0.103 0.081,0.049 0.077,0.068 0.077,0.083 0.165,0.252 0.081,0.193 0.046,0.199 -0.011,0.342 -0.05,0.168 -0.066,0.127 -0.14,0.148 -0.06,0.083 -0.042,0.103 -0.018,0.122 0.028,0.158 0.074,0.209 0.182,0.308 0.103,0.349 0.154,0.393 0.06,0.115 0.343,0.45 0.308,0.072 0.238,-0.237 0.156,-0.225 0.168,-0.131 0.361,-0.201 0.22,-0.205 0.172,-0.129 0.112,-0.06 0.422,-0.143 0.192,-0.093 0.074,-0.069 0.063,-0.075 0.06,-0.086 0.101,-0.049 0.144,0.01 0.266,0.172 0.119,0.132 0.082,0.133 0.028,0.097 0.035,0.095 0.035,0.053 0.052,0.066 0.067,0.069 0.326,0.246 0.101,0.041 0.12,0.006 0.196,-0.099 0.164,-0.039 0.18,0.005 0.231,0.106 0.634,0.089 1.986,-0.058 0.406,0.269 0.168,0.198 0.172,0.265 0.049,0.098 0.038,0.105 0.007,0.107 -0.028,0.105 -0.038,0.092 -0.035,0.101 0.007,0.106 0.031,0.109 0.082,0.211 0.032,0.111 0.08,0.218 0.053,0.087 0.08,0.069 0.182,0.033 0.249,0.005 1.781,-0.195 0.183,-0.055 0.126,-0.069 0.063,-0.083 0.049,-0.093 0.088,-0.205 0.105,-0.193 0.189,-0.241 0.13,-0.295 0.109,-0.191 0.175,-0.246 0.042,-0.1 0.014,-0.118 -0.063,-0.351 v -0.12 l 0.031,-0.103 0.053,-0.078 0.06,-0.04 0.057,0.013 0.063,0.059 0.21,0.299 0.119,0.21 0.063,0.078 0.336,0.247 0.074,0.072 0.063,0.083 0.049,0.095 0.038,0.109 0.12,0.472 0.049,0.095 0.169,0.068 0.259,0.031 0.568,-0.011 0.46,-0.071 0.133,0.031 0.178,0.152 0.081,0.138 0.039,0.142 0.007,0.131 -0.004,0.132 -0.021,0.262 -0.003,0.424 -0.011,0.132 -0.028,0.115 -0.045,0.102 -0.057,0.084 -0.234,0.198 -0.275,0.166 -0.07,0.069 -0.031,0.09 0.017,0.095 0.049,0.086 0.387,0.341 0.249,0.273 0.031,0.054 0.035,0.086 0.102,0.408 0.031,0.07 0.056,0.069 0.126,0.054 0.488,0.062 0.19,-0.014 0.14,-0.055 0.203,-0.329 0.13,-0.099 0.182,-0.113 0.383,-0.178 0.312,-0.207 0.322,-0.407 0.315,-0.263 1.087,-0.408 0.235,-0.147 0.137,-0.152 0.018,-0.272 0.018,-0.123 0.038,-0.098 0.067,-0.078 0.091,-0.075 0.116,-0.064 0.308,-0.122 0.315,-0.076 0.133,0.005 0.348,0.079 0.214,0.1 0.284,0.182 0.168,0.21 0.087,0.457 -0.038,2.164 0.101,1.226"
       style="fill:#ffffff;fill-opacity:1;fill-rule:evenodd;stroke:none;stroke-width:0.1"
       id="path38" />
    <path
       d="m 284.223,362.915 -0.084,0.36 -0.077,0.067 -0.098,0.143 -0.115,0.234 -0.407,1.249 -0.232,0.506 -0.098,0.164 -0.091,0.12 -0.081,0.064 -0.087,0.052 -0.106,0.046 -0.515,0.081 h -0.544 l -0.182,0.067 -0.221,0.141 -0.367,0.394 -0.158,0.202 -0.099,0.169 -0.018,0.119 0.011,0.122 0.024,0.124 0.103,0.211 0.039,0.118 v 0.195 l -0.046,0.119 -0.067,0.09 -1.216,1.099 -0.429,0.488 -0.115,0.189 -0.053,0.166 0.053,0.263 0.007,0.172 -0.06,0.298 -0.067,0.16 -0.073,0.118 -0.112,0.125 -0.042,0.038 -0.161,0.104 -0.193,0.07 -0.667,0.053 -0.147,0.047 -0.158,0.078 -0.315,0.217 -0.045,0.042 -0.047,0.098 -0.035,0.094 -0.028,0.104 -0.025,0.121 -0.01,0.127 0.003,0.138 0.112,0.799 -0.007,0.176 -0.066,0.041 -0.623,0.147 -0.379,-0.162 -1.343,-0.82 -0.523,-0.09 h -0.856 l -0.431,0.184 -0.265,0.024 -0.299,-0.208 -0.531,0.523 -0.304,0.632 -0.553,1.497 -0.776,0.928 -0.189,0.555 -0.042,0.051 -0.147,0.279 -0.049,0.158 -0.067,0.287 0.172,0.459 -0.032,0.093 -0.052,0.105 -0.126,0.104 -0.145,0.152 -0.21,0.328 -0.042,0.227 0.01,0.189 0.056,0.227 -0.038,0.116 -0.088,0.091 -0.112,0.076 -0.119,0.189 -0.032,0.603 -0.052,0.183 -0.098,0.121 -0.123,0.08 -0.129,0.142 -0.039,0.135 0.004,0.113 0.031,0.078 0.137,0.216 0.112,0.237 0.291,0.337 0.171,0.462 0.14,0.501 0.098,0.224 0.103,0.146 0.095,0.046 0.129,0.028 0.358,0.006 0.996,-0.231 0.21,-0.081 0.088,-0.059 0.077,-0.075 0.119,-0.175 0.105,-0.188 0.358,-0.802 0.116,-0.121 0.168,-0.117 0.41,-0.132 0.179,-0.025 0.122,0.023 0.049,0.081 0.032,0.109 0.052,0.392 0.032,0.119 0.042,0.111 0.061,0.098 0.066,0.084 0.151,0.14 0.623,0.369 0.091,0.079 0.035,0.093 -0.01,0.102 -0.053,0.085 -0.08,0.068 -0.284,0.161 -0.084,0.062 0.007,0.112 0.68,0.489 1.512,0.559 -0.411,0.502 -0.063,0.12 -0.568,1.552 -0.168,0.352 -0.137,0.217 -0.095,0.054 -0.452,0.16 -0.48,0.386 -0.144,0.19 -0.08,0.153 -0.025,0.308 -0.045,0.216 -0.135,0.344 -0.063,0.218 -0.021,0.159 0.035,0.316 -0.217,0.279 0.06,0.585 -0.032,0.149 -0.049,0.124 -0.606,0.72 -0.088,0.208 0.011,0.118 0.088,0.01 0.108,-0.005 0.105,0.017 0.091,0.14 -0.014,0.138 -0.08,0.195 -0.032,0.175 -0.007,0.179 0.011,0.23 -0.046,0.113 -0.094,0.035 -0.228,-0.038 -0.124,0.026 -0.144,0.122 -0.056,0.122 -0.007,0.131 0.074,0.261 0.028,0.186 0.011,0.311 -0.05,0.159 -0.07,0.113 -0.178,0.104 -0.463,0.123 -0.189,0.218 -0.243,0.379 -0.501,0.962 -0.171,0.436 -0.07,0.294 0.038,0.101 0.056,0.099 0.06,0.08 0.473,0.417 0.063,0.087 0.056,0.1 0.042,0.099 0.04,0.113 0.014,0.202 -0.107,0.958 -0.154,0.606 -0.056,0.503 -0.003,0.245 0.045,0.142 0.06,0.092 2.883,3.062 0.087,0.133 0.081,0.19 0.105,0.394 0.028,0.221 0.004,0.185 -0.119,1.999 -0.115,0.042 -0.14,-0.065 -0.35,-0.311 -0.162,-0.09 -0.397,0.02 -1.053,0.614 -0.437,0.151 -0.219,0.113 -1.427,2.106 -0.642,0.659 -0.624,0.315 -0.591,0.237 -0.415,0.343 -0.248,0.523 -0.089,0.795 0.077,0.838 0.367,1.69 0.077,0.94 -0.012,0.985 -0.093,0.738 -0.311,0.449 -0.649,0.114 -0.299,-0.064 -0.96,-0.207 -0.614,-0.334 -0.481,-0.51 -0.189,-0.414 0.086,-0.139 0.15,-0.114 0.009,-0.33 -0.135,-0.299 -0.225,-0.269 -0.259,-0.198 -0.64,-0.324 -1.111,-1.466 -0.468,-0.325 -0.98,-0.219 -0.489,-0.226 -0.441,-0.448 -0.226,-0.318 -0.096,-0.274 0.079,-0.126 0.528,-0.46 0.668,-1.288 0.063,-1.193 -0.49,-1.053 -0.988,-0.856 -0.246,-0.082 -0.467,-0.051 -0.226,-0.174 -0.161,-0.334 -0.049,-0.373 -0.003,-0.363 -0.119,-0.924 -0.042,-0.066 -0.219,-0.482 -0.017,-0.071 -0.282,-0.366 -0.161,-0.134 -0.218,-0.067 -1.602,-0.362 -0.6,-0.42 -0.498,-0.948 0.143,-0.661 -0.154,-0.048 -0.032,-0.09 v -0.236 l 0.281,-1.826 0.07,-0.931 0.007,-0.533 0.119,-0.668 0.042,-0.16 0.092,-0.554 0.046,-0.147 0.059,-0.113 0.067,-0.072 0.192,-0.148 0.47,-0.251 0.077,-0.074 0.028,-0.277 -0.007,-0.435 -0.112,-1.035 v -0.436 l 0.028,-0.28 0.109,-0.188 0.035,-0.103 0.021,-0.121 -0.155,-0.425 -0.735,-1.068 -2.175,-0.687 -0.6,-0.445 -0.182,-0.108 -0.172,-0.048 -0.234,-0.03 -1.319,0.061 -0.22,0.064 -0.267,0.194 -0.095,0.053 -0.109,0.043 -2.18,0.488 -0.179,-0.032 -0.204,-0.065 -0.308,-0.18 -0.203,-0.083 -0.197,-0.05 -0.414,0.029 -0.175,-0.039 -0.158,-0.081 -0.452,-0.425 -0.27,-0.326 -0.147,-0.15 -0.463,-0.271 -0.081,-0.064 -0.291,-0.306 -0.084,-0.061 -3.303,-1.108 -0.147,-0.139 -0.186,-0.043 -0.277,-0.013 -1.101,0.152 -0.392,0.118 -0.068,0.038 -0.06,0.058 -0.031,0.078 -0.004,0.055 v 0.028 l 0.081,0.277 0.01,0.112 -0.115,-0.019 -0.144,-0.058 -0.956,-1.055 -0.313,-0.346 -10e-4,-10e-4 0.146,-0.231 0.156,-0.399 0.182,-0.36 0.302,-0.229 0.967,-0.423 0.175,-0.134 -0.024,-0.4 -0.201,-0.488 -0.467,-0.838 -0.731,-0.873 -0.116,-0.188 0.114,-0.929 0.243,-0.641 v -0.503 l -0.614,-0.516 -0.43,-0.784 -0.152,-0.156 -0.119,0.043 -0.283,0.344 -0.179,0.078 -0.797,-0.22 -0.808,-0.368 -0.292,-0.28 -0.392,-0.686 -0.332,-0.301 -0.205,-0.049 -0.528,-0.007 -0.178,-0.079 -0.119,-0.271 0.105,-0.173 0.131,-0.147 -0.044,-0.198 -0.736,-0.354 -0.812,0.287 -0.83,0.448 -0.791,0.134 -0.171,-0.087 -0.406,-0.316 -0.196,-0.112 -0.178,-0.029 -0.408,0.015 -0.201,-0.037 -0.784,-0.45 -0.075,-0.063 -0.334,-0.28 -0.268,-0.361 0.397,-0.607 0.368,-0.318 0.035,-0.224 -0.026,-0.255 0.061,-0.288 0.271,-0.47 0.238,-0.204 0.792,-0.074 0.593,-0.431 0.145,-0.913 -0.045,-1.781 0.395,-0.665 0.74,-0.641 1.558,-0.908 0.427,-0.108 1.114,0.223 0.393,-0.033 1.132,-0.466 0.407,-0.445 0.093,-0.159 0.049,-0.187 -0.007,-0.097 -0.021,-0.085 0.003,-0.152 -0.043,-0.023 -0.112,-0.5 -0.016,-0.041 0.257,-0.687 0.121,-0.783 0.087,-0.271 0.686,-1.298 0.131,-0.413 -0.404,-0.008 -0.815,0.242 -0.416,-0.003 -0.518,-0.285 -0.416,-0.512 -0.161,-0.643 0.255,-0.671 -0.316,-0.237 -0.775,-1.345 -1.151,-0.884 -0.241,-0.424 0.07,-0.982 0.507,-0.884 0.687,-0.724 0.59,-0.494 -0.759,-0.419 -0.158,-0.272 -0.19,-0.983 -0.056,-0.189 -0.004,-0.159 0.084,-0.29 0.093,-0.143 0.498,-0.584 0.177,-0.309 0.266,-0.639 0.126,-0.238 0.204,-0.213 0.448,-0.323 0.208,-0.244 0.142,-0.309 0.075,-0.294 0.103,-0.274 0.212,-0.242 0.302,-0.124 0.268,0.044 0.271,0.091 0.304,0.026 0.285,-0.083 1.329,-0.708 0.906,-0.331 2.403,-1.481 0.425,-0.18 0.588,-0.099 0.297,-0.115 0.156,-0.228 0.122,-0.261 0.212,-0.208 0.218,-0.05 0.908,-0.023 3.931,1.133 0.651,0.052 0.93,0.608 0.698,-0.126 -0.311,-1.02 0.276,-0.584 0.5,-0.5 0.265,-0.571 0.483,0.023 0.648,0.246 0.004,0.06 -0.011,0.067 -0.084,0.058 -0.059,0.081 -0.039,0.107 -0.014,0.112 0.014,0.11 0.028,0.105 0.039,0.091 0.168,0.284 0.066,0.078 0.151,0.139 0.084,0.057 0.095,0.045 0.162,0.003 0.21,-0.044 0.368,-0.162 0.312,-0.191 0.073,-0.071 0.611,-0.112 1.473,-0.065 0.427,-0.13 1.561,-0.197 0.161,0.035 0.126,0.065 0.043,0.073 0.024,0.101 -0.017,0.172 -0.046,0.09 -0.053,0.054 -0.178,0.079 -0.091,0.054 -0.065,0.082 -0.035,0.102 0.028,0.159 0.079,0.172 0.21,0.25 0.109,0.09 0.136,0.041 0.228,-0.04 0.312,-0.12 0.22,-0.049 0.114,0.005 0.073,0.024 0.06,0.034 0.143,0.12 0.235,0.334 0.217,0.361 0.049,0.141 0.035,0.167 v 0.297 l -0.049,0.154 -0.073,0.109 -0.084,0.064 -0.046,0.126 -0.014,0.194 0.063,0.354 v 0.21 l -0.017,0.166 -0.028,0.115 -0.007,0.122 0.028,0.212 0.157,0.764 -0.01,0.224 -0.053,0.154 -0.08,0.066 -0.06,0.08 v 0.113 l 0.056,0.116 0.165,0.12 0.249,0.116 0.154,0.127 0.137,0.165 0.158,0.228 0.151,0.161 0.427,0.303 0.081,0.092 0.056,0.132 0.059,0.332 0.084,0.301 0.254,0.503 0.115,0.189 0.112,0.132 0.092,0.039 0.339,0.103 0.081,0.049 0.077,0.068 0.077,0.083 0.165,0.252 0.081,0.193 0.046,0.199 -0.011,0.342 -0.05,0.168 -0.066,0.127 -0.14,0.148 -0.06,0.083 -0.042,0.103 -0.018,0.122 0.028,0.158 0.074,0.209 0.182,0.308 0.103,0.349 0.154,0.393 0.06,0.115 0.343,0.45 0.308,0.072 0.238,-0.237 0.156,-0.225 0.168,-0.131 0.361,-0.201 0.22,-0.205 0.172,-0.129 0.112,-0.06 0.422,-0.143 0.192,-0.093 0.074,-0.069 0.063,-0.075 0.06,-0.086 0.101,-0.049 0.144,0.01 0.266,0.172 0.119,0.132 0.082,0.133 0.028,0.097 0.035,0.095 0.035,0.053 0.052,0.066 0.067,0.069 0.326,0.246 0.101,0.041 0.12,0.006 0.196,-0.099 0.164,-0.039 0.18,0.005 0.231,0.106 0.634,0.089 1.986,-0.058 0.406,0.269 0.168,0.198 0.172,0.265 0.049,0.098 0.038,0.105 0.007,0.107 -0.028,0.105 -0.038,0.092 -0.035,0.101 0.007,0.106 0.031,0.109 0.082,0.211 0.032,0.111 0.08,0.218 0.053,0.087 0.08,0.069 0.182,0.033 0.249,0.005 1.781,-0.195 0.183,-0.055 0.126,-0.069 0.063,-0.083 0.049,-0.093 0.088,-0.205 0.105,-0.193 0.189,-0.241 0.13,-0.295 0.109,-0.191 0.175,-0.246 0.042,-0.1 0.014,-0.118 -0.063,-0.351 v -0.12 l 0.031,-0.103 0.053,-0.078 0.06,-0.04 0.057,0.013 0.063,0.059 0.21,0.299 0.119,0.21 0.063,0.078 0.336,0.247 0.074,0.072 0.063,0.083 0.049,0.095 0.038,0.109 0.12,0.472 0.049,0.095 0.169,0.068 0.259,0.031 0.568,-0.011 0.46,-0.071 0.133,0.031 0.178,0.152 0.081,0.138 0.039,0.142 0.007,0.131 -0.004,0.132 -0.021,0.262 -0.003,0.424 -0.011,0.132 -0.028,0.115 -0.045,0.102 -0.057,0.084 -0.234,0.198 -0.275,0.166 -0.07,0.069 -0.031,0.09 0.017,0.095 0.049,0.086 0.387,0.341 0.249,0.273 0.031,0.054 0.035,0.086 0.102,0.408 0.031,0.07 0.056,0.069 0.126,0.054 0.488,0.062 0.19,-0.014 0.14,-0.055 0.203,-0.329 0.13,-0.099 0.182,-0.113 0.383,-0.178 0.312,-0.207 0.322,-0.407 0.315,-0.263 1.087,-0.408 0.235,-0.147 0.137,-0.152 0.018,-0.272 0.018,-0.123 0.038,-0.098 0.067,-0.078 0.091,-0.075 0.116,-0.064 0.308,-0.122 0.315,-0.076 0.133,0.005 0.348,0.079 0.214,0.1 0.284,0.182 0.168,0.21 0.087,0.457 -0.038,2.164 z"
       style="fill:none;stroke:#591902;stroke-width:2.25000006;stroke-linecap:round;stroke-linejoin:round;stroke-miterlimit:4;stroke-dasharray:none;stroke-opacity:1"
       id="path40" />
  </g>
</svg>
