<?xml version="1.0" encoding="UTF-8" standalone="no"?>
<!-- Created with Inkscape (http://www.inkscape.org/) -->

<svg
   version="1.1"
   id="svg2"
   width="359.30933"
   height="465.44919"
   viewBox="0 0 359.30933 465.44919"
   sodipodi:docname="outline - campania.svg"
   inkscape:version="1.3.1 (91b66b0783, 2023-11-16)"
   inkscape:export-filename="outline - campania.png"
   inkscape:export-xdpi="96"
   inkscape:export-ydpi="96"
   xmlns:inkscape="http://www.inkscape.org/namespaces/inkscape"
   xmlns:sodipodi="http://sodipodi.sourceforge.net/DTD/sodipodi-0.dtd"
   xmlns="http://www.w3.org/2000/svg"
   xmlns:svg="http://www.w3.org/2000/svg">
  <defs
     id="defs6" />
  <sodipodi:namedview
     id="namedview4"
     pagecolor="#ffffff"
     bordercolor="#000000"
     borderopacity="0.25"
     inkscape:showpageshadow="2"
     inkscape:pageopacity="0.0"
     inkscape:pagecheckerboard="0"
     inkscape:deskcolor="#d1d1d1"
     inkscape:zoom="2.4458332"
     inkscape:cx="90.562186"
     inkscape:cy="199.72744"
     inkscape:window-width="2880"
     inkscape:window-height="1514"
     inkscape:window-x="2869"
     inkscape:window-y="-11"
     inkscape:window-maximized="1"
     inkscape:current-layer="g8"
     showgrid="false" />
  <g
     id="g8"
     inkscape:groupmode="layer"
     inkscape:label="ink_ext_XXXXXX"
     transform="matrix(1.3333333,0,0,-1.3333333,-300.36666,586.08665)">
    <path
       d="m 398.069,235.064 0.198,0.074 0.162,0.218 -0.1,0.083 -0.867,0.115 -0.203,0.015 -0.266,-0.076 -0.055,-0.512 0.28,-0.095 0.652,0.191 z m -5.535,5.931 0.067,-0.014 0.021,0.094 h 0.022 l 0.107,-0.211 0.144,-0.076 -0.076,0.309 0.143,0.074 0.137,0.008 -0.096,0.203 0.123,0.074 0.068,0.008 0.116,-0.008 -0.102,0.137 -0.211,0.084 -0.082,0.092 -0.109,-0.026 -0.116,-0.15 -0.089,-0.061 0.054,-0.082 -0.068,-0.244 z m 40.476,-14.443 -0.028,0.159 -0.039,0.109 -0.045,0.098 -0.126,0.148 -0.299,0.25 -0.067,0.068 -0.059,0.077 -0.147,0.243 -0.064,0.074 -0.073,0.064 -0.441,0.259 -0.158,0.127 -0.064,0.074 -0.049,0.079 -0.077,0.178 -0.053,0.202 -0.077,1.107 -0.035,0.162 -0.112,0.156 -0.13,0.142 -0.077,0.06 -0.087,0.047 -0.102,0.031 -0.345,0.017 -0.105,0.03 -0.094,0.046 -0.081,0.059 -0.392,0.414 -0.228,0.312 -0.133,0.137 -0.091,0.051 -0.102,0.034 -0.116,0.009 -0.113,-0.008 -0.129,0.066 -0.14,0.14 -0.27,0.584 -0.088,0.131 -0.154,0.117 -0.267,0.156 -0.154,0.123 -0.088,0.094 -0.084,0.113 -0.122,0.201 -0.046,0.142 -0.021,0.134 0.007,0.104 0.01,0.084 0.07,0.238 0.032,0.207 -0.014,0.138 -0.497,1.323 -0.056,0.079 -0.253,0.286 -0.295,0.269 -0.172,0.107 -0.213,0.072 -0.267,0.05 -0.14,0.044 -0.147,0.11 -0.061,0.098 -0.023,0.099 0.007,0.068 0.021,0.098 0.028,0.088 0.067,0.137 0.266,0.385 0.07,0.07 0.08,0.057 0.26,0.139 0.08,0.075 0.063,0.109 0.049,0.2 -0.007,0.134 -0.035,0.106 -0.073,0.062 -0.102,0.043 -0.375,0.07 -0.115,0.035 -0.52,0.312 -0.063,0.065 -0.259,0.402 -0.063,0.074 -0.151,0.126 -0.354,0.218 -0.105,0.108 -0.112,0.162 -0.173,0.328 -0.07,0.198 -0.038,0.166 -0.032,0.8 -0.084,0.226 0.004,0.167 0.01,0.129 -0.031,0.093 -0.067,0.092 0.017,0.089 0.039,0.08 0.035,0.123 -0.045,0.07 -0.099,0.092 -0.101,0.054 -0.312,0.334 0.403,0.409 0.084,0.28 -0.014,0.115 -0.07,0.252 -0.028,0.197 v 0.395 l 0.105,0.297 0.084,0.384 2.297,0.084 0.416,0.169 0.783,0.498 0.287,0.27 0.167,0.318 0.251,0.828 0.386,0.77 0.129,0.402 -0.038,0.464 -0.399,0.852 -2.332,0.723 -0.702,0.486 -0.284,0.248 -0.13,0.051 -0.101,-0.01 -0.074,-0.06 -0.133,-0.145 -0.222,-0.028 -2.145,0.149 -0.164,0.04 -0.119,0.062 -0.25,0.437 -0.127,0.148 -0.07,0.065 -1.048,0.65 -0.137,0.118 -0.042,0.085 -0.017,0.095 0.021,0.099 0.042,0.09 0.645,0.754 0.151,0.116 0.21,0.201 0.063,0.08 0.053,0.088 0.031,0.098 -0.017,0.12 -0.165,0.26 -0.031,0.099 0.042,0.073 0.294,0.086 0.084,0.049 0.063,0.061 0.035,0.073 -0.031,0.113 -0.084,0.177 -0.235,0.338 -0.14,0.15 -0.13,0.086 -0.439,0.164 -0.76,0.445 -0.189,0.06 -0.081,-0.045 -0.179,-0.244 -0.08,-0.062 -0.103,-0.042 -0.087,-0.023 -0.267,-0.017 -0.343,0.992 -0.259,0.24 -0.254,0.049 -0.318,0.116 -0.256,0.152 -0.109,0.123 -0.077,0.15 -0.112,0.396 -0.021,0.16 0.014,0.135 0.053,0.094 0.063,0.085 0.073,0.068 0.077,0.056 0.06,0.067 0.038,0.092 0.021,0.1 0.043,0.093 0.066,0.067 0.186,0.082 0.07,0.065 0.045,0.095 0.011,0.176 -0.06,0.678 -0.059,0.203 -0.077,0.132 -0.48,0.236 -0.102,0.104 -0.108,0.141 -0.281,0.434 -0.116,0.095 -0.428,0.148 -0.599,0.322 -0.109,0.076 -1.321,-0.814 -0.226,-0.101 -0.175,-0.026 -0.856,-0.256 -0.665,-0.336 -0.559,-0.159 -0.108,0.033 -0.182,0.095 -0.154,0.124 -0.141,0.145 -0.087,0.07 -0.105,0.065 -0.179,0.054 -0.116,-0.016 -0.087,-0.062 -0.053,-0.08 -0.042,-0.107 -0.091,-0.339 -0.074,-0.128 -0.123,-0.134 -0.27,-0.2 -0.165,-0.082 -0.15,-0.045 -1.508,-0.042 -0.157,-0.026 -0.089,-0.037 -0.175,-0.179 -1.021,-0.687 -0.175,-0.07 -0.158,-0.019 -0.112,0.028 -0.098,0.046 -0.077,0.059 -0.063,0.072 -0.158,0.255 -0.091,0.075 -0.122,0.041 -0.674,-0.037 -0.676,0.068 -0.324,0.394 -0.154,0.344 -0.154,0.159 -0.136,0.083 -0.4,0.031 -0.239,0.049 -1.438,0.609 -0.928,0.331 -0.765,0.372 -0.448,0.376 -0.088,0.051 -0.112,0.047 -0.618,0.135 -0.374,0.154 -0.632,-0.011 -0.697,-0.111 -0.755,0.075 -0.213,0.073 -0.098,-0.129 -0.109,-0.215 -0.116,-0.161 -0.094,-0.191 -0.061,-0.08 -0.27,-0.284 -0.108,-0.173 -0.039,-0.103 -0.024,-0.105 v -0.111 l 0.024,-0.1 0.046,-0.09 0.15,-0.163 0.212,-0.17 0.084,-0.09 0.063,-0.144 0.024,-0.151 0.004,-0.195 0.014,-0.137 0.042,-0.216 -0.011,-0.084 -0.105,-0.069 -0.115,-0.026 -0.25,-0.023 -0.627,0.063 -0.48,0.112 -0.096,0.048 -0.081,0.059 -0.133,0.169 -0.634,1.109 -0.077,0.195 -0.052,0.208 -0.086,0.118 -0.077,0.088 -0.515,0.291 -0.206,-0.008 -0.175,-0.07 -0.151,-0.111 -0.604,-0.625 -0.045,-0.036 -0.288,-0.197 -0.164,-0.076 -0.534,-0.168 -0.084,-0.051 -0.045,-0.089 -0.011,-0.114 0.284,-0.569 0.07,-0.2 0.005,-0.153 -0.019,-0.206 -0.119,-0.705 0.07,-0.681 -0.112,-0.415 0.007,-0.367 -0.021,-0.112 -0.035,-0.094 -0.053,-0.093 -0.073,-0.099 -0.113,-0.102 -0.185,-0.138 -0.207,-0.054 -0.161,-0.067 -0.179,-0.102 -0.113,-0.118 -0.102,-0.215 -0.021,-0.142 0.011,-0.132 -0.056,-0.108 -0.116,-0.089 -0.77,-0.135 -0.207,-0.088 -0.407,-0.26 1.058,-0.949 1.384,-1.751 0.736,-1.27 0.595,-1.199 0.048,-0.305 0.041,-0.635 0.077,-0.283 0.276,-0.284 0.794,-0.529 1.266,-2.222 0.522,-1.418 0.176,-1.089 -0.251,-1.223 0.148,-0.205 0.623,-0.098 0.164,-0.082 -0.029,0.404 -0.087,0.394 -0.027,0.352 0.143,0.27 0.304,0.075 0.351,-0.127 0.536,-0.327 0.686,-0.083 0.375,-0.441 0.481,0.009 0.209,0.581 0.247,0.315 0.559,0.189 0.618,0.069 0.417,-0.037 0.41,-0.318 0.826,-0.929 0.4,-0.496 0.361,-0.235 0.268,-0.318 0.248,-0.139 0.359,-0.177 0.482,0.123 0.407,-0.322 0.305,-0.432 0.127,-0.54 -0.076,-0.486 -0.727,-0.271 -0.891,-0.889 -0.148,-0.361 -0.245,-0.205 -0.173,-0.091 -0.454,-0.036 -0.495,-0.244 -0.221,-0.564 0.043,-0.621 0.288,-0.41 0.298,0.386 1.034,0.548 0.463,0.398 1.115,0.27 0.343,0.237 0.673,-0.379 0.629,-0.186 0.613,0.123 0.949,0.835 0.281,0.094 1.182,-0.072 0.28,0.073 0.667,0.525 0.729,0.294 0.673,-0.203 0.627,-0.501 0.581,-0.603 0.588,-0.756 0.618,-1.01 1.968,-4.191 0.505,-1.002 0.049,-0.849 -0.135,-0.307 -0.487,-0.19 -0.193,-0.202 -0.236,-0.155 -0.266,-0.061 -0.221,-0.121 v -0.279 l 0.153,-0.508 -0.164,-0.635 -0.565,-0.794 0.096,-0.501 0.248,-0.106 0.362,-0.301 0.428,0.11 0.209,-0.206 0.216,-0.155 0.615,-0.267 0.445,-0.431 0.274,-0.597 0.278,-0.189 0.417,-0.07 0.682,0.192 0.383,0.051 0.325,-0.153 1.418,-1.486 0.445,-0.213 0.548,-0.35 0.668,-0.773 0.355,-0.766 -0.405,-0.337 v -0.201 l 0.248,-0.018 0.245,0.033 0.232,0.075 0.213,0.111 0.261,-0.072 0.652,-0.87 0.402,-0.154 1.111,-0.145 0.44,0.171 0.683,0.869 0.802,0.51 0.403,0.616 0.492,0.298 1.701,-0.135 0.318,0.135 0.01,-0.38 0.128,-0.211 0.368,-0.317 0.368,0.415 0.032,0.174 -0.07,0.038 -0.084,0.025 -0.063,0.041 -0.074,0.067 -0.052,0.145 0.014,0.092 0.22,0.225 0.203,0.26 0.555,0.977 0.084,0.237 0.007,0.121 -0.063,0.369 -0.007,0.201 0.035,0.12 0.06,0.092 0.185,0.182 0.235,0.305 0.089,0.091 0.072,0.059 0.173,0.1 0.182,0.074 0.105,0.079 0.116,0.11 0.175,0.223 0.13,0.107 0.283,0.16 0.215,0.444 0.095,0.267 0.021,0.105 0.01,0.129 z m -41.229,14.163 -0.441,0.301 -1.427,0.511 h -0.46 l 0.099,-0.29 0.067,-0.116 -0.195,-0.139 -0.122,-0.273 -0.158,-0.581 0.239,-0.224 0.504,-0.244 0.184,-0.159 0.302,0.174 0.367,0.132 0.341,0.034 0.222,-0.119 0.316,0.303 0.162,0.103 -0.077,0.233 0.005,0.173 z"
       style="fill:#ffffff;stroke:#a67d03;stroke-width:1.12500003;stroke-linecap:round;stroke-linejoin:round;stroke-miterlimit:4;stroke-dasharray:none;stroke-opacity:1;fill-opacity:1"
       id="path72" />
  </g>
</svg>
