<?xml version="1.0" encoding="UTF-8" standalone="no"?>
<!-- Created with Inkscape (http://www.inkscape.org/) -->

<svg
   version="1.1"
   id="svg2"
   width="359.30933"
   height="465.44919"
   viewBox="0 0 359.30933 465.44919"
   sodipodi:docname="outline - abruzzo.svg"
   inkscape:version="1.3.1 (91b66b0783, 2023-11-16)"
   inkscape:export-filename="outline - abruzzo.png"
   inkscape:export-xdpi="96"
   inkscape:export-ydpi="96"
   xmlns:inkscape="http://www.inkscape.org/namespaces/inkscape"
   xmlns:sodipodi="http://sodipodi.sourceforge.net/DTD/sodipodi-0.dtd"
   xmlns="http://www.w3.org/2000/svg"
   xmlns:svg="http://www.w3.org/2000/svg">
  <defs
     id="defs6" />
  <sodipodi:namedview
     id="namedview4"
     pagecolor="#ffffff"
     bordercolor="#000000"
     borderopacity="0.25"
     inkscape:showpageshadow="2"
     inkscape:pageopacity="0.0"
     inkscape:pagecheckerboard="0"
     inkscape:deskcolor="#d1d1d1"
     inkscape:zoom="3.4589305"
     inkscape:cx="125.03865"
     inkscape:cy="221.02208"
     inkscape:window-width="2880"
     inkscape:window-height="1514"
     inkscape:window-x="2869"
     inkscape:window-y="-11"
     inkscape:window-maximized="1"
     inkscape:current-layer="g8"
     showgrid="false" />
  <g
     id="g8"
     inkscape:groupmode="layer"
     inkscape:label="ink_ext_XXXXXX"
     transform="matrix(1.3333333,0,0,-1.3333333,-300.36666,586.08665)">
    <path
       d="m 409.779,280.918 0.024,0.094 v 0 l -0.133,0.028 -0.379,0.175 -0.253,0.439 -0.151,0.598 -0.131,1.252 -0.176,0.468 -0.352,0.301 -0.908,0.173 -1.302,0.531 -0.805,0.52 -2.965,2.922 -0.941,1.56 -0.705,0.61 -1.627,1.077 -1.438,1.277 -3.281,3.93 -0.147,0.329 -0.127,0.467 -1.401,2.253 -0.469,0.978 -0.809,2.082 -0.884,3.171 -0.383,-0.044 -1.616,-0.399 -1.273,-0.568 -0.467,-0.149 -0.337,0.023 -0.136,-0.047 -0.144,-0.09 -0.201,-0.229 -0.087,-0.155 -0.049,-0.137 -0.025,-0.282 -0.017,-0.113 -0.046,-0.108 -0.059,-0.087 -0.063,-0.077 -0.155,-0.134 -0.378,-0.171 -0.614,-0.122 -0.172,0.008 -0.115,0.025 -0.204,0.076 -0.112,0.019 -0.143,-0.028 -0.622,-0.233 -0.15,-0.03 -0.123,0.003 -0.098,0.036 -0.084,0.053 -0.147,0.133 -0.088,0.06 -0.098,0.037 -0.136,-0.046 -0.135,-0.113 -0.192,-0.287 -0.246,-0.525 -0.056,-0.085 -0.189,-0.24 -0.056,-0.091 -0.045,-0.1 -0.032,-0.121 -0.031,-0.261 -0.028,-0.124 -0.035,-0.109 -0.109,-0.1 -0.166,-0.082 -0.368,-0.089 -0.22,-0.084 -0.186,-0.115 -0.172,-0.236 -0.07,-0.176 -0.035,-0.157 -0.038,-0.259 -0.222,-0.124 -0.189,-0.079 -1.673,-0.229 -0.052,-0.248 0.021,-0.124 0.049,-0.163 0.126,-0.203 0.091,-0.12 0.088,-0.092 0.087,-0.05 0.105,-0.041 0.246,-0.059 0.102,-0.042 0.091,-0.051 0.081,-0.062 0.067,-0.068 0.01,-0.229 -0.007,-0.187 -0.396,-1.371 -0.698,-0.349 -0.105,-0.03 -0.123,-0.016 -0.491,0.027 -0.337,-0.054 -0.119,10e-4 -0.21,0.065 -0.091,0.052 -0.203,0.084 -0.112,0.026 -0.636,0.014 -0.238,0.057 -0.315,0.121 -0.236,0.047 -0.119,0.007 -0.098,-0.024 -0.084,-0.107 -0.063,-0.177 -0.056,-0.394 -0.063,-0.225 -0.144,-0.182 -0.13,-0.047 -0.364,-0.036 -0.096,-0.039 -0.073,-0.061 -0.053,-0.096 -0.021,-0.122 0.053,-0.186 0.063,-0.111 0.08,-0.085 0.25,-0.177 0.074,-0.068 0.066,-0.077 0.049,-0.088 0.028,-0.105 0.011,-0.112 -0.014,-0.189 0.007,-0.072 0.045,-0.196 -0.007,-0.142 -0.042,-0.167 -0.154,-0.249 -0.105,-0.124 -0.101,-0.092 -0.32,-0.229 -0.063,-0.078 -0.046,-0.125 -0.028,-0.167 0.021,-0.277 0.032,-0.165 0.035,-0.135 0.091,-0.181 0.122,-0.156 0.075,-0.065 0.175,-0.117 0.421,-0.16 0.091,-0.054 0.063,-0.072 v -0.158 l -0.074,-0.225 -0.354,-0.614 -0.066,-0.151 -0.021,-0.138 0.01,-0.256 0.035,-0.148 0.056,-0.113 0.074,-0.068 0.585,-0.281 0.238,-0.18 0.141,-0.139 0.113,-0.163 0.045,-0.092 0.035,-0.098 0.067,-0.469 0.056,-0.217 0.07,-0.196 0.101,-0.186 0.063,-0.078 0.449,-0.391 0.063,-0.076 0.054,-0.083 0.266,-0.544 0.063,-0.077 0.066,-0.072 0.085,-0.059 0.094,-0.048 0.435,-0.109 0.059,-0.033 0.056,-0.045 0.056,-0.07 0.043,-0.088 0.031,-0.107 0.049,-0.219 0.035,-0.099 0.054,-0.089 0.077,-0.057 0.098,-0.048 0.241,-0.05 0.375,-0.005 0.119,-0.02 0.102,-0.035 0.085,-0.06 0.045,-0.081 -0.085,-0.104 -0.206,-0.094 -0.844,-0.182 -0.268,-0.159 -0.08,-0.131 -0.028,-0.134 0.024,-0.106 0.091,-0.178 0.032,-0.089 -0.014,-0.102 -0.039,-0.086 -0.059,-0.081 -0.07,-0.071 -0.081,-0.061 -0.112,-0.045 -0.133,-0.009 -0.217,0.064 -0.232,0.136 -0.091,0.018 -0.134,-0.091 -0.175,-0.163 -0.126,-0.036 h -0.172 l -0.305,0.077 -0.164,0.067 -0.123,0.071 -0.411,0.306 -0.371,0.205 -0.694,0.174 -0.986,0.454 -0.101,-0.016 -0.106,-0.078 -0.094,-0.251 -0.085,-0.316 -0.046,-0.1 -0.052,-0.094 -0.091,-0.129 -0.498,-0.479 -0.849,-0.516 -0.038,-0.187 v -0.099 l 0.112,-1.346 0.021,-0.099 0.133,-0.402 0.042,-0.09 0.063,-0.098 0.176,-0.118 0.291,-0.146 0.519,-0.126 0.231,-0.005 0.155,0.05 0.07,0.066 0.109,0.029 4.137,-2.327 0.35,0.014 0.249,-0.036 0.116,-0.065 0.117,-0.094 0.311,-0.415 0.246,-0.146 0.262,-0.094 0.238,-0.203 0.11,-0.142 0.035,-0.141 -0.007,-0.131 -0.021,-0.119 -0.039,-0.11 -0.197,-0.374 -0.042,-0.1 -0.028,-0.12 -0.042,-0.786 0.004,-0.126 0.014,-0.117 0.024,-0.108 0.039,-0.093 0.091,-0.066 0.13,-0.03 0.239,0.039 0.28,0.078 0.109,0.016 0.119,0.003 0.119,-0.017 2.174,-1.077 0.175,-0.153 0.106,-0.134 0.031,-0.1 0.039,-0.089 0.049,-0.082 0.066,-0.075 0.077,-0.07 0.088,-0.056 0.152,-0.047 0.206,-0.031 0.396,0.003 0.365,0.048 0.46,0.244 0.36,0.311 0.379,0.455 0.15,0.133 0.088,0.049 0.095,0.034 0.204,-0.031 1.336,-0.444 0.189,-0.191 0.098,-0.129 0.06,-0.125 0.126,-0.404 0.08,-0.186 0.049,-0.09 0.063,-0.087 0.13,-0.084 0.201,-0.08 0.333,-0.049 0.178,0.017 0.123,0.043 0.073,0.064 0.084,0.056 0.155,-0.028 0.224,-0.103 0.453,-0.318 0.277,-0.147 0.357,-0.103 0.316,0.009 0.431,-0.211 1.217,-1.07 0.427,0.118 0.678,-0.156 0.15,0.017 0.148,0.066 0.126,0.109 0.388,0.229 0.106,0.081 0.432,0.561 0.196,0.199 0.14,0.066 0.126,0.006 0.284,-0.195 0.168,-0.037 0.091,0.049 0.334,0.364 0.564,0.363 0.351,0.17 0.477,0.158 0.175,0.087 0.095,0.092 v 0.068 l -0.025,0.067 -0.052,0.062 -0.071,0.064 -0.252,0.174 -0.066,0.073 -0.105,0.17 -0.042,0.092 -0.07,0.232 -0.075,0.156 -0.088,0.138 -0.147,0.175 -0.035,0.12 0.014,0.165 0.161,0.323 0.12,0.139 0.134,0.072 0.55,-0.07 0.15,0.001 0.453,0.458 0.063,0.079 0.077,0.116 0.221,0.456 0.996,0.835 0.105,0.043 0.147,0.028 0.035,-0.073 0.039,-0.049 0.049,-0.048 0.144,-0.111 0.395,-0.188 0.081,-0.057 0.07,-0.069 0.054,-0.081 0.14,-0.274 0.052,-0.079 0.088,-0.092 0.116,-0.094 0.21,-0.12 0.133,-0.02 0.098,0.04 0.154,0.217 0.165,0.112 0.098,-0.011 0.082,-0.053 0.066,-0.09 0.095,-0.089 0.785,-0.561 0.136,-0.14 0.06,-0.077 0.046,-0.084 0.031,-0.101 0.011,-0.113 -0.056,-0.361 v -0.123 l 0.021,-0.104 0.042,-0.094 0.113,-0.167 0.119,-0.152 0.108,-0.166 0.035,-0.098 0.014,-0.102 -0.017,-0.109 -0.074,-0.212 -0.021,-0.102 0.025,-0.113 0.087,-0.036 0.119,0.003 0.358,0.097 0.929,0.516 0.109,0.112 0.122,0.158 0.06,0.17 0.102,0.209 0.575,0.733 0.435,0.717 0.743,0.979 0.564,0.61 0.228,0.32 0.088,0.186 -0.014,0.117 -0.042,0.239 -0.011,0.137 0.035,0.195 0.074,0.081 0.295,0.114 0.228,0.16 1.602,1.624 0.091,0.152 0.004,0.114 -0.018,0.232 0.011,0.244 0.024,0.123 0.116,0.28 0.122,0.208 0.056,0.129 0.025,0.094 z"
       style="fill:#ffffff;stroke:#a67d03;stroke-width:1.12500003;stroke-linecap:round;stroke-linejoin:round;stroke-miterlimit:4;stroke-dasharray:none;stroke-opacity:1;fill-opacity:1"
       id="path92" />
  </g>
</svg>
