<?xml version="1.0" encoding="UTF-8" standalone="no"?>
<!-- Created with Inkscape (http://www.inkscape.org/) -->

<svg
   version="1.1"
   id="svg2"
   width="359.30933"
   height="465.44919"
   viewBox="0 0 359.30933 465.44919"
   sodipodi:docname="outline - puglia.svg"
   inkscape:version="1.3.1 (91b66b0783, 2023-11-16)"
   inkscape:export-filename="outline - puglia.png"
   inkscape:export-xdpi="96"
   inkscape:export-ydpi="96"
   xmlns:inkscape="http://www.inkscape.org/namespaces/inkscape"
   xmlns:sodipodi="http://sodipodi.sourceforge.net/DTD/sodipodi-0.dtd"
   xmlns="http://www.w3.org/2000/svg"
   xmlns:svg="http://www.w3.org/2000/svg">
  <defs
     id="defs6" />
  <sodipodi:namedview
     id="namedview4"
     pagecolor="#ffffff"
     bordercolor="#000000"
     borderopacity="0.25"
     inkscape:showpageshadow="2"
     inkscape:pageopacity="0.0"
     inkscape:pagecheckerboard="0"
     inkscape:deskcolor="#d1d1d1"
     inkscape:zoom="6.9178612"
     inkscape:cx="327.84699"
     inkscape:cy="215.16766"
     inkscape:window-width="2880"
     inkscape:window-height="1514"
     inkscape:window-x="2869"
     inkscape:window-y="-11"
     inkscape:window-maximized="1"
     inkscape:current-layer="g8" />
  <g
     id="g8"
     inkscape:groupmode="layer"
     inkscape:label="ink_ext_XXXXXX"
     transform="matrix(1.3333333,0,0,-1.3333333,-300.36666,586.08665)">
    <path
       d="m 494.547,222.549 -0.059,0.207 0.114,0.342 -0.15,0.077 -0.118,0.135 -0.096,0.179 -1.417,3.4 -1.51,2.089 -0.203,0.195 -0.4,0.187 -0.331,0.445 -0.585,0.981 -0.747,0.63 -0.257,0.279 -0.464,0.799 -0.154,0.11 -0.447,0.099 -2.072,1.179 -1.865,1.55 0.13,1.335 -0.09,0.185 -0.529,0.503 -0.098,0.298 -0.009,0.265 -0.092,0.193 -0.34,0.073 -0.579,-0.189 -0.258,0.004 0.02,0.699 -0.766,0.372 -1.762,0.331 -2.159,1.587 -2.33,0.955 -0.243,0.155 -1.947,0.505 -0.817,0.545 -0.457,0.124 -0.359,0.169 -1.412,1.516 -0.811,0.631 -0.373,0.122 -0.3,0.17 -0.855,1.271 -0.762,0.758 -1.655,1.216 -3.299,1.817 -3.884,1.257 -0.47,0.49 h -0.142 v -0.221 h -0.152 l -0.471,0.399 -5.348,1.814 -0.894,0.614 -0.356,0.356 -0.405,0.322 -1.364,0.374 -3.59,1.954 -4.233,1.949 -0.311,0.32 -0.344,0.274 -1.434,0.454 -1.368,0.95 -0.622,0.601 -0.493,0.704 -0.349,1.009 -0.112,1.215 0.197,1.138 0.57,0.764 2.309,1.201 0.806,0.65 0.599,0.74 0.396,0.35 0.461,0.147 0.41,0.192 0.473,0.439 0.399,0.489 0.193,0.341 0.004,0.529 -0.019,0.39 -0.195,1.121 -0.171,0.572 0.072,0.481 -0.414,-0.019 -0.461,0.824 -0.644,0.194 -0.026,0.052 -1.892,0.485 -5.71,-0.692 -3.685,0.207 -3.735,-0.639 -1.028,0.026 -2.685,0.613 -2.629,-0.007 -0.493,0.102 v 0 l -0.034,-0.09 -0.154,-1.157 0.003,-0.168 -0.024,-0.263 -0.053,-0.184 -0.284,-0.55 -0.222,-0.325 -0.051,-0.144 -0.028,-0.185 0.002,-0.336 0.019,-0.185 0.102,-0.474 -0.018,-0.147 -0.049,-0.206 -0.12,-0.325 -0.014,-0.32 0.017,-0.179 0.042,-0.124 0.021,-0.126 -0.021,-0.4 0.047,-0.265 0.077,-0.189 0.053,-0.087 0.063,-0.069 0.087,-0.062 0.095,-0.046 0.116,-0.032 0.521,-0.07 0.113,-0.035 0.038,-0.072 -0.038,-0.115 -0.281,-0.24 -0.112,-0.068 -0.196,-0.075 -0.417,-0.103 -0.084,-0.058 -0.091,-0.09 -0.211,-0.254 -0.263,-0.222 -0.284,-0.353 -0.091,-0.076 -0.087,-0.048 -0.204,-0.063 -0.119,-0.082 -0.134,-0.13 -0.193,-0.295 -0.266,-0.233 -0.119,-0.079 -0.116,-0.015 -0.101,0.014 -1.014,0.43 -0.115,0.016 -0.106,-0.011 -0.091,-0.036 -0.087,-0.056 -0.145,-0.137 -0.063,-0.083 -0.053,-0.112 -0.035,-0.147 -0.01,-0.238 0.028,-0.422 0.131,-0.908 v -0.126 l -0.021,-0.259 -0.068,-0.376 -0.011,-0.132 v -0.12 l 0.011,-0.102 0.253,-0.308 1.108,-1.013 0.109,-0.076 0.599,-0.322 0.428,-0.148 0.116,-0.095 0.281,-0.434 0.108,-0.141 0.102,-0.104 0.48,-0.236 0.077,-0.132 0.059,-0.203 0.06,-0.678 -0.011,-0.176 -0.045,-0.095 -0.07,-0.065 -0.186,-0.082 -0.066,-0.067 -0.043,-0.093 -0.021,-0.1 -0.038,-0.092 -0.06,-0.067 -0.077,-0.056 -0.073,-0.068 -0.063,-0.085 -0.053,-0.094 -0.014,-0.135 0.021,-0.16 0.112,-0.396 0.077,-0.151 0.109,-0.122 0.256,-0.152 0.318,-0.116 0.254,-0.049 0.259,-0.24 0.343,-0.992 0.267,0.017 0.087,0.023 0.103,0.042 0.08,0.062 0.179,0.244 0.081,0.045 0.189,-0.061 0.76,-0.444 0.439,-0.164 0.13,-0.086 0.14,-0.15 0.235,-0.338 0.084,-0.177 0.031,-0.113 -0.035,-0.073 -0.063,-0.061 -0.084,-0.049 -0.294,-0.086 -0.042,-0.073 0.031,-0.099 0.165,-0.26 0.017,-0.12 -0.031,-0.098 -0.053,-0.088 -0.063,-0.08 -0.21,-0.201 -0.151,-0.116 -0.645,-0.754 -0.042,-0.09 -0.021,-0.099 0.017,-0.095 0.042,-0.085 0.137,-0.118 1.048,-0.65 0.07,-0.065 0.127,-0.148 0.249,-0.437 0.12,-0.062 0.164,-0.04 2.145,-0.149 0.222,0.028 0.133,0.145 0.074,0.06 0.101,0.01 0.13,-0.051 0.284,-0.248 0.702,-0.486 2.332,-0.724 -0.087,0.421 0.157,0.506 0.217,0.309 0.268,0.24 0.299,0.144 3.543,-0.197 0.405,0.053 1.772,0.807 0.199,0.157 0.169,-0.185 0.409,-0.57 0.275,-0.26 0.098,-0.051 0.687,-0.214 0.509,-0.256 0.206,-0.151 0.249,-0.259 0.235,-0.331 0.929,-1.071 0.144,-0.231 -0.021,-0.106 -0.13,-0.39 -0.066,-0.279 -0.077,-0.222 -0.042,-0.094 -0.109,-0.172 -0.119,-0.153 -0.068,-0.054 -0.063,-0.041 -0.059,-0.02 -0.084,-0.013 -0.102,0.006 -0.105,-0.024 -0.074,-0.075 -0.003,-0.177 0.052,-0.105 0.081,-0.079 2.419,-1.159 0.253,-0.162 0.094,-0.041 0.109,-0.016 0.096,0.016 0.077,0.059 0.066,0.074 0.116,0.165 0.07,0.065 0.08,0.052 0.095,0.037 0.413,0.1 0.12,0.002 0.175,-0.049 0.197,-0.09 0.343,-0.199 0.158,-0.124 0.105,-0.112 0.091,-0.176 0.074,-0.186 0.269,-0.94 0.166,-0.378 2.387,-2.822 1.266,-1.163 0.316,-0.205 0.218,-0.083 0.178,0.081 0.161,0.107 0.418,0.403 0.508,0.591 0.491,0.438 0.066,0.04 0.077,0.034 0.117,0.026 0.088,-0.038 0.056,-0.071 0.07,-0.18 0.154,-0.285 0.207,-0.246 0.143,-0.093 0.116,-0.01 0.063,0.06 0.014,0.1 -0.032,0.088 -0.049,0.084 -0.182,0.23 -0.045,0.082 v 0.086 l 0.045,0.086 0.154,0.047 0.144,-0.047 0.411,-0.247 h 0.119 l 0.049,0.062 -0.017,0.1 -0.028,0.1 0.08,0.08 0.193,0.046 0.772,-0.114 0.178,-0.072 0.088,-0.088 0.462,-0.274 0.699,-0.181 0.157,-0.062 0.077,-0.061 0.477,-0.542 -0.014,-0.277 -0.378,-0.172 -0.039,-0.091 0.01,-0.085 0.063,-0.071 0.085,-0.065 0.087,-0.053 0.102,-0.083 0.091,-0.112 0.091,-0.221 0.017,-0.155 -0.014,-0.129 -0.213,-0.821 0.059,-1.186 -0.045,-1.338 0.017,-0.106 0.088,-0.297 0.273,-1.578 0.064,-0.21 0.158,-0.235 0.073,-0.053 0.102,-0.023 0.102,0.006 0.511,0.18 0.095,0.015 0.211,-0.01 0.122,-0.113 0.127,-0.182 0.35,-0.803 0.119,-0.159 0.06,-0.068 0.231,-0.19 0.081,-0.102 0.087,-0.137 0.131,-0.249 0.086,-0.124 0.152,-0.124 0.194,-0.189 v 0 l 1.103,1.605 1.446,1.402 1.66,0.784 1.694,-0.112 0.202,-0.079 0.51,-0.008 0.229,-0.095 0.126,-0.205 0.106,-0.269 0.122,-0.233 0.183,-0.101 0.469,0.152 0.414,0.292 0.416,0.176 0.478,-0.197 -0.114,-0.152 -0.041,-0.069 0.957,0.318 0.434,-0.029 -0.159,-0.491 -0.463,-0.256 -1.092,0.209 -0.449,-0.173 0.46,-0.506 -0.111,-0.471 -0.441,-0.384 -0.526,-0.237 0.287,-0.42 0.612,-0.321 1.275,-0.469 1.239,-0.728 0.383,-0.097 0.147,-0.087 0.393,-0.4 0.166,-0.119 0.228,-0.028 0.472,0.046 0.227,-0.018 1.208,-0.695 0.41,-0.111 7.584,-0.403 0.349,-0.129 1.122,-0.895 v -0.183 h -0.296 l 0.259,-0.259 0.132,-0.396 0.05,-0.499 0.009,-0.566 0.145,-0.426 0.331,-0.39 0.605,-0.499 0.673,-0.755 0.311,-0.718 -0.182,-0.634 -0.802,-0.504 0.247,-0.166 0.605,-0.2 0.241,-0.255 0.143,-0.427 -0.042,-0.337 -0.208,-0.201 -0.355,-0.02 v -0.217 l 0.27,-0.271 1.451,-2.188 0.212,-0.149 0.302,-0.108 0.821,-0.565 0.707,-0.673 0.557,-0.254 0.559,-0.367 0.296,-0.051 h 0.932 l 0.372,-0.129 1.092,-0.873 0.18,-0.096 0.184,-0.061 0.493,-0.042 0.121,0.093 0.232,0.414 0.118,0.093 -0.061,0.242 0.307,1.56 -0.009,0.345 -0.16,0.755 0.05,0.279 0.209,0.643 0.087,0.616 0.079,0.304 0.513,1.283 0.82,0.615 0.298,0.345 0.187,0.867 0.366,0.291 0.182,0.292 0.03,0.285 z m -68.351,59.337 0.108,0.259 -0.088,0.239 -0.09,0.018 -0.068,-0.114 -0.047,-0.061 -0.129,-0.158 -0.008,-0.286 0.15,-0.082 z"
       style="fill:none;stroke:#593b02;stroke-width:2.25000006;stroke-linecap:round;stroke-linejoin:round;stroke-miterlimit:4;stroke-dasharray:none;stroke-opacity:1"
       id="path88" />
  </g>
</svg>
