<?xml version="1.0" encoding="UTF-8" standalone="no"?>
<!-- Created with Inkscape (http://www.inkscape.org/) -->

<svg
   version="1.1"
   id="svg2"
   width="359.30933"
   height="465.44919"
   viewBox="0 0 359.30933 465.44919"
   sodipodi:docname="outline - molise.svg"
   inkscape:version="1.3.1 (91b66b0783, 2023-11-16)"
   inkscape:export-filename="outline - molise.png"
   inkscape:export-xdpi="96"
   inkscape:export-ydpi="96"
   xmlns:inkscape="http://www.inkscape.org/namespaces/inkscape"
   xmlns:sodipodi="http://sodipodi.sourceforge.net/DTD/sodipodi-0.dtd"
   xmlns="http://www.w3.org/2000/svg"
   xmlns:svg="http://www.w3.org/2000/svg">
  <defs
     id="defs6" />
  <sodipodi:namedview
     id="namedview4"
     pagecolor="#ffffff"
     bordercolor="#000000"
     borderopacity="0.25"
     inkscape:showpageshadow="2"
     inkscape:pageopacity="0.0"
     inkscape:pagecheckerboard="0"
     inkscape:deskcolor="#d1d1d1"
     inkscape:zoom="3.4589305"
     inkscape:cx="156.84039"
     inkscape:cy="246.17436"
     inkscape:window-width="2880"
     inkscape:window-height="1514"
     inkscape:window-x="2869"
     inkscape:window-y="-11"
     inkscape:window-maximized="1"
     inkscape:current-layer="g8"
     showgrid="false" />
  <g
     id="g8"
     inkscape:groupmode="layer"
     inkscape:label="ink_ext_XXXXXX"
     transform="matrix(1.3333333,0,0,-1.3333333,-300.36666,586.08665)">
    <path
       d="m 418.7,269.824 -0.113,0.035 -0.521,0.07 -0.116,0.032 -0.095,0.046 -0.087,0.062 -0.063,0.069 -0.053,0.087 -0.077,0.189 -0.047,0.265 0.021,0.4 -0.021,0.126 -0.042,0.124 -0.017,0.179 0.014,0.32 0.12,0.325 0.049,0.205 0.018,0.148 -0.102,0.474 -0.019,0.185 -0.002,0.336 0.028,0.185 0.051,0.144 0.222,0.325 0.284,0.55 0.053,0.184 0.024,0.263 -0.003,0.168 0.154,1.157 0.034,0.09 -0.456,0.094 -0.43,0.23 -0.931,0.678 -0.406,0.142 -0.241,0.17 -0.614,0.811 -0.309,0.281 -0.942,0.315 -1.828,0.326 -0.805,0.373 -0.806,0.674 -0.445,0.27 -0.378,0.081 -0.024,-0.094 0.025,-0.297 -0.025,-0.094 -0.056,-0.129 -0.122,-0.208 -0.116,-0.28 -0.024,-0.123 -0.011,-0.244 0.018,-0.232 -0.004,-0.114 -0.091,-0.152 -1.602,-1.624 -0.228,-0.16 -0.295,-0.114 -0.074,-0.081 -0.035,-0.195 0.011,-0.137 0.042,-0.239 0.014,-0.117 -0.088,-0.186 -0.228,-0.32 -0.564,-0.61 -0.743,-0.979 -0.435,-0.717 -0.575,-0.733 -0.102,-0.209 -0.06,-0.17 -0.122,-0.158 -0.109,-0.112 -0.929,-0.516 -0.358,-0.097 -0.119,-0.003 -0.087,0.036 -0.025,0.113 0.021,0.102 0.074,0.212 0.017,0.109 -0.014,0.102 -0.035,0.098 -0.108,0.166 -0.119,0.152 -0.113,0.167 -0.042,0.094 -0.021,0.104 v 0.123 l 0.056,0.361 -0.011,0.113 -0.031,0.101 -0.046,0.084 -0.06,0.077 -0.136,0.14 -0.785,0.561 -0.095,0.089 -0.066,0.09 -0.082,0.053 -0.098,0.011 -0.165,-0.112 -0.154,-0.217 -0.098,-0.04 -0.133,0.02 -0.21,0.12 -0.116,0.094 -0.088,0.092 -0.052,0.079 -0.14,0.274 -0.054,0.081 -0.07,0.069 -0.081,0.057 -0.395,0.188 -0.144,0.111 -0.049,0.048 -0.039,0.049 -0.035,0.073 -0.147,-0.028 -0.105,-0.043 -0.996,-0.835 -0.221,-0.456 -0.077,-0.116 -0.063,-0.079 -0.453,-0.458 -0.15,-0.001 -0.55,0.07 -0.134,-0.072 -0.12,-0.139 -0.161,-0.323 -0.014,-0.165 0.035,-0.12 0.147,-0.175 0.088,-0.138 0.075,-0.156 0.07,-0.232 0.042,-0.092 0.105,-0.17 0.066,-0.073 0.252,-0.174 0.071,-0.064 0.052,-0.062 0.025,-0.067 v -0.068 l -0.095,-0.092 -0.175,-0.087 -0.477,-0.158 -0.351,-0.17 -0.564,-0.363 -0.334,-0.364 -0.091,-0.049 -0.168,0.037 -0.284,0.195 -0.126,-0.006 -0.14,-0.066 -0.196,-0.199 -0.432,-0.561 -0.106,-0.081 -0.388,-0.229 -0.126,-0.109 -0.148,-0.066 -0.15,-0.017 -0.678,0.156 -0.427,-0.118 0.133,-0.276 0.14,-0.156 0.225,-0.193 0.056,-0.077 0.049,-0.091 0.038,-0.093 0.049,-0.214 0.074,-0.19 0.295,-0.514 0.032,-0.099 0.014,-0.227 -0.007,-1.036 0.042,-0.291 0.049,-0.18 0.112,-0.076 0.063,-0.06 0.042,-0.122 0.018,-0.165 -0.025,-0.487 0.021,-0.146 0.035,-0.1 -0.017,-0.129 -0.085,-0.158 -0.558,-0.452 -0.038,-0.077 0.031,-0.121 0.054,-0.097 -0.005,-0.134 -0.016,-0.107 -0.457,-0.475 0.515,-0.291 0.077,-0.088 0.086,-0.118 0.052,-0.208 0.077,-0.195 0.634,-1.109 0.133,-0.169 0.081,-0.059 0.096,-0.048 0.48,-0.112 0.627,-0.063 0.25,0.023 0.115,0.026 0.105,0.069 0.011,0.084 -0.042,0.216 -0.014,0.137 -0.004,0.195 -0.024,0.151 -0.063,0.144 -0.084,0.09 -0.212,0.17 -0.15,0.163 -0.046,0.09 -0.024,0.1 v 0.111 l 0.024,0.105 0.039,0.103 0.108,0.173 0.27,0.284 0.061,0.08 0.094,0.191 0.116,0.161 0.109,0.215 0.098,0.129 0.213,-0.073 0.755,-0.075 0.697,0.111 0.632,0.011 0.374,-0.154 0.618,-0.135 0.112,-0.047 0.088,-0.051 0.448,-0.376 0.765,-0.372 0.928,-0.331 1.438,-0.609 0.239,-0.049 0.4,-0.031 0.136,-0.083 0.154,-0.159 0.154,-0.344 0.324,-0.394 0.676,-0.068 0.674,0.037 0.122,-0.041 0.091,-0.075 0.158,-0.255 0.063,-0.072 0.077,-0.059 0.098,-0.046 0.112,-0.028 0.158,0.019 0.175,0.07 1.021,0.687 0.175,0.179 0.089,0.037 0.157,0.026 1.508,0.042 0.15,0.045 0.165,0.082 0.27,0.2 0.123,0.134 0.074,0.128 0.091,0.339 0.042,0.107 0.053,0.08 0.087,0.062 0.116,0.016 0.179,-0.054 0.105,-0.065 0.087,-0.07 0.141,-0.145 0.154,-0.124 0.182,-0.095 0.108,-0.033 0.559,0.159 0.665,0.336 0.856,0.256 0.175,0.026 0.226,0.101 1.321,0.814 -1.108,1.013 -0.253,0.308 -0.011,0.102 v 0.12 l 0.011,0.132 0.068,0.376 0.021,0.259 v 0.126 l -0.131,0.908 -0.028,0.422 0.01,0.238 0.035,0.147 0.053,0.112 0.063,0.083 0.145,0.137 0.087,0.056 0.091,0.036 0.106,0.011 0.115,-0.016 1.014,-0.43 0.101,-0.014 0.116,0.015 0.119,0.079 0.266,0.233 0.193,0.295 0.134,0.13 0.119,0.082 0.204,0.063 0.087,0.048 0.091,0.076 0.284,0.353 0.263,0.222 0.211,0.254 0.091,0.09 0.084,0.058 0.417,0.103 0.196,0.075 0.112,0.068 0.281,0.24 0.038,0.115 z"
       style="fill:#ffffff;stroke:#a67d03;stroke-width:1.12500003;stroke-linecap:round;stroke-linejoin:round;stroke-miterlimit:4;stroke-dasharray:none;stroke-opacity:1;fill-opacity:1"
       id="path44" />
  </g>
</svg>
