<?xml version="1.0" encoding="UTF-8" standalone="no"?>
<!-- Created with Inkscape (http://www.inkscape.org/) -->

<svg
   version="1.1"
   id="svg2"
   width="359.30933"
   height="465.44919"
   viewBox="0 0 359.30933 465.44919"
   sodipodi:docname="outline - sardegna.svg"
   inkscape:version="1.3.1 (91b66b0783, 2023-11-16)"
   inkscape:export-filename="outline - sardegna2.png"
   inkscape:export-xdpi="96"
   inkscape:export-ydpi="96"
   xmlns:inkscape="http://www.inkscape.org/namespaces/inkscape"
   xmlns:sodipodi="http://sodipodi.sourceforge.net/DTD/sodipodi-0.dtd"
   xmlns="http://www.w3.org/2000/svg"
   xmlns:svg="http://www.w3.org/2000/svg">
  <defs
     id="defs6" />
  <sodipodi:namedview
     id="namedview4"
     pagecolor="#ffffff"
     bordercolor="#000000"
     borderopacity="0.25"
     inkscape:showpageshadow="2"
     inkscape:pageopacity="0.0"
     inkscape:pagecheckerboard="0"
     inkscape:deskcolor="#d1d1d1"
     inkscape:zoom="6.9178612"
     inkscape:cx="151.05825"
     inkscape:cy="298.35811"
     inkscape:window-width="2880"
     inkscape:window-height="1514"
     inkscape:window-x="2869"
     inkscape:window-y="-11"
     inkscape:window-maximized="1"
     inkscape:current-layer="g8" />
  <g
     id="g8"
     inkscape:groupmode="layer"
     inkscape:label="ink_ext_XXXXXX"
     transform="matrix(1.3333333,0,0,-1.3333333,-300.36666,586.08665)">
    <path
       d="m 296.268,246.351 -0.063,0.015 -1.272,-0.961 -0.035,-0.066 0.089,0.033 0.122,-0.006 0.136,-0.09 0.197,0.069 0.906,0.646 -0.019,0.213 z m -0.512,-1.504 0.122,-0.299 0.334,-0.17 0.124,0.074 0.115,0.26 -0.239,0.211 -0.155,-0.063 z m -2.533,5.83 0.021,-0.028 0.053,0.081 0.022,0.15 0.014,0.096 -0.129,-0.049 -0.111,-0.047 0.008,-0.102 0.035,-0.074 z m -4.594,3.858 -0.082,-0.109 0.018,-0.164 0.157,0.013 0.062,-0.046 0.061,-0.102 0.217,0.455 -0.204,0.211 -0.061,-0.141 z m -5.591,1.348 h -0.09 l -0.107,0.074 -0.097,-0.164 0.212,-0.324 0.135,0.109 0.097,0.115 -0.028,0.02 0.053,0.117 z m 4.085,-0.305 0.089,-0.096 0.061,-0.042 h 0.046 l 0.05,-0.026 0.19,0.121 0.054,0.463 -0.237,0.117 -0.11,0.02 -0.108,-0.041 -0.076,-0.395 z m -0.007,1.416 0.143,-0.092 0.164,-0.091 0.15,0.039 -0.021,0.375 -0.347,-0.096 z m 1.027,0.803 -0.094,-0.088 -0.178,-0.104 -0.068,-0.115 -0.076,-0.021 0.144,-0.264 0.104,0.164 0.061,-0.051 0.074,0.014 0.082,0.104 0.026,0.144 -0.047,0.086 z m -0.53,-0.252 -0.162,0.164 -0.075,0.039 -0.064,0.029 -0.039,0.014 -0.068,0.018 -0.097,-0.1 0.09,-0.15 0.042,-0.082 0.011,-0.077 0.219,-0.025 0.164,-0.027 z m 10.632,-22.922 -0.133,0.2 -0.64,0.609 -0.121,0.302 -0.024,0.259 -0.088,0.181 -0.313,0.069 -0.147,0.09 -0.114,0.232 -0.075,0.3 -0.111,1.836 -0.086,0.394 -0.684,1.388 -0.089,0.545 -0.143,0.411 -0.636,0.868 -0.136,0.381 -0.022,-0.33 -0.247,0.283 0.088,0.272 0.287,0.145 0.346,-0.093 v 0.186 l -0.199,0.379 0.228,0.193 0.743,0.257 -0.294,0.059 -0.261,0.094 -0.217,0.173 -0.151,0.285 -0.257,-0.2 -0.191,-0.015 -0.125,0.171 -0.045,0.36 -0.128,0.101 -0.813,0.415 v 0.185 l 0.221,0.033 0.172,0.123 0.129,0.2 0.11,0.27 -0.441,0.094 -0.336,-0.176 -0.337,-0.238 -0.441,-0.104 -0.136,0.06 -0.405,0.263 -0.232,0.101 -0.228,-0.041 -0.202,-0.126 -0.182,0.005 -0.175,0.349 0.188,0.032 -0.03,0.042 0.015,0.147 1.03,-0.093 0.309,0.11 -0.107,0.409 0.282,0.398 0.082,0.535 0.114,0.473 0.377,0.204 0.348,-0.116 0.37,-0.19 0.343,-0.038 0.258,0.344 -0.414,0.269 -0.645,0.237 -0.624,0.033 -0.336,-0.335 -0.105,0.001 -0.066,0.042 -0.138,0.159 -0.03,-0.079 0.008,-0.076 -0.019,-0.049 -0.114,0.002 0.111,0.464 -0.078,0.286 -0.25,0.069 -0.415,-0.192 0.169,-0.425 h -0.46 l 0.212,0.46 0.402,1.8 0.039,-0.138 0.068,-0.145 0.048,-0.143 0.237,0.302 0.132,0.277 0.065,0.299 0.029,0.365 -0.077,0.057 -0.028,-0.005 -0.012,0.022 -0.037,0.129 h -0.155 l -0.149,-0.156 -0.121,0.059 -0.145,0.156 -0.217,0.145 0.169,0.221 -0.188,0.28 -0.125,-0.031 -0.101,-0.155 -0.132,-0.094 -0.309,0.059 -0.293,0.097 -0.279,0.018 -0.283,-0.174 0.132,-0.082 0.061,-0.095 0.038,-0.112 0.074,-0.136 -0.217,-0.168 -0.143,-0.255 -0.254,-0.597 -0.138,0.699 0.005,0.3 0.133,0.225 -0.228,0.234 -0.14,0.253 -0.145,0.215 -0.26,0.115 0.078,0.127 0.049,0.109 0.061,0.098 0.121,0.091 v 0.186 h -0.228 l -0.185,0.029 -0.168,0.066 -0.191,0.109 v -0.204 l -0.816,0.794 -0.381,0.131 -0.05,-0.721 -0.371,0.267 -0.092,0.142 -0.16,-0.098 -0.133,-0.044 -0.321,-0.044 v 0.186 l 0.068,0.136 0.022,0.088 -0.09,0.39 h -0.159 l -0.077,-0.28 -0.029,-0.217 0.024,-0.168 0.082,-0.135 -0.246,0.208 0.015,1.038 -0.232,0.389 -0.246,-0.057 -0.195,0.033 -0.127,0.141 -0.046,0.272 -0.412,-0.205 -0.508,-0.14 -0.426,-0.246 -0.186,-0.524 0.013,-1.234 -0.133,-0.456 -0.354,-0.482 -0.142,0.225 -0.629,-0.622 -0.333,-0.128 -1.543,-0.19 -0.434,-0.208 -0.334,-0.732 -0.339,-0.439 -0.384,-0.378 -0.281,-0.16 -0.14,-0.103 -0.241,-0.524 -0.153,-0.205 -0.217,-0.122 -0.722,-0.269 0.093,-0.056 0.015,-0.017 v -0.034 l 0.046,-0.114 -0.285,-0.242 -0.807,-1.387 -0.386,-0.425 -1.313,-0.999 -0.298,0.159 -0.392,0.064 -0.559,-0.02 -1.541,-0.719 -0.151,-0.444 -0.36,-0.459 -0.451,-0.392 -1.76,-0.773 -0.441,-0.075 -0.522,0.05 -1.265,0.376 -2.523,0.353 -0.732,0.44 -1.01,1.33 -0.088,0.341 0.053,0.386 0.089,0.356 0.014,0.247 -0.162,0.232 -0.204,-0.007 -0.167,0.034 -0.066,0.353 h -0.169 l -0.206,-0.344 -0.243,-0.55 -0.077,-0.511 0.299,-0.224 0.398,-0.184 0.149,-0.442 -0.023,-0.542 -0.128,-0.475 -1.714,-4.059 0.272,-0.085 0.169,-0.188 0.331,-0.537 0.133,-0.138 0.115,-0.065 0.298,-0.018 0.12,-0.087 -0.042,-0.177 -0.101,-0.145 -0.059,0.003 -0.072,-0.71 -0.259,-0.444 -0.364,-0.276 -0.387,-0.21 v -0.182 l 0.151,-0.766 0.131,-0.457 0.196,-0.415 0.1,0.67 0.235,0.598 0.379,0.324 0.519,-0.157 -0.249,-0.427 -0.211,-0.585 0.46,-0.221 1.153,0.695 0.546,0.039 0.463,-0.513 0.171,-0.665 0.098,-0.734 0.176,-0.596 0.41,-0.247 0.355,-0.302 0.324,-0.694 0.239,-0.78 0.092,-0.547 -0.248,-1.538 0.055,-0.59 0.502,-0.412 0.169,0.22 0.577,-0.409 0.489,-0.499 0.298,-0.66 0.008,-0.885 -0.379,-1.36 0.085,-1.557 0.088,-0.543 0.403,-0.783 0.11,-0.401 -0.061,-0.439 -0.187,-0.453 -0.236,-0.353 -0.2,-0.142 -0.166,-0.036 -0.397,-0.149 -0.686,-0.045 -0.07,0.011 -0.38,-0.233 -0.166,-0.241 0.066,-0.107 0.326,0.179 0.283,-0.411 -0.013,-0.364 -0.27,-0.628 -0.022,-0.34 0.176,-1.082 -0.033,-0.2 -0.081,-0.183 -0.062,-0.19 0.022,-0.229 0.084,-0.215 0.056,-0.054 0.064,-0.018 0.333,-0.311 0.287,-0.208 0.147,-0.247 -0.199,-0.329 0.151,-0.22 0.21,0.75 0.161,0.272 0.262,0.179 -0.172,-0.015 -0.132,0.018 -0.099,-0.03 -0.076,-0.155 -0.154,0.182 0.625,0.444 0.703,-0.05 0.662,-0.398 0.492,-0.595 0.188,-0.429 0.037,-0.33 -0.07,-0.935 -0.074,-0.398 -0.182,-0.525 -0.248,-0.49 -0.265,-0.293 0.155,0.096 0.127,0.135 0.104,0.165 0.078,0.202 h 0.15 l -0.22,-0.355 -0.353,-0.45 -0.294,-0.497 -0.056,-0.496 0.228,-0.229 1.159,-0.369 -0.622,-0.147 -0.481,0.178 -0.388,0.412 -0.705,1.133 -0.2,0.162 -0.309,0.06 -0.046,-0.161 0.055,-0.766 -0.096,-0.273 v -0.2 l 0.103,-0.31 0.067,-1.323 0.281,-1.218 0.039,-0.562 -0.181,-0.395 0.17,-0.22 -0.265,-0.541 -0.37,-0.965 -0.303,-0.485 -0.618,-0.795 -0.173,-0.337 -0.02,-0.124 0.079,-0.093 0.323,-0.772 0.028,-0.252 -0.083,-0.43 -0.128,-0.238 -0.396,-0.475 -0.094,-0.265 0.182,-0.557 0.795,-0.602 -0.035,-0.446 0.371,-0.636 -0.128,-0.539 -1.124,-1.319 -0.112,-0.211 0.024,-0.248 0.165,-0.421 0.122,-0.092 0.16,-0.011 0.138,-0.083 0.06,-0.319 0.022,-0.257 0.061,-0.202 0.101,-0.146 0.14,-0.098 -0.07,0.283 0.14,0.046 0.217,-0.12 0.158,-0.209 0.074,-0.372 -0.015,-0.715 0.095,-0.3 0.273,0.196 0.244,-0.158 0.186,-0.351 0.095,-0.489 0.103,-0.183 0.015,-0.11 0.489,0.304 0.309,-0.216 -0.204,-0.449 -0.105,-0.145 0.372,-0.06 0.529,-0.278 0.177,0.158 h 0.169 l 0.287,-1.248 0.177,-1.537 0.524,0.127 0.275,-0.502 -0.011,-0.711 -0.342,-0.493 v -0.198 l 0.355,-0.091 0.398,-0.011 0.218,-0.162 -0.182,-0.543 0.14,-0.198 0.32,0.198 -0.079,0.589 0.388,0.551 0.583,0.423 0.496,0.213 0.519,-0.056 0.612,-0.297 0.552,-0.461 0.326,-0.549 v 0.592 l 0.507,-0.495 0.307,-0.239 0.267,-0.074 0.182,0.118 0.25,0.405 0.114,0.087 0.237,0.022 0.153,0.071 2.297,2.329 0.187,0.362 0.168,-0.135 0.069,-0.029 0.239,0.164 h -0.167 l 0.248,1.012 0.353,0.608 -0.025,0.207 -0.136,0.152 -0.131,0.177 -0.167,0.474 -0.133,0.517 -0.062,0.577 0.053,0.647 0.178,0.554 0.28,0.4 0.912,0.967 0.02,0.122 v 0.234 l -0.11,0.154 -0.563,-0.123 -0.255,0.068 -0.021,-0.025 -0.06,0.146 -0.188,0.104 -0.132,0.136 0.106,0.235 v 0.218 l -0.297,0.132 0.031,0.097 0.237,0.027 0.324,-0.077 0.198,-0.179 0.181,-0.246 0.185,-0.13 0.21,0.158 0.916,-1.075 0.527,-0.499 0.659,-0.21 0.082,0.182 0.254,0.401 0.374,0.406 0.426,0.199 0.817,-0.082 0.424,-0.135 0.319,-0.195 0.154,0.216 0.167,-0.196 0.287,-0.191 0.315,-0.149 0.237,-0.059 0.189,-0.125 0.517,-0.56 0.221,-0.127 0.13,-0.102 0.57,-0.671 0.458,-0.218 0.204,-0.153 0.111,-0.259 h 0.169 l 0.338,0.217 0.348,0.106 0.353,-0.057 0.351,-0.266 -0.097,-0.234 -0.011,-0.144 0.082,-0.099 0.177,-0.099 0.094,0.59 0.38,0.264 0.412,0.165 0.195,0.277 0.048,0.294 0.211,0.581 0.046,0.223 -0.088,0.198 -0.162,0.156 -0.073,0.168 0.173,0.254 -0.129,0.706 0.324,0.819 0.573,0.66 0.618,0.23 v 0.181 l -0.52,0.39 -0.182,0.282 -0.07,0.429 0.037,0.426 0.272,1.273 0.563,1.546 0.132,0.918 -0.371,0.52 0.555,1.898 0.062,0.809 -0.154,1.298 0.05,0.395 0.104,0.304 0.105,0.228 0.05,0.179 0.049,0.426 0.21,0.485 0.05,0.296 -0.028,0.409 -0.116,0.717 -0.025,0.372 0.033,0.717 0.119,0.736 0.197,0.615 0.279,0.351 v 0.181 l -0.106,0.059 -0.094,0.101 -0.105,0.06 v 0.181 h 0.151 l -0.134,0.316 0.011,0.344 0.116,0.362 0.161,0.379 0.109,0.076 0.153,0.003 0.143,0.068 0.074,0.272 -0.048,0.187 -0.134,0.006 -0.164,-0.092 -0.133,-0.101 -0.211,0.804 0.138,0.932 0.835,2.223 0.044,0.452 -0.498,0.365 -0.506,0.716 -0.184,0.162 -0.331,0.159 -0.235,0.384 -0.532,1.519 -0.046,0.276 -0.095,1.243 0.029,0.453 0.191,0.576 0.247,0.397 0.557,0.49 0.292,0.34 0.401,0.849 0.261,0.397 0.339,0.165 0.496,0.156 0.28,0.396 0.369,1.08 0.502,0.836 0.192,0.452 0.077,0.639 0.068,0.3 0.259,0.505 z m -9.743,20.266 0.905,0.193 -0.024,0.107 -0.076,0.125 -0.042,0.138 0.031,0.251 0.002,0.254 -0.07,0.234 -0.125,0.203 -0.173,0.047 -0.141,-0.129 -0.131,-0.019 -0.095,-0.043 -0.039,-0.249 -0.099,-0.211 -0.157,-0.125 -0.165,-0.08 -0.103,-0.119 v -0.238 l 0.088,-0.257 z m 1.048,-0.824 0.16,0.075 0.173,-0.146 0.18,-0.239 0.136,-0.017 0.101,0.214 -0.011,0.15 -0.075,0.159 0.186,0.818 0.005,0.217 -0.025,0.128 -0.081,0.227 -0.153,0.151 -0.182,0.038 -0.138,-0.252 -0.167,-0.405 -0.067,-0.267 0.096,-0.192 -0.243,-0.572 z m -26.905,-4.986 0.004,0.826 0.533,0.403 1.302,0.22 0.202,0.283 0.077,0.362 -0.062,0.346 -0.217,0.234 -0.099,0.204 -0.046,0.175 0.005,0.232 -0.29,-0.225 -0.122,-0.142 -0.048,-0.142 -0.084,-0.121 -0.401,0.055 -0.147,-0.036 -0.05,-0.307 0.05,-0.408 -0.05,-0.357 -0.336,-0.153 -0.438,-0.375 -0.283,-0.309 -0.129,-0.241 v -0.288 l -0.033,-0.286 -0.092,-0.28 -0.18,-0.275 0.831,-0.064 z m 1.239,-53.631 -0.351,-0.142 -1.017,-0.216 -0.345,-0.238 -0.122,-0.457 0.182,-0.375 0.557,-0.571 v -0.182 l -0.058,-0.32 0.331,-0.202 0.467,-0.039 0.356,0.167 0.14,0.456 -0.129,1.175 z m 3.875,-3.557 -0.02,-0.027 -0.147,-0.119 -0.153,-0.012 -0.116,0.082 -0.048,0.159 -0.255,0.846 -0.609,0.112 -0.717,-0.045 -0.578,0.38 -0.323,-0.593 v -0.198 h 0.169 v -0.216 l -0.096,-0.616 0.353,-0.947 0.824,-1.403 0.083,-0.202 0.022,-0.205 0.087,-0.149 0.272,-0.037 0.239,0.067 0.103,0.126 0.215,0.785 0.167,0.979 0.214,0.415 -0.092,0.212 0.106,0.196 0.449,0.383 -0.107,0.071 z"
       style="fill:#d9d0c1;stroke:#593b02;stroke-width:2.25000006;stroke-linecap:round;stroke-linejoin:round;stroke-miterlimit:4;stroke-dasharray:none;stroke-opacity:1;fill-opacity:1"
       id="path36" />
  </g>
</svg>
