<?xml version="1.0" encoding="UTF-8" standalone="no"?>
<!-- Created with Inkscape (http://www.inkscape.org/) -->

<svg
   version="1.1"
   id="svg2"
   width="359.30933"
   height="465.44919"
   viewBox="0 0 359.30933 465.44919"
   sodipodi:docname="outline - veneto.svg"
   inkscape:version="1.3.1 (91b66b0783, 2023-11-16)"
   inkscape:export-filename="outline - veneto.png"
   inkscape:export-xdpi="96"
   inkscape:export-ydpi="96"
   xmlns:inkscape="http://www.inkscape.org/namespaces/inkscape"
   xmlns:sodipodi="http://sodipodi.sourceforge.net/DTD/sodipodi-0.dtd"
   xmlns="http://www.w3.org/2000/svg"
   xmlns:svg="http://www.w3.org/2000/svg">
  <defs
     id="defs6" />
  <sodipodi:namedview
     id="namedview4"
     pagecolor="#ffffff"
     bordercolor="#000000"
     borderopacity="0.25"
     inkscape:showpageshadow="2"
     inkscape:pageopacity="0.0"
     inkscape:pagecheckerboard="0"
     inkscape:deskcolor="#d1d1d1"
     inkscape:zoom="6.9178612"
     inkscape:cx="142.24049"
     inkscape:cy="97.212127"
     inkscape:window-width="2880"
     inkscape:window-height="1514"
     inkscape:window-x="2869"
     inkscape:window-y="-11"
     inkscape:window-maximized="1"
     inkscape:current-layer="g8" />
  <g
     id="g8"
     inkscape:groupmode="layer"
     inkscape:label="ink_ext_XXXXXX"
     transform="matrix(1.3333333,0,0,-1.3333333,-300.36666,586.08665)">
    <path
       d="m 356.456,386.541 -0.123,-0.15 -0.164,-0.075 -0.333,-0.121 0.223,-0.261 0.246,0.117 0.287,0.23 0.217,0.39 -0.096,0.142 z m 15.325,6.543 -0.14,0.294 -0.512,1.442 -0.112,0.181 -0.227,0.277 -0.11,0.16 -0.07,0.151 0.014,0.219 0.007,0.052 -0.021,0.102 -0.07,0.168 -0.54,0.724 -0.038,0.118 -0.025,0.158 -0.038,0.38 -0.004,0.339 0.053,0.337 -0.007,0.073 -0.151,0.259 -0.446,0.296 -0.238,-0.292 -0.172,-0.323 -0.067,-0.093 -0.112,-0.045 h -0.157 l -1.024,0.21 -0.133,0.106 -0.053,0.111 0.017,0.115 -0.021,0.106 -0.056,0.086 -0.084,0.067 -0.108,0.053 -0.116,0.035 -0.154,-0.011 -0.169,-0.065 -0.232,-0.19 -0.108,-0.146 -0.074,-0.133 -0.045,-0.107 -0.088,-0.062 -0.108,-0.01 -0.183,0.107 -0.073,0.113 -0.028,0.094 0.007,0.098 -0.004,0.116 -0.024,0.111 -0.057,0.086 -0.073,0.075 -0.166,0.129 -0.185,0.097 -0.102,-0.025 -0.084,-0.072 -0.126,-0.205 -0.074,-0.145 -0.101,-0.125 -0.123,-0.072 -0.393,-0.066 -0.182,-0.089 -0.183,-0.139 -0.733,-0.762 -0.2,-0.097 -0.392,0.048 -0.165,0.411 -0.105,0.137 -0.375,0.346 -0.122,0.076 -0.106,0.034 -0.109,-0.011 -0.105,-0.031 -0.263,-0.173 -0.112,-0.023 -0.112,0.016 -0.796,0.407 -0.085,0.103 -0.073,0.146 -0.07,0.271 -0.578,1.54 -0.06,0.272 -0.025,0.175 -0.049,0.129 -0.092,0.124 -0.213,0.142 -0.34,0.114 -0.084,0.051 -0.474,0.534 -0.126,0.087 -0.095,0.041 -0.238,0.06 -0.112,0.119 -0.07,0.214 -0.098,1.015 -0.134,0.623 -0.35,1.099 0.256,0.403 0.115,0.226 0.088,0.217 0.049,0.104 0.063,0.091 0.07,0.08 0.081,0.07 0.087,0.056 0.555,0.169 0.186,0.104 0.157,0.141 0.06,0.077 0.045,0.079 0.064,0.143 0.014,0.211 -0.011,0.313 -0.088,0.643 -0.073,0.284 -0.081,0.186 -0.431,0.324 -0.155,0.147 -0.059,0.083 -0.049,0.095 -0.021,0.114 -0.036,0.462 -0.038,0.237 -0.081,0.109 -0.112,0.044 -0.259,0.004 -0.116,0.02 -0.073,0.067 -0.042,0.098 -0.035,0.111 -0.046,0.097 -0.07,0.074 -0.108,0.037 -0.51,0.014 -0.112,0.042 -0.101,0.05 -0.555,0.491 -0.347,0.415 -0.059,0.089 -0.084,0.193 -0.014,0.1 0.056,0.155 0.115,0.252 0.375,0.525 0.233,0.267 0.332,0.237 1.165,0.605 0.182,0.184 0.466,0.61 0.722,1.334 0.232,0.824 0.287,0.645 0.087,0.111 0.117,0.109 0.494,0.275 0.947,0.204 1.077,0.007 0.245,-0.066 0.207,-0.103 0.108,-0.027 0.098,0.04 0.056,0.136 -0.003,0.288 -0.042,0.161 -0.074,0.118 -0.196,0.111 -0.115,0.036 -0.102,0.052 -0.084,0.06 -0.063,0.09 0.009,0.149 0.085,0.194 0.389,0.483 0.119,0.112 0.091,0.062 0.197,0.102 0.22,0.078 1.485,0.233 0.07,0.081 0.035,0.153 -0.06,0.279 0.042,0.312 0.011,0.422 -0.155,0.683 -0.137,1.561 -0.195,0.065 -0.178,-0.023 -0.362,-0.142 -0.212,-0.007 -0.208,0.092 -0.411,0.311 -0.177,0.08 -0.04,0.018 -1.117,0.114 -1.315,-0.173 -0.331,0.032 -0.374,0.18 -0.698,0.475 -0.684,0.12 -0.567,-0.341 -0.28,-0.256 -0.119,-0.187 -0.07,-0.081 -0.119,-0.086 -0.436,-0.233 -0.115,-0.118 -0.046,-0.122 0.028,-0.232 -0.021,-0.116 -0.084,-0.078 -0.14,-0.042 -0.252,0.032 -0.144,0.058 -0.117,0.076 -0.077,0.075 -0.091,0.062 -0.105,0.043 -0.158,-0.017 -0.168,-0.07 -0.245,-0.181 -0.207,-0.107 -0.245,-0.086 -1.115,-0.124 -0.359,-0.162 -0.525,-0.322 -0.133,-0.037 -0.088,0.114 -0.056,0.253 -0.035,0.107 -0.502,0.833 -0.081,0.071 -0.105,0.046 -0.508,0.089 -0.196,0.105 -0.891,0.772 -0.101,0.015 -0.113,-0.048 -0.122,-0.223 -0.061,-0.169 -0.028,-0.164 -0.03,-0.444 -0.042,-0.268 -0.135,-0.493 -0.164,-0.441 -0.207,-0.423 -0.298,-0.378 -0.07,-0.128 -0.049,-0.137 -0.056,-0.408 -0.035,-0.128 -0.045,-0.107 -0.053,-0.099 -0.063,-0.088 -0.07,-0.078 -0.366,-0.13 -3.478,-0.696 -0.445,-0.332 0.046,-0.661 0.203,-0.176 0.624,-0.131 0.225,-0.1 0.168,-0.13 0.066,-0.081 0.056,-0.09 0.042,-0.108 0.004,-0.134 -0.039,-0.155 -0.14,-0.204 -0.119,-0.101 -0.2,-0.139 -0.157,-0.133 -0.07,-0.081 -0.06,-0.092 -0.059,-0.172 -0.056,-0.24 -0.124,-0.978 -0.049,-0.114 -0.119,-0.089 -0.372,-0.038 -0.101,-0.048 -0.431,-0.308 -0.075,-0.086 -0.037,-0.13 0.028,-0.209 0.044,-0.143 0.061,-0.115 0.834,-0.952 0.115,-0.172 0.049,-0.096 0.042,-0.11 0.007,-0.171 -0.035,-0.545 0.035,-0.177 0.074,-0.11 0.11,-0.039 0.126,-0.012 0.536,0.018 0.119,-0.026 0.094,-0.052 0.067,-0.085 0.088,-0.203 0.063,-0.08 0.095,-0.062 0.221,-0.085 0.088,-0.046 0.045,-0.059 0.018,-0.022 -0.154,-0.547 -0.018,-0.196 0.014,-0.164 0.049,-0.095 0.063,-0.081 0.165,-0.151 0.683,-0.381 0.081,-0.07 0.067,-0.082 0.042,-0.105 -0.014,-0.126 -0.077,-0.133 -0.218,-0.129 -0.287,-0.121 -0.137,-0.11 -0.154,-0.171 -0.495,-0.722 -0.095,-0.207 -0.084,-0.118 -0.13,-0.127 -0.276,-0.144 -0.989,-0.331 -0.449,-0.295 -0.224,-0.067 -0.245,-0.041 -1.259,-0.011 -0.723,-0.138 -0.119,-0.055 -0.095,-0.136 -0.084,-0.263 0.025,-0.368 0.031,-0.2 0.092,-0.255 0.01,-0.131 -0.028,-0.139 -0.112,-0.17 -0.193,-0.18 -0.084,-0.157 -0.068,-0.244 -0.084,-0.836 0.091,-0.653 -0.7,-0.288 -0.364,-0.049 -0.545,0.054 -0.231,0.073 -0.091,0.051 -0.073,0.072 -0.067,0.083 -0.053,0.096 -0.14,0.415 -0.01,0.022 -0.119,0.179 -0.152,0.144 -0.084,0.061 -0.095,0.053 -0.115,0.035 -0.13,0.02 -0.28,0.005 -1.038,-0.115 -0.204,-0.084 -1.027,-0.72 -0.571,-0.156 -0.513,-0.057 -0.115,-0.07 -0.095,-0.116 -0.081,-0.251 -0.003,-0.162 0.018,-0.142 0.084,-0.205 0.014,-0.107 -0.039,-0.12 -0.154,-0.157 -0.13,-0.156 -0.15,-0.263 -0.109,-0.134 -0.179,-0.048 -0.112,0.037 -0.106,0.058 -0.165,0.136 -0.073,0.075 -0.06,0.084 -0.049,0.091 -0.063,0.073 -0.091,0.038 -0.102,-0.012 -0.091,-0.053 -0.08,-0.07 -0.285,-0.31 -0.357,-0.227 -0.095,-0.129 -0.088,-0.192 -0.108,-0.396 -0.175,-0.417 -1.301,-2.36 -0.039,-0.111 0.014,-0.165 0.067,-0.245 -0.011,-0.114 -0.056,-0.096 -0.241,-0.145 -0.095,-0.071 -0.047,-0.102 0.012,-0.16 0.063,-0.379 -0.007,-0.116 -0.014,-0.11 -0.835,-1.426 -0.389,-0.353 -0.4,0.022 -1.115,0.397 -0.123,0.016 -0.116,-0.013 -0.227,-0.057 -0.154,0.01 -0.176,0.038 -0.255,0.089 -0.133,-0.017 -0.103,-0.056 -0.298,-0.448 -0.067,-0.081 -0.077,-0.071 -0.084,-0.05 -0.098,-0.029 -0.378,0.105 -0.105,-0.03 -0.077,-0.063 -0.124,-0.176 -0.07,-0.077 -0.088,-0.06 -0.108,-0.027 -0.119,0.008 -0.155,0.127 -0.182,0.215 -0.32,0.511 -0.196,0.189 -0.161,0.088 -0.231,-0.036 -0.095,0.065 -0.049,0.136 0.011,0.285 0.112,0.625 v 0.014 l 0.01,0.125 0.025,0.106 0.031,0.114 0.049,0.111 0.053,0.092 0.294,0.308 0.061,0.086 0.03,0.135 -0.016,0.192 -0.092,0.312 -0.035,0.207 -0.119,0.219 -0.092,0.132 -0.896,0.553 -0.958,-1.459 -0.109,-0.209 -0.333,-0.844 -0.505,-0.859 -0.34,-0.395 -2.29,-3.475 -0.07,-0.603 -0.014,-0.894 0.225,-2.089 -0.018,-1.201 -0.056,-0.048 -0.088,-0.188 -0.007,-0.169 0.049,-0.227 0.109,-0.347 0.266,-0.356 0.579,0.154 0.34,-0.033 0.042,-0.661 -0.049,-0.633 0.07,-0.277 0.288,-0.204 v -0.2 l -0.249,-0.239 -0.012,-0.777 -0.202,-0.296 0.477,-0.15 0.241,0.073 0.121,-0.002 0.126,-0.056 0.115,-0.163 0.06,-0.131 0.08,-0.235 0.049,-0.098 0.074,-0.063 0.095,-0.026 0.133,0.051 0.091,0.068 0.073,0.084 0.112,0.175 0.078,0.074 0.094,0.038 0.176,-0.057 0.221,-0.14 0.708,-0.702 0.105,-0.181 0.131,-0.3 0.056,-0.089 2.197,-1.708 0.762,-0.296 0.175,-0.097 0.129,-0.109 0.176,-0.218 0.066,-0.111 0.035,-0.117 -0.01,-0.097 -0.018,-0.081 -0.084,-0.21 -0.021,-0.074 -0.01,-0.102 0.01,-0.099 0.021,-0.07 0.035,-0.063 0.102,-0.057 0.145,-0.04 0.276,0.003 0.312,0.058 h 0.123 l 0.112,-0.062 0.108,-0.152 0.025,-0.137 -0.028,-0.119 -0.095,-0.196 -0.038,-0.104 -0.014,-0.117 0.021,-0.112 0.042,-0.103 0.052,-0.09 0.277,-0.352 0.109,-0.09 0.176,-0.104 0.147,-0.033 0.158,0.026 0.161,0.122 0.091,0.112 0.084,0.084 0.084,0.046 0.649,0.072 0.169,0.062 0.126,0.074 0.084,0.068 0.168,0.02 0.252,-0.027 0.691,-0.212 0.141,-0.26 -0.326,-0.256 -0.067,-0.076 -0.038,-0.094 -0.007,-0.109 0.091,-0.708 0.017,-0.061 0.393,-0.134 1.349,0.012 -0.003,-0.822 0.733,-0.663 1.893,-1.253 0.383,-0.039 0.298,-0.176 0.056,-0.541 0.235,-0.388 0.406,-0.005 0.873,0.191 0.473,-0.03 0.35,-0.083 0.643,-0.341 1.196,-0.967 0.361,-0.119 0.407,0.102 0.308,0.24 0.533,0.527 0.921,0.303 0.394,0.21 0.073,0.355 0.194,0.224 0.201,0.141 0.257,0.069 0.358,0.02 0.091,0.068 0.134,0.299 0.085,0.068 h 0.546 l 1.087,0.246 0.571,-0.132 0.355,-0.02 0.281,-0.067 h 0.168 l 0.852,0.204 0.228,0.022 0.175,-0.01 0.105,-0.045 2.181,-0.426 0.386,-0.176 0.259,-0.189 0.067,-0.079 0.049,-0.093 0.101,-0.318 0.084,-0.113 0.137,-0.102 0.292,-0.108 0.189,-0.007 0.151,0.046 0.154,0.079 0.105,-0.01 0.379,-0.173 0.722,-0.168 0.161,0.005 0.053,0.037 0.059,0.053 0.077,0.054 0.152,0.054 0.599,0.125 h 0.207 l 0.147,-0.035 0.074,-0.069 0.052,-0.089 0.035,-0.093 -0.003,-0.104 -0.035,-0.096 -0.112,-0.181 -0.05,-0.101 -0.031,-0.115 -0.007,-0.129 0.01,-0.122 0.06,-0.351 0.028,-0.339 0.042,-0.238 0.028,-0.113 0.039,-0.103 0.094,-0.105 0.161,-0.091 0.506,-0.178 0.133,-0.07 0.081,-0.068 0.066,-0.078 0.053,-0.091 0.038,-0.104 0.018,-0.121 0.003,-0.273 0.018,-0.123 0.042,-0.098 0.059,-0.084 0.306,-0.278 0.675,-0.497 0.006,-0.005 0.104,0.01 0.411,0.302 0.177,0.547 -0.175,0.029 -0.281,0.127 -0.16,0.038 v 0.218 l 0.259,0.087 0.173,0.233 0.015,0.24 -0.563,0.244 0.011,0.304 0.259,0.519 0.076,0.209 0.195,0.272 0.257,0.163 0.258,-0.123 0.106,-0.351 -0.086,-0.397 -0.344,-0.729 0.184,-0.274 0.149,-0.352 0.099,-0.314 0.033,-0.143 0.668,0.802 0.298,0.523 0.127,0.505 0.044,1.027 0.094,0.35 0.171,0.027 h 0.137 l 0.061,0.193 0.077,0.172 0.186,0.304 -0.088,0.212 0.222,0.344 0.021,0.293 -0.142,0.323 -0.245,0.237 -0.32,0.121 -0.373,-0.009 v -0.237 l 0.068,-0.013 0.153,0.021 0.075,-0.008 -0.294,-0.229 -0.486,0.494 -0.454,0.603 -0.237,0.145 -0.176,0.143 -0.361,0.388 0.07,0.341 -0.272,0.223 -0.408,0.206 -0.328,0.295 0.267,-0.468 0.134,-0.387 -0.068,-0.393 -0.333,-0.493 -0.309,0.436 0.129,0.078 0.074,0.072 0.095,0.057 0.179,0.033 v 0.216 l -0.293,0.422 -0.232,0.47 -0.275,0.462 -0.447,0.387 0.057,-0.218 0.037,-0.098 0.073,-0.12 -0.493,-0.043 -0.224,0.319 0.015,0.567 0.224,0.703 v -0.134 l 0.026,-0.31 -0.026,-0.211 0.25,-0.14 0.228,-0.078 -0.147,1.204 -0.02,1.073 -0.134,0.451 -0.252,0.456 -0.135,0.469 0.21,0.489 -0.254,-0.13 -0.505,-0.505 -0.333,-0.256 0.081,-0.067 0.022,-0.013 0.064,-0.119 -0.43,0.01 -0.381,0.234 -0.206,0.384 0.079,0.462 -0.219,0.195 -0.092,0.198 0.063,0.163 0.248,0.098 -0.097,0.564 0.02,0.463 -0.094,0.339 -0.449,0.185 0.102,-0.362 -0.057,-0.439 -0.175,-0.375 -0.248,-0.155 -0.269,0.131 -0.202,0.671 -0.243,0.29 0.122,0.682 0.191,0.088 0.257,-0.182 0.298,-0.13 0.48,0.083 0.171,0.229 0.103,0.347 0.256,0.432 -0.19,0.429 0.101,0.114 0.216,0.008 0.169,0.107 0.062,0.318 -0.014,0.232 0.04,0.232 0.221,0.312 -0.236,0.235 -0.055,0.282 0.088,0.301 0.203,0.298 h -0.142 v 0.199 l 0.452,0.879 0.834,0.813 0.923,0.513 0.737,-0.014 -0.057,-0.311 0.291,-0.1 0.411,0.053 0.28,0.158 v 0.2 l -0.759,0.306 -0.142,0.291 0.285,0.522 0.154,-0.679 h 0.153 l 0.167,0.175 0.388,-0.361 0.374,-0.014 v 0.2 l -0.215,0.392 0.375,0.578 0.603,0.537 0.484,0.267 0.088,-0.458 0.176,-0.293 0.429,-0.454 0.156,0.023 0.576,0.412 0.272,0.113 -0.184,-0.414 -0.25,-0.269 -0.326,-0.149 -0.399,-0.046 -0.202,-0.212 -0.022,-0.448 -0.121,-0.395 -0.502,-0.063 v 0.239 l 0.231,-0.011 0.078,0.011 -0.01,0.028 -0.068,0.121 -0.075,0.096 -0.015,-0.045 -0.042,0.074 -0.23,-0.085 -0.245,-0.017 -0.255,0.028 0.309,-0.439 -0.153,-0.157 -0.112,-0.01 -0.092,0.133 -0.107,0.273 h -0.152 l -0.009,-0.296 -0.085,-0.15 -0.151,-0.044 -0.219,0.034 0.111,-0.292 -0.149,-0.351 -0.249,-0.414 -0.178,-0.478 0.302,0.059 0.627,0.397 0.822,0.203 0.184,0.117 0.378,0.323 2.237,0.826 3.821,1.844 3.685,2.414 0.855,0.202 1.782,0.059 0.552,0.169 0.239,0.33 0.002,0.005 z m -16.462,-7.43 0.223,0.133 0.038,0.369 -0.375,0.294 h -0.392 l -0.299,-0.505 0.092,-0.424 0.375,-0.079 z m 0.543,-0.367 0.645,-0.009 0.303,-0.062 0.287,-0.15 -0.529,0.481 -0.414,0.092 -0.392,-0.278 -0.447,-0.622 -0.546,-1.065 -0.178,-0.58 0.033,-0.197 1.238,2.39"
       style="fill:#ffffff;fill-opacity:1;fill-rule:evenodd;stroke:#591902;stroke-width:3.75000009;stroke-opacity:1;stroke-dasharray:none"
       id="path14" />
    <path
       d="m 356.456,386.541 -0.123,-0.15 -0.164,-0.075 -0.333,-0.121 0.223,-0.261 0.246,0.117 0.287,0.23 0.217,0.39 -0.096,0.142 z m 15.325,6.543 -0.14,0.294 -0.512,1.442 -0.112,0.181 -0.227,0.277 -0.11,0.16 -0.07,0.151 0.014,0.219 0.007,0.052 -0.021,0.102 -0.07,0.168 -0.54,0.724 -0.038,0.118 -0.025,0.158 -0.038,0.38 -0.004,0.339 0.053,0.337 -0.007,0.073 -0.151,0.259 -0.446,0.296 -0.238,-0.292 -0.172,-0.323 -0.067,-0.093 -0.112,-0.045 h -0.157 l -1.024,0.21 -0.133,0.106 -0.053,0.111 0.017,0.115 -0.021,0.106 -0.056,0.086 -0.084,0.067 -0.108,0.053 -0.116,0.035 -0.154,-0.011 -0.169,-0.065 -0.232,-0.19 -0.108,-0.146 -0.074,-0.133 -0.045,-0.107 -0.088,-0.062 -0.108,-0.01 -0.183,0.107 -0.073,0.113 -0.028,0.094 0.007,0.098 -0.004,0.116 -0.024,0.111 -0.057,0.086 -0.073,0.075 -0.166,0.129 -0.185,0.097 -0.102,-0.025 -0.084,-0.072 -0.126,-0.205 -0.074,-0.145 -0.101,-0.125 -0.123,-0.072 -0.393,-0.066 -0.182,-0.089 -0.183,-0.139 -0.733,-0.762 -0.2,-0.097 -0.392,0.048 -0.165,0.411 -0.105,0.137 -0.375,0.346 -0.122,0.076 -0.106,0.034 -0.109,-0.011 -0.105,-0.031 -0.263,-0.173 -0.112,-0.023 -0.112,0.016 -0.796,0.407 -0.085,0.103 -0.073,0.146 -0.07,0.271 -0.578,1.54 -0.06,0.272 -0.025,0.175 -0.049,0.129 -0.092,0.124 -0.213,0.142 -0.34,0.114 -0.084,0.051 -0.474,0.534 -0.126,0.087 -0.095,0.041 -0.238,0.06 -0.112,0.119 -0.07,0.214 -0.098,1.015 -0.134,0.623 -0.35,1.099 0.256,0.403 0.115,0.226 0.088,0.217 0.049,0.104 0.063,0.091 0.07,0.08 0.081,0.07 0.087,0.056 0.555,0.169 0.186,0.104 0.157,0.141 0.06,0.077 0.045,0.079 0.064,0.143 0.014,0.211 -0.011,0.313 -0.088,0.643 -0.073,0.284 -0.081,0.186 -0.431,0.324 -0.155,0.147 -0.059,0.083 -0.049,0.095 -0.021,0.114 -0.036,0.462 -0.038,0.237 -0.081,0.109 -0.112,0.044 -0.259,0.004 -0.116,0.02 -0.073,0.067 -0.042,0.098 -0.035,0.111 -0.046,0.097 -0.07,0.074 -0.108,0.037 -0.51,0.014 -0.112,0.042 -0.101,0.05 -0.555,0.491 -0.347,0.415 -0.059,0.089 -0.084,0.193 -0.014,0.1 0.056,0.155 0.115,0.252 0.375,0.525 0.233,0.267 0.332,0.237 1.165,0.605 0.182,0.184 0.466,0.61 0.722,1.334 0.232,0.824 0.287,0.645 0.087,0.111 0.117,0.109 0.494,0.275 0.947,0.204 1.077,0.007 0.245,-0.066 0.207,-0.103 0.108,-0.027 0.098,0.04 0.056,0.136 -0.003,0.288 -0.042,0.161 -0.074,0.118 -0.196,0.111 -0.115,0.036 -0.102,0.052 -0.084,0.06 -0.063,0.09 0.009,0.149 0.085,0.194 0.389,0.483 0.119,0.112 0.091,0.062 0.197,0.102 0.22,0.078 1.485,0.233 0.07,0.081 0.035,0.153 -0.06,0.279 0.042,0.312 0.011,0.422 -0.155,0.683 -0.137,1.561 -0.195,0.065 -0.178,-0.023 -0.362,-0.142 -0.212,-0.007 -0.208,0.092 -0.411,0.311 -0.177,0.08 -0.04,0.018 -1.117,0.114 -1.315,-0.173 -0.331,0.032 -0.374,0.18 -0.698,0.475 -0.684,0.12 -0.567,-0.341 -0.28,-0.256 -0.119,-0.187 -0.07,-0.081 -0.119,-0.086 -0.436,-0.233 -0.115,-0.118 -0.046,-0.122 0.028,-0.232 -0.021,-0.116 -0.084,-0.078 -0.14,-0.042 -0.252,0.032 -0.144,0.058 -0.117,0.076 -0.077,0.075 -0.091,0.062 -0.105,0.043 -0.158,-0.017 -0.168,-0.07 -0.245,-0.181 -0.207,-0.107 -0.245,-0.086 -1.115,-0.124 -0.359,-0.162 -0.525,-0.322 -0.133,-0.037 -0.088,0.114 -0.056,0.253 -0.035,0.107 -0.502,0.833 -0.081,0.071 -0.105,0.046 -0.508,0.089 -0.196,0.105 -0.891,0.772 -0.101,0.015 -0.113,-0.048 -0.122,-0.223 -0.061,-0.169 -0.028,-0.164 -0.03,-0.444 -0.042,-0.268 -0.135,-0.493 -0.164,-0.441 -0.207,-0.423 -0.298,-0.378 -0.07,-0.128 -0.049,-0.137 -0.056,-0.408 -0.035,-0.128 -0.045,-0.107 -0.053,-0.099 -0.063,-0.088 -0.07,-0.078 -0.366,-0.13 -3.478,-0.696 -0.445,-0.332 0.046,-0.661 0.203,-0.176 0.624,-0.131 0.225,-0.1 0.168,-0.13 0.066,-0.081 0.056,-0.09 0.042,-0.108 0.004,-0.134 -0.039,-0.155 -0.14,-0.204 -0.119,-0.101 -0.2,-0.139 -0.157,-0.133 -0.07,-0.081 -0.06,-0.092 -0.059,-0.172 -0.056,-0.24 -0.124,-0.978 -0.049,-0.114 -0.119,-0.089 -0.372,-0.038 -0.101,-0.048 -0.431,-0.308 -0.075,-0.086 -0.037,-0.13 0.028,-0.209 0.044,-0.143 0.061,-0.115 0.834,-0.952 0.115,-0.172 0.049,-0.096 0.042,-0.11 0.007,-0.171 -0.035,-0.545 0.035,-0.177 0.074,-0.11 0.11,-0.039 0.126,-0.012 0.536,0.018 0.119,-0.026 0.094,-0.052 0.067,-0.085 0.088,-0.203 0.063,-0.08 0.095,-0.062 0.221,-0.085 0.088,-0.046 0.045,-0.059 0.018,-0.022 -0.154,-0.547 -0.018,-0.196 0.014,-0.164 0.049,-0.095 0.063,-0.081 0.165,-0.151 0.683,-0.381 0.081,-0.07 0.067,-0.082 0.042,-0.105 -0.014,-0.126 -0.077,-0.133 -0.218,-0.129 -0.287,-0.121 -0.137,-0.11 -0.154,-0.171 -0.495,-0.722 -0.095,-0.207 -0.084,-0.118 -0.13,-0.127 -0.276,-0.144 -0.989,-0.331 -0.449,-0.295 -0.224,-0.067 -0.245,-0.041 -1.259,-0.011 -0.723,-0.138 -0.119,-0.055 -0.095,-0.136 -0.084,-0.263 0.025,-0.368 0.031,-0.2 0.092,-0.255 0.01,-0.131 -0.028,-0.139 -0.112,-0.17 -0.193,-0.18 -0.084,-0.157 -0.068,-0.244 -0.084,-0.836 0.091,-0.653 -0.7,-0.288 -0.364,-0.049 -0.545,0.054 -0.231,0.073 -0.091,0.051 -0.073,0.072 -0.067,0.083 -0.053,0.096 -0.14,0.415 -0.01,0.022 -0.119,0.179 -0.152,0.144 -0.084,0.061 -0.095,0.053 -0.115,0.035 -0.13,0.02 -0.28,0.005 -1.038,-0.115 -0.204,-0.084 -1.027,-0.72 -0.571,-0.156 -0.513,-0.057 -0.115,-0.07 -0.095,-0.116 -0.081,-0.251 -0.003,-0.162 0.018,-0.142 0.084,-0.205 0.014,-0.107 -0.039,-0.12 -0.154,-0.157 -0.13,-0.156 -0.15,-0.263 -0.109,-0.134 -0.179,-0.048 -0.112,0.037 -0.106,0.058 -0.165,0.136 -0.073,0.075 -0.06,0.084 -0.049,0.091 -0.063,0.073 -0.091,0.038 -0.102,-0.012 -0.091,-0.053 -0.08,-0.07 -0.285,-0.31 -0.357,-0.227 -0.095,-0.129 -0.088,-0.192 -0.108,-0.396 -0.175,-0.417 -1.301,-2.36 -0.039,-0.111 0.014,-0.165 0.067,-0.245 -0.011,-0.114 -0.056,-0.096 -0.241,-0.145 -0.095,-0.071 -0.047,-0.102 0.012,-0.16 0.063,-0.379 -0.007,-0.116 -0.014,-0.11 -0.835,-1.426 -0.389,-0.353 -0.4,0.022 -1.115,0.397 -0.123,0.016 -0.116,-0.013 -0.227,-0.057 -0.154,0.01 -0.176,0.038 -0.255,0.089 -0.133,-0.017 -0.103,-0.056 -0.298,-0.448 -0.067,-0.081 -0.077,-0.071 -0.084,-0.05 -0.098,-0.029 -0.378,0.105 -0.105,-0.03 -0.077,-0.063 -0.124,-0.176 -0.07,-0.077 -0.088,-0.06 -0.108,-0.027 -0.119,0.008 -0.155,0.127 -0.182,0.215 -0.32,0.511 -0.196,0.189 -0.161,0.088 -0.231,-0.036 -0.095,0.065 -0.049,0.136 0.011,0.285 0.112,0.625 v 0.014 l 0.01,0.125 0.025,0.106 0.031,0.114 0.049,0.111 0.053,0.092 0.294,0.308 0.061,0.086 0.03,0.135 -0.016,0.192 -0.092,0.312 -0.035,0.207 -0.119,0.219 -0.092,0.132 -0.896,0.553 -0.958,-1.459 -0.109,-0.209 -0.333,-0.844 -0.505,-0.859 -0.34,-0.395 -2.29,-3.475 -0.07,-0.603 -0.014,-0.894 0.225,-2.089 -0.018,-1.201 -0.056,-0.048 -0.088,-0.188 -0.007,-0.169 0.049,-0.227 0.109,-0.347 0.266,-0.356 0.579,0.154 0.34,-0.033 0.042,-0.661 -0.049,-0.633 0.07,-0.277 0.288,-0.204 v -0.2 l -0.249,-0.239 -0.012,-0.777 -0.202,-0.296 0.477,-0.15 0.241,0.073 0.121,-0.002 0.126,-0.056 0.115,-0.163 0.06,-0.131 0.08,-0.235 0.049,-0.098 0.074,-0.063 0.095,-0.026 0.133,0.051 0.091,0.068 0.073,0.084 0.112,0.175 0.078,0.074 0.094,0.038 0.176,-0.057 0.221,-0.14 0.708,-0.702 0.105,-0.181 0.131,-0.3 0.056,-0.089 2.197,-1.708 0.762,-0.296 0.175,-0.097 0.129,-0.109 0.176,-0.218 0.066,-0.111 0.035,-0.117 -0.01,-0.097 -0.018,-0.081 -0.084,-0.21 -0.021,-0.074 -0.01,-0.102 0.01,-0.099 0.021,-0.07 0.035,-0.063 0.102,-0.057 0.145,-0.04 0.276,0.003 0.312,0.058 h 0.123 l 0.112,-0.062 0.108,-0.152 0.025,-0.137 -0.028,-0.119 -0.095,-0.196 -0.038,-0.104 -0.014,-0.117 0.021,-0.112 0.042,-0.103 0.052,-0.09 0.277,-0.352 0.109,-0.09 0.176,-0.104 0.147,-0.033 0.158,0.026 0.161,0.122 0.091,0.112 0.084,0.084 0.084,0.046 0.649,0.072 0.169,0.062 0.126,0.074 0.084,0.068 0.168,0.02 0.252,-0.027 0.691,-0.212 0.141,-0.26 -0.326,-0.256 -0.067,-0.076 -0.038,-0.094 -0.007,-0.109 0.091,-0.708 0.017,-0.061 0.393,-0.134 1.349,0.012 -0.003,-0.822 0.733,-0.663 1.893,-1.253 0.383,-0.039 0.298,-0.176 0.056,-0.541 0.235,-0.388 0.406,-0.005 0.873,0.191 0.473,-0.03 0.35,-0.083 0.643,-0.341 1.196,-0.967 0.361,-0.119 0.407,0.102 0.308,0.24 0.533,0.527 0.921,0.303 0.394,0.21 0.073,0.355 0.194,0.224 0.201,0.141 0.257,0.069 0.358,0.02 0.091,0.068 0.134,0.299 0.085,0.068 h 0.546 l 1.087,0.246 0.571,-0.132 0.355,-0.02 0.281,-0.067 h 0.168 l 0.852,0.204 0.228,0.022 0.175,-0.01 0.105,-0.045 2.181,-0.426 0.386,-0.176 0.259,-0.189 0.067,-0.079 0.049,-0.093 0.101,-0.318 0.084,-0.113 0.137,-0.102 0.292,-0.108 0.189,-0.007 0.151,0.046 0.154,0.079 0.105,-0.01 0.379,-0.173 0.722,-0.168 0.161,0.005 0.053,0.037 0.059,0.053 0.077,0.054 0.152,0.054 0.599,0.125 h 0.207 l 0.147,-0.035 0.074,-0.069 0.052,-0.089 0.035,-0.093 -0.003,-0.104 -0.035,-0.096 -0.112,-0.181 -0.05,-0.101 -0.031,-0.115 -0.007,-0.129 0.01,-0.122 0.06,-0.351 0.028,-0.339 0.042,-0.238 0.028,-0.113 0.039,-0.103 0.094,-0.105 0.161,-0.091 0.506,-0.178 0.133,-0.07 0.081,-0.068 0.066,-0.078 0.053,-0.091 0.038,-0.104 0.018,-0.121 0.003,-0.273 0.018,-0.123 0.042,-0.098 0.059,-0.084 0.306,-0.278 0.675,-0.497 0.006,-0.005 0.104,0.01 0.411,0.302 0.177,0.547 -0.175,0.029 -0.281,0.127 -0.16,0.038 v 0.218 l 0.259,0.087 0.173,0.233 0.015,0.24 -0.563,0.244 0.011,0.304 0.259,0.519 0.076,0.209 0.195,0.272 0.257,0.163 0.258,-0.123 0.106,-0.351 -0.086,-0.397 -0.344,-0.729 0.184,-0.274 0.149,-0.352 0.099,-0.314 0.033,-0.143 0.668,0.802 0.298,0.523 0.127,0.505 0.044,1.027 0.094,0.35 0.171,0.027 h 0.137 l 0.061,0.193 0.077,0.172 0.186,0.304 -0.088,0.212 0.222,0.344 0.021,0.293 -0.142,0.323 -0.245,0.237 -0.32,0.121 -0.373,-0.009 v -0.237 l 0.068,-0.013 0.153,0.021 0.075,-0.008 -0.294,-0.229 -0.486,0.494 -0.454,0.603 -0.237,0.145 -0.176,0.143 -0.361,0.388 0.07,0.341 -0.272,0.223 -0.408,0.206 -0.328,0.295 0.267,-0.468 0.134,-0.387 -0.068,-0.393 -0.333,-0.493 -0.309,0.436 0.129,0.078 0.074,0.072 0.095,0.057 0.179,0.033 v 0.216 l -0.293,0.422 -0.232,0.47 -0.275,0.462 -0.447,0.387 0.057,-0.218 0.037,-0.098 0.073,-0.12 -0.493,-0.043 -0.224,0.319 0.015,0.567 0.224,0.703 v -0.134 l 0.026,-0.31 -0.026,-0.211 0.25,-0.14 0.228,-0.078 -0.147,1.204 -0.02,1.073 -0.134,0.451 -0.252,0.456 -0.135,0.469 0.21,0.489 -0.254,-0.13 -0.505,-0.505 -0.333,-0.256 0.081,-0.067 0.022,-0.013 0.064,-0.119 -0.43,0.01 -0.381,0.234 -0.206,0.384 0.079,0.462 -0.219,0.195 -0.092,0.198 0.063,0.163 0.248,0.098 -0.097,0.564 0.02,0.463 -0.094,0.339 -0.449,0.185 0.102,-0.362 -0.057,-0.439 -0.175,-0.375 -0.248,-0.155 -0.269,0.131 -0.202,0.671 -0.243,0.29 0.122,0.682 0.191,0.088 0.257,-0.182 0.298,-0.13 0.48,0.083 0.171,0.229 0.103,0.347 0.256,0.432 -0.19,0.429 0.101,0.114 0.216,0.008 0.169,0.107 0.062,0.318 -0.014,0.232 0.04,0.232 0.221,0.312 -0.236,0.235 -0.055,0.282 0.088,0.301 0.203,0.298 h -0.142 v 0.199 l 0.452,0.879 0.834,0.813 0.923,0.513 0.737,-0.014 -0.057,-0.311 0.291,-0.1 0.411,0.053 0.28,0.158 v 0.2 l -0.759,0.306 -0.142,0.291 0.285,0.522 0.154,-0.679 h 0.153 l 0.167,0.175 0.388,-0.361 0.374,-0.014 v 0.2 l -0.215,0.392 0.375,0.578 0.603,0.537 0.484,0.267 0.088,-0.458 0.176,-0.293 0.429,-0.454 0.156,0.023 0.576,0.412 0.272,0.113 -0.184,-0.414 -0.25,-0.269 -0.326,-0.149 -0.399,-0.046 -0.202,-0.212 -0.022,-0.448 -0.121,-0.395 -0.502,-0.063 v 0.239 l 0.231,-0.011 0.078,0.011 -0.01,0.028 -0.068,0.121 -0.075,0.096 -0.015,-0.045 -0.042,0.074 -0.23,-0.085 -0.245,-0.017 -0.255,0.028 0.309,-0.439 -0.153,-0.157 -0.112,-0.01 -0.092,0.133 -0.107,0.273 h -0.152 l -0.009,-0.296 -0.085,-0.15 -0.151,-0.044 -0.219,0.034 0.111,-0.292 -0.149,-0.351 -0.249,-0.414 -0.178,-0.478 0.302,0.059 0.627,0.397 0.822,0.203 0.184,0.117 0.378,0.323 2.237,0.826 3.821,1.844 3.685,2.414 0.855,0.202 1.782,0.059 0.552,0.169 0.239,0.33 0.002,0.005 z m -16.462,-7.43 0.223,0.133 0.038,0.369 -0.375,0.294 h -0.392 l -0.299,-0.505 0.092,-0.424 0.375,-0.079 z m 0.543,-0.367 0.645,-0.009 0.303,-0.062 0.287,-0.15 -0.529,0.481 -0.414,0.092 -0.392,-0.278 -0.447,-0.622 -0.546,-1.065 -0.178,-0.58 0.033,-0.197 z"
       style="fill:none;stroke:#591902;stroke-width:3.75000009;stroke-linecap:round;stroke-linejoin:round;stroke-miterlimit:4;stroke-dasharray:none;stroke-opacity:1"
       id="path16" />
    <path
       style="opacity:0.5;fill:#ffffff;fill-opacity:1;stroke-width:4.99999999;stroke-linejoin:bevel;stroke:#591902;stroke-opacity:1;stroke-dasharray:none"
       d="m 173.03035,96.542137 c -0.55653,-0.744952 -1.01187,-1.89096 -1.01187,-2.546677 0,-1.012145 -0.36152,-1.192212 -2.39366,-1.192212 -1.45402,0 -2.64567,-0.339741 -3.03562,-0.865464 -1.39533,-1.881136 -11.91712,-1.587924 -11.91712,0.332091 0,0.293356 -0.35843,0.533373 -0.79652,0.533373 -0.43809,0 -1.11734,0.386559 -1.50944,0.859017 -0.62413,0.752024 -0.89472,0.716013 -2.17253,-0.289107 -0.80278,-0.631467 -1.95007,-1.148124 -2.54954,-1.148124 -1.37217,0 -5.64005,-2.659365 -6.07126,-3.783076 -0.17784,-0.46345 -0.83343,-0.842631 -1.45687,-0.842631 -0.84662,0 -1.04613,-0.275374 -0.78823,-1.087954 0.4329,-1.363948 -0.80259,-1.898443 -3.25467,-1.408025 -1.30501,0.261 -1.7009,0.173805 -1.40256,-0.308911 0.23303,-0.377053 0.0185,-0.824971 -0.48831,-1.019442 -0.49718,-0.190787 -0.90397,-0.717511 -0.90397,-1.170489 0,-0.452984 -0.45534,-0.982431 -1.01187,-1.176543 -0.55653,-0.194117 -2.0765,-1.370568 -3.37771,-2.614339 -1.30121,-1.243766 -2.60219,-2.216847 -2.89107,-2.162403 -1.30485,0.245943 -1.95057,-0.116117 -1.87233,-1.049821 0.19548,-2.332588 -0.14692,-3.613834 -0.96575,-3.613834 -0.67976,0 -0.86464,-0.781514 -0.85495,-3.613834 0.0113,-3.290043 0.2444,-3.972008 2.60196,-7.611428 1.42428,-2.198677 2.58959,-4.215197 2.58959,-4.481154 0,-0.265957 0.40783,-0.483559 0.90629,-0.483559 0.86907,0 0.84349,0.593378 -0.13871,3.216657 -0.12658,0.338083 0.30048,1.094906 0.94902,1.681828 0.99463,0.900132 1.41441,0.959949 2.68235,0.382234 0.84432,-0.384694 2.35711,-0.524704 3.45135,-0.319423 1.75258,0.328787 2.01394,0.199687 2.60351,-1.286037 2.61229,-6.582917 3.6532,-8.300966 5.02929,-8.300966 0.86994,0 1.49854,-0.402252 1.67338,-1.070817 0.15401,-0.58895 1.22354,-1.520749 2.37672,-2.070665 1.90437,-0.908126 2.15803,-0.91598 2.76521,-0.08561 0.36768,0.502831 1.32582,0.914238 2.1292,0.914238 1.2879,0 1.50684,-0.307783 1.85088,-2.60196 0.34223,-2.282175 0.56702,-2.601961 1.829,-2.601961 1.80183,0 4.23911,-1.258745 5.61381,-2.899288 0.98534,-1.175884 0.99281,-1.380981 0.11743,-3.225712 -0.51415,-1.083493 -1.31291,-1.969987 -1.77501,-1.969987 -0.46211,0 -0.8402,-0.468353 -0.8402,-1.040784 0,-0.572431 -0.32524,-1.385544 -0.72276,-1.806917 -0.57822,-0.612906 -0.57822,-0.819136 0,-1.031147 0.39752,-0.145758 0.72276,-0.637156 0.72276,-1.091996 0,-0.45484 0.32525,-1.359689 0.72277,-2.010778 0.61183,-1.002095 0.55833,-1.305783 -0.34854,-1.978551 -0.98689,-0.732128 -0.89576,-0.82632 1.15643,-1.195353 3.22507,-0.579946 3.76553,-0.999856 4.84698,-3.765818 l 0.97265,-2.487687 1.55915,1.559151 c 1.24252,1.242526 1.7801,1.4409 2.64719,0.976848 0.59842,-0.320266 1.76652,-0.582303 2.59577,-0.582303 0.82924,0 2.06786,-0.521855 2.75249,-1.159678 0.8347,-0.77764 1.63629,-1.03135 2.43323,-0.770137 0.65365,0.214248 1.98018,0.341289 2.94784,0.282314 3.24458,-0.197744 6.09926,4.204287 3.01088,4.642906 -0.71554,0.101623 -1.54832,0.748123 -1.85062,1.436668 -0.30234,0.688626 -1.27309,1.396588 -2.15753,1.573478 -1.19485,0.238969 -1.91428,0.973398 -2.8006,2.858961 -0.65599,1.395561 -1.80915,2.818252 -2.56258,3.161536 -2.47554,1.127929 -2.40746,2.79436 0.21826,5.342532 2.66057,2.581999 2.87171,3.512665 1.18057,5.203804 -1.51831,1.518317 -1.05337,4.91909 0.91936,6.72449 0.75334,0.689439 1.5436,1.946385 1.75614,2.793212 0.21254,0.846828 0.8083,1.672365 1.32391,1.834527 0.51561,0.162161 1.53369,0.581176 2.26239,0.931143 1.04914,0.503853 1.68102,0.425956 3.03562,-0.374227 0.94089,-0.555793 1.7107,-0.765788 1.7107,-0.466657 0,0.299131 1.17088,0.504462 2.60196,0.45629 1.43491,-0.0483 2.60305,0.176271 2.60438,0.500689 10e-4,0.32355 0.66369,1.889253 1.47192,3.479339 l 1.4695,2.891067 -2.19891,0.309335 c -1.2094,0.170133 -3.39543,1.132561 -4.85785,2.138726 -3.2636,2.245421 -9.18599,4.921926 -9.18599,4.151427 0,-0.310497 0.3903,-0.714311 0.86732,-0.897364 0.47703,-0.183052 0.86732,-0.723116 0.86732,-1.200142 0,-0.499312 -0.33811,-0.737574 -0.79686,-0.561535 -0.43827,0.168181 -1.08262,0.02003 -1.43187,-0.329224 -0.4612,-0.461204 -0.9453,-0.354203 -1.76866,0.390933 -0.62351,0.564269 -1.39426,0.864884 -1.71277,0.668033 -0.31851,-0.196851 -0.79025,-0.02095 -1.04831,0.390898 -0.25806,0.411845 -1.165,1.190974 -2.01543,1.731397 -1.60285,1.018568 -1.8628,1.564849 -2.47697,5.205444 -0.27689,1.641311 -0.64049,2.1683 -1.49602,2.1683 -0.62163,0 -1.13023,0.311258 -1.13023,0.691688 0,1.354135 3.05452,5.090446 4.16156,5.090446 0.9917,0 1.07063,0.28403 0.72303,2.60196 -0.31923,2.128803 -0.22784,2.60196 0.50257,2.60196 0.49102,0 0.9759,0.585441 1.07753,1.30098 0.11651,0.820358 0.53008,1.244761 1.1195,1.148795 0.51411,-0.0837 1.26151,0.241543 1.66089,0.722767 0.39938,0.481223 1.08458,0.874952 1.52267,0.874952 0.92427,0 1.06367,0.923071 0.2183,1.445534 -0.31801,0.196546 -0.61364,1.05754 -0.65695,1.913319 -0.0714,1.411436 -0.10243,1.43198 -0.33375,0.221184 -0.37772,-1.977068 -2.124,-1.376506 -2.47858,0.852396 l -0.2891,1.817343 z"
       id="path8"
       transform="matrix(0.75000002,0,0,-0.75000002,225.275,439.565)" />
  </g>
</svg>
