<?xml version="1.0" encoding="UTF-8" standalone="no"?>
<!-- Created with Inkscape (http://www.inkscape.org/) -->

<svg
   version="1.1"
   id="svg2"
   width="359.30933"
   height="465.44919"
   viewBox="0 0 359.30933 465.44919"
   sodipodi:docname="outline - valle daosta.svg"
   inkscape:version="1.3.1 (91b66b0783, 2023-11-16)"
   inkscape:export-filename="outline - valle daosta.png"
   inkscape:export-xdpi="96"
   inkscape:export-ydpi="96"
   xmlns:inkscape="http://www.inkscape.org/namespaces/inkscape"
   xmlns:sodipodi="http://sodipodi.sourceforge.net/DTD/sodipodi-0.dtd"
   xmlns="http://www.w3.org/2000/svg"
   xmlns:svg="http://www.w3.org/2000/svg">
  <defs
     id="defs6" />
  <sodipodi:namedview
     id="namedview4"
     pagecolor="#ffffff"
     bordercolor="#000000"
     borderopacity="0.25"
     inkscape:showpageshadow="2"
     inkscape:pageopacity="0.0"
     inkscape:pagecheckerboard="0"
     inkscape:deskcolor="#d1d1d1"
     inkscape:zoom="16.937327"
     inkscape:cx="35.66088"
     inkscape:cy="77.255401"
     inkscape:window-width="2880"
     inkscape:window-height="1514"
     inkscape:window-x="2869"
     inkscape:window-y="-11"
     inkscape:window-maximized="1"
     inkscape:current-layer="g8"
     showgrid="false" />
  <g
     id="g8"
     inkscape:groupmode="layer"
     inkscape:label="ink_ext_XXXXXX"
     transform="matrix(1.3333333,0,0,-1.3333333,-300.36666,586.08665)">
    <path
       d="m 255.135,392.689 -0.035,0.103 -0.109,0.188 -0.028,0.28 v 0.436 l 0.112,1.035 0.007,0.435 -0.028,0.277 -0.077,0.074 -0.47,0.251 -0.192,0.148 -0.067,0.072 -0.059,0.113 -0.046,0.147 -0.092,0.554 -0.042,0.16 -0.119,0.668 -0.007,0.533 -0.07,0.931 -0.281,1.826 v 0.236 l 0.032,0.09 0.154,0.048 -0.143,0.661 -0.027,-0.053 -0.07,-0.333 0.018,-0.169 -0.054,-0.109 -0.282,-0.154 -0.131,0.007 -0.404,0.124 -0.621,-0.012 -1.086,0.396 -0.222,-0.025 -0.17,-0.08 -0.19,-0.045 -0.278,0.095 -0.032,0.082 -0.425,0.619 -0.339,0.315 -0.355,0.204 -2.303,0.576 -0.378,-0.196 -0.22,-0.368 -0.247,-0.323 -0.474,-0.06 -0.673,-0.292 -1.336,-0.977 -0.724,-0.254 -1.697,0.181 -0.297,-0.102 -0.635,-0.393 -1.395,-0.572 -0.681,-0.127 -0.738,-0.013 -0.694,0.142 -0.526,0.314 -1.013,1.134 -0.325,-0.154 -0.238,-0.298 -0.182,-0.389 -0.143,-0.437 -0.308,-0.518 -0.455,-0.386 -0.512,-0.261 -0.481,-0.142 -0.558,0.006 -0.157,-0.024 -0.084,0.013 -0.182,0.119 -0.086,0.012 -0.105,-0.087 -0.098,-0.151 -0.066,-0.138 v -0.057 l -0.672,-0.095 -0.348,-0.209 -0.288,-0.476 -0.121,-0.53 -0.016,-0.576 0.06,-0.577 0.255,-1.337 0.455,-0.687 0.61,-0.455 0.591,-0.12 0.301,-0.113 0.514,-0.509 0.301,-0.23 0.733,-0.187 0.278,-0.194 0.138,-0.48 -0.054,-0.183 -0.259,-0.565 -0.061,-0.268 0.045,-0.259 0.247,-0.379 0.089,-0.24 0.124,-1.329 0.17,-0.467 1.033,-0.577 0.983,-0.742 0.076,-0.121 10e-4,10e-4 0.313,0.346 0.956,1.055 0.144,0.058 0.115,0.019 -0.01,-0.112 -0.081,-0.277 v -0.028 l 0.004,-0.055 0.031,-0.078 0.06,-0.058 0.068,-0.038 0.392,-0.118 1.101,-0.152 0.277,0.013 0.186,0.043 0.147,0.139 3.303,1.108 0.084,0.061 0.291,0.306 0.081,0.064 0.463,0.271 0.147,0.15 0.27,0.326 0.452,0.425 0.158,0.081 0.175,0.039 0.414,-0.029 0.197,0.05 0.203,0.083 0.308,0.18 0.204,0.065 0.179,0.032 2.18,-0.488 0.109,-0.043 0.095,-0.053 0.267,-0.194 0.22,-0.064 1.319,-0.061 0.234,0.03 0.172,0.048 0.182,0.108 0.6,0.445 2.175,0.687 0.735,1.068 0.155,0.425 z"
       style="fill:none;stroke:#593b02;stroke-width:2.25000006;stroke-linecap:round;stroke-linejoin:round;stroke-miterlimit:4;stroke-dasharray:none;stroke-opacity:1"
       id="path84" />
  </g>
</svg>
