<?xml version="1.0" encoding="UTF-8" standalone="no"?>
<!-- Created with Inkscape (http://www.inkscape.org/) -->

<svg
   version="1.1"
   id="svg2"
   width="359.30933"
   height="465.44919"
   viewBox="0 0 359.30933 465.44919"
   sodipodi:docname="outline - liguria.svg"
   inkscape:version="1.3.1 (91b66b0783, 2023-11-16)"
   inkscape:export-filename="outline - liguria.png"
   inkscape:export-xdpi="96"
   inkscape:export-ydpi="96"
   xmlns:inkscape="http://www.inkscape.org/namespaces/inkscape"
   xmlns:sodipodi="http://sodipodi.sourceforge.net/DTD/sodipodi-0.dtd"
   xmlns="http://www.w3.org/2000/svg"
   xmlns:svg="http://www.w3.org/2000/svg">
  <defs
     id="defs6" />
  <sodipodi:namedview
     id="namedview4"
     pagecolor="#ffffff"
     bordercolor="#000000"
     borderopacity="0.25"
     inkscape:showpageshadow="2"
     inkscape:pageopacity="0.0"
     inkscape:pagecheckerboard="0"
     inkscape:deskcolor="#d1d1d1"
     inkscape:zoom="6.9178612"
     inkscape:cx="135.88015"
     inkscape:cy="121.20798"
     inkscape:window-width="2880"
     inkscape:window-height="1514"
     inkscape:window-x="2869"
     inkscape:window-y="-11"
     inkscape:window-maximized="1"
     inkscape:current-layer="g8" />
  <g
     id="g8"
     inkscape:groupmode="layer"
     inkscape:label="ink_ext_XXXXXX"
     transform="matrix(1.3333333,0,0,-1.3333333,-300.36666,586.08665)">
    <path
       d="m 303.368,343.333 -0.175,0.17 -0.42,0.292 -0.221,0.081 -0.172,0.019 -0.183,-0.056 -0.154,-0.013 -0.105,0.074 -0.095,0.132 -0.091,0.293 -0.018,0.186 0.004,0.159 0.014,0.124 -0.004,0.124 -0.038,0.1 -0.102,0.108 -0.161,0.103 -0.319,0.137 -0.19,0.032 -0.161,10e-4 -0.413,-0.061 -0.221,0.007 -0.217,0.04 -0.049,0.046 -0.039,0.077 0.025,0.165 0.038,0.118 0.161,0.308 0.032,0.114 -0.039,0.138 -0.098,0.131 -0.26,0.143 -0.133,-0.002 -0.098,-0.057 -0.197,-0.39 -0.063,-0.08 -0.073,-0.062 -0.091,0.01 -0.063,0.074 -0.014,0.163 0.035,0.267 0.003,0.129 -0.014,0.119 -0.129,0.59 -0.007,0.129 0.003,0.132 0.014,0.135 0.004,0.132 -0.018,0.119 -0.032,0.105 -0.126,0.146 -0.196,0.169 -1.943,1.35 -0.803,0.766 -0.599,0.874 -0.365,0.379 -0.176,0.427 -0.13,0.408 -0.098,0.187 -0.098,0.127 -1.195,0.662 -0.172,0.037 -0.463,-0.039 -0.322,0.065 -0.456,-0.035 -0.533,0.03 -0.15,-0.037 -0.127,-0.176 -0.102,-0.092 -0.098,-0.071 -0.092,-0.049 -0.245,-0.096 -0.518,-0.038 -0.296,0.009 -0.056,0.088 -0.042,0.176 0.021,0.187 0.032,0.153 0.073,0.246 0.212,0.952 0.038,0.103 0.053,0.093 0.077,0.067 0.102,0.04 0.14,0.098 0.161,0.153 0.238,0.392 0.098,0.222 0.056,0.187 0.035,0.557 -0.101,0.809 -0.235,0.255 -0.888,0.329 -0.203,0.117 -0.147,0.149 -0.256,0.388 -0.14,0.067 -0.105,-0.008 -0.07,-0.068 -0.175,-0.261 -0.13,-0.069 -0.194,-0.049 -0.399,0.005 -0.196,0.037 -0.14,0.065 -0.074,0.07 -0.915,0.589 -0.26,0.105 -0.182,0.024 -0.229,-0.124 -0.189,-0.064 -0.126,0.011 -0.105,0.046 -0.186,0.215 -0.175,0.168 -0.147,0.06 -0.137,0.01 -0.228,-0.075 -0.267,-0.131 -0.087,-0.457 -0.168,-0.21 -0.284,-0.182 -0.214,-0.1 -0.348,-0.079 -0.133,-0.005 -0.315,0.076 -0.308,0.122 -0.116,0.064 -0.091,0.075 -0.067,0.078 -0.038,0.098 -0.018,0.123 -0.018,0.272 -0.137,0.152 -0.235,0.147 -1.087,0.408 -0.315,0.263 -0.322,0.407 -0.312,0.207 -0.383,0.178 -0.182,0.113 -0.13,0.099 -0.203,0.329 -0.14,0.055 -0.19,0.014 -0.488,-0.062 -0.126,-0.054 -0.056,-0.069 -0.031,-0.07 -0.102,-0.408 -0.035,-0.086 -0.031,-0.054 -0.249,-0.273 -0.387,-0.341 -0.049,-0.086 -0.017,-0.095 0.031,-0.09 0.07,-0.069 0.275,-0.166 0.234,-0.198 0.057,-0.084 0.045,-0.102 0.028,-0.115 0.011,-0.132 0.003,-0.424 0.021,-0.262 0.004,-0.132 -0.007,-0.131 -0.039,-0.142 -0.081,-0.138 -0.178,-0.152 -0.133,-0.031 -0.46,0.071 -0.568,0.011 -0.259,-0.031 -0.169,-0.068 -0.049,-0.095 -0.12,-0.472 -0.038,-0.109 -0.049,-0.095 -0.063,-0.083 -0.074,-0.072 -0.336,-0.247 -0.063,-0.078 -0.119,-0.21 -0.21,-0.299 -0.063,-0.059 -0.057,-0.013 -0.06,0.04 -0.053,0.078 -0.031,0.103 v 0.12 l 0.063,0.351 -0.014,0.118 -0.042,0.1 -0.175,0.246 -0.109,0.191 -0.13,0.295 -0.189,0.241 -0.105,0.193 -0.088,0.205 -0.049,0.093 -0.063,0.083 -0.126,0.069 -0.183,0.055 -1.781,0.195 -0.249,-0.005 -0.182,-0.033 -0.08,-0.069 -0.053,-0.087 -0.08,-0.218 -0.032,-0.111 -0.082,-0.211 -0.031,-0.109 -0.007,-0.106 0.035,-0.101 0.038,-0.092 0.028,-0.105 -0.007,-0.107 -0.038,-0.105 -0.049,-0.098 -0.172,-0.265 -0.168,-0.198 -0.406,-0.269 -1.986,0.058 -0.634,-0.089 -0.231,-0.106 -0.18,-0.005 -0.164,0.039 -0.196,0.099 -0.12,-0.006 -0.101,-0.041 -0.326,-0.246 -0.067,-0.069 -0.052,-0.066 -0.035,-0.053 -0.035,-0.095 -0.028,-0.097 -0.082,-0.133 -0.119,-0.132 -0.266,-0.172 -0.144,-0.01 -0.101,0.049 -0.06,0.086 -0.063,0.075 -0.074,0.069 -0.192,0.093 -0.422,0.143 -0.112,0.06 -0.172,0.129 -0.22,0.205 -0.361,0.201 -0.168,0.131 -0.156,0.225 -0.238,0.237 -0.308,-0.072 -0.343,-0.45 -0.06,-0.115 -0.154,-0.393 -0.103,-0.349 -0.182,-0.308 -0.074,-0.209 -0.028,-0.158 0.018,-0.122 0.042,-0.103 0.06,-0.083 0.14,-0.148 0.066,-0.127 0.05,-0.168 0.011,-0.342 -0.046,-0.199 -0.081,-0.193 -0.165,-0.252 -0.077,-0.083 -0.077,-0.068 -0.081,-0.049 -0.339,-0.103 -0.092,-0.039 -0.112,-0.132 -0.115,-0.189 -0.254,-0.503 -0.084,-0.301 -0.059,-0.332 -0.056,-0.132 -0.081,-0.092 -0.427,-0.303 -0.151,-0.161 -0.158,-0.228 -0.137,-0.165 -0.154,-0.127 -0.249,-0.116 -0.165,-0.12 -0.056,-0.116 v -0.113 l 0.06,-0.08 0.08,-0.066 0.053,-0.154 0.01,-0.224 -0.157,-0.764 -0.028,-0.212 0.007,-0.122 0.028,-0.115 0.017,-0.166 v -0.21 l -0.063,-0.354 0.014,-0.194 0.046,-0.126 0.084,-0.064 0.073,-0.109 0.049,-0.154 v -0.297 l -0.035,-0.167 -0.049,-0.141 -0.217,-0.361 -0.235,-0.334 -0.143,-0.12 -0.06,-0.034 -0.073,-0.024 -0.114,-0.005 -0.22,0.049 -0.312,0.12 -0.228,0.04 -0.136,-0.041 -0.109,-0.09 -0.21,-0.25 -0.079,-0.172 -0.028,-0.159 0.035,-0.102 0.065,-0.082 0.091,-0.054 0.178,-0.079 0.053,-0.054 0.046,-0.09 0.017,-0.172 -0.024,-0.101 -0.043,-0.073 -0.126,-0.065 -0.161,-0.035 -1.561,0.197 -0.427,0.13 -1.473,0.065 -0.611,0.112 -0.073,0.071 -0.312,0.191 -0.368,0.162 -0.21,0.044 -0.162,-0.003 -0.095,-0.045 -0.084,-0.057 -0.151,-0.139 -0.066,-0.078 -0.168,-0.284 -0.039,-0.091 -0.028,-0.105 -0.014,-0.11 0.014,-0.112 0.039,-0.107 0.059,-0.081 0.084,-0.058 0.011,-0.067 -0.004,-0.06 -0.648,-0.246 -0.483,-0.023 0.09,-0.192 -0.045,-0.543 -0.252,-0.337 -0.327,-0.251 -0.247,-0.278 -0.145,-0.382 -0.187,-0.702 -0.175,-0.361 -0.505,-0.561 -1.167,-0.985 -0.456,-0.729 -0.978,-1.079 -0.353,-0.648 0.11,-0.789 0.442,-1.498 0.239,-0.002 0.234,-0.097 0.178,-0.142 h 0.294 l 0.631,0.213 2.778,-0.003 0.94,0.219 1.113,0.74 3.929,0.964 1.621,1.083 0.548,0.142 0.272,0.144 0.119,0.248 0.055,0.157 0.138,0.174 0.173,0.145 0.589,0.245 0.665,0.778 0.526,0.122 v 0.192 l -0.345,0.645 0.371,0.733 1.067,1.208 0.169,0.375 0.14,0.479 0.027,0.245 -0.027,0.502 0.071,0.227 0.528,0.777 0.294,0.326 0.342,0.298 0.651,0.383 1.264,0.41 0.568,0.278 0.309,0.35 0.007,0.332 -0.046,0.344 0.121,0.377 0.122,0.114 0.342,0.231 0.068,0.075 0.026,0.224 0.066,0.177 0.232,0.351 -0.118,0.614 0.487,0.642 1.677,1.125 0.554,0.539 0.268,0.107 0.386,0.069 1.387,1.006 0.173,0.028 0.184,-0.027 0.173,-0.001 0.152,0.108 0.237,0.272 0.655,0.544 0.28,0.151 0.57,0.105 1.46,-0.115 0.243,-0.356 0.172,-0.116 0.521,-0.118 1.042,-0.026 0.206,0.083 0.661,-0.37 1.092,-0.395 2.278,-0.419 0.633,-0.335 0.419,-0.734 -0.044,-0.361 0.416,-0.323 1.031,-0.408 -0.02,0.489 0.088,0.396 0.166,0.334 0.217,0.304 0.724,-0.545 2.373,-1.321 0.154,-0.712 1.081,-0.472 0.155,-0.299 0.171,-0.244 0.386,-0.056 0.421,0.066 0.269,0.127 0.121,-0.407 0.21,-0.285 0.275,-0.207 1.023,-0.474 0.373,-0.268 0.156,-0.398 0.142,-0.038 0.789,-0.925 0.224,-0.115 0.276,-0.071 0.662,-0.047 0.228,-0.134 0.613,-0.59 0.252,-0.134 1.151,-1.067 1.085,-0.503 0.149,-0.247 0.132,-0.413 0.232,-0.036 0.086,0.161 -0.296,0.181 0.127,0.26 0.062,0.094 0.133,0.092 v 0.194 l -0.212,0.071 -0.171,0.128 -0.138,0.19 -0.11,0.253 0.099,0.067 0.105,0.094 0.105,0.054 -0.154,0.232 0.413,0.043 0.725,-0.651 0.252,0.161 0.369,-0.41 0.758,-0.612 0.357,-0.367 0.206,-0.125 0.224,0.033 0.182,0.13 0.077,0.176 0.1,0.134 0.226,-0.054 0.368,-0.187 0.308,-0.088 10e-4,0.006 0.007,0.04 0.039,0.151 0.059,0.172 0.07,0.168 0.161,0.298 0.2,0.267 0.053,0.094 0.042,0.102 0.01,0.118 -0.084,0.159"
       style="fill:#ffffff;fill-opacity:1;fill-rule:evenodd;stroke:none;stroke-width:0.1"
       id="path50" />
    <path
       d="m 303.368,343.333 -0.175,0.17 -0.42,0.292 -0.221,0.081 -0.172,0.019 -0.183,-0.056 -0.154,-0.013 -0.105,0.074 -0.095,0.132 -0.091,0.293 -0.018,0.186 0.004,0.159 0.014,0.124 -0.004,0.124 -0.038,0.1 -0.102,0.108 -0.161,0.103 -0.319,0.137 -0.19,0.032 -0.161,10e-4 -0.413,-0.061 -0.221,0.007 -0.217,0.04 -0.049,0.046 -0.039,0.077 0.025,0.165 0.038,0.118 0.161,0.308 0.032,0.114 -0.039,0.138 -0.098,0.131 -0.26,0.143 -0.133,-0.002 -0.098,-0.057 -0.197,-0.39 -0.063,-0.08 -0.073,-0.062 -0.091,0.01 -0.063,0.074 -0.014,0.163 0.035,0.267 0.003,0.129 -0.014,0.119 -0.129,0.59 -0.007,0.129 0.003,0.132 0.014,0.135 0.004,0.132 -0.018,0.119 -0.032,0.105 -0.126,0.146 -0.196,0.169 -1.943,1.35 -0.803,0.766 -0.599,0.874 -0.365,0.379 -0.176,0.427 -0.13,0.408 -0.098,0.187 -0.098,0.127 -1.195,0.662 -0.172,0.037 -0.463,-0.039 -0.322,0.065 -0.456,-0.035 -0.533,0.03 -0.15,-0.037 -0.127,-0.176 -0.102,-0.092 -0.098,-0.071 -0.092,-0.049 -0.245,-0.096 -0.518,-0.038 -0.296,0.009 -0.056,0.088 -0.042,0.176 0.021,0.187 0.032,0.153 0.073,0.246 0.212,0.952 0.038,0.103 0.053,0.093 0.077,0.067 0.102,0.04 0.14,0.098 0.161,0.153 0.238,0.392 0.098,0.222 0.056,0.187 0.035,0.557 -0.101,0.809 -0.235,0.255 -0.888,0.329 -0.203,0.117 -0.147,0.149 -0.256,0.388 -0.14,0.067 -0.105,-0.008 -0.07,-0.068 -0.175,-0.261 -0.13,-0.069 -0.194,-0.049 -0.399,0.005 -0.196,0.037 -0.14,0.065 -0.074,0.07 -0.915,0.589 -0.26,0.105 -0.182,0.024 -0.229,-0.124 -0.189,-0.064 -0.126,0.011 -0.105,0.046 -0.186,0.215 -0.175,0.168 -0.147,0.06 -0.137,0.01 -0.228,-0.075 -0.267,-0.131 -0.087,-0.457 -0.168,-0.21 -0.284,-0.182 -0.214,-0.1 -0.348,-0.079 -0.133,-0.005 -0.315,0.076 -0.308,0.122 -0.116,0.064 -0.091,0.075 -0.067,0.078 -0.038,0.098 -0.018,0.123 -0.018,0.272 -0.137,0.152 -0.235,0.147 -1.087,0.408 -0.315,0.263 -0.322,0.407 -0.312,0.207 -0.383,0.178 -0.182,0.113 -0.13,0.099 -0.203,0.329 -0.14,0.055 -0.19,0.014 -0.488,-0.062 -0.126,-0.054 -0.056,-0.069 -0.031,-0.07 -0.102,-0.408 -0.035,-0.086 -0.031,-0.054 -0.249,-0.273 -0.387,-0.341 -0.049,-0.086 -0.017,-0.095 0.031,-0.09 0.07,-0.069 0.275,-0.166 0.234,-0.198 0.057,-0.084 0.045,-0.102 0.028,-0.115 0.011,-0.132 0.003,-0.424 0.021,-0.262 0.004,-0.132 -0.007,-0.131 -0.039,-0.142 -0.081,-0.138 -0.178,-0.152 -0.133,-0.031 -0.46,0.071 -0.568,0.011 -0.259,-0.031 -0.169,-0.068 -0.049,-0.095 -0.12,-0.472 -0.038,-0.109 -0.049,-0.095 -0.063,-0.083 -0.074,-0.072 -0.336,-0.247 -0.063,-0.078 -0.119,-0.21 -0.21,-0.299 -0.063,-0.059 -0.057,-0.013 -0.06,0.04 -0.053,0.078 -0.031,0.103 v 0.12 l 0.063,0.351 -0.014,0.118 -0.042,0.1 -0.175,0.246 -0.109,0.191 -0.13,0.295 -0.189,0.241 -0.105,0.193 -0.088,0.205 -0.049,0.093 -0.063,0.083 -0.126,0.069 -0.183,0.055 -1.781,0.195 -0.249,-0.005 -0.182,-0.033 -0.08,-0.069 -0.053,-0.087 -0.08,-0.218 -0.032,-0.111 -0.082,-0.211 -0.031,-0.109 -0.007,-0.106 0.035,-0.101 0.038,-0.092 0.028,-0.105 -0.007,-0.107 -0.038,-0.105 -0.049,-0.098 -0.172,-0.265 -0.168,-0.198 -0.406,-0.269 -1.986,0.058 -0.634,-0.089 -0.231,-0.106 -0.18,-0.005 -0.164,0.039 -0.196,0.099 -0.12,-0.006 -0.101,-0.041 -0.326,-0.246 -0.067,-0.069 -0.052,-0.066 -0.035,-0.053 -0.035,-0.095 -0.028,-0.097 -0.082,-0.133 -0.119,-0.132 -0.266,-0.172 -0.144,-0.01 -0.101,0.049 -0.06,0.086 -0.063,0.075 -0.074,0.069 -0.192,0.093 -0.422,0.143 -0.112,0.06 -0.172,0.129 -0.22,0.205 -0.361,0.201 -0.168,0.131 -0.156,0.225 -0.238,0.237 -0.308,-0.072 -0.343,-0.45 -0.06,-0.115 -0.154,-0.393 -0.103,-0.349 -0.182,-0.308 -0.074,-0.209 -0.028,-0.158 0.018,-0.122 0.042,-0.103 0.06,-0.083 0.14,-0.148 0.066,-0.127 0.05,-0.168 0.011,-0.342 -0.046,-0.199 -0.081,-0.193 -0.165,-0.252 -0.077,-0.083 -0.077,-0.068 -0.081,-0.049 -0.339,-0.103 -0.092,-0.039 -0.112,-0.132 -0.115,-0.189 -0.254,-0.503 -0.084,-0.301 -0.059,-0.332 -0.056,-0.132 -0.081,-0.092 -0.427,-0.303 -0.151,-0.161 -0.158,-0.228 -0.137,-0.165 -0.154,-0.127 -0.249,-0.116 -0.165,-0.12 -0.056,-0.116 v -0.113 l 0.06,-0.08 0.08,-0.066 0.053,-0.154 0.01,-0.224 -0.157,-0.764 -0.028,-0.212 0.007,-0.122 0.028,-0.115 0.017,-0.166 v -0.21 l -0.063,-0.354 0.014,-0.194 0.046,-0.126 0.084,-0.064 0.073,-0.109 0.049,-0.154 v -0.297 l -0.035,-0.167 -0.049,-0.141 -0.217,-0.361 -0.235,-0.334 -0.143,-0.12 -0.06,-0.034 -0.073,-0.024 -0.114,-0.005 -0.22,0.049 -0.312,0.12 -0.228,0.04 -0.136,-0.041 -0.109,-0.09 -0.21,-0.25 -0.079,-0.172 -0.028,-0.159 0.035,-0.102 0.065,-0.082 0.091,-0.054 0.178,-0.079 0.053,-0.054 0.046,-0.09 0.017,-0.172 -0.024,-0.101 -0.043,-0.073 -0.126,-0.065 -0.161,-0.035 -1.561,0.197 -0.427,0.13 -1.473,0.065 -0.611,0.112 -0.073,0.071 -0.312,0.191 -0.368,0.162 -0.21,0.044 -0.162,-0.003 -0.095,-0.045 -0.084,-0.057 -0.151,-0.139 -0.066,-0.078 -0.168,-0.284 -0.039,-0.091 -0.028,-0.105 -0.014,-0.11 0.014,-0.112 0.039,-0.107 0.059,-0.081 0.084,-0.058 0.011,-0.067 -0.004,-0.06 -0.648,-0.246 -0.483,-0.023 0.09,-0.192 -0.045,-0.543 -0.252,-0.337 -0.327,-0.251 -0.247,-0.278 -0.145,-0.382 -0.187,-0.702 -0.175,-0.361 -0.505,-0.561 -1.167,-0.985 -0.456,-0.729 -0.978,-1.079 -0.353,-0.648 0.11,-0.789 0.442,-1.498 0.239,-0.002 0.234,-0.097 0.178,-0.142 h 0.294 l 0.631,0.213 2.778,-0.003 0.94,0.219 1.113,0.74 3.929,0.964 1.621,1.083 0.548,0.142 0.272,0.144 0.119,0.248 0.055,0.157 0.138,0.174 0.173,0.145 0.589,0.245 0.665,0.778 0.526,0.122 v 0.192 l -0.345,0.645 0.371,0.733 1.067,1.208 0.169,0.375 0.14,0.479 0.027,0.245 -0.027,0.502 0.071,0.227 0.528,0.777 0.294,0.326 0.342,0.298 0.651,0.383 1.264,0.41 0.568,0.278 0.309,0.35 0.007,0.332 -0.046,0.344 0.121,0.377 0.122,0.114 0.342,0.231 0.068,0.075 0.026,0.224 0.066,0.177 0.232,0.351 -0.118,0.614 0.487,0.642 1.677,1.125 0.554,0.539 0.268,0.107 0.386,0.069 1.387,1.006 0.173,0.028 0.184,-0.027 0.173,-0.001 0.152,0.108 0.237,0.272 0.655,0.544 0.28,0.151 0.57,0.105 1.46,-0.115 0.243,-0.356 0.172,-0.116 0.521,-0.118 1.042,-0.026 0.206,0.083 0.661,-0.37 1.092,-0.395 2.278,-0.419 0.633,-0.335 0.419,-0.734 -0.044,-0.361 0.416,-0.323 1.031,-0.408 -0.02,0.489 0.088,0.396 0.166,0.334 0.217,0.304 0.724,-0.545 2.373,-1.321 0.154,-0.712 1.081,-0.472 0.155,-0.299 0.171,-0.244 0.386,-0.056 0.421,0.066 0.269,0.127 0.121,-0.407 0.21,-0.285 0.275,-0.207 1.023,-0.474 0.373,-0.268 0.156,-0.398 0.142,-0.038 0.789,-0.925 0.224,-0.115 0.276,-0.071 0.662,-0.047 0.228,-0.134 0.613,-0.59 0.252,-0.134 1.151,-1.067 1.085,-0.503 0.149,-0.247 0.132,-0.413 0.232,-0.036 0.086,0.161 -0.296,0.181 0.127,0.26 0.062,0.094 0.133,0.092 v 0.194 l -0.212,0.071 -0.171,0.128 -0.138,0.19 -0.11,0.253 0.099,0.067 0.105,0.094 0.105,0.054 -0.154,0.232 0.413,0.043 0.725,-0.651 0.252,0.161 0.369,-0.41 0.758,-0.612 0.357,-0.367 0.206,-0.125 0.224,0.033 0.182,0.13 0.077,0.176 0.1,0.134 0.226,-0.054 0.368,-0.187 0.308,-0.088 10e-4,0.006 0.007,0.04 0.039,0.151 0.059,0.172 0.07,0.168 0.161,0.298 0.2,0.267 0.053,0.094 0.042,0.102 0.01,0.118 z"
       style="fill:none;stroke:#593b02;stroke-width:2.25000006;stroke-linecap:round;stroke-linejoin:round;stroke-miterlimit:4;stroke-dasharray:none;stroke-opacity:1"
       id="path52" />
  </g>
</svg>
