<?xml version="1.0" encoding="UTF-8" standalone="no"?>
<!-- Created with Inkscape (http://www.inkscape.org/) -->

<svg
   version="1.1"
   id="svg2"
   width="359.30933"
   height="465.44919"
   viewBox="0 0 359.30933 465.44919"
   sodipodi:docname="outline - emilio.svg"
   inkscape:version="1.3.1 (91b66b0783, 2023-11-16)"
   inkscape:export-filename="outline - emilio.png"
   inkscape:export-xdpi="96"
   inkscape:export-ydpi="96"
   xmlns:inkscape="http://www.inkscape.org/namespaces/inkscape"
   xmlns:sodipodi="http://sodipodi.sourceforge.net/DTD/sodipodi-0.dtd"
   xmlns="http://www.w3.org/2000/svg"
   xmlns:svg="http://www.w3.org/2000/svg">
  <defs
     id="defs6" />
  <sodipodi:namedview
     id="namedview4"
     pagecolor="#ffffff"
     bordercolor="#000000"
     borderopacity="0.25"
     inkscape:showpageshadow="2"
     inkscape:pageopacity="0.0"
     inkscape:pagecheckerboard="0"
     inkscape:deskcolor="#d1d1d1"
     inkscape:zoom="2.4458332"
     inkscape:cx="48.858606"
     inkscape:cy="214.03749"
     inkscape:window-width="2880"
     inkscape:window-height="1514"
     inkscape:window-x="2869"
     inkscape:window-y="-11"
     inkscape:window-maximized="1"
     inkscape:current-layer="g8"
     showgrid="false" />
  <g
     id="g8"
     inkscape:groupmode="layer"
     inkscape:label="ink_ext_XXXXXX"
     transform="matrix(1.3333333,0,0,-1.3333333,-300.36666,586.08665)">
    <path
       d="m 364.394,339.352 -0.984,0.328 -0.423,0.242 -0.693,0.553 -0.667,0.683 -1.291,1.738 -0.607,0.247 -0.824,0.662 -0.726,0.777 -0.469,0.849 -0.923,0.912 -0.615,0.856 -0.478,0.879 -0.419,1.178 -0.136,0.633 -0.048,0.667 -0.066,0.152 -0.311,0.425 -0.099,0.186 -0.065,0.234 -0.09,0.82 -0.689,3.167 -0.083,1.397 0.131,2.238 -0.054,0.35 -0.193,0.213 -0.204,0.496 -0.298,1.02 -0.138,1.368 0.158,1.258 0.598,2.196 h -0.309 v 0.194 l 0.587,0.528 0.241,-0.011 0.408,-0.299 0.583,-0.577 0.239,-0.355 0.412,-0.378 0.4,0.039 -0.006,0.005 -0.675,0.497 -0.306,0.278 -0.059,0.084 -0.042,0.098 -0.018,0.123 -0.003,0.273 -0.018,0.121 -0.038,0.104 -0.053,0.091 -0.066,0.078 -0.081,0.068 -0.133,0.07 -0.506,0.178 -0.161,0.091 -0.094,0.105 -0.039,0.103 -0.028,0.113 -0.042,0.238 -0.028,0.339 -0.06,0.351 -0.01,0.122 0.007,0.129 0.031,0.115 0.05,0.101 0.112,0.181 0.035,0.096 0.003,0.104 -0.035,0.093 -0.052,0.089 -0.074,0.069 -0.147,0.035 h -0.207 l -0.599,-0.125 -0.152,-0.054 -0.077,-0.054 -0.059,-0.053 -0.053,-0.037 -0.161,-0.005 -0.722,0.168 -0.379,0.173 -0.105,0.01 -0.154,-0.079 -0.151,-0.046 -0.189,0.007 -0.292,0.108 -0.137,0.102 -0.084,0.113 -0.101,0.318 -0.049,0.093 -0.067,0.079 -0.259,0.189 -0.386,0.176 -2.181,0.426 -0.105,0.045 -0.175,0.01 -0.228,-0.022 -0.852,-0.204 h -0.168 l -0.281,0.067 -0.355,0.02 -0.571,0.132 -1.087,-0.246 h -0.546 l -0.085,-0.068 -0.134,-0.299 -0.091,-0.068 -0.358,-0.02 -0.257,-0.069 -0.201,-0.141 -0.194,-0.224 -0.073,-0.355 -0.394,-0.21 -0.921,-0.303 -0.533,-0.527 -0.308,-0.24 -0.407,-0.102 -0.361,0.119 -1.196,0.967 -0.643,0.341 -0.35,0.083 -0.473,0.03 -0.873,-0.191 -0.406,0.005 -0.235,0.388 -1.143,0.263 -1.536,0.062 -0.108,-0.039 -0.082,-0.059 -0.063,-0.09 -0.112,-0.253 -0.161,-0.112 -0.106,-0.007 -0.406,0.155 -1.623,-0.477 -0.492,-0.026 -0.073,0.071 -0.189,0.254 -0.074,0.068 -0.087,0.059 -1.224,0.5 -0.168,0.014 -1.891,-0.269 -0.066,-0.05 -0.064,-0.066 -0.063,-0.085 -0.112,-0.187 -0.105,-0.09 -0.147,-0.081 -0.677,-0.161 -0.189,-0.091 -0.088,-0.059 -0.266,-0.148 -0.719,-0.253 -0.267,0.175 -0.077,0.065 -0.178,0.127 -0.141,0.064 -2.149,0.526 -0.084,0.064 -0.049,0.082 0.007,0.102 0.035,0.103 0.045,0.1 0.025,0.109 -0.004,0.119 -0.031,0.108 -0.042,0.102 -0.067,0.087 -0.067,0.073 -0.311,0.257 -0.074,0.044 -0.281,0.023 -0.34,-0.023 -0.182,0.033 -0.133,0.047 -0.074,0.06 -0.277,-0.106 -0.38,-0.694 -0.695,-0.82 -0.71,-0.543 -0.808,-0.215 -0.997,0.017 -0.985,0.227 -0.773,0.425 -0.305,0.469 -0.364,1.062 -0.333,0.207 -0.454,-0.077 -0.313,-0.128 -0.337,-0.027 -0.531,0.232 -2.331,1.492 -0.908,0.268 -0.918,-0.102 -0.858,-0.26 -0.747,0.074 -0.577,0.901 -0.406,0.999 -0.056,0.238 -0.099,0.176 -0.435,0.306 -0.098,0.161 -0.256,0.127 -1.595,-0.661 0.161,0.704 -0.434,0.269 -0.476,-0.139 0.047,-0.518 0.331,-0.598 -0.084,-0.232 -0.341,-0.01 -0.949,0.223 -0.195,-0.073 0.152,-0.399 0.075,-0.317 -0.147,-0.177 -0.209,0.013 -0.105,0.254 -0.18,0.257 -0.83,0.536 -0.239,0.425 h -0.14 l -0.01,-0.152 -0.022,-0.027 -0.042,0.007 -0.066,-0.046 0.007,-0.829 -0.681,-0.31 -0.923,0.097 -0.731,0.388 -0.277,0.206 -0.039,0.151 -0.007,0.406 0.06,0.18 0.088,0.161 -0.021,0.127 -0.267,0.076 -0.318,-0.094 -0.262,-0.233 -0.284,-0.179 -0.384,0.071 -0.273,0.453 -0.194,0.185 -0.228,-0.104 -0.084,-0.236 0.038,-0.266 0.08,-0.285 0.043,-0.301 -0.094,-0.365 -0.222,0.071 -0.454,0.412 -0.256,0.061 -0.199,0.017 -0.485,-0.078 h -1.024 l -0.155,-0.421 -0.091,-0.214 -0.701,-1.155 -1.431,-3.286 -0.175,-0.276 -0.126,-0.262 -0.049,-0.168 -0.039,-0.206 -0.021,-0.343 0.021,-0.196 0.046,-0.143 0.052,-0.087 0.137,-0.149 0.084,-0.064 0.189,-0.108 0.418,-0.176 0.168,-0.122 0.063,-0.075 0.049,-0.091 0.035,-0.111 0.018,-0.135 0.004,-0.138 -0.074,-0.813 -0.326,-0.66 -0.523,-0.831 -0.175,-0.385 -0.091,-0.272 0.017,-0.123 0.028,-0.11 0.225,-0.649 0.108,-0.468 0.011,-0.124 -0.021,-0.146 -0.06,-0.13 -0.13,-0.16 -0.105,-0.09 -0.168,-0.052 -0.206,-0.005 -0.4,0.069 -0.18,0.083 -0.108,0.098 -0.116,0.323 -0.052,0.091 -0.074,0.027 -0.088,-0.043 -0.059,-0.193 -0.004,-0.146 0.011,-0.285 -0.014,-0.129 -0.056,-0.241 -0.214,-0.132 -0.705,0.105 0.038,-2.164 0.267,0.131 0.228,0.075 0.137,-0.01 0.147,-0.06 0.175,-0.168 0.186,-0.215 0.105,-0.046 0.126,-0.011 0.189,0.064 0.229,0.124 0.182,-0.024 0.26,-0.105 0.915,-0.589 0.074,-0.07 0.14,-0.065 0.196,-0.037 0.399,-0.005 0.194,0.049 0.13,0.069 0.175,0.261 0.07,0.068 0.105,0.008 0.14,-0.067 0.256,-0.388 0.147,-0.149 0.203,-0.117 0.888,-0.329 0.235,-0.255 0.101,-0.809 -0.035,-0.557 -0.056,-0.187 -0.098,-0.222 -0.238,-0.392 -0.161,-0.153 -0.14,-0.098 -0.102,-0.04 -0.077,-0.067 -0.053,-0.093 -0.038,-0.103 -0.212,-0.952 -0.073,-0.246 -0.032,-0.153 -0.021,-0.187 0.042,-0.176 0.056,-0.088 0.296,-0.009 0.518,0.038 0.245,0.096 0.092,0.049 0.098,0.071 0.102,0.092 0.127,0.176 0.15,0.037 0.533,-0.03 0.456,0.035 0.322,-0.065 0.463,0.039 0.172,-0.037 1.195,-0.662 0.098,-0.127 0.098,-0.187 0.13,-0.408 0.176,-0.427 0.365,-0.379 -0.063,0.187 0.007,0.099 0.035,0.105 0.059,0.086 0.088,0.06 0.094,0.052 0.368,0.065 0.628,0.228 0.095,0.051 0.081,0.061 0.056,0.09 0.091,0.344 0.045,0.107 0.049,0.094 0.358,0.51 0.544,0.621 0.413,0.606 0.348,0.372 0.179,0.104 0.203,0.08 0.144,0.026 0.168,0.002 0.684,-0.109 0.879,-0.288 1.228,-0.705 0.101,-0.091 0.088,-0.134 0.084,-0.261 -0.007,-0.139 -0.035,-0.082 -0.221,-0.125 -0.077,-0.071 -0.042,-0.099 -0.003,-0.109 0.143,-0.196 1.378,-1.177 0.053,-0.087 0.127,-0.162 0.28,-0.289 0.291,-0.099 0.821,-0.025 1.072,-0.685 0.432,-0.159 0.126,-0.021 0.123,-0.077 0.112,-0.128 0.234,-0.559 0.067,-0.117 0.264,-0.353 0.445,-0.366 0.329,0.07 0.548,0.324 h 0.189 l 1.238,-0.234 0.185,-0.091 0.274,-0.267 0.582,-0.796 0.07,-0.074 0.368,-0.142 1.238,-0.212 0.115,-0.351 0.029,-0.415 0.021,-0.119 0.028,-0.112 0.042,-0.096 0.052,-0.094 0.705,-0.772 0.162,-0.21 1.087,-0.938 0.266,-0.076 0.641,0.079 0.147,0.163 0.117,0.173 0.126,0.308 0.049,0.093 0.063,0.076 0.074,0.06 0.213,0.105 0.099,0.029 1.3,0.132 0.601,-0.231 1.521,-1.161 0.753,-0.296 0.236,-0.203 0.06,-0.085 0.07,-0.071 0.108,-0.068 0.477,-0.192 0.101,-0.076 0.2,-0.233 0.168,-0.115 0.394,-0.197 0.098,-0.026 0.091,0.005 0.873,1.074 0.204,0.382 0.063,0.082 0.21,0.209 0.052,0.069 0.028,0.056 0.028,0.084 0.014,0.109 0.021,0.109 0.032,0.084 0.207,0.031 0.101,-0.008 0.12,-0.029 0.122,-0.088 0.05,-0.109 -0.043,-0.172 -0.077,-0.105 -0.154,-0.168 -0.056,-0.098 -0.032,-0.111 0.077,-0.153 0.074,-0.115 0.758,-0.386 3.527,0.415 0.372,-0.073 h 0.346 l 0.376,0.131 0.186,0.168 0.049,0.116 -0.028,0.097 -0.077,0.067 -0.095,0.059 -0.74,0.303 -0.189,0.105 -0.077,0.07 -0.063,0.074 -0.053,0.094 -0.028,0.101 -0.007,0.113 0.032,0.102 0.056,0.091 0.077,0.068 1.753,0.3 0.224,0.076 0.702,0.742 0.108,0.152 0.035,0.067 0.032,0.073 0.098,0.091 0.175,0.066 0.422,-0.002 0.206,0.038 0.133,0.059 0.06,0.086 0.189,0.397 0.056,0.086 0.063,0.082 0.102,0.053 0.136,0.024 0.222,-0.042 0.14,-0.044 0.302,-0.159 0.084,-0.094 0.094,-0.13 0.088,-0.255 0.13,-0.233 0.792,-0.949 0.26,-0.243 0.481,-0.139 0.763,0.02 0.116,0.048 0.133,0.08 0.06,0.091 0.07,0.073 0.091,0.053 0.162,-0.013 0.21,-0.082 0.358,-0.255 0.119,-0.175 0.031,-0.146 -0.045,-0.093 -0.07,-0.081 -0.281,-0.269 -0.07,-0.088 -0.038,-0.103 -0.007,-0.102 0.126,-0.092 0.217,-0.083 0.698,-0.17 0.232,-0.012 0.21,0.044 0.571,0.282 0.295,0.085 0.694,0.039 0.2,0.028 0.105,-0.004 0.115,-0.026 0.096,-0.052 0.039,-0.109 -0.004,-0.155 -0.112,-0.273 -0.082,-0.144 -0.182,-0.397 -0.102,-0.439 -0.07,-0.21 -0.063,-0.149 -0.381,-0.534 -0.123,-0.335 -0.06,-0.128 -0.236,-0.366 -0.073,-0.071 -0.095,-0.045 -0.382,-0.036 -0.108,-0.029 -0.074,-0.101 -0.028,-0.157 -0.007,-0.415 -0.017,-0.139 0.014,-0.13 0.059,-0.139 0.151,-0.184 0.523,-0.467 0.056,-0.111 0.035,-0.141 -0.047,-0.439 0.007,-0.155 0.057,-0.122 0.172,-0.099 0.133,-0.061 0.109,-0.17 0.053,-0.14 0.007,-1.086 0.269,-0.285 0.267,-0.223 1.181,-0.659 0.105,-0.094 0.177,-0.256 0.269,-0.307 0.085,-0.063 0.154,-0.061 0.22,-0.05 1.038,-0.108 0.214,-0.061 0.765,-0.371 0.382,-0.253 0.413,-0.445 0.33,-0.25 2.24,-0.586 0.282,-0.005 0.497,0.152 0.267,1.085 0.143,0.333 0.408,0.544 0.119,0.328 0.42,1.926 0.007,0.133 -0.056,0.449 0.004,0.29 0.031,0.12 0.056,0.073 0.084,0.012 0.06,-0.006 0.094,-0.026 0.284,-0.129 0.116,-0.031 0.765,-0.013 0.115,-0.032 0.144,-0.002 0.162,0.036 0.985,0.588 0.463,0.348 0.242,0.142 0.192,0.08 0.127,0.007 0.898,0.236 0.248,-0.003 0.123,-0.021 0.477,-0.203 0.234,0.236 0.722,0.37 0.651,0.11 0.159,-0.296 0.072,-0.522 -0.046,-0.54 -0.164,-0.311 0.304,-0.179 0.922,-0.516 0.112,-0.108 0.123,-0.153 v -0.119 l -0.01,-0.146 0.007,-0.158 0.073,-0.222 0.095,-0.086 0.094,-0.006 0.077,0.059 0.06,0.088 0.046,0.098 0.038,0.11 0.06,0.119 0.084,0.105 0.178,0.082 0.103,-0.024 0.081,-0.064 0.098,-0.184 0.175,-0.265 0.098,-0.191 0.126,-0.457 0.056,-0.152 0.13,-0.212 0.122,-0.092 0.137,-0.034 h 0.8 l 0.147,0.025 0.112,0.052 0.06,0.081 0.052,0.095 0.088,0.208 0.049,0.092 0.061,0.087 0.072,0.078 0.085,0.058 0.47,0.225 0.084,0.067 0.07,0.074 0.059,0.089 0.225,0.496 0.028,0.113 0.01,0.113 -0.021,0.108 -0.073,0.203 -0.025,0.111 -0.014,0.122 0.003,0.126 0.011,0.136 0.046,0.245 0.242,0.704 0.084,0.315 z"
       style="fill:#ffffff;stroke:#a67d03;stroke-width:1.12500003;stroke-linecap:round;stroke-linejoin:round;stroke-miterlimit:4;stroke-dasharray:none;stroke-opacity:1;fill-opacity:1"
       id="path68" />
  </g>
</svg>
