<?xml version="1.0" encoding="UTF-8" standalone="no"?>
<!-- Created with Inkscape (http://www.inkscape.org/) -->

<svg
   version="1.1"
   id="svg2"
   width="359.30933"
   height="465.44919"
   viewBox="0 0 359.30933 465.44919"
   sodipodi:docname="outline - calabria.svg"
   inkscape:version="1.3.1 (91b66b0783, 2023-11-16)"
   inkscape:export-filename="outline - calabria.png"
   inkscape:export-xdpi="96"
   inkscape:export-ydpi="96"
   xmlns:inkscape="http://www.inkscape.org/namespaces/inkscape"
   xmlns:sodipodi="http://sodipodi.sourceforge.net/DTD/sodipodi-0.dtd"
   xmlns="http://www.w3.org/2000/svg"
   xmlns:svg="http://www.w3.org/2000/svg">
  <defs
     id="defs6" />
  <sodipodi:namedview
     id="namedview4"
     pagecolor="#ffffff"
     bordercolor="#000000"
     borderopacity="0.25"
     inkscape:showpageshadow="2"
     inkscape:pageopacity="0.0"
     inkscape:pagecheckerboard="0"
     inkscape:deskcolor="#d1d1d1"
     inkscape:zoom="6.9178612"
     inkscape:cx="384.94557"
     inkscape:cy="319.67973"
     inkscape:window-width="2880"
     inkscape:window-height="1514"
     inkscape:window-x="2869"
     inkscape:window-y="-11"
     inkscape:window-maximized="1"
     inkscape:current-layer="g8" />
  <g
     id="g8"
     inkscape:groupmode="layer"
     inkscape:label="ink_ext_XXXXXX"
     transform="matrix(1.3333333,0,0,-1.3333333,-300.36666,586.08665)">
    <path
       d="m 464.694,190.743 -0.77,0.272 -0.149,0.157 -0.088,0.241 -0.53,1.063 -0.052,0.875 0.411,1.678 0.119,0.923 -0.081,0.338 -0.392,0.648 -0.16,0.331 -0.071,0.388 0.009,0.39 0.165,1.615 0.824,1.976 -0.779,0.081 -0.806,0.396 -0.71,0.555 -0.481,0.557 -0.28,0.427 -0.27,0.313 -0.364,0.193 -0.554,0.064 -0.405,0.124 -1.061,0.89 -1.351,0.67 -0.204,0.227 -0.142,0.458 -0.335,0.435 -0.406,0.362 -0.353,0.239 -0.739,0.245 -2.823,0.155 -0.754,0.335 -1.03,0.704 -0.684,0.84 0.293,0.733 v 0.2 l -0.598,0.747 -0.28,0.825 0.044,0.886 0.372,0.941 0.77,1.401 1.061,1.01 0.368,0.678 0.368,0.312 0.223,0.371 -0.407,0.894 -0.322,1.101 -0.055,0.372 0.177,1.108 0.447,0.692 0.351,0.317 -0.428,0.115 -1.406,0.122 -0.715,-0.16 -0.119,-0.008 -0.119,0.007 -0.845,0.149 -0.663,-0.06 -0.098,0.028 -0.078,0.05 -0.059,0.078 -0.098,0.166 -0.077,0.046 -0.112,-0.009 -0.13,-0.112 -0.081,-0.102 -0.056,-0.114 -0.038,-0.098 -0.039,-0.178 -0.031,-0.231 -0.025,-0.722 -0.056,-0.386 -0.246,-0.607 -0.102,-0.211 -0.073,-0.209 -0.025,-0.111 -0.01,-0.116 0.049,-0.562 -0.004,-0.113 -0.021,-0.123 -0.007,-0.021 -0.08,-0.194 -0.053,-0.087 -0.119,-0.153 -0.133,-0.139 -0.06,-0.075 -0.052,-0.089 -0.07,-0.211 -0.07,-0.357 -0.039,-0.106 -0.042,-0.099 -0.056,-0.079 -0.13,-0.144 -0.052,-0.081 -0.021,-0.087 0.028,-0.079 0.073,-0.054 0.091,-0.038 0.07,-0.063 0.043,-0.087 0.024,-0.105 0.035,-0.332 -0.007,-0.118 -0.049,-0.093 -0.077,-0.042 -0.172,0.085 -0.099,0.084 -0.077,0.093 -0.077,0.177 -0.049,0.082 -0.056,0.075 -0.077,0.063 -0.165,0.111 -0.073,0.064 -0.127,0.141 -0.08,0.057 -0.105,0.036 -0.912,0.147 -0.214,-0.01 -0.48,-0.164 -0.386,-0.212 -0.067,-0.068 -0.056,-0.084 -0.066,-0.202 -0.207,-0.072 -2.42,-0.205 -0.203,-0.047 -0.129,-0.001 -0.151,0.023 -0.222,0.101 -0.123,0.081 -0.084,0.08 -0.269,0.397 -0.512,0.564 -0.056,0.078 -0.042,0.088 -0.014,0.104 0.011,0.12 0.077,0.213 0.182,0.377 0.024,0.093 -0.049,0.058 -0.115,0.003 -0.422,-0.22 -0.158,-0.05 -0.192,0.033 -0.116,0.051 -0.094,0.07 -0.06,0.075 -0.291,0.454 -0.038,0.047 -0.081,0.051 -0.126,0.037 -0.208,0.001 -0.382,-0.049 -0.098,-0.053 -0.08,-0.091 -0.126,-0.317 -0.074,-0.082 -0.14,0.021 -0.088,0.057 -0.074,0.07 -0.056,0.077 -0.137,0.135 -0.091,0.064 -0.435,0.242 -0.161,-0.021 -0.227,-0.103 -1.46,-1.134 -0.081,-0.11 -0.112,-0.182 -0.108,-0.325 -0.333,-0.497 -0.06,-0.082 0.646,-0.983 0.169,-0.66 -0.275,-1.127 0.036,-0.164 0.17,-0.129 0.115,-0.297 0.109,-0.575 v 0.183 l 0.399,-2.959 0.21,-0.485 0.472,-0.768 0.309,-1.108 0.214,-0.758 0.176,-0.725 0.197,-0.364 0.645,-0.452 0.64,-0.651 0.564,-1.052 0.843,-1.131 0.873,-2.723 0.181,-1.007 0.926,-6.833 1.28,-2.939 0.331,-0.542 0.331,-0.237 0.467,-0.095 0.339,-0.275 0.228,-0.435 0.121,-0.576 0.037,-1.228 -0.149,-1.226 -0.32,-1.089 -0.491,-0.812 -0.601,-0.502 -0.375,-0.204 -0.342,-0.083 -1.628,0.196 -1.044,-0.067 -0.782,-0.37 -1.429,-0.957 -0.941,-0.32 -0.421,-0.227 -0.179,-0.328 -0.031,-0.282 -0.035,-0.157 0.04,-0.159 0.194,-0.298 0.134,-0.131 0.307,-0.148 0.164,-0.114 0.662,-0.748 0.36,-0.803 0.04,-0.965 -0.294,-1.232 -1.695,-3.53 -0.307,-1.289 -0.076,-0.156 -0.32,-0.284 -0.068,-0.148 -0.208,-0.216 -2.309,-0.713 -0.762,-0.346 -0.4,-0.595 0.115,-0.983 0.194,-0.682 0.029,-0.543 -0.14,-0.492 -0.32,-0.531 -0.077,-0.436 0.195,-0.512 0.583,-0.904 -0.454,-0.423 -0.074,-0.532 0.235,-0.593 0.458,-0.613 0.421,-0.381 0.539,-0.357 0.602,-0.286 0.601,-0.163 4.082,0.224 1.33,-0.402 0.336,0.162 1.069,0.228 0.316,0.205 0.291,0.266 0.255,0.323 0.215,0.374 0.331,0.891 0.596,3.028 0.397,0.927 3.093,3.833 0.758,0.681 2.152,1.122 0.722,0.25 0.69,0.591 0.239,0.064 0.313,0.448 0.89,0.838 0.185,0.378 0.171,2.108 -0.003,0.739 -0.41,1.941 -0.234,2.19 0.013,0.515 -0.05,0.094 -0.272,0.193 0.09,0.676 0.274,0.521 0.289,0.443 0.241,0.817 0.254,0.369 0.564,0.54 1.359,0.696 0.197,0.2 0.187,0.24 0.905,0.664 2.503,1.138 2.181,0.593 0.502,0.04 0.542,-0.084 0.341,-0.222 0.579,-0.682 0.458,0.298 0.64,0.189 0.551,-0.105 0.205,-0.58 0.336,0.595 0.199,0.263 0.165,0.111 0.087,0.119 0.757,0.689 -0.018,0.158 0.018,1.135 0.096,0.2 0.232,0.2 0.441,0.303 z"
       style="fill:none;stroke:#593b02;stroke-width:2.25000006;stroke-linecap:round;stroke-linejoin:round;stroke-miterlimit:4;stroke-dasharray:none;stroke-opacity:1"
       id="path76" />
  </g>
</svg>
