<?xml version="1.0" encoding="UTF-8" standalone="no"?>
<!-- Created with Inkscape (http://www.inkscape.org/) -->

<svg
   version="1.1"
   id="svg2"
   width="359.30933"
   height="465.44919"
   viewBox="0 0 359.30933 465.44919"
   sodipodi:docname="outlne - umbria.svg"
   inkscape:version="1.3.1 (91b66b0783, 2023-11-16)"
   inkscape:export-filename="outline - umbria.png"
   inkscape:export-xdpi="96"
   inkscape:export-ydpi="96"
   xmlns:inkscape="http://www.inkscape.org/namespaces/inkscape"
   xmlns:sodipodi="http://sodipodi.sourceforge.net/DTD/sodipodi-0.dtd"
   xmlns="http://www.w3.org/2000/svg"
   xmlns:svg="http://www.w3.org/2000/svg">
  <defs
     id="defs6" />
  <sodipodi:namedview
     id="namedview4"
     pagecolor="#ffffff"
     bordercolor="#000000"
     borderopacity="0.25"
     inkscape:showpageshadow="2"
     inkscape:pageopacity="0.0"
     inkscape:pagecheckerboard="0"
     inkscape:deskcolor="#d1d1d1"
     inkscape:zoom="2.4458332"
     inkscape:cx="217.71722"
     inkscape:cy="217.30836"
     inkscape:window-width="2880"
     inkscape:window-height="1514"
     inkscape:window-x="2869"
     inkscape:window-y="-11"
     inkscape:window-maximized="1"
     inkscape:current-layer="g8"
     showgrid="false" />
  <g
     id="g8"
     inkscape:groupmode="layer"
     inkscape:label="ink_ext_XXXXXX"
     transform="matrix(1.3333333,0,0,-1.3333333,-300.36666,586.08665)">
    <path
       d="m 375.748,303.111 -0.014,0.114 -0.054,0.213 -0.14,0.41 -0.172,0.37 -0.056,0.085 -0.066,0.076 -0.064,0.05 -0.157,0.069 -1.301,-0.711 -0.368,-0.028 -0.049,0.096 -0.033,0.106 -0.042,0.232 -0.028,0.099 -0.042,0.096 -0.105,0.165 -0.725,0.826 -0.109,0.158 -0.214,0.215 -0.48,0.369 -0.302,0.367 -0.168,0.166 -0.129,0.046 -0.102,-0.02 -0.137,-0.047 -0.197,-0.033 -0.652,0.033 -0.143,-0.046 -0.049,-0.084 -0.007,-0.102 0.024,-0.102 0.081,-0.196 0.028,-0.104 -0.035,-0.114 -0.091,-0.099 -0.217,-0.072 -0.107,0.044 -0.063,0.095 -0.01,0.113 0.007,0.522 -0.007,0.126 -0.018,0.114 -0.028,0.108 -0.049,0.093 -0.063,0.077 -0.585,0.415 -0.14,0.14 -0.376,0.494 -0.137,0.25 -0.052,0.221 -0.004,0.26 -0.01,0.123 -0.035,0.107 -0.098,0.186 -0.039,0.101 -0.017,0.099 0.003,0.121 0.039,0.248 0.007,0.119 -0.007,0.108 -0.011,0.066 -0.112,0.37 -0.028,0.368 0.014,0.269 0.067,0.531 0.017,0.272 -0.056,0.199 -0.112,0.24 -0.287,0.434 -0.168,0.185 -0.17,0.111 -0.347,0.051 -0.105,0.074 -0.063,0.095 -0.08,0.322 v 0.107 l 0.035,0.093 0.056,0.074 0.14,0.141 0.13,0.164 0.052,0.097 0.046,0.104 0.035,0.112 0.024,0.115 0.014,0.131 -0.003,0.13 -0.028,0.236 -0.116,0.527 -1.112,1.87 -0.136,0.285 -0.028,0.235 0.031,0.407 -0.056,0.465 -0.049,0.168 -0.052,0.136 -0.786,1.27 -0.112,0.237 -0.06,0.188 0.004,0.132 0.147,0.735 0.021,0.267 -0.007,0.128 0.007,0.251 0.071,0.406 0.028,0.117 -0.007,0.517 -0.59,-0.009 -0.438,-0.217 -0.105,-0.083 -0.066,-0.075 -0.201,-0.306 -0.116,-0.145 -0.115,-0.027 -0.098,0.021 -0.27,0.163 -0.298,0.095 -0.266,0.045 -0.138,-0.008 -0.087,-0.019 -0.067,-0.053 -0.2,-0.217 -0.203,-0.158 -0.115,-0.01 -0.095,0.046 -2.129,2.548 -0.501,0.294 -1.034,0.453 -0.246,0.058 -0.115,-0.024 -0.091,-0.045 -0.081,-0.061 -0.127,-0.163 -0.102,-0.084 -0.126,-0.069 -0.242,-0.053 -0.241,0.069 -1.399,0.671 -0.172,0.116 -0.073,0.067 -0.056,0.083 -0.037,0.099 v 0.108 l 0.04,0.094 0.067,0.07 0.094,0.034 0.112,-0.008 0.354,-0.076 0.119,0.007 0.098,0.037 0.084,0.058 0.067,0.08 0.052,0.09 0.046,0.099 0.033,0.106 0.016,0.11 -0.014,0.106 -0.07,0.188 v 0.107 l 0.032,0.101 0.087,0.202 0.035,0.12 0.005,0.132 -0.04,0.146 -0.087,0.037 -0.095,-0.015 -0.904,-0.336 -0.087,-0.053 -0.081,-0.067 -0.054,-0.085 -0.087,-0.217 -0.084,-0.089 -0.169,-0.04 -0.14,0.047 -0.438,0.284 -0.343,0.13 -0.201,0.049 h -0.287 l -0.238,0.032 -0.095,0.057 -0.091,0.185 -1.154,-2.126 -0.367,-0.521 -0.112,-0.028 -0.289,-0.03 -0.172,-0.058 -0.241,-0.16 -0.088,-0.138 -0.024,-0.127 0.035,-0.103 0.063,-0.08 0.087,-0.061 0.403,-0.18 0.158,-0.131 0.061,-0.104 0.042,-0.129 -0.005,-0.237 -0.058,-0.115 -0.086,-0.084 -0.206,-0.074 -0.151,-0.094 -0.189,-0.146 -0.452,-0.553 -0.131,-0.12 -0.105,-0.022 -0.168,-0.058 -0.182,-0.093 -0.33,-0.319 -0.105,-0.184 -0.024,-0.143 0.063,-0.075 0.087,-0.054 0.116,-0.026 0.462,0.033 0.099,-0.042 0.038,-0.117 0.007,-0.182 -0.035,-0.497 0.007,-0.159 0.026,-0.111 0.049,-0.091 0.07,-0.062 0.904,-0.277 0.189,-0.105 0.077,-0.071 0.054,-0.204 0.028,-0.314 -0.012,-0.721 0.021,-0.323 0.047,-0.209 0.087,-0.058 0.217,-0.073 0.123,-0.016 0.249,0.012 0.108,0.036 0.081,0.055 0.063,0.075 0.053,0.093 0.13,0.306 0.059,0.088 0.077,0.052 0.103,0.011 0.098,-0.031 0.098,-0.103 0.087,-0.145 0.098,-0.298 -0.007,-0.163 -0.042,-0.118 -0.301,-0.265 -0.936,-0.612 -0.092,-0.043 -0.105,-0.026 -0.516,0.005 -0.108,-0.027 -0.095,-0.047 -0.077,-0.062 -0.147,-0.15 -0.161,-0.132 -0.095,-0.048 -0.101,-0.027 -0.12,0.003 -0.225,0.059 -0.616,0.276 -0.134,0.003 -0.143,-0.032 -0.189,-0.137 -0.086,-0.125 -0.051,-0.133 -0.141,-0.927 -0.053,-0.204 -0.049,-0.148 -0.059,-0.11 -0.19,-0.195 -0.105,-0.084 -0.08,-0.044 -0.628,-0.195 -0.204,-0.117 -0.262,-0.26 -0.494,-0.936 -0.112,-0.467 0.014,-0.134 0.021,-0.113 0.031,-0.105 0.042,-0.098 0.042,-0.181 0.039,-0.252 0.031,-0.537 0.053,-0.241 0.077,-0.147 0.094,-0.024 0.098,0.024 0.071,0.063 0.115,0.169 0.081,0.062 0.094,0.037 0.131,-0.043 0.122,-0.124 0.148,-0.316 0.042,-0.205 0.01,-0.18 -0.038,-0.552 -0.021,-0.137 -0.028,-0.116 -0.077,-0.213 -0.043,-0.081 -0.249,-0.335 -0.133,-0.302 -0.154,-0.71 -0.123,-0.352 -0.165,-0.869 -0.003,-0.224 0.052,-0.142 0.179,-0.134 0.095,-0.094 0.094,-0.168 0.025,-0.143 -0.007,-0.137 -0.035,-0.12 -0.039,-0.105 -0.052,-0.102 -0.053,-0.079 -0.147,-0.176 -1.084,-0.736 0.996,-1.819 0.34,-0.454 0.284,-0.16 0.218,-0.185 0.07,-0.146 0.011,-0.132 -0.032,-0.106 -0.038,-0.098 -0.046,-0.093 -0.053,-0.09 -0.066,-0.082 -0.155,-0.126 -0.266,-0.133 -0.165,-0.109 -0.088,-0.085 -0.07,-0.101 -0.059,-0.184 0.01,-0.124 0.042,-0.106 0.417,-0.532 0.126,-0.13 0.119,-0.087 0.587,-0.282 0.227,-0.19 0.548,-0.636 0.119,-0.088 0.105,-0.005 0.088,0.019 0.69,0.296 0.66,0.149 0.115,0.004 0.452,-0.115 0.123,-0.004 0.108,0.017 0.088,0.05 0.075,0.067 0.063,0.077 0.164,0.262 0.067,0.07 0.077,0.039 0.095,-0.012 1.083,-0.639 0.345,0.016 0.039,-0.066 0.324,-0.163 0.107,-0.26 0.105,-0.59 0.053,-0.641 -0.047,-0.408 0.308,-0.607 0.075,-0.042 0.109,0.043 0.097,0.013 0.042,-0.128 -0.017,-0.414 0.068,-0.376 0.04,-0.521 0.063,-0.263 0.08,-0.127 0.26,-0.282 0.122,-0.216 0.415,0.248 0.538,-0.187 1.147,-0.898 0.537,-0.641 0.013,-0.072 -0.027,-0.255 0.014,-0.07 0.068,-0.009 0.18,0.031 0.061,-0.022 0.103,-0.075 0.257,-0.074 0.103,-0.077 v -0.19 l -0.139,-0.112 -0.106,-0.133 -0.218,-0.417 0.173,-0.124 0.187,-0.033 0.197,0.044 0.186,-0.078 0.905,0.115 0.133,-0.037 0.144,-0.068 0.143,-0.363 0.131,-0.175 0.105,-0.031 0.088,0.026 0.28,0.287 0.61,0.35 0.243,0.179 0.126,0.149 0.255,0.451 0.084,0.199 0.092,0.35 0.014,0.123 -0.007,0.12 -0.025,0.105 -0.035,0.1 -0.028,0.118 0.007,0.135 0.084,0.193 0.109,0.075 0.119,0.016 0.094,-0.044 0.074,-0.07 0.313,-0.51 0.193,-0.056 0.308,-0.011 0.751,0.126 0.318,0.094 0.207,0.102 0.056,0.085 0.039,0.09 0.028,0.104 -0.004,0.112 -0.028,0.102 -0.175,0.376 -0.038,0.107 -0.014,0.11 0.035,0.136 0.084,0.068 0.765,0.123 0.014,0.009 0.049,0.038 0.115,0.115 0.06,0.079 0.241,0.485 0.081,0.091 2.02,0.989 0.242,0.161 0.035,0.1 v 0.113 l -0.025,0.111 -0.035,0.096 -0.042,0.092 0.046,0.271 0.515,0.59 1.943,-0.049 0.256,0.027 0.045,0.036 0.056,0.069 0.042,0.08 0.091,0.23 0.067,0.132 0.112,0.146 0.112,0.032 0.095,-0.025 0.2,-0.125 0.141,-0.063 0.248,-0.059 0.147,0.002 0.712,0.213 0.116,0.062 0.372,0.353 0.143,0.051 0.161,-0.01 0.394,-0.094 0.137,0.021 0.101,0.057 0.06,0.082 0.056,0.092 0.045,0.096 0.109,0.326 0.091,0.202 0.105,0.173 0.252,0.318 0.049,0.095 0.028,0.112 -0.003,0.11 -0.021,0.111 -0.067,0.202 -0.028,0.107 -0.01,0.119 0.021,0.144 0.028,0.114 0.203,0.338 v 0.444 l 0.11,0.211 0.093,0.118 0.124,0.022 0.098,-0.041 0.133,-0.029 0.158,0.008 0.277,0.093 0.147,0.1 0.091,0.091 0.031,0.093 0.13,0.659 0.007,0.168 z"
       style="fill:#ffffff;stroke:#a67d03;stroke-width:1.12500003;stroke-linecap:round;stroke-linejoin:round;stroke-miterlimit:4;stroke-dasharray:none;stroke-opacity:1;fill-opacity:1"
       id="path20" />
  </g>
</svg>
