<?xml version="1.0" encoding="UTF-8" standalone="no"?>
<!-- Created with Inkscape (http://www.inkscape.org/) -->

<svg
   version="1.1"
   id="svg2"
   width="359.30933"
   height="465.44919"
   viewBox="0 0 359.30933 465.44919"
   sodipodi:docname="outline - lombardy.svg"
   inkscape:version="1.3.1 (91b66b0783, 2023-11-16)"
   inkscape:export-filename="outline - lombardy.png"
   inkscape:export-xdpi="96"
   inkscape:export-ydpi="96"
   xmlns:inkscape="http://www.inkscape.org/namespaces/inkscape"
   xmlns:sodipodi="http://sodipodi.sourceforge.net/DTD/sodipodi-0.dtd"
   xmlns="http://www.w3.org/2000/svg"
   xmlns:svg="http://www.w3.org/2000/svg">
  <defs
     id="defs6" />
  <sodipodi:namedview
     id="namedview4"
     pagecolor="#ffffff"
     bordercolor="#000000"
     borderopacity="0.25"
     inkscape:showpageshadow="2"
     inkscape:pageopacity="0.0"
     inkscape:pagecheckerboard="0"
     inkscape:deskcolor="#d1d1d1"
     inkscape:zoom="9.7833331"
     inkscape:cx="125.11074"
     inkscape:cy="86.524704"
     inkscape:window-width="2880"
     inkscape:window-height="1514"
     inkscape:window-x="2869"
     inkscape:window-y="-11"
     inkscape:window-maximized="1"
     inkscape:current-layer="g8" />
  <g
     id="g8"
     inkscape:groupmode="layer"
     inkscape:label="ink_ext_XXXXXX"
     transform="matrix(1.3333333,0,0,-1.3333333,-300.36666,586.08665)">
    <path
       d="m 334.232,370.727 -0.298,0.176 -0.383,0.039 -1.893,1.253 -0.733,0.663 0.003,0.822 -1.349,-0.012 -0.393,0.134 -0.017,0.061 -0.091,0.708 0.007,0.109 0.038,0.094 0.067,0.076 0.326,0.256 -0.141,0.26 -0.691,0.212 -0.252,0.027 -0.168,-0.02 -0.084,-0.068 -0.126,-0.074 -0.169,-0.062 -0.649,-0.072 -0.084,-0.046 -0.084,-0.084 -0.091,-0.112 -0.161,-0.122 -0.158,-0.026 -0.147,0.033 -0.176,0.104 -0.109,0.09 -0.277,0.352 -0.052,0.09 -0.042,0.103 -0.021,0.112 0.014,0.117 0.038,0.104 0.095,0.196 0.028,0.119 -0.025,0.137 -0.108,0.152 -0.112,0.062 h -0.123 l -0.312,-0.058 -0.276,-0.003 -0.145,0.04 -0.102,0.057 -0.035,0.063 -0.021,0.07 -0.01,0.099 0.01,0.102 0.021,0.074 0.084,0.21 0.018,0.081 0.01,0.097 -0.035,0.117 -0.066,0.111 -0.176,0.218 -0.129,0.109 -0.175,0.097 -0.762,0.296 -2.197,1.708 -0.056,0.089 -0.131,0.3 -0.105,0.181 -0.708,0.702 -0.221,0.14 -0.176,0.057 -0.094,-0.038 -0.078,-0.074 -0.112,-0.175 -0.073,-0.084 -0.091,-0.068 -0.133,-0.051 -0.095,0.026 -0.074,0.063 -0.049,0.098 -0.08,0.235 -0.06,0.131 -0.115,0.163 -0.126,0.056 -0.121,0.002 -0.241,-0.073 -0.477,0.15 0.202,0.296 0.012,0.777 0.249,0.239 v 0.2 l -0.288,0.204 -0.07,0.277 0.049,0.633 -0.042,0.661 -0.34,0.033 -0.579,-0.154 -0.266,0.356 -0.109,0.347 -0.049,0.227 0.007,0.169 0.088,0.188 0.056,0.048 0.018,1.201 -0.225,2.089 0.014,0.894 0.07,0.603 2.29,3.475 0.34,0.395 0.505,0.859 0.333,0.844 0.109,0.209 0.958,1.459 -0.411,0.232 -0.323,0.121 -0.084,0.015 -0.206,0.005 -0.727,-0.128 -0.126,0.002 -0.108,0.028 -0.291,0.157 -0.109,0.039 -0.122,0.018 -0.121,-0.012 -0.445,-0.129 -0.122,-0.018 -0.365,0.032 -0.098,-0.034 -0.073,-0.07 -0.06,-0.091 -0.039,-0.111 -0.028,-0.118 -0.022,-0.261 -0.017,-0.12 -0.035,-0.109 -0.056,-0.096 -0.07,-0.081 -0.095,-0.056 -0.108,-0.035 -0.253,-0.027 -0.546,0.032 -0.117,-0.027 -0.094,-0.048 -0.302,-0.297 -0.091,-0.054 -0.105,-0.037 -0.112,-0.009 -0.123,0.016 -0.217,0.079 -0.197,0.103 -0.074,0.089 -0.031,0.131 0.077,0.404 -0.014,0.153 -0.105,0.107 -0.116,0.058 -0.378,0.088 -0.088,0.06 -0.063,0.079 -0.066,0.155 -0.218,0.795 -0.137,0.373 -0.007,0.154 0.017,0.199 0.099,0.323 0.144,0.322 0.032,0.126 -0.007,0.147 -0.074,0.195 -0.19,0.323 -0.042,0.102 -0.039,0.112 -0.028,0.118 -0.021,0.149 -0.021,0.43 -0.025,0.139 -0.031,0.08 -0.07,0.054 -0.47,0.122 -0.108,0.044 -0.091,0.06 -0.07,0.078 -0.056,0.094 -0.028,0.111 0.014,0.196 0.052,0.243 0.147,0.429 0.109,0.196 0.109,0.123 0.283,0.171 0.088,0.212 0.098,0.328 0.154,0.742 0.113,0.305 0.098,0.201 0.162,0.131 0.672,0.67 0.06,0.088 0.049,0.099 0.038,0.182 0.126,1.254 -0.003,0.827 0.033,0.211 0.042,0.162 0.192,0.408 0.326,0.889 -0.007,0.232 -0.042,0.334 -0.179,0.706 -0.042,0.323 -0.003,0.237 0.031,0.123 0.021,0.132 0.004,0.132 -0.032,0.25 -0.035,0.116 -0.241,0.304 -0.884,0.672 0.147,0.347 0.396,0.361 0.143,0.077 0.116,0.021 0.527,-0.031 0.259,0.031 0.21,0.08 0.095,0.055 0.164,0.126 0.229,0.25 0.074,0.108 0.08,0.147 0.046,0.131 0.031,0.137 -0.014,0.393 -0.192,0.95 -0.056,0.246 -0.067,0.222 -0.18,0.183 -1.072,0.681 -0.632,0.28 -1.073,0.164 -0.122,0.095 -0.137,0.135 -0.224,0.367 -0.102,0.197 -0.234,0.782 -0.13,0.134 -0.178,-0.294 -0.408,-0.079 -1.619,0.426 -0.787,-0.075 -0.289,0.048 -0.255,0.117 -0.142,0.151 -0.119,0.165 -0.178,0.157 -0.932,0.32 -0.1,0.356 0.124,0.673 -0.045,0.37 -0.359,0.295 -0.582,-0.005 -2.139,-0.616 -0.217,-0.119 -0.098,-0.243 -0.278,-1.068 -0.187,-0.251 -0.488,-0.487 -0.194,-0.291 -0.031,-0.235 -0.004,-0.719 -0.098,-0.348 0.028,-0.302 0.053,-0.238 0.11,-0.183 0.196,-0.134 -0.399,-0.677 0.355,-0.442 0.663,-0.259 1.012,-0.196 0.39,-0.157 0.165,-0.362 -0.17,-0.712 -0.164,-0.22 -0.474,-0.425 -0.17,-0.317 -0.115,-0.441 -0.014,-0.299 0.091,-0.274 0.206,-0.364 0.932,-0.948 0.289,-0.581 -0.296,-0.623 -0.631,-0.397 -0.953,-0.362 -0.747,0.016 -0.019,0.735 -0.229,0.553 -0.892,0.792 -0.331,0.448 -0.147,0.714 -0.01,0.645 -0.149,0.531 -0.565,0.371 -0.465,0.121 -0.439,0.033 -0.986,-0.17 -1.504,-0.772 -0.469,-0.153 -0.29,0.063 -0.551,0.332 -0.243,0.006 -0.245,-0.277 -0.044,-0.373 0.035,-0.37 -0.01,-0.257 -0.345,-0.478 -0.425,-0.172 -2.59,0.03 -0.526,0.192 -0.479,0.325 -0.287,0.396 -0.451,1.177 -0.2,0.165 -0.5,0.278 -0.164,0.16 -0.044,0.183 0.033,0.497 -0.136,3.135 -0.072,0.205 -0.178,-0.039 -0.364,-0.269 -0.154,-0.209 -0.08,-0.232 -0.109,-0.196 -0.246,-0.098 -0.17,0.074 -0.577,0.549 -0.016,0.405 -0.449,0.119 -1.1,-0.135 -0.432,-0.401 -0.392,-0.787 -0.178,-0.801 0.218,-0.441 0.301,-0.209 0.044,-0.327 -0.058,-0.412 0.002,-0.466 0.304,-1.158 0.03,-0.42 -0.14,-0.717 -0.661,-1.381 -0.336,-1.166 -0.206,-0.33 -0.261,-0.244 -0.271,-0.128 -0.245,-0.181 -0.127,-0.323 -0.105,-0.375 -0.165,-0.313 -0.012,-0.023 -1.642,-1.109 -0.418,-0.626 -0.089,-0.42 0.049,-0.731 -0.072,-0.399 -0.18,-0.304 -0.215,-0.126 -0.495,-0.156 -0.579,-0.447 -0.098,-0.369 0.402,-1.129 -0.743,-0.685 -0.049,-0.081 -0.016,-0.083 0.016,-0.082 0.049,-0.082 0.243,-0.247 0.187,-0.588 0.205,-0.305 0.22,-0.126 0.492,-0.098 0.213,-0.136 0.257,-0.537 -0.087,-0.55 -0.562,-1.094 -0.722,-0.885 -0.68,0.127 -0.74,0.329 -0.894,-0.273 0.084,0.498 0.135,0.384 0.091,0.401 -0.037,0.56 -0.126,0.423 -0.19,0.423 -0.392,0.698 -0.222,0.517 -0.147,0.206 -0.152,0.119 -1.296,0.694 -0.345,0.123 -0.388,0.025 0.037,0.087 0.087,0.155 0.397,0.912 0.647,0.786 0.334,0.761 -0.575,0.758 -0.341,0.12 -0.694,-0.017 -0.362,0.05 -0.172,0.118 -0.166,0.303 -0.072,0.027 0.119,-1.999 -0.004,-0.185 -0.028,-0.221 -0.105,-0.394 -0.081,-0.19 -0.087,-0.133 -2.883,-3.062 -0.06,-0.092 -0.045,-0.142 0.003,-0.245 0.056,-0.503 0.154,-0.606 0.107,-0.958 -0.014,-0.202 -0.04,-0.113 -0.042,-0.099 -0.056,-0.1 -0.063,-0.087 -0.473,-0.417 -0.06,-0.08 -0.056,-0.099 -0.038,-0.101 0.07,-0.294 0.171,-0.436 0.501,-0.962 0.243,-0.379 0.189,-0.218 0.463,-0.123 0.178,-0.104 0.07,-0.113 0.05,-0.159 -0.011,-0.311 -0.028,-0.186 -0.074,-0.261 0.007,-0.131 0.056,-0.122 0.144,-0.122 0.124,-0.026 0.228,0.038 0.094,-0.035 0.046,-0.113 -0.011,-0.23 0.007,-0.179 0.032,-0.175 0.08,-0.195 0.014,-0.138 -0.091,-0.14 -0.105,-0.017 -0.108,0.005 -0.088,-0.01 -0.011,-0.118 0.088,-0.208 0.606,-0.72 0.049,-0.124 0.032,-0.149 -0.06,-0.585 0.217,-0.279 -0.035,-0.316 0.021,-0.159 0.063,-0.218 0.135,-0.344 0.045,-0.216 0.025,-0.308 0.08,-0.153 0.144,-0.19 0.48,-0.386 0.452,-0.16 0.095,-0.054 0.137,-0.217 0.168,-0.352 0.568,-1.552 0.063,-0.12 0.411,-0.502 -1.512,-0.559 -0.68,-0.489 -0.007,-0.112 0.084,-0.062 0.284,-0.161 0.08,-0.068 0.053,-0.085 0.01,-0.102 -0.035,-0.093 -0.091,-0.079 -0.623,-0.369 -0.151,-0.14 -0.066,-0.084 -0.061,-0.098 -0.042,-0.111 -0.032,-0.119 -0.052,-0.392 -0.032,-0.109 -0.049,-0.081 -0.122,-0.023 -0.179,0.025 -0.41,0.132 -0.168,0.117 -0.116,0.121 -0.358,0.802 -0.105,0.188 -0.119,0.175 -0.077,0.075 -0.088,0.059 -0.21,0.081 -0.996,0.231 -0.358,-0.006 -0.129,-0.028 -0.095,-0.046 -0.103,-0.146 -0.098,-0.224 -0.14,-0.501 -0.171,-0.462 -0.291,-0.337 -0.112,-0.237 -0.137,-0.216 -0.031,-0.078 -0.004,-0.113 0.039,-0.135 0.129,-0.142 0.123,-0.08 0.098,-0.121 0.052,-0.183 0.032,-0.603 0.119,-0.189 0.112,-0.076 0.088,-0.091 0.038,-0.116 -0.056,-0.227 -0.01,-0.189 0.042,-0.227 0.21,-0.328 0.145,-0.152 0.126,-0.104 0.052,-0.105 0.032,-0.093 -0.172,-0.459 0.067,-0.287 0.049,-0.158 0.147,-0.279 0.042,-0.051 0.189,-0.555 0.776,-0.928 0.553,-1.497 0.304,-0.632 0.531,-0.523 0.299,0.208 0.265,-0.024 0.431,-0.184 h 0.856 l 0.523,0.09 1.343,0.82 0.379,0.162 0.623,-0.147 0.066,-0.041 0.007,-0.176 -0.112,-0.799 -0.003,-0.138 0.01,-0.127 0.025,-0.121 0.028,-0.104 0.035,-0.094 0.047,-0.098 0.045,-0.042 0.315,-0.217 0.158,-0.078 0.147,-0.047 0.667,-0.053 0.193,-0.07 0.161,-0.104 0.042,-0.038 0.112,-0.125 0.073,-0.118 0.067,-0.16 0.06,-0.298 -0.007,-0.172 -0.053,-0.263 0.053,-0.166 0.115,-0.189 0.429,-0.488 1.216,-1.099 0.067,-0.09 0.046,-0.119 v -0.195 l -0.039,-0.118 -0.103,-0.211 -0.024,-0.124 -0.011,-0.122 0.018,-0.119 0.099,-0.169 0.158,-0.202 0.367,-0.394 0.221,-0.141 0.182,-0.067 h 0.544 l 0.515,-0.081 0.106,-0.046 0.087,-0.052 0.081,-0.064 0.091,-0.12 0.098,-0.164 0.232,-0.506 0.407,-1.249 0.115,-0.234 0.098,-0.143 0.077,-0.067 0.084,-0.36 -0.101,-1.226 0.705,-0.105 0.214,0.132 0.056,0.241 0.014,0.129 -0.011,0.285 0.004,0.146 0.059,0.193 0.088,0.043 0.074,-0.027 0.052,-0.091 0.116,-0.323 0.108,-0.098 0.18,-0.083 0.4,-0.069 0.206,0.005 0.168,0.052 0.105,0.09 0.13,0.16 0.06,0.13 0.021,0.146 -0.011,0.124 -0.108,0.468 -0.225,0.649 -0.028,0.11 -0.017,0.123 0.091,0.272 0.175,0.385 0.523,0.831 0.326,0.66 0.074,0.813 -0.004,0.138 -0.018,0.135 -0.035,0.111 -0.049,0.091 -0.063,0.075 -0.168,0.122 -0.418,0.176 -0.189,0.108 -0.084,0.064 -0.137,0.149 -0.052,0.087 -0.046,0.143 -0.021,0.196 0.021,0.343 0.039,0.206 0.049,0.168 0.126,0.262 0.175,0.276 1.431,3.286 0.701,1.155 0.091,0.214 0.155,0.421 h 1.024 l 0.485,0.078 0.199,-0.017 0.256,-0.061 0.454,-0.412 0.222,-0.071 0.094,0.365 -0.043,0.301 -0.08,0.285 -0.038,0.266 0.084,0.236 0.228,0.104 0.194,-0.185 0.273,-0.453 0.384,-0.071 0.284,0.179 0.262,0.233 0.318,0.094 0.267,-0.076 0.021,-0.127 -0.088,-0.161 -0.06,-0.18 0.007,-0.406 0.039,-0.151 0.277,-0.206 0.731,-0.388 0.923,-0.097 0.681,0.31 -0.007,0.829 0.066,0.046 0.042,-0.007 0.022,0.027 0.01,0.152 h 0.14 l 0.239,-0.425 0.83,-0.536 0.18,-0.257 0.105,-0.254 0.209,-0.013 0.147,0.177 -0.075,0.317 -0.152,0.399 0.195,0.073 0.949,-0.223 0.341,0.01 0.084,0.232 -0.331,0.598 -0.047,0.518 0.476,0.139 0.434,-0.269 -0.161,-0.704 1.595,0.661 0.256,-0.127 0.098,-0.161 0.435,-0.306 0.099,-0.176 0.056,-0.238 0.406,-0.999 0.577,-0.901 0.747,-0.074 0.858,0.26 0.918,0.102 0.908,-0.268 2.331,-1.492 0.531,-0.232 0.337,0.027 0.313,0.128 0.454,0.077 0.333,-0.207 0.364,-1.062 0.305,-0.469 0.773,-0.425 0.985,-0.227 0.997,-0.017 0.808,0.215 0.71,0.543 0.695,0.82 0.38,0.694 0.277,0.106 0.074,-0.06 0.133,-0.047 0.182,-0.033 0.34,0.023 0.281,-0.023 0.074,-0.044 0.311,-0.257 0.067,-0.073 0.067,-0.087 0.042,-0.102 0.031,-0.108 0.004,-0.119 -0.025,-0.109 -0.045,-0.1 -0.035,-0.103 -0.007,-0.102 0.049,-0.082 0.084,-0.064 2.149,-0.526 0.141,-0.064 0.178,-0.127 0.077,-0.065 0.267,-0.175 0.719,0.253 0.266,0.148 0.088,0.059 0.189,0.091 0.677,0.161 0.147,0.081 0.105,0.09 0.112,0.187 0.063,0.085 0.064,0.066 0.066,0.05 1.891,0.269 0.168,-0.014 1.224,-0.5 0.087,-0.059 0.074,-0.068 0.189,-0.254 0.073,-0.071 0.492,0.026 1.623,0.477 0.406,-0.155 0.106,0.007 0.161,0.112 0.112,0.253 0.063,0.09 0.082,0.059 0.108,0.039 1.536,-0.062 1.143,-0.263 -0.056,0.541"
       style="fill:#ffffff;fill-opacity:1;fill-rule:evenodd;stroke:none;stroke-width:0.1"
       id="path58" />
    <path
       d="m 334.232,370.727 -0.298,0.176 -0.383,0.039 -1.893,1.253 -0.733,0.663 0.003,0.822 -1.349,-0.012 -0.393,0.134 -0.017,0.061 -0.091,0.708 0.007,0.109 0.038,0.094 0.067,0.076 0.326,0.256 -0.141,0.26 -0.691,0.212 -0.252,0.027 -0.168,-0.02 -0.084,-0.068 -0.126,-0.074 -0.169,-0.062 -0.649,-0.072 -0.084,-0.046 -0.084,-0.084 -0.091,-0.112 -0.161,-0.122 -0.158,-0.026 -0.147,0.033 -0.176,0.104 -0.109,0.09 -0.277,0.352 -0.052,0.09 -0.042,0.103 -0.021,0.112 0.014,0.117 0.038,0.104 0.095,0.196 0.028,0.119 -0.025,0.137 -0.108,0.152 -0.112,0.062 h -0.123 l -0.312,-0.058 -0.276,-0.003 -0.145,0.04 -0.102,0.057 -0.035,0.063 -0.021,0.07 -0.01,0.099 0.01,0.102 0.021,0.074 0.084,0.21 0.018,0.081 0.01,0.097 -0.035,0.117 -0.066,0.111 -0.176,0.218 -0.129,0.109 -0.175,0.097 -0.762,0.296 -2.197,1.708 -0.056,0.089 -0.131,0.3 -0.105,0.181 -0.708,0.702 -0.221,0.14 -0.176,0.057 -0.094,-0.038 -0.078,-0.074 -0.112,-0.175 -0.073,-0.084 -0.091,-0.068 -0.133,-0.051 -0.095,0.026 -0.074,0.063 -0.049,0.098 -0.08,0.235 -0.06,0.131 -0.115,0.163 -0.126,0.056 -0.121,0.002 -0.241,-0.073 -0.477,0.15 0.202,0.296 0.012,0.777 0.249,0.239 v 0.2 l -0.288,0.204 -0.07,0.277 0.049,0.633 -0.042,0.661 -0.34,0.033 -0.579,-0.154 -0.266,0.356 -0.109,0.347 -0.049,0.227 0.007,0.169 0.088,0.188 0.056,0.048 0.018,1.201 -0.225,2.089 0.014,0.894 0.07,0.603 2.29,3.475 0.34,0.395 0.505,0.859 0.333,0.844 0.109,0.209 0.958,1.459 -0.411,0.232 -0.323,0.121 -0.084,0.015 -0.206,0.005 -0.727,-0.128 -0.126,0.002 -0.108,0.028 -0.291,0.157 -0.109,0.039 -0.122,0.018 -0.121,-0.012 -0.445,-0.129 -0.122,-0.018 -0.365,0.032 -0.098,-0.034 -0.073,-0.07 -0.06,-0.091 -0.039,-0.111 -0.028,-0.118 -0.022,-0.261 -0.017,-0.12 -0.035,-0.109 -0.056,-0.096 -0.07,-0.081 -0.095,-0.056 -0.108,-0.035 -0.253,-0.027 -0.546,0.032 -0.117,-0.027 -0.094,-0.048 -0.302,-0.297 -0.091,-0.054 -0.105,-0.037 -0.112,-0.009 -0.123,0.016 -0.217,0.079 -0.197,0.103 -0.074,0.089 -0.031,0.131 0.077,0.404 -0.014,0.153 -0.105,0.107 -0.116,0.058 -0.378,0.088 -0.088,0.06 -0.063,0.079 -0.066,0.155 -0.218,0.795 -0.137,0.373 -0.007,0.154 0.017,0.199 0.099,0.323 0.144,0.322 0.032,0.126 -0.007,0.147 -0.074,0.195 -0.19,0.323 -0.042,0.102 -0.039,0.112 -0.028,0.118 -0.021,0.149 -0.021,0.43 -0.025,0.139 -0.031,0.08 -0.07,0.054 -0.47,0.122 -0.108,0.044 -0.091,0.06 -0.07,0.078 -0.056,0.094 -0.028,0.111 0.014,0.196 0.052,0.243 0.147,0.429 0.109,0.196 0.109,0.123 0.283,0.171 0.088,0.212 0.098,0.328 0.154,0.742 0.113,0.305 0.098,0.201 0.162,0.131 0.672,0.67 0.06,0.088 0.049,0.099 0.038,0.182 0.126,1.254 -0.003,0.827 0.033,0.211 0.042,0.162 0.192,0.408 0.326,0.889 -0.007,0.232 -0.042,0.334 -0.179,0.706 -0.042,0.323 -0.003,0.237 0.031,0.123 0.021,0.132 0.004,0.132 -0.032,0.25 -0.035,0.116 -0.241,0.304 -0.884,0.672 0.147,0.347 0.396,0.361 0.143,0.077 0.116,0.021 0.527,-0.031 0.259,0.031 0.21,0.08 0.095,0.055 0.164,0.126 0.229,0.25 0.074,0.108 0.08,0.147 0.046,0.131 0.031,0.137 -0.014,0.393 -0.192,0.95 -0.056,0.246 -0.067,0.222 -0.18,0.183 -1.072,0.681 -0.632,0.28 -1.073,0.164 -0.122,0.095 -0.137,0.135 -0.224,0.367 -0.102,0.197 -0.234,0.782 -0.13,0.134 -0.178,-0.294 -0.408,-0.079 -1.619,0.426 -0.787,-0.075 -0.289,0.048 -0.255,0.117 -0.142,0.151 -0.119,0.165 -0.178,0.157 -0.932,0.32 -0.1,0.356 0.124,0.673 -0.045,0.37 -0.359,0.295 -0.582,-0.005 -2.139,-0.616 -0.217,-0.119 -0.098,-0.243 -0.278,-1.068 -0.187,-0.251 -0.488,-0.487 -0.194,-0.291 -0.031,-0.235 -0.004,-0.719 -0.098,-0.348 0.028,-0.302 0.053,-0.238 0.11,-0.183 0.196,-0.134 -0.399,-0.677 0.355,-0.442 0.663,-0.259 1.012,-0.196 0.39,-0.157 0.165,-0.362 -0.17,-0.712 -0.164,-0.22 -0.474,-0.425 -0.17,-0.317 -0.115,-0.441 -0.014,-0.299 0.091,-0.274 0.206,-0.364 0.932,-0.948 0.289,-0.581 -0.296,-0.623 -0.631,-0.397 -0.953,-0.362 -0.747,0.016 -0.019,0.735 -0.229,0.553 -0.892,0.792 -0.331,0.448 -0.147,0.714 -0.01,0.645 -0.149,0.531 -0.565,0.371 -0.465,0.121 -0.439,0.033 -0.986,-0.17 -1.504,-0.772 -0.469,-0.153 -0.29,0.063 -0.551,0.332 -0.243,0.006 -0.245,-0.277 -0.044,-0.373 0.035,-0.37 -0.01,-0.257 -0.345,-0.478 -0.425,-0.172 -2.59,0.03 -0.526,0.192 -0.479,0.325 -0.287,0.396 -0.451,1.177 -0.2,0.165 -0.5,0.278 -0.164,0.16 -0.044,0.183 0.033,0.497 -0.136,3.135 -0.072,0.205 -0.178,-0.039 -0.364,-0.269 -0.154,-0.209 -0.08,-0.232 -0.109,-0.196 -0.246,-0.098 -0.17,0.074 -0.577,0.549 -0.016,0.405 -0.449,0.119 -1.1,-0.135 -0.432,-0.401 -0.392,-0.787 -0.178,-0.801 0.218,-0.441 0.301,-0.209 0.044,-0.327 -0.058,-0.412 0.002,-0.466 0.304,-1.158 0.03,-0.42 -0.14,-0.717 -0.661,-1.381 -0.336,-1.166 -0.206,-0.33 -0.261,-0.244 -0.271,-0.128 -0.245,-0.181 -0.127,-0.323 -0.105,-0.375 -0.165,-0.313 -0.012,-0.023 -1.642,-1.109 -0.418,-0.626 -0.089,-0.42 0.049,-0.731 -0.072,-0.399 -0.18,-0.304 -0.215,-0.126 -0.495,-0.156 -0.579,-0.447 -0.098,-0.369 0.402,-1.129 -0.743,-0.685 -0.049,-0.081 -0.016,-0.083 0.016,-0.082 0.049,-0.082 0.243,-0.247 0.187,-0.588 0.205,-0.305 0.22,-0.126 0.492,-0.098 0.213,-0.136 0.257,-0.537 -0.087,-0.55 -0.562,-1.094 -0.722,-0.885 -0.68,0.127 -0.74,0.329 -0.894,-0.273 0.084,0.498 0.135,0.384 0.091,0.401 -0.037,0.56 -0.126,0.423 -0.19,0.423 -0.392,0.698 -0.222,0.517 -0.147,0.206 -0.152,0.119 -1.296,0.694 -0.345,0.123 -0.388,0.025 0.037,0.087 0.087,0.155 0.397,0.912 0.647,0.786 0.334,0.761 -0.575,0.758 -0.341,0.12 -0.694,-0.017 -0.362,0.05 -0.172,0.118 -0.166,0.303 -0.072,0.027 0.119,-1.999 -0.004,-0.185 -0.028,-0.221 -0.105,-0.394 -0.081,-0.19 -0.087,-0.133 -2.883,-3.062 -0.06,-0.092 -0.045,-0.142 0.003,-0.245 0.056,-0.503 0.154,-0.606 0.107,-0.958 -0.014,-0.202 -0.04,-0.113 -0.042,-0.099 -0.056,-0.1 -0.063,-0.087 -0.473,-0.417 -0.06,-0.08 -0.056,-0.099 -0.038,-0.101 0.07,-0.294 0.171,-0.436 0.501,-0.962 0.243,-0.379 0.189,-0.218 0.463,-0.123 0.178,-0.104 0.07,-0.113 0.05,-0.159 -0.011,-0.311 -0.028,-0.186 -0.074,-0.261 0.007,-0.131 0.056,-0.122 0.144,-0.122 0.124,-0.026 0.228,0.038 0.094,-0.035 0.046,-0.113 -0.011,-0.23 0.007,-0.179 0.032,-0.175 0.08,-0.195 0.014,-0.138 -0.091,-0.14 -0.105,-0.017 -0.108,0.005 -0.088,-0.01 -0.011,-0.118 0.088,-0.208 0.606,-0.72 0.049,-0.124 0.032,-0.149 -0.06,-0.585 0.217,-0.279 -0.035,-0.316 0.021,-0.159 0.063,-0.218 0.135,-0.344 0.045,-0.216 0.025,-0.308 0.08,-0.153 0.144,-0.19 0.48,-0.386 0.452,-0.16 0.095,-0.054 0.137,-0.217 0.168,-0.352 0.568,-1.552 0.063,-0.12 0.411,-0.502 -1.512,-0.559 -0.68,-0.489 -0.007,-0.112 0.084,-0.062 0.284,-0.161 0.08,-0.068 0.053,-0.085 0.01,-0.102 -0.035,-0.093 -0.091,-0.079 -0.623,-0.369 -0.151,-0.14 -0.066,-0.084 -0.061,-0.098 -0.042,-0.111 -0.032,-0.119 -0.052,-0.392 -0.032,-0.109 -0.049,-0.081 -0.122,-0.023 -0.179,0.025 -0.41,0.132 -0.168,0.117 -0.116,0.121 -0.358,0.802 -0.105,0.188 -0.119,0.175 -0.077,0.075 -0.088,0.059 -0.21,0.081 -0.996,0.231 -0.358,-0.006 -0.129,-0.028 -0.095,-0.046 -0.103,-0.146 -0.098,-0.224 -0.14,-0.501 -0.171,-0.462 -0.291,-0.337 -0.112,-0.237 -0.137,-0.216 -0.031,-0.078 -0.004,-0.113 0.039,-0.135 0.129,-0.142 0.123,-0.08 0.098,-0.121 0.052,-0.183 0.032,-0.603 0.119,-0.189 0.112,-0.076 0.088,-0.091 0.038,-0.116 -0.056,-0.227 -0.01,-0.189 0.042,-0.227 0.21,-0.328 0.145,-0.152 0.126,-0.104 0.052,-0.105 0.032,-0.093 -0.172,-0.459 0.067,-0.287 0.049,-0.158 0.147,-0.279 0.042,-0.051 0.189,-0.555 0.776,-0.928 0.553,-1.497 0.304,-0.632 0.531,-0.523 0.299,0.208 0.265,-0.024 0.431,-0.184 h 0.856 l 0.523,0.09 1.343,0.82 0.379,0.162 0.623,-0.147 0.066,-0.041 0.007,-0.176 -0.112,-0.799 -0.003,-0.138 0.01,-0.127 0.025,-0.121 0.028,-0.104 0.035,-0.094 0.047,-0.098 0.045,-0.042 0.315,-0.217 0.158,-0.078 0.147,-0.047 0.667,-0.053 0.193,-0.07 0.161,-0.104 0.042,-0.038 0.112,-0.125 0.073,-0.118 0.067,-0.16 0.06,-0.298 -0.007,-0.172 -0.053,-0.263 0.053,-0.166 0.115,-0.189 0.429,-0.488 1.216,-1.099 0.067,-0.09 0.046,-0.119 v -0.195 l -0.039,-0.118 -0.103,-0.211 -0.024,-0.124 -0.011,-0.122 0.018,-0.119 0.099,-0.169 0.158,-0.202 0.367,-0.394 0.221,-0.141 0.182,-0.067 h 0.544 l 0.515,-0.081 0.106,-0.046 0.087,-0.052 0.081,-0.064 0.091,-0.12 0.098,-0.164 0.232,-0.506 0.407,-1.249 0.115,-0.234 0.098,-0.143 0.077,-0.067 0.084,-0.36 -0.101,-1.226 0.705,-0.105 0.214,0.132 0.056,0.241 0.014,0.129 -0.011,0.285 0.004,0.146 0.059,0.193 0.088,0.043 0.074,-0.027 0.052,-0.091 0.116,-0.323 0.108,-0.098 0.18,-0.083 0.4,-0.069 0.206,0.005 0.168,0.052 0.105,0.09 0.13,0.16 0.06,0.13 0.021,0.146 -0.011,0.124 -0.108,0.468 -0.225,0.649 -0.028,0.11 -0.017,0.123 0.091,0.272 0.175,0.385 0.523,0.831 0.326,0.66 0.074,0.813 -0.004,0.138 -0.018,0.135 -0.035,0.111 -0.049,0.091 -0.063,0.075 -0.168,0.122 -0.418,0.176 -0.189,0.108 -0.084,0.064 -0.137,0.149 -0.052,0.087 -0.046,0.143 -0.021,0.196 0.021,0.343 0.039,0.206 0.049,0.168 0.126,0.262 0.175,0.276 1.431,3.286 0.701,1.155 0.091,0.214 0.155,0.421 h 1.024 l 0.485,0.078 0.199,-0.017 0.256,-0.061 0.454,-0.412 0.222,-0.071 0.094,0.365 -0.043,0.301 -0.08,0.285 -0.038,0.266 0.084,0.236 0.228,0.104 0.194,-0.185 0.273,-0.453 0.384,-0.071 0.284,0.179 0.262,0.233 0.318,0.094 0.267,-0.076 0.021,-0.127 -0.088,-0.161 -0.06,-0.18 0.007,-0.406 0.039,-0.151 0.277,-0.206 0.731,-0.388 0.923,-0.097 0.681,0.31 -0.007,0.829 0.066,0.046 0.042,-0.007 0.022,0.027 0.01,0.152 h 0.14 l 0.239,-0.425 0.83,-0.536 0.18,-0.257 0.105,-0.254 0.209,-0.013 0.147,0.177 -0.075,0.317 -0.152,0.399 0.195,0.073 0.949,-0.223 0.341,0.01 0.084,0.232 -0.331,0.598 -0.047,0.518 0.476,0.139 0.434,-0.269 -0.161,-0.704 1.595,0.661 0.256,-0.127 0.098,-0.161 0.435,-0.306 0.099,-0.176 0.056,-0.238 0.406,-0.999 0.577,-0.901 0.747,-0.074 0.858,0.26 0.918,0.102 0.908,-0.268 2.331,-1.492 0.531,-0.232 0.337,0.027 0.313,0.128 0.454,0.077 0.333,-0.207 0.364,-1.062 0.305,-0.469 0.773,-0.425 0.985,-0.227 0.997,-0.017 0.808,0.215 0.71,0.543 0.695,0.82 0.38,0.694 0.277,0.106 0.074,-0.06 0.133,-0.047 0.182,-0.033 0.34,0.023 0.281,-0.023 0.074,-0.044 0.311,-0.257 0.067,-0.073 0.067,-0.087 0.042,-0.102 0.031,-0.108 0.004,-0.119 -0.025,-0.109 -0.045,-0.1 -0.035,-0.103 -0.007,-0.102 0.049,-0.082 0.084,-0.064 2.149,-0.526 0.141,-0.064 0.178,-0.127 0.077,-0.065 0.267,-0.175 0.719,0.253 0.266,0.148 0.088,0.059 0.189,0.091 0.677,0.161 0.147,0.081 0.105,0.09 0.112,0.187 0.063,0.085 0.064,0.066 0.066,0.05 1.891,0.269 0.168,-0.014 1.224,-0.5 0.087,-0.059 0.074,-0.068 0.189,-0.254 0.073,-0.071 0.492,0.026 1.623,0.477 0.406,-0.155 0.106,0.007 0.161,0.112 0.112,0.253 0.063,0.09 0.082,0.059 0.108,0.039 1.536,-0.062 1.143,-0.263 z"
       style="fill:none;stroke:#593b02;stroke-width:2.25000006;stroke-linecap:round;stroke-linejoin:round;stroke-miterlimit:4;stroke-dasharray:none;stroke-opacity:1"
       id="path60" />
  </g>
</svg>
