<?xml version="1.0" encoding="UTF-8" standalone="no"?>
<!-- Created with Inkscape (http://www.inkscape.org/) -->

<svg
   version="1.1"
   id="svg2"
   width="359.30933"
   height="465.44919"
   viewBox="0 0 359.30933 465.44919"
   sodipodi:docname="outline - basilicata.svg"
   inkscape:version="1.3.1 (91b66b0783, 2023-11-16)"
   inkscape:export-filename="outline - basilicata.png"
   inkscape:export-xdpi="96"
   inkscape:export-ydpi="96"
   xmlns:inkscape="http://www.inkscape.org/namespaces/inkscape"
   xmlns:sodipodi="http://sodipodi.sourceforge.net/DTD/sodipodi-0.dtd"
   xmlns="http://www.w3.org/2000/svg"
   xmlns:svg="http://www.w3.org/2000/svg">
  <defs
     id="defs6" />
  <sodipodi:namedview
     id="namedview4"
     pagecolor="#ffffff"
     bordercolor="#000000"
     borderopacity="0.25"
     inkscape:showpageshadow="2"
     inkscape:pageopacity="0.0"
     inkscape:pagecheckerboard="0"
     inkscape:deskcolor="#d1d1d1"
     inkscape:zoom="2.4458332"
     inkscape:cx="128.17718"
     inkscape:cy="217.30836"
     inkscape:window-width="2880"
     inkscape:window-height="1514"
     inkscape:window-x="2869"
     inkscape:window-y="-11"
     inkscape:window-maximized="1"
     inkscape:current-layer="g8"
     showgrid="false" />
  <g
     id="g8"
     inkscape:groupmode="layer"
     inkscape:label="ink_ext_XXXXXX"
     transform="matrix(1.3333333,0,0,-1.3333333,-300.36666,586.08665)">
    <path
       d="m 457.06,230.71 -0.152,0.124 -0.086,0.124 -0.131,0.249 -0.087,0.137 -0.081,0.101 -0.231,0.191 -0.06,0.068 -0.119,0.159 -0.35,0.803 -0.127,0.182 -0.122,0.113 -0.211,0.01 -0.095,-0.015 -0.511,-0.18 -0.102,-0.006 -0.102,0.023 -0.073,0.053 -0.158,0.235 -0.064,0.21 -0.273,1.579 -0.088,0.296 -0.017,0.106 0.045,1.338 -0.059,1.186 0.213,0.821 0.014,0.129 -0.017,0.155 -0.091,0.221 -0.091,0.112 -0.102,0.083 -0.087,0.053 -0.085,0.065 -0.063,0.071 -0.01,0.085 0.039,0.091 0.378,0.171 0.014,0.278 -0.477,0.542 -0.077,0.061 -0.157,0.062 -0.699,0.181 -0.462,0.274 -0.088,0.088 -0.178,0.072 -0.772,0.114 -0.193,-0.046 -0.08,-0.08 0.028,-0.1 0.017,-0.1 -0.049,-0.062 h -0.119 l -0.411,0.247 -0.144,0.047 -0.154,-0.047 -0.045,-0.086 v -0.086 l 0.045,-0.082 0.182,-0.23 0.049,-0.084 0.032,-0.088 -0.014,-0.1 -0.063,-0.06 -0.116,0.01 -0.143,0.093 -0.207,0.246 -0.154,0.285 -0.07,0.18 -0.056,0.071 -0.088,0.038 -0.117,-0.026 -0.077,-0.034 -0.066,-0.04 -0.491,-0.438 -0.508,-0.591 -0.418,-0.403 -0.161,-0.107 -0.178,-0.081 -0.218,0.082 -0.316,0.206 -1.266,1.163 -2.387,2.822 -0.166,0.378 -0.269,0.94 -0.074,0.186 -0.091,0.176 -0.105,0.112 -0.158,0.124 -0.343,0.199 -0.197,0.09 -0.175,0.049 -0.12,-0.002 -0.413,-0.1 -0.095,-0.037 -0.08,-0.052 -0.07,-0.065 -0.116,-0.165 -0.066,-0.074 -0.077,-0.059 -0.096,-0.016 -0.109,0.016 -0.094,0.041 -0.253,0.162 -2.419,1.159 -0.081,0.079 -0.052,0.105 0.003,0.177 0.074,0.075 0.105,0.024 0.102,-0.006 0.084,0.013 0.059,0.02 0.063,0.041 0.068,0.054 0.119,0.153 0.109,0.172 0.042,0.094 0.077,0.222 0.066,0.279 0.13,0.39 0.021,0.106 -0.144,0.231 -0.929,1.071 -0.235,0.331 -0.249,0.259 -0.206,0.151 -0.509,0.256 -0.687,0.214 -0.098,0.051 -0.275,0.26 -0.409,0.57 -0.169,0.185 -0.199,-0.157 -1.772,-0.807 -0.405,-0.053 -3.543,0.197 -0.299,-0.144 -0.268,-0.24 -0.217,-0.309 -0.157,-0.506 0.087,-0.42 0.399,-0.852 0.038,-0.464 -0.129,-0.402 -0.386,-0.77 -0.251,-0.828 -0.167,-0.318 -0.287,-0.27 -0.783,-0.498 -0.416,-0.169 -2.297,-0.084 -0.084,-0.384 -0.105,-0.297 v -0.395 l 0.028,-0.197 0.07,-0.252 0.014,-0.115 -0.084,-0.28 -0.403,-0.409 0.312,-0.334 0.101,-0.054 0.099,-0.092 0.045,-0.07 -0.035,-0.123 -0.039,-0.08 -0.017,-0.089 0.067,-0.092 0.031,-0.093 -0.01,-0.129 -0.004,-0.167 0.084,-0.226 0.032,-0.8 0.038,-0.166 0.07,-0.198 0.173,-0.328 0.112,-0.162 0.105,-0.108 0.354,-0.218 0.151,-0.126 0.063,-0.074 0.259,-0.402 0.063,-0.065 0.52,-0.312 0.115,-0.035 0.375,-0.07 0.102,-0.043 0.073,-0.062 0.035,-0.106 0.007,-0.134 -0.049,-0.2 -0.063,-0.109 -0.08,-0.075 -0.26,-0.139 -0.08,-0.057 -0.07,-0.07 -0.266,-0.385 -0.067,-0.137 -0.028,-0.088 -0.021,-0.098 -0.007,-0.068 0.023,-0.099 0.061,-0.098 0.147,-0.11 0.14,-0.044 0.267,-0.05 0.213,-0.072 0.172,-0.107 0.295,-0.269 0.253,-0.286 0.056,-0.079 0.497,-1.323 0.014,-0.138 -0.032,-0.207 -0.07,-0.238 -0.01,-0.084 -0.007,-0.104 0.021,-0.134 0.046,-0.142 0.122,-0.201 0.084,-0.113 0.088,-0.094 0.154,-0.123 0.267,-0.156 0.154,-0.117 0.088,-0.131 0.27,-0.584 0.14,-0.14 0.129,-0.066 0.113,0.008 0.116,-0.009 0.102,-0.034 0.091,-0.051 0.133,-0.137 0.228,-0.312 0.392,-0.414 0.081,-0.059 0.094,-0.046 0.105,-0.03 0.345,-0.017 0.102,-0.031 0.087,-0.047 0.077,-0.06 0.13,-0.142 0.112,-0.156 0.035,-0.162 0.077,-1.107 0.053,-0.202 0.077,-0.178 0.049,-0.079 0.064,-0.074 0.158,-0.127 0.441,-0.259 0.073,-0.064 0.064,-0.074 0.147,-0.243 0.059,-0.077 0.067,-0.068 0.299,-0.25 0.126,-0.148 0.045,-0.098 0.039,-0.109 0.028,-0.159 0.003,-0.135 -0.01,-0.129 -0.021,-0.105 -0.095,-0.267 -0.215,-0.444 -0.283,-0.16 -0.13,-0.107 -0.175,-0.223 -0.116,-0.11 -0.105,-0.079 -0.182,-0.074 -0.173,-0.1 -0.072,-0.059 -0.089,-0.091 -0.235,-0.305 -0.185,-0.182 -0.06,-0.092 -0.035,-0.12 0.007,-0.201 0.063,-0.369 -0.007,-0.121 -0.084,-0.237 -0.555,-0.977 -0.203,-0.26 -0.22,-0.225 -0.014,-0.092 0.052,-0.145 0.074,-0.067 0.063,-0.041 0.084,-0.025 0.07,-0.038 -0.032,-0.174 -0.368,-0.415 0.112,-0.096 0.616,-1.022 0.775,-0.818 0.336,-0.494 0.138,-0.6 0.167,-0.416 0.097,-0.146 0.06,0.082 0.333,0.497 0.108,0.325 0.112,0.182 0.081,0.11 1.46,1.134 0.227,0.103 0.161,0.021 0.435,-0.242 0.091,-0.064 0.137,-0.135 0.056,-0.077 0.074,-0.07 0.088,-0.057 0.14,-0.021 0.074,0.082 0.126,0.317 0.08,0.091 0.098,0.053 0.382,0.049 0.208,-0.001 0.126,-0.037 0.081,-0.051 0.038,-0.047 0.291,-0.454 0.06,-0.075 0.094,-0.07 0.116,-0.051 0.192,-0.033 0.158,0.05 0.422,0.22 0.115,-0.003 0.049,-0.058 -0.024,-0.093 -0.182,-0.377 -0.077,-0.213 -0.011,-0.12 0.014,-0.104 0.042,-0.088 0.056,-0.078 0.512,-0.564 0.269,-0.397 0.084,-0.08 0.123,-0.081 0.222,-0.101 0.151,-0.023 0.129,0.001 0.203,0.047 2.42,0.205 0.207,0.072 0.066,0.202 0.056,0.084 0.067,0.068 0.386,0.212 0.48,0.164 0.214,0.01 0.912,-0.147 0.105,-0.036 0.08,-0.057 0.127,-0.141 0.073,-0.064 0.165,-0.111 0.077,-0.063 0.056,-0.075 0.049,-0.082 0.077,-0.177 0.077,-0.093 0.099,-0.084 0.172,-0.085 0.077,0.042 0.049,0.093 0.007,0.118 -0.035,0.332 -0.024,0.105 -0.043,0.087 -0.07,0.063 -0.091,0.038 -0.073,0.054 -0.028,0.079 0.021,0.087 0.052,0.081 0.13,0.144 0.056,0.079 0.042,0.099 0.039,0.106 0.07,0.357 0.07,0.211 0.052,0.089 0.06,0.075 0.133,0.139 0.119,0.153 0.053,0.087 0.08,0.194 0.007,0.021 0.021,0.123 0.004,0.113 -0.049,0.562 0.01,0.116 0.025,0.111 0.073,0.209 0.102,0.211 0.246,0.607 0.056,0.386 0.025,0.722 0.031,0.231 0.039,0.178 0.038,0.098 0.056,0.114 0.081,0.102 0.13,0.112 0.112,0.009 0.077,-0.046 0.098,-0.166 0.059,-0.078 0.078,-0.05 0.098,-0.028 0.663,0.06 0.845,-0.149 0.119,-0.007 0.119,0.008 0.715,0.16 1.406,-0.122 0.428,-0.115 v 0 l 0.89,0.804 0.826,1.399 0.332,0.209 0.155,0.304 0.539,1.728 0.481,0.943 1.821,2.638 z"
       style="fill:#ffffff;stroke:#a67d03;stroke-width:1.12500003;stroke-linecap:round;stroke-linejoin:round;stroke-miterlimit:4;stroke-dasharray:none;stroke-opacity:1;fill-opacity:1"
       id="path80" />
  </g>
</svg>
