<?xml version="1.0" encoding="UTF-8" standalone="no"?>
<!-- Created with Inkscape (http://www.inkscape.org/) -->

<svg
   version="1.1"
   id="svg2"
   width="359.30933"
   height="465.44919"
   viewBox="0 0 359.30933 465.44919"
   sodipodi:docname="outline - tuscany.svg"
   inkscape:version="1.3.1 (91b66b0783, 2023-11-16)"
   inkscape:export-filename="outline - tuscany.png"
   inkscape:export-xdpi="96"
   inkscape:export-ydpi="96"
   xmlns:inkscape="http://www.inkscape.org/namespaces/inkscape"
   xmlns:sodipodi="http://sodipodi.sourceforge.net/DTD/sodipodi-0.dtd"
   xmlns="http://www.w3.org/2000/svg"
   xmlns:svg="http://www.w3.org/2000/svg">
  <defs
     id="defs6" />
  <sodipodi:namedview
     id="namedview4"
     pagecolor="#ffffff"
     bordercolor="#000000"
     borderopacity="0.25"
     inkscape:showpageshadow="2"
     inkscape:pageopacity="0.0"
     inkscape:pagecheckerboard="0"
     inkscape:deskcolor="#d1d1d1"
     inkscape:zoom="4.8916666"
     inkscape:cx="196.86542"
     inkscape:cy="158.3305"
     inkscape:window-width="2880"
     inkscape:window-height="1514"
     inkscape:window-x="2869"
     inkscape:window-y="-11"
     inkscape:window-maximized="1"
     inkscape:current-layer="g8" />
  <g
     id="g8"
     inkscape:groupmode="layer"
     inkscape:label="ink_ext_XXXXXX"
     transform="matrix(1.3333333,0,0,-1.3333333,-300.36666,586.08665)">
    <path
       d="m 323.121,289.38 -0.313,0.669 -0.398,0.349 -0.291,0.166 -0.162,-0.163 0.013,-0.377 -0.329,-0.248 0.223,-0.373 0.842,-0.876 0.325,-0.199 0.371,0.363 -0.23,0.301 z m 4.03,-2.762 -0.103,-0.089 -0.143,-0.006 -0.04,-0.116 -0.014,-0.134 0.054,-0.18 0.035,-0.089 0.251,-0.161 -0.033,0.236 -0.056,0.266 0.056,0.034 0.075,-0.006 0.094,-0.075 -0.04,0.258 z m 27.113,46.059 -0.327,0.253 -0.186,0.104 -0.105,0.037 -0.115,0.016 -0.112,-0.012 -0.095,-0.047 -0.217,-0.216 -0.099,-0.037 -0.115,-0.01 -0.481,0.091 -0.119,-0.009 -0.102,-0.035 -0.091,-0.058 -0.07,-0.069 -0.227,-0.346 -0.068,-0.075 -0.084,-0.056 -0.105,-0.022 -0.116,0.014 -0.109,0.039 -0.091,0.064 -0.294,0.277 -0.165,0.124 -0.213,0.094 -0.236,0.048 -0.13,0.003 -0.241,-0.043 -0.281,-0.116 -0.497,-0.152 -0.282,0.005 -2.24,0.586 -0.33,0.25 -0.413,0.445 -0.382,0.253 -0.765,0.371 -0.214,0.061 -1.038,0.108 -0.22,0.05 -0.154,0.061 -0.085,0.063 -0.269,0.307 -0.177,0.256 -0.105,0.094 -1.181,0.659 -0.267,0.223 -0.269,0.285 -0.007,1.086 -0.053,0.14 -0.109,0.17 -0.133,0.061 -0.172,0.099 -0.057,0.122 -0.006,0.155 0.046,0.439 -0.035,0.141 -0.056,0.111 -0.523,0.467 -0.151,0.184 -0.059,0.139 -0.014,0.13 0.017,0.139 0.007,0.415 0.028,0.157 0.074,0.101 0.108,0.029 0.382,0.036 0.095,0.045 0.073,0.071 0.236,0.366 0.06,0.128 0.123,0.335 0.381,0.534 0.063,0.149 0.07,0.21 0.102,0.439 0.182,0.397 0.082,0.144 0.112,0.273 0.004,0.155 -0.039,0.109 -0.096,0.052 -0.115,0.026 -0.105,0.004 -0.2,-0.028 -0.694,-0.039 -0.295,-0.085 -0.571,-0.282 -0.21,-0.044 -0.232,0.012 -0.698,0.17 -0.217,0.083 -0.126,0.092 0.007,0.102 0.038,0.103 0.07,0.088 0.281,0.269 0.07,0.081 0.045,0.093 -0.031,0.146 -0.119,0.175 -0.358,0.255 -0.21,0.082 -0.162,0.013 -0.091,-0.053 -0.07,-0.073 -0.06,-0.091 -0.133,-0.08 -0.116,-0.048 -0.763,-0.02 -0.481,0.139 -0.26,0.242 -0.792,0.95 -0.13,0.233 -0.088,0.255 -0.094,0.13 -0.084,0.094 -0.302,0.159 -0.14,0.044 -0.222,0.042 -0.136,-0.024 -0.102,-0.053 -0.063,-0.082 -0.056,-0.086 -0.189,-0.397 -0.06,-0.086 -0.133,-0.059 -0.206,-0.038 -0.422,0.002 -0.175,-0.066 -0.098,-0.091 -0.032,-0.073 -0.035,-0.067 -0.108,-0.152 -0.702,-0.742 -0.224,-0.076 -1.753,-0.3 -0.077,-0.068 -0.056,-0.091 -0.032,-0.102 0.007,-0.113 0.028,-0.101 0.053,-0.094 0.063,-0.074 0.077,-0.07 0.189,-0.105 0.74,-0.303 0.095,-0.059 0.077,-0.067 0.028,-0.097 -0.049,-0.116 -0.186,-0.168 -0.376,-0.131 H 329.6 l -0.372,0.073 -3.527,-0.415 -0.758,0.386 -0.074,0.115 -0.077,0.153 0.032,0.111 0.056,0.098 0.154,0.168 0.077,0.105 0.043,0.172 -0.05,0.109 -0.122,0.088 -0.12,0.029 -0.101,0.008 -0.207,-0.031 -0.032,-0.084 -0.021,-0.109 -0.014,-0.109 -0.028,-0.084 -0.028,-0.056 -0.052,-0.069 -0.21,-0.209 -0.063,-0.082 -0.204,-0.382 -0.873,-1.074 -0.091,-0.005 -0.098,0.026 -0.394,0.197 -0.168,0.115 -0.2,0.233 -0.101,0.076 -0.477,0.192 -0.108,0.068 -0.07,0.071 -0.06,0.085 -0.236,0.203 -0.753,0.296 -1.521,1.161 -0.601,0.231 -1.3,-0.132 -0.099,-0.029 -0.213,-0.105 -0.074,-0.06 -0.063,-0.076 -0.049,-0.093 -0.126,-0.308 -0.117,-0.173 -0.147,-0.163 -0.641,-0.079 -0.266,0.076 -1.087,0.937 -0.162,0.211 -0.705,0.772 -0.052,0.094 -0.042,0.096 -0.028,0.112 -0.021,0.119 -0.029,0.415 -0.115,0.351 -1.238,0.212 -0.368,0.142 -0.07,0.074 -0.582,0.796 -0.274,0.267 -0.185,0.091 -1.238,0.234 h -0.189 l -0.548,-0.324 -0.329,-0.07 -0.445,0.366 -0.264,0.353 -0.067,0.117 -0.234,0.559 -0.112,0.128 -0.123,0.077 -0.126,0.021 -0.432,0.159 -1.072,0.685 -0.821,0.025 -0.291,0.099 -0.28,0.289 -0.127,0.162 -0.053,0.087 -1.378,1.177 -0.143,0.196 0.003,0.109 0.042,0.099 0.077,0.071 0.221,0.125 0.035,0.082 0.007,0.139 -0.084,0.261 -0.088,0.134 -0.101,0.091 -1.228,0.705 -0.879,0.288 -0.684,0.109 -0.168,-0.002 -0.144,-0.026 -0.203,-0.08 -0.179,-0.104 -0.348,-0.372 -0.413,-0.606 -0.544,-0.621 -0.358,-0.51 -0.049,-0.094 -0.045,-0.107 -0.091,-0.344 -0.056,-0.09 -0.081,-0.062 -0.095,-0.05 -0.628,-0.228 -0.368,-0.065 -0.094,-0.052 -0.088,-0.06 -0.059,-0.086 -0.035,-0.105 -0.007,-0.099 0.063,-0.187 0.599,-0.874 0.803,-0.766 1.943,-1.35 0.196,-0.169 0.126,-0.146 0.032,-0.105 0.018,-0.119 -0.004,-0.132 -0.014,-0.135 -0.003,-0.132 0.007,-0.129 0.129,-0.59 0.014,-0.119 -0.003,-0.129 -0.035,-0.267 0.014,-0.163 0.063,-0.074 0.091,-0.01 0.073,0.062 0.063,0.08 0.197,0.39 0.098,0.057 0.133,0.002 0.26,-0.143 0.098,-0.131 0.039,-0.138 -0.032,-0.114 -0.161,-0.308 -0.038,-0.118 -0.025,-0.165 0.039,-0.077 0.049,-0.046 0.217,-0.04 0.221,-0.007 0.413,0.061 0.161,-10e-4 0.19,-0.032 0.319,-0.137 0.161,-0.103 0.102,-0.108 0.038,-0.1 0.004,-0.124 -0.014,-0.124 -0.004,-0.159 0.018,-0.186 0.091,-0.293 0.095,-0.132 0.105,-0.074 0.154,0.013 0.183,0.056 0.172,-0.019 0.221,-0.081 0.42,-0.292 0.175,-0.17 0.084,-0.159 -0.01,-0.118 -0.042,-0.102 -0.053,-0.094 -0.2,-0.267 -0.161,-0.298 -0.07,-0.168 -0.059,-0.172 -0.039,-0.151 -0.007,-0.04 -10e-4,-0.006 0.155,-0.045 0.829,-0.573 0.42,-0.13 0.344,-0.27 0.693,-1.191 0.998,-0.733 0.666,-1.095 0.938,-2.299 0.279,-1.162 0.696,-7.498 0.507,-2.358 0.206,-0.488 0.741,-0.36 0.322,-0.375 1.438,-2.002 1.806,-3.769 0.254,-0.619 0.106,-0.635 0.035,-1.264 0.088,-0.649 0.186,-0.529 -0.163,-0.399 -0.083,-0.665 v -0.655 l 0.077,-0.369 -0.496,-1.709 -0.326,-0.565 -0.568,-0.477 0.496,-1.525 0.431,-0.468 0.632,0.292 -0.07,0.124 -0.099,0.317 0.999,0.326 1.112,-0.038 1.105,-0.29 1.567,-0.731 0.289,-0.215 0.213,-0.311 0.107,-0.413 -0.07,-0.199 -0.133,-0.132 -0.069,-0.21 0.016,-0.704 -0.033,-0.581 -0.215,-0.494 -0.544,-0.452 3.606,-1.243 1.191,-0.641 0.649,-0.704 0.201,-0.114 0.198,-0.185 0.127,-0.436 0.105,-0.495 0.123,-0.366 1.08,-0.639 0.55,-0.453 0.07,-0.597 0.373,-0.178 0.222,-0.493 0.197,-0.575 0.287,-0.425 0.193,0.026 0.257,0.131 0.223,0.026 0.171,-0.545 0.471,-0.775 0.048,-0.493 -0.012,-0.746 -0.198,-0.725 -0.35,-0.508 -0.506,-0.032 -0.651,0.231 -0.314,-0.107 -0.275,-0.409 -0.004,-0.338 0.175,-0.476 0.274,-0.35 0.63,-0.216 0.3,-0.389 0.184,-0.156 0.033,0.044 0.166,0.049 h 0.224 l 0.208,-0.093 0.055,0.397 0.331,0.492 0.077,0.472 0.156,0.242 0.365,0.101 0.411,0.004 0.304,-0.045 1.671,-0.618 0.657,-0.006 -0.167,0.208 0.25,0.021 0.246,-0.031 0.232,-0.079 0.209,-0.119 v -0.226 l 0.554,-0.193 0.697,-0.374 0.002,0.006 0.46,1.342 0.063,0.107 0.091,0.115 0.189,0.141 0.133,0.068 0.116,0.041 2.079,0.241 0.098,0.042 0.092,0.054 0.073,0.069 0.067,0.153 0.056,0.222 0.052,0.456 v 0.23 l -0.038,0.158 -0.06,0.083 -0.133,0.143 -0.635,0.497 -0.07,0.072 -0.049,0.084 0.021,0.126 0.084,0.139 0.337,0.339 0.053,0.212 -0.007,0.14 -0.021,0.13 -0.032,0.109 -0.017,0.109 0.014,0.119 0.07,0.105 0.165,0.095 0.129,0.008 0.105,-0.033 0.172,-0.227 0.073,-0.04 0.088,0.014 1.143,0.516 0.088,0.054 0.073,0.065 0.063,0.079 0.289,0.452 0.108,0.105 0.106,0.068 0.409,0.128 0.169,0.103 0.143,0.142 0.067,0.103 0.066,0.127 0.187,0.452 0.046,0.082 0.056,0.067 0.049,0.037 0.07,0.035 0.091,0.033 0.35,0.052 0.098,0.035 0.088,0.051 0.045,0.237 0.021,0.37 -0.07,0.896 0.049,0.326 0.074,0.2 0.084,0.057 0.063,0.076 0.099,0.186 0.081,0.206 0.028,0.114 -0.018,0.127 -0.07,0.125 -0.192,0.143 -0.124,0.122 -0.095,0.137 -0.084,0.358 -0.101,0.167 -0.084,0.117 -0.603,0.547 0.074,0.241 0.049,0.071 0.273,0.31 0.101,0.05 0.123,0.018 0.207,-0.061 0.112,-0.08 0.159,-0.153 0.114,-0.008 0.162,0.069 0.557,0.59 0.179,0.098 1.094,0.448 1.084,0.736 0.147,0.176 0.053,0.079 0.052,0.102 0.039,0.105 0.035,0.12 0.007,0.137 -0.025,0.143 -0.094,0.168 -0.095,0.094 -0.179,0.134 -0.052,0.142 0.003,0.224 0.165,0.869 0.123,0.352 0.154,0.71 0.133,0.303 0.249,0.333 0.043,0.082 0.077,0.213 0.028,0.116 0.021,0.137 0.038,0.552 -0.01,0.18 -0.042,0.205 -0.148,0.316 -0.122,0.124 -0.131,0.043 -0.094,-0.037 -0.081,-0.062 -0.115,-0.169 -0.07,-0.063 -0.099,-0.024 -0.094,0.024 -0.077,0.147 -0.053,0.241 -0.031,0.537 -0.039,0.252 -0.042,0.181 -0.042,0.098 -0.031,0.105 -0.021,0.113 -0.014,0.134 0.112,0.467 0.494,0.936 0.262,0.26 0.203,0.117 0.629,0.195 0.08,0.044 0.105,0.084 0.19,0.195 0.059,0.11 0.049,0.148 0.053,0.204 0.141,0.927 0.051,0.133 0.086,0.125 0.189,0.137 0.143,0.032 0.134,-0.003 0.616,-0.276 0.225,-0.059 0.12,-0.003 0.101,0.027 0.095,0.048 0.161,0.132 0.147,0.15 0.077,0.062 0.095,0.047 0.108,0.027 0.516,-0.005 0.105,0.026 0.092,0.043 0.936,0.612 0.301,0.265 0.042,0.118 0.007,0.163 -0.098,0.298 -0.087,0.145 -0.098,0.103 -0.098,0.031 -0.103,-0.011 -0.077,-0.052 -0.059,-0.088 -0.13,-0.306 -0.053,-0.093 -0.063,-0.075 -0.081,-0.055 -0.108,-0.036 -0.249,-0.012 -0.123,0.015 -0.217,0.074 -0.087,0.058 -0.047,0.209 -0.021,0.323 0.012,0.721 -0.028,0.314 -0.054,0.205 -0.077,0.07 -0.189,0.105 -0.904,0.277 -0.07,0.062 -0.049,0.091 -0.026,0.111 -0.007,0.159 0.035,0.497 -0.007,0.182 -0.039,0.117 -0.098,0.042 -0.462,-0.033 -0.116,0.026 -0.087,0.054 -0.063,0.076 0.024,0.142 0.105,0.184 0.33,0.319 0.182,0.093 0.168,0.058 0.105,0.022 0.131,0.12 0.452,0.553 0.189,0.146 0.151,0.095 0.206,0.073 0.086,0.084 0.058,0.115 0.005,0.237 -0.042,0.129 -0.061,0.104 -0.158,0.131 -0.403,0.18 -0.087,0.061 -0.063,0.08 -0.035,0.103 0.024,0.127 0.088,0.138 0.241,0.16 0.172,0.058 0.289,0.03 0.112,0.027 0.367,0.522 1.154,2.126 -0.256,0.85 0.017,0.135 0.036,0.152 0.088,0.051 0.311,0.106 0.14,0.087 0.162,0.126 0.4,0.432 0.122,0.102 0.411,0.109 0.217,0.117 0.105,0.112 0.059,0.132 0.113,0.424 0.157,0.401 0.112,0.153 0.098,0.03 0.051,-0.074 0.031,-0.106 0.084,-0.993 0.049,-0.111 0.07,-0.092 0.133,-0.07 0.084,0.03 0.127,0.147 0.14,0.236 0.319,0.449 0.066,0.214 0.007,0.143 z m -42.244,-28.472 0.165,0.225 -0.11,0.307 -0.169,0.276 -0.202,0.196 -0.219,0.078 -0.282,-0.139 -0.176,-0.334 -0.243,-0.784 -0.149,-0.164 -0.198,-0.127 -0.179,-0.166 -0.077,-0.287 -0.165,-0.072 -0.33,0.004 -0.241,0.176 0.107,0.446 -0.848,-0.019 -0.388,0.053 v -0.264 l -0.296,-0.21 0.083,-0.051 0.037,0.007 0.013,-0.033 0.022,-0.152 -0.535,-0.039 -0.403,0.039 -0.276,0.105 -0.502,0.277 -0.235,0.057 -0.482,-0.045 -0.57,-0.165 -0.482,-0.327 -0.232,-0.529 0.122,-0.816 0.408,-0.438 0.506,-0.178 1.862,-0.057 0.126,0.015 0.108,0.183 0.121,0.472 0.453,-0.39 0.884,0.466 0.208,-0.514 0.256,0.669 h 0.29 l 0.302,-0.28 0.294,-0.18 0.066,-0.117 0.228,-0.553 0.092,-0.165 0.269,-0.134 0.228,0.021 0.173,-0.028 0.102,-0.278 0.343,0.405 -0.125,0.572 -0.388,0.506 -0.433,0.19 0.409,0.169 0.301,0.228 0.221,0.342 0.151,0.517 -0.136,0.359 0.011,0.36 z m -3.141,-15.081 -0.059,-0.513 0.425,-0.125 0.061,0.513 -0.215,0.328 z m -8.738,33.805 -0.117,-0.075 -0.122,-0.028 -0.075,-0.334 0.321,-0.178 0.156,0.267 0.006,0.23 -0.067,0.049 z m -1.501,-11.879 -0.048,0.083 -0.038,0.054 -0.324,0.292 -0.426,-0.253 -0.505,-1.17 0.382,-0.635 0.485,0.02 0.433,0.508 0.287,0.595 -0.165,0.44 z m 5.598,-14.27 -0.09,0.251 -0.076,0.328 -0.11,-0.024 -0.155,-0.413 -0.222,-0.257 -0.23,-0.092 -0.052,-0.216 0.188,-0.182 0.298,-0.099 0.316,-0.009 0.217,0.138 0.057,0.212 v 0.124 l -0.042,0.085 z"
       style="fill:none;stroke:#593b02;stroke-width:2.25000006;stroke-linecap:round;stroke-linejoin:round;stroke-miterlimit:4;stroke-dasharray:none;stroke-opacity:1"
       id="path24" />
  </g>
</svg>
