<?xml version="1.0" encoding="UTF-8" standalone="no"?>
<!-- Created with Inkscape (http://www.inkscape.org/) -->

<svg
   width="24.057423mm"
   height="56.03389mm"
   viewBox="0 0 24.057423 56.03389"
   version="1.1"
   id="svg1"
   inkscape:version="1.3.1 (91b66b0783, 2023-11-16)"
   sodipodi:docname="red wine glass.svg"
   inkscape:export-filename="red wine glass.png"
   inkscape:export-xdpi="96"
   inkscape:export-ydpi="96"
   xmlns:inkscape="http://www.inkscape.org/namespaces/inkscape"
   xmlns:sodipodi="http://sodipodi.sourceforge.net/DTD/sodipodi-0.dtd"
   xmlns="http://www.w3.org/2000/svg"
   xmlns:svg="http://www.w3.org/2000/svg">
  <sodipodi:namedview
     id="namedview1"
     pagecolor="#ffffff"
     bordercolor="#000000"
     borderopacity="0.25"
     inkscape:showpageshadow="2"
     inkscape:pageopacity="0.0"
     inkscape:pagecheckerboard="0"
     inkscape:deskcolor="#d1d1d1"
     inkscape:document-units="mm"
     inkscape:zoom="1.139401"
     inkscape:cx="309.81192"
     inkscape:cy="378.70777"
     inkscape:window-width="2880"
     inkscape:window-height="1514"
     inkscape:window-x="2869"
     inkscape:window-y="-11"
     inkscape:window-maximized="1"
     inkscape:current-layer="layer1" />
  <defs
     id="defs1" />
  <g
     inkscape:label="Layer 1"
     inkscape:groupmode="layer"
     id="layer1"
     transform="translate(-23.022758,-48.271077)">
    <path
       d="m 46.46136,67.136927 c 1.920522,-7.343069 -1.242483,-18.86585 -1.242483,-18.86585 H 35.051468 24.88406 c 0,0 -3.163005,11.522781 -1.242483,18.86585 1.920522,7.343069 10.036175,8.472664 10.036175,8.472664 v 22.368225 c 0,0 -9.584267,1.5815 -9.471378,3.953944 0.118181,2.48496 10.845094,2.37243 10.845094,2.37243 0,0 10.726914,0.11253 10.845095,-2.37243 0.112889,-2.372444 -9.471378,-3.953944 -9.471378,-3.953944 V 75.609591 c 0,0 8.115653,-1.129595 10.036175,-8.472664"
       style="fill:#e8e8e6;fill-opacity:1;fill-rule:nonzero;stroke:none;stroke-width:0.0352778"
       id="path140" />
    <path
       d="m 42.281649,54.032291 -7.230181,0.112889 -7.23018,-0.112889 c 0,0 -0.677686,1.694745 -0.677686,9.602611 0,7.907867 7.907866,7.907867 7.907866,7.907867 0,0 7.907867,0 7.907867,-7.907867 0,-7.907866 -0.677686,-9.602611 -0.677686,-9.602611"
       style="fill:#be1c2e;fill-opacity:1;fill-rule:nonzero;stroke:none;stroke-width:0.0352778"
       id="path142" />
    <path
       d="m 28.878563,59.25693 c -0.04304,-0.517878 -1.142647,4.259086 -0.104069,7.167739 1.03893,2.909005 4.155016,3.951111 5.194299,4.051652 3.220509,0.311503 3.636081,-4.882797 -0.727075,-4.778727 -3.246261,0.07726 -4.259438,-5.1943 -4.363155,-6.440664"
       style="fill:#f2f2f0;fill-opacity:1;fill-rule:nonzero;stroke:none;stroke-width:0.0352778"
       id="path144" />
  </g>
</svg>
