<?xml version="1.0" encoding="UTF-8" standalone="no"?>
<!-- Created with Inkscape (http://www.inkscape.org/) -->

<svg
   width="24.057676mm"
   height="49.368759mm"
   viewBox="0 0 24.057676 49.368759"
   version="1.1"
   id="svg1"
   inkscape:version="1.3.1 (91b66b0783, 2023-11-16)"
   sodipodi:docname="white wine glass.svg"
   inkscape:export-filename="white wine glass.png"
   inkscape:export-xdpi="96"
   inkscape:export-ydpi="96"
   xmlns:inkscape="http://www.inkscape.org/namespaces/inkscape"
   xmlns:sodipodi="http://sodipodi.sourceforge.net/DTD/sodipodi-0.dtd"
   xmlns="http://www.w3.org/2000/svg"
   xmlns:svg="http://www.w3.org/2000/svg">
  <sodipodi:namedview
     id="namedview1"
     pagecolor="#ffffff"
     bordercolor="#000000"
     borderopacity="0.25"
     inkscape:showpageshadow="2"
     inkscape:pageopacity="0.0"
     inkscape:pagecheckerboard="0"
     inkscape:deskcolor="#d1d1d1"
     inkscape:document-units="mm"
     inkscape:zoom="1.139401"
     inkscape:cx="315.07785"
     inkscape:cy="455.06369"
     inkscape:window-width="2880"
     inkscape:window-height="1514"
     inkscape:window-x="2869"
     inkscape:window-y="-11"
     inkscape:window-maximized="1"
     inkscape:current-layer="layer1" />
  <defs
     id="defs1" />
  <g
     inkscape:label="Layer 1"
     inkscape:groupmode="layer"
     id="layer1"
     transform="translate(-21.50696,-28.100675)">
    <path
       d="M 44.945866,44.722505 C 46.866388,38.252913 43.70303,28.100675 43.70303,28.100675 H 33.535622 23.368567 c 0,0 -3.163358,10.152238 -1.242836,16.62183 1.920522,6.469591 10.036175,7.46513 10.036175,7.46513 V 71.89486 c 0,0 -9.584267,1.393472 -9.471378,3.48368 0.118534,2.189339 10.845094,2.090209 10.845094,2.090209 0,0 10.726914,0.09913 10.845447,-2.090209 0.112889,-2.090208 -9.47173,-3.48368 -9.47173,-3.48368 V 52.187635 c 0,0 8.116005,-0.995539 10.036527,-7.46513"
       style="fill:#e8e8e6;fill-opacity:1;fill-rule:nonzero;stroke:none;stroke-width:0.0352778"
       id="path176" />
    <path
       d="m 40.765802,33.176794 -7.23018,0.09948 -7.229827,-0.09948 c 0,0 -0.678039,1.492956 -0.678039,8.460317 0,6.967361 7.907866,6.967361 7.907866,6.967361 0,0 7.907866,0 7.907866,-6.967361 0,-6.967361 -0.677686,-8.460317 -0.677686,-8.460317"
       style="fill:#ebd89d;fill-opacity:1;fill-rule:nonzero;stroke:none;stroke-width:0.0352778"
       id="path178" />
    <path
       d="m 27.229367,36.472797 c -0.04304,-0.517525 -1.142647,4.259086 -0.103717,7.168091 1.038931,2.908653 4.155017,3.950759 5.193947,4.0513 3.220509,0.311856 3.636081,-4.882444 -0.727075,-4.778727 -3.246261,0.07761 -4.259086,-5.193948 -4.363155,-6.440664"
       style="fill:#f2f2f0;fill-opacity:1;fill-rule:nonzero;stroke:none;stroke-width:0.0352778"
       id="path180" />
  </g>
</svg>
