<svg width="300" height="153" viewBox="0 0 300 153" fill="none" xmlns="http://www.w3.org/2000/svg">
<path fill-rule="evenodd" clip-rule="evenodd" d="M300 152.393H0V134.345H300V152.393Z" fill="#3A649E"/>
<path fill-rule="evenodd" clip-rule="evenodd" d="M54.5752 1.65918H30.0179C28.1436 1.65918 26.6274 3.17779 26.6274 5.04975V130.871C26.6274 132.745 28.1436 134.261 30.0179 134.261H54.5752C56.4472 134.261 57.9657 132.745 57.9657 130.871V5.04975C57.9657 3.17779 56.4472 1.65918 54.5752 1.65918Z" fill="url(#paint0_linear_499_23201)"/>
<path fill-rule="evenodd" clip-rule="evenodd" d="M44.3414 54.2529H40.2513C38.4008 54.2529 36.9014 55.7524 36.9014 57.6029V113.904C36.9014 115.752 38.4008 117.252 40.2513 117.252H44.3414C46.1894 117.252 47.6913 115.752 47.6913 113.904V57.6029C47.6913 55.7524 46.1894 54.2529 44.3414 54.2529Z" fill="#FAFDF6"/>
<path fill-rule="evenodd" clip-rule="evenodd" d="M46.9302 23.3992C46.9302 25.9587 44.8553 28.0312 42.2957 28.0312C39.7385 28.0312 37.6636 25.9587 37.6636 23.3992C37.6636 20.8396 39.7385 18.7646 42.2957 18.7646C44.8553 18.7646 46.9302 20.8396 46.9302 23.3992Z" fill="#0B0906"/>
<path fill-rule="evenodd" clip-rule="evenodd" d="M180.709 0.730861L156.224 2.61542C154.355 2.75891 152.96 4.3897 153.103 6.25617L162.759 131.706C162.903 133.575 164.531 134.97 166.4 134.827L190.885 132.942C192.751 132.799 194.149 131.17 194.005 129.301L184.349 3.85116C184.206 1.98475 182.575 0.587172 180.709 0.730861Z" fill="url(#paint1_linear_499_23201)"/>
<path fill-rule="evenodd" clip-rule="evenodd" d="M174.755 22.9929C174.951 25.545 173.041 27.7706 170.489 27.967C167.94 28.1633 165.712 26.2561 165.515 23.7041C165.319 21.1521 167.228 18.924 169.778 18.7277C172.33 18.5315 174.558 20.4409 174.755 22.9929Z" fill="#0B0906"/>
<path fill-rule="evenodd" clip-rule="evenodd" d="M117.69 1.5166H93.1327C91.2584 1.5166 89.7422 3.03516 89.7422 4.90712V130.728C89.7422 132.603 91.2584 134.119 93.1327 134.119H117.69C119.562 134.119 121.08 132.603 121.08 130.728V4.90712C121.08 3.03516 119.562 1.5166 117.69 1.5166Z" fill="url(#paint2_linear_499_23201)"/>
<path fill-rule="evenodd" clip-rule="evenodd" d="M110.044 23.2557C110.044 25.8152 107.97 27.8877 105.41 27.8877C102.853 27.8877 100.778 25.8152 100.778 23.2557C100.778 20.6961 102.853 18.6211 105.41 18.6211C107.97 18.6211 110.044 20.6961 110.044 23.2557Z" fill="#0B0906"/>
<path fill-rule="evenodd" clip-rule="evenodd" d="M85.9136 1.65918H61.3563C59.482 1.65918 57.9658 3.17779 57.9658 5.04975V130.871C57.9658 132.745 59.482 134.261 61.3563 134.261H85.9136C87.7856 134.261 89.3041 132.745 89.3041 130.871V5.04975C89.3041 3.17779 87.7856 1.65918 85.9136 1.65918Z" fill="url(#paint3_linear_499_23201)"/>
<path fill-rule="evenodd" clip-rule="evenodd" d="M149.163 1.74316H124.606C122.732 1.74316 121.215 3.26172 121.215 5.13368V130.955C121.215 132.829 122.732 134.345 124.606 134.345H149.163C151.035 134.345 152.554 132.829 152.554 130.955V5.13368C152.554 3.26172 151.035 1.74316 149.163 1.74316Z" fill="url(#paint4_linear_499_23201)"/>
<path fill-rule="evenodd" clip-rule="evenodd" d="M75.6797 54.2529H71.5897C69.7392 54.2529 68.2397 55.7524 68.2397 57.6029V113.904C68.2397 115.752 69.7392 117.252 71.5897 117.252H75.6797C77.5302 117.252 79.0297 115.752 79.0297 113.904V57.6029C79.0297 55.7524 77.5302 54.2529 75.6797 54.2529Z" fill="#FAFDF6"/>
<path fill-rule="evenodd" clip-rule="evenodd" d="M210.105 4.99087L187.599 14.8154C185.881 15.5653 185.099 17.5637 185.848 19.2793L236.185 134.593C236.934 136.31 238.931 137.093 240.648 136.344L263.155 126.519C264.87 125.77 265.655 123.773 264.906 122.055L214.569 6.74184C213.82 5.02617 211.821 4.24196 210.105 4.99087Z" fill="url(#paint5_linear_499_23201)"/>
<path fill-rule="evenodd" clip-rule="evenodd" d="M221.767 57.2856L218.018 58.9219C216.322 59.6622 215.548 61.6363 216.288 63.3322L238.812 114.932C239.552 116.625 241.526 117.4 243.222 116.659L246.97 115.023C248.666 114.283 249.441 112.309 248.701 110.615L226.177 59.0156C225.437 57.3196 223.462 56.5453 221.767 57.2856Z" fill="#FAFDF6"/>
<path fill-rule="evenodd" clip-rule="evenodd" d="M78.2681 23.3992C78.2681 25.9587 76.1932 28.0312 73.6336 28.0312C71.0764 28.0312 69.0015 25.9587 69.0015 23.3992C69.0015 20.8396 71.0764 18.7646 73.6336 18.7646C76.1932 18.7646 78.2681 20.8396 78.2681 23.3992Z" fill="#0B0906"/>
<path fill-rule="evenodd" clip-rule="evenodd" d="M107.021 54.2529H102.928C101.078 54.2529 99.5781 55.7524 99.5781 57.6029V113.904C99.5781 115.752 101.078 117.252 102.928 117.252H107.021C108.869 117.252 110.368 115.752 110.368 113.904V57.6029C110.368 55.7524 108.869 54.2529 107.021 54.2529Z" fill="#FAFDF6"/>
<path fill-rule="evenodd" clip-rule="evenodd" d="M138.359 54.2529H134.266C132.416 54.2529 130.917 55.7524 130.917 57.6029V113.904C130.917 115.752 132.416 117.252 134.266 117.252H138.359C140.207 117.252 141.706 115.752 141.706 113.904V57.6029C141.706 55.7524 140.207 54.2529 138.359 54.2529Z" fill="#FAFDF6"/>
<path fill-rule="evenodd" clip-rule="evenodd" d="M140.945 23.3992C140.945 25.9587 138.87 28.0312 136.313 28.0312C133.753 28.0312 131.678 25.9587 131.678 23.3992C131.678 20.8396 133.753 18.7646 136.313 18.7646C138.87 18.7646 140.945 20.8396 140.945 23.3992Z" fill="#0B0906"/>
<path fill-rule="evenodd" clip-rule="evenodd" d="M173.424 53.5401L169.349 53.9245C167.508 54.0984 166.158 55.7321 166.33 57.573L171.608 113.625C171.782 115.465 173.416 116.818 175.259 116.644L179.331 116.262C181.172 116.089 182.525 114.455 182.351 112.614L177.07 56.5626C176.896 54.7193 175.263 53.3663 173.424 53.5401Z" fill="#FAFDF6"/>
<path fill-rule="evenodd" clip-rule="evenodd" d="M213.489 29.2405C214.477 31.6019 213.364 34.3167 211.003 35.3052C208.642 36.2937 205.929 35.1814 204.941 32.8197C203.95 30.4582 205.062 27.7458 207.426 26.7549C209.785 25.7688 212.5 26.8815 213.489 29.2405Z" fill="#0B0906"/>
<defs>
<linearGradient id="paint0_linear_499_23201" x1="29.5571" y1="111.772" x2="52.9325" y2="31.3708" gradientUnits="userSpaceOnUse">
<stop stop-color="#111521"/>
<stop offset="1" stop-color="#334967"/>
</linearGradient>
<linearGradient id="paint1_linear_499_23201" x1="164.215" y1="112.439" x2="181.351" y2="30.4809" gradientUnits="userSpaceOnUse">
<stop stop-color="#111521"/>
<stop offset="1" stop-color="#334967"/>
</linearGradient>
<linearGradient id="paint2_linear_499_23201" x1="92.6719" y1="111.629" x2="116.047" y2="31.2282" gradientUnits="userSpaceOnUse">
<stop stop-color="#111521"/>
<stop offset="1" stop-color="#334967"/>
</linearGradient>
<linearGradient id="paint3_linear_499_23201" x1="60.8979" y1="111.772" x2="84.2733" y2="31.3708" gradientUnits="userSpaceOnUse">
<stop stop-color="#25488D"/>
<stop offset="1" stop-color="#73B2E4"/>
</linearGradient>
<linearGradient id="paint4_linear_499_23201" x1="124.147" y1="111.856" x2="147.523" y2="31.4548" gradientUnits="userSpaceOnUse">
<stop stop-color="#25488D"/>
<stop offset="1" stop-color="#73B2E4"/>
</linearGradient>
<linearGradient id="paint5_linear_499_23201" x1="231.231" y1="115.916" x2="220.488" y2="32.8774" gradientUnits="userSpaceOnUse">
<stop stop-color="#25488D"/>
<stop offset="1" stop-color="#73B2E4"/>
</linearGradient>
</defs>
</svg>
