<svg width="400" height="250" viewBox="0 0 400 250" fill="none" xmlns="http://www.w3.org/2000/svg">
<path fill-rule="evenodd" clip-rule="evenodd" d="M396.195 245.429H3.80469V3.80664H396.195V245.429Z" fill="#EBDCDB"/>
<path fill-rule="evenodd" clip-rule="evenodd" d="M396.195 245.429H3.80469V3.80664H396.195V245.429Z" fill="#DCDEEA"/>
<path d="M7.6093 241.622H392.391V7.61116H7.6093V241.622ZM400 249.233H0V0H400V249.233Z" fill="#42483D"/>
<path fill-rule="evenodd" clip-rule="evenodd" d="M105.707 106.226H42.2832V35.5049H105.707V106.226Z" fill="white"/>
<path fill-rule="evenodd" clip-rule="evenodd" d="M105.707 57.6763H42.2832V35.5049H105.707V57.6763Z" fill="#3A649E"/>
<path fill-rule="evenodd" clip-rule="evenodd" d="M77.8007 36.9109C77.8007 38.9554 76.1453 40.6127 74.1008 40.6127C72.0582 40.6127 70.4009 38.9554 70.4009 36.9109C70.4009 34.8683 72.0582 33.2109 74.1008 33.2109C76.1453 33.2109 77.8007 34.8683 77.8007 36.9109Z" fill="#920721"/>
<path fill-rule="evenodd" clip-rule="evenodd" d="M89.3235 52.2403H58.2446V48.5928H89.3235V52.2403Z" fill="white"/>
<path fill-rule="evenodd" clip-rule="evenodd" d="M97.5687 68.8897H49.6831V65.2422H97.5687V68.8897Z" fill="#E4DDDC"/>
<path fill-rule="evenodd" clip-rule="evenodd" d="M97.5687 80.0998H49.6831V76.4541H97.5687V80.0998Z" fill="#E4DDDC"/>
<path fill-rule="evenodd" clip-rule="evenodd" d="M97.5687 91.3135H49.6831V87.666H97.5687V91.3135Z" fill="#E4DDDC"/>
<path fill-rule="evenodd" clip-rule="evenodd" d="M255.999 131.885H192.573V61.168H255.999V131.885Z" fill="white"/>
<path fill-rule="evenodd" clip-rule="evenodd" d="M255.999 83.3376H192.573V61.168H255.999V83.3376Z" fill="#3A649E"/>
<path fill-rule="evenodd" clip-rule="evenodd" d="M228.093 62.5748C228.093 64.6174 226.435 66.2747 224.391 66.2747C222.348 66.2747 220.693 64.6174 220.693 62.5748C220.693 60.5303 222.348 58.873 224.391 58.873C226.435 58.873 228.093 60.5303 228.093 62.5748Z" fill="#920721"/>
<path fill-rule="evenodd" clip-rule="evenodd" d="M239.613 77.9024H208.536V74.2549H239.613V77.9024Z" fill="white"/>
<path fill-rule="evenodd" clip-rule="evenodd" d="M247.859 94.5519H199.971V90.9043H247.859V94.5519Z" fill="#E4DDDC"/>
<path fill-rule="evenodd" clip-rule="evenodd" d="M247.859 105.764H199.971V102.116H247.859V105.764Z" fill="#E4DDDC"/>
<path fill-rule="evenodd" clip-rule="evenodd" d="M247.859 116.978H199.971V113.33H247.859V116.978Z" fill="#E4DDDC"/>
<path fill-rule="evenodd" clip-rule="evenodd" d="M356.115 180.678L293.045 187.386L285.566 117.063L348.635 110.355L356.115 180.678Z" fill="white"/>
<path fill-rule="evenodd" clip-rule="evenodd" d="M350.981 132.402L287.91 139.111L285.566 117.063L348.635 110.355L350.981 132.402Z" fill="#89A8D4"/>
<path fill-rule="evenodd" clip-rule="evenodd" d="M321.033 114.705C321.249 116.738 319.776 118.56 317.745 118.777C315.714 118.993 313.892 117.522 313.675 115.489C313.459 113.457 314.93 111.636 316.963 111.419C318.995 111.202 320.818 112.676 321.033 114.705Z" fill="#9DDDC9"/>
<path fill-rule="evenodd" clip-rule="evenodd" d="M334.112 128.73L303.209 132.017L302.822 128.39L333.725 125.104L334.112 128.73Z" fill="white"/>
<path fill-rule="evenodd" clip-rule="evenodd" d="M344.071 144.414L296.453 149.478L296.067 145.851L343.686 140.787L344.071 144.414Z" fill="#E4DDDC"/>
<path fill-rule="evenodd" clip-rule="evenodd" d="M345.257 155.563L297.641 160.628L297.255 157.001L344.872 151.938L345.257 155.563Z" fill="#E4DDDC"/>
<path fill-rule="evenodd" clip-rule="evenodd" d="M346.443 166.713L298.827 171.776L298.441 168.151L346.058 163.086L346.443 166.713Z" fill="#E4DDDC"/>
<path fill-rule="evenodd" clip-rule="evenodd" d="M176.932 61.4452L128.822 57.792L131.285 25.3477L179.397 29.0007L176.932 61.4452Z" fill="white"/>
<path fill-rule="evenodd" clip-rule="evenodd" d="M178.625 39.1727L130.513 35.5196L131.285 25.3477L179.397 29.0007L178.625 39.1727Z" fill="#89A8D4"/>
<path fill-rule="evenodd" clip-rule="evenodd" d="M158.148 28.4601C158.03 30.0089 156.678 31.1706 155.127 31.0527C153.578 30.9366 152.417 29.5843 152.535 28.0337C152.652 26.483 154.003 25.3214 155.554 25.4411C157.102 25.5588 158.266 26.9095 158.148 28.4601Z" fill="#920721"/>
<path fill-rule="evenodd" clip-rule="evenodd" d="M166.384 35.7347L142.81 33.9446L142.937 32.2705L166.511 34.0606L166.384 35.7347Z" fill="white"/>
<path fill-rule="evenodd" clip-rule="evenodd" d="M172.059 43.8473L135.735 41.0901L135.862 39.416L172.186 42.1751L172.059 43.8473Z" fill="#E4DDDC"/>
<path fill-rule="evenodd" clip-rule="evenodd" d="M171.668 48.9927L135.344 46.2337L135.471 44.5596L171.795 47.3186L171.668 48.9927Z" fill="#E4DDDC"/>
<path fill-rule="evenodd" clip-rule="evenodd" d="M171.279 54.1372L134.953 51.3782L135.08 49.7041L171.404 52.4632L171.279 54.1372Z" fill="#E4DDDC"/>
<path fill-rule="evenodd" clip-rule="evenodd" d="M160.57 169.543L112.46 165.89L114.923 133.443L163.035 137.097L160.57 169.543Z" fill="white"/>
<path fill-rule="evenodd" clip-rule="evenodd" d="M162.263 147.268L114.151 143.615L114.923 133.443L163.035 137.097L162.263 147.268Z" fill="#89A8D4"/>
<path fill-rule="evenodd" clip-rule="evenodd" d="M141.784 136.556C141.666 138.106 140.316 139.268 138.765 139.15C137.216 139.032 136.053 137.68 136.173 136.129C136.288 134.58 137.641 133.419 139.192 133.537C140.742 133.654 141.902 135.007 141.784 136.556Z" fill="#920721"/>
<path fill-rule="evenodd" clip-rule="evenodd" d="M150.024 143.831L126.448 142.04L126.575 140.368L150.151 142.158L150.024 143.831Z" fill="white"/>
<path fill-rule="evenodd" clip-rule="evenodd" d="M155.697 151.945L119.374 149.186L119.501 147.514L155.825 150.271L155.697 151.945Z" fill="#E4DDDC"/>
<path fill-rule="evenodd" clip-rule="evenodd" d="M155.306 157.09L118.982 154.33L119.11 152.658L155.433 155.415L155.306 157.09Z" fill="#E4DDDC"/>
<path fill-rule="evenodd" clip-rule="evenodd" d="M154.916 162.233L118.592 159.476L118.719 157.802L155.043 160.561L154.916 162.233Z" fill="#E4DDDC"/>
<path fill-rule="evenodd" clip-rule="evenodd" d="M118.651 212.677H70.4009V180.138H118.651V212.677Z" fill="white"/>
<path fill-rule="evenodd" clip-rule="evenodd" d="M118.651 190.34H70.4009V180.138H118.651V190.34Z" fill="#3A649E"/>
<path fill-rule="evenodd" clip-rule="evenodd" d="M97.4228 181.208C97.4228 182.762 96.162 184.023 94.6076 184.023C93.0532 184.023 91.7925 182.762 91.7925 181.208C91.7925 179.653 93.0532 178.395 94.6076 178.395C96.162 178.395 97.4228 179.653 97.4228 181.208Z" fill="#920721"/>
<path fill-rule="evenodd" clip-rule="evenodd" d="M106.187 187.837H82.5449V186.159H106.187V187.837Z" fill="white"/>
<path fill-rule="evenodd" clip-rule="evenodd" d="M112.46 195.498H76.0312V193.82H112.46V195.498Z" fill="#E4DDDC"/>
<path fill-rule="evenodd" clip-rule="evenodd" d="M112.46 200.657H76.0312V198.979H112.46V200.657Z" fill="#E4DDDC"/>
<path fill-rule="evenodd" clip-rule="evenodd" d="M112.46 205.817H76.0312V204.139H112.46V205.817Z" fill="#E4DDDC"/>
<path fill-rule="evenodd" clip-rule="evenodd" d="M251.145 203.301H202.895V170.763H251.145V203.301Z" fill="white"/>
<path fill-rule="evenodd" clip-rule="evenodd" d="M251.145 180.965H202.895V170.763H251.145V180.965Z" fill="#C5D4EA"/>
<path fill-rule="evenodd" clip-rule="evenodd" d="M229.915 171.833C229.915 173.387 228.654 174.648 227.099 174.648C225.545 174.648 224.286 173.387 224.286 171.833C224.286 170.278 225.545 169.018 227.099 169.018C228.654 169.018 229.915 170.278 229.915 171.833Z" fill="#920721"/>
<path fill-rule="evenodd" clip-rule="evenodd" d="M238.68 178.462H215.038V176.784H238.68V178.462Z" fill="white"/>
<path fill-rule="evenodd" clip-rule="evenodd" d="M244.952 186.123H208.525V184.445H244.952V186.123Z" fill="#E4DDDC"/>
<path fill-rule="evenodd" clip-rule="evenodd" d="M244.952 191.282H208.525V189.604H244.952V191.282Z" fill="#E4DDDC"/>
<path fill-rule="evenodd" clip-rule="evenodd" d="M244.952 196.442H208.525V194.764H244.952V196.442Z" fill="#E4DDDC"/>
<path fill-rule="evenodd" clip-rule="evenodd" d="M377.004 65.7341H328.753V33.1943H377.004V65.7341Z" fill="white"/>
<path fill-rule="evenodd" clip-rule="evenodd" d="M377.004 43.3962H328.753V33.1943H377.004V43.3962Z" fill="#C5D4EA"/>
<path fill-rule="evenodd" clip-rule="evenodd" d="M355.771 34.2663C355.771 35.8207 354.514 37.0796 352.958 37.0796C351.403 37.0796 350.145 35.8207 350.145 34.2663C350.145 32.7119 351.403 31.4512 352.958 31.4512C354.514 31.4512 355.771 32.7119 355.771 34.2663Z" fill="#920721"/>
<path fill-rule="evenodd" clip-rule="evenodd" d="M364.539 40.8957H340.895V39.2178H364.539V40.8957Z" fill="white"/>
<path fill-rule="evenodd" clip-rule="evenodd" d="M370.81 48.5558H334.382V46.8779H370.81V48.5558Z" fill="#E4DDDC"/>
<path fill-rule="evenodd" clip-rule="evenodd" d="M370.81 53.7159H334.382V52.0361H370.81V53.7159Z" fill="#E4DDDC"/>
<path fill-rule="evenodd" clip-rule="evenodd" d="M370.81 58.8733H334.382V57.1973H370.81V58.8733Z" fill="#E4DDDC"/>
</svg>
