<svg width="72" height="61" viewBox="0 0 72 61" fill="none" xmlns="http://www.w3.org/2000/svg">
<path d="M13.172 54.0351C12.3584 54.6483 11.5129 54.9841 10.6358 55.0427C9.75861 55.1013 8.90776 54.9127 8.08324 54.4769C7.25872 54.041 6.52002 53.3899 5.86716 52.5235C5.20293 51.6421 4.77875 50.7421 4.5946 49.8238C4.41138 48.8988 4.46835 48.026 4.76553 47.2056C5.06363 46.3786 5.60444 45.6698 6.38795 45.0794C6.99819 44.6196 7.63331 44.3181 8.29332 44.1751C8.95333 44.0322 9.59295 44.0463 10.2122 44.2175C10.8314 44.3887 11.383 44.7172 11.8671 45.2028L10.5336 46.2077C10.1339 45.8888 9.64389 45.7088 9.06365 45.6676C8.48433 45.6199 7.90085 45.8174 7.31322 46.2603C6.79338 46.652 6.43978 47.1311 6.2524 47.6975C6.06595 48.2573 6.04799 48.8644 6.19852 49.5187C6.34998 50.1664 6.67266 50.818 7.16657 51.4735C7.67184 52.144 8.21729 52.6484 8.80292 52.9866C9.39233 53.3221 9.98463 53.4811 10.5798 53.4637C11.1788 53.4435 11.742 53.2347 12.2693 52.8373C12.6159 52.5761 12.885 52.2788 13.0767 51.9454C13.2684 51.612 13.377 51.2584 13.4026 50.8848C13.4281 50.5112 13.3631 50.135 13.2076 49.7561L14.5411 48.7512C14.8518 49.3203 15.013 49.9223 15.0248 50.5571C15.0376 51.1853 14.8918 51.8031 14.5876 52.4103C14.2842 53.011 13.8124 53.5526 13.172 54.0351ZM21.1052 48.0925C20.5552 48.5069 19.978 48.7795 19.3736 48.9101C18.7664 49.0369 18.182 49.0019 17.6202 48.8051C17.0556 48.6045 16.5605 48.2217 16.1347 47.6566C15.76 47.1594 15.5542 46.6826 15.5173 46.2261C15.4776 45.7658 15.5549 45.3237 15.7492 44.8997C15.9435 44.4757 16.2058 44.0713 16.536 43.6867C16.8672 43.2954 17.2144 42.9215 17.5777 42.565C18.054 42.0998 18.4432 41.7268 18.7454 41.4459C19.0485 41.1585 19.2428 40.9146 19.3282 40.7145C19.4173 40.5114 19.381 40.3026 19.2192 40.0879L19.1851 40.0427C18.765 39.4852 18.286 39.1669 17.7481 39.088C17.214 39.0062 16.64 39.1966 16.026 39.6593C15.3894 40.139 14.9953 40.6545 14.8437 41.2057C14.6921 41.757 14.6621 42.2462 14.7536 42.6733L13.1473 43.175C12.976 42.4774 12.9679 41.8397 13.1232 41.262C13.2794 40.6777 13.5376 40.1583 13.8979 39.7037C14.2591 39.2426 14.6582 38.8474 15.0951 38.5181C15.3739 38.308 15.7196 38.1007 16.1323 37.896C16.546 37.6847 16.999 37.553 17.4913 37.5009C17.9873 37.446 18.5031 37.5387 19.0385 37.779C19.5739 38.0193 20.1013 38.4841 20.6208 39.1734L24.9297 44.8916L23.5962 45.8964L22.7106 44.7211L22.6428 44.7722C22.6943 45.0287 22.6955 45.3438 22.6464 45.7175C22.5972 46.0911 22.4543 46.4853 22.2175 46.9C21.9807 47.3146 21.6099 47.7121 21.1052 48.0925ZM20.4059 46.7413C20.9333 46.3439 21.2997 45.9054 21.5052 45.4257C21.7145 44.9432 21.7879 44.4685 21.7256 44.0017C21.6669 43.5321 21.5014 43.1165 21.2289 42.7548L20.3092 41.5344C20.3038 41.6447 20.2263 41.8006 20.0768 42.0018C19.9282 42.1965 19.7452 42.4082 19.5278 42.637C19.3113 42.8592 19.0977 43.0733 18.8868 43.2795C18.6769 43.479 18.5075 43.6421 18.3785 43.7688C18.0661 44.0751 17.7975 44.3927 17.5727 44.7215C17.349 45.0437 17.22 45.3741 17.1859 45.7129C17.1527 46.045 17.2638 46.3806 17.5193 46.7196C17.8684 47.1829 18.3038 47.4041 18.8254 47.3831C19.3479 47.3555 19.8748 47.1416 20.4059 46.7413ZM19.977 30.4807L28.6971 42.0527L27.3636 43.0575L18.6436 31.4856L19.977 30.4807ZM23.7529 27.6354L32.4729 39.2074L31.1395 40.2122L22.4194 28.6403L23.7529 27.6354ZM34.9153 37.3669L28.3753 28.688L29.7087 27.6831L36.2488 36.3621L34.9153 37.3669ZM27.9633 26.7305C27.7034 26.9264 27.4125 27.0068 27.0908 26.9717C26.7728 26.9337 26.5201 26.7904 26.3328 26.5418C26.1454 26.2932 26.0773 26.0108 26.1285 25.6947C26.1834 25.3757 26.3409 25.1183 26.6008 24.9224C26.8607 24.7266 27.1497 24.6476 27.4676 24.6856C27.7894 24.7207 28.044 24.8626 28.2313 25.1112C28.4186 25.3598 28.4848 25.6436 28.4299 25.9626C28.3787 26.2787 28.2232 26.5347 27.9633 26.7305ZM36.0904 28.2958L40.0246 33.5167L38.6911 34.5216L32.1511 25.8427L33.4394 24.8719L34.4613 26.228L34.5743 26.1428C34.4456 25.5488 34.4876 24.9619 34.7005 24.3823C34.9104 23.7988 35.3431 23.2601 35.9986 22.7662C36.5862 22.3234 37.1912 22.0565 37.8136 21.9654C38.4332 21.8706 39.0485 21.974 39.6595 22.2754C40.2677 22.573 40.85 23.091 41.4063 23.8293L45.562 29.3441L44.2285 30.3489L40.141 24.9246C39.6272 24.2428 39.0499 23.8451 38.4091 23.7314C37.7655 23.614 37.1348 23.7881 36.517 24.2536C36.0914 24.5744 35.7805 24.9534 35.5843 25.3906C35.3919 25.8249 35.333 26.2915 35.4078 26.7904C35.4825 27.2893 35.71 27.7911 36.0904 28.2958ZM54.0907 28.3034C53.4465 28.7888 52.8303 29.1232 52.2421 29.3066C51.6567 29.4938 51.1088 29.57 50.5984 29.5353C50.0946 29.5016 49.6387 29.4021 49.2308 29.237L49.7311 27.6907C49.9708 27.7581 50.2596 27.8239 50.5975 27.8883C50.9382 27.9564 51.3254 27.9451 51.7591 27.8545C52.1995 27.7648 52.6814 27.5227 53.205 27.1282C53.9057 26.6002 54.3561 25.995 54.5565 25.3125C54.7568 24.63 54.5845 23.9271 54.0395 23.2039L52.711 21.441L52.598 21.5261C52.6193 21.7581 52.6275 22.059 52.6227 22.4288C52.6188 22.792 52.5174 23.1903 52.3183 23.6238C52.1203 24.0506 51.7387 24.4769 51.1737 24.9027C50.473 25.4307 49.7191 25.739 48.9118 25.8276C48.1083 25.9134 47.3061 25.7619 46.5052 25.3732C45.7082 24.9816 44.969 24.3338 44.2878 23.4298C43.6179 22.5408 43.1909 21.6489 43.0068 20.7541C42.8198 19.8555 42.8689 19.0154 43.1539 18.2336C43.436 17.4481 43.9425 16.78 44.6733 16.2294C45.2383 15.8036 45.7575 15.56 46.231 15.4985C46.7053 15.4305 47.1204 15.4484 47.4763 15.5523C47.8331 15.6496 48.1172 15.7367 48.3287 15.8135L48.4643 15.7114L47.4254 14.3327L48.7137 13.3619L55.4411 22.2894C56.0031 23.0353 56.2906 23.7695 56.3036 24.492C56.3231 25.2155 56.1308 25.9008 55.7267 26.5479C55.3291 27.196 54.7838 27.7811 54.0907 28.3034ZM50.4518 23.5686C50.9867 23.1655 51.3465 22.7025 51.5312 22.1794C51.7158 21.6564 51.731 21.0927 51.5768 20.4884C51.4227 19.8841 51.1043 19.2617 50.6217 18.6214C50.1505 17.9961 49.6405 17.5152 49.0917 17.1787C48.5428 16.8422 47.9816 16.6775 47.4081 16.6844C46.8346 16.6914 46.2766 16.8993 45.7341 17.308C45.1691 17.7338 44.8061 18.2318 44.6452 18.8019C44.488 19.3692 44.4969 19.9649 44.6719 20.589C44.8506 21.2102 45.1614 21.8147 45.6042 22.4023C46.0584 23.005 46.5542 23.4671 47.0917 23.7885C47.6301 24.1033 48.1851 24.252 48.7568 24.2347C49.3293 24.2107 49.8943 23.9887 50.4518 23.5686ZM58.7347 19.5595C58.4559 19.7695 58.1415 19.85 57.7914 19.8008C57.4413 19.7516 57.1612 19.5876 56.9512 19.3088C56.7411 19.0301 56.6607 18.7157 56.7099 18.3656C56.7591 18.0155 56.9231 17.7354 57.2018 17.5254C57.4806 17.3153 57.795 17.2349 58.1451 17.2841C58.4952 17.3333 58.7752 17.4973 58.9853 17.776C59.1244 17.9606 59.205 18.1656 59.2273 18.391C59.2532 18.6135 59.2245 18.8301 59.141 19.0407C59.0584 19.2446 58.923 19.4175 58.7347 19.5595ZM63.1165 16.2575C62.8377 16.4676 62.5233 16.548 62.1732 16.4988C61.8231 16.4496 61.5431 16.2856 61.333 16.0069C61.123 15.7281 61.0425 15.4137 61.0917 15.0636C61.1409 14.7135 61.3049 14.4335 61.5837 14.2234C61.8624 14.0133 62.1768 13.9329 62.5269 13.9821C62.877 14.0313 63.1571 14.1953 63.3671 14.4741C63.5062 14.6586 63.5869 14.8636 63.6091 15.089C63.6351 15.3116 63.6063 15.5282 63.5228 15.7387C63.4403 15.9427 63.3048 16.1156 63.1165 16.2575ZM67.4983 12.9556C67.2196 13.1656 66.9052 13.246 66.5551 13.1968C66.205 13.1476 65.9249 12.9837 65.7149 12.7049C65.5048 12.4262 65.4244 12.1117 65.4736 11.7617C65.5228 11.4116 65.6868 11.1315 65.9655 10.9214C66.2443 10.7114 66.5587 10.631 66.9088 10.6802C67.2589 10.7294 67.5389 10.8933 67.749 11.1721C67.8881 11.3567 67.9687 11.5617 67.9909 11.7871C68.0169 12.0096 67.9882 12.2262 67.9047 12.4368C67.8221 12.6407 67.6867 12.8136 67.4983 12.9556Z" fill="white"/>
</svg>
