<svg width="200" height="200" viewBox="0 0 200 200" fill="none" xmlns="http://www.w3.org/2000/svg">
<path d="M200 99.9992C200 155.226 155.228 199.998 99.9998 199.998C44.7717 199.998 0 155.226 0 99.9992C0 44.7721 44.7717 0 99.9998 0C155.228 0 200 44.7721 200 99.9992Z" fill="#3A649E"/>
<path d="M192.788 99.9996C192.788 151.245 151.243 192.787 99.9998 192.787C48.7542 192.787 7.2124 151.245 7.2124 99.9996C7.2124 48.7547 48.7542 7.21289 99.9998 7.21289C151.243 7.21289 192.788 48.7547 192.788 99.9996Z" fill="white"/>
<path d="M7.2124 99.8768C7.2124 99.8324 7.2124 99.7968 7.2124 99.7578C7.2124 58.2786 34.4287 23.1629 71.9758 11.2822C71.3879 11.5451 70.8059 11.8151 70.2257 12.094C33.6223 24.4853 7.26504 59.1026 7.2124 99.8768Z" fill="#CC4341"/>
<path d="M99.9998 192.545C48.7959 192.545 7.27851 151.065 7.2124 99.8768C7.2648 59.1026 33.6223 24.4851 70.2257 12.0938C38.2289 27.3206 16.111 59.9486 16.111 97.7432C16.111 148.258 55.6226 189.54 105.425 192.382C103.629 192.485 101.821 192.545 99.9998 192.545Z" fill="#A7A9A8"/>
<path d="M192.787 99.9993C192.787 99.9993 192.752 99.4887 192.716 98.4955C192.654 97.5023 192.69 96.0171 192.513 94.0871C192.275 90.2146 191.629 84.503 189.859 77.3501C188.91 73.7941 187.76 69.8558 186.046 65.7138C184.37 61.5624 182.305 57.1354 179.589 52.6645C174.222 43.7163 166.53 34.3483 156.05 26.362C150.83 22.361 144.9 18.7674 138.363 15.8004C131.83 12.8365 124.693 10.4554 117.08 9.08622C109.481 7.68574 101.438 7.13741 93.2243 7.77659C89.1121 8.02082 84.9779 8.6914 80.8278 9.51229C76.6861 10.3986 72.557 11.5864 68.4618 13.0401C52.1439 18.9523 36.6401 29.9871 25.47 45.2923C22.6414 49.0833 20.1656 53.1752 17.9308 57.43C16.7925 59.548 15.8222 61.7598 14.8272 63.9686C13.9349 66.2182 13.0121 68.471 12.2765 70.7988C9.15309 80.054 7.60126 89.9641 7.54518 99.9868C7.59758 110.013 9.14963 119.923 12.2705 129.181C13.0059 131.509 13.9289 133.762 14.8209 136.018C15.8159 138.226 16.7854 140.438 17.9249 142.556C20.1594 146.811 22.6342 150.906 25.4638 154.697C36.6351 170.008 52.1414 181.046 68.4618 186.959C72.557 188.412 76.6874 189.6 80.8303 190.486C84.9804 191.307 89.1146 191.978 93.228 192.222C101.443 192.862 109.487 192.313 117.085 190.909C124.698 189.54 131.836 187.159 138.369 184.195C144.906 181.228 150.836 177.634 156.056 173.63C166.536 165.644 174.228 156.279 179.592 147.328C182.308 142.857 184.373 138.43 186.049 134.282C187.76 130.14 188.91 126.201 189.859 122.645C191.629 115.493 192.275 109.781 192.513 105.912C192.689 103.978 192.654 102.496 192.716 101.503C192.752 100.51 192.787 99.9993 192.787 99.9993C192.787 99.9993 192.841 102.042 192.646 105.921C192.452 109.797 191.844 115.524 190.108 122.708C189.178 126.277 188.04 130.234 186.342 134.398C184.675 138.571 182.62 143.02 179.907 147.516C174.552 156.524 166.851 165.954 156.337 174.003C151.101 178.039 145.147 181.664 138.579 184.662C132.017 187.654 124.84 190.06 117.185 191.451C109.542 192.871 101.451 193.438 93.1848 192.802C89.0457 192.56 84.8834 191.893 80.7051 191.069C76.5355 190.183 72.3766 188.992 68.2522 187.532C51.8182 181.598 36.1956 170.494 24.9384 155.082C22.0891 151.266 19.5939 147.143 17.3418 142.857C16.1939 140.723 15.216 138.499 14.2138 136.271C13.3152 134.003 12.3865 131.735 11.6437 129.388C8.49805 120.064 6.93399 110.082 6.88135 99.9837C6.9373 89.892 8.50181 79.913 11.6496 70.592C12.3912 68.2485 13.3214 65.9802 14.2209 63.7118C15.222 61.4874 16.2011 59.2596 17.3481 57.126C19.6011 52.8462 22.0966 48.7231 24.9459 44.907C36.2003 29.5015 51.8207 18.4009 68.2522 12.4668C72.3754 11.0068 76.5343 9.81613 80.7037 8.92943C84.8808 8.10525 89.0435 7.43815 93.1814 7.19685C101.446 6.56095 109.537 7.12583 117.179 8.54727C124.835 9.93523 132.011 12.3415 138.573 15.3336C145.14 18.3319 151.095 21.9538 156.33 25.9892C166.848 34.0412 174.549 43.472 179.907 52.4765C182.617 56.9757 184.675 61.4245 186.339 65.5947C188.037 69.7586 189.175 73.7157 190.108 77.2875C191.844 84.4685 192.452 90.199 192.646 94.0778C192.837 97.9566 192.787 99.9993 192.787 99.9993Z" fill="#17282F"/>
<path d="M100.334 22.1289V37.3339H98.7702V23.5201H95.1865V22.1289H100.334Z" fill="#17282F"/>
<path d="M114.345 35.9432V37.3343H103.68V36.2283L110 30.0373C111.717 28.3423 112.043 27.321 112.043 26.2776C112.043 24.5199 110.804 23.4327 108.48 23.4327C106.698 23.4327 105.331 23.9781 104.331 25.1278L103.223 24.1721C104.396 22.781 106.286 22.001 108.611 22.001C111.695 22.001 113.65 23.5645 113.65 26.1054C113.65 27.5591 113.193 28.8624 111.151 30.8613L105.981 35.9432H114.345Z" fill="#17282F"/>
<path d="M141.187 33.4521V48.657H139.623V34.8432H136.038V33.4521H141.187Z" fill="#17282F"/>
<path d="M64.1602 33.4521V48.657H62.5961V34.8432H59.0112V33.4521H64.1602Z" fill="#17282F"/>
<path d="M72.0014 33.4521V48.657H70.4374V34.8432H66.8525V33.4521H72.0014Z" fill="#17282F"/>
<path d="M170.098 68.8653V70.2564H159.433V69.1504L165.752 62.9563C167.469 61.2645 167.795 60.243 167.795 59.1997C167.795 57.4389 166.557 56.3549 164.232 56.3549C162.45 56.3549 161.081 56.8966 160.081 58.0498L158.975 57.0912C160.147 55.7032 162.036 54.9199 164.361 54.9199C167.447 54.9199 169.402 56.4833 169.402 59.0274C169.402 60.4812 168.945 61.7845 166.905 63.7834L161.732 68.8653H170.098Z" fill="#17282F"/>
<path d="M35.6406 56.8252V72.0302H34.0765V58.2133H30.4932V56.8252H35.6406Z" fill="#17282F"/>
<path d="M49.8034 64.4299C49.8034 60.3662 47.9784 58.1292 45.3287 58.1292C42.6778 58.1292 40.853 60.3662 40.853 64.4299C40.853 68.4904 42.6778 70.7274 45.3287 70.7274C47.9784 70.7274 49.8034 68.4904 49.8034 64.4299ZM39.2671 64.4299C39.2671 59.583 41.809 56.6943 45.3287 56.6943C48.8475 56.6943 51.4101 59.583 51.4101 64.4299C51.4101 69.2705 48.8475 72.1592 45.3287 72.1592C41.809 72.1592 39.2671 69.2705 39.2671 64.4299Z" fill="#17282F"/>
<path d="M176.514 103.483C176.514 106.024 174.669 107.979 170.997 107.979C168.804 107.979 166.695 107.221 165.523 106.024L166.282 104.787C167.259 105.808 169.02 106.544 170.997 106.544C173.516 106.544 174.907 105.372 174.907 103.483C174.907 101.66 173.626 100.463 170.803 100.463H169.716V99.313L173.93 94.0337H166.154V92.6426H175.929V93.7516L171.627 99.1594C174.885 99.3344 176.514 101.052 176.514 103.483Z" fill="#17282F"/>
<path d="M32.373 97.0954C32.373 95.4255 30.9825 93.84 28.3539 93.84C26.1607 93.84 24.6393 95.1214 24.6393 97.1423C24.6393 99.1381 26.1166 100.419 28.4626 100.419C30.7868 100.419 32.373 98.9878 32.373 97.0954ZM34.5233 100.119C34.5233 105.288 31.6997 107.98 27.5715 107.98C26.2033 107.98 24.9219 107.742 23.9663 107.155L24.5963 105.896C25.3783 106.416 26.4201 106.614 27.5508 106.614C30.8308 106.614 32.9369 104.505 32.9369 100.379C32.9369 100.031 32.9148 99.5954 32.8721 99.138C32.1123 100.811 30.3302 101.745 28.2242 101.745C25.2048 101.745 23.0972 99.9651 23.0972 97.186C23.0972 94.338 25.3345 92.5146 28.289 92.5146C32.3301 92.5146 34.5233 95.3157 34.5233 100.119Z" fill="#17282F"/>
<path d="M41.0377 129.87C43.406 129.87 44.8181 128.808 44.8181 127.157C44.8181 125.44 43.3189 124.397 41.0377 124.397C38.7355 124.397 37.2805 125.44 37.2805 127.135C37.2805 128.808 38.6694 129.87 41.0377 129.87ZM45.3395 134.15C45.3395 132.283 43.7315 131.108 41.0377 131.108C38.3438 131.108 36.7591 132.283 36.7591 134.15C36.7591 136.042 38.3438 137.214 41.0377 137.214C43.7315 137.214 45.3395 136.042 45.3395 134.15ZM46.9464 134.168C46.9464 136.862 44.6664 138.535 41.0377 138.535C37.3882 138.535 35.1729 136.862 35.1729 134.168C35.1729 132.344 36.2155 131.063 38.1054 130.43C36.5633 129.823 35.7165 128.672 35.7165 127.087C35.7165 124.612 37.8237 123.067 41.0377 123.067C44.2529 123.067 46.4031 124.612 46.4031 127.087C46.4031 128.672 45.5353 129.822 43.97 130.43C45.8818 131.063 46.9464 132.366 46.9464 134.168Z" fill="#17282F"/>
<path d="M71.2762 150.329V151.438L64.9106 165.534H63.217L69.4734 151.72H61.6529V154.565H60.1108V150.329H71.2762Z" fill="#17282F"/>
<path d="M141.341 161.06C141.341 163.645 139.539 165.666 135.824 165.666C133.63 165.666 131.545 164.904 130.373 163.71L131.133 162.47C132.11 163.494 133.848 164.231 135.803 164.231C138.387 164.231 139.757 162.971 139.757 161.126C139.757 159.171 138.54 157.955 134.674 157.955H131.435L132.219 150.329H140.537V151.72H133.587L133.066 156.564H135.02C139.605 156.564 141.341 158.365 141.341 161.06Z" fill="#17282F"/>
<path d="M104.961 170.936C104.961 168.937 103.484 167.656 101.138 167.656C98.8124 167.656 97.2277 169.088 97.2277 170.977C97.2277 172.65 98.618 174.238 101.247 174.238C103.441 174.238 104.961 172.957 104.961 170.936ZM106.503 170.891C106.503 173.736 104.266 175.56 101.312 175.56C97.2717 175.56 95.0771 172.759 95.0771 167.959C95.0771 162.789 97.9008 160.095 102.029 160.095C103.397 160.095 104.679 160.333 105.634 160.922L105.006 162.181C104.222 161.658 103.181 161.463 102.051 161.463C98.7712 161.463 96.6638 163.569 96.6638 167.695C96.6638 168.043 96.6816 168.478 96.726 168.936C97.4862 167.263 99.2678 166.329 101.375 166.329C104.394 166.329 106.503 168.109 106.503 170.891Z" fill="#17282F"/>
<path d="M170.095 134.413H167.056V138.408H165.492V134.413H156.911V133.282L164.969 123.203H166.708L158.931 133.022H165.536V129.501H167.056V133.022H170.095V134.413Z" fill="#17282F"/>
<path d="M99.2828 54.168C98.9711 54.6094 95.8047 111.068 95.8047 111.068L101.982 111.429L101.302 54.3844L99.2828 54.168Z" fill="#17282F"/>
<path d="M85.5278 93.1943L83.3994 99.0031L152.255 123.683L153.166 121.737L85.5278 93.1943Z" fill="#17282F"/>
<path d="M115.972 88.4593C115.664 88.0552 115.087 87.9736 114.678 88.2773L103.711 96.4485L103.97 96.7869L62.4102 128.403L62.7263 128.914L104.563 97.5983L104.832 97.9527L115.788 89.7659C116.202 89.4586 116.283 88.8698 115.972 88.4593Z" fill="#3A649E"/>
<path d="M99.973 103.142C99.163 103.737 98.0223 103.565 97.4252 102.754C96.8292 101.942 97.0024 100.802 97.8133 100.204C98.625 99.6085 99.7652 99.7808 100.361 100.592C100.958 101.403 100.785 102.544 99.973 103.142Z" fill="#33535F"/>
</svg>
