<svg width="150" height="150" viewBox="0 0 150 150" fill="none" xmlns="http://www.w3.org/2000/svg">
<g clip-path="url(#clip0_499_23171)">
<mask id="mask0_499_23171" style="mask-type:luminance" maskUnits="userSpaceOnUse" x="0" y="0" width="150" height="150">
<path d="M0 75C0 33.5776 33.5787 1.52588e-05 75 1.52588e-05C116.418 1.52588e-05 150 33.5776 150 75C150 116.421 116.418 150 75 150C33.5787 150 0 116.421 0 75Z" fill="white"/>
</mask>
<g mask="url(#mask0_499_23171)">
<path d="M0 75C0 33.5776 33.5787 1.52588e-05 75 1.52588e-05C116.418 1.52588e-05 150 33.5776 150 75C150 116.421 116.418 150 75 150C33.5787 150 0 116.421 0 75Z" fill="url(#paint0_radial_499_23171)"/>
</g>
<mask id="mask1_499_23171" style="mask-type:luminance" maskUnits="userSpaceOnUse" x="1" y="1" width="148" height="148">
<path d="M76.6071 1.27812C117.319 2.16527 149.61 35.8898 148.722 76.606C147.835 117.321 114.105 149.609 73.3938 148.721C32.6787 147.835 0.391221 114.108 1.27835 73.3935C2.16548 32.6764 35.892 0.390045 76.6071 1.27812Z" fill="white"/>
</mask>
<g mask="url(#mask1_499_23171)">
<path d="M76.6071 1.27812C117.319 2.16527 149.61 35.8898 148.722 76.606C147.835 117.321 114.105 149.609 73.3938 148.721C32.6787 147.835 0.391221 114.108 1.27835 73.3935C2.16548 32.6764 35.892 0.390045 76.6071 1.27812Z" fill="url(#paint1_radial_499_23171)"/>
</g>
<mask id="mask2_499_23171" style="mask-type:luminance" maskUnits="userSpaceOnUse" x="2" y="2" width="146" height="146">
<path d="M78.2132 2.55579C118.219 4.33008 149.218 38.2025 147.444 78.2133C145.669 118.221 111.793 149.218 71.7866 147.444C31.7767 145.669 0.781424 111.795 2.55568 71.7856C4.32994 31.7757 38.2043 0.781479 78.2132 2.55579Z" fill="white"/>
</mask>
<g mask="url(#mask2_499_23171)">
<path d="M78.2132 2.55579C118.219 4.33008 149.218 38.2025 147.444 78.2133C145.669 118.221 111.793 149.218 71.7866 147.444C31.7767 145.669 0.781424 111.795 2.55568 71.7856C4.32994 31.7757 38.2043 0.781479 78.2132 2.55579Z" fill="url(#paint2_radial_499_23171)"/>
</g>
<mask id="mask3_499_23171" style="mask-type:luminance" maskUnits="userSpaceOnUse" x="3" y="3" width="144" height="144">
<path d="M79.8195 3.8318C119.12 6.49417 148.829 40.5135 146.166 79.8191C143.504 119.122 109.48 148.828 70.1795 146.165C30.8768 143.503 1.17177 109.482 3.83407 70.1779C6.49545 30.8742 40.5158 1.17128 79.8195 3.8318Z" fill="white"/>
</mask>
<g mask="url(#mask3_499_23171)">
<path d="M79.8195 3.8318C119.12 6.49417 148.829 40.5135 146.166 79.8191C143.504 119.122 109.48 148.828 70.1795 146.165C30.8768 143.503 1.17177 109.482 3.83407 70.1779C6.49545 30.8742 40.5158 1.17128 79.8195 3.8318Z" fill="url(#paint3_radial_499_23171)"/>
</g>
<mask id="mask4_499_23171" style="mask-type:luminance" maskUnits="userSpaceOnUse" x="4" y="4" width="142" height="142">
<path d="M81.4257 5.11124C120.021 8.66168 148.438 42.828 144.888 81.4263C141.338 120.024 107.168 148.438 68.5734 144.888C29.976 141.338 1.56306 107.17 5.11157 68.5728C8.66192 29.9744 42.8283 1.56264 81.4257 5.11124Z" fill="white"/>
</mask>
<g mask="url(#mask4_499_23171)">
<path d="M81.4257 5.11124C120.021 8.66168 148.438 42.828 144.888 81.4263C141.338 120.024 107.168 148.438 68.5734 144.888C29.976 141.338 1.56306 107.17 5.11157 68.5728C8.66192 29.9744 42.8283 1.56264 81.4257 5.11124Z" fill="url(#paint4_radial_499_23171)"/>
</g>
<mask id="mask5_499_23171" style="mask-type:luminance" maskUnits="userSpaceOnUse" x="5" y="5" width="140" height="140">
<path d="M83.0326 6.38681C120.923 10.8244 148.047 45.1376 143.61 83.0307C139.173 120.924 104.857 148.046 66.9669 143.609C29.0748 139.172 1.954 104.856 6.39056 66.9637C10.8262 29.0716 45.1404 1.95107 83.0326 6.38681Z" fill="white"/>
</mask>
<g mask="url(#mask5_499_23171)">
<path d="M83.0326 6.38681C120.923 10.8244 148.047 45.1376 143.61 83.0307C139.173 120.924 104.857 148.046 66.9669 143.609C29.0748 139.172 1.954 104.856 6.39056 66.9637C10.8262 29.0716 45.1404 1.95107 83.0326 6.38681Z" fill="url(#paint5_radial_499_23171)"/>
</g>
<mask id="mask6_499_23171" style="mask-type:luminance" maskUnits="userSpaceOnUse" x="6" y="6" width="138" height="138">
<path d="M84.6391 7.66574C121.824 12.9905 147.656 47.4516 142.331 84.6394C137.007 121.825 102.544 147.656 65.3611 142.331C28.1751 137.008 2.34463 102.545 7.66832 65.3581C12.9911 28.1721 47.4532 2.34375 84.6391 7.66574Z" fill="white"/>
</mask>
<g mask="url(#mask6_499_23171)">
<path d="M84.6391 7.66574C121.824 12.9905 147.656 47.4516 142.331 84.6394C137.007 121.825 102.544 147.656 65.3611 142.331C28.1751 137.008 2.34463 102.545 7.66832 65.3581C12.9911 28.1721 47.4532 2.34375 84.6391 7.66574Z" fill="url(#paint6_radial_499_23171)"/>
</g>
<mask id="mask7_499_23171" style="mask-type:luminance" maskUnits="userSpaceOnUse" x="7" y="7" width="136" height="136">
<path d="M86.246 8.94377C122.725 15.1566 147.266 49.7637 141.053 86.2461C134.842 122.727 100.232 147.266 63.7538 141.053C27.2731 134.842 2.73475 100.233 8.94556 63.7523C15.1564 27.2717 49.7645 2.73372 86.246 8.94377Z" fill="white"/>
</mask>
<g mask="url(#mask7_499_23171)">
<path d="M86.246 8.94377C122.725 15.1566 147.266 49.7637 141.053 86.2461C134.842 122.727 100.232 147.266 63.7538 141.053C27.2731 134.842 2.73475 100.233 8.94556 63.7523C15.1564 27.2717 49.7645 2.73372 86.246 8.94377Z" fill="url(#paint7_radial_499_23171)"/>
</g>
<mask id="mask8_499_23171" style="mask-type:luminance" maskUnits="userSpaceOnUse" x="8" y="8" width="134" height="134">
<path d="M87.8522 10.2216C123.626 17.3206 146.876 52.0765 139.776 87.8518C132.677 123.627 97.9201 146.875 62.1475 139.775C26.3731 132.677 3.12593 97.9199 10.2248 62.1446C17.3218 26.3703 52.0778 3.12436 87.8522 10.2216Z" fill="white"/>
</mask>
<g mask="url(#mask8_499_23171)">
<path d="M87.8522 10.2216C123.626 17.3206 146.876 52.0765 139.776 87.8518C132.677 123.627 97.9201 146.875 62.1475 139.775C26.3731 132.677 3.12593 97.9199 10.2248 62.1446C17.3218 26.3703 52.0778 3.12436 87.8522 10.2216Z" fill="url(#paint8_radial_499_23171)"/>
</g>
<mask id="mask9_499_23171" style="mask-type:luminance" maskUnits="userSpaceOnUse" x="9" y="9" width="132" height="132">
<path d="M89.4592 11.5001C124.527 19.4881 146.485 54.39 138.497 89.459C130.511 124.53 95.6076 146.486 60.5412 138.498C25.4721 130.512 3.51615 95.6085 11.5021 60.5385C19.4881 25.4703 54.391 3.5157 89.4592 11.5001Z" fill="white"/>
</mask>
<g mask="url(#mask9_499_23171)">
<path d="M89.4592 11.5001C124.527 19.4881 146.485 54.39 138.497 89.459C130.511 124.53 95.6076 146.486 60.5412 138.498C25.4721 130.512 3.51615 95.6085 11.5021 60.5385C19.4881 25.4703 54.391 3.5157 89.4592 11.5001Z" fill="url(#paint9_radial_499_23171)"/>
</g>
<mask id="mask10_499_23171" style="mask-type:luminance" maskUnits="userSpaceOnUse" x="10" y="10" width="130" height="130">
<path d="M91.0652 12.7767C125.428 21.6519 146.095 56.7016 137.22 91.0654C128.347 125.43 93.2949 146.094 58.9339 137.219C24.571 128.346 3.90712 93.2952 12.7802 58.9314C21.6524 24.5686 56.7023 3.90518 91.0652 12.7767Z" fill="white"/>
</mask>
<g mask="url(#mask10_499_23171)">
<path d="M91.0652 12.7767C125.428 21.6519 146.095 56.7016 137.22 91.0654C128.347 125.43 93.2949 146.094 58.9339 137.219C24.571 128.346 3.90712 93.2952 12.7802 58.9314C21.6524 24.5686 56.7023 3.90518 91.0652 12.7767Z" fill="url(#paint10_radial_499_23171)"/>
</g>
<mask id="mask11_499_23171" style="mask-type:luminance" maskUnits="userSpaceOnUse" x="11" y="11" width="128" height="128">
<path d="M92.6723 14.0554C126.33 23.8178 145.704 59.0135 135.941 92.6711C126.18 126.331 90.9835 145.704 57.3286 135.94C23.671 126.18 4.29835 90.9822 14.0595 57.3237C23.8188 23.668 59.0156 4.29587 92.6723 14.0554Z" fill="white"/>
</mask>
<g mask="url(#mask11_499_23171)">
<path d="M92.6723 14.0554C126.33 23.8178 145.704 59.0135 135.941 92.6711C126.18 126.331 90.9835 145.704 57.3286 135.94C23.671 126.18 4.29835 90.9822 14.0595 57.3237C23.8188 23.668 59.0156 4.29587 92.6723 14.0554Z" fill="url(#paint11_radial_499_23171)"/>
</g>
<mask id="mask12_499_23171" style="mask-type:luminance" maskUnits="userSpaceOnUse" x="12" y="12" width="126" height="126">
<path d="M94.2784 15.334C127.231 25.9835 145.313 61.3271 134.664 94.2794C124.016 127.233 88.6719 145.314 55.7214 134.664C22.7709 124.016 4.68855 88.6718 15.3368 55.7187C25.9833 22.7683 61.3279 4.68729 94.2784 15.334Z" fill="white"/>
</mask>
<g mask="url(#mask12_499_23171)">
<path d="M94.2784 15.334C127.231 25.9835 145.313 61.3271 134.664 94.2794C124.016 127.233 88.6719 145.314 55.7214 134.664C22.7709 124.016 4.68855 88.6718 15.3368 55.7187C25.9833 22.7683 61.3279 4.68729 94.2784 15.334Z" fill="url(#paint12_radial_499_23171)"/>
</g>
<mask id="mask13_499_23171" style="mask-type:luminance" maskUnits="userSpaceOnUse" x="12" y="12" width="126" height="126">
<path d="M95.8853 16.6095C128.131 28.147 144.924 63.6376 133.385 95.8836C121.851 128.131 86.3592 144.922 54.115 133.384C21.8689 121.85 5.07956 86.3573 16.615 54.1095C28.1486 21.8663 63.6402 5.07654 95.8853 16.6095Z" fill="white"/>
</mask>
<g mask="url(#mask13_499_23171)">
<path d="M95.8853 16.6095C128.131 28.147 144.924 63.6376 133.385 95.8836C121.851 128.131 86.3592 144.922 54.115 133.384C21.8689 121.85 5.07956 86.3573 16.615 54.1095C28.1486 21.8663 63.6402 5.07654 95.8853 16.6095Z" fill="url(#paint13_radial_499_23171)"/>
</g>
<mask id="mask14_499_23171" style="mask-type:luminance" maskUnits="userSpaceOnUse" x="13" y="13" width="124" height="124">
<path d="M97.4926 17.8879C129.033 30.3126 144.533 65.951 132.107 97.4908C119.685 129.033 84.047 144.532 52.508 132.107C20.969 119.684 5.47093 84.0458 17.8926 52.5033C30.3151 20.9663 65.9518 5.4687 97.4926 17.8879Z" fill="white"/>
</mask>
<g mask="url(#mask14_499_23171)">
<path d="M97.4926 17.8879C129.033 30.3126 144.533 65.951 132.107 97.4908C119.685 129.033 84.047 144.532 52.508 132.107C20.969 119.684 5.47093 84.0458 17.8926 52.5033C30.3151 20.9663 65.9518 5.4687 97.4926 17.8879Z" fill="url(#paint14_radial_499_23171)"/>
</g>
<mask id="mask15_499_23171" style="mask-type:luminance" maskUnits="userSpaceOnUse" x="14" y="14" width="122" height="122">
<path d="M99.0988 19.1664C129.934 32.4782 144.142 68.2646 130.83 99.099C117.52 129.935 81.7355 144.143 50.9019 130.83C20.0682 117.52 5.86127 81.7335 19.171 50.8972C32.4797 20.0664 68.2651 5.86005 99.0988 19.1664Z" fill="white"/>
</mask>
<g mask="url(#mask15_499_23171)">
<path d="M99.0988 19.1664C129.934 32.4782 144.142 68.2646 130.83 99.099C117.52 129.935 81.7355 144.143 50.9019 130.83C20.0682 117.52 5.86127 81.7335 19.171 50.8972C32.4797 20.0664 68.2651 5.86005 99.0988 19.1664Z" fill="url(#paint15_radial_499_23171)"/>
</g>
<mask id="mask16_499_23171" style="mask-type:luminance" maskUnits="userSpaceOnUse" x="14" y="14" width="122" height="122">
<path d="M100.705 20.441C130.835 34.64 143.752 70.5733 129.551 100.701C115.354 130.832 79.423 143.748 49.2956 129.547C19.1672 115.35 6.25238 79.4172 20.4492 49.2872C34.6451 19.1617 70.5775 6.24664 100.705 20.441Z" fill="white"/>
</mask>
<g mask="url(#mask16_499_23171)">
<path d="M100.705 20.441C130.835 34.64 143.752 70.5733 129.551 100.701C115.354 130.832 79.423 143.748 49.2956 129.547C19.1672 115.35 6.25238 79.4172 20.4492 49.2872C34.6451 19.1617 70.5775 6.24664 100.705 20.441Z" fill="url(#paint16_radial_499_23171)"/>
</g>
<mask id="mask17_499_23171" style="mask-type:luminance" maskUnits="userSpaceOnUse" x="15" y="15" width="120" height="120">
<path d="M102.312 21.7206C131.736 36.8076 143.36 72.8869 128.274 102.31C113.189 131.735 77.1103 143.36 47.6881 128.271C18.2669 113.187 6.6424 77.1068 21.7263 47.6821C36.8094 18.2629 72.8887 6.63902 102.312 21.7206Z" fill="white"/>
</mask>
<g mask="url(#mask17_499_23171)">
<path d="M102.312 21.7206C131.736 36.8076 143.36 72.8869 128.274 102.31C113.189 131.735 77.1103 143.36 47.6881 128.271C18.2669 113.187 6.6424 77.1068 21.7263 47.6821C36.8094 18.2629 72.8887 6.63902 102.312 21.7206Z" fill="url(#paint17_radial_499_23171)"/>
</g>
<mask id="mask18_499_23171" style="mask-type:luminance" maskUnits="userSpaceOnUse" x="15" y="15" width="120" height="120">
<path d="M103.918 22.9981C132.638 38.9723 142.971 75.1994 126.995 103.916C111.023 132.637 74.7979 142.969 46.082 126.993C17.3651 111.022 7.0327 74.7944 23.0047 46.0759C38.9748 17.3611 75.202 7.02937 103.918 22.9981Z" fill="white"/>
</mask>
<g mask="url(#mask18_499_23171)">
<path d="M103.918 22.9981C132.638 38.9723 142.971 75.1994 126.995 103.916C111.023 132.637 74.7979 142.969 46.082 126.993C17.3651 111.022 7.0327 74.7944 23.0047 46.0759C38.9748 17.3611 75.202 7.02937 103.918 22.9981Z" fill="url(#paint18_radial_499_23171)"/>
</g>
<mask id="mask19_499_23171" style="mask-type:luminance" maskUnits="userSpaceOnUse" x="15" y="15" width="120" height="120">
<path d="M105.524 24.2767C133.538 41.138 142.58 77.5121 125.717 105.523C108.858 133.538 72.4863 142.579 44.4757 125.716C16.465 108.857 7.42386 72.4822 24.2821 44.4681C41.1402 16.4613 77.5134 7.42083 105.524 24.2767Z" fill="white"/>
</mask>
<g mask="url(#mask19_499_23171)">
<path d="M105.524 24.2767C133.538 41.138 142.58 77.5121 125.717 105.523C108.858 133.538 72.4863 142.579 44.4757 125.716C16.465 108.857 7.42386 72.4822 24.2821 44.4681C41.1402 16.4613 77.5134 7.42083 105.524 24.2767Z" fill="url(#paint19_radial_499_23171)"/>
</g>
<mask id="mask20_499_23171" style="mask-type:luminance" maskUnits="userSpaceOnUse" x="16" y="16" width="118" height="118">
<path d="M107.131 25.5531C134.44 43.3026 142.189 79.8236 124.439 107.129C106.693 134.438 70.174 142.187 42.8686 124.436C15.5632 106.691 7.81509 70.1687 25.5613 42.8608C43.3057 15.5585 79.8268 7.81013 107.131 25.5531Z" fill="white"/>
</mask>
<g mask="url(#mask20_499_23171)">
<path d="M107.131 25.5531C134.44 43.3026 142.189 79.8236 124.439 107.129C106.693 134.438 70.174 142.187 42.8686 124.436C15.5632 106.691 7.81509 70.1687 25.5613 42.8608C43.3057 15.5585 79.8268 7.81013 107.131 25.5531Z" fill="url(#paint20_radial_499_23171)"/>
</g>
<mask id="mask21_499_23171" style="mask-type:luminance" maskUnits="userSpaceOnUse" x="16" y="16" width="118" height="118">
<path d="M108.737 26.8309C135.34 45.4684 141.798 82.1364 123.16 108.735C104.527 135.339 67.8614 141.797 41.2622 123.158C14.6631 104.525 8.2052 67.8566 26.8395 41.254C45.471 14.6588 82.1381 8.20169 108.737 26.8309Z" fill="white"/>
</mask>
<g mask="url(#mask21_499_23171)">
<path d="M108.737 26.8309C135.34 45.4684 141.798 82.1364 123.16 108.735C104.527 135.339 67.8614 141.797 41.2622 123.158C14.6631 104.525 8.2052 67.8566 26.8395 41.254C45.471 14.6588 82.1381 8.20169 108.737 26.8309Z" fill="url(#paint21_radial_499_23171)"/>
</g>
<mask id="mask22_499_23171" style="mask-type:luminance" maskUnits="userSpaceOnUse" x="16" y="16" width="118" height="118">
<path d="M110.344 28.109C136.241 47.6336 141.408 84.4494 121.883 110.342C102.362 136.241 65.5492 141.407 39.6563 121.881C13.7624 102.361 8.59579 65.5447 28.1172 39.6475C47.6368 13.7575 84.4508 8.59167 110.344 28.109Z" fill="white"/>
</mask>
<g mask="url(#mask22_499_23171)">
<path d="M110.344 28.109C136.241 47.6336 141.408 84.4494 121.883 110.342C102.362 136.241 65.5492 141.407 39.6563 121.881C13.7624 102.361 8.59579 65.5447 28.1172 39.6475C47.6368 13.7575 84.4508 8.59167 110.344 28.109Z" fill="url(#paint22_radial_499_23171)"/>
</g>
<mask id="mask23_499_23171" style="mask-type:luminance" maskUnits="userSpaceOnUse" x="16" y="16" width="118" height="118">
<path d="M111.951 29.3866C137.144 49.7984 141.018 86.7612 120.605 111.949C100.196 137.141 63.2382 141.015 38.0496 120.602C12.862 100.194 8.98746 63.2315 29.396 38.0405C49.8018 12.8568 86.7637 8.98219 111.951 29.3866Z" fill="white"/>
</mask>
<g mask="url(#mask23_499_23171)">
<path d="M111.951 29.3866C137.144 49.7984 141.018 86.7612 120.605 111.949C100.196 137.141 63.2382 141.015 38.0496 120.602C12.862 100.194 8.98746 63.2315 29.396 38.0405C49.8018 12.8568 86.7637 8.98219 111.951 29.3866Z" fill="url(#paint23_radial_499_23171)"/>
</g>
<mask id="mask24_499_23171" style="mask-type:luminance" maskUnits="userSpaceOnUse" x="16" y="16" width="118" height="118">
<path d="M113.557 30.6657C138.044 51.9646 140.627 89.0752 119.327 113.556C98.0315 138.043 60.9255 140.626 36.4431 119.326C11.9608 98.0303 9.37836 60.9197 30.6731 36.4349C51.967 11.9574 89.0766 9.37407 113.557 30.6657Z" fill="white"/>
</mask>
<g mask="url(#mask24_499_23171)">
<path d="M113.557 30.6657C138.044 51.9646 140.627 89.0752 119.327 113.556C98.0315 138.043 60.9255 140.626 36.4431 119.326C11.9608 98.0303 9.37836 60.9197 30.6731 36.4349C51.967 11.9574 89.0766 9.37407 113.557 30.6657Z" fill="url(#paint24_radial_499_23171)"/>
</g>
<mask id="mask25_499_23171" style="mask-type:luminance" maskUnits="userSpaceOnUse" x="16" y="16" width="118" height="118">
<path d="M115.164 31.9418C138.945 54.1279 140.237 91.3863 118.049 115.161C95.8668 138.943 58.6129 140.235 34.8368 118.046C11.0597 95.8634 9.76853 58.6059 31.9513 34.8264C54.1323 11.0552 91.3889 9.76397 115.164 31.9418Z" fill="white"/>
</mask>
<g mask="url(#mask25_499_23171)">
<path d="M115.164 31.9418C138.945 54.1279 140.237 91.3863 118.049 115.161C95.8668 138.943 58.6129 140.235 34.8368 118.046C11.0597 95.8634 9.76853 58.6059 31.9513 34.8264C54.1323 11.0552 91.3889 9.76397 115.164 31.9418Z" fill="url(#paint25_radial_499_23171)"/>
</g>
<mask id="mask26_499_23171" style="mask-type:luminance" maskUnits="userSpaceOnUse" x="15" y="15" width="120" height="120">
<path d="M116.77 33.219C139.846 56.2931 139.846 93.6976 116.77 116.767C93.7002 139.843 56.3012 139.843 33.2294 116.767C10.1586 93.6976 10.1586 56.2931 33.2294 33.219C56.2975 10.1531 93.7002 10.1531 116.77 33.219Z" fill="white"/>
</mask>
<g mask="url(#mask26_499_23171)">
<path d="M116.77 33.219C139.846 56.2931 139.846 93.6976 116.77 116.767C93.7002 139.843 56.3012 139.843 33.2294 116.767C10.1586 93.6976 10.1586 56.2931 33.2294 33.219C56.2975 10.1531 93.7002 10.1531 116.77 33.219Z" fill="url(#paint26_radial_499_23171)"/>
</g>
<path d="M16.3907 74.9992H18.2274C18.2283 59.3162 24.5787 45.1337 34.856 34.8543C45.136 24.5777 59.3172 18.2271 75.0008 18.2262C90.6835 18.2271 104.865 24.5777 115.144 34.8543C125.42 45.1337 131.771 59.3162 131.772 74.9992C131.771 90.6823 125.42 104.865 115.144 115.144C104.865 125.421 90.6835 131.771 75.0008 131.772C59.3172 131.771 45.136 125.421 34.856 115.144C24.5787 104.864 18.2283 90.6823 18.2274 74.9992H16.3907H14.554C14.5549 108.384 41.616 135.445 75.0008 135.446C108.385 135.445 135.444 108.384 135.445 74.9992C135.444 41.6145 108.385 14.5537 75.0008 14.5527C41.616 14.5537 14.5549 41.6145 14.554 74.9992H16.3907Z" fill="#091019"/>
<path d="M74.9998 83.9734L67.2297 77.1719L45.012 96.2181C45.8201 96.9665 46.9093 97.4331 48.1132 97.4331H101.886C103.085 97.4331 104.17 96.9665 104.974 96.2181L82.77 77.1719L74.9998 83.9734Z" fill="#920721"/>
<path d="M104.986 53.7824C104.179 53.0293 103.094 52.5674 101.887 52.5674H48.1134C46.9149 52.5674 45.8294 53.0339 45.0222 53.7925L75 79.4859L104.986 53.7824Z" fill="#060708"/>
<path d="M43.5952 56.5068V93.7809L65.2784 75.3546L43.5952 56.5068Z" fill="#060708"/>
<path d="M84.7217 75.3548L106.405 93.7811V56.4941L84.7217 75.3548Z" fill="#060708"/>
<path d="M44.3149 75.2408C44.3149 59.1106 44.4152 58.2595 46.1458 59.6891C47.1528 60.5209 51.6088 64.3878 56.0481 68.2823L64.1195 75.3632L56.0481 82.2918C51.6088 86.1026 47.1528 89.9145 46.1458 90.7627C44.4139 92.2216 44.3149 91.3824 44.3149 75.2408Z" fill="#920721"/>
<path d="M60.467 66.0854L46.1089 53.7924L60.9684 53.5017C69.1411 53.3419 82.1914 53.3419 89.9691 53.5017L104.11 53.7924L91.2848 64.7779C84.2308 70.8199 77.6416 76.3518 76.6422 77.0709C75.0569 78.2118 72.9948 76.8113 60.467 66.0854Z" fill="#920721"/>
<path d="M96.1024 84.1678C90.9237 79.8055 86.6865 75.8654 86.6865 75.4119C86.6865 74.9585 90.9237 70.8909 96.1024 66.3729L105.518 58.1582L105.822 66.6996C105.989 71.3973 105.989 79.034 105.822 83.6701L105.518 92.0992L96.1024 84.1678Z" fill="#920721"/>
<path d="M60.3708 132.799C51.4141 130.451 46.8562 128.215 38.724 122.178C21.2129 109.18 12.202 86.042 16.1389 64.186C20.1068 42.1574 39.3423 22.0218 61.4821 16.721C64.307 16.0447 70.7583 15.4979 75.8184 15.5059C101.207 15.5463 123.905 32.31 131.799 56.8506C135.354 67.9011 135.565 81.8436 132.33 91.9808C122.502 122.776 90.7788 140.771 60.3708 132.799ZM90.4197 130.051C115.438 122.624 132.242 100.443 132.181 74.9279C132.106 43.2854 106.453 17.815 74.5606 17.716C66.6243 17.6913 53.733 21.1365 46.5612 25.1987C34.2383 32.1787 23.3388 46.3786 19.7613 60.1139C17.7544 67.819 17.7141 82.368 19.6792 89.7513C24.8437 109.156 40.3924 124.864 59.6849 130.168C66.9421 132.163 83.518 132.1 90.4197 130.051Z" fill="#920721"/>
</g>
<defs>
<radialGradient id="paint0_radial_499_23171" cx="0" cy="0" r="1" gradientUnits="userSpaceOnUse" gradientTransform="translate(80.6506 3.8526) scale(184.182 184.186)">
<stop stop-color="white"/>
<stop offset="0.134409" stop-color="white"/>
<stop offset="1" stop-color="#9CB8C3"/>
</radialGradient>
<radialGradient id="paint1_radial_499_23171" cx="0" cy="0" r="1" gradientUnits="userSpaceOnUse" gradientTransform="translate(80.9096 9.13207) scale(181.833 181.837)">
<stop stop-color="white"/>
<stop offset="0.134409" stop-color="white"/>
<stop offset="1" stop-color="#9CB8C3"/>
</radialGradient>
<radialGradient id="paint2_radial_499_23171" cx="0" cy="0" r="1" gradientUnits="userSpaceOnUse" gradientTransform="translate(81.1593 14.2403) scale(179.318 179.323)">
<stop stop-color="white"/>
<stop offset="0.134409" stop-color="white"/>
<stop offset="1" stop-color="#9CB8C3"/>
</radialGradient>
<radialGradient id="paint3_radial_499_23171" cx="0" cy="0" r="1" gradientUnits="userSpaceOnUse" gradientTransform="translate(81.4009 19.1824) scale(176.658 176.662)">
<stop stop-color="white"/>
<stop offset="0.134409" stop-color="white"/>
<stop offset="1" stop-color="#9CB8C3"/>
</radialGradient>
<radialGradient id="paint4_radial_499_23171" cx="0" cy="0" r="1" gradientUnits="userSpaceOnUse" gradientTransform="translate(81.6342 23.9664) scale(173.868 173.872)">
<stop stop-color="white"/>
<stop offset="0.134409" stop-color="white"/>
<stop offset="1" stop-color="#9CB8C3"/>
</radialGradient>
<radialGradient id="paint5_radial_499_23171" cx="0" cy="0" r="1" gradientUnits="userSpaceOnUse" gradientTransform="translate(81.8617 28.5922) scale(170.97 170.974)">
<stop stop-color="white"/>
<stop offset="0.134409" stop-color="white"/>
<stop offset="1" stop-color="#9CB8C3"/>
</radialGradient>
<radialGradient id="paint6_radial_499_23171" cx="0" cy="0" r="1" gradientUnits="userSpaceOnUse" gradientTransform="translate(82.0824 33.0707) scale(167.98 167.984)">
<stop stop-color="white"/>
<stop offset="0.134409" stop-color="white"/>
<stop offset="1" stop-color="#9CB8C3"/>
</radialGradient>
<radialGradient id="paint7_radial_499_23171" cx="0" cy="0" r="1" gradientUnits="userSpaceOnUse" gradientTransform="translate(82.298 37.406) scale(164.914 164.918)">
<stop stop-color="white"/>
<stop offset="0.134409" stop-color="white"/>
<stop offset="1" stop-color="#9CB8C3"/>
</radialGradient>
<radialGradient id="paint8_radial_499_23171" cx="0" cy="0" r="1" gradientUnits="userSpaceOnUse" gradientTransform="translate(82.5101 41.6043) scale(161.793 161.797)">
<stop stop-color="white"/>
<stop offset="0.134409" stop-color="white"/>
<stop offset="1" stop-color="#9CB8C3"/>
</radialGradient>
<radialGradient id="paint9_radial_499_23171" cx="0" cy="0" r="1" gradientUnits="userSpaceOnUse" gradientTransform="translate(82.7176 45.6746) scale(158.632 158.635)">
<stop stop-color="white"/>
<stop offset="0.134409" stop-color="white"/>
<stop offset="1" stop-color="#9CB8C3"/>
</radialGradient>
<radialGradient id="paint10_radial_499_23171" cx="0" cy="0" r="1" gradientUnits="userSpaceOnUse" gradientTransform="translate(82.9249 49.621) scale(155.444 155.448)">
<stop stop-color="white"/>
<stop offset="0.134409" stop-color="white"/>
<stop offset="1" stop-color="#9CB8C3"/>
</radialGradient>
<radialGradient id="paint11_radial_499_23171" cx="0" cy="0" r="1" gradientUnits="userSpaceOnUse" gradientTransform="translate(83.1288 53.4555) scale(152.244 152.248)">
<stop stop-color="white"/>
<stop offset="0.134409" stop-color="white"/>
<stop offset="1" stop-color="#9CB8C3"/>
</radialGradient>
<radialGradient id="paint12_radial_499_23171" cx="0" cy="0" r="1" gradientUnits="userSpaceOnUse" gradientTransform="translate(83.3335 57.1853) scale(149.051 149.055)">
<stop stop-color="white"/>
<stop offset="0.134409" stop-color="white"/>
<stop offset="1" stop-color="#9CB8C3"/>
</radialGradient>
<radialGradient id="paint13_radial_499_23171" cx="0" cy="0" r="1" gradientUnits="userSpaceOnUse" gradientTransform="translate(83.539 60.8146) scale(145.874 145.877)">
<stop stop-color="white"/>
<stop offset="0.134409" stop-color="white"/>
<stop offset="1" stop-color="#9CB8C3"/>
</radialGradient>
<radialGradient id="paint14_radial_499_23171" cx="0" cy="0" r="1" gradientUnits="userSpaceOnUse" gradientTransform="translate(83.7467 64.3604) scale(142.727 142.73)">
<stop stop-color="white"/>
<stop offset="0.134409" stop-color="white"/>
<stop offset="1" stop-color="#9CB8C3"/>
</radialGradient>
<radialGradient id="paint15_radial_499_23171" cx="0" cy="0" r="1" gradientUnits="userSpaceOnUse" gradientTransform="translate(83.958 67.8283) scale(139.623 139.626)">
<stop stop-color="white"/>
<stop offset="0.134409" stop-color="white"/>
<stop offset="1" stop-color="#9CB8C3"/>
</radialGradient>
<radialGradient id="paint16_radial_499_23171" cx="0" cy="0" r="1" gradientUnits="userSpaceOnUse" gradientTransform="translate(84.1718 71.2253) scale(136.572 136.575)">
<stop stop-color="white"/>
<stop offset="0.134409" stop-color="white"/>
<stop offset="1" stop-color="#9CB8C3"/>
</radialGradient>
<radialGradient id="paint17_radial_499_23171" cx="0" cy="0" r="1" gradientUnits="userSpaceOnUse" gradientTransform="translate(84.3929 74.5712) scale(133.588 133.591)">
<stop stop-color="white"/>
<stop offset="0.134409" stop-color="white"/>
<stop offset="1" stop-color="#9CB8C3"/>
</radialGradient>
<radialGradient id="paint18_radial_499_23171" cx="0" cy="0" r="1" gradientUnits="userSpaceOnUse" gradientTransform="translate(84.6197 77.8691) scale(130.682 130.685)">
<stop stop-color="white"/>
<stop offset="0.134409" stop-color="white"/>
<stop offset="1" stop-color="#9CB8C3"/>
</radialGradient>
<radialGradient id="paint19_radial_499_23171" cx="0" cy="0" r="1" gradientUnits="userSpaceOnUse" gradientTransform="translate(84.8547 81.1342) scale(127.863 127.866)">
<stop stop-color="white"/>
<stop offset="0.134409" stop-color="white"/>
<stop offset="1" stop-color="#9CB8C3"/>
</radialGradient>
<radialGradient id="paint20_radial_499_23171" cx="0" cy="0" r="1" gradientUnits="userSpaceOnUse" gradientTransform="translate(85.099 84.375) scale(125.145 125.148)">
<stop stop-color="white"/>
<stop offset="0.134409" stop-color="white"/>
<stop offset="1" stop-color="#9CB8C3"/>
</radialGradient>
<radialGradient id="paint21_radial_499_23171" cx="0" cy="0" r="1" gradientUnits="userSpaceOnUse" gradientTransform="translate(85.3523 87.6072) scale(122.539 122.542)">
<stop stop-color="white"/>
<stop offset="0.134409" stop-color="white"/>
<stop offset="1" stop-color="#9CB8C3"/>
</radialGradient>
<radialGradient id="paint22_radial_499_23171" cx="0" cy="0" r="1" gradientUnits="userSpaceOnUse" gradientTransform="translate(85.618 90.8404) scale(120.059 120.062)">
<stop stop-color="white"/>
<stop offset="0.134409" stop-color="white"/>
<stop offset="1" stop-color="#9CB8C3"/>
</radialGradient>
<radialGradient id="paint23_radial_499_23171" cx="0" cy="0" r="1" gradientUnits="userSpaceOnUse" gradientTransform="translate(85.8967 94.0852) scale(117.718 117.721)">
<stop stop-color="white"/>
<stop offset="0.134409" stop-color="white"/>
<stop offset="1" stop-color="#9CB8C3"/>
</radialGradient>
<radialGradient id="paint24_radial_499_23171" cx="0" cy="0" r="1" gradientUnits="userSpaceOnUse" gradientTransform="translate(86.1884 97.3581) scale(115.536 115.539)">
<stop stop-color="white"/>
<stop offset="0.134409" stop-color="white"/>
<stop offset="1" stop-color="#9CB8C3"/>
</radialGradient>
<radialGradient id="paint25_radial_499_23171" cx="0" cy="0" r="1" gradientUnits="userSpaceOnUse" gradientTransform="translate(86.4941 100.666) scale(113.532 113.535)">
<stop stop-color="white"/>
<stop offset="0.134409" stop-color="white"/>
<stop offset="1" stop-color="#9CB8C3"/>
</radialGradient>
<radialGradient id="paint26_radial_499_23171" cx="0" cy="0" r="1" gradientUnits="userSpaceOnUse" gradientTransform="translate(86.8153 104.022) scale(111.729 111.731)">
<stop stop-color="white"/>
<stop offset="0.134409" stop-color="white"/>
<stop offset="1" stop-color="#9CB8C3"/>
</radialGradient>
<clipPath id="clip0_499_23171">
<rect width="150" height="150" fill="white"/>
</clipPath>
</defs>
</svg>
