<?xml version="1.0" encoding="UTF-8" standalone="no"?>
<svg
   width="158.66306"
   height="158.66306"
   viewBox="0 0 158.66306 158.66306"
   fill="none"
   version="1.1"
   id="svg143"
   sodipodi:docname="email button - hover2.svg"
   inkscape:version="1.3.1 (91b66b0783, 2023-11-16)"
   xmlns:inkscape="http://www.inkscape.org/namespaces/inkscape"
   xmlns:sodipodi="http://sodipodi.sourceforge.net/DTD/sodipodi-0.dtd"
   xmlns="http://www.w3.org/2000/svg"
   xmlns:svg="http://www.w3.org/2000/svg">
  <sodipodi:namedview
     id="namedview143"
     pagecolor="#ffffff"
     bordercolor="#000000"
     borderopacity="0.25"
     inkscape:showpageshadow="2"
     inkscape:pageopacity="0.0"
     inkscape:pagecheckerboard="0"
     inkscape:deskcolor="#d1d1d1"
     showgrid="false"
     inkscape:zoom="8.5266667"
     inkscape:cx="78.92885"
     inkscape:cy="79.104769"
     inkscape:window-width="2880"
     inkscape:window-height="1514"
     inkscape:window-x="2869"
     inkscape:window-y="-11"
     inkscape:window-maximized="1"
     inkscape:current-layer="svg143" />
  <g
     clip-path="url(#clip0_499_23171)"
     id="g63"
     transform="translate(3.8624077,4.2142448)">
    <mask
       id="mask0_499_23171"
       maskUnits="userSpaceOnUse"
       x="0"
       y="0"
       width="150"
       height="150">
      <path
         d="M 0,75 C 0,33.5776 33.5787,1.52588e-5 75,1.52588e-5 116.418,1.52588e-5 150,33.5776 150,75 150,116.421 116.418,150 75,150 33.5787,150 0,116.421 0,75 Z"
         fill="#ffffff"
         id="path1" />
    </mask>
    <g
       mask="url(#mask0_499_23171)"
       id="g2">
      <path
         d="M 0,75 C 0,33.5776 33.5787,1.52588e-5 75,1.52588e-5 116.418,1.52588e-5 150,33.5776 150,75 150,116.421 116.418,150 75,150 33.5787,150 0,116.421 0,75 Z"
         fill="url(#paint0_radial_499_23171)"
         id="path2"
         style="fill:url(#paint0_radial_499_23171)" />
    </g>
    <mask
       id="mask1_499_23171"
       maskUnits="userSpaceOnUse"
       x="1"
       y="1"
       width="148"
       height="148">
      <path
         d="M 76.6071,1.27812 C 117.319,2.16527 149.61,35.8898 148.722,76.606 147.835,117.321 114.105,149.609 73.3938,148.721 32.6787,147.835 0.391221,114.108 1.27835,73.3935 2.16548,32.6764 35.892,0.390045 76.6071,1.27812 Z"
         fill="#ffffff"
         id="path3" />
    </mask>
    <g
       mask="url(#mask1_499_23171)"
       id="g4">
      <path
         d="M 76.6071,1.27812 C 117.319,2.16527 149.61,35.8898 148.722,76.606 147.835,117.321 114.105,149.609 73.3938,148.721 32.6787,147.835 0.391221,114.108 1.27835,73.3935 2.16548,32.6764 35.892,0.390045 76.6071,1.27812 Z"
         fill="url(#paint1_radial_499_23171)"
         id="path4"
         style="fill:url(#paint1_radial_499_23171)" />
    </g>
    <mask
       id="mask2_499_23171"
       maskUnits="userSpaceOnUse"
       x="2"
       y="2"
       width="146"
       height="146">
      <path
         d="M 78.2132,2.55579 C 118.219,4.33008 149.218,38.2025 147.444,78.2133 145.669,118.221 111.793,149.218 71.7866,147.444 31.7767,145.669 0.781424,111.795 2.55568,71.7856 4.32994,31.7757 38.2043,0.781479 78.2132,2.55579 Z"
         fill="#ffffff"
         id="path5" />
    </mask>
    <g
       mask="url(#mask2_499_23171)"
       id="g6">
      <path
         d="M 78.2132,2.55579 C 118.219,4.33008 149.218,38.2025 147.444,78.2133 145.669,118.221 111.793,149.218 71.7866,147.444 31.7767,145.669 0.781424,111.795 2.55568,71.7856 4.32994,31.7757 38.2043,0.781479 78.2132,2.55579 Z"
         fill="url(#paint2_radial_499_23171)"
         id="path6"
         style="fill:url(#paint2_radial_499_23171)" />
    </g>
    <mask
       id="mask3_499_23171"
       maskUnits="userSpaceOnUse"
       x="3"
       y="3"
       width="144"
       height="144">
      <path
         d="M 79.8195,3.8318 C 119.12,6.49417 148.829,40.5135 146.166,79.8191 143.504,119.122 109.48,148.828 70.1795,146.165 30.8768,143.503 1.17177,109.482 3.83407,70.1779 6.49545,30.8742 40.5158,1.17128 79.8195,3.8318 Z"
         fill="#ffffff"
         id="path7" />
    </mask>
    <g
       mask="url(#mask3_499_23171)"
       id="g8">
      <path
         d="M 79.8195,3.8318 C 119.12,6.49417 148.829,40.5135 146.166,79.8191 143.504,119.122 109.48,148.828 70.1795,146.165 30.8768,143.503 1.17177,109.482 3.83407,70.1779 6.49545,30.8742 40.5158,1.17128 79.8195,3.8318 Z"
         fill="url(#paint3_radial_499_23171)"
         id="path8"
         style="fill:url(#paint3_radial_499_23171)" />
    </g>
    <mask
       id="mask4_499_23171"
       maskUnits="userSpaceOnUse"
       x="4"
       y="4"
       width="142"
       height="142">
      <path
         d="M 81.4257,5.11124 C 120.021,8.66168 148.438,42.828 144.888,81.4263 141.338,120.024 107.168,148.438 68.5734,144.888 29.976,141.338 1.56306,107.17 5.11157,68.5728 8.66192,29.9744 42.8283,1.56264 81.4257,5.11124 Z"
         fill="#ffffff"
         id="path9" />
    </mask>
    <g
       mask="url(#mask4_499_23171)"
       id="g10">
      <path
         d="M 81.4257,5.11124 C 120.021,8.66168 148.438,42.828 144.888,81.4263 141.338,120.024 107.168,148.438 68.5734,144.888 29.976,141.338 1.56306,107.17 5.11157,68.5728 8.66192,29.9744 42.8283,1.56264 81.4257,5.11124 Z"
         fill="url(#paint4_radial_499_23171)"
         id="path10"
         style="fill:url(#paint4_radial_499_23171)" />
    </g>
    <mask
       id="mask5_499_23171"
       maskUnits="userSpaceOnUse"
       x="5"
       y="5"
       width="140"
       height="140">
      <path
         d="M 83.0326,6.38681 C 120.923,10.8244 148.047,45.1376 143.61,83.0307 139.173,120.924 104.857,148.046 66.9669,143.609 29.0748,139.172 1.954,104.856 6.39056,66.9637 10.8262,29.0716 45.1404,1.95107 83.0326,6.38681 Z"
         fill="#ffffff"
         id="path11" />
    </mask>
    <g
       mask="url(#mask5_499_23171)"
       id="g12">
      <path
         d="M 83.0326,6.38681 C 120.923,10.8244 148.047,45.1376 143.61,83.0307 139.173,120.924 104.857,148.046 66.9669,143.609 29.0748,139.172 1.954,104.856 6.39056,66.9637 10.8262,29.0716 45.1404,1.95107 83.0326,6.38681 Z"
         fill="url(#paint5_radial_499_23171)"
         id="path12"
         style="fill:url(#paint5_radial_499_23171)" />
    </g>
    <mask
       id="mask6_499_23171"
       maskUnits="userSpaceOnUse"
       x="6"
       y="6"
       width="138"
       height="138">
      <path
         d="M 84.6391,7.66574 C 121.824,12.9905 147.656,47.4516 142.331,84.6394 137.007,121.825 102.544,147.656 65.3611,142.331 28.1751,137.008 2.34463,102.545 7.66832,65.3581 12.9911,28.1721 47.4532,2.34375 84.6391,7.66574 Z"
         fill="#ffffff"
         id="path13" />
    </mask>
    <g
       mask="url(#mask6_499_23171)"
       id="g14">
      <path
         d="M 84.6391,7.66574 C 121.824,12.9905 147.656,47.4516 142.331,84.6394 137.007,121.825 102.544,147.656 65.3611,142.331 28.1751,137.008 2.34463,102.545 7.66832,65.3581 12.9911,28.1721 47.4532,2.34375 84.6391,7.66574 Z"
         fill="url(#paint6_radial_499_23171)"
         id="path14"
         style="fill:url(#paint6_radial_499_23171)" />
    </g>
    <mask
       id="mask7_499_23171"
       maskUnits="userSpaceOnUse"
       x="7"
       y="7"
       width="136"
       height="136">
      <path
         d="M 86.246,8.94377 C 122.725,15.1566 147.266,49.7637 141.053,86.2461 134.842,122.727 100.232,147.266 63.7538,141.053 27.2731,134.842 2.73475,100.233 8.94556,63.7523 15.1564,27.2717 49.7645,2.73372 86.246,8.94377 Z"
         fill="#ffffff"
         id="path15" />
    </mask>
    <g
       mask="url(#mask7_499_23171)"
       id="g16">
      <path
         d="M 86.246,8.94377 C 122.725,15.1566 147.266,49.7637 141.053,86.2461 134.842,122.727 100.232,147.266 63.7538,141.053 27.2731,134.842 2.73475,100.233 8.94556,63.7523 15.1564,27.2717 49.7645,2.73372 86.246,8.94377 Z"
         fill="url(#paint7_radial_499_23171)"
         id="path16"
         style="fill:url(#paint7_radial_499_23171)" />
    </g>
    <mask
       id="mask8_499_23171"
       maskUnits="userSpaceOnUse"
       x="8"
       y="8"
       width="134"
       height="134">
      <path
         d="M 87.8522,10.2216 C 123.626,17.3206 146.876,52.0765 139.776,87.8518 132.677,123.627 97.9201,146.875 62.1475,139.775 26.3731,132.677 3.12593,97.9199 10.2248,62.1446 17.3218,26.3703 52.0778,3.12436 87.8522,10.2216 Z"
         fill="#ffffff"
         id="path17" />
    </mask>
    <g
       mask="url(#mask8_499_23171)"
       id="g18">
      <path
         d="M 87.8522,10.2216 C 123.626,17.3206 146.876,52.0765 139.776,87.8518 132.677,123.627 97.9201,146.875 62.1475,139.775 26.3731,132.677 3.12593,97.9199 10.2248,62.1446 17.3218,26.3703 52.0778,3.12436 87.8522,10.2216 Z"
         fill="url(#paint8_radial_499_23171)"
         id="path18"
         style="fill:url(#paint8_radial_499_23171)" />
    </g>
    <mask
       id="mask9_499_23171"
       maskUnits="userSpaceOnUse"
       x="9"
       y="9"
       width="132"
       height="132">
      <path
         d="M 89.4592,11.5001 C 124.527,19.4881 146.485,54.39 138.497,89.459 130.511,124.53 95.6076,146.486 60.5412,138.498 25.4721,130.512 3.51615,95.6085 11.5021,60.5385 19.4881,25.4703 54.391,3.5157 89.4592,11.5001 Z"
         fill="#ffffff"
         id="path19" />
    </mask>
    <g
       mask="url(#mask9_499_23171)"
       id="g20">
      <path
         d="M 89.4592,11.5001 C 124.527,19.4881 146.485,54.39 138.497,89.459 130.511,124.53 95.6076,146.486 60.5412,138.498 25.4721,130.512 3.51615,95.6085 11.5021,60.5385 19.4881,25.4703 54.391,3.5157 89.4592,11.5001 Z"
         fill="url(#paint9_radial_499_23171)"
         id="path20"
         style="fill:url(#paint9_radial_499_23171)" />
    </g>
    <mask
       id="mask10_499_23171"
       maskUnits="userSpaceOnUse"
       x="10"
       y="10"
       width="130"
       height="130">
      <path
         d="M 91.0652,12.7767 C 125.428,21.6519 146.095,56.7016 137.22,91.0654 128.347,125.43 93.2949,146.094 58.9339,137.219 24.571,128.346 3.90712,93.2952 12.7802,58.9314 21.6524,24.5686 56.7023,3.90518 91.0652,12.7767 Z"
         fill="#ffffff"
         id="path21" />
    </mask>
    <g
       mask="url(#mask10_499_23171)"
       id="g22">
      <path
         d="M 91.0652,12.7767 C 125.428,21.6519 146.095,56.7016 137.22,91.0654 128.347,125.43 93.2949,146.094 58.9339,137.219 24.571,128.346 3.90712,93.2952 12.7802,58.9314 21.6524,24.5686 56.7023,3.90518 91.0652,12.7767 Z"
         fill="url(#paint10_radial_499_23171)"
         id="path22"
         style="fill:url(#paint10_radial_499_23171)" />
    </g>
    <mask
       id="mask11_499_23171"
       maskUnits="userSpaceOnUse"
       x="11"
       y="11"
       width="128"
       height="128">
      <path
         d="M 92.6723,14.0554 C 126.33,23.8178 145.704,59.0135 135.941,92.6711 126.18,126.331 90.9835,145.704 57.3286,135.94 23.671,126.18 4.29835,90.9822 14.0595,57.3237 23.8188,23.668 59.0156,4.29587 92.6723,14.0554 Z"
         fill="#ffffff"
         id="path23" />
    </mask>
    <g
       mask="url(#mask11_499_23171)"
       id="g24">
      <path
         d="M 92.6723,14.0554 C 126.33,23.8178 145.704,59.0135 135.941,92.6711 126.18,126.331 90.9835,145.704 57.3286,135.94 23.671,126.18 4.29835,90.9822 14.0595,57.3237 23.8188,23.668 59.0156,4.29587 92.6723,14.0554 Z"
         fill="url(#paint11_radial_499_23171)"
         id="path24"
         style="fill:url(#paint11_radial_499_23171)" />
    </g>
    <mask
       id="mask12_499_23171"
       maskUnits="userSpaceOnUse"
       x="12"
       y="12"
       width="126"
       height="126">
      <path
         d="M 94.2784,15.334 C 127.231,25.9835 145.313,61.3271 134.664,94.2794 124.016,127.233 88.6719,145.314 55.7214,134.664 22.7709,124.016 4.68855,88.6718 15.3368,55.7187 25.9833,22.7683 61.3279,4.68729 94.2784,15.334 Z"
         fill="#ffffff"
         id="path25" />
    </mask>
    <g
       mask="url(#mask12_499_23171)"
       id="g26">
      <path
         d="M 94.2784,15.334 C 127.231,25.9835 145.313,61.3271 134.664,94.2794 124.016,127.233 88.6719,145.314 55.7214,134.664 22.7709,124.016 4.68855,88.6718 15.3368,55.7187 25.9833,22.7683 61.3279,4.68729 94.2784,15.334 Z"
         fill="url(#paint12_radial_499_23171)"
         id="path26"
         style="fill:url(#paint12_radial_499_23171)" />
    </g>
    <mask
       id="mask13_499_23171"
       maskUnits="userSpaceOnUse"
       x="12"
       y="12"
       width="126"
       height="126">
      <path
         d="M 95.8853,16.6095 C 128.131,28.147 144.924,63.6376 133.385,95.8836 121.851,128.131 86.3592,144.922 54.115,133.384 21.8689,121.85 5.07956,86.3573 16.615,54.1095 28.1486,21.8663 63.6402,5.07654 95.8853,16.6095 Z"
         fill="#ffffff"
         id="path27" />
    </mask>
    <g
       mask="url(#mask13_499_23171)"
       id="g28">
      <path
         d="M 95.8853,16.6095 C 128.131,28.147 144.924,63.6376 133.385,95.8836 121.851,128.131 86.3592,144.922 54.115,133.384 21.8689,121.85 5.07956,86.3573 16.615,54.1095 28.1486,21.8663 63.6402,5.07654 95.8853,16.6095 Z"
         fill="url(#paint13_radial_499_23171)"
         id="path28"
         style="fill:url(#paint13_radial_499_23171)" />
    </g>
    <mask
       id="mask14_499_23171"
       maskUnits="userSpaceOnUse"
       x="13"
       y="13"
       width="124"
       height="124">
      <path
         d="M 97.4926,17.8879 C 129.033,30.3126 144.533,65.951 132.107,97.4908 119.685,129.033 84.047,144.532 52.508,132.107 20.969,119.684 5.47093,84.0458 17.8926,52.5033 30.3151,20.9663 65.9518,5.4687 97.4926,17.8879 Z"
         fill="#ffffff"
         id="path29" />
    </mask>
    <g
       mask="url(#mask14_499_23171)"
       id="g30">
      <path
         d="M 97.4926,17.8879 C 129.033,30.3126 144.533,65.951 132.107,97.4908 119.685,129.033 84.047,144.532 52.508,132.107 20.969,119.684 5.47093,84.0458 17.8926,52.5033 30.3151,20.9663 65.9518,5.4687 97.4926,17.8879 Z"
         fill="url(#paint14_radial_499_23171)"
         id="path30"
         style="fill:url(#paint14_radial_499_23171)" />
    </g>
    <mask
       id="mask15_499_23171"
       maskUnits="userSpaceOnUse"
       x="14"
       y="14"
       width="122"
       height="122">
      <path
         d="M 99.0988,19.1664 C 129.934,32.4782 144.142,68.2646 130.83,99.099 117.52,129.935 81.7355,144.143 50.9019,130.83 20.0682,117.52 5.86127,81.7335 19.171,50.8972 32.4797,20.0664 68.2651,5.86005 99.0988,19.1664 Z"
         fill="#ffffff"
         id="path31" />
    </mask>
    <g
       mask="url(#mask15_499_23171)"
       id="g32">
      <path
         d="M 99.0988,19.1664 C 129.934,32.4782 144.142,68.2646 130.83,99.099 117.52,129.935 81.7355,144.143 50.9019,130.83 20.0682,117.52 5.86127,81.7335 19.171,50.8972 32.4797,20.0664 68.2651,5.86005 99.0988,19.1664 Z"
         fill="url(#paint15_radial_499_23171)"
         id="path32"
         style="fill:url(#paint15_radial_499_23171)" />
    </g>
    <mask
       id="mask16_499_23171"
       maskUnits="userSpaceOnUse"
       x="14"
       y="14"
       width="122"
       height="122">
      <path
         d="m 100.705,20.441 c 30.13,14.199 43.047,50.1323 28.846,80.26 -14.197,30.131 -50.128,43.047 -80.2554,28.846 C 19.1672,115.35 6.25238,79.4172 20.4492,49.2872 34.6451,19.1617 70.5775,6.24664 100.705,20.441 Z"
         fill="#ffffff"
         id="path33" />
    </mask>
    <g
       mask="url(#mask16_499_23171)"
       id="g34">
      <path
         d="m 100.705,20.441 c 30.13,14.199 43.047,50.1323 28.846,80.26 -14.197,30.131 -50.128,43.047 -80.2554,28.846 C 19.1672,115.35 6.25238,79.4172 20.4492,49.2872 34.6451,19.1617 70.5775,6.24664 100.705,20.441 Z"
         fill="url(#paint16_radial_499_23171)"
         id="path34"
         style="fill:url(#paint16_radial_499_23171)" />
    </g>
    <mask
       id="mask17_499_23171"
       maskUnits="userSpaceOnUse"
       x="15"
       y="15"
       width="120"
       height="120">
      <path
         d="m 102.312,21.7206 c 29.424,15.087 41.048,51.1663 25.962,80.5894 -15.085,29.425 -51.1637,41.05 -80.5859,25.961 C 18.2669,113.187 6.6424,77.1068 21.7263,47.6821 36.8094,18.2629 72.8887,6.63902 102.312,21.7206 Z"
         fill="#ffffff"
         id="path35" />
    </mask>
    <g
       mask="url(#mask17_499_23171)"
       id="g36">
      <path
         d="m 102.312,21.7206 c 29.424,15.087 41.048,51.1663 25.962,80.5894 -15.085,29.425 -51.1637,41.05 -80.5859,25.961 C 18.2669,113.187 6.6424,77.1068 21.7263,47.6821 36.8094,18.2629 72.8887,6.63902 102.312,21.7206 Z"
         fill="url(#paint17_radial_499_23171)"
         id="path36"
         style="fill:url(#paint17_radial_499_23171)" />
    </g>
    <mask
       id="mask18_499_23171"
       maskUnits="userSpaceOnUse"
       x="15"
       y="15"
       width="120"
       height="120">
      <path
         d="m 103.918,22.9981 c 28.72,15.9742 39.053,52.2013 23.077,80.9179 -15.972,28.721 -52.1971,39.053 -80.913,23.077 C 17.3651,111.022 7.0327,74.7944 23.0047,46.0759 38.9748,17.3611 75.202,7.02937 103.918,22.9981 Z"
         fill="#ffffff"
         id="path37" />
    </mask>
    <g
       mask="url(#mask18_499_23171)"
       id="g38">
      <path
         d="m 103.918,22.9981 c 28.72,15.9742 39.053,52.2013 23.077,80.9179 -15.972,28.721 -52.1971,39.053 -80.913,23.077 C 17.3651,111.022 7.0327,74.7944 23.0047,46.0759 38.9748,17.3611 75.202,7.02937 103.918,22.9981 Z"
         fill="url(#paint18_radial_499_23171)"
         id="path38"
         style="fill:url(#paint18_radial_499_23171)" />
    </g>
    <mask
       id="mask19_499_23171"
       maskUnits="userSpaceOnUse"
       x="15"
       y="15"
       width="120"
       height="120">
      <path
         d="M 105.524,24.2767 C 133.538,41.138 142.58,77.5121 125.717,105.523 108.858,133.538 72.4863,142.579 44.4757,125.716 16.465,108.857 7.42386,72.4822 24.2821,44.4681 41.1402,16.4613 77.5134,7.42083 105.524,24.2767 Z"
         fill="#ffffff"
         id="path39" />
    </mask>
    <g
       mask="url(#mask19_499_23171)"
       id="g40">
      <path
         d="M 105.524,24.2767 C 133.538,41.138 142.58,77.5121 125.717,105.523 108.858,133.538 72.4863,142.579 44.4757,125.716 16.465,108.857 7.42386,72.4822 24.2821,44.4681 41.1402,16.4613 77.5134,7.42083 105.524,24.2767 Z"
         fill="url(#paint19_radial_499_23171)"
         id="path40"
         style="fill:url(#paint19_radial_499_23171)" />
    </g>
    <mask
       id="mask20_499_23171"
       maskUnits="userSpaceOnUse"
       x="16"
       y="16"
       width="118"
       height="118">
      <path
         d="m 107.131,25.5531 c 27.309,17.7495 35.058,54.2705 17.308,81.5759 -17.746,27.309 -54.265,35.058 -81.5704,17.307 C 15.5632,106.691 7.81509,70.1687 25.5613,42.8608 43.3057,15.5585 79.8268,7.81013 107.131,25.5531 Z"
         fill="#ffffff"
         id="path41" />
    </mask>
    <g
       mask="url(#mask20_499_23171)"
       id="g42">
      <path
         d="m 107.131,25.5531 c 27.309,17.7495 35.058,54.2705 17.308,81.5759 -17.746,27.309 -54.265,35.058 -81.5704,17.307 C 15.5632,106.691 7.81509,70.1687 25.5613,42.8608 43.3057,15.5585 79.8268,7.81013 107.131,25.5531 Z"
         fill="url(#paint20_radial_499_23171)"
         id="path42"
         style="fill:url(#paint20_radial_499_23171)" />
    </g>
    <mask
       id="mask21_499_23171"
       maskUnits="userSpaceOnUse"
       x="16"
       y="16"
       width="118"
       height="118">
      <path
         d="M 108.737,26.8309 C 135.34,45.4684 141.798,82.1364 123.16,108.735 104.527,135.339 67.8614,141.797 41.2622,123.158 14.6631,104.525 8.2052,67.8566 26.8395,41.254 45.471,14.6588 82.1381,8.20169 108.737,26.8309 Z"
         fill="#ffffff"
         id="path43" />
    </mask>
    <g
       mask="url(#mask21_499_23171)"
       id="g44">
      <path
         d="M 108.737,26.8309 C 135.34,45.4684 141.798,82.1364 123.16,108.735 104.527,135.339 67.8614,141.797 41.2622,123.158 14.6631,104.525 8.2052,67.8566 26.8395,41.254 45.471,14.6588 82.1381,8.20169 108.737,26.8309 Z"
         fill="url(#paint21_radial_499_23171)"
         id="path44"
         style="fill:url(#paint21_radial_499_23171)" />
    </g>
    <mask
       id="mask22_499_23171"
       maskUnits="userSpaceOnUse"
       x="16"
       y="16"
       width="118"
       height="118">
      <path
         d="m 110.344,28.109 c 25.897,19.5246 31.064,56.3404 11.539,82.233 -19.521,25.899 -56.3338,31.065 -82.2267,11.539 C 13.7624,102.361 8.59579,65.5447 28.1172,39.6475 47.6368,13.7575 84.4508,8.59167 110.344,28.109 Z"
         fill="#ffffff"
         id="path45" />
    </mask>
    <g
       mask="url(#mask22_499_23171)"
       id="g46">
      <path
         d="m 110.344,28.109 c 25.897,19.5246 31.064,56.3404 11.539,82.233 -19.521,25.899 -56.3338,31.065 -82.2267,11.539 C 13.7624,102.361 8.59579,65.5447 28.1172,39.6475 47.6368,13.7575 84.4508,8.59167 110.344,28.109 Z"
         fill="url(#paint22_radial_499_23171)"
         id="path46"
         style="fill:url(#paint22_radial_499_23171)" />
    </g>
    <mask
       id="mask23_499_23171"
       maskUnits="userSpaceOnUse"
       x="16"
       y="16"
       width="118"
       height="118">
      <path
         d="m 111.951,29.3866 c 25.193,20.4118 29.067,57.3746 8.654,82.5624 -20.409,25.192 -57.3668,29.066 -82.5554,8.653 C 12.862,100.194 8.98746,63.2315 29.396,38.0405 49.8018,12.8568 86.7637,8.98219 111.951,29.3866 Z"
         fill="#ffffff"
         id="path47" />
    </mask>
    <g
       mask="url(#mask23_499_23171)"
       id="g48">
      <path
         d="m 111.951,29.3866 c 25.193,20.4118 29.067,57.3746 8.654,82.5624 -20.409,25.192 -57.3668,29.066 -82.5554,8.653 C 12.862,100.194 8.98746,63.2315 29.396,38.0405 49.8018,12.8568 86.7637,8.98219 111.951,29.3866 Z"
         fill="url(#paint23_radial_499_23171)"
         id="path48"
         style="fill:url(#paint23_radial_499_23171)" />
    </g>
    <mask
       id="mask24_499_23171"
       maskUnits="userSpaceOnUse"
       x="16"
       y="16"
       width="118"
       height="118">
      <path
         d="m 113.557,30.6657 c 24.487,21.2989 27.07,58.4095 5.77,82.8903 -21.2955,24.487 -58.4015,27.07 -82.8839,5.77 C 11.9608,98.0303 9.37836,60.9197 30.6731,36.4349 51.967,11.9574 89.0766,9.37407 113.557,30.6657 Z"
         fill="#ffffff"
         id="path49" />
    </mask>
    <g
       mask="url(#mask24_499_23171)"
       id="g50">
      <path
         d="m 113.557,30.6657 c 24.487,21.2989 27.07,58.4095 5.77,82.8903 -21.2955,24.487 -58.4015,27.07 -82.8839,5.77 C 11.9608,98.0303 9.37836,60.9197 30.6731,36.4349 51.967,11.9574 89.0766,9.37407 113.557,30.6657 Z"
         fill="url(#paint24_radial_499_23171)"
         id="path50"
         style="fill:url(#paint24_radial_499_23171)" />
    </g>
    <mask
       id="mask25_499_23171"
       maskUnits="userSpaceOnUse"
       x="16"
       y="16"
       width="118"
       height="118">
      <path
         d="m 115.164,31.9418 c 23.781,22.1861 25.073,59.4445 2.885,83.2192 -22.1822,23.782 -59.4361,25.074 -83.2122,2.885 C 11.0597,95.8634 9.76853,58.6059 31.9513,34.8264 54.1323,11.0552 91.3889,9.76397 115.164,31.9418 Z"
         fill="#ffffff"
         id="path51" />
    </mask>
    <g
       mask="url(#mask25_499_23171)"
       id="g52">
      <path
         d="m 115.164,31.9418 c 23.781,22.1861 25.073,59.4445 2.885,83.2192 -22.1822,23.782 -59.4361,25.074 -83.2122,2.885 C 11.0597,95.8634 9.76853,58.6059 31.9513,34.8264 54.1323,11.0552 91.3889,9.76397 115.164,31.9418 Z"
         fill="url(#paint25_radial_499_23171)"
         id="path52"
         style="fill:url(#paint25_radial_499_23171)" />
    </g>
    <mask
       id="mask26_499_23171"
       maskUnits="userSpaceOnUse"
       x="15"
       y="15"
       width="120"
       height="120">
      <path
         d="m 116.77,33.219 c 23.076,23.0741 23.076,60.4786 0,83.548 -23.0698,23.076 -60.4688,23.076 -83.5406,0 -23.0708,-23.0694 -23.0708,-60.4739 0,-83.548 23.0681,-23.0659 60.4708,-23.0659 83.5406,0 z"
         fill="#ffffff"
         id="path53" />
    </mask>
    <g
       mask="url(#mask26_499_23171)"
       id="g54">
      <path
         d="m 116.77,33.219 c 23.076,23.0741 23.076,60.4786 0,83.548 -23.0698,23.076 -60.4688,23.076 -83.5406,0 -23.0708,-23.0694 -23.0708,-60.4739 0,-83.548 23.0681,-23.0659 60.4708,-23.0659 83.5406,0 z"
         fill="url(#paint26_radial_499_23171)"
         id="path54"
         style="fill:url(#paint26_radial_499_23171)" />
    </g>
    <path
       d="m 16.3907,74.9992 h 1.8367 c 9e-4,-15.683 6.3513,-29.8655 16.6286,-40.1449 10.28,-10.2766 24.4612,-16.6272 40.1448,-16.6281 15.6827,9e-4 29.8642,6.3515 40.1432,16.6281 10.276,10.2794 16.627,24.4619 16.628,40.1449 -0.001,15.6831 -6.352,29.8658 -16.628,40.1448 -10.279,10.277 -24.4605,16.627 -40.1432,16.628 C 59.3172,131.771 45.136,125.421 34.856,115.144 24.5787,104.864 18.2283,90.6823 18.2274,74.9992 H 16.3907 14.554 c 9e-4,33.3848 27.062,60.4458 60.4468,60.4468 C 108.385,135.445 135.444,108.384 135.445,74.9992 135.444,41.6145 108.385,14.5537 75.0008,14.5527 41.616,14.5537 14.5549,41.6145 14.554,74.9992 Z"
       fill="#091019"
       id="path55" />
    <path
       d="M 74.9998,83.9734 67.2297,77.1719 45.012,96.2181 c 0.8081,0.7484 1.8973,1.215 3.1012,1.215 h 53.7728 c 1.199,0 2.284,-0.4666 3.088,-1.215 L 82.77,77.1719 Z"
       fill="#920721"
       id="path56" />
    <path
       d="m 104.986,53.7824 c -0.807,-0.7531 -1.892,-1.215 -3.099,-1.215 H 48.1134 c -1.1985,0 -2.284,0.4665 -3.0912,1.2251 L 75,79.4859 Z"
       fill="#060708"
       id="path57" />
    <path
       d="M 43.5952,56.5068 V 93.7809 L 65.2784,75.3546 Z"
       fill="#060708"
       id="path58" />
    <path
       d="M 84.7217,75.3548 106.405,93.7811 V 56.4941 Z"
       fill="#060708"
       id="path59" />
    <path
       d="m 44.3149,75.2408 c 0,-16.1302 0.1003,-16.9813 1.8309,-15.5517 1.007,0.8318 5.463,4.6987 9.9023,8.5932 l 8.0714,7.0809 -8.0714,6.9286 c -4.4393,3.8108 -8.8953,7.6227 -9.9023,8.4709 -1.7319,1.4589 -1.8309,0.6197 -1.8309,-15.5219 z"
       fill="#920721"
       id="path60" />
    <path
       d="M 60.467,66.0854 46.1089,53.7924 60.9684,53.5017 c 8.1727,-0.1598 21.223,-0.1598 29.0007,0 L 104.11,53.7924 91.2848,64.7779 c -7.054,6.042 -13.6432,11.5739 -14.6426,12.293 -1.5853,1.1409 -3.6474,-0.2596 -16.1752,-10.9855 z"
       fill="#920721"
       id="path61" />
    <path
       d="m 96.1024,84.1678 c -5.1787,-4.3623 -9.4159,-8.3024 -9.4159,-8.7559 0,-0.4534 4.2372,-4.521 9.4159,-9.039 l 9.4156,-8.2147 0.304,8.5414 c 0.167,4.6977 0.167,12.3344 0,16.9705 l -0.304,8.4291 z"
       fill="#920721"
       id="path62" />
    <path
       d="M 60.3708,132.799 C 51.4141,130.451 46.8562,128.215 38.724,122.178 21.2129,109.18 12.202,86.042 16.1389,64.186 20.1068,42.1574 39.3423,22.0218 61.4821,16.721 c 2.8249,-0.6763 9.2762,-1.2231 14.3363,-1.2151 25.3886,0.0404 48.0866,16.8041 55.9806,41.3447 3.555,11.0505 3.766,24.993 0.531,35.1302 -9.828,30.7952 -41.5512,48.7902 -71.9592,40.8182 z m 30.0489,-2.748 C 115.438,122.624 132.242,100.443 132.181,74.9279 132.106,43.2854 106.453,17.815 74.5606,17.716 66.6243,17.6913 53.733,21.1365 46.5612,25.1987 34.2383,32.1787 23.3388,46.3786 19.7613,60.1139 17.7544,67.819 17.7141,82.368 19.6792,89.7513 c 5.1645,19.4047 20.7132,35.1127 40.0057,40.4167 7.2572,1.995 23.8331,1.932 30.7348,-0.117 z"
       fill="#920721"
       id="path63" />
  </g>
  <defs
     id="defs143">
    <radialGradient
       id="paint0_radial_499_23171"
       cx="0"
       cy="0"
       r="1"
       gradientUnits="userSpaceOnUse"
       gradientTransform="matrix(184.182,0,0,184.186,80.6506,3.8526)">
      <stop
         stop-color="white"
         id="stop63" />
      <stop
         offset="0.134409"
         stop-color="white"
         id="stop64" />
      <stop
         offset="1"
         stop-color="#9CB8C3"
         id="stop65" />
    </radialGradient>
    <radialGradient
       id="paint1_radial_499_23171"
       cx="0"
       cy="0"
       r="1"
       gradientUnits="userSpaceOnUse"
       gradientTransform="matrix(181.833,0,0,181.837,80.9096,9.13207)">
      <stop
         stop-color="white"
         id="stop66" />
      <stop
         offset="0.134409"
         stop-color="white"
         id="stop67" />
      <stop
         offset="1"
         stop-color="#9CB8C3"
         id="stop68" />
    </radialGradient>
    <radialGradient
       id="paint2_radial_499_23171"
       cx="0"
       cy="0"
       r="1"
       gradientUnits="userSpaceOnUse"
       gradientTransform="matrix(179.318,0,0,179.323,81.1593,14.2403)">
      <stop
         stop-color="white"
         id="stop69" />
      <stop
         offset="0.134409"
         stop-color="white"
         id="stop70" />
      <stop
         offset="1"
         stop-color="#9CB8C3"
         id="stop71" />
    </radialGradient>
    <radialGradient
       id="paint3_radial_499_23171"
       cx="0"
       cy="0"
       r="1"
       gradientUnits="userSpaceOnUse"
       gradientTransform="matrix(176.658,0,0,176.662,81.4009,19.1824)">
      <stop
         stop-color="white"
         id="stop72" />
      <stop
         offset="0.134409"
         stop-color="white"
         id="stop73" />
      <stop
         offset="1"
         stop-color="#9CB8C3"
         id="stop74" />
    </radialGradient>
    <radialGradient
       id="paint4_radial_499_23171"
       cx="0"
       cy="0"
       r="1"
       gradientUnits="userSpaceOnUse"
       gradientTransform="matrix(173.868,0,0,173.872,81.6342,23.9664)">
      <stop
         stop-color="white"
         id="stop75" />
      <stop
         offset="0.134409"
         stop-color="white"
         id="stop76" />
      <stop
         offset="1"
         stop-color="#9CB8C3"
         id="stop77" />
    </radialGradient>
    <radialGradient
       id="paint5_radial_499_23171"
       cx="0"
       cy="0"
       r="1"
       gradientUnits="userSpaceOnUse"
       gradientTransform="matrix(170.97,0,0,170.974,81.8617,28.5922)">
      <stop
         stop-color="white"
         id="stop78" />
      <stop
         offset="0.134409"
         stop-color="white"
         id="stop79" />
      <stop
         offset="1"
         stop-color="#9CB8C3"
         id="stop80" />
    </radialGradient>
    <radialGradient
       id="paint6_radial_499_23171"
       cx="0"
       cy="0"
       r="1"
       gradientUnits="userSpaceOnUse"
       gradientTransform="matrix(167.98,0,0,167.984,82.0824,33.0707)">
      <stop
         stop-color="white"
         id="stop81" />
      <stop
         offset="0.134409"
         stop-color="white"
         id="stop82" />
      <stop
         offset="1"
         stop-color="#9CB8C3"
         id="stop83" />
    </radialGradient>
    <radialGradient
       id="paint7_radial_499_23171"
       cx="0"
       cy="0"
       r="1"
       gradientUnits="userSpaceOnUse"
       gradientTransform="matrix(164.914,0,0,164.918,82.298,37.406)">
      <stop
         stop-color="white"
         id="stop84" />
      <stop
         offset="0.134409"
         stop-color="white"
         id="stop85" />
      <stop
         offset="1"
         stop-color="#9CB8C3"
         id="stop86" />
    </radialGradient>
    <radialGradient
       id="paint8_radial_499_23171"
       cx="0"
       cy="0"
       r="1"
       gradientUnits="userSpaceOnUse"
       gradientTransform="matrix(161.793,0,0,161.797,82.5101,41.6043)">
      <stop
         stop-color="white"
         id="stop87" />
      <stop
         offset="0.134409"
         stop-color="white"
         id="stop88" />
      <stop
         offset="1"
         stop-color="#9CB8C3"
         id="stop89" />
    </radialGradient>
    <radialGradient
       id="paint9_radial_499_23171"
       cx="0"
       cy="0"
       r="1"
       gradientUnits="userSpaceOnUse"
       gradientTransform="matrix(158.632,0,0,158.635,82.7176,45.6746)">
      <stop
         stop-color="white"
         id="stop90" />
      <stop
         offset="0.134409"
         stop-color="white"
         id="stop91" />
      <stop
         offset="1"
         stop-color="#9CB8C3"
         id="stop92" />
    </radialGradient>
    <radialGradient
       id="paint10_radial_499_23171"
       cx="0"
       cy="0"
       r="1"
       gradientUnits="userSpaceOnUse"
       gradientTransform="matrix(155.444,0,0,155.448,82.9249,49.621)">
      <stop
         stop-color="white"
         id="stop93" />
      <stop
         offset="0.134409"
         stop-color="white"
         id="stop94" />
      <stop
         offset="1"
         stop-color="#9CB8C3"
         id="stop95" />
    </radialGradient>
    <radialGradient
       id="paint11_radial_499_23171"
       cx="0"
       cy="0"
       r="1"
       gradientUnits="userSpaceOnUse"
       gradientTransform="matrix(152.244,0,0,152.248,83.1288,53.4555)">
      <stop
         stop-color="white"
         id="stop96" />
      <stop
         offset="0.134409"
         stop-color="white"
         id="stop97" />
      <stop
         offset="1"
         stop-color="#9CB8C3"
         id="stop98" />
    </radialGradient>
    <radialGradient
       id="paint12_radial_499_23171"
       cx="0"
       cy="0"
       r="1"
       gradientUnits="userSpaceOnUse"
       gradientTransform="matrix(149.051,0,0,149.055,83.3335,57.1853)">
      <stop
         stop-color="white"
         id="stop99" />
      <stop
         offset="0.134409"
         stop-color="white"
         id="stop100" />
      <stop
         offset="1"
         stop-color="#9CB8C3"
         id="stop101" />
    </radialGradient>
    <radialGradient
       id="paint13_radial_499_23171"
       cx="0"
       cy="0"
       r="1"
       gradientUnits="userSpaceOnUse"
       gradientTransform="matrix(145.874,0,0,145.877,83.539,60.8146)">
      <stop
         stop-color="white"
         id="stop102" />
      <stop
         offset="0.134409"
         stop-color="white"
         id="stop103" />
      <stop
         offset="1"
         stop-color="#9CB8C3"
         id="stop104" />
    </radialGradient>
    <radialGradient
       id="paint14_radial_499_23171"
       cx="0"
       cy="0"
       r="1"
       gradientUnits="userSpaceOnUse"
       gradientTransform="matrix(142.727,0,0,142.73,83.7467,64.3604)">
      <stop
         stop-color="white"
         id="stop105" />
      <stop
         offset="0.134409"
         stop-color="white"
         id="stop106" />
      <stop
         offset="1"
         stop-color="#9CB8C3"
         id="stop107" />
    </radialGradient>
    <radialGradient
       id="paint15_radial_499_23171"
       cx="0"
       cy="0"
       r="1"
       gradientUnits="userSpaceOnUse"
       gradientTransform="matrix(139.623,0,0,139.626,83.958,67.8283)">
      <stop
         stop-color="white"
         id="stop108" />
      <stop
         offset="0.134409"
         stop-color="white"
         id="stop109" />
      <stop
         offset="1"
         stop-color="#9CB8C3"
         id="stop110" />
    </radialGradient>
    <radialGradient
       id="paint16_radial_499_23171"
       cx="0"
       cy="0"
       r="1"
       gradientUnits="userSpaceOnUse"
       gradientTransform="matrix(136.572,0,0,136.575,84.1718,71.2253)">
      <stop
         stop-color="white"
         id="stop111" />
      <stop
         offset="0.134409"
         stop-color="white"
         id="stop112" />
      <stop
         offset="1"
         stop-color="#9CB8C3"
         id="stop113" />
    </radialGradient>
    <radialGradient
       id="paint17_radial_499_23171"
       cx="0"
       cy="0"
       r="1"
       gradientUnits="userSpaceOnUse"
       gradientTransform="matrix(133.588,0,0,133.591,84.3929,74.5712)">
      <stop
         stop-color="white"
         id="stop114" />
      <stop
         offset="0.134409"
         stop-color="white"
         id="stop115" />
      <stop
         offset="1"
         stop-color="#9CB8C3"
         id="stop116" />
    </radialGradient>
    <radialGradient
       id="paint18_radial_499_23171"
       cx="0"
       cy="0"
       r="1"
       gradientUnits="userSpaceOnUse"
       gradientTransform="matrix(130.682,0,0,130.685,84.6197,77.8691)">
      <stop
         stop-color="white"
         id="stop117" />
      <stop
         offset="0.134409"
         stop-color="white"
         id="stop118" />
      <stop
         offset="1"
         stop-color="#9CB8C3"
         id="stop119" />
    </radialGradient>
    <radialGradient
       id="paint19_radial_499_23171"
       cx="0"
       cy="0"
       r="1"
       gradientUnits="userSpaceOnUse"
       gradientTransform="matrix(127.863,0,0,127.866,84.8547,81.1342)">
      <stop
         stop-color="white"
         id="stop120" />
      <stop
         offset="0.134409"
         stop-color="white"
         id="stop121" />
      <stop
         offset="1"
         stop-color="#9CB8C3"
         id="stop122" />
    </radialGradient>
    <radialGradient
       id="paint20_radial_499_23171"
       cx="0"
       cy="0"
       r="1"
       gradientUnits="userSpaceOnUse"
       gradientTransform="matrix(125.145,0,0,125.148,85.099,84.375)">
      <stop
         stop-color="white"
         id="stop123" />
      <stop
         offset="0.134409"
         stop-color="white"
         id="stop124" />
      <stop
         offset="1"
         stop-color="#9CB8C3"
         id="stop125" />
    </radialGradient>
    <radialGradient
       id="paint21_radial_499_23171"
       cx="0"
       cy="0"
       r="1"
       gradientUnits="userSpaceOnUse"
       gradientTransform="matrix(122.539,0,0,122.542,85.3523,87.6072)">
      <stop
         stop-color="white"
         id="stop126" />
      <stop
         offset="0.134409"
         stop-color="white"
         id="stop127" />
      <stop
         offset="1"
         stop-color="#9CB8C3"
         id="stop128" />
    </radialGradient>
    <radialGradient
       id="paint22_radial_499_23171"
       cx="0"
       cy="0"
       r="1"
       gradientUnits="userSpaceOnUse"
       gradientTransform="matrix(120.059,0,0,120.062,85.618,90.8404)">
      <stop
         stop-color="white"
         id="stop129" />
      <stop
         offset="0.134409"
         stop-color="white"
         id="stop130" />
      <stop
         offset="1"
         stop-color="#9CB8C3"
         id="stop131" />
    </radialGradient>
    <radialGradient
       id="paint23_radial_499_23171"
       cx="0"
       cy="0"
       r="1"
       gradientUnits="userSpaceOnUse"
       gradientTransform="matrix(117.718,0,0,117.721,85.8967,94.0852)">
      <stop
         stop-color="white"
         id="stop132" />
      <stop
         offset="0.134409"
         stop-color="white"
         id="stop133" />
      <stop
         offset="1"
         stop-color="#9CB8C3"
         id="stop134" />
    </radialGradient>
    <radialGradient
       id="paint24_radial_499_23171"
       cx="0"
       cy="0"
       r="1"
       gradientUnits="userSpaceOnUse"
       gradientTransform="matrix(115.536,0,0,115.539,86.1884,97.3581)">
      <stop
         stop-color="white"
         id="stop135" />
      <stop
         offset="0.134409"
         stop-color="white"
         id="stop136" />
      <stop
         offset="1"
         stop-color="#9CB8C3"
         id="stop137" />
    </radialGradient>
    <radialGradient
       id="paint25_radial_499_23171"
       cx="0"
       cy="0"
       r="1"
       gradientUnits="userSpaceOnUse"
       gradientTransform="matrix(113.532,0,0,113.535,86.4941,100.666)">
      <stop
         stop-color="white"
         id="stop138" />
      <stop
         offset="0.134409"
         stop-color="white"
         id="stop139" />
      <stop
         offset="1"
         stop-color="#9CB8C3"
         id="stop140" />
    </radialGradient>
    <radialGradient
       id="paint26_radial_499_23171"
       cx="0"
       cy="0"
       r="1"
       gradientUnits="userSpaceOnUse"
       gradientTransform="matrix(111.729,0,0,111.731,86.8153,104.022)">
      <stop
         stop-color="white"
         id="stop141" />
      <stop
         offset="0.134409"
         stop-color="white"
         id="stop142" />
      <stop
         offset="1"
         stop-color="#9CB8C3"
         id="stop143" />
    </radialGradient>
    <clipPath
       id="clip0_499_23171">
      <rect
         width="150"
         height="150"
         fill="#ffffff"
         id="rect143"
         x="0"
         y="0" />
    </clipPath>
  </defs>
  <circle
     style="fill:none;fill-opacity:1;stroke:#920721;stroke-width:14.527;stroke-linejoin:bevel;stroke-dasharray:none;stroke-opacity:1"
     id="path143"
     cy="79.331528"
     cx="79.331528"
     r="72.068024" />
</svg>
