<svg width="252" height="513" viewBox="0 0 252 513" fill="none" xmlns="http://www.w3.org/2000/svg">
<path fill-rule="evenodd" clip-rule="evenodd" d="M244.777 106.264H8.69336V6.05859H244.777V106.264Z" fill="#DCDCDC"/>
<path d="M244.777 106.265V105.202H9.75453V7.12185H243.715V106.265H244.777H245.84V4.99609H7.63086V107.328H245.84V106.265H244.777Z" fill="#42483D"/>
<path fill-rule="evenodd" clip-rule="evenodd" d="M126.736 15.0484C147.66 15.0484 164.622 11.0243 164.622 6.05859H88.8491C88.8491 11.0243 105.811 15.0484 126.736 15.0484Z" fill="#42483D"/>
<path fill-rule="evenodd" clip-rule="evenodd" d="M244.777 206.471H8.69336V106.265H244.777V206.471Z" fill="#DCDCDC"/>
<path d="M244.777 206.471V205.408H9.75453V107.328H243.715V206.471H244.777H245.84V105.202H7.63086V207.533H245.84V206.471H244.777Z" fill="#42483D"/>
<path fill-rule="evenodd" clip-rule="evenodd" d="M126.736 115.254C147.66 115.254 164.622 111.23 164.622 106.265H88.8491C88.8491 111.23 105.811 115.254 126.736 115.254Z" fill="#42483D"/>
<path fill-rule="evenodd" clip-rule="evenodd" d="M244.777 306.676H8.69336V206.471H244.777V306.676Z" fill="#DCDCDC"/>
<path d="M244.777 306.675V305.613H9.75453V207.532H243.715V306.675H244.777H245.84V205.407H7.63086V307.738H245.84V306.675H244.777Z" fill="#42483D"/>
<path fill-rule="evenodd" clip-rule="evenodd" d="M126.736 215.459C147.66 215.459 164.622 211.435 164.622 206.471H88.8491C88.8491 211.435 105.811 215.459 126.736 215.459Z" fill="#42483D"/>
<path fill-rule="evenodd" clip-rule="evenodd" d="M244.777 406.883H8.69336V306.677H244.777V406.883Z" fill="#DCDCDC"/>
<path d="M244.777 406.882V405.819H9.75453V307.739H243.715V406.882H244.777H245.84V305.613H7.63086V407.944H245.84V406.882H244.777Z" fill="#42483D"/>
<path fill-rule="evenodd" clip-rule="evenodd" d="M126.736 315.669C147.66 315.669 164.622 311.641 164.622 306.677H88.8491C88.8491 311.641 105.811 315.669 126.736 315.669Z" fill="#42483D"/>
<path fill-rule="evenodd" clip-rule="evenodd" d="M244.777 507.089H8.69336V406.883H244.777V507.089Z" fill="#DCDCDC"/>
<path d="M244.777 507.089V506.025H9.75453V407.945H243.715V507.089H244.777H245.84V405.819H7.63086V508.15H245.84V507.089H244.777Z" fill="#42483D"/>
<path fill-rule="evenodd" clip-rule="evenodd" d="M126.736 415.872C147.66 415.872 164.622 411.848 164.622 406.883H88.8491C88.8491 411.848 105.811 415.872 126.736 415.872Z" fill="#42483D"/>
<path d="M247.401 1H4.59889C2.61129 1 1 2.61129 1 4.59889V508.802C1 510.789 2.61129 512.401 4.59889 512.401H247.401C249.389 512.401 251 510.789 251 508.802V4.59889C251 2.61129 249.389 1 247.401 1Z" stroke="black" stroke-width="0.813477"/>
</svg>
