<?xml version="1.0" encoding="UTF-8" standalone="no"?>
<!-- Created with Inkscape (http://www.inkscape.org/) -->

<svg
   version="1.1"
   id="svg2"
   width="1066.6667"
   height="1066.6667"
   viewBox="0 0 1066.6667 1066.6667"
   sodipodi:docname="interior office.eps"
   xmlns:inkscape="http://www.inkscape.org/namespaces/inkscape"
   xmlns:sodipodi="http://sodipodi.sourceforge.net/DTD/sodipodi-0.dtd"
   xmlns="http://www.w3.org/2000/svg"
   xmlns:svg="http://www.w3.org/2000/svg">
  <defs
     id="defs6">
    <clipPath
       clipPathUnits="userSpaceOnUse"
       id="clipPath28">
      <path
         d="m 574.926,3765.18 h 1698.57 v 3200 H 574.926 Z"
         id="path26" />
    </clipPath>
    <clipPath
       clipPathUnits="userSpaceOnUse"
       id="clipPath236">
      <path
         d="m 3856.09,2541.72 c 0,-58.04 -47.05,-105.1 -105.09,-105.1 h -858.25 c -58.05,0 -105.09,47.06 -105.09,105.1 v 858.25 c 0,58.04 47.04,105.09 105.09,105.09 H 3751 c 58.04,0 105.09,-47.05 105.09,-105.09 v -858.25"
         id="path234" />
    </clipPath>
    <clipPath
       clipPathUnits="userSpaceOnUse"
       id="clipPath246">
      <path
         d="m 4237.04,2992.73 c 0,-505.43 -409.72,-915.17 -915.17,-915.17 -505.43,0 -915.18,409.74 -915.18,915.17 0,505.44 409.75,915.18 915.18,915.18 505.45,0 915.17,-409.74 915.17,-915.18"
         id="path244" />
    </clipPath>
    <clipPath
       clipPathUnits="userSpaceOnUse"
       id="clipPath312">
      <path
         d="m 3581.91,2914.57 c 0,0 -11.9,-159.35 -79.97,-269.06 -68.07,-109.71 -85.41,-157.19 30.34,-170.32 38.16,-4.33 74.88,-3.79 112.04,-3.25 75.53,1.1 152.86,2.19 247.78,-37.59 141.59,-59.32 90.95,39.15 97.89,100.16 6.91,61.02 49.33,216.91 111.16,271.7 61.86,54.8 30.08,101.67 -81.83,95.81 -111.91,-5.85 -239.78,11.15 -310.72,39.59 -70.94,28.44 -117.23,41.04 -126.69,-27.04"
         id="path310" />
    </clipPath>
    <clipPath
       clipPathUnits="userSpaceOnUse"
       id="clipPath344">
      <path
         d="m 3551.91,2944.57 c 0,0 -11.9,-159.35 -79.97,-269.06 -68.07,-109.71 -85.41,-157.19 30.33,-170.33 38.17,-4.32 74.89,-3.78 112.05,-3.24 75.53,1.1 152.86,2.19 247.78,-37.58 141.6,-59.33 90.95,39.14 97.89,100.15 6.91,61.02 49.33,216.91 111.16,271.7 61.86,54.8 30.08,101.67 -81.83,95.81 -111.91,-5.85 -239.78,11.15 -310.72,39.59 -70.94,28.44 -117.23,41.04 -126.69,-27.04"
         id="path342" />
    </clipPath>
  </defs>
  <sodipodi:namedview
     id="namedview4"
     pagecolor="#ffffff"
     bordercolor="#000000"
     borderopacity="0.25"
     inkscape:showpageshadow="2"
     inkscape:pageopacity="0.0"
     inkscape:pagecheckerboard="0"
     inkscape:deskcolor="#d1d1d1" />
  <g
     id="g8"
     inkscape:groupmode="layer"
     inkscape:label="ink_ext_XXXXXX"
     transform="matrix(1.3333333,0,0,-1.3333333,0,1066.6667)">
    <g
       id="g10"
       transform="scale(0.1)">
      <path
         d="M 0,0 H 8000 V 8000 H 0 Z"
         style="fill:#a1dfda;fill-opacity:1;fill-rule:nonzero;stroke:none"
         id="path12" />
      <path
         d="M 0,0 H 8000 V 1497 H 0 Z"
         style="fill:#93d8c9;fill-opacity:1;fill-rule:nonzero;stroke:none"
         id="path14" />
      <path
         d="M 0,1480.02 H 8000 V 1717.2 H 0 Z"
         style="fill:#d8f2f3;fill-opacity:1;fill-rule:nonzero;stroke:none"
         id="path16" />
      <path
         d="m 3415.92,1105.88 c 0,-31.07 -53.43,-56.25 -119.35,-56.25 -65.92,0 -119.36,25.18 -119.36,56.25 0,31.06 53.44,56.25 119.36,56.25 65.92,0 119.35,-25.19 119.35,-56.25"
         style="fill:#2e2d2d;fill-opacity:1;fill-rule:nonzero;stroke:none"
         id="path18" />
      <path
         d="m 574.926,3765.18 h 1698.57 v 3200 H 574.926 Z"
         style="fill:#edf8fd;fill-opacity:1;fill-rule:nonzero;stroke:none"
         id="path20" />
      <g
         id="g22">
        <g
           id="g24"
           clip-path="url(#clipPath28)">
          <path
             d="m 649.93,5642.14 v 427.16 h 381.36 L 649.93,5642.14 m 499.94,559.97 H 649.93 v 106.82 l 518.94,581.25 h 595.31 l -614.31,-688.07"
             style="fill:#f5fcfe;fill-opacity:1;fill-rule:nonzero;stroke:none"
             id="path30" />
          <path
             d="m 1515.72,3810.18 h -435.5 l 435.5,487.78 v -487.78 m 712.78,705.02 h -518.83 l 518.83,581.13 V 4515.2"
             style="fill:#f5fcfe;fill-opacity:1;fill-rule:nonzero;stroke:none"
             id="path32" />
          <path
             d="m 649.93,4035.13 v 85.61 L 2228.5,5888.86 v -85.63 L 649.93,4035.13"
             style="fill:#f5fcfe;fill-opacity:1;fill-rule:nonzero;stroke:none"
             id="path34" />
          <path
             d="m 649.93,4485.92 v 333.39 L 1765.92,6069.3 h 297.65 L 649.93,4485.92 m 1532.21,1716.19 h -297.65 l 344.01,385.31 v -333.39 l -46.36,-51.92"
             style="fill:#fafeff;fill-opacity:1;fill-rule:nonzero;stroke:none"
             id="path36" />
        </g>
      </g>
      <path
         d="M 1515.72,3690.18 H 559.926 v 30 h 955.794 v -30 m 832.78,825.02 h -30 v 2464.98 h 30 V 4515.2"
         style="fill:#4f7c8d;fill-opacity:1;fill-rule:nonzero;stroke:none"
         id="path38" />
      <path
         d="m 649.93,3810.18 h -30.004 v 191.35 l 30.004,33.6 v -224.95 m -30.004,276.96 v 365.17 l 30.004,33.61 v -365.18 l -30.004,-33.6 m 0,698.57 v 822.83 l 30.004,33.6 v -822.83 l -30.004,-33.6 M 2228.5,6069.3 h -164.93 l 26.79,30 h 138.14 v -30 m -462.58,0 h -734.63 l 26.79,30 h 734.63 l -26.79,-30"
         style="fill:#77839c;fill-opacity:1;fill-rule:nonzero;stroke:none"
         id="path40" />
      <path
         d="m 619.926,5608.54 v 490.76 h 438.154 l -26.79,-30 H 649.93 v -427.16 l -30.004,-33.6"
         style="fill:#7c859d;fill-opacity:1;fill-rule:nonzero;stroke:none"
         id="path42" />
      <path
         d="m 619.926,4001.53 v 85.61 l 30.004,33.6 v -85.61 l -30.004,-33.6"
         style="fill:#7c859d;fill-opacity:1;fill-rule:nonzero;stroke:none"
         id="path44" />
      <path
         d="m 619.926,4452.31 v 333.4 l 30.004,33.6 v -333.39 l -30.004,-33.61 M 2063.57,6069.3 h -297.65 l 26.79,30 h 297.65 l -26.79,-30"
         style="fill:#80879c;fill-opacity:1;fill-rule:nonzero;stroke:none"
         id="path46" />
      <path
         d="m 619.926,6275.32 v 644.86 h 575.734 l -26.79,-30 H 649.93 v -581.25 l -30.004,-33.61 M 2228.5,6890.18 h -464.32 l 26.78,30 h 437.54 v -30"
         style="fill:#77839c;fill-opacity:1;fill-rule:nonzero;stroke:none"
         id="path48" />
      <path
         d="m 649.93,6202.11 h -30.004 v 73.21 l 30.004,33.61 v -106.82 m 1114.25,688.07 h -595.31 l 26.79,30 h 595.3 l -26.78,-30"
         style="fill:#7c859d;fill-opacity:1;fill-rule:nonzero;stroke:none"
         id="path50" />
      <path
         d="M 619.926,3810.18 V 6099.3 H 2228.5 V 3810.18 H 619.926 m 1608.574,3110 V 6202.11 H 619.926 v 718.07 H 2228.5 m -1698.574,90 v -3290 H 2318.5 v 3290 H 529.926"
         style="fill:#663116;fill-opacity:1;fill-rule:nonzero;stroke:none"
         id="path52" />
      <path
         d="m 4645.11,1200.92 h 2885.64 v 5110.3 H 4645.11 Z"
         style="fill:#517988;fill-opacity:1;fill-rule:nonzero;stroke:none"
         id="path54" />
      <path
         d="m 6874.88,1312.49 h -672.73 v 835.22 h 672.73 v -835.22"
         style="fill:#1c1a18;fill-opacity:1;fill-rule:nonzero;stroke:none"
         id="path56" />
      <path
         d="m 6769.69,1443.09 h -462.33 v 573.99 h 462.33 v -573.99"
         style="fill:#fdfdde;fill-opacity:1;fill-rule:nonzero;stroke:none"
         id="path58" />
      <path
         d="m 6687.83,1544.71 h -298.64 v 370.79 h 298.64 v -370.79"
         style="fill:#fae171;fill-opacity:1;fill-rule:nonzero;stroke:none"
         id="path60" />
      <path
         d="m 7354.74,1311.6 h -438.07 v 543.86 h 438.07 V 1311.6"
         style="fill:#1c1a18;fill-opacity:1;fill-rule:nonzero;stroke:none"
         id="path62" />
      <path
         d="m 7286.22,1396.63 h -301.05 v 373.76 h 301.05 v -373.76"
         style="fill:#fdfdde;fill-opacity:1;fill-rule:nonzero;stroke:none"
         id="path64" />
      <path
         d="m 7232.92,1462.77 h -194.45 v 241.46 h 194.45 v -241.46"
         style="fill:#fae171;fill-opacity:1;fill-rule:nonzero;stroke:none"
         id="path66" />
      <path
         d="m 6701.41,5014.08 h -303.73 v 464.32 h 303.73 v -464.32"
         style="fill:#ffffff;fill-opacity:1;fill-rule:nonzero;stroke:none"
         id="path68" />
      <path
         d="m 6535.64,5502.67 c 0,-50.62 6.24,-91.65 13.88,-91.65 7.67,0 13.87,41.03 13.87,91.65 0,50.6 -6.2,91.63 -13.87,91.63 -7.64,0 -13.88,-41.03 -13.88,-91.63"
         style="fill:#ffffff;fill-opacity:1;fill-rule:nonzero;stroke:none"
         id="path70" />
      <path
         d="M 7058.83,5014.08 H 6755.1 v 464.32 h 303.73 v -464.32"
         style="fill:#ffffff;fill-opacity:1;fill-rule:nonzero;stroke:none"
         id="path72" />
      <path
         d="m 6893.09,5502.67 c 0,-50.62 6.21,-91.65 13.87,-91.65 7.64,0 13.86,41.03 13.86,91.65 0,50.6 -6.22,91.63 -13.86,91.63 -7.66,0 -13.87,-41.03 -13.87,-91.63"
         style="fill:#ffffff;fill-opacity:1;fill-rule:nonzero;stroke:none"
         id="path74" />
      <path
         d="m 5630.76,3743.14 -91.97,22.21 204.07,845.07 91.96,-22.18 -204.06,-845.1"
         style="fill:#e81d24;fill-opacity:1;fill-rule:nonzero;stroke:none"
         id="path76" />
      <path
         d="m 4797.81,3742.09 h 94.6211 v 869.391 H 4797.81 Z"
         style="fill:#fae171;fill-opacity:1;fill-rule:nonzero;stroke:none"
         id="path78" />
      <path
         d="m 4892.43,3742.09 h 94.6016 v 1000.4 H 4892.43 Z"
         style="fill:#868787;fill-opacity:1;fill-rule:nonzero;stroke:none"
         id="path80" />
      <path
         d="m 4987.03,3742.09 h 94.6094 v 767.641 H 4987.03 Z"
         style="fill:#2a4556;fill-opacity:1;fill-rule:nonzero;stroke:none"
         id="path82" />
      <path
         d="m 5081.65,3742.09 h 94.6211 v 869.391 H 5081.65 Z"
         style="fill:#dc1e25;fill-opacity:1;fill-rule:nonzero;stroke:none"
         id="path84" />
      <path
         d="m 5155.5,3742.09 h 94.6016 v 869.391 H 5155.5 Z"
         style="fill:#fae171;fill-opacity:1;fill-rule:nonzero;stroke:none"
         id="path86" />
      <path
         d="m 5250.1,3742.09 h 94.6289 v 1000.4 H 5250.1 Z"
         style="fill:#862595;fill-opacity:1;fill-rule:nonzero;stroke:none"
         id="path88" />
      <path
         d="m 5344.73,3742.09 h 94.5898 v 767.641 H 5344.73 Z"
         style="fill:#4560b6;fill-opacity:1;fill-rule:nonzero;stroke:none"
         id="path90" />
      <path
         d="m 5439.36,3742.09 h 94.5898 v 869.391 H 5439.36 Z"
         style="fill:#f0431d;fill-opacity:1;fill-rule:nonzero;stroke:none"
         id="path92" />
      <path
         d="m 5833.06,3742.09 h 94.6094 v 869.391 H 5833.06 Z"
         style="fill:#f8e005;fill-opacity:1;fill-rule:nonzero;stroke:none"
         id="path94" />
      <path
         d="m 6093.37,2532.16 h 226.52 v 728.57 h -226.52 z"
         style="fill:#1c1a18;fill-opacity:1;fill-rule:nonzero;stroke:none"
         id="path96" />
      <path
         d="m 6130.1,2717.67 h 153.027 v 492.238 H 6130.1 Z"
         style="fill:#fdfdde;fill-opacity:1;fill-rule:nonzero;stroke:none"
         id="path98" />
      <path
         d="m 6247.44,2617.88 c 0,-22.55 -18.28,-40.83 -40.82,-40.83 -22.54,0 -40.81,18.28 -40.81,40.83 0,22.52 18.27,40.83 40.81,40.83 22.54,0 40.82,-18.31 40.82,-40.83"
         style="fill:#201e1d;fill-opacity:1;fill-rule:nonzero;stroke:none"
         id="path100" />
      <path
         d="m 6247.44,2617.88 h -5 c -0.03,-19.78 -16.04,-35.79 -35.82,-35.83 -19.77,0.04 -35.77,16.05 -35.81,35.83 0,9.9 4,18.82 10.49,25.33 6.5,6.49 15.42,10.5 25.32,10.5 9.9,0 18.83,-4.01 25.33,-10.5 6.49,-6.51 10.49,-15.43 10.49,-25.33 h 5 5 c -0.01,25.29 -20.51,45.83 -45.82,45.83 -25.31,0 -45.81,-20.55 -45.81,-45.83 0,-25.31 20.51,-45.82 45.81,-45.83 25.31,0.01 45.82,20.52 45.82,45.83 h -5"
         style="fill:#b9b8b7;fill-opacity:1;fill-rule:nonzero;stroke:none"
         id="path102" />
      <path
         d="m 7005.71,2532.16 h -226.52 v 728.57 h 226.52 v -728.57"
         style="fill:#1c1a18;fill-opacity:1;fill-rule:nonzero;stroke:none"
         id="path104" />
      <path
         d="m 6968.98,2717.67 h -153.05 v 492.24 h 153.05 v -492.24"
         style="fill:#fdfdde;fill-opacity:1;fill-rule:nonzero;stroke:none"
         id="path106" />
      <path
         d="m 6933.28,2617.88 c 0,-22.55 -18.28,-40.83 -40.82,-40.83 -22.56,0 -40.84,18.28 -40.84,40.83 0,22.52 18.28,40.83 40.84,40.83 22.54,0 40.82,-18.31 40.82,-40.83"
         style="fill:#201e1d;fill-opacity:1;fill-rule:nonzero;stroke:none"
         id="path108" />
      <path
         d="m 6933.28,2617.88 h -5 c -0.03,-19.78 -16.04,-35.79 -35.82,-35.83 -19.8,0.04 -35.8,16.05 -35.84,35.83 0,9.89 4,18.82 10.5,25.33 6.5,6.49 15.43,10.5 25.34,10.5 9.9,0 18.83,-4.01 25.33,-10.5 6.49,-6.51 10.49,-15.44 10.49,-25.33 h 5 5 c 0,25.29 -20.51,45.82 -45.82,45.83 -25.32,0 -45.83,-20.54 -45.84,-45.83 0,-25.31 20.52,-45.83 45.84,-45.83 25.3,0.01 45.82,20.52 45.82,45.83 h -5"
         style="fill:#b9b8b7;fill-opacity:1;fill-rule:nonzero;stroke:none"
         id="path110" />
      <path
         d="m 6552.67,2532.16 h -226.54 v 728.57 h 226.54 v -728.57"
         style="fill:#ee6b7f;fill-opacity:1;fill-rule:nonzero;stroke:none"
         id="path112" />
      <path
         d="m 6515.92,2717.67 h -153.04 v 492.24 h 153.04 v -492.24"
         style="fill:#fdfdde;fill-opacity:1;fill-rule:nonzero;stroke:none"
         id="path114" />
      <path
         d="m 6480.21,2617.88 c 0,-22.55 -18.28,-40.83 -40.82,-40.83 -22.54,0 -40.83,18.28 -40.83,40.83 0,22.52 18.29,40.83 40.83,40.83 22.54,0 40.82,-18.31 40.82,-40.83"
         style="fill:#201e1d;fill-opacity:1;fill-rule:nonzero;stroke:none"
         id="path116" />
      <path
         d="m 6480.21,2617.88 h -5 c -0.03,-19.78 -16.04,-35.79 -35.82,-35.83 -19.78,0.04 -35.79,16.05 -35.83,35.83 0.01,9.89 4.01,18.82 10.5,25.33 6.5,6.49 15.43,10.5 25.33,10.5 9.91,0 18.83,-4.01 25.33,-10.5 6.49,-6.51 10.49,-15.44 10.49,-25.33 h 5 5 c 0,25.29 -20.51,45.82 -45.82,45.83 -25.31,-0.01 -45.82,-20.54 -45.83,-45.83 0.01,-25.31 20.52,-45.83 45.83,-45.83 25.31,0.01 45.82,20.52 45.82,45.83 h -5"
         style="fill:#b9b8b7;fill-opacity:1;fill-rule:nonzero;stroke:none"
         id="path118" />
      <path
         d="m 6779.19,2532.16 h -226.52 v 728.57 h 226.52 v -728.57"
         style="fill:#ee6b7f;fill-opacity:1;fill-rule:nonzero;stroke:none"
         id="path120" />
      <path
         d="m 6742.43,2717.67 h -153.02 v 492.24 h 153.02 v -492.24"
         style="fill:#fdfdde;fill-opacity:1;fill-rule:nonzero;stroke:none"
         id="path122" />
      <path
         d="m 6706.75,2617.88 c 0,-22.55 -18.27,-40.83 -40.83,-40.83 -22.52,0 -40.81,18.28 -40.81,40.83 0,22.52 18.29,40.83 40.81,40.83 22.56,0 40.83,-18.31 40.83,-40.83"
         style="fill:#201e1d;fill-opacity:1;fill-rule:nonzero;stroke:none"
         id="path124" />
      <path
         d="m 6706.75,2617.88 h -5 c -0.04,-19.79 -16.04,-35.79 -35.83,-35.83 -9.9,0 -18.82,4 -25.32,10.5 -6.49,6.5 -10.49,15.42 -10.49,25.33 0,9.89 4,18.82 10.49,25.33 6.51,6.49 15.43,10.5 25.32,10.5 9.91,0 18.84,-4.01 25.34,-10.5 6.49,-6.51 10.49,-15.44 10.49,-25.33 h 5 5 c -0.01,25.28 -20.51,45.83 -45.83,45.83 -25.29,-0.01 -45.81,-20.54 -45.81,-45.83 0,-25.31 20.52,-45.82 45.81,-45.83 25.32,0 45.82,20.52 45.83,45.83 h -5"
         style="fill:#b9b8b7;fill-opacity:1;fill-rule:nonzero;stroke:none"
         id="path126" />
      <path
         d="M 4702.74,4985.4 H 6087.92 V 6228.72 H 4702.74 Z"
         style="fill:#cbce49;fill-opacity:1;fill-rule:nonzero;stroke:none"
         id="path128" />
      <path
         d="M 5586.22,5934.66 H 5227.5 v 87.39 h 358.72 v -87.39"
         style="fill:#fcfcfd;fill-opacity:1;fill-rule:nonzero;stroke:none"
         id="path130" />
      <path
         d="M 4647.53,1255.47 H 6050.16 V 2498.78 H 4647.53 Z"
         style="fill:#cbce49;fill-opacity:1;fill-rule:nonzero;stroke:none"
         id="path132" />
      <path
         d="M 5586.22,2204.73 H 5227.5 v 87.38 h 358.72 v -87.38"
         style="fill:#fcfcfd;fill-opacity:1;fill-rule:nonzero;stroke:none"
         id="path134" />
      <path
         d="M 6050.16,3742.09 H 7551.69 V 4985.4 H 6050.16 Z"
         style="fill:#d6a34d;fill-opacity:1;fill-rule:nonzero;stroke:none"
         id="path136" />
      <path
         d="M 6969.73,4691.34 H 6611 v 87.4 h 358.73 v -87.4"
         style="fill:#fcfcfd;fill-opacity:1;fill-rule:nonzero;stroke:none"
         id="path138" />
      <path
         d="m 6157.09,1270.92 h -106.93 v 12.05 h 76.93 v 1145.98 h 1333.66 v -30.01 H 6157.09 V 1270.92 m 0,1260.58 h -30 v 0.66 h 30 v -0.66 m 0,729.23 h -30 v 416.75 h 1333.66 v -30 H 6157.09 v -386.75 m -146.37,386.75 H 4775.11 v 30 h 1235.61 v -30 m 0,1248.54 H 4775.11 v 30 h 1235.61 v -30 m 146.37,132.57 h -30 v 1152.63 h 30 V 5028.59"
         style="fill:#2c3e4f;fill-opacity:1;fill-rule:nonzero;stroke:none"
         id="path140" />
      <path
         d="m 6157.09,2532.16 h -30 v 728.57 h 30 v -50.82 h -26.99 v -492.24 h 26.99 v -185.51"
         style="fill:#161413;fill-opacity:1;fill-rule:nonzero;stroke:none"
         id="path142" />
      <path
         d="m 6130.1,2717.67 h 26.9883 v 492.238 H 6130.1 Z"
         style="fill:#838986;fill-opacity:1;fill-rule:nonzero;stroke:none"
         id="path144" />
      <path
         d="m 6050.16,1270.92 h -9.44 v 12.05 h 9.44 v -12.05 m -39.44,1128.02 H 4775.11 v 30.01 h 1235.61 v -30.01"
         style="fill:#676d34;fill-opacity:1;fill-rule:nonzero;stroke:none"
         id="path146" />
      <path
         d="m 6157.09,3780.08 h -30 v 1145.94 h 1333.66 v -30 H 6157.09 V 3780.08"
         style="fill:#6c5534;fill-opacity:1;fill-rule:nonzero;stroke:none"
         id="path148" />
      <path
         d="M 7472.72,3780.08 H 6127.09 V 4926.02 H 7472.72 V 3780.08 m 0,-1248.58 H 6127.09 V 3677.48 H 7472.72 V 2531.5 m 116.36,0 v 1145.98 102.6 1145.94 102.57 V 6350 H 7472.72 V 5028.59 H 6127.09 V 6350 H 6010.72 V 5028.59 H 4728.13 V 4926.02 H 6010.72 V 3780.08 H 4728.13 v -102.6 H 6010.72 V 2531.5 H 4728.16 V 2428.95 H 6010.72 V 1282.97 h 116.37 V 2428.95 H 7472.72 V 1282.97 h 116.36 v 1145.98 102.55"
         style="fill:#ffffff;fill-opacity:1;fill-rule:nonzero;stroke:none"
         id="path150" />
      <path
         d="m 7660.75,1717.2 h -41.67 V 6320 h -30 v 30 h -116.36 v -38.78 H 6157.09 v 8.78 h -30 v 30 h -116.37 v -38.78 H 4645.11 V 1717.2 h -70 V 6381.22 H 7660.75 V 1717.2"
         style="fill:#4f7c8d;fill-opacity:1;fill-rule:nonzero;stroke:none"
         id="path152" />
      <path
         d="M 7660.75,1070.92 H 4575.11 v 409.1 h 70 v -279.1 h 2885.64 v 52.05 h 30 v -82.05 82.05 h 58.33 v 227.05 h 41.67 v -309.1 -100"
         style="fill:#4a707e;fill-opacity:1;fill-rule:nonzero;stroke:none"
         id="path154" />
      <path
         d="m 7660.75,1480.02 h -41.67 v 237.18 h 41.67 v -237.18 m -3015.64,0 h -70 v 237.18 h 70 v -237.18"
         style="fill:#6b8698;fill-opacity:1;fill-rule:nonzero;stroke:none"
         id="path156" />
      <path
         d="M 7530.75,1200.92 H 4645.11 v 5110.3 h 1365.61 v -82.5 H 4702.74 V 4985.4 h 25.39 v -59.38 h 29.99 v -30 h 16.99 V 3780.08 h -46.98 v -102.6 h 29.99 v -30 h 16.99 V 2531.5 h -46.95 v -32.72 h -80.63 V 1255.47 h 1393.19 v -2.5 h 116.37 v 17.95 h 1303.66 v 1128.02 h 11.97 V 1282.97 h 30 v -30 h 28.03 v -52.05 m -58.03,3827.67 h -11.97 V 6181.22 H 6157.09 v 130 H 7472.72 V 5028.59"
         style="fill:#2c3e4f;fill-opacity:1;fill-rule:nonzero;stroke:none"
         id="path158" />
      <path
         d="m 4728.13,4985.4 h -25.39 v 1243.32 h 1307.98 v -47.5 H 4775.11 V 5028.59 h -46.98 v -43.19"
         style="fill:#676d34;fill-opacity:1;fill-rule:nonzero;stroke:none"
         id="path160" />
      <path
         d="M 6040.72,1255.47 H 4647.53 v 1243.31 h 80.63 v -69.83 h 30 v -30.01 h 16.95 V 1270.92 h 1265.61 v -15.45"
         style="fill:#676d34;fill-opacity:1;fill-rule:nonzero;stroke:none"
         id="path162" />
      <path
         d="m 7619.08,1717.2 h -30 V 6320 h 30 V 4998.59 4896.02 3750.08 3647.48 2501.5 2398.94 1717.2 M 6157.09,6311.22 h -30 v 8.78 h 30 v -8.78"
         style="fill:#2b4053;fill-opacity:1;fill-rule:nonzero;stroke:none"
         id="path164" />
      <path
         d="m 7619.08,1252.97 h -58.33 v 17.95 -17.95 h -30 v 30 h 58.33 v 197.05 h 30 v -227.05"
         style="fill:#293a49;fill-opacity:1;fill-rule:nonzero;stroke:none"
         id="path166" />
      <path
         d="m 7589.08,1480.02 h 30 v 237.18 h -30 z"
         style="fill:#384559;fill-opacity:1;fill-rule:nonzero;stroke:none"
         id="path168" />
      <path
         d="m 7530.75,1252.97 h -28.03 v 30 h 28.03 v -30 m -1373.66,0 h -116.37 v 2.5 h 9.44 v 15.45 h 106.93 v -17.95 m 1315.63,1145.97 h -11.97 v 30.01 h 11.97 v -30.01 M 4775.11,3647.48 h -16.99 v 30 h 16.99 v -30 m 0,1248.54 h -16.99 v 30 h 16.99 v -30 m 1381.98,1285.2 h -30 v 130 h 30 v -130"
         style="fill:#1b232e;fill-opacity:1;fill-rule:nonzero;stroke:none"
         id="path170" />
      <path
         d="m 6050.16,1255.47 h -9.44 v 15.45 h 9.44 v -15.45 M 4775.11,2398.94 h -16.95 v 30.01 h 16.95 v -30.01"
         style="fill:#363822;fill-opacity:1;fill-rule:nonzero;stroke:none"
         id="path172" />
      <path
         d="m 7460.75,2531.5 h 11.9688 V 3647.48 H 7460.75 Z"
         style="fill:#2c3e4f;fill-opacity:1;fill-rule:nonzero;stroke:none"
         id="path174" />
      <path
         d="m 7460.75,3647.48 h 11.9688 v 30 H 7460.75 Z"
         style="fill:#1b232e;fill-opacity:1;fill-rule:nonzero;stroke:none"
         id="path176" />
      <path
         d="m 7460.75,3780.08 h 11.9688 V 4896.02 H 7460.75 Z"
         style="fill:#6c5534;fill-opacity:1;fill-rule:nonzero;stroke:none"
         id="path178" />
      <path
         d="m 7460.75,4896.02 h 11.9688 v 30 H 7460.75 Z"
         style="fill:#382d22;fill-opacity:1;fill-rule:nonzero;stroke:none"
         id="path180" />
      <path
         d="m 7589.08,1282.97 h -116.36 v 1145.98 h -11.97 v 102.55 h 11.97 v 1115.98 30 h -11.97 v 102.6 h 11.97 v 1115.94 30 h -11.97 v 102.57 h 11.97 V 6311.22 6350 h 116.36 V 6320 5028.59 4926.02 3780.08 3677.48 2531.5 2428.95 1717.2 1480.02 1282.97 M 4775.11,2428.95 h -16.95 -30 v 69.83 32.72 h 46.95 v -102.55 m 0,1248.53 h -16.99 -29.99 v 102.6 h 46.98 v -102.6 m 0,1248.54 h -16.99 -29.99 v 59.38 43.19 h 46.98 v -102.57 m 1351.98,1255.2 h -116.37 v 47.5 82.5 38.78 h 116.37 v -30 -8.78 -130"
         style="fill:#83899c;fill-opacity:1;fill-rule:nonzero;stroke:none"
         id="path182" />
      <path
         d="m 7530.75,1200.92 v 100 H 4745.11 v 4910.3 h 2685.64 v -5010.3 h 100 v 100 -100 h 100 v 5210.3 H 4545.11 v -5310.3 h 3085.64 v 100 h -100"
         style="fill:#ffffff;fill-opacity:1;fill-rule:nonzero;stroke:none"
         id="path184" />
      <path
         d="m 2406.69,2799.02 h 254.758 v 519.711 H 2406.69 Z"
         style="fill:#ffffff;fill-opacity:1;fill-rule:nonzero;stroke:none"
         id="path186" />
      <path
         d="m 2787.66,3288.73 h -126.21 v 30 h -254.76 v -30 h -890.97 v 401.45 H 2348.5 V 4515.2 H 3612.43 V 3505.06 h -719.68 c -58.05,0 -105.09,-47.05 -105.09,-105.09 v -111.24"
         style="fill:#4f7c8d;fill-opacity:1;fill-rule:nonzero;stroke:none"
         id="path188" />
      <path
         d="m 2228.5,3810.18 h -552.97 l 552.97,619.37 v -619.37 m -712.78,487.78 v 217.24 h 193.95 l -193.95,-217.24"
         style="fill:#77839c;fill-opacity:1;fill-rule:nonzero;stroke:none"
         id="path190" />
      <path
         d="m 1675.53,3810.18 h -159.81 v 487.78 l 193.95,217.24 h 518.83 v -85.65 l -552.97,-619.37"
         style="fill:#7c859d;fill-opacity:1;fill-rule:nonzero;stroke:none"
         id="path192" />
      <path
         d="m 2348.5,3690.18 h -832.78 v 30 h 802.78 v 795.02 h 30 v -825.02"
         style="fill:#2b4053;fill-opacity:1;fill-rule:nonzero;stroke:none"
         id="path194" />
      <path
         d="m 2318.5,3720.18 h -802.78 v 90 h 712.78 v 619.37 85.65 h 90 v -795.02"
         style="fill:#321d14;fill-opacity:1;fill-rule:nonzero;stroke:none"
         id="path196" />
      <path
         d="m 2406.69,3288.73 h 254.758 v 30 H 2406.69 Z"
         style="fill:#83899c;fill-opacity:1;fill-rule:nonzero;stroke:none"
         id="path198" />
      <path
         d="M 3582.43,3318.73 H 1485.72 V 4545.2 H 3582.43 V 3318.73"
         style="fill:#ffffff;fill-opacity:1;fill-rule:nonzero;stroke:none"
         id="path200" />
      <path
         d="m 3515.82,3357.7 h -1963.5 v 1148.54 h 1963.5 V 3357.7"
         style="fill:#333230;fill-opacity:1;fill-rule:nonzero;stroke:none"
         id="path202" />
      <path
         d="M 3442.61,3414.54 H 1625.54 V 4449.38 H 3442.61 V 3414.54"
         style="fill:#def2f9;fill-opacity:1;fill-rule:nonzero;stroke:none"
         id="path204" />
      <path
         d="m 1231.81,3817.48 c -11.45,-51.76 -40.87,-93.32 -79.05,-126.16 0.12,45.18 0.23,90.38 0.35,135.57 0.22,89.68 6.24,213.01 -72.09,275.65 -38.97,31.16 -79.96,31.16 -118.934,0 C 883.762,4039.9 889.77,3916.57 890,3826.89 c 0.234,-92.24 0.469,-184.48 0.703,-276.7 0.039,-15.34 0.02,-30.67 -0.012,-46 -12.433,5.55 -24.336,12.5 -35.207,19.35 -31.136,19.65 -39.847,34.83 -49.699,57.06 -34.242,77.22 -154.601,21.48 -133.367,-56.23 22.969,-84.05 128.523,-129.52 218.406,-134.32 0.36,-38.79 1.219,-77.56 3.293,-116.27 2.461,-45.84 1.254,-115.84 29.836,-155.25 25.524,-35.2 69.469,-81.63 119.697,-62.27 99.32,38.28 101.47,145.45 106.39,237.21 4.54,84.7 2.59,170.04 2.43,254.94 104.76,28.26 200.38,136.87 232.15,226.94 34,96.37 -130.64,142.29 -152.81,42.13"
         style="fill:#70912a;fill-opacity:1;fill-rule:nonzero;stroke:none"
         id="path206" />
      <path
         d="M 1291.24,3323.28 H 767.914 c -19.812,0 -35.879,-13.59 -35.879,-30.36 0,-16.77 16.067,-30.35 35.879,-30.35 h 47.645 V 2883.23 H 1243.6 v 379.34 h 47.64 c 19.81,0 35.88,13.58 35.88,30.35 0,16.77 -16.07,30.36 -35.88,30.36"
         style="fill:#ffffff;fill-opacity:1;fill-rule:nonzero;stroke:none"
         id="path208" />
      <path
         d="m 337.848,2799.02 h 3972.78 v 82.3711 H 337.848 Z"
         style="fill:#378690;fill-opacity:1;fill-rule:nonzero;stroke:none"
         id="path210" />
      <path
         d="M 1922.62,1045.38 H 574.926 V 2720.26 H 1922.62 V 1045.38"
         style="fill:#378690;fill-opacity:1;fill-rule:nonzero;stroke:none"
         id="path212" />
      <path
         d="m 4126.99,1045.38 h 122.477 V 2840.21 H 4126.99 Z"
         style="fill:#378690;fill-opacity:1;fill-rule:nonzero;stroke:none"
         id="path214" />
      <path
         d="M 517.48,1045.38 H 395 V 2840.21 H 517.48 V 1045.38"
         style="fill:#378690;fill-opacity:1;fill-rule:nonzero;stroke:none"
         id="path216" />
      <path
         d="m 1457.9,2498.78 h -418.25 v 78.27 h 418.25 v -78.27"
         style="fill:#204e4f;fill-opacity:1;fill-rule:nonzero;stroke:none"
         id="path218" />
      <path
         d="m 1457.9,1876.37 h -418.25 v 78.27 h 418.25 v -78.27"
         style="fill:#204e4f;fill-opacity:1;fill-rule:nonzero;stroke:none"
         id="path220" />
      <path
         d="m 1457.9,1272.46 h -418.25 v 78.27 h 418.25 v -78.27"
         style="fill:#204e4f;fill-opacity:1;fill-rule:nonzero;stroke:none"
         id="path222" />
      <path
         d="m 2845.37,1105.88 c 0,-31.07 -53.44,-56.25 -119.36,-56.25 -65.92,0 -119.35,25.18 -119.35,56.25 0,31.06 53.43,56.25 119.35,56.25 65.92,0 119.36,-25.19 119.36,-56.25"
         style="fill:#2e2d2d;fill-opacity:1;fill-rule:nonzero;stroke:none"
         id="path224" />
      <path
         d="m 3461.44,2087.25 c 0,-71.08 -57.62,-128.7 -128.69,-128.7 -71.08,0 -128.69,57.62 -128.69,128.7 0,71.07 57.61,128.69 128.69,128.69 71.07,0 128.69,-57.62 128.69,-128.69"
         style="fill:#2e2d2d;fill-opacity:1;fill-rule:nonzero;stroke:none"
         id="path226" />
      <path
         d="m 3856.09,2541.72 c 0,-58.04 -47.05,-105.1 -105.09,-105.1 h -858.25 c -58.05,0 -105.09,47.06 -105.09,105.1 v 858.25 c 0,58.04 47.04,105.09 105.09,105.09 H 3751 c 58.04,0 105.09,-47.05 105.09,-105.09 v -858.25"
         style="fill:#dc313f;fill-opacity:1;fill-rule:nonzero;stroke:none"
         id="path228" />
      <g
         id="g230">
        <g
           id="g232"
           clip-path="url(#clipPath236)">
          <path
             d="m 3451.8,2509.6 h -659.14 c -0.64,1.99 -1.22,4 -1.74,6.03 29.55,243.73 255.99,433.31 530.95,433.31 93.25,0 180.93,-21.81 257.23,-60.13 -6.42,-49.54 -25.81,-160.54 -77.16,-243.3 -40.65,-65.52 -63.21,-108.84 -50.14,-135.91"
             style="fill:#d0323e;fill-opacity:1;fill-rule:nonzero;stroke:none"
             id="path238" />
        </g>
      </g>
      <g
         id="g240">
        <g
           id="g242"
           clip-path="url(#clipPath246)">
          <path
             d="m 4042.92,2238.62 c 0,-313.05 -322.82,-566.83 -721.05,-566.83 -398.22,0 -721.03,253.78 -721.03,566.83 0,313.05 322.81,249.1 721.03,249.1 398.23,0 721.05,63.95 721.05,-249.1"
             style="fill:#c72f3a;fill-opacity:1;fill-rule:nonzero;stroke:none"
             id="path248" />
        </g>
      </g>
      <path
         d="m 4037.1,2428.86 c 0,-44.59 -36.15,-80.74 -80.76,-80.74 H 2687.4 c -44.6,0 -80.74,36.15 -80.74,80.74 0,44.6 36.14,80.74 80.74,80.74 h 1268.94 c 44.61,0 80.76,-36.14 80.76,-80.74"
         style="fill:#dc313f;fill-opacity:1;fill-rule:nonzero;stroke:none"
         id="path250" />
      <path
         d="m 4072.2,1105.88 c 0,-31.07 -53.44,-56.25 -119.36,-56.25 -65.92,0 -119.36,25.18 -119.36,56.25 0,31.06 53.44,56.25 119.36,56.25 65.92,0 119.36,-25.19 119.36,-56.25"
         style="fill:#2e2d2d;fill-opacity:1;fill-rule:nonzero;stroke:none"
         id="path252" />
      <path
         d="m 2747.5,1086.98 125.49,269.79 v 6.64 h -22.34 l 18.72,-12.39 c 1.7,2.46 3.67,7.15 3.62,12.39 h -22.34 l 18.72,-12.39 -12.62,8.36 9.4,-11.99 c 0.51,0.42 1.71,1.38 3.22,3.63 l -12.62,8.36 9.4,-11.99 -2.8,3.57 2.44,-3.83 0.36,0.26 -2.8,3.57 2.44,-3.83 c 0,0.02 1.49,0.85 3.95,1.69 3.72,1.3 9.57,2.73 16.51,3.7 6.97,0.99 15.07,1.58 23.67,1.58 h 853.3 c 15.91,0.05 30.37,-2.16 38.45,-4.72 2,-0.62 3.57,-1.23 4.55,-1.68 l 1.11,-0.57 6.41,10 -9.36,-7 c 1.86,-2.42 2.95,-2.96 2.95,-3 l 6.41,10 -9.36,-7 16.69,12.47 -19.51,-7.22 c 0.85,-2.3 1.91,-4.03 2.82,-5.25 l 16.69,12.47 -19.51,-7.22 21.71,8.03 h -23.14 c -0.01,-2.89 0.57,-5.75 1.43,-8.03 l 21.71,8.03 h -23.14 v -6.64 l 125.51,-269.79 54.4,25.3 -122.71,263.78 -27.2,-12.65 h 30 c 0.05,8.09 -2.85,15.57 -6.34,20.73 -3.07,4.6 -6.48,7.85 -9.79,10.46 -5.82,4.52 -11.54,7.28 -17.52,9.64 -8.95,3.46 -18.59,5.76 -29.18,7.4 -10.57,1.6 -22.03,2.46 -34.08,2.46 h -853.3 c -21.05,-0.05 -40.05,-2.47 -56.19,-7.4 -8.12,-2.58 -15.59,-5.57 -23.18,-11.02 -3.77,-2.78 -7.7,-6.28 -11.21,-11.54 -3.49,-5.16 -6.39,-12.64 -6.35,-20.73 h 30 l -27.2,12.65 -122.69,-263.78 54.4,-25.3"
         style="fill:#2e2d2d;fill-opacity:1;fill-rule:nonzero;stroke:none"
         id="path254" />
      <path
         d="m 3368.71,1065.88 h -66.84 v 898.67 h 66.84 v -898.67"
         style="fill:#2e2d2d;fill-opacity:1;fill-rule:nonzero;stroke:none"
         id="path256" />
      <path
         d="m 3395.82,6122.51 c -312.77,0 -566.32,253.55 -566.32,566.31 0,312.77 253.55,566.32 566.32,566.32 312.76,0 566.31,-253.55 566.31,-566.32 0,-312.76 -253.55,-566.31 -566.31,-566.31"
         style="fill:#4f7c8d;fill-opacity:1;fill-rule:nonzero;stroke:none"
         id="path258" />
      <path
         d="m 3932.13,6718.82 c 0,-312.76 -253.55,-566.31 -566.31,-566.31 -312.77,0 -566.32,253.55 -566.32,566.31 0,312.77 253.55,566.32 566.32,566.32 312.76,0 566.31,-253.55 566.31,-566.32"
         style="fill:#dc313f;fill-opacity:1;fill-rule:nonzero;stroke:none"
         id="path260" />
      <path
         d="m 3829.01,6718.82 c 0,-277.91 -225.28,-503.2 -503.19,-503.2 -277.92,0 -503.21,225.29 -503.21,503.2 0,277.92 225.29,503.22 503.21,503.22 277.91,0 503.19,-225.3 503.19,-503.22"
         style="fill:#ffffff;fill-opacity:1;fill-rule:nonzero;stroke:none"
         id="path262" />
      <path
         d="m 3455.28,6871.69 c -71.46,-107.36 -133.09,-191.93 -137.65,-188.9 -4.56,3.04 49.66,92.53 121.13,199.9 71.46,107.36 140.35,193.67 137.65,188.91 -59.27,-104.72 -49.67,-92.54 -121.13,-199.91"
         style="fill:#1c1a18;fill-opacity:1;fill-rule:nonzero;stroke:none"
         id="path264" />
      <path
         d="m 3237,6791.21 c 41.03,-61.64 76.41,-110.19 79.03,-108.45 2.62,1.74 -28.52,53.12 -69.54,114.76 -41.03,61.64 -76.41,110.19 -79.03,108.45 -2.62,-1.74 28.52,-53.12 69.54,-114.76"
         style="fill:#1c1a18;fill-opacity:1;fill-rule:nonzero;stroke:none"
         id="path266" />
      <path
         d="m 3362.67,6684.45 c 0,-23.65 -19.17,-42.83 -42.83,-42.83 -23.65,0 -42.83,19.18 -42.83,42.83 0,23.66 19.18,42.84 42.83,42.84 23.66,0 42.83,-19.18 42.83,-42.84"
         style="fill:#1c1a18;fill-opacity:1;fill-rule:nonzero;stroke:none"
         id="path268" />
      <path
         d="m 2676.12,4778.74 h 1486.01 v 970.797 H 2676.12 Z"
         style="fill:#f6ec91;fill-opacity:1;fill-rule:nonzero;stroke:none"
         id="path270" />
      <path
         d="M 4225.89,4712.49 H 2650.3 v 30 H 4195.89 V 5770 h 30 V 4712.49"
         style="fill:#4f7c8d;fill-opacity:1;fill-rule:nonzero;stroke:none"
         id="path272" />
      <path
         d="m 2725.21,4812.49 h -30 V 5730 h 1425.77 v -30 H 2725.21 v -887.51"
         style="fill:#7d7d5b;fill-opacity:1;fill-rule:nonzero;stroke:none"
         id="path274" />
      <path
         d="M 4120.98,4812.49 H 2695.21 V 5730 H 4120.98 V 4812.49 M 2620.3,5800 V 4742.49 H 4195.89 V 5800 H 2620.3"
         style="fill:#d6a34d;fill-opacity:1;fill-rule:nonzero;stroke:none"
         id="path276" />
      <path
         d="m 3274.81,5193.21 -248.5,35.43 35.42,248.5 248.5,-35.42 -35.42,-248.51"
         style="fill:#7d7d5b;fill-opacity:1;fill-rule:nonzero;stroke:none"
         id="path278" />
      <path
         d="m 3244.81,5223.21 -248.5,35.43 35.42,248.5 248.5,-35.42 -35.42,-248.51"
         style="fill:#fabddb;fill-opacity:1;fill-rule:nonzero;stroke:none"
         id="path280" />
      <path
         d="m 3572.3,4900.22 -238.87,77.15 77.16,238.87 238.86,-77.16 -77.15,-238.86"
         style="fill:#7d7d5b;fill-opacity:1;fill-rule:nonzero;stroke:none"
         id="path282" />
      <path
         d="m 3542.29,4930.21 -238.86,77.16 77.16,238.87 238.86,-77.16 -77.16,-238.87"
         style="fill:#d1edba;fill-opacity:1;fill-rule:nonzero;stroke:none"
         id="path284" />
      <path
         d="m 3717.6,5257.14 -89.35,234.58 234.56,89.35 89.36,-234.57 -234.57,-89.36"
         style="fill:#7d7d5b;fill-opacity:1;fill-rule:nonzero;stroke:none"
         id="path286" />
      <path
         d="m 3922.17,5376.5 -234.57,-89.36 -89.35,234.58 234.56,89.35 89.36,-234.57"
         style="fill:#d5eefb;fill-opacity:1;fill-rule:nonzero;stroke:none"
         id="path288" />
      <path
         d="m 1405.79,5860.78 h 40 V 7960 h -40 z"
         style="fill:#1d1d1b;fill-opacity:1;fill-rule:nonzero;stroke:none"
         id="path290" />
      <path
         d="m 1552.24,5675.21 c -70.48,164.43 0,234.9 0,234.9 h -111.96 -28.98 -111.95 c 0,0 70.47,-70.47 0,-234.9 0,0 -493.28,23.49 -540.252,-422.8 h 652.202 28.98 652.21 c -46.98,446.29 -540.25,422.8 -540.25,422.8"
         style="fill:#1d1d1b;fill-opacity:1;fill-rule:nonzero;stroke:none"
         id="path292" />
      <path
         d="m 3990.13,2502.22 c -10.28,4.74 -21.73,7.38 -33.79,7.38 h -105.25 c 0.64,1.99 1.22,4 1.74,6.03 v 0 c 2.13,8.34 3.26,17.08 3.26,26.09 v 122.62 c 0.45,2.81 0.68,5.69 0.68,8.63 0,2.94 -0.23,5.82 -0.68,8.64 v 117.41 h 103.41 c -4.79,-11 -7.45,-23.15 -7.45,-35.92 0,-44.12 31.71,-80.84 73.57,-88.61 -19.57,-54.03 -32.14,-109.13 -35.63,-139.98 -1.15,-10.04 -0.73,-21.09 0.14,-32.29 m 131.02,379.17 h -265.06 v 26.63 c 38.13,-4.61 78.5,-7.15 118.12,-7.15 15.2,0 30.3,0.38 45.11,1.15 6.37,0.33 12.48,0.5 18.33,0.5 41.01,0 69.12,-7.99 83.5,-21.13"
         style="fill:#4f7c8d;fill-opacity:1;fill-rule:nonzero;stroke:none"
         id="path294" />
      <path
         d="m 3959.5,2799.02 h -103.41 v 82.37 h 265.06 c 11.8,-10.79 14.34,-25.04 7.14,-41.18 h -1.3 v -2.72 c -3.12,-6.17 -7.64,-12.59 -13.57,-19.19 -16.49,21.25 -42.27,34.92 -71.25,34.92 -37,0 -68.79,-22.3 -82.67,-54.2"
         style="fill:#204454;fill-opacity:1;fill-rule:nonzero;stroke:none"
         id="path296" />
      <path
         d="m 4126.99,2837.49 v 2.72 h 1.3 c -0.41,-0.9 -0.84,-1.81 -1.3,-2.72"
         style="fill:#204454;fill-opacity:1;fill-rule:nonzero;stroke:none"
         id="path298" />
      <path
         d="m 3852.83,2515.63 c -4.55,37.47 -13.74,73.67 -27.05,108.08 15.85,7.62 27.46,22.67 30.31,40.63 v -122.62 c 0,-9.01 -1.13,-17.75 -3.26,-26.09 m 3.26,165.98 c -4.14,26.06 -26.71,45.99 -53.94,45.99 -10.01,0 -19.38,-2.69 -27.45,-7.39 -48.32,70.27 -115.72,128.49 -195.6,168.6 2.1,16.14 2.81,25.76 2.81,25.76 5.09,36.66 20.86,49.92 45.41,49.92 21.04,0 48.54,-9.75 81.28,-22.88 37.08,-14.86 89.71,-26.6 147.49,-33.59 v -26.63 -82.37 -117.41 m -130.63,253.81 c -1.2,-5.01 -1.84,-10.24 -1.84,-15.61 0,-36.77 29.81,-66.57 66.58,-66.57 32.76,0 59.99,23.66 65.54,54.82 -49.37,5.99 -94.95,15.45 -130.28,27.36"
         style="fill:#701f29;fill-opacity:1;fill-rule:nonzero;stroke:none"
         id="path300" />
      <path
         d="m 3851.09,2509.6 h -108.67 c -14.36,30.74 -45.54,52.03 -81.71,52.03 -36.16,0 -67.34,-21.29 -81.69,-52.03 H 3451.8 c -13.07,27.07 9.49,70.39 50.14,135.91 51.35,82.76 70.74,193.76 77.16,243.3 79.88,-40.11 147.28,-98.33 195.6,-168.6 -16.25,-9.47 -27.17,-27.08 -27.17,-47.24 0,-30.16 24.45,-54.62 54.62,-54.62 8.46,0 16.48,1.93 23.63,5.36 13.31,-34.41 22.5,-70.61 27.05,-108.08 -0.52,-2.03 -1.1,-4.04 -1.74,-6.03 m -323.52,70.72 c -10.32,0 -18.69,-8.37 -18.69,-18.69 0,-10.32 8.37,-18.69 18.69,-18.69 10.33,0 18.69,8.37 18.69,18.69 0,10.32 -8.36,18.69 -18.69,18.69 m 6.73,130.02 c 10.82,-22.13 33.55,-37.37 59.85,-37.37 36.76,0 66.56,29.81 66.56,66.57 0,36.77 -29.8,66.57 -66.56,66.57 -11.62,0 -22.54,-2.97 -32.05,-8.2 -6.83,-27.81 -15.88,-58.01 -27.8,-87.57"
         style="fill:#6a1e27;fill-opacity:1;fill-rule:nonzero;stroke:none"
         id="path302" />
      <path
         d="m 3959.71,2416.03 c -15.18,0 -36.87,5.45 -67.61,18.32 -51.42,21.55 -97.67,31.11 -141.28,35.16 0.01,0.66 0.02,1.33 0.02,2 0,13.61 -3.02,26.52 -8.42,38.09 h 108.67 105.25 c 12.06,0 23.51,-2.64 33.79,-7.38 3.24,-42.08 12.8,-86.19 -30.42,-86.19 m -45.49,74.17 c -10.32,0 -18.69,-8.36 -18.69,-18.69 0,-10.33 8.37,-18.7 18.69,-18.7 10.32,0 18.7,8.37 18.7,18.7 0,10.33 -8.38,18.69 -18.7,18.69 m -343.62,-17.92 c -12.66,0.53 -25.41,1.44 -38.32,2.91 -46.63,5.29 -71.66,16.15 -80.48,34.41 h 127.22 c -5.3,-11.35 -8.31,-24 -8.42,-37.32"
         style="fill:#701f29;fill-opacity:1;fill-rule:nonzero;stroke:none"
         id="path304" />
      <g
         id="g306">
        <g
           id="g308"
           clip-path="url(#clipPath312)">
          <path
             d="m 3594.15,2672.97 c -26.3,0 -49.03,15.24 -59.85,37.37 11.92,29.56 20.97,59.76 27.8,87.57 9.51,5.23 20.43,8.2 32.05,8.2 36.76,0 66.56,-29.8 66.56,-66.57 0,-36.76 -29.8,-66.57 -66.56,-66.57"
             style="fill:#6a1e27;fill-opacity:1;fill-rule:nonzero;stroke:none"
             id="path314" />
          <path
             d="m 3790.2,2853.24 c -36.77,0 -66.58,29.8 -66.58,66.57 0,5.37 0.64,10.6 1.84,15.61 35.33,-11.91 80.91,-21.37 130.28,-27.36 -5.55,-31.16 -32.78,-54.82 -65.54,-54.82"
             style="fill:#701f29;fill-opacity:1;fill-rule:nonzero;stroke:none"
             id="path316" />
          <path
             d="m 3856.09,2664.34 v 17.27 c 0.45,-2.82 0.68,-5.7 0.68,-8.64 0,-2.94 -0.23,-5.82 -0.68,-8.63"
             style="fill:#4f7c8d;fill-opacity:1;fill-rule:nonzero;stroke:none"
             id="path318" />
          <path
             d="m 3825.78,2623.71 c -13.17,34.07 -30.37,66.39 -51.08,96.5 8.07,4.7 17.44,7.39 27.45,7.39 27.23,0 49.8,-19.93 53.94,-45.99 v -17.27 c -2.85,-17.96 -14.46,-33.01 -30.31,-40.63"
             style="fill:#701f29;fill-opacity:1;fill-rule:nonzero;stroke:none"
             id="path320" />
          <path
             d="m 3802.15,2618.35 c -30.17,0 -54.62,24.46 -54.62,54.62 0,20.16 10.92,37.77 27.17,47.24 20.71,-30.11 37.91,-62.43 51.08,-96.5 -7.15,-3.43 -15.17,-5.36 -23.63,-5.36"
             style="fill:#6a1e27;fill-opacity:1;fill-rule:nonzero;stroke:none"
             id="path322" />
          <path
             d="m 4025.62,2674.49 v 0 c -41.86,7.77 -73.57,44.49 -73.57,88.61 0,12.77 2.66,24.92 7.45,35.92 h 134.19 c -27.32,-28.44 -50.51,-76.06 -68.07,-124.53"
             style="fill:#4f7c8d;fill-opacity:1;fill-rule:nonzero;stroke:none"
             id="path324" />
          <path
             d="M 4093.69,2799.02 H 3959.5 c 13.88,31.9 45.67,54.2 82.67,54.2 28.98,0 54.76,-13.67 71.25,-34.92 v 0 c -3.57,-3.97 -7.66,-8.01 -12.27,-12.09 -2.52,-2.23 -5,-4.63 -7.46,-7.19"
             style="fill:#204454;fill-opacity:1;fill-rule:nonzero;stroke:none"
             id="path326" />
          <path
             d="m 3742.42,2509.6 h -163.4 c 14.35,30.74 45.53,52.03 81.69,52.03 36.17,0 67.35,-21.29 81.71,-52.03"
             style="fill:#6a1e27;fill-opacity:1;fill-rule:nonzero;stroke:none"
             id="path328" />
          <path
             d="m 3750.82,2469.51 c -23.7,2.21 -46.62,2.79 -69.15,2.79 -12.54,0 -24.97,-0.18 -37.35,-0.36 -12.37,-0.18 -24.7,-0.36 -37.04,-0.36 -12.19,0 -24.39,0.17 -36.68,0.7 v 0 c 0.11,13.32 3.12,25.97 8.42,37.32 h 163.4 c 5.4,-11.57 8.42,-24.48 8.42,-38.09 0,-0.67 -0.01,-1.34 -0.02,-2 v 0"
             style="fill:#701f29;fill-opacity:1;fill-rule:nonzero;stroke:none"
             id="path330" />
          <path
             d="m 3527.57,2542.94 c -10.32,0 -18.69,8.37 -18.69,18.69 0,10.32 8.37,18.69 18.69,18.69 10.33,0 18.69,-8.37 18.69,-18.69 0,-10.32 -8.36,-18.69 -18.69,-18.69"
             style="fill:#6a1e27;fill-opacity:1;fill-rule:nonzero;stroke:none"
             id="path332" />
          <path
             d="m 3914.22,2452.81 c -10.32,0 -18.69,8.37 -18.69,18.7 0,10.33 8.37,18.69 18.69,18.69 10.32,0 18.7,-8.36 18.7,-18.69 0,-10.33 -8.38,-18.7 -18.7,-18.7"
             style="fill:#701f29;fill-opacity:1;fill-rule:nonzero;stroke:none"
             id="path334" />
        </g>
      </g>
      <path
         d="m 3551.91,2944.57 c 0,0 -11.9,-159.35 -79.97,-269.06 -68.07,-109.71 -85.41,-157.19 30.34,-170.32 115.73,-13.13 218.21,18.51 359.82,-40.83 141.6,-59.33 90.95,39.14 97.89,100.15 6.91,61.02 49.33,216.91 111.16,271.7 61.86,54.8 30.08,101.67 -81.83,95.81 -111.91,-5.85 -239.78,11.15 -310.72,39.59 -70.94,28.44 -117.23,41.04 -126.69,-27.04"
         style="fill:#f0431d;fill-opacity:1;fill-rule:nonzero;stroke:none"
         id="path336" />
      <g
         id="g338">
        <g
           id="g340"
           clip-path="url(#clipPath344)">
          <path
             d="m 3630.71,2769.54 c 0,-36.76 -29.8,-66.57 -66.56,-66.57 -36.78,0 -66.58,29.81 -66.58,66.57 0,36.77 29.8,66.57 66.58,66.57 36.76,0 66.56,-29.8 66.56,-66.57"
             style="fill:#f68366;fill-opacity:1;fill-rule:nonzero;stroke:none"
             id="path346" />
          <path
             d="m 3826.77,2949.8 c 0,-36.76 -29.81,-66.56 -66.57,-66.56 -36.77,0 -66.58,29.8 -66.58,66.56 0,36.76 29.81,66.58 66.58,66.58 36.76,0 66.57,-29.82 66.57,-66.58"
             style="fill:#f68366;fill-opacity:1;fill-rule:nonzero;stroke:none"
             id="path348" />
          <path
             d="m 3826.77,2702.97 c 0,-30.16 -24.46,-54.62 -54.62,-54.62 -30.17,0 -54.62,24.46 -54.62,54.62 0,30.16 24.45,54.63 54.62,54.63 30.16,0 54.62,-24.47 54.62,-54.63"
             style="fill:#f68366;fill-opacity:1;fill-rule:nonzero;stroke:none"
             id="path350" />
          <path
             d="m 4102.3,2793.1 c 0,-49.78 -40.35,-90.13 -90.13,-90.13 -49.76,0 -90.11,40.35 -90.11,90.13 0,49.77 40.35,90.12 90.11,90.12 49.78,0 90.13,-40.35 90.13,-90.12"
             style="fill:#f68366;fill-opacity:1;fill-rule:nonzero;stroke:none"
             id="path352" />
          <path
             d="m 3720.84,2501.5 c 0,-49.76 -40.35,-90.11 -90.13,-90.11 -49.77,0 -90.11,40.35 -90.11,90.11 0,49.78 40.34,90.13 90.11,90.13 49.78,0 90.13,-40.35 90.13,-90.13"
             style="fill:#f68366;fill-opacity:1;fill-rule:nonzero;stroke:none"
             id="path354" />
          <path
             d="m 3516.26,2591.63 c 0,-10.32 -8.36,-18.69 -18.69,-18.69 -10.32,0 -18.69,8.37 -18.69,18.69 0,10.32 8.37,18.69 18.69,18.69 10.33,0 18.69,-8.37 18.69,-18.69"
             style="fill:#f68366;fill-opacity:1;fill-rule:nonzero;stroke:none"
             id="path356" />
          <path
             d="m 3902.92,2501.5 c 0,-10.32 -8.38,-18.69 -18.7,-18.69 -10.32,0 -18.69,8.37 -18.69,18.69 0,10.34 8.37,18.71 18.69,18.71 10.32,0 18.7,-8.37 18.7,-18.71"
             style="fill:#f68366;fill-opacity:1;fill-rule:nonzero;stroke:none"
             id="path358" />
        </g>
      </g>
      <path
         d="m 2809.23,295.211 c 0,-7.031 1.1,-13 3.28,-17.941 2.19,-4.95 5.18,-8.661 8.97,-11.161 3.81,-2.5 7.95,-3.769 12.45,-3.769 4.56,0 8.72,1.199 12.49,3.582 3.77,2.359 6.77,6.008 9.02,10.918 2.25,4.902 3.37,11.051 3.37,18.371 0,6.918 -1.12,12.859 -3.37,17.84 -2.25,4.961 -5.28,8.75 -9.12,11.379 -3.83,2.621 -8.02,3.929 -12.58,3.929 -4.75,0 -8.99,-1.347 -12.73,-4.019 -3.73,-2.699 -6.63,-6.551 -8.69,-11.59 -2.06,-5.039 -3.09,-10.879 -3.09,-17.539 z m 51.01,-38.082 v 2.582 c -3.49,-3.992 -6.92,-7.25 -10.31,-9.731 -3.38,-2.519 -7.06,-4.41 -11.02,-5.699 -3.95,-1.332 -8.27,-1.961 -12.96,-1.961 -6.21,0 -11.96,1.309 -17.24,3.93 -5.29,2.641 -9.86,6.391 -13.72,11.27 -3.87,4.859 -6.8,10.589 -8.79,17.191 -1.99,6.578 -2.99,13.711 -2.99,21.359 0,16.219 3.96,28.852 11.87,37.91 7.92,9.051 18.33,13.579 31.25,13.579 7.47,0 13.77,-1.289 18.9,-3.848 5.13,-2.563 10.13,-6.52 15.01,-11.82 v 38.269 c 0,5.332 1.05,9.328 3.18,12.07 2.12,2.711 5.14,4.079 9.07,4.079 3.93,0 6.94,-1.25 9.07,-3.75 2.12,-2.52 3.18,-6.188 3.18,-11.079 V 257.129 c 0,-4.938 -1.13,-8.629 -3.42,-11.109 -2.28,-2.469 -5.22,-3.7 -8.83,-3.7 -3.54,0 -6.47,1.27 -8.79,3.828 -2.31,2.582 -3.46,6.231 -3.46,10.981"
         style="fill:#2d4672;fill-opacity:1;fill-rule:nonzero;stroke:none"
         id="path360" />
      <path
         d="m 2923.86,303.379 h 47.02 c -0.63,8.871 -3.03,15.512 -7.17,19.902 -4.15,4.418 -9.61,6.598 -16.39,6.598 -6.46,0 -11.76,-2.219 -15.9,-6.68 -4.15,-4.469 -6.66,-11.07 -7.56,-19.82 z m 50.72,-14.731 h -50.72 c 0.07,-5.878 1.25,-11.066 3.57,-15.558 2.3,-4.5 5.38,-7.891 9.21,-10.16 3.83,-2.289 8.06,-3.418 12.68,-3.418 3.1,0 5.93,0.347 8.5,1.078 2.57,0.742 5.05,1.871 7.46,3.43 2.41,1.55 4.62,3.21 6.64,4.98 2.03,1.781 4.65,4.199 7.88,7.23 1.33,1.129 3.24,1.719 5.71,1.719 2.66,0 4.81,-0.738 6.45,-2.211 1.64,-1.457 2.48,-3.488 2.48,-6.168 0,-2.34 -0.93,-5.058 -2.76,-8.199 -1.85,-3.152 -4.61,-6.16 -8.31,-9.031 -3.72,-2.891 -8.36,-5.27 -13.97,-7.16 -5.6,-1.918 -12.04,-2.86 -19.33,-2.86 -16.64,0 -29.6,4.75 -38.84,14.239 -9.24,9.492 -13.86,22.39 -13.86,38.652 0,7.68 1.13,14.789 3.41,21.328 2.29,6.57 5.61,12.172 9.97,16.863 4.37,4.688 9.75,8.278 16.15,10.778 6.4,2.5 13.49,3.75 21.28,3.75 10.13,0 18.82,-2.129 26.06,-6.41 7.26,-4.27 12.69,-9.801 16.3,-16.559 3.6,-6.781 5.41,-13.691 5.41,-20.699 0,-6.551 -1.87,-10.762 -5.6,-12.703 -3.73,-1.93 -8.99,-2.911 -15.77,-2.911"
         style="fill:#2d4672;fill-opacity:1;fill-rule:nonzero;stroke:none"
         id="path362" />
      <path
         d="m 3092.72,276.23 c 0,-7.148 -1.73,-13.281 -5.22,-18.378 -3.48,-5.102 -8.62,-8.961 -15.43,-11.602 -6.81,-2.621 -15.09,-3.93 -24.84,-3.93 -9.31,0 -17.28,1.43 -23.93,4.282 -6.65,2.828 -11.56,6.41 -14.72,10.668 -3.17,4.289 -4.75,8.57 -4.75,12.89 0,2.852 1,5.27 3.04,7.301 2.02,2.008 4.59,3.031 7.7,3.031 2.71,0 4.8,-0.672 6.26,-1.992 1.46,-1.328 2.85,-3.211 4.17,-5.59 2.66,-4.648 5.85,-8.07 9.56,-10.371 3.7,-2.269 8.74,-3.418 15.15,-3.418 5.19,0 9.45,1.168 12.77,3.481 3.32,2.32 4.98,4.957 4.98,7.929 0,4.571 -1.72,7.871 -5.17,9.961 -3.46,2.09 -9.14,4.098 -17.06,5.988 -8.92,2.211 -16.19,4.559 -21.79,7 -5.61,2.422 -10.09,5.641 -13.44,9.629 -3.35,3.981 -5.03,8.903 -5.03,14.723 0,5.18 1.54,10.098 4.65,14.727 3.1,4.613 7.68,8.3 13.73,11.05 6.04,2.762 13.33,4.141 21.88,4.141 6.72,0 12.75,-0.699 18.1,-2.109 5.35,-1.36 9.82,-3.262 13.39,-5.602 3.58,-2.328 6.3,-4.918 8.17,-7.769 1.86,-2.86 2.8,-5.629 2.8,-8.36 0,-2.969 -1,-5.41 -2.99,-7.328 -1.99,-1.871 -4.82,-2.852 -8.5,-2.852 -2.66,0 -4.93,0.758 -6.79,2.309 -1.87,1.5 -4,3.781 -6.41,6.813 -1.96,2.539 -4.26,4.57 -6.93,6.097 -2.66,1.52 -6.27,2.262 -10.84,2.262 -4.68,0 -8.57,-0.981 -11.68,-2.992 -3.1,-1.989 -4.65,-4.469 -4.65,-7.438 0,-2.73 1.14,-4.961 3.41,-6.699 2.29,-1.762 5.36,-3.203 9.23,-4.332 3.86,-1.141 9.17,-2.52 15.96,-4.16 8.03,-1.981 14.59,-4.32 19.7,-7.039 5.09,-2.711 8.95,-5.93 11.59,-9.641 2.63,-3.711 3.93,-7.93 3.93,-12.68"
         style="fill:#2d4672;fill-opacity:1;fill-rule:nonzero;stroke:none"
         id="path364" />
      <path
         d="M 3132.04,333.031 V 258.09 c 0,-5.199 -1.23,-9.129 -3.71,-11.781 -2.47,-2.661 -5.6,-3.989 -9.4,-3.989 -3.8,0 -6.89,1.352 -9.26,4.09 -2.38,2.711 -3.56,6.621 -3.56,11.68 v 74.18 c 0,5.109 1.18,8.98 3.56,11.582 2.37,2.597 5.46,3.898 9.26,3.898 3.8,0 6.93,-1.301 9.4,-3.898 2.48,-2.602 3.71,-6.211 3.71,-10.821 z m -12.83,26.77 c -3.6,0 -6.69,1.121 -9.25,3.32 -2.57,2.211 -3.85,5.359 -3.85,9.418 0,3.672 1.31,6.68 3.94,9.063 2.63,2.378 5.69,3.578 9.16,3.578 3.36,0 6.34,-1.078 8.93,-3.25 2.6,-2.141 3.9,-5.27 3.9,-9.391 0,-4 -1.27,-7.109 -3.81,-9.359 -2.53,-2.239 -5.53,-3.379 -9.02,-3.379"
         style="fill:#2d4672;fill-opacity:1;fill-rule:nonzero;stroke:none"
         id="path366" />
      <path
         d="m 3170.5,295.879 c 0,-10.508 2.29,-18.457 6.88,-23.828 4.59,-5.391 10.53,-8.09 17.81,-8.09 4.3,0 8.37,1.18 12.2,3.48 3.84,2.309 6.95,5.797 9.36,10.45 2.4,4.648 3.61,10.289 3.61,16.949 0,10.57 -2.32,18.808 -6.98,24.691 -4.66,5.879 -10.78,8.828 -18.38,8.828 -7.42,0 -13.35,-2.808 -17.81,-8.461 -4.47,-5.617 -6.69,-13.628 -6.69,-24.019 z m 75.13,32.871 v -75.309 c 0,-8.621 -0.93,-16.043 -2.77,-22.25 -1.82,-6.191 -4.77,-11.332 -8.83,-15.371 -4.05,-4.039 -9.35,-7.07 -15.9,-9.019 -6.55,-1.981 -14.71,-2.949 -24.46,-2.949 -8.93,0 -16.91,1.25 -23.94,3.75 -7.02,2.519 -12.43,5.738 -16.24,9.687 -3.79,3.961 -5.7,8.02 -5.7,12.199 0,3.172 1.08,5.762 3.24,7.742 2.14,2.012 4.75,3 7.78,3 3.8,0 7.12,-1.679 9.97,-5.031 1.39,-1.699 2.83,-3.437 4.32,-5.179 1.49,-1.758 3.15,-3.239 4.94,-4.469 1.81,-1.231 3.98,-2.149 6.51,-2.762 2.53,-0.578 5.45,-0.898 8.74,-0.898 6.71,0 11.92,0.941 15.63,2.82 3.7,1.848 6.3,4.469 7.78,7.828 1.49,3.34 2.36,6.93 2.62,10.781 0.25,3.832 0.44,9.981 0.56,18.481 -3.99,-5.59 -8.59,-9.832 -13.82,-12.742 -5.22,-2.911 -11.45,-4.368 -18.66,-4.368 -8.67,0 -16.25,2.219 -22.75,6.661 -6.49,4.429 -11.48,10.617 -14.95,18.609 -3.49,7.988 -5.22,17.191 -5.22,27.641 0,7.769 1.05,14.82 3.17,21.07 2.13,6.289 5.15,11.558 9.07,15.879 3.93,4.301 8.46,7.539 13.58,9.73 5.13,2.18 10.76,3.278 16.91,3.278 7.34,0 13.71,-1.43 19.09,-4.219 5.38,-2.828 10.39,-7.25 15.01,-13.258 v 3.508 c 0,4.5 1.1,7.969 3.32,10.449 2.22,2.461 5.07,3.711 8.55,3.711 5,0 8.32,-1.641 9.97,-4.898 1.65,-3.262 2.48,-7.973 2.48,-14.102"
         style="fill:#2d4672;fill-opacity:1;fill-rule:nonzero;stroke:none"
         id="path368" />
      <path
         d="m 3286.84,333.402 v -3.132 c 4.55,6.019 9.54,10.429 14.95,13.25 5.42,2.812 11.63,4.23 18.66,4.23 6.84,0 12.95,-1.5 18.34,-4.469 5.38,-2.992 9.41,-7.191 12.05,-12.621 1.72,-3.18 2.83,-6.601 3.33,-10.269 0.51,-3.672 0.77,-8.36 0.77,-14.059 V 258.09 c 0,-5.199 -1.19,-9.129 -3.57,-11.781 -2.37,-2.661 -5.46,-3.989 -9.26,-3.989 -3.86,0 -6.99,1.352 -9.4,4.09 -2.41,2.711 -3.61,6.621 -3.61,11.68 v 43.219 c 0,8.531 -1.19,15.082 -3.56,19.613 -2.38,4.508 -7.11,6.789 -14.21,6.789 -4.61,0 -8.83,-1.379 -12.62,-4.141 -3.8,-2.75 -6.59,-6.539 -8.36,-11.34 -1.27,-3.871 -1.9,-11.082 -1.9,-21.66 v -32.48 c 0,-5.258 -1.23,-9.199 -3.66,-11.84 -2.43,-2.621 -5.58,-3.93 -9.44,-3.93 -3.75,0 -6.81,1.352 -9.22,4.09 -2.4,2.711 -3.61,6.621 -3.61,11.68 v 74.941 c 0,4.938 1.07,8.629 3.23,11.071 2.15,2.418 5.09,3.648 8.83,3.648 2.28,0 4.34,-0.539 6.18,-1.621 1.83,-1.09 3.31,-2.688 4.42,-4.84 1.1,-2.148 1.66,-4.789 1.66,-7.887"
         style="fill:#2d4672;fill-opacity:1;fill-rule:nonzero;stroke:none"
         id="path370" />
      <path
         d="m 3393.87,303.379 h 47.01 c -0.63,8.871 -3.02,15.512 -7.17,19.902 -4.15,4.418 -9.61,6.598 -16.38,6.598 -6.47,0 -11.77,-2.219 -15.92,-6.68 -4.15,-4.469 -6.65,-11.07 -7.54,-19.82 z m 50.71,-14.731 h -50.71 c 0.07,-5.878 1.24,-11.066 3.56,-15.558 2.31,-4.5 5.38,-7.891 9.22,-10.16 3.81,-2.289 8.05,-3.418 12.67,-3.418 3.1,0 5.93,0.347 8.51,1.078 2.55,0.742 5.04,1.871 7.45,3.43 2.4,1.55 4.61,3.21 6.65,4.98 2.02,1.781 4.65,4.199 7.88,7.23 1.33,1.129 3.23,1.719 5.7,1.719 2.66,0 4.81,-0.738 6.46,-2.211 1.64,-1.457 2.46,-3.488 2.46,-6.168 0,-2.34 -0.91,-5.058 -2.75,-8.199 -1.84,-3.152 -4.61,-6.16 -8.32,-9.031 -3.7,-2.891 -8.35,-5.27 -13.95,-7.16 -5.61,-1.918 -12.05,-2.86 -19.33,-2.86 -16.65,0 -29.6,4.75 -38.85,14.239 -9.24,9.492 -13.87,22.39 -13.87,38.652 0,7.68 1.15,14.789 3.42,21.328 2.28,6.57 5.61,12.172 9.98,16.863 4.37,4.688 9.75,8.278 16.14,10.778 6.4,2.5 13.5,3.75 21.28,3.75 10.13,0 18.81,-2.129 26.06,-6.41 7.26,-4.27 12.69,-9.801 16.3,-16.559 3.61,-6.781 5.42,-13.691 5.42,-20.699 0,-6.551 -1.87,-10.762 -5.61,-12.703 -3.73,-1.93 -8.99,-2.911 -15.77,-2.911"
         style="fill:#2d4672;fill-opacity:1;fill-rule:nonzero;stroke:none"
         id="path372" />
      <path
         d="m 3499.28,295.211 c 0,-7.031 1.09,-13 3.27,-17.941 2.19,-4.95 5.18,-8.661 8.99,-11.161 3.79,-2.5 7.94,-3.769 12.43,-3.769 4.57,0 8.73,1.199 12.49,3.582 3.77,2.359 6.78,6.008 9.02,10.918 2.25,4.902 3.38,11.051 3.38,18.371 0,6.918 -1.13,12.859 -3.38,17.84 -2.24,4.961 -5.28,8.75 -9.11,11.379 -3.84,2.621 -8.03,3.929 -12.59,3.929 -4.74,0 -8.99,-1.347 -12.73,-4.019 -3.73,-2.699 -6.63,-6.551 -8.69,-11.59 -2.06,-5.039 -3.08,-10.879 -3.08,-17.539 z m 51,-38.082 v 2.582 c -3.48,-3.992 -6.92,-7.25 -10.3,-9.731 -3.39,-2.519 -7.06,-4.41 -11.02,-5.699 -3.95,-1.332 -8.28,-1.961 -12.96,-1.961 -6.21,0 -11.96,1.309 -17.24,3.93 -5.29,2.641 -9.86,6.391 -13.73,11.27 -3.86,4.859 -6.79,10.589 -8.78,17.191 -2,6.578 -2.99,13.711 -2.99,21.359 0,16.219 3.95,28.852 11.87,37.91 7.91,9.051 18.33,13.579 31.25,13.579 7.47,0 13.77,-1.289 18.9,-3.848 5.13,-2.563 10.13,-6.52 15,-11.82 v 38.269 c 0,5.332 1.06,9.328 3.19,12.07 2.11,2.711 5.14,4.079 9.07,4.079 3.92,0 6.94,-1.25 9.07,-3.75 2.12,-2.52 3.18,-6.188 3.18,-11.079 V 257.129 c 0,-4.938 -1.14,-8.629 -3.42,-11.109 -2.28,-2.469 -5.22,-3.7 -8.83,-3.7 -3.55,0 -6.48,1.27 -8.79,3.828 -2.31,2.582 -3.47,6.231 -3.47,10.981"
         style="fill:#2d4672;fill-opacity:1;fill-rule:nonzero;stroke:none"
         id="path374" />
      <path
         d="m 3657.5,294.449 c 0,-10.308 2.35,-18.238 7.07,-23.769 4.72,-5.539 10.91,-8.34 18.57,-8.34 6.52,0 12.14,2.84 16.86,8.519 4.71,5.661 7.07,13.793 7.07,24.352 0,6.84 -0.97,12.738 -2.94,17.68 -1.97,4.941 -4.75,8.75 -8.35,11.449 -3.62,2.672 -7.83,4.019 -12.64,4.019 -4.94,0 -9.35,-1.347 -13.2,-4.019 -3.87,-2.699 -6.9,-6.59 -9.12,-11.68 -2.22,-5.101 -3.32,-11.18 -3.32,-18.211 z m -1.24,77.031 v -39.589 c 4.87,5.058 9.84,8.949 14.91,11.629 5.07,2.691 11.34,4.039 18.81,4.039 8.61,0 16.16,-2.047 22.66,-6.11 6.48,-4.109 11.51,-10.019 15.09,-17.777 3.58,-7.75 5.38,-16.953 5.38,-27.602 0,-7.851 -1.01,-15.031 -3,-21.601 -1.99,-6.559 -4.9,-12.239 -8.69,-17.047 -3.8,-4.801 -8.41,-8.531 -13.82,-11.172 -5.42,-2.621 -11.38,-3.93 -17.9,-3.93 -4,0 -7.75,0.469 -11.26,1.43 -3.52,0.941 -6.51,2.191 -8.98,3.75 -2.46,1.539 -4.57,3.141 -6.31,4.789 -1.74,1.641 -4.04,4.121 -6.89,7.422 v -2.582 c 0,-4.859 -1.17,-8.559 -3.52,-11.078 -2.33,-2.5 -5.31,-3.731 -8.92,-3.731 -3.67,0 -6.6,1.231 -8.79,3.731 -2.18,2.519 -3.27,6.219 -3.27,11.078 v 113.223 c 0,5.257 1.06,9.238 3.17,11.918 2.13,2.691 5.09,4.039 8.89,4.039 3.99,0 7.06,-1.289 9.21,-3.848 2.15,-2.582 3.23,-6.211 3.23,-10.981"
         style="fill:#2d4672;fill-opacity:1;fill-rule:nonzero;stroke:none"
         id="path376" />
      <path
         d="m 3766.72,239.082 2.37,5.797 -31.91,80.351 c -1.96,4.61 -2.95,7.989 -2.95,10.079 0,2.211 0.57,4.261 1.71,6.152 1.14,1.918 2.71,3.437 4.7,4.578 2,1.152 4.07,1.711 6.23,1.711 3.73,0 6.54,-1.191 8.45,-3.57 1.91,-2.36 3.58,-5.758 5.03,-10.2 l 21.94,-63.82 20.81,59.352 c 1.64,4.808 3.13,8.578 4.46,11.308 1.33,2.719 2.73,4.551 4.22,5.489 1.49,0.961 3.6,1.441 6.32,1.441 1.97,0 3.85,-0.52 5.65,-1.578 1.81,-1.031 3.2,-2.442 4.18,-4.223 0.98,-1.769 1.48,-3.629 1.48,-5.597 -0.26,-1.192 -0.66,-2.911 -1.24,-5.141 -0.58,-2.211 -1.27,-4.469 -2.09,-6.742 l -33.81,-88.508 c -2.92,-7.801 -5.77,-13.891 -8.55,-18.32 -2.79,-4.442 -6.47,-7.852 -11.07,-10.219 -4.59,-2.383 -10.78,-3.57 -18.57,-3.57 -7.59,0 -13.29,0.82 -17.08,2.457 -3.82,1.66 -5.71,4.671 -5.71,9.043 0,2.968 0.9,5.269 2.71,6.878 1.8,1.622 4.48,2.442 8.02,2.442 1.39,0 2.76,-0.203 4.09,-0.59 1.64,-0.371 3.06,-0.562 4.27,-0.562 2.97,0 5.32,0.429 7.03,1.32 1.71,0.879 3.24,2.43 4.61,4.609 1.35,2.172 2.93,5.391 4.7,9.633"
         style="fill:#2d4672;fill-opacity:1;fill-rule:nonzero;stroke:none"
         id="path378" />
      <path
         d="m 4142.34,345.512 h 6.2 v 7.769 c 0,8.149 0.99,14.571 3.06,19.379 2.03,4.781 5.55,8.262 10.47,10.449 4.9,2.161 11.62,3.262 20.16,3.262 15.19,0 22.73,-3.672 22.73,-11.141 0,-2.378 -0.8,-4.449 -2.4,-6.148 -1.54,-1.703 -3.44,-2.562 -5.59,-2.562 -0.99,0 -2.77,0.179 -5.27,0.589 -2.36,0.332 -4.51,0.571 -6.23,0.571 -4.67,0 -7.66,-1.41 -9.04,-4.16 -1.27,-2.758 -1.96,-6.68 -1.96,-11.84 v -6.168 h 6.33 c 9.9,0 14.81,-2.973 14.81,-8.973 0,-4.18 -1.27,-6.887 -3.93,-8.039 -2.62,-1.141 -6.23,-1.699 -10.88,-1.699 h -6.33 V 258.09 c 0,-5.121 -1.21,-9.008 -3.69,-11.68 -2.42,-2.738 -5.55,-4.07 -9.43,-4.07 -3.67,0 -6.7,1.332 -9.18,4.07 -2.44,2.672 -3.63,6.559 -3.63,11.68 v 68.711 h -7.15 c -3.89,0 -6.82,0.84 -8.93,2.609 -2.09,1.699 -3.14,3.992 -3.14,6.781 0,6.231 4.33,9.321 13.02,9.321"
         style="fill:#2d4672;fill-opacity:1;fill-rule:nonzero;stroke:none"
         id="path380" />
      <path
         d="m 4227.25,279.77 v -21.68 c 0,-5.238 -1.33,-9.199 -3.75,-11.801 -2.46,-2.66 -5.59,-3.949 -9.38,-3.949 -3.81,0 -6.87,1.308 -9.26,4.012 -2.36,2.628 -3.61,6.558 -3.61,11.738 v 72.219 c 0,11.66 4.2,17.48 12.62,17.48 4.33,0 7.42,-1.34 9.33,-4.078 1.9,-2.731 2.95,-6.742 3.17,-12.07 3.08,5.328 6.25,9.339 9.49,12.07 3.32,2.738 7.62,4.078 13.09,4.078 5.48,0 10.72,-1.34 15.85,-4.078 5.16,-2.731 7.72,-6.371 7.72,-10.84 0,-3.141 -1.11,-5.801 -3.26,-7.812 -2.21,-2.09 -4.55,-3.129 -7.07,-3.129 -1,0 -3.3,0.629 -6.92,1.8 -3.65,1.129 -6.89,1.739 -9.63,1.739 -3.8,0 -6.93,-1.039 -9.31,-2.989 -2.42,-2.05 -4.32,-4.96 -5.65,-8.871 -1.29,-3.937 -2.18,-8.648 -2.73,-14.039 -0.49,-5.41 -0.7,-12.031 -0.7,-19.8"
         style="fill:#2d4672;fill-opacity:1;fill-rule:nonzero;stroke:none"
         id="path382" />
      <path
         d="m 4295.7,303.441 h 47.01 c -0.62,8.848 -2.96,15.489 -7.12,19.86 -4.18,4.41 -9.59,6.597 -16.41,6.597 -6.47,0 -11.78,-2.199 -15.92,-6.699 -4.14,-4.449 -6.68,-11.027 -7.56,-19.758 m 50.75,-14.75 h -50.75 c 0.1,-5.882 1.25,-11.109 3.56,-15.582 2.34,-4.48 5.39,-7.879 9.24,-10.179 3.84,-2.27 8.04,-3.399 12.69,-3.399 3.11,0 5.92,0.328 8.5,1.11 2.54,0.711 5.04,1.859 7.44,3.418 2.42,1.531 4.61,3.191 6.64,5 2.03,1.742 4.67,4.16 7.91,7.191 1.35,1.129 3.24,1.742 5.68,1.742 2.68,0 4.81,-0.742 6.49,-2.23 1.66,-1.461 2.44,-3.492 2.44,-6.172 0,-2.34 -0.9,-5.078 -2.68,-8.18 -1.87,-3.191 -4.63,-6.18 -8.36,-9.07 -3.75,-2.852 -8.39,-5.27 -13.98,-7.141 -5.59,-1.898 -12.05,-2.859 -19.32,-2.859 -16.7,0 -29.63,4.73 -38.86,14.219 -9.24,9.511 -13.91,22.421 -13.91,38.671 0,7.68 1.17,14.79 3.48,21.352 2.24,6.578 5.56,12.168 9.98,16.879 4.35,4.699 9.7,8.281 16.13,10.781 6.37,2.5 13.46,3.75 21.27,3.75 10.12,0 18.81,-2.152 26.07,-6.472 7.23,-4.219 12.74,-9.758 16.29,-16.54 3.62,-6.8 5.41,-13.671 5.41,-20.738 0,-6.492 -1.87,-10.703 -5.6,-12.66 -3.73,-1.93 -8.99,-2.891 -15.76,-2.891"
         style="fill:#2d4672;fill-opacity:1;fill-rule:nonzero;stroke:none"
         id="path384" />
      <path
         d="m 4403.59,303.441 h 47.02 c -0.65,8.848 -3.05,15.489 -7.15,19.86 -4.22,4.41 -9.63,6.597 -16.43,6.597 -6.46,0 -11.76,-2.199 -15.94,-6.699 -4.12,-4.449 -6.66,-11.027 -7.5,-19.758 m 50.73,-14.75 h -50.73 c 0.06,-5.882 1.25,-11.109 3.54,-15.582 2.32,-4.48 5.39,-7.879 9.22,-10.179 3.83,-2.27 8.04,-3.399 12.71,-3.399 3.07,0 5.92,0.328 8.44,1.11 2.6,0.711 5.06,1.859 7.5,3.418 2.42,1.531 4.61,3.191 6.64,5 1.99,1.742 4.65,4.16 7.89,7.191 1.35,1.129 3.26,1.742 5.68,1.742 2.68,0 4.83,-0.742 6.51,-2.23 1.64,-1.461 2.4,-3.492 2.4,-6.172 0,-2.34 -0.88,-5.078 -2.73,-8.18 -1.78,-3.191 -4.55,-6.18 -8.3,-9.07 -3.71,-2.852 -8.4,-5.27 -13.97,-7.141 -5.57,-1.898 -12.07,-2.859 -19.33,-2.859 -16.68,0 -29.59,4.73 -38.87,14.219 -9.24,9.511 -13.89,22.421 -13.89,38.671 0,7.68 1.15,14.79 3.48,21.352 2.26,6.578 5.58,12.168 9.96,16.879 4.35,4.699 9.73,8.281 16.13,10.781 6.39,2.5 13.52,3.75 21.29,3.75 10.1,0 18.79,-2.152 26.13,-6.472 7.21,-4.219 12.66,-9.758 16.21,-16.54 3.6,-6.8 5.45,-13.671 5.45,-20.738 0,-6.492 -1.91,-10.703 -5.6,-12.66 -3.75,-1.93 -9.01,-2.891 -15.76,-2.891"
         style="fill:#2d4672;fill-opacity:1;fill-rule:nonzero;stroke:none"
         id="path386" />
      <path
         d="m 4561.95,295.531 c 0,6.848 -1.05,12.731 -3.14,17.629 -2.09,4.93 -4.98,8.68 -8.65,11.27 -3.68,2.64 -7.84,3.972 -12.33,3.972 -7.15,0 -13.18,-2.832 -18.08,-8.441 -4.93,-5.66 -7.41,-13.941 -7.41,-24.922 0,-10.269 2.45,-18.34 7.37,-24.059 4.86,-5.75 10.86,-8.601 18.12,-8.601 4.28,0 8.3,1.269 11.97,3.73 3.72,2.52 6.65,6.27 8.83,11.27 2.21,5.019 3.32,11.082 3.32,18.152 m -50.84,37.668 v -3.097 c 4.87,6.007 9.94,10.429 15.26,13.238 5.17,2.851 11.17,4.281 17.81,4.281 7.95,0 15.35,-2.09 22.07,-6.172 6.72,-4.148 11.99,-10.16 15.9,-18.07 3.89,-7.949 5.86,-17.309 5.86,-28.149 0,-7.941 -1.13,-15.308 -3.36,-22.011 -2.25,-6.68 -5.37,-12.258 -9.3,-16.789 -3.92,-4.5 -8.55,-8.008 -13.89,-10.45 -5.42,-2.429 -11.11,-3.64 -17.28,-3.64 -7.38,0 -13.63,1.492 -18.65,4.48 -5.02,2.91 -9.83,7.321 -14.42,13.039 v -38.918 c 0,-11.351 -4.16,-17.089 -12.44,-17.089 -4.9,0 -8.08,1.457 -9.71,4.386 -1.52,2.992 -2.34,7.231 -2.34,12.91 V 333.09 c 0,4.941 1.08,8.59 3.2,11.07 2.15,2.379 5.12,3.629 8.85,3.629 3.69,0 6.66,-1.25 8.97,-3.73 2.34,-2.539 3.47,-6.11 3.47,-10.86"
         style="fill:#2d4672;fill-opacity:1;fill-rule:nonzero;stroke:none"
         id="path388" />
      <path
         d="m 4626.95,333.09 v -75.02 c 0,-5.16 -1.23,-9.09 -3.69,-11.718 -2.5,-2.704 -5.6,-4.012 -9.41,-4.012 -3.81,0 -6.86,1.332 -9.28,4.07 -2.34,2.75 -3.55,6.641 -3.55,11.66 v 74.27 c 0,5.101 1.21,8.949 3.55,11.551 2.42,2.629 5.47,3.898 9.28,3.898 3.81,0 6.91,-1.269 9.41,-3.898 2.46,-2.602 3.69,-6.231 3.69,-10.801 m -12.83,26.769 c -3.63,0 -6.7,1.161 -9.24,3.36 -2.59,2.23 -3.86,5.32 -3.86,9.363 0,3.688 1.3,6.699 3.96,9.098 2.62,2.34 5.66,3.55 9.14,3.55 3.4,0 6.35,-1.05 8.93,-3.179 2.59,-2.192 3.9,-5.352 3.9,-9.469 0,-3.992 -1.27,-7.113 -3.77,-9.363 -2.54,-2.199 -5.54,-3.36 -9.06,-3.36"
         style="fill:#2d4672;fill-opacity:1;fill-rule:nonzero;stroke:none"
         id="path390" />
      <path
         d="m 4710.55,254.18 -22.84,37.66 -14.08,-13.289 v -20.66 c 0,-4.981 -1.33,-8.809 -3.96,-11.481 -2.58,-2.738 -5.67,-4.07 -9.06,-4.07 -3.99,0 -7.15,1.308 -9.42,4.012 -2.26,2.628 -3.44,6.558 -3.44,11.738 v 110.621 c 0,5.738 1.16,10.121 3.32,13.148 2.23,3.039 5.45,4.512 9.54,4.512 3.98,0 7.12,-1.371 9.49,-4.101 2.34,-2.719 3.53,-6.739 3.53,-12.04 v -62.929 l 29.16,30.629 c 3.62,3.769 6.33,6.41 8.26,7.789 1.9,1.39 4.2,2.07 6.9,2.07 3.26,0 5.94,-1.027 8.16,-3.078 2.11,-2.051 3.21,-4.652 3.21,-7.742 0,-3.789 -3.54,-8.879 -10.55,-15.207 l -13.77,-12.621 26.58,-41.84 c 1.94,-3.121 3.4,-5.43 4.24,-7.051 0.84,-1.602 1.31,-3.199 1.31,-4.629 0,-4.121 -1.15,-7.34 -3.42,-9.742 -2.25,-2.359 -5.23,-3.539 -8.85,-3.539 -3.16,0 -5.64,0.801 -7.34,2.558 -1.7,1.723 -4.06,4.832 -6.97,9.282"
         style="fill:#2d4672;fill-opacity:1;fill-rule:nonzero;stroke:none"
         id="path392" />
      <path
         d="m 4766.91,242.34 c -3.92,0 -7.28,1.25 -10.13,3.808 -2.85,2.481 -4.3,6.063 -4.3,10.653 0,3.84 1.39,7.179 4.1,9.941 2.76,2.789 6.08,4.199 10.08,4.199 3.98,0 7.36,-1.41 10.23,-4.121 2.8,-2.761 4.22,-6.14 4.22,-10.019 0,-4.531 -1.42,-8.09 -4.22,-10.61 -2.87,-2.601 -6.19,-3.851 -9.98,-3.851"
         style="fill:#2d4672;fill-opacity:1;fill-rule:nonzero;stroke:none"
         id="path394" />
      <path
         d="m 4895.9,274.43 c 0,-3.2 -0.98,-6.68 -2.91,-10.328 -1.92,-3.711 -4.88,-7.192 -8.87,-10.512 -3.94,-3.32 -8.91,-6.008 -14.94,-8.02 -6.02,-2.031 -12.81,-3.07 -20.31,-3.07 -16.06,0 -28.58,4.691 -37.58,14 -8.95,9.359 -13.46,21.902 -13.46,37.602 0,10.687 2.05,20.058 6.19,28.238 4.09,8.152 10.04,14.48 17.82,18.949 7.79,4.473 17.16,6.703 27.95,6.703 6.73,0 12.87,-0.98 18.51,-2.953 5.61,-1.949 10.33,-4.508 14.26,-7.598 3.87,-3.14 6.85,-6.421 8.89,-9.921 2.07,-3.52 3.08,-6.801 3.08,-9.86 0,-3.09 -1.13,-5.73 -3.44,-7.871 -2.34,-2.148 -5.15,-3.25 -8.38,-3.25 -2.18,0 -3.98,0.57 -5.41,1.66 -1.44,1.121 -3.04,2.891 -4.78,5.41 -3.18,4.793 -6.47,8.422 -9.96,10.801 -3.44,2.43 -7.81,3.621 -13.15,3.621 -7.61,0 -13.82,-2.972 -18.53,-8.972 -4.67,-5.95 -7.03,-14.2 -7.03,-24.547 0,-4.883 0.62,-9.391 1.83,-13.473 1.18,-4.07 2.91,-7.559 5.2,-10.43 2.3,-2.879 5.04,-5.058 8.26,-6.55 3.24,-1.539 6.82,-2.258 10.65,-2.258 5.21,0 9.66,1.211 13.35,3.609 3.77,2.399 7.04,6.07 9.87,11.02 1.58,2.91 3.28,5.172 5.1,6.832 1.81,1.636 4.08,2.5 6.75,2.5 3.17,0 5.8,-1.231 7.85,-3.633 2.11,-2.399 3.19,-4.977 3.19,-7.699"
         style="fill:#2d4672;fill-opacity:1;fill-rule:nonzero;stroke:none"
         id="path396" />
      <path
         d="m 4981.76,295.039 c 0,10.582 -2.35,18.813 -6.97,24.691 -4.63,5.95 -10.9,8.879 -18.75,8.879 -5.08,0 -9.56,-1.32 -13.42,-3.937 -3.87,-2.621 -6.82,-6.492 -8.91,-11.641 -2.09,-5.14 -3.14,-11.14 -3.14,-17.992 0,-6.777 1.01,-12.68 3.08,-17.738 2.09,-5.09 5.02,-8.961 8.87,-11.66 3.85,-2.649 8.34,-4.039 13.52,-4.039 7.85,0 14.12,2.968 18.75,8.929 4.62,5.899 6.97,14.098 6.97,24.508 m 26.03,0 c 0,-7.699 -1.21,-14.84 -3.55,-21.391 -2.46,-6.519 -5.92,-12.128 -10.49,-16.777 -4.55,-4.68 -10.02,-8.281 -16.33,-10.801 -6.38,-2.48 -13.49,-3.75 -21.38,-3.75 -7.86,0 -14.93,1.27 -21.22,3.828 -6.23,2.481 -11.69,6.141 -16.25,10.821 -4.61,4.773 -8.08,10.332 -10.52,16.761 -2.29,6.45 -3.5,13.559 -3.5,21.309 0,7.871 1.23,15.063 3.58,21.582 2.42,6.539 5.89,12.129 10.39,16.738 4.51,4.61 9.94,8.161 16.3,10.7 6.45,2.48 13.5,3.73 21.22,3.73 7.85,0 14.98,-1.25 21.38,-3.809 6.39,-2.519 11.84,-6.148 16.45,-10.8 4.57,-4.739 8.02,-10.289 10.39,-16.719 2.34,-6.5 3.53,-13.59 3.53,-21.422"
         style="fill:#2d4672;fill-opacity:1;fill-rule:nonzero;stroke:none"
         id="path398" />
      <path
         d="m 5106.72,293.141 v -34.469 c 0,-5.473 -1.21,-9.512 -3.69,-12.262 -2.5,-2.738 -5.73,-4.09 -9.79,-4.09 -3.92,0 -7.13,1.352 -9.51,4.09 -2.46,2.75 -3.71,6.789 -3.71,12.262 v 41.308 c 0,6.54 -0.22,11.622 -0.64,15.25 -0.45,3.54 -1.68,6.551 -3.62,8.829 -1.97,2.351 -5.1,3.523 -9.31,3.523 -8.5,0 -14.07,-2.91 -16.76,-8.812 -2.68,-5.758 -4.06,-14.141 -4.06,-25.079 v -35.019 c 0,-5.371 -1.24,-9.453 -3.62,-12.223 -2.5,-2.738 -5.68,-4.129 -9.65,-4.129 -3.96,0 -7.16,1.391 -9.66,4.129 -2.52,2.77 -3.77,6.852 -3.77,12.223 v 74.199 c 0,4.879 1.11,8.59 3.36,11.109 2.28,2.559 5.25,3.809 8.88,3.809 3.58,0 6.53,-1.23 8.93,-3.547 2.36,-2.383 3.53,-5.672 3.53,-9.851 v -2.442 c 4.53,5.352 9.36,9.321 14.46,11.801 5.15,2.602 10.82,3.871 17.12,3.871 6.51,0 12.11,-1.312 16.78,-3.91 4.69,-2.602 8.54,-6.539 11.6,-11.762 4.4,5.281 9.09,9.223 14.11,11.801 5,2.582 10.52,3.871 16.62,3.871 7.05,0 13.2,-1.43 18.34,-4.199 5.09,-2.781 8.92,-6.801 11.46,-11.961 2.21,-4.719 3.3,-12.09 3.3,-22.16 v -50.629 c 0,-5.473 -1.21,-9.512 -3.67,-12.262 -2.46,-2.738 -5.74,-4.09 -9.79,-4.09 -3.94,0 -7.14,1.391 -9.64,4.129 -2.5,2.77 -3.77,6.852 -3.77,12.223 v 43.617 c 0,5.582 -0.24,10.031 -0.69,13.371 -0.47,3.379 -1.77,6.211 -3.82,8.481 -2.13,2.269 -5.32,3.441 -9.54,3.441 -3.41,0 -6.66,-1.082 -9.74,-3.094 -3.07,-1.968 -5.47,-4.758 -7.21,-8.117 -1.85,-4.383 -2.83,-12.129 -2.83,-23.23"
         style="fill:#2d4672;fill-opacity:1;fill-rule:nonzero;stroke:none"
         id="path400" />
      <path
         d="m 3899.67,301.332 -0.02,0.168 0.02,-0.168"
         style="fill:#2d4672;fill-opacity:1;fill-rule:nonzero;stroke:none"
         id="path402" />
      <path
         d="m 3900.98,293.031 h 0.03 c -0.5,2.36 -0.89,4.699 -1.19,7.028 0.3,-2.348 0.69,-4.688 1.16,-7.028"
         style="fill:#2d4672;fill-opacity:1;fill-rule:nonzero;stroke:none"
         id="path404" />
      <path
         d="m 3909.56,268.961 -0.17,0.34 0.17,-0.34"
         style="fill:#2d4672;fill-opacity:1;fill-rule:nonzero;stroke:none"
         id="path406" />
      <path
         d="m 3908.74,270.57 -0.65,1.34 0.65,-1.34"
         style="fill:#2d4672;fill-opacity:1;fill-rule:nonzero;stroke:none"
         id="path408" />
      <path
         d="m 3903.39,283.77 c 1.27,-4 2.8,-7.891 4.57,-11.579 -1.8,3.77 -3.3,7.649 -4.54,11.579 h -0.03"
         style="fill:#2d4672;fill-opacity:1;fill-rule:nonzero;stroke:none"
         id="path410" />
      <path
         d="m 4000.04,400.68 c 5.01,0 8.71,-0.391 12.95,-1.11 l 1.21,7.641 c 0,0 -11.71,3.59 -27.11,2.34 l -1.21,4.14 c 4.78,1.02 8.38,5.27 8.38,10.348 0,5.82 -4.74,10.531 -10.57,10.531 -5.83,0 -10.56,-4.711 -10.56,-10.531 0,-5.078 3.58,-9.328 8.36,-10.348 l 1.34,-4.632 c -16.35,-2.239 -29.35,-8.61 -29.35,-8.61 l 2.3,-7.047 c 9.89,3.278 18.46,5.289 26.24,6.129 7.62,0.801 13.35,1.149 18.02,1.149"
         style="fill:#2d4672;fill-opacity:1;fill-rule:nonzero;stroke:none"
         id="path412" />
      <path
         d="m 3909.37,362.109 0.05,0.082 1.14,1.418 -3.13,2.25 -4.88,3.571 c -0.27,-0.391 -7.95,-7.442 -14.01,-20.481 l -0.9,1.192 c -1.82,1.988 -4.36,3 -7.59,2.949 h -0.14 c -2,0 -3.37,0.66 -4.27,1.461 0.89,1.129 1.43,2.558 1.43,4.14 0,3.668 -3,6.68 -6.69,6.68 -3.69,0 -6.69,-3.012 -6.69,-6.68 0,-3.711 3,-6.703 6.69,-6.703 l 1.67,0.223 c 1.64,-1.84 4.25,-3.422 8.07,-3.34 1.97,0.02 3.41,-0.492 4.38,-1.57 1.11,-1.211 1.48,-2.942 1.59,-4.27 l -0.03,-0.039 c -4.35,-11.902 -3.11,-26.703 -3.11,-26.703 l 10.58,-0.43 c 0.21,5.391 0.98,14.821 3.71,22.301 5.26,14.5 11.86,23.559 12.13,23.949"
         style="fill:#2d4672;fill-opacity:1;fill-rule:nonzero;stroke:none"
         id="path414" />
      <path
         d="m 4092.03,391.859 c -3.67,0 -6.68,-2.988 -6.68,-6.699 l 0.24,-1.64 c -1.84,-1.661 -3.44,-4.278 -3.38,-8.11 0.04,-1.969 -0.47,-3.398 -1.55,-4.371 -0.84,-0.75 -1.91,-1.16 -2.95,-1.41 -7.87,11.031 -17.55,17.75 -17.55,17.75 l -7.6,-8.117 c 5.74,-5.223 11.6,-11.762 17.28,-19.903 3.95,-5.648 7.99,-12.91 11.37,-20.16 l 10.24,4.86 c 0,0 -4.67,11.562 -11.25,21.921 1.13,0.411 2.28,1.032 3.3,1.93 2.01,1.801 2.98,4.36 2.93,7.582 -0.02,2.067 0.66,3.469 1.48,4.406 1.15,-0.878 2.58,-1.418 4.12,-1.418 3.71,0 6.7,2.981 6.7,6.68 0,3.711 -2.99,6.699 -6.7,6.699"
         style="fill:#2d4672;fill-opacity:1;fill-rule:nonzero;stroke:none"
         id="path416" />
      <path
         d="m 4065.47,299.82 c -14.1,-6.851 -37.29,-15.929 -67.82,-20.191 -11.98,-1.66 -23.59,-2.27 -34.28,-2.27 -13.91,0 -26.2,1.043 -35.63,2.231 -10.76,1.351 -19.17,3.012 -24.32,4.18 1.24,-3.93 2.74,-7.809 4.54,-11.579 l 0.13,-0.281 0.65,-1.34 0.65,-1.269 0.17,-0.34 c 3.03,-5.699 6.67,-10.93 10.81,-15.481 14.4,-15.75 29.07,-18.25 29.21,-18.269 l 0.22,-0.012 0.22,-0.078 c 0.13,-0.062 13.14,-4.262 32.91,-4.262 19.46,0 38.55,3.93 56.74,11.68 13.47,6.891 26.23,17.359 32.54,26.703 4.88,7.219 8.42,14.918 10.5,22.93 1.12,4.258 2,11.066 1.47,18.258 -3.97,-2.68 -10.23,-6.469 -18.71,-10.61"
         style="fill:#2d4672;fill-opacity:1;fill-rule:nonzero;stroke:none"
         id="path418" />
      <path
         d="m 3954.17,366.129 c 15.57,0 28.17,-12.609 28.17,-28.18 0,-15.551 -12.6,-28.148 -28.17,-28.148 -15.55,0 -28.16,12.597 -28.16,28.148 0,15.571 12.61,28.18 28.16,28.18 z m 82.41,-0.699 c 9.61,0 17.44,-7.809 17.44,-17.418 0,-9.633 -7.83,-17.442 -17.44,-17.442 -9.61,0 -17.42,7.809 -17.42,17.442 0,9.609 7.81,17.418 17.42,17.418 z m -122.69,-6.66 c -0.41,-0.61 -6.52,-9.258 -11.35,-22.54 -3.62,-9.941 -3.46,-24.429 -3.46,-24.589 v -0.039 c 0,-3.403 0.19,-6.762 0.57,-10.102 l 0.02,-0.168 0.15,-1.273 c 0.3,-2.329 0.69,-4.668 1.19,-7.028 7,-1.781 48.78,-11.531 95.48,-5.019 29.27,4.078 51.5,12.726 64.99,19.277 11.22,5.422 18.42,10.352 21.2,12.383 -2.78,10.269 -10.41,26.398 -17.43,36.457 -20.05,28.66 -41.68,36 -52.77,37.832 -4.24,0.691 -7.63,1.098 -12.44,1.098 -4.47,0 -10.02,-0.368 -17.43,-1.149 -7.43,-0.769 -15.72,-2.719 -25.32,-5.961 -13.48,-4.508 -25.67,-11.578 -35.27,-20.469 l -0.33,-0.308 c -1.42,-1.313 -4.39,-4.063 -7.8,-8.402"
         style="fill:#2d4672;fill-opacity:1;fill-rule:nonzero;stroke:none"
         id="path420" />
    </g>
  </g>
</svg>
