<svg width="115" height="113" viewBox="0 0 115 113" fill="none" xmlns="http://www.w3.org/2000/svg">
<path d="M101.873 65.1778L92.1637 69.4761L82.8313 79.7794L73.5104 89.4933L69.903 99.4857C69.903 99.4857 79.272 107.154 94.6479 90.8202L94.6517 90.8238L94.8997 90.5576L94.8959 90.554C110.109 74.0629 101.873 65.1778 101.873 65.1778Z" fill="#F3A396"/>
<path d="M93.7713 89.4347C88.0885 95.5331 78.5397 95.8666 72.4452 90.1796L48.957 68.2617L69.5378 46.1761L93.026 68.094C99.1205 73.781 99.4554 83.3351 93.7713 89.4347Z" fill="#F3A396"/>
<path d="M56.4199 75.2268C56.4199 75.2268 73.3691 79.682 79.2889 72.2236C88.4368 60.6933 73.4823 50.0652 73.4823 50.0652C73.4823 50.0652 78.4717 62.5053 72.3431 69.0973C65.5083 76.4497 56.4199 75.2268 56.4199 75.2268Z" fill="#1A1A1A"/>
<path d="M35.7502 66.096L23.5629 56.7809C15.1037 51.54 16.5224 42.4483 21.0623 37.5765L36.7863 20.7028C41.6015 15.5355 51.0814 12.8754 56.6832 23.0009L67.4439 35.8592L35.7502 66.096Z" fill="#1A1A1A"/>
<path d="M70.6179 40.9565C76.2015 39.9137 70.3695 23.6561 64.6733 24.4342C58.9794 25.2122 61.845 31.9152 61.845 31.9152L65.8957 35.8475L69.3163 39.9324L70.3343 41.2276L70.6179 40.9565Z" fill="#F3A396"/>
<path d="M67.2142 28.4925C67.2142 28.4925 64.1473 30.1621 66.1104 35.2109" stroke="#D26665" stroke-width="0.203546" stroke-miterlimit="10" stroke-linecap="round" stroke-linejoin="round"/>
<path d="M65.4628 32.4067C65.4628 32.4067 69.3299 31.0838 69.8256 34.8038" stroke="#D26665" stroke-width="0.203546" stroke-miterlimit="10" stroke-linecap="round" stroke-linejoin="round"/>
<path d="M43.4017 70.1614C42.7529 75.8067 26.138 71.1205 26.5162 65.3799C26.8957 59.6405 33.7266 62.1905 33.7266 62.1905L37.9792 65.8039L42.2911 68.9323L43.6522 69.8594L43.4017 70.1614Z" fill="#F3A396"/>
<path d="M30.7402 67.6341C30.7402 67.6341 32.1906 64.4561 37.3607 66.0635" stroke="#D26665" stroke-width="0.203546" stroke-miterlimit="10" stroke-linecap="round" stroke-linejoin="round"/>
<path d="M34.5196 65.6114C34.5196 65.6114 33.4706 69.5641 37.2136 69.7993" stroke="#D26665" stroke-width="0.203546" stroke-miterlimit="10" stroke-linecap="round" stroke-linejoin="round"/>
<path d="M57.1576 26.3428C64.1087 32.8292 69.2461 39.3518 72.6433 44.2483C75.9704 49.0413 77.2406 54.9819 76.2358 60.7641L76.0534 61.8178C74.9889 67.9348 70.4684 72.9033 64.4805 74.5332C58.4389 76.1773 51.9926 75.2602 46.7376 71.9257C37.1795 65.8594 28.0134 57.618 28.0134 57.618C28.0134 57.618 9.1113 42.6942 25.168 26.1453C41.2285 9.59746 57.1576 26.3428 57.1576 26.3428Z" fill="#F3A396"/>
<path d="M37.4871 7.5605C28.7033 9.38416 21.4867 22.4452 18.7515 30.6845C17.142 28.9565 16.3417 30.1932 16.3417 30.1932C9.60738 42.8875 20.0852 47.6833 20.0852 47.6833C20.0852 47.6833 20.1411 47.6616 20.225 47.6304C21.5351 50.8365 25.1526 56.7862 35.2375 63.7633C35.2375 63.7633 28.1455 52.1138 22.4902 46.6986C28.6715 44.0466 44.9978 36.205 49.8006 25.6372C55.429 29.4035 63.723 33.1949 63.723 33.1949C58.7605 26.9878 54.3293 23.5149 51.0216 21.4974C51.1333 20.6778 51.1892 19.8465 51.14 19.0005C51.14 19.0005 49.9322 4.97436 37.4871 7.5605Z" fill="#1A1A1A"/>
<path d="M47.9318 49.7225L53.5935 55.0056C53.7832 55.1826 54.0009 55.3167 54.2294 55.4061C55.1318 55.7553 56.1513 55.2921 56.6079 54.4395L57.588 52.6038" stroke="#D26665" stroke-width="0.203546" stroke-miterlimit="10" stroke-linecap="round" stroke-linejoin="round"/>
<path d="M42.4797 52.4061C43.288 53.1603 43.3323 54.4279 42.5786 55.2367C41.8249 56.0455 40.5593 56.0885 39.751 55.3343C38.9428 54.58 38.8986 53.3148 39.6523 52.5061C40.4059 51.6973 41.6714 51.6518 42.4797 52.4061Z" fill="#1A1A1A"/>
<path d="M55.1159 38.8442C55.9242 39.5985 55.9685 40.8661 55.2148 41.6749C54.4611 42.4837 53.1943 42.5279 52.3861 41.7737C51.5778 41.0195 51.5348 39.753 52.2885 38.9442C53.0421 38.1354 54.3076 38.09 55.1159 38.8442Z" fill="#1A1A1A"/>
<path d="M45.1911 52.709L44.1997 58.5918" stroke="#D26665" stroke-width="0.152757" stroke-miterlimit="10" stroke-linecap="round" stroke-linejoin="round"/>
<path d="M53.1926 44.1004L58.6215 43.1418" stroke="#D26665" stroke-width="0.152757" stroke-miterlimit="10" stroke-linecap="round" stroke-linejoin="round"/>
<path d="M55.0777 61.6946C55.0777 61.6946 56.9654 61.3773 59.6905 58.453C62.1699 55.7922 62.8661 53.3367 62.8661 53.3367" stroke="#D26665" stroke-width="0.203546" stroke-miterlimit="10" stroke-linecap="round" stroke-linejoin="round"/>
<path d="M66.8398 64.8992L68.4246 66.3779" stroke="#D26665" stroke-width="0.152757" stroke-miterlimit="10" stroke-linecap="round" stroke-linejoin="round"/>
<path d="M41.2212 47.022L38.4185 44.3043L33.58 49.688C32.9696 50.3686 32.6096 51.2376 32.5615 52.1499L33.022 56.5205L35.7688 52.5258L41.2212 47.022Z" fill="#1A1A1A"/>
<path d="M46.9996 40.821L44.0948 38.2127L49.1242 33.0071C49.7601 32.3503 50.6012 31.9303 51.5073 31.8186L55.8964 31.9734L52.1058 34.9941L46.9996 40.821Z" fill="#1A1A1A"/>
<mask id="mask0_573_8521" style="mask-type:luminance" maskUnits="userSpaceOnUse" x="44" y="28" width="25" height="25">
<path d="M44.2343 40.825L56.0453 28.1504L68.7117 39.9699L56.9006 52.6445L44.2343 40.825Z" fill="white"/>
</mask>
<g mask="url(#mask0_573_8521)">
<g opacity="0.190002">
<path d="M62.3789 34.0598C65.8767 37.3238 66.0683 42.8079 62.8067 46.308C59.5451 49.808 54.0659 49.9982 50.5681 46.7342C47.0702 43.4702 46.8775 37.9874 50.1391 34.4873C53.4007 30.9872 58.881 30.7958 62.3789 34.0598Z" fill="white"/>
</g>
</g>
<mask id="mask1_573_8521" style="mask-type:luminance" maskUnits="userSpaceOnUse" x="29" y="43" width="26" height="26">
<path d="M29.7255 56.3963L41.5367 43.7215L54.203 55.541L42.3918 68.2158L29.7255 56.3963Z" fill="white"/>
</mask>
<g mask="url(#mask1_573_8521)">
<g opacity="0.190002">
<path d="M47.8708 49.6311C51.3686 52.8951 51.5602 58.3792 48.2986 61.8793C45.037 65.3793 39.5579 65.5695 36.06 62.3055C32.5622 59.0415 32.3694 53.5587 35.631 50.0586C38.8926 46.5585 44.373 46.3671 47.8708 49.6311Z" fill="white"/>
</g>
</g>
<path d="M47.8708 49.6311C51.3686 52.8951 51.5602 58.3792 48.2986 61.8793C45.037 65.3793 39.5579 65.5695 36.06 62.3055C32.5622 59.0415 32.3694 53.5587 35.631 50.0586C38.8926 46.5585 44.373 46.3671 47.8708 49.6311Z" stroke="#1A1A1A" stroke-width="0.129316" stroke-miterlimit="10" stroke-linecap="round" stroke-linejoin="round"/>
<path d="M62.3784 34.0637C65.8762 37.3277 66.0678 42.8118 62.8062 46.3119C59.5446 49.8119 54.0654 50.0021 50.5676 46.7381C47.0697 43.4741 46.877 37.9913 50.1386 34.4912C53.4002 30.9911 58.8805 30.7997 62.3784 34.0637Z" stroke="#1A1A1A" stroke-width="0.129316" stroke-miterlimit="10" stroke-linecap="round" stroke-linejoin="round"/>
<path d="M47.8708 49.6299C47.8708 49.6299 47.8689 46.8229 50.5675 46.7361" stroke="#1A1A1A" stroke-width="0.129316" stroke-miterlimit="10" stroke-linecap="round" stroke-linejoin="round"/>
<path d="M63.5394 32.8178L62.5579 33.8711" stroke="#1A1A1A" stroke-width="0.129316" stroke-miterlimit="10"/>
</svg>
