<svg width="250" height="525" viewBox="0 0 250 525" fill="none" xmlns="http://www.w3.org/2000/svg">
<path fill-rule="evenodd" clip-rule="evenodd" d="M129.232 318.269H116.072V297.794H129.232V318.269Z" fill="#110E0C"/>
<path fill-rule="evenodd" clip-rule="evenodd" d="M115.706 290.335H129.596C130.805 290.335 131.791 291.323 131.791 292.53V298.527C131.791 299.731 130.805 300.719 129.596 300.719H115.706C114.499 300.719 113.511 299.731 113.511 298.527V292.53C113.511 291.323 114.499 290.335 115.706 290.335Z" fill="#2A2928"/>
<path fill-rule="evenodd" clip-rule="evenodd" d="M122.651 293.99C103.644 293.99 87.9865 285.037 85.8926 273.516H159.409C157.317 285.037 141.66 293.99 122.651 293.99Z" fill="#110E0C"/>
<path fill-rule="evenodd" clip-rule="evenodd" d="M45.8436 1.90135C84.376 -3.11211 135.958 2.74183 151.748 8.39181C168.863 14.5112 181.404 29.3132 181.404 48.2415V86.5577C181.404 99.4428 174.886 110.283 165.007 117.076C140.03 134.247 0.651108 142.48 0.651108 84.218V43.5648C0.651108 8.7998 13.986 6.04238 45.8436 1.90135Z" fill="#3E5C86"/>
<path fill-rule="evenodd" clip-rule="evenodd" d="M45.8436 19.161C84.376 14.1475 135.961 20.0014 151.751 25.6514C168.863 31.7733 181.404 46.5728 181.404 65.5011V86.5577C181.404 99.4428 174.886 110.283 165.007 117.076C140.03 134.247 0.651108 142.48 0.651108 84.218V60.8268C0.651108 26.0594 13.986 23.302 45.8436 19.161Z" fill="#314D6C"/>
<path fill-rule="evenodd" clip-rule="evenodd" d="M247.778 260.783L250 264.877H14.8414L17.1785 260.78C92.3412 249.955 234.761 253.742 247.778 260.783Z" fill="#3E5C86"/>
<path fill-rule="evenodd" clip-rule="evenodd" d="M17.1785 260.782H247.66C248.948 260.782 250 261.836 250 263.119V270.435C250 275.743 245.655 280.086 240.347 280.086H17.1785C15.8932 280.086 14.8414 279.034 14.8414 277.746V263.119C14.8414 261.836 15.8932 260.782 17.1785 260.782Z" fill="#314D6C"/>
<path fill-rule="evenodd" clip-rule="evenodd" d="M63.9857 9.93384H71.0071C76.3155 9.93384 80.5745 14.2764 80.6556 19.5848L83.7275 280.086C75.9075 285.299 62.9339 285.402 50.8254 280.086V23.0966C50.8254 15.8566 56.7457 9.93384 63.9857 9.93384Z" fill="#110E0C"/>
<path fill-rule="evenodd" clip-rule="evenodd" d="M135.519 409.983H109.783V315.197H135.519V409.983Z" fill="#2A2928"/>
<path d="M134.713 365.755C158.477 379.846 227.179 413.827 237.823 437.28C240.008 442.096 240.534 447.123 241.627 457.609L242.052 461.656L246.127 498.655C242.93 500.924 239.091 500.742 234.852 499.005L230.998 462.834V462.812L230.57 458.742C229.607 449.507 229.143 445.083 227.678 441.854C218.297 421.178 147.851 385.835 126.399 373.113C125.973 367.637 128.691 365.133 134.713 365.755Z" fill="#110E0C"/>
<path d="M4.07207 461.656L4.49971 457.609C5.59334 447.123 6.11929 442.096 8.30653 437.28C18.9479 413.827 87.6495 379.846 111.414 365.755C117.435 365.133 120.154 367.637 119.731 373.113C98.2761 385.835 27.8295 421.178 18.4514 441.854C16.9842 445.083 16.5222 449.507 15.5564 458.742L15.1288 462.812V462.834L11.2777 499.005C7.03593 500.742 3.19967 500.924 -0.000106812 498.655L4.07207 461.656Z" fill="#110E0C"/>
<path fill-rule="evenodd" clip-rule="evenodd" d="M123.533 441.452C176.435 441.452 219.322 436.1 219.322 431.902C219.322 427.702 176.435 423.382 123.533 423.382C70.631 423.382 27.7437 427.702 27.7437 431.902C27.7437 436.1 70.631 441.452 123.533 441.452ZM123.533 416.692C183.461 416.692 232.045 423.797 232.045 432.558C232.045 441.322 183.461 448.424 123.533 448.424C63.6048 448.424 15.0208 441.322 15.0208 432.558C15.0208 423.797 63.6048 416.692 123.533 416.692Z" fill="#2A2928"/>
<path d="M135.759 363.621L196.572 431.452C197.479 432.48 199.937 435.205 202.099 437.606C208.55 444.76 211.915 448.493 214.203 453.534C216.651 458.93 217.24 464.556 218.467 476.296L218.941 480.831H218.944L223.502 522.255C219.922 524.797 215.626 524.598 210.875 522.649L206.562 482.145V482.121L206.083 477.564C205.004 467.228 204.486 462.273 202.844 458.653C201.369 455.409 198.447 452.165 192.839 445.943C191.746 444.728 190.517 443.37 187.26 439.693L126.448 371.859C125.973 365.732 129.018 362.925 135.759 363.621Z" fill="#110E0C"/>
<path d="M27.1881 480.831L27.6648 476.296C28.8887 464.556 29.4761 458.93 31.9238 453.534C34.2118 448.493 37.5762 444.76 44.0274 437.606C46.1925 435.205 48.6477 432.48 49.5546 431.452L110.37 363.621C117.111 362.925 120.156 365.732 119.679 371.859L58.8663 439.693C55.61 443.37 54.3812 444.728 53.29 445.943C47.6794 452.165 44.7573 455.409 43.2828 458.653C41.6411 462.273 41.1226 467.228 40.0437 477.564L39.5645 482.121V482.145L35.2539 522.649C30.5009 524.598 26.205 524.797 22.6243 522.255L27.1856 480.831H27.1881Z" fill="#110E0C"/>
</svg>
