<svg width="1200" height="771" viewBox="0 0 1200 771" fill="none" xmlns="http://www.w3.org/2000/svg">
<mask id="mask0_499_23202" style="mask-type:luminance" maskUnits="userSpaceOnUse" x="0" y="0" width="1200" height="771">
<path d="M1200 0H0V770.109H1200V0Z" fill="white"/>
</mask>
<g mask="url(#mask0_499_23202)">
<path d="M331.896 127.516V325.328H664.866V128.007L331.896 127.516Z" fill="#263238"/>
<path d="M512.913 315.901C514.091 318.358 514.626 321.073 514.47 323.793C514.316 326.511 513.472 329.148 512.02 331.453C510.57 333.758 508.558 335.658 506.173 336.976C503.789 338.292 501.109 338.983 498.385 338.983C495.661 338.983 492.981 338.292 490.597 336.976C488.211 335.658 486.2 333.758 484.749 331.453C483.297 329.148 482.455 326.511 482.299 323.793C482.143 321.073 482.679 318.358 483.858 315.901H474.057V377.482H522.713V315.901H512.913Z" fill="#263238"/>
<path d="M664.866 314.353H331.896V326.776H664.866V314.353Z" fill="#263238"/>
<path d="M661.851 131.004H334.919V314.353H661.851V131.004Z" fill="#3A649E"/>
<path d="M563.09 373.529H433.68V383.33H563.09V373.529Z" fill="#263238"/>
<g opacity="0.1">
<path d="M552.843 131.004L376.553 314.353H431.139L608.95 131.004H552.843Z" fill="white"/>
</g>
<g opacity="0.1">
<path d="M336.468 132.334L337.169 252.427L454.183 131.77L336.468 132.334Z" fill="white"/>
</g>
<g opacity="0.1">
<path d="M621.747 131.004L445.448 314.353H466.926L644.737 131.004H621.747Z" fill="white"/>
</g>
<g opacity="0.1">
<path d="M461.825 131.004L336.468 261.379V283.977L484.814 131.004H461.825Z" fill="white"/>
</g>
<g opacity="0.1">
<path d="M661.851 190.862C661.851 192.147 538.962 313.742 538.962 313.742H590.342L661.213 242.871L661.851 190.862Z" fill="white"/>
</g>
<path d="M341.432 308.324C341.295 308.324 341.195 270.661 341.195 224.2C341.195 177.739 341.295 140.076 341.432 140.076C341.568 140.076 341.668 177.73 341.668 224.2C341.668 270.67 341.559 308.324 341.432 308.324Z" fill="white"/>
<path d="M524.926 326.84C524.926 326.977 513.322 327.077 499.004 327.077C484.686 327.077 473.091 326.977 473.091 326.84C473.091 326.704 484.695 326.604 499.004 326.604C513.313 326.604 524.926 326.713 524.926 326.84Z" fill="#455A64"/>
<path d="M562.462 373.447C562.462 373.574 533.561 373.684 497.911 373.684C462.262 373.684 433.361 373.574 433.361 373.447C433.361 373.319 462.253 373.21 497.911 373.21C533.57 373.21 562.462 373.356 562.462 373.447Z" fill="#455A64"/>
<path d="M183.856 398.632H164.378V595.051H183.856V398.632Z" fill="#DCDCDC" stroke="#373737" stroke-width="0.649826"/>
<path d="M824.894 400.11H805.416V596.53H824.894V400.11Z" fill="#DCDCDC" stroke="#373737" stroke-width="0.649826"/>
<path d="M229.356 284.249C229.356 284.745 228.673 285.147 227.829 285.147C226.987 285.147 226.304 284.745 226.304 284.249C226.304 283.753 226.987 283.352 227.829 283.352C228.673 283.352 229.356 283.753 229.356 284.249Z" fill="#4F4C4C"/>
<path d="M228.213 284.249C228.213 284.373 228.041 284.474 227.829 284.474C227.618 284.474 227.447 284.373 227.447 284.249C227.447 284.125 227.618 284.023 227.829 284.023C228.041 284.023 228.213 284.125 228.213 284.249Z" fill="#45A7D4"/>
<path d="M810.484 129.328H717.215C710.776 129.328 705.557 134.548 705.557 140.987V366.534C705.557 372.973 710.776 378.193 717.215 378.193H810.484C816.922 378.193 822.142 372.973 822.142 366.534V140.987C822.142 134.548 816.922 129.328 810.484 129.328Z" fill="#263238"/>
<path d="M813.936 146.697H712.652V170.37H813.936V146.697Z" fill="#455A64"/>
<path d="M800 377.336H797.823C796.752 377.336 795.883 378.205 795.883 379.276V379.577C795.883 380.648 796.752 381.517 797.823 381.517H800C801.072 381.517 801.94 380.648 801.94 379.577V379.276C801.94 378.205 801.072 377.336 800 377.336Z" fill="#263238"/>
<path d="M730.085 377.336H727.908C726.837 377.336 725.968 378.205 725.968 379.276V379.577C725.968 380.648 726.837 381.517 727.908 381.517H730.085C731.157 381.517 732.025 380.648 732.025 379.577V379.276C732.025 378.205 731.157 377.336 730.085 377.336Z" fill="#263238"/>
<path d="M811.131 140.686C811.305 140.671 811.479 140.643 811.65 140.604C812.157 140.478 812.605 140.186 812.925 139.775C813.155 139.475 813.311 139.126 813.38 138.755C813.448 138.306 813.429 137.849 813.326 137.407C813.174 136.859 812.827 136.385 812.351 136.075C811.874 135.764 811.301 135.639 810.739 135.722L788.579 135.794L715.467 135.867C715.065 135.868 714.671 135.983 714.333 136.199C713.994 136.415 713.724 136.724 713.554 137.088C713.389 137.463 713.32 137.873 713.354 138.281C713.347 138.581 713.404 138.879 713.521 139.155C713.637 139.431 713.811 139.68 714.03 139.884C714.25 140.089 714.509 140.245 714.793 140.342C715.076 140.439 715.378 140.476 715.676 140.449H747.974L780.846 140.503L803.006 140.576H809.027L803.006 140.622L780.846 140.695H747.974H728.564H715.676C715.195 140.729 714.712 140.63 714.283 140.409C713.855 140.187 713.495 139.851 713.244 139.438C712.994 139.02 712.868 138.54 712.88 138.053C712.847 137.576 712.931 137.097 713.126 136.66C713.333 136.213 713.663 135.835 714.078 135.571C714.492 135.306 714.975 135.166 715.467 135.166L788.579 135.23L810.739 135.312C811.382 135.24 812.03 135.405 812.561 135.776C813.018 136.107 813.342 136.592 813.471 137.143C813.557 137.609 813.557 138.088 813.471 138.554C813.395 138.941 813.227 139.304 812.98 139.611C812.639 140.026 812.166 140.312 811.641 140.422C811.49 140.543 811.316 140.632 811.131 140.686Z" fill="#455A64"/>
<path d="M767.793 190.444C767.794 191.227 767.564 191.992 767.13 192.644C766.697 193.295 766.08 193.803 765.357 194.103C764.635 194.404 763.839 194.483 763.072 194.33C762.303 194.178 761.598 193.802 761.045 193.248C760.492 192.695 760.115 191.99 759.962 191.222C759.811 190.454 759.889 189.659 760.19 188.936C760.491 188.213 760.998 187.596 761.65 187.163C762.301 186.729 763.067 186.498 763.849 186.5C764.896 186.5 765.899 186.916 766.637 187.655C767.378 188.395 767.793 189.398 767.793 190.444Z" fill="#3A649E"/>
<path d="M725.959 377.692C726.416 377.693 726.854 377.873 727.18 378.193H728.091C727.875 377.826 727.568 377.521 727.199 377.308C726.83 377.095 726.412 376.984 725.987 376.981L725.03 377.692H725.959Z" fill="#263238"/>
<path d="M724.092 376.981C723.666 376.984 723.248 377.095 722.879 377.308C722.51 377.521 722.203 377.826 721.988 378.193H722.899C723.223 377.872 723.663 377.691 724.119 377.692H724.565L725.476 376.981H724.092Z" fill="#263238"/>
<path d="M763.731 277.474C731.543 301.566 705.493 321.194 705.557 321.194C705.621 321.194 731.761 301.811 763.959 277.729C796.157 253.647 822.197 234.01 822.142 233.955C822.078 233.928 795.911 253.365 763.731 277.474Z" fill="#455A64"/>
<path d="M763.731 283.914C731.543 308.005 705.493 327.633 705.557 327.633C705.621 327.633 731.761 308.251 763.959 284.169C796.157 260.086 822.197 240.449 822.142 240.395C822.078 240.367 795.911 259.822 763.731 283.914Z" fill="#455A64"/>
<path d="M763.731 290.353C731.543 314.444 705.493 334.072 705.557 334.118C705.621 334.163 731.761 314.736 763.959 290.653C796.157 266.571 822.197 246.934 822.142 246.879C822.078 246.806 795.911 266.261 763.731 290.353Z" fill="#455A64"/>
<path d="M763.731 296.792C731.543 320.884 705.493 340.512 705.557 340.557C705.621 340.603 731.761 321.175 763.959 297.093C796.157 273.011 822.197 253.373 822.142 253.319C822.078 253.246 795.911 272.701 763.731 296.792Z" fill="#455A64"/>
<path d="M763.731 303.232C731.543 327.323 705.493 346.951 705.557 346.997C705.621 347.042 731.761 327.614 763.959 303.532C796.157 279.45 822.197 259.813 822.142 259.758C822.078 259.685 795.911 279.14 763.731 303.232Z" fill="#455A64"/>
<path d="M763.731 309.671C731.543 333.762 705.493 353.391 705.557 353.436C705.621 353.482 731.761 334.054 763.959 309.972C796.157 285.89 822.197 266.252 822.142 266.198C822.078 266.116 795.911 285.58 763.731 309.671Z" fill="#455A64"/>
<path d="M763.731 316.111C731.543 340.203 705.493 359.831 705.557 359.876C705.621 359.922 731.761 340.494 763.959 316.412C796.157 292.33 822.197 272.692 822.142 272.647C822.078 272.565 795.911 292.02 763.731 316.111Z" fill="#455A64"/>
<path d="M763.731 322.586C731.543 346.677 705.493 366.306 705.557 366.351C705.621 366.397 731.761 346.969 763.959 322.887C796.157 298.805 822.197 279.167 822.142 279.122C822.078 279.003 795.911 298.458 763.731 322.586Z" fill="#455A64"/>
<path d="M763.731 328.963C734.375 350.932 710.129 369.157 706.14 372.254V372.309C710.193 369.385 734.539 351.26 763.941 329.263C796.138 305.172 822.179 285.544 822.124 285.498C822.079 285.444 795.911 304.899 763.731 328.963Z" fill="#455A64"/>
<path d="M763.731 335.43C738.738 354.129 717.452 370.123 709.209 376.417L709.319 376.499C717.671 370.332 738.993 354.448 763.968 335.767C796.166 311.675 822.206 292.047 822.152 292.002C822.079 291.883 795.911 311.338 763.731 335.43Z" fill="#455A64"/>
<path d="M763.731 341.869C743.529 356.989 725.749 370.332 715.32 378.193H715.666C726.186 370.387 743.902 357.18 763.94 342.17C796.138 318.078 822.178 298.45 822.124 298.405C822.078 298.323 795.91 317.778 763.731 341.869Z" fill="#455A64"/>
<path d="M763.731 348.309C749.085 359.238 735.714 369.303 725.476 376.981L724.565 377.692L723.9 378.193H724.356L725.03 377.692L725.986 376.981C736.206 369.376 749.476 359.466 763.986 348.609C796.183 324.518 822.224 304.89 822.169 304.844C822.078 304.762 795.91 324.217 763.731 348.309Z" fill="#455A64"/>
<path d="M763.731 354.749L732.444 378.194H732.973C741.953 371.499 752.574 363.566 763.941 355.05C796.138 330.958 822.179 311.33 822.124 311.284C822.079 311.202 795.911 330.658 763.731 354.749Z" fill="#455A64"/>
<path d="M763.731 361.188L741.033 378.193H741.598C748.493 373.056 756.035 367.409 763.959 361.489C796.156 337.397 822.197 317.769 822.142 317.769C822.078 317.642 795.91 337.097 763.731 361.188Z" fill="#455A64"/>
<path d="M763.731 367.628L749.623 378.193H750.224L763.959 367.928C796.157 343.837 822.197 324.209 822.142 324.209C822.079 324.081 795.911 343.536 763.731 367.628Z" fill="#455A64"/>
<path d="M763.731 374.067L758.266 378.193H758.876L764.004 374.368C796.202 350.277 822.242 330.648 822.188 330.603C822.078 330.521 795.91 349.976 763.731 374.067Z" fill="#455A64"/>
<path d="M766.828 378.193H767.438C798.015 355.313 822.197 337.115 822.142 337.042C822.079 336.96 797.587 355.186 766.828 378.193Z" fill="#455A64"/>
<path d="M775.436 378.192H776.046C802.46 358.427 822.197 343.581 822.143 343.481C822.088 343.408 802.041 358.309 775.436 378.192Z" fill="#455A64"/>
<path d="M784.07 378.192H784.644C806.613 361.725 822.197 349.957 822.151 349.957C822.088 349.856 806.248 361.624 784.07 378.192Z" fill="#455A64"/>
<path d="M792.686 378.192H793.223C810.529 365.185 822.178 356.414 822.142 356.332C822.097 356.287 810.238 365.094 792.686 378.192Z" fill="#455A64"/>
<path d="M801.321 378.193H801.794C814.273 368.82 822.17 362.845 822.142 362.8C822.142 362.8 814.018 368.738 801.321 378.193Z" fill="#455A64"/>
<path d="M822.133 369.24C822.042 369.24 817.524 372.592 809.974 378.194H810.356C817.707 372.683 822.088 369.331 822.133 369.24Z" fill="#455A64"/>
<path d="M723.135 151.197H717.361V154.85H723.135V151.197Z" fill="#263238"/>
<path d="M735.149 151.197H725.595V155.023H735.149V151.197Z" fill="#263238"/>
<path d="M747.755 151.197H738.201V155.023H747.755V151.197Z" fill="#263238"/>
<path d="M809.154 151.197H799.599V155.023H809.154V151.197Z" fill="#263238"/>
<path d="M756.117 153.11C756.117 153.492 756.004 153.865 755.791 154.182C755.579 154.5 755.277 154.747 754.925 154.894C754.572 155.04 754.183 155.078 753.809 155.004C753.434 154.929 753.09 154.745 752.821 154.475C752.551 154.205 752.366 153.861 752.292 153.486C752.217 153.112 752.256 152.723 752.402 152.371C752.547 152.018 752.796 151.716 753.113 151.504C753.431 151.292 753.804 151.179 754.186 151.179C754.44 151.178 754.691 151.227 754.926 151.323C755.161 151.42 755.374 151.562 755.554 151.742C755.733 151.921 755.875 152.135 755.972 152.369C756.069 152.604 756.118 152.856 756.117 153.11Z" fill="#263238"/>
<path d="M762.702 153.11C762.702 153.492 762.588 153.865 762.376 154.182C762.164 154.5 761.863 154.748 761.51 154.894C761.157 155.04 760.768 155.078 760.394 155.004C760.019 154.929 759.675 154.745 759.406 154.475C759.135 154.205 758.951 153.861 758.877 153.486C758.802 153.112 758.841 152.724 758.987 152.371C759.132 152.018 759.381 151.716 759.698 151.504C760.016 151.292 760.388 151.179 760.771 151.179C761.283 151.179 761.774 151.382 762.136 151.744C762.498 152.106 762.702 152.598 762.702 153.11Z" fill="#263238"/>
<path d="M766.491 195.172C766.491 195.172 766.318 195.327 765.963 195.491C765.445 195.725 764.895 195.885 764.333 195.965C763.488 196.088 762.626 196.038 761.8 195.819C760.78 195.54 759.859 194.982 759.141 194.207C758.406 193.433 757.935 192.449 757.793 191.392C757.69 190.536 757.82 189.668 758.166 188.878C758.396 188.352 758.734 187.881 759.159 187.494C759.469 187.221 759.678 187.13 759.687 187.148C759.188 187.685 758.778 188.3 758.476 188.969C758.197 189.713 758.109 190.515 758.221 191.301C758.379 192.256 758.821 193.141 759.487 193.842C760.146 194.556 760.986 195.078 761.919 195.354C762.686 195.581 763.49 195.661 764.287 195.591C765.028 195.492 765.765 195.352 766.491 195.172Z" fill="white"/>
<path d="M892.093 384.116H92.2329V399.238H892.093V384.116Z" fill="#DCDCDC" stroke="#373737" stroke-width="1.19801"/>
<path d="M234.594 608.906L931.525 610.34L976.768 689.193H148.922L234.594 608.906Z" fill="#83A5D1" stroke="#F1F1F1" stroke-width="1.01215"/>
<path d="M872.367 401.504H853.074V728.226H872.367V401.504Z" fill="#DCDCDC" stroke="#373737" stroke-width="0.834118"/>
<path d="M139.04 401.94H119.747V728.663H139.04V401.94Z" fill="#DCDCDC" stroke="#373737" stroke-width="0.834118"/>
<path d="M184.65 287.007C184.689 286.956 184.731 286.908 184.777 286.863L185.16 286.473L186.642 284.958C192.221 284.919 205.491 284.887 220.984 284.887C236.477 284.887 249.755 284.887 255.325 284.958L256.808 286.473L257.182 286.863C257.229 286.908 257.271 286.956 257.31 287.007C257.259 286.968 257.211 286.925 257.166 286.879L256.776 286.505L255.262 285.022C249.683 285.062 236.413 285.086 220.92 285.086C205.427 285.086 192.149 285.086 186.579 285.022L185.064 286.505L184.674 286.879C184.668 286.922 184.66 286.964 184.65 287.007Z" fill="#E0E0E0"/>
<path d="M203.267 291.701C203.132 291.589 202.574 291.215 202.383 291.079C202.058 290.836 201.714 290.62 201.354 290.434C201.63 290.755 201.943 291.041 202.287 291.286C202.47 291.43 202.94 291.828 203.084 291.932C203.096 291.949 203.111 291.962 203.129 291.971C203.147 291.98 203.167 291.985 203.188 291.985C203.208 291.985 203.228 291.981 203.246 291.971C203.264 291.962 203.279 291.949 203.291 291.932C203.308 291.917 203.321 291.898 203.329 291.877C203.337 291.855 203.341 291.833 203.338 291.81C203.336 291.788 203.328 291.766 203.316 291.747C203.304 291.728 203.287 291.712 203.267 291.701Z" fill="#E0E0E0"/>
<path d="M202.056 305.074C201.88 305.074 201.259 305.281 201.012 305.337C200.616 305.434 200.228 305.556 199.848 305.704C200.273 305.706 200.696 305.655 201.107 305.552L202.12 305.361C202.167 305.361 202.255 305.361 202.223 305.178C202.221 305.159 202.214 305.141 202.204 305.125C202.194 305.11 202.18 305.096 202.164 305.086C202.148 305.077 202.13 305.07 202.111 305.068C202.093 305.066 202.074 305.067 202.056 305.074Z" fill="#E0E0E0"/>
<path d="M206.2 315.419C206.041 315.482 205.451 315.801 205.236 315.913C204.874 316.089 204.525 316.291 204.192 316.518C204.602 316.423 205.001 316.281 205.379 316.096C205.595 316 206.176 315.769 206.328 315.69C206.479 315.61 206.447 315.618 206.392 315.49C206.385 315.472 206.374 315.456 206.36 315.442C206.347 315.428 206.33 315.418 206.312 315.411C206.294 315.404 206.275 315.401 206.255 315.403C206.236 315.404 206.217 315.409 206.2 315.419Z" fill="#E0E0E0"/>
<path d="M210.025 323.061C209.866 323.125 209.228 323.444 209.061 323.548C208.697 323.729 208.346 323.934 208.009 324.161C208.422 324.066 208.823 323.925 209.204 323.739C209.419 323.635 210.001 323.412 210.145 323.332C210.164 323.326 210.182 323.313 210.196 323.298C210.211 323.283 210.222 323.265 210.229 323.246C210.236 323.226 210.238 323.205 210.236 323.184C210.233 323.163 210.226 323.143 210.216 323.125C210.199 323.092 210.169 323.066 210.134 323.054C210.098 323.042 210.059 323.045 210.025 323.061Z" fill="#E0E0E0"/>
<path d="M213.278 330.043C213.11 330.107 212.52 330.425 212.313 330.529C211.948 330.708 211.596 330.912 211.261 331.143C211.673 331.047 212.072 330.903 212.449 330.712C212.664 330.617 213.246 330.386 213.397 330.306C213.549 330.226 213.525 330.242 213.461 330.107C213.454 330.089 213.444 330.074 213.431 330.061C213.417 330.049 213.401 330.039 213.384 330.033C213.367 330.026 213.348 330.025 213.33 330.026C213.311 330.027 213.294 330.033 213.278 330.043Z" fill="#E0E0E0"/>
<path d="M215.875 336.108C215.716 336.187 215.142 336.546 214.943 336.666C214.592 336.87 214.256 337.098 213.938 337.351C214.345 337.227 214.736 337.056 215.102 336.841C215.301 336.729 215.899 336.458 216.011 336.363C216.122 336.267 216.13 336.291 216.066 336.163C216.058 336.147 216.046 336.132 216.032 336.12C216.018 336.108 216.001 336.099 215.983 336.093C215.965 336.089 215.946 336.087 215.928 336.089C215.909 336.091 215.891 336.098 215.875 336.108Z" fill="#E0E0E0"/>
<path d="M201.418 297.502C201.243 297.502 200.573 297.502 200.342 297.502C199.937 297.495 199.532 297.522 199.131 297.582C199.541 297.68 199.961 297.728 200.382 297.725C200.621 297.725 201.235 297.781 201.41 297.781C201.586 297.781 201.554 297.781 201.562 297.63C201.561 297.612 201.556 297.594 201.548 297.579C201.54 297.563 201.53 297.547 201.516 297.536C201.503 297.524 201.488 297.515 201.471 297.509C201.454 297.504 201.436 297.501 201.418 297.502Z" fill="#E0E0E0"/>
<path d="M207.786 289.072C207.722 288.904 207.42 288.275 207.324 288.099C207.155 287.73 206.961 287.373 206.742 287.031C206.822 287.447 206.953 287.851 207.133 288.235C207.228 288.45 207.436 289.032 207.515 289.191C207.595 289.35 207.579 289.311 207.714 289.255C207.85 289.199 207.818 289.167 207.786 289.072Z" fill="#E0E0E0"/>
<path d="M209.811 287.724C208.909 287.885 207.999 287.995 207.085 288.05C206.981 288.154 204.941 289.931 204.806 290.083C204.67 290.234 202.415 291.143 202.335 291.286C202.055 292.294 201.839 293.319 201.689 294.354C201.689 294.354 200.303 297.327 200.335 297.941C200.335 298.244 201.131 301.734 201.131 301.734C201.131 301.734 201.06 305.257 201.131 305.385C201.195 305.648 203.331 309.856 203.586 310.119C203.586 310.119 205.324 315.586 205.427 315.865C206.335 317.072 207.148 318.349 207.858 319.682C208.432 320.933 208.95 323.627 209.061 323.611C209.907 324.634 210.665 325.727 211.325 326.879C211.652 327.875 211.962 330.513 212.042 330.633C212.042 330.633 213.142 332.227 213.373 332.617C214.114 333.844 214.17 335.359 214.752 336.674C215.282 337.286 215.919 337.797 216.633 338.18C218.227 337.805 221.215 336.992 222.211 336.586C222.737 336.419 209.811 287.724 209.811 287.724Z" fill="#455A64"/>
<path d="M224.163 299.758C224.331 299.702 224.96 299.567 225.223 299.519C225.617 299.422 226.016 299.353 226.419 299.312C226.042 299.504 225.643 299.652 225.231 299.75C225 299.814 224.434 299.997 224.243 300.037C224.195 300.037 224.1 300.037 224.068 299.925C224.061 299.908 224.06 299.889 224.061 299.872C224.062 299.853 224.068 299.836 224.077 299.82C224.086 299.804 224.099 299.79 224.114 299.779C224.128 299.769 224.145 299.761 224.163 299.758Z" fill="#E0E0E0"/>
<path d="M225.224 310.828C225.399 310.828 226.069 310.828 226.308 310.828C226.713 310.83 227.118 310.86 227.519 310.916C227.107 311.022 226.685 311.078 226.26 311.083C226.029 311.083 225.415 311.155 225.24 311.155C225.064 311.155 225.096 311.155 225.088 311.003C225.08 310.852 225.128 310.836 225.224 310.828Z" fill="#E0E0E0"/>
<path d="M225.702 319.276C225.877 319.276 226.555 319.276 226.786 319.276C227.191 319.271 227.595 319.292 227.997 319.34C227.588 319.447 227.168 319.503 226.746 319.507C226.515 319.507 225.893 319.579 225.718 319.579C225.67 319.579 225.574 319.579 225.566 319.428C225.564 319.409 225.566 319.389 225.572 319.371C225.578 319.353 225.588 319.336 225.6 319.322C225.613 319.307 225.629 319.295 225.646 319.288C225.664 319.28 225.683 319.276 225.702 319.276Z" fill="#E0E0E0"/>
<path d="M226.292 326.855C226.467 326.855 227.136 326.855 227.375 326.855C227.78 326.845 228.185 326.867 228.587 326.918C228.175 327.023 227.752 327.077 227.328 327.078C227.097 327.078 226.483 327.149 226.308 327.149C226.132 327.149 226.164 327.149 226.156 327.006C226.148 326.863 226.196 326.855 226.292 326.855Z" fill="#E0E0E0"/>
<path d="M226.953 333.479C227.128 333.479 227.798 333.534 228.037 333.55C228.441 333.573 228.843 333.624 229.24 333.702C228.823 333.778 228.397 333.802 227.973 333.773H226.945C226.897 333.773 226.81 333.773 226.81 333.614C226.81 333.455 226.857 333.486 226.953 333.479Z" fill="#E0E0E0"/>
<path d="M221.51 292.65C221.662 292.562 222.307 292.275 222.482 292.172C222.843 291.985 223.216 291.823 223.598 291.686C223.277 291.962 222.923 292.2 222.546 292.395C222.339 292.506 221.813 292.833 221.654 292.913C221.494 292.993 221.526 292.969 221.454 292.841C221.437 292.808 221.433 292.77 221.444 292.734C221.454 292.699 221.478 292.668 221.51 292.65Z" fill="#E0E0E0"/>
<path d="M217.318 287.852C217.389 287.693 217.708 287.103 217.82 286.896C218 286.532 218.208 286.183 218.441 285.852C218.345 286.264 218.197 286.663 218.003 287.039C217.899 287.254 217.668 287.836 217.589 287.979C217.582 287.999 217.57 288.017 217.555 288.032C217.539 288.046 217.521 288.057 217.501 288.063C217.481 288.07 217.46 288.071 217.439 288.068C217.418 288.064 217.398 288.056 217.381 288.044C217.31 288.012 217.286 287.948 217.318 287.852Z" fill="#E0E0E0"/>
<path d="M212.727 287.724C212.727 287.549 212.727 286.879 212.727 286.648C212.7 286.242 212.7 285.834 212.727 285.429C212.843 285.836 212.91 286.257 212.927 286.68C212.927 286.919 213.014 287.525 213.022 287.708C213.022 287.756 213.022 287.844 212.879 287.859C212.735 287.875 212.743 287.804 212.727 287.724Z" fill="#E0E0E0"/>
<path d="M209.914 287.692L212.68 286.68C212.799 286.728 215.07 287.477 215.222 287.54C215.373 287.604 217.422 287.493 217.549 287.588C218.186 288.382 218.777 289.212 219.318 290.075C220.231 290.881 221.071 291.767 221.829 292.721C221.948 293 222.841 296.466 222.841 296.466C222.841 296.466 224.371 299.599 224.435 299.734C224.499 299.997 224.682 304.667 224.602 305.018C224.602 305.018 225.614 310.661 225.654 310.947C225.476 312.434 225.399 313.93 225.423 315.426C225.527 316.781 226.276 319.411 226.22 319.459C226.02 320.746 225.919 322.046 225.917 323.348C226.093 324.376 226.969 326.879 226.961 327.022C226.961 327.022 226.826 328.911 226.81 329.365C226.81 330.776 227.368 332.171 227.495 333.589C227.358 334.343 227.088 335.066 226.698 335.725C225.124 336.126 223.527 336.435 221.916 336.65C221.406 336.674 209.914 287.692 209.914 287.692Z" fill="#455A64"/>
<g opacity="0.3">
<path d="M209.914 287.692L212.68 286.68C212.799 286.728 215.07 287.477 215.222 287.54C215.373 287.604 217.422 287.493 217.549 287.588C218.186 288.382 218.777 289.212 219.318 290.075C220.231 290.881 221.071 291.767 221.829 292.721C221.948 293 222.841 296.466 222.841 296.466C222.841 296.466 224.371 299.599 224.435 299.734C224.499 299.997 224.682 304.667 224.602 305.018C224.602 305.018 225.614 310.661 225.654 310.947C225.476 312.434 225.399 313.93 225.423 315.426C225.527 316.781 226.276 319.411 226.22 319.459C226.02 320.746 225.919 322.046 225.917 323.348C226.093 324.376 226.969 326.879 226.961 327.022C226.961 327.022 226.826 328.911 226.81 329.365C226.81 330.776 227.368 332.171 227.495 333.589C227.358 334.343 227.088 335.066 226.698 335.725C225.124 336.126 223.527 336.435 221.916 336.65C221.406 336.674 209.914 287.692 209.914 287.692Z" fill="black"/>
</g>
<path d="M209.005 288.416C208.926 288.289 208.822 288.13 208.71 287.978C208.608 287.833 208.496 287.694 208.376 287.564C208.314 287.502 208.244 287.448 208.168 287.404C208.179 287.49 208.203 287.573 208.24 287.651C208.316 287.812 208.404 287.966 208.503 288.114C208.607 288.273 208.718 288.432 208.806 288.552C208.894 288.671 208.878 288.64 208.981 288.552C209 288.535 209.012 288.513 209.017 288.488C209.021 288.463 209.017 288.439 209.005 288.416Z" fill="#E0E0E0"/>
<path d="M211.3 287.859C211.313 287.683 211.334 287.508 211.364 287.333C211.39 287.159 211.424 286.986 211.468 286.815C211.494 286.733 211.532 286.656 211.579 286.584C211.612 286.663 211.631 286.746 211.635 286.831C211.645 287.009 211.645 287.187 211.635 287.365C211.635 287.556 211.635 287.748 211.571 287.891C211.508 288.034 211.571 288.003 211.428 287.995C211.41 287.998 211.391 287.996 211.374 287.99C211.356 287.983 211.34 287.974 211.328 287.961C211.315 287.947 211.306 287.931 211.301 287.913C211.297 287.895 211.297 287.877 211.3 287.859Z" fill="#E0E0E0"/>
<path d="M218.322 295.494C218.45 295.383 218.641 295.231 218.832 295.096C219.005 294.967 219.186 294.85 219.374 294.745C219.468 294.698 219.567 294.663 219.669 294.642C219.623 294.737 219.564 294.826 219.494 294.905C219.342 295.059 219.18 295.203 219.008 295.335C218.832 295.486 218.641 295.622 218.498 295.725C218.486 295.742 218.47 295.756 218.452 295.765C218.434 295.774 218.414 295.779 218.394 295.779C218.374 295.779 218.354 295.774 218.336 295.765C218.318 295.755 218.302 295.742 218.29 295.725C218.272 295.711 218.258 295.692 218.249 295.67C218.24 295.648 218.237 295.624 218.241 295.601C218.244 295.577 218.253 295.556 218.268 295.537C218.282 295.518 218.301 295.503 218.322 295.494Z" fill="#E0E0E0"/>
<path d="M214.919 289.869C214.991 289.709 215.094 289.494 215.214 289.287C215.309 289.094 215.421 288.91 215.549 288.737C215.609 288.652 215.681 288.577 215.764 288.514C215.779 288.616 215.779 288.722 215.764 288.824C215.695 289.029 215.612 289.229 215.517 289.422C215.428 289.618 215.33 289.81 215.222 289.996C215.215 290.016 215.205 290.034 215.191 290.048C215.176 290.063 215.158 290.073 215.139 290.08C215.119 290.087 215.098 290.088 215.078 290.084C215.058 290.08 215.039 290.072 215.023 290.06C215.002 290.055 214.983 290.047 214.967 290.034C214.95 290.021 214.937 290.006 214.927 289.988C214.917 289.97 214.911 289.95 214.91 289.929C214.909 289.908 214.911 289.888 214.919 289.869Z" fill="#E0E0E0"/>
<path d="M220.872 302.668C221.04 302.612 221.263 302.548 221.494 302.492C221.704 302.441 221.917 302.401 222.132 302.373C222.235 302.358 222.339 302.358 222.442 302.373C222.364 302.444 222.276 302.503 222.179 302.548C221.983 302.633 221.78 302.705 221.574 302.763C221.351 302.835 221.12 302.899 220.952 302.939C220.785 302.978 220.809 302.939 220.769 302.819C220.764 302.786 220.772 302.751 220.791 302.723C220.81 302.695 220.839 302.676 220.872 302.668Z" fill="#E0E0E0"/>
<path d="M222.171 312.566C222.385 312.527 222.6 312.501 222.817 312.486C223.031 312.471 223.247 312.471 223.462 312.486C223.566 312.495 223.668 312.519 223.765 312.558C223.679 312.614 223.585 312.657 223.486 312.685C223.277 312.742 223.064 312.782 222.848 312.805C222.635 312.841 222.419 312.865 222.203 312.876C222.155 312.876 222.059 312.876 222.043 312.741C222.036 312.721 222.032 312.699 222.035 312.677C222.038 312.656 222.046 312.635 222.059 312.617C222.072 312.6 222.089 312.586 222.108 312.577C222.128 312.568 222.149 312.564 222.171 312.566Z" fill="#E0E0E0"/>
<path d="M223.422 321.277C223.637 321.266 223.853 321.266 224.068 321.277C224.284 321.286 224.5 321.31 224.713 321.349C224.817 321.372 224.916 321.409 225.008 321.46C224.912 321.504 224.81 321.534 224.705 321.548C224.491 321.565 224.275 321.565 224.06 321.548C223.821 321.548 223.59 321.548 223.414 321.548C223.359 321.548 223.271 321.548 223.279 321.389C223.287 321.229 223.327 321.277 223.422 321.277Z" fill="#E0E0E0"/>
<path d="M224.092 328.521H224.682C224.88 328.528 225.077 328.549 225.272 328.585C225.366 328.603 225.458 328.636 225.543 328.68C225.455 328.725 225.361 328.755 225.264 328.768C225.067 328.781 224.87 328.781 224.674 328.768C224.459 328.768 224.244 328.768 224.084 328.768C223.925 328.768 223.949 328.768 223.957 328.625C223.965 328.481 224.005 328.529 224.092 328.521Z" fill="#E0E0E0"/>
<path d="M225.064 335.343C225.216 335.399 225.365 335.462 225.51 335.534C225.659 335.596 225.802 335.668 225.941 335.749C226.006 335.795 226.065 335.848 226.116 335.909C226.039 335.918 225.962 335.918 225.885 335.909C225.728 335.865 225.573 335.811 225.423 335.749C225.273 335.694 225.127 335.631 224.984 335.558C224.984 335.558 224.889 335.51 224.929 335.415C224.931 335.4 224.937 335.386 224.945 335.374C224.954 335.362 224.965 335.352 224.978 335.344C224.992 335.338 225.006 335.334 225.021 335.333C225.036 335.333 225.051 335.337 225.064 335.343Z" fill="#E0E0E0"/>
<path d="M205.746 298.443C205.57 298.403 205.347 298.355 205.108 298.324C204.895 298.285 204.679 298.264 204.463 298.26C204.36 298.259 204.258 298.273 204.16 298.3C204.242 298.363 204.333 298.414 204.431 298.451C204.637 298.519 204.847 298.575 205.06 298.618C205.283 298.666 205.515 298.706 205.69 298.73C205.865 298.754 205.833 298.73 205.857 298.602C205.862 298.585 205.863 298.566 205.859 298.547C205.856 298.529 205.849 298.512 205.838 298.497C205.828 298.482 205.814 298.469 205.798 298.46C205.782 298.451 205.764 298.445 205.746 298.443Z" fill="#E0E0E0"/>
<path d="M206.694 291.852C206.559 291.74 206.368 291.605 206.176 291.469C205.985 291.334 205.786 291.206 205.626 291.127C205.532 291.085 205.433 291.056 205.332 291.039C205.378 291.129 205.437 291.213 205.507 291.286C205.66 291.44 205.825 291.582 206.001 291.709C206.184 291.852 206.376 291.995 206.527 292.091C206.678 292.187 206.647 292.163 206.726 292.051C206.738 292.036 206.747 292.019 206.752 292.001C206.756 291.983 206.758 291.964 206.755 291.944C206.752 291.926 206.745 291.908 206.735 291.892C206.725 291.876 206.71 291.862 206.694 291.852Z" fill="#E0E0E0"/>
<path d="M206.973 306.023C206.798 306.023 206.567 306.095 206.344 306.158C206.13 306.201 205.919 306.26 205.714 306.334C205.62 306.376 205.532 306.429 205.451 306.493C205.553 306.52 205.657 306.534 205.762 306.533C205.976 306.515 206.189 306.487 206.4 306.445C206.631 306.405 206.862 306.358 207.037 306.31C207.085 306.31 207.173 306.27 207.141 306.126C207.136 306.108 207.129 306.091 207.119 306.076C207.109 306.061 207.095 306.048 207.079 306.039C207.064 306.03 207.046 306.023 207.028 306.02C207.01 306.017 206.991 306.018 206.973 306.023Z" fill="#E0E0E0"/>
<path d="M210.368 315.546C210.201 315.594 209.978 315.682 209.762 315.77C209.547 315.857 209.324 315.953 209.173 316.04C209.084 316.095 209.004 316.162 208.934 316.24C209.037 316.256 209.141 316.256 209.244 316.24C209.455 316.19 209.663 316.13 209.866 316.056L210.472 315.825C210.492 315.82 210.51 315.809 210.525 315.796C210.541 315.781 210.553 315.765 210.561 315.746C210.569 315.726 210.572 315.705 210.57 315.684C210.569 315.664 210.562 315.644 210.551 315.626C210.544 315.609 210.536 315.592 210.523 315.578C210.51 315.565 210.495 315.554 210.477 315.546C210.46 315.539 210.441 315.534 210.423 315.534C210.404 315.534 210.385 315.539 210.368 315.546Z" fill="#E0E0E0"/>
<path d="M213.261 323.834C213.11 323.914 212.902 324.026 212.703 324.153C212.514 324.256 212.333 324.373 212.161 324.504C212.08 324.569 212.01 324.647 211.954 324.735C212.057 324.736 212.159 324.72 212.257 324.687C212.458 324.604 212.655 324.512 212.847 324.408C213.054 324.305 213.261 324.185 213.405 324.097C213.424 324.089 213.441 324.078 213.454 324.062C213.468 324.046 213.478 324.027 213.483 324.007C213.489 323.987 213.49 323.967 213.486 323.946C213.481 323.926 213.473 323.907 213.46 323.89C213.451 323.874 213.439 323.858 213.424 323.846C213.409 323.834 213.391 323.825 213.373 323.82C213.354 323.814 213.335 323.813 213.315 323.816C213.296 323.818 213.278 323.825 213.261 323.834Z" fill="#E0E0E0"/>
<path d="M215.867 330.697C215.724 330.769 215.533 330.873 215.349 330.984C215.177 331.081 215.012 331.191 214.855 331.311C214.781 331.37 214.717 331.44 214.664 331.518C214.759 331.519 214.854 331.503 214.943 331.47C215.126 331.4 215.305 331.318 215.477 331.223C215.668 331.12 215.86 331.016 215.995 330.928C216.012 330.922 216.027 330.91 216.039 330.897C216.051 330.883 216.059 330.866 216.064 330.849C216.069 330.831 216.069 330.812 216.065 330.795C216.061 330.776 216.054 330.759 216.042 330.745C216.036 330.729 216.024 330.716 216.011 330.704C215.998 330.693 215.982 330.685 215.966 330.681C215.949 330.676 215.932 330.676 215.915 330.678C215.898 330.682 215.882 330.687 215.867 330.697Z" fill="#E0E0E0"/>
<path d="M217.955 336.906L217.644 337.273C217.544 337.4 217.451 337.533 217.365 337.671C217.328 337.74 217.299 337.811 217.278 337.886C217.351 337.858 217.418 337.818 217.477 337.767C217.599 337.658 217.714 337.54 217.82 337.416L218.123 337.049C218.134 337.04 218.144 337.028 218.15 337.014C218.157 337 218.16 336.985 218.16 336.97C218.16 336.955 218.157 336.939 218.15 336.926C218.143 336.912 218.134 336.9 218.123 336.89C218.111 336.878 218.098 336.868 218.083 336.862C218.068 336.855 218.051 336.853 218.035 336.855C218.018 336.856 218.003 336.862 217.989 336.871C217.975 336.88 217.963 336.892 217.955 336.906Z" fill="#E0E0E0"/>
<path d="M209.818 287.7C209.415 287.889 208.997 288.044 208.567 288.162C208.268 288.307 208.037 288.561 207.922 288.872C207.459 289.748 206.806 290.466 206.264 291.263C205.822 292.03 205.633 292.916 205.722 293.797C205.719 294.597 205.66 295.396 205.547 296.188C205.411 297.065 205.037 298.18 205.252 299.057C205.467 299.934 205.69 300.651 205.873 301.448C206.041 302.197 206.16 302.955 206.232 303.719C206.253 304.903 206.449 306.076 206.814 307.202C207.196 308.182 207.611 309.163 208.017 310.135C208.299 310.782 208.536 311.448 208.727 312.127C208.958 312.924 209.261 313.976 209.524 314.869C209.839 315.954 210.261 317.006 210.783 318.009C211.2 318.784 211.573 319.582 211.899 320.4C212.401 321.747 212.504 323.269 213.126 324.568C213.699 325.499 214.208 326.468 214.648 327.469C214.752 327.82 214.871 328.378 214.991 328.959C215.276 330.376 215.737 331.753 216.362 333.056V333.128C216.731 334.118 217.042 335.13 217.294 336.156C217.374 336.411 218.386 338.794 218.832 338.547C219.725 338.053 221.693 336.658 221.693 336.658L209.818 287.7Z" fill="#455A64"/>
<g opacity="0.2">
<path d="M209.818 287.7C209.415 287.889 208.997 288.044 208.567 288.162C208.268 288.307 208.037 288.561 207.922 288.872C207.459 289.748 206.806 290.466 206.264 291.263C205.822 292.03 205.633 292.916 205.722 293.797C205.719 294.597 205.66 295.396 205.547 296.188C205.411 297.065 205.037 298.18 205.252 299.057C205.467 299.934 205.69 300.651 205.873 301.448C206.041 302.197 206.16 302.955 206.232 303.719C206.253 304.903 206.449 306.076 206.814 307.202C207.196 308.182 207.611 309.163 208.017 310.135C208.299 310.782 208.536 311.448 208.727 312.127C208.958 312.924 209.261 313.976 209.524 314.869C209.839 315.954 210.261 317.006 210.783 318.009C211.2 318.784 211.573 319.582 211.899 320.4C212.401 321.747 212.504 323.269 213.126 324.568C213.699 325.499 214.208 326.468 214.648 327.469C214.752 327.82 214.871 328.378 214.991 328.959C215.276 330.376 215.737 331.753 216.362 333.056V333.128C216.731 334.118 217.042 335.13 217.294 336.156C217.374 336.411 218.386 338.794 218.832 338.547C219.725 338.053 221.693 336.658 221.693 336.658L209.818 287.7Z" fill="black"/>
</g>
<path d="M221.725 336.658C221.581 336.797 221.423 336.922 221.255 337.032C220.944 337.263 220.458 337.598 219.852 338.02L219.358 338.339L219.095 338.514C218.992 338.554 218.928 338.658 218.729 338.642C218.53 338.626 218.338 338.307 218.187 338.108C218.041 337.894 217.91 337.67 217.796 337.439C217.516 336.932 217.289 336.398 217.119 335.845C216.944 335.271 216.8 334.649 216.609 334.028C216.377 333.376 216.111 332.738 215.812 332.115C215.519 331.413 215.274 330.691 215.079 329.955C214.871 329.158 214.712 328.401 214.521 327.604C214.251 326.804 213.867 326.047 213.381 325.356C212.912 324.589 212.572 323.748 212.377 322.87C212.196 321.954 211.929 321.058 211.58 320.192C211.165 319.331 210.783 318.463 210.329 317.57C209.896 316.654 209.544 315.702 209.277 314.725C208.982 313.761 208.735 312.772 208.416 311.848C208.097 310.923 207.778 310.023 207.396 309.13C207.213 308.692 207.029 308.253 206.854 307.815C206.66 307.384 206.505 306.935 206.392 306.476C206.215 305.585 206.106 304.682 206.065 303.774C205.853 302.126 205.517 300.496 205.061 298.897C205.035 298.127 205.129 297.359 205.34 296.618C205.464 295.938 205.544 295.252 205.579 294.561C205.579 293.908 205.579 293.27 205.666 292.657C205.742 292.079 205.964 291.531 206.312 291.063C206.889 290.361 207.421 289.623 207.906 288.855C208.04 288.534 208.291 288.275 208.607 288.13L209.309 287.923C209.501 287.888 209.686 287.824 209.858 287.731C209.858 287.731 209.699 287.867 209.332 287.994L208.647 288.234C208.361 288.374 208.141 288.619 208.033 288.919C207.578 289.702 207.072 290.456 206.519 291.174C206.195 291.62 205.992 292.141 205.929 292.689C205.858 293.262 205.929 293.9 205.874 294.577C205.848 295.278 205.773 295.975 205.65 296.666C205.459 297.38 205.373 298.118 205.395 298.857C205.869 300.456 206.215 302.09 206.431 303.743C206.48 304.634 206.592 305.521 206.766 306.397C206.882 306.839 207.034 307.271 207.22 307.688L207.762 309.003C208.137 309.871 208.472 310.796 208.798 311.744C209.125 312.693 209.364 313.649 209.659 314.629C210.266 316.503 211.031 318.322 211.947 320.065C212.3 320.945 212.567 321.858 212.743 322.79C212.921 323.655 213.248 324.483 213.708 325.237C214.2 325.957 214.589 326.744 214.863 327.572C215.055 328.369 215.214 329.166 215.405 329.963C215.594 330.687 215.831 331.398 216.115 332.091C216.414 332.722 216.68 333.368 216.912 334.028C217.111 334.673 217.238 335.295 217.398 335.861C217.562 336.395 217.776 336.912 218.035 337.407C218.147 337.631 218.272 337.85 218.41 338.06C218.505 338.252 218.651 338.415 218.832 338.53C218.832 338.53 218.984 338.475 219.071 338.427L219.342 338.267L219.845 337.957L221.279 337.024C221.421 336.893 221.57 336.771 221.725 336.658Z" fill="#263238"/>
<path d="M221.207 334.969C221.111 334.969 218.728 325.445 215.875 313.658C213.022 301.87 210.783 292.283 210.894 292.259C211.006 292.235 213.381 301.775 216.226 313.57C219.071 325.365 221.303 334.945 221.207 334.969Z" fill="#263238"/>
<path d="M209.818 287.716C210.671 287.676 211.253 287.381 212.01 287.883C212.851 288.402 213.719 288.879 214.608 289.31C215.38 289.75 215.966 290.455 216.258 291.294C216.632 292.017 217.053 292.715 217.517 293.382C218.067 294.133 218.544 294.933 218.944 295.773C219.238 296.549 219.465 297.349 219.621 298.164C219.81 298.911 220.052 299.643 220.346 300.356C220.859 301.429 221.218 302.57 221.414 303.743C221.51 304.787 221.606 305.831 221.677 306.875C221.726 307.579 221.819 308.279 221.956 308.971C222.116 309.768 222.323 310.868 222.498 311.777C222.716 312.873 222.822 313.99 222.817 315.108C222.8 315.98 222.829 316.852 222.905 317.722C223.08 319.212 223.654 320.679 223.702 322.185C223.626 323.209 223.626 324.237 223.702 325.261C223.773 325.628 223.917 326.178 224.076 326.752C224.471 328.153 224.685 329.599 224.714 331.055C224.714 331.055 224.714 331.111 224.714 331.135C224.863 332.349 225.076 333.554 225.351 334.745C225.351 334.992 225.455 337.096 224.993 337.08C223.88 336.982 222.773 336.825 221.677 336.61L209.818 287.716Z" fill="#455A64"/>
<path d="M221.853 336.65C222.051 336.658 222.248 336.682 222.442 336.722C222.825 336.777 223.391 336.865 224.124 336.945C224.307 336.945 224.499 336.945 224.706 336.993C224.804 337.005 224.903 337.005 225.001 336.993C225.001 336.993 225.104 336.905 225.136 336.801C225.246 336.337 225.292 335.859 225.272 335.383C225.144 334.206 224.936 333.04 224.65 331.892C224.538 331.223 224.578 330.529 224.491 329.82C224.415 329.08 224.295 328.345 224.132 327.62C223.933 326.823 223.733 326.082 223.526 325.277C223.439 324.419 223.439 323.553 223.526 322.695C223.543 321.813 223.439 320.934 223.215 320.081C222.963 319.169 222.803 318.235 222.737 317.291C222.737 316.343 222.658 315.347 222.65 314.382C222.613 313.396 222.49 312.415 222.283 311.45C222.1 310.461 221.869 309.497 221.741 308.509C221.677 308.015 221.606 307.529 221.542 307.042C221.478 306.556 221.462 306.086 221.414 305.608C221.366 305.13 221.343 304.667 221.303 304.205C221.282 303.751 221.215 303.3 221.103 302.858C220.859 302.006 220.556 301.173 220.195 300.364C219.868 299.564 219.601 298.741 219.398 297.901C219.261 297.122 219.031 296.362 218.713 295.638C218.394 294.966 218.026 294.319 217.613 293.701C217.205 293.137 216.827 292.552 216.481 291.948C215.684 289.206 213.134 288.887 212.01 287.963C211.776 287.812 211.515 287.711 211.241 287.664C210.967 287.618 210.686 287.627 210.416 287.692C210.27 287.701 210.124 287.701 209.978 287.692H209.818C209.818 287.692 210.026 287.692 210.408 287.596C210.647 287.548 210.89 287.521 211.133 287.517C211.473 287.521 211.803 287.626 212.082 287.819C212.703 288.218 213.508 288.616 214.473 289.095C215.004 289.33 215.458 289.711 215.78 290.194C216.122 290.704 216.369 291.286 216.704 291.844C217.053 292.44 217.434 293.018 217.844 293.574C218.27 294.197 218.65 294.849 218.984 295.526C219.316 296.271 219.559 297.052 219.709 297.853C219.913 298.669 220.18 299.469 220.506 300.244C220.875 301.069 221.187 301.919 221.438 302.787C221.551 303.244 221.621 303.711 221.645 304.181C221.685 304.644 221.725 305.114 221.773 305.592C221.925 307.544 222.213 309.482 222.634 311.394C222.845 312.377 222.97 313.378 223.008 314.382C223.008 315.379 223.064 316.319 223.096 317.268C223.16 318.192 223.317 319.109 223.566 320.001C223.791 320.883 223.896 321.793 223.877 322.703C223.789 323.537 223.789 324.379 223.877 325.213C224.076 326.01 224.267 326.807 224.451 327.548C224.613 328.287 224.727 329.035 224.793 329.788C224.881 330.513 224.793 331.215 224.929 331.852C225.205 333.011 225.396 334.188 225.503 335.375C225.52 335.875 225.461 336.375 225.327 336.857C225.28 336.961 225.232 337.104 225.056 337.152C224.945 337.161 224.833 337.161 224.722 337.152C224.515 337.152 224.323 337.104 224.14 337.08C223.407 336.977 222.841 336.865 222.458 336.793C222.253 336.764 222.05 336.716 221.853 336.65Z" fill="#263238"/>
<path d="M238.406 262.301C238.27 262.07 237.665 261.241 237.457 260.946C237.107 260.433 236.721 259.946 236.302 259.487C236.534 260.091 236.837 260.667 237.202 261.201C237.402 261.504 237.872 262.325 237.999 262.54C237.999 262.611 238.127 262.715 238.31 262.595C238.338 262.585 238.363 262.568 238.383 262.547C238.404 262.525 238.419 262.499 238.428 262.471C238.437 262.442 238.44 262.413 238.436 262.384C238.431 262.354 238.422 262.325 238.406 262.301Z" fill="#E0E0E0"/>
<path d="M229.774 280.982C229.511 280.934 228.483 280.862 228.125 280.83C227.508 280.765 226.887 280.741 226.268 280.758C226.877 280.977 227.512 281.119 228.156 281.181C228.515 281.237 229.448 281.404 229.75 281.428C229.83 281.428 229.966 281.428 229.997 281.221C230.029 281.014 229.91 281.014 229.774 280.982Z" fill="#E0E0E0"/>
<path d="M230.428 298.044C230.157 298.044 229.137 298.212 228.786 298.251C228.168 298.322 227.555 298.437 226.953 298.594C227.596 298.672 228.247 298.672 228.89 298.594C229.248 298.594 230.197 298.53 230.484 298.49C230.563 298.49 230.699 298.49 230.675 298.235C230.651 297.98 230.571 298.044 230.428 298.044Z" fill="#E0E0E0"/>
<path d="M232.006 311.035C231.735 311.035 230.715 311.202 230.364 311.25C229.746 311.316 229.133 311.427 228.531 311.585C229.174 311.663 229.825 311.663 230.468 311.585C230.827 311.585 231.775 311.521 232.062 311.489C232.149 311.489 232.285 311.45 232.261 311.234C232.261 311.203 232.253 311.173 232.24 311.145C232.226 311.117 232.206 311.093 232.181 311.073C232.157 311.054 232.129 311.041 232.098 311.034C232.067 311.027 232.036 311.027 232.006 311.035Z" fill="#E0E0E0"/>
<path d="M233.098 322.72C232.827 322.72 231.815 322.887 231.456 322.935C230.841 323.003 230.23 323.115 229.631 323.27C230.274 323.349 230.924 323.349 231.567 323.27C231.926 323.27 232.867 323.206 233.161 323.174C233.193 323.174 233.223 323.166 233.251 323.152C233.279 323.139 233.303 323.119 233.322 323.094C233.342 323.07 233.355 323.042 233.361 323.011C233.368 322.98 233.368 322.949 233.361 322.919C233.36 322.888 233.352 322.857 233.336 322.829C233.322 322.801 233.301 322.777 233.275 322.758C233.251 322.739 233.222 322.726 233.191 322.719C233.16 322.712 233.128 322.712 233.098 322.72Z" fill="#E0E0E0"/>
<path d="M233.711 332.872C233.44 332.872 232.444 333.119 232.117 333.199C231.509 333.308 230.91 333.463 230.324 333.661C230.971 333.694 231.618 333.648 232.253 333.526C232.612 333.47 233.552 333.366 233.847 333.311C233.927 333.311 234.062 333.263 234.022 333.048C234.023 333.011 234.015 332.974 233.997 332.942C233.98 332.909 233.954 332.882 233.921 332.864C233.889 332.845 233.852 332.836 233.815 332.838C233.778 332.839 233.742 332.852 233.711 332.872Z" fill="#E0E0E0"/>
<path d="M232.755 269.736C232.508 269.625 231.536 269.314 231.161 269.194C230.576 268.985 229.977 268.817 229.368 268.692C229.911 269.045 230.494 269.332 231.106 269.545C231.44 269.681 232.309 270.071 232.564 270.159C232.636 270.159 232.771 270.223 232.851 270.015C232.864 269.991 232.872 269.964 232.875 269.936C232.877 269.909 232.874 269.881 232.865 269.854C232.855 269.829 232.841 269.804 232.822 269.784C232.804 269.764 232.781 269.748 232.755 269.736Z" fill="#E0E0E0"/>
<path d="M246.279 260.858C246.279 260.587 246.152 259.567 246.12 259.208C246.064 258.588 245.966 257.974 245.825 257.367C245.735 258.009 245.719 258.658 245.777 259.304C245.777 259.67 245.777 260.611 245.833 260.898C245.833 260.977 245.833 261.113 246.08 261.105C246.111 261.104 246.14 261.097 246.167 261.083C246.194 261.071 246.218 261.052 246.237 261.028C246.256 261.005 246.27 260.977 246.277 260.947C246.284 260.919 246.285 260.887 246.279 260.858Z" fill="#E0E0E0"/>
<path d="M249.898 259.949C248.517 259.72 247.149 259.411 245.802 259.024C245.603 259.112 241.737 260.618 241.459 260.778C241.18 260.937 237.474 261.073 237.282 261.24C236.796 261.631 234.772 265.336 234.772 265.336C234.772 265.336 231.241 268.915 230.962 269.799C230.819 270.254 230.165 275.681 230.165 275.681C230.165 275.681 228.253 280.726 228.229 280.933C228.189 281.348 229.105 288.512 229.329 289.03C229.329 289.03 229.018 297.797 229.026 298.259C229.729 300.479 230.262 302.749 230.62 305.05C230.803 307.146 230.157 311.29 230.325 311.338C230.325 311.338 231.919 315.888 231.919 317.211C231.919 318.805 230.978 322.79 231.026 322.997C231.026 322.997 231.823 325.866 231.927 326.544C232.357 328.696 231.68 330.919 231.823 333.111C231.823 333.43 233.417 336.211 233.76 336.243C236.246 336.522 240.98 336.897 242.678 336.833C243.459 336.801 249.898 259.949 249.898 259.949Z" fill="#455A64"/>
<path d="M264.419 284.672C264.69 284.672 265.71 284.823 266.069 284.871C266.685 284.934 267.294 285.043 267.894 285.198C267.251 285.274 266.6 285.274 265.957 285.198C265.598 285.198 264.65 285.142 264.363 285.11C264.283 285.11 264.148 285.11 264.164 284.863C264.165 284.833 264.173 284.803 264.188 284.776C264.202 284.749 264.222 284.726 264.247 284.708C264.271 284.689 264.299 284.677 264.329 284.67C264.358 284.664 264.389 284.665 264.419 284.672Z" fill="#E0E0E0"/>
<path d="M260.195 301.217C260.458 301.289 261.422 301.647 261.789 301.775C262.376 301.969 262.949 302.207 263.502 302.484C262.858 302.424 262.225 302.288 261.613 302.078C261.271 301.974 260.354 301.743 260.099 301.647C260.019 301.647 259.892 301.568 259.956 301.36C259.971 301.311 260.004 301.269 260.047 301.242C260.092 301.216 260.145 301.207 260.195 301.217Z" fill="#E0E0E0"/>
<path d="M256.569 313.658C256.832 313.722 257.796 314.088 258.163 314.208C258.754 314.401 259.33 314.641 259.884 314.925C259.237 314.864 258.6 314.726 257.987 314.51C257.645 314.407 256.728 314.176 256.473 314.088C256.394 314.088 256.266 314.008 256.33 313.793C256.347 313.745 256.379 313.705 256.424 313.68C256.468 313.655 256.519 313.647 256.569 313.658Z" fill="#E0E0E0"/>
<path d="M253.508 324.895C253.771 324.959 254.728 325.325 255.102 325.445C255.689 325.645 256.261 325.885 256.816 326.162C256.172 326.102 255.538 325.966 254.927 325.756C254.584 325.652 253.668 325.413 253.413 325.325C253.333 325.325 253.205 325.246 253.269 325.039C253.283 324.988 253.315 324.944 253.359 324.918C253.404 324.891 253.457 324.883 253.508 324.895Z" fill="#E0E0E0"/>
<path d="M251.054 334.825C251.309 334.913 252.241 335.343 252.576 335.487C253.149 335.724 253.703 336.004 254.233 336.323C253.595 336.218 252.972 336.036 252.377 335.782C252.042 335.654 251.141 335.351 250.894 335.248C250.864 335.238 250.837 335.223 250.814 335.201C250.791 335.181 250.772 335.154 250.761 335.125C250.749 335.096 250.744 335.064 250.747 335.033C250.749 335.002 250.759 334.972 250.775 334.945C250.784 334.918 250.799 334.894 250.818 334.873C250.838 334.852 250.861 334.836 250.888 334.824C250.914 334.813 250.943 334.808 250.971 334.808C250.999 334.808 251.027 334.814 251.054 334.825Z" fill="#E0E0E0"/>
<path d="M264.244 273.091C264.507 273.035 265.527 272.932 265.885 272.892C266.501 272.812 267.122 272.772 267.742 272.772C267.137 273.005 266.505 273.165 265.861 273.251C265.511 273.306 264.586 273.506 264.315 273.538C264.236 273.538 264.1 273.538 264.06 273.338C264.055 273.31 264.055 273.281 264.061 273.252C264.068 273.224 264.079 273.197 264.097 273.174C264.115 273.151 264.136 273.131 264.162 273.117C264.187 273.103 264.215 273.094 264.244 273.091Z" fill="#E0E0E0"/>
<path d="M260.665 264.014C260.84 263.807 261.613 263.13 261.876 262.883C262.325 262.455 262.805 262.061 263.311 261.703C262.96 262.247 262.543 262.746 262.068 263.185C261.813 263.441 261.183 264.142 260.984 264.325C260.964 264.348 260.94 264.367 260.912 264.381C260.885 264.395 260.855 264.402 260.824 264.404C260.793 264.405 260.763 264.4 260.734 264.39C260.706 264.378 260.68 264.362 260.658 264.34C260.636 264.32 260.619 264.293 260.607 264.265C260.595 264.237 260.59 264.206 260.591 264.176C260.591 264.145 260.598 264.116 260.611 264.088C260.624 264.06 260.642 264.035 260.665 264.014Z" fill="#E0E0E0"/>
<path d="M254.106 261.503C254.17 261.24 254.505 260.268 254.616 259.909C254.798 259.315 255.022 258.735 255.286 258.172C255.244 258.819 255.123 259.458 254.927 260.077C254.831 260.427 254.624 261.344 254.545 261.607C254.538 261.637 254.525 261.665 254.506 261.689C254.486 261.713 254.462 261.733 254.435 261.746C254.407 261.761 254.377 261.768 254.347 261.769C254.316 261.769 254.286 261.763 254.258 261.75C254.231 261.745 254.206 261.734 254.184 261.718C254.161 261.702 254.143 261.683 254.129 261.659C254.114 261.636 254.105 261.611 254.101 261.584C254.098 261.557 254.099 261.53 254.106 261.503Z" fill="#E0E0E0"/>
<path d="M250.065 259.966L254.616 259.91C254.759 260.046 257.636 262.301 257.804 262.468C257.971 262.636 260.991 263.536 261.135 263.736C261.649 265.208 262.075 266.708 262.41 268.231C262.41 268.231 264.61 272.423 264.665 273.347C264.665 273.817 264.195 279.269 264.195 279.269C264.195 279.269 264.785 284.576 264.761 284.784C264.721 285.198 262.577 292.036 262.291 292.49C262.291 292.49 260.84 301.153 260.752 301.592C259.728 303.654 258.847 305.785 258.114 307.968C257.557 309.976 257.317 314.168 257.134 314.176C257.134 314.176 254.958 318.328 254.695 319.627C254.416 321.221 254.393 325.262 254.313 325.461C254.313 325.461 253.133 328.123 252.886 328.768C252.089 330.793 252.241 333.096 251.691 335.216C251.691 335.535 249.77 337.942 249.499 337.91C247 337.673 244.516 337.287 242.063 336.754C241.402 336.539 250.065 259.966 250.065 259.966Z" fill="#455A64"/>
<g opacity="0.3">
<path d="M250.065 259.965L254.616 259.909C254.759 260.045 257.636 262.3 257.804 262.467C257.971 262.635 260.991 263.535 261.135 263.735C261.649 265.207 262.075 266.707 262.41 268.23C262.41 268.23 264.61 272.422 264.665 273.346C264.665 273.816 264.195 279.268 264.195 279.268C264.195 279.268 264.785 284.575 264.761 284.783C264.721 285.197 262.577 292.035 262.291 292.489C262.291 292.489 260.84 301.152 260.752 301.591C259.728 303.653 258.847 305.784 258.114 307.967C257.557 309.975 257.317 314.167 257.134 314.175C257.134 314.175 254.958 318.327 254.695 319.626C254.416 321.22 254.393 325.261 254.313 325.46C254.313 325.46 253.133 328.122 252.886 328.768C252.089 330.792 252.241 333.095 251.691 335.215C251.691 335.534 249.77 337.941 249.499 337.909C247 337.672 244.516 337.286 242.063 336.753C241.402 336.538 250.065 259.965 250.065 259.965Z" fill="black"/>
</g>
<path d="M248.384 260.54C248.336 260.317 248.264 260.03 248.177 259.743C248.106 259.472 248.018 259.206 247.914 258.946C247.854 258.83 247.782 258.72 247.699 258.619C247.678 258.748 247.678 258.881 247.699 259.01C247.731 259.278 247.782 259.544 247.85 259.807C247.914 260.094 247.994 260.38 248.057 260.604C248.057 260.667 248.113 260.779 248.288 260.731C248.324 260.715 248.353 260.688 248.37 260.653C248.388 260.618 248.393 260.578 248.384 260.54Z" fill="#E0E0E0"/>
<path d="M251.978 260.921C252.088 260.673 252.21 260.431 252.345 260.196C252.466 259.95 252.607 259.716 252.767 259.495C252.846 259.391 252.94 259.3 253.046 259.224C253.047 259.354 253.029 259.482 252.991 259.606C252.903 259.866 252.796 260.119 252.672 260.363C252.552 260.626 252.417 260.889 252.305 261.089C252.296 261.112 252.28 261.133 252.261 261.151C252.242 261.167 252.22 261.18 252.195 261.187C252.17 261.194 252.145 261.195 252.119 261.191C252.095 261.186 252.071 261.176 252.05 261.161C252.029 261.15 252.009 261.136 251.994 261.118C251.979 261.101 251.967 261.079 251.961 261.057C251.954 261.035 251.952 261.011 251.955 260.988C251.959 260.964 251.967 260.941 251.978 260.921Z" fill="#E0E0E0"/>
<path d="M258.171 275.546C258.418 275.45 258.761 275.339 259.111 275.235C259.427 275.136 259.749 275.059 260.076 275.004C260.234 274.982 260.395 274.982 260.554 275.004C260.44 275.116 260.311 275.213 260.171 275.291C259.87 275.433 259.562 275.557 259.247 275.666C258.912 275.785 258.569 275.897 258.306 275.968C258.278 275.977 258.248 275.98 258.219 275.977C258.189 275.975 258.16 275.966 258.134 275.953C258.108 275.939 258.085 275.92 258.066 275.898C258.046 275.875 258.032 275.848 258.023 275.82C258.014 275.793 258.011 275.762 258.014 275.733C258.017 275.703 258.026 275.675 258.039 275.648C258.052 275.622 258.072 275.599 258.094 275.58C258.117 275.561 258.143 275.546 258.171 275.538L258.171 275.546Z" fill="#E0E0E0"/>
<path d="M256.21 265.68C256.393 265.481 256.656 265.234 256.927 264.995C257.175 264.763 257.441 264.553 257.724 264.365C257.856 264.277 258.001 264.21 258.154 264.166C258.1 264.317 258.025 264.458 257.931 264.588C257.727 264.847 257.506 265.092 257.27 265.322C257.015 265.577 256.752 265.824 256.552 266.007C256.533 266.032 256.509 266.052 256.48 266.066C256.452 266.08 256.421 266.087 256.389 266.087C256.357 266.087 256.326 266.08 256.298 266.066C256.27 266.052 256.245 266.032 256.226 266.007C256.199 265.99 256.175 265.966 256.16 265.938C256.144 265.911 256.134 265.879 256.132 265.848C256.131 265.816 256.137 265.784 256.151 265.754C256.164 265.726 256.184 265.7 256.21 265.68Z" fill="#E0E0E0"/>
<path d="M258.155 287.206C258.426 287.206 258.784 287.206 259.143 287.277C259.472 287.308 259.8 287.359 260.123 287.429C260.277 287.469 260.425 287.532 260.562 287.612C260.414 287.673 260.258 287.714 260.099 287.732C259.768 287.756 259.435 287.756 259.103 287.732C258.745 287.732 258.386 287.684 258.123 287.652C258.035 287.652 257.9 287.652 257.924 287.405C257.924 287.376 257.932 287.348 257.944 287.322C257.956 287.296 257.974 287.273 257.995 287.254C258.017 287.236 258.042 287.222 258.07 287.214C258.097 287.204 258.126 287.202 258.155 287.206Z" fill="#E0E0E0"/>
<path d="M254.935 302.149C255.198 302.197 255.549 302.276 255.899 302.372C256.221 302.452 256.539 302.554 256.848 302.675C256.991 302.739 257.125 302.821 257.246 302.922C257.093 302.964 256.935 302.98 256.776 302.97C256.446 302.941 256.119 302.891 255.796 302.818C255.437 302.747 255.086 302.659 254.831 302.587C254.752 302.587 254.624 302.523 254.672 302.308C254.678 302.28 254.689 302.252 254.706 302.229C254.722 302.205 254.743 302.185 254.768 302.17C254.793 302.155 254.82 302.146 254.849 302.142C254.878 302.137 254.907 302.141 254.935 302.149Z" fill="#E0E0E0"/>
<path d="M252.225 315.386C252.48 315.474 252.815 315.602 253.149 315.745C253.455 315.869 253.753 316.014 254.042 316.175C254.176 316.261 254.296 316.366 254.4 316.486C254.245 316.512 254.086 316.512 253.93 316.486C253.607 316.412 253.29 316.313 252.982 316.191C252.639 316.072 252.304 315.936 252.057 315.825C251.986 315.825 251.866 315.729 251.946 315.522C251.953 315.493 251.966 315.466 251.984 315.442C252.002 315.419 252.026 315.401 252.053 315.387C252.08 315.374 252.109 315.367 252.139 315.367C252.168 315.367 252.198 315.374 252.225 315.386Z" fill="#E0E0E0"/>
<path d="M249.475 326.162C249.714 326.242 250.017 326.361 250.32 326.497C250.593 326.613 250.86 326.746 251.117 326.895C251.238 326.973 251.348 327.067 251.444 327.174C251.301 327.195 251.156 327.195 251.013 327.174C250.717 327.108 250.426 327.017 250.145 326.903C249.857 326.807 249.576 326.695 249.3 326.569C249.273 326.561 249.248 326.546 249.228 326.527C249.208 326.508 249.192 326.485 249.182 326.459C249.172 326.432 249.168 326.404 249.17 326.377C249.174 326.349 249.182 326.322 249.196 326.298C249.2 326.267 249.211 326.237 249.229 326.212C249.247 326.187 249.271 326.166 249.298 326.153C249.326 326.139 249.357 326.133 249.388 326.135C249.419 326.136 249.449 326.145 249.475 326.162Z" fill="#E0E0E0"/>
<path d="M247.372 336.499C247.523 336.634 247.722 336.81 247.914 337.001C248.094 337.171 248.265 337.351 248.424 337.543C248.493 337.638 248.55 337.743 248.591 337.854C248.475 337.824 248.365 337.775 248.264 337.71C248.061 337.571 247.867 337.419 247.682 337.256C247.483 337.08 247.284 336.889 247.141 336.754C247.122 336.739 247.107 336.72 247.097 336.699C247.087 336.677 247.082 336.654 247.082 336.63C247.082 336.606 247.087 336.583 247.097 336.562C247.107 336.54 247.122 336.522 247.141 336.507C247.155 336.491 247.172 336.477 247.192 336.468C247.211 336.459 247.233 336.454 247.254 336.453C247.276 336.452 247.298 336.456 247.317 336.463C247.338 336.471 247.356 336.484 247.372 336.499Z" fill="#E0E0E0"/>
<path d="M238.517 273.323C238.286 273.179 237.976 272.996 237.657 272.821C237.368 272.659 237.07 272.516 236.764 272.39C236.613 272.339 236.454 272.309 236.294 272.303C236.385 272.435 236.492 272.556 236.613 272.661C236.865 272.865 237.132 273.051 237.41 273.219C237.713 273.411 238.023 273.586 238.262 273.713C238.334 273.753 238.462 273.809 238.573 273.618C238.59 273.595 238.601 273.569 238.608 273.542C238.613 273.514 238.614 273.486 238.608 273.458C238.604 273.43 238.592 273.404 238.577 273.381C238.561 273.358 238.541 273.338 238.517 273.323Z" fill="#E0E0E0"/>
<path d="M243.283 264.301C243.14 264.078 242.94 263.775 242.725 263.504C242.54 263.224 242.335 262.958 242.112 262.707C241.997 262.595 241.868 262.499 241.729 262.42C241.748 262.579 241.791 262.736 241.857 262.882C242.002 263.18 242.167 263.467 242.351 263.743C242.542 264.046 242.749 264.341 242.909 264.54C242.923 264.568 242.944 264.592 242.97 264.61C242.995 264.628 243.025 264.64 243.056 264.645C243.087 264.65 243.119 264.646 243.148 264.637C243.178 264.627 243.205 264.61 243.227 264.588C243.271 264.556 243.301 264.508 243.311 264.455C243.321 264.402 243.312 264.347 243.283 264.301Z" fill="#E0E0E0"/>
<path d="M236.382 284.887C236.111 284.839 235.76 284.783 235.401 284.751C235.071 284.709 234.738 284.688 234.405 284.688C234.247 284.697 234.091 284.728 233.943 284.783C234.073 284.872 234.215 284.943 234.365 284.99C234.683 285.084 235.008 285.154 235.338 285.198C235.688 285.261 236.047 285.309 236.318 285.333C236.398 285.333 236.533 285.333 236.565 285.126C236.569 285.098 236.568 285.069 236.56 285.042C236.554 285.015 236.541 284.989 236.524 284.966C236.507 284.944 236.485 284.926 236.461 284.912C236.436 284.898 236.409 284.89 236.382 284.887Z" fill="#E0E0E0"/>
<path d="M236.366 300.364C236.095 300.364 235.736 300.364 235.377 300.364C235.047 300.376 234.717 300.408 234.389 300.46C234.233 300.49 234.083 300.544 233.943 300.619C234.086 300.692 234.239 300.74 234.397 300.763C234.725 300.803 235.055 300.823 235.385 300.819C235.744 300.819 236.103 300.819 236.374 300.819C236.461 300.819 236.597 300.819 236.589 300.571C236.581 300.324 236.509 300.372 236.366 300.364Z" fill="#E0E0E0"/>
<path d="M236.286 313.825C236.015 313.825 235.656 313.912 235.306 313.984C234.98 314.045 234.658 314.125 234.341 314.223C234.193 314.277 234.053 314.352 233.927 314.446C234.076 314.496 234.232 314.522 234.389 314.526C234.72 314.517 235.05 314.488 235.377 314.438C235.736 314.391 236.095 314.327 236.358 314.271C236.437 314.271 236.573 314.215 236.533 314C236.493 313.785 236.421 313.817 236.286 313.825Z" fill="#E0E0E0"/>
<path d="M236.493 325.062C236.246 325.062 235.919 325.141 235.6 325.205C235.301 325.255 235.005 325.326 234.716 325.42C234.578 325.469 234.449 325.539 234.333 325.627C234.472 325.672 234.618 325.696 234.763 325.699C235.065 325.692 235.366 325.667 235.664 325.62L236.557 325.468C236.605 325.455 236.647 325.423 236.675 325.38C236.702 325.338 236.713 325.286 236.705 325.237C236.697 325.187 236.671 325.141 236.632 325.109C236.593 325.077 236.543 325.06 236.493 325.062Z" fill="#E0E0E0"/>
<path d="M236.286 335.089C236.11 335.184 235.871 335.32 235.648 335.463C235.436 335.592 235.231 335.733 235.034 335.886C234.947 335.967 234.87 336.058 234.803 336.157C234.924 336.152 235.042 336.128 235.154 336.085C235.383 335.994 235.604 335.885 235.815 335.758C236.054 335.631 236.286 335.495 236.453 335.384C236.62 335.272 236.588 335.288 236.509 335.144C236.498 335.126 236.484 335.109 236.466 335.097C236.45 335.084 236.43 335.074 236.409 335.069C236.388 335.064 236.367 335.063 236.345 335.066C236.324 335.07 236.304 335.078 236.286 335.089Z" fill="#E0E0E0"/>
<path d="M249.93 259.91C249.249 259.972 248.563 259.972 247.882 259.91C247.376 259.968 246.912 260.215 246.583 260.604C245.459 261.632 244.192 262.309 242.956 263.234C241.721 264.158 241.363 265.226 240.868 266.613C240.447 267.773 239.943 268.902 239.362 269.992C238.725 271.195 237.601 272.598 237.473 273.977C237.346 275.212 237.282 276.479 237.131 277.73C236.993 278.9 236.774 280.058 236.477 281.197C235.901 282.916 235.581 284.71 235.529 286.521C235.576 288.115 235.656 289.757 235.752 291.367C235.82 292.447 235.82 293.53 235.752 294.61C235.672 295.87 235.569 297.551 235.481 298.978C235.373 300.686 235.437 302.399 235.672 304.094C235.867 305.415 235.993 306.745 236.047 308.079C236.047 310.279 235.441 312.534 235.672 314.726C235.847 316.368 236.469 318.001 236.373 319.691C236.373 320.249 236.23 321.126 236.102 322.026C235.787 324.234 235.749 326.472 235.991 328.689C235.991 328.737 235.991 328.776 235.991 328.808C236.008 330.429 235.933 332.05 235.768 333.662C235.768 334.06 235.991 338.029 236.756 337.902C238.302 337.639 241.857 336.651 241.857 336.651L249.93 259.91Z" fill="#455A64"/>
<g opacity="0.2">
<path d="M249.93 259.909C249.249 259.971 248.563 259.971 247.882 259.909C247.376 259.967 246.912 260.214 246.583 260.603C245.459 261.631 244.192 262.308 242.956 263.233C241.721 264.157 241.362 265.225 240.868 266.612C240.447 267.772 239.943 268.901 239.362 269.991C238.725 271.194 237.601 272.597 237.473 273.976C237.346 275.211 237.282 276.478 237.131 277.729C236.993 278.899 236.774 280.057 236.477 281.196C235.901 282.915 235.581 284.709 235.529 286.52C235.576 288.114 235.656 289.756 235.752 291.366C235.82 292.446 235.82 293.529 235.752 294.609C235.672 295.869 235.569 297.55 235.481 298.977C235.373 300.685 235.437 302.398 235.672 304.093C235.867 305.414 235.992 306.744 236.047 308.078C236.047 310.278 235.441 312.533 235.672 314.725C235.847 316.367 236.469 318 236.373 319.69C236.373 320.248 236.23 321.125 236.102 322.025C235.787 324.233 235.749 326.471 235.991 328.688C235.991 328.736 235.991 328.776 235.991 328.807C236.008 330.428 235.933 332.049 235.768 333.661C235.768 334.059 235.991 338.028 236.756 337.901C238.302 337.638 241.857 336.65 241.857 336.65L249.93 259.909Z" fill="black"/>
</g>
<path d="M241.864 336.682L241.649 336.762L240.996 336.953C240.414 337.12 239.561 337.359 238.453 337.638L237.577 337.845L237.098 337.949L236.851 337.997C236.801 338.014 236.748 338.018 236.695 338.012C236.643 338.005 236.592 337.986 236.549 337.957C236.288 337.676 236.116 337.323 236.054 336.945C235.967 336.57 235.903 336.148 235.847 335.781C235.712 334.92 235.656 334.047 235.68 333.175C235.728 332.251 235.855 331.294 235.895 330.282C235.894 329.217 235.834 328.153 235.72 327.094C235.661 325.934 235.677 324.77 235.767 323.612C235.815 323.014 235.895 322.4 235.967 321.787C236.038 321.173 236.11 320.559 236.182 319.93C236.207 318.631 236.046 317.334 235.704 316.08C235.562 315.403 235.476 314.715 235.449 314.024C235.44 313.319 235.474 312.613 235.552 311.912C235.767 310.498 235.866 309.07 235.847 307.64C235.783 306.182 235.544 304.723 235.369 303.209C235.218 301.67 235.2 300.121 235.313 298.579C235.409 297.033 235.502 295.502 235.592 293.988C235.664 292.49 235.536 291.007 235.481 289.533C235.481 288.808 235.417 288.075 235.385 287.357C235.325 286.638 235.325 285.916 235.385 285.198C235.589 283.824 235.896 282.469 236.301 281.141C236.636 279.879 236.866 278.591 236.987 277.292C237.122 276.016 237.186 274.805 237.361 273.586C237.733 272.47 238.27 271.417 238.955 270.462C239.487 269.543 239.956 268.59 240.358 267.608C240.757 266.684 241.027 265.743 241.458 264.907C241.859 264.117 242.457 263.444 243.195 262.954C244.367 262.226 245.493 261.428 246.566 260.563C246.76 260.369 246.98 260.202 247.22 260.069C247.439 259.961 247.677 259.898 247.921 259.886C248.368 259.886 248.718 259.926 249.037 259.942C249.635 259.942 249.946 259.942 249.938 259.942C249.93 259.942 249.627 260.045 249.029 260.037C248.734 260.037 248.36 260.037 247.929 260.037C247.701 260.056 247.478 260.121 247.276 260.228C247.051 260.363 246.845 260.527 246.662 260.715C245.598 261.603 244.48 262.426 243.315 263.177C242.61 263.655 242.039 264.305 241.657 265.066C241.251 265.863 240.988 266.819 240.597 267.76C240.195 268.757 239.726 269.726 239.194 270.661C238.542 271.594 238.034 272.621 237.688 273.705C237.393 276.04 237.377 278.662 236.652 281.284C236.257 282.589 235.958 283.921 235.76 285.269C235.7 285.972 235.7 286.678 235.76 287.381C235.76 288.099 235.823 288.824 235.863 289.549C235.919 291.007 236.046 292.506 235.975 294.036C235.903 295.566 235.791 297.08 235.704 298.635C235.588 300.155 235.604 301.683 235.752 303.201C235.927 304.691 236.158 306.182 236.23 307.656C236.241 309.104 236.136 310.552 235.919 311.984C235.736 313.336 235.781 314.711 236.054 316.048C236.399 317.328 236.557 318.652 236.525 319.977C236.445 320.615 236.373 321.245 236.301 321.858C236.23 322.472 236.134 323.07 236.086 323.667C235.994 324.813 235.973 325.963 236.023 327.11C236.127 328.169 236.177 329.233 236.174 330.298C236.118 331.326 235.991 332.291 235.935 333.199C235.897 334.057 235.943 334.917 236.07 335.765C236.118 336.164 236.182 336.562 236.262 336.905C236.311 337.242 236.452 337.559 236.668 337.822C236.74 337.893 236.939 337.822 237.09 337.822L237.569 337.726L238.445 337.535L240.996 336.913L241.657 336.754L241.864 336.682Z" fill="#263238"/>
<path d="M242 333.972C241.904 333.972 243.418 318.973 245.387 300.499C247.356 282.025 249.029 267.026 249.125 267.026C249.22 267.026 247.714 282.025 245.746 300.499C243.777 318.973 242.104 333.98 242 333.972Z" fill="#263238"/>
<path d="M249.922 259.95C251.165 260.325 252.153 260.197 252.99 261.313C253.935 262.499 254.94 263.635 256.003 264.716C257.087 265.88 257.142 266.876 257.358 268.43C257.538 269.653 257.805 270.862 258.155 272.048C258.551 273.437 258.818 274.858 258.952 276.296C258.984 277.566 258.901 278.835 258.704 280.09C258.599 281.26 258.571 282.438 258.617 283.612C258.806 285.425 258.74 287.254 258.418 289.048C258.019 290.602 257.621 292.164 257.182 293.71C256.887 294.757 256.661 295.822 256.505 296.898C256.314 298.149 256.066 299.823 255.851 301.225C255.594 302.918 255.169 304.581 254.584 306.19C254.114 307.441 253.71 308.715 253.373 310.008C252.855 312.247 252.926 314.662 252.201 316.846C251.707 318.328 250.878 319.731 250.607 321.293C250.52 321.843 250.448 322.72 250.384 323.628C250.227 325.853 249.79 328.048 249.085 330.163C249.086 330.203 249.086 330.243 249.085 330.283C248.519 332.076 248.511 333.981 248.153 335.814C248.073 336.188 247.085 339.265 246.423 339.002C244.868 338.285 243.352 337.487 241.88 336.611L249.922 259.95Z" fill="#455A64"/>
<path d="M242.056 336.73C242.056 336.73 242.127 336.73 242.263 336.826L242.861 337.153C243.387 337.432 244.16 337.862 245.172 338.356C245.427 338.484 245.69 338.611 245.969 338.739C246.112 338.795 246.28 338.874 246.399 338.914C246.519 338.954 246.638 338.811 246.734 338.691C247.147 338.077 247.466 337.406 247.682 336.699C247.958 335.894 248.133 335.059 248.2 334.212C248.312 333.303 248.4 332.339 248.599 331.335C248.798 330.331 249.197 329.342 249.444 328.267C249.719 327.159 249.926 326.036 250.065 324.903C250.177 323.716 250.288 322.512 250.408 321.221C250.72 319.942 251.16 318.697 251.723 317.507C252.783 315.053 252.52 312.16 253.317 309.299C253.699 307.888 254.249 306.493 254.72 305.083C255.175 303.634 255.502 302.149 255.7 300.644C255.939 299.113 256.172 297.605 256.401 296.117C256.656 294.618 257.102 293.192 257.461 291.789C257.644 291.08 257.828 290.387 258.011 289.693C258.217 289.026 258.356 288.34 258.425 287.645C258.521 286.284 258.521 284.918 258.425 283.556C258.376 282.245 258.424 280.932 258.569 279.627C258.775 278.425 258.836 277.202 258.752 275.985C258.633 274.848 258.431 273.721 258.147 272.614C257.852 271.594 257.609 270.559 257.421 269.514C257.23 268.51 257.182 267.537 256.967 266.669C256.762 265.848 256.325 265.103 255.708 264.525C254.745 263.537 253.838 262.497 252.99 261.409C252.727 261.071 252.4 260.79 252.026 260.581C251.652 260.373 251.24 260.243 250.814 260.197C250.519 260.133 250.296 260.078 250.153 260.03C250.078 260.013 250.005 259.986 249.938 259.95C250.014 259.955 250.089 259.972 250.161 259.998L250.822 260.126C251.19 260.189 251.552 260.28 251.906 260.396C252.387 260.581 252.803 260.902 253.102 261.321C253.963 262.392 254.881 263.416 255.851 264.389C256.502 264.986 256.967 265.759 257.19 266.613C257.421 267.513 257.477 268.478 257.668 269.466C257.863 270.504 258.111 271.53 258.41 272.542C258.709 273.661 258.923 274.802 259.047 275.953C259.14 277.19 259.087 278.434 258.888 279.659C258.748 280.948 258.706 282.245 258.76 283.541C258.856 284.918 258.856 286.3 258.76 287.677C258.69 288.39 258.551 289.095 258.346 289.781L257.796 291.877C257.437 293.295 256.999 294.706 256.744 296.181C256.489 297.655 256.282 299.177 256.05 300.699C255.842 302.22 255.509 303.721 255.054 305.186C254.576 306.629 254.034 308 253.652 309.394C252.855 312.16 253.118 315.093 252.058 317.635C251.5 318.803 251.059 320.023 250.743 321.277C250.621 322.536 250.501 323.756 250.384 324.935C250.237 326.081 250.022 327.218 249.738 328.338C249.475 329.422 249.061 330.41 248.87 331.391C248.447 333.351 248.503 335.232 247.889 336.77C247.657 337.492 247.321 338.176 246.893 338.803C246.774 338.922 246.638 339.097 246.399 339.074C246.16 339.05 246.08 338.946 245.929 338.882L245.132 338.484C244.128 337.966 243.363 337.519 242.853 337.217L242.271 336.858L242.056 336.73Z" fill="#263238"/>
<path d="M249.651 380.93H217.588L205.132 332.952H261.135L249.651 380.93Z" fill="#3A649E"/>
<g opacity="0.3">
<path d="M205.132 332.953L217.588 380.931H234.349L232.627 333.065L205.132 332.953Z" fill="black"/>
</g>
<path d="M234.692 380.778C234.588 380.778 234.054 370.107 233.496 356.933C232.938 343.759 232.564 333.063 232.699 333.063C232.835 333.063 233.329 343.735 233.887 356.917C234.445 370.099 234.747 380.778 234.692 380.778Z" fill="#263238"/>
</g>
</svg>
