<svg width="52" height="50" viewBox="0 0 52 50" fill="none" xmlns="http://www.w3.org/2000/svg">
<g clip-path="url(#clip0_374_18436)">
<mask id="mask0_374_18436" style="mask-type:luminance" maskUnits="userSpaceOnUse" x="-8" y="-217" width="369" height="382">
<path d="M206.715 -216.666L-7.89348 30.2124L146.343 164.288L360.951 -82.5908L206.715 -216.666Z" fill="white"/>
</mask>
<g mask="url(#mask0_374_18436)">
<mask id="mask1_374_18436" style="mask-type:luminance" maskUnits="userSpaceOnUse" x="-11" y="-13" width="191" height="177">
<path d="M29.4266 -12.7196L-10.9599 33.7397L138.82 163.941L179.207 117.482L29.4266 -12.7196Z" fill="white"/>
</mask>
<g mask="url(#mask1_374_18436)">
<path d="M39.072 40.4453C34.1409 40.2086 32.1206 40.3807 32.1206 40.3807C32.1206 40.3807 33.8597 37.0714 36.4389 34.1043C39.0183 31.1371 42.0531 28.9547 42.0531 28.9547C42.0531 28.9547 42.1639 30.9792 43.0846 35.8294C43.4545 37.7747 41.0501 40.5405 39.072 40.4453Z" fill="#F46C67"/>
</g>
</g>
<mask id="mask2_374_18436" style="mask-type:luminance" maskUnits="userSpaceOnUse" x="-8" y="-217" width="369" height="382">
<path d="M206.715 -216.666L-7.89348 30.2124L146.343 164.288L360.951 -82.5908L206.715 -216.666Z" fill="white"/>
</mask>
<g mask="url(#mask2_374_18436)">
<mask id="mask3_374_18436" style="mask-type:luminance" maskUnits="userSpaceOnUse" x="-11" y="-13" width="191" height="177">
<path d="M29.4266 -12.7196L-10.9599 33.7397L138.82 163.941L179.207 117.482L29.4266 -12.7196Z" fill="white"/>
</mask>
<g mask="url(#mask3_374_18436)">
<path d="M40.5699 30.7933L31.2413 24.4781L26.1827 30.2973L33.7348 38.6563C34.4867 39.4885 35.7967 39.4759 36.5325 38.6294L40.9325 33.5678C41.6683 32.7213 41.4987 31.4221 40.5699 30.7933Z" fill="#F46C67"/>
</g>
</g>
<mask id="mask4_374_18436" style="mask-type:luminance" maskUnits="userSpaceOnUse" x="-8" y="-217" width="369" height="382">
<path d="M206.715 -216.666L-7.89348 30.2124L146.343 164.288L360.951 -82.5908L206.715 -216.666Z" fill="white"/>
</mask>
<g mask="url(#mask4_374_18436)">
<mask id="mask5_374_18436" style="mask-type:luminance" maskUnits="userSpaceOnUse" x="-11" y="-13" width="191" height="177">
<path d="M29.4266 -12.7196L-10.9599 33.7397L138.82 163.941L179.207 117.482L29.4266 -12.7196Z" fill="white"/>
</mask>
<g mask="url(#mask5_374_18436)">
<path d="M26.1827 30.2969L31.9411 36.6707C35.2566 35.2753 36.8458 31.9243 36.7628 28.2156L31.2413 24.4776L26.1827 30.2969Z" fill="#1B1918"/>
</g>
</g>
<mask id="mask6_374_18436" style="mask-type:luminance" maskUnits="userSpaceOnUse" x="-8" y="-217" width="369" height="382">
<path d="M206.715 -216.666L-7.89348 30.2124L146.343 164.288L360.951 -82.5908L206.715 -216.666Z" fill="white"/>
</mask>
<g mask="url(#mask6_374_18436)">
<mask id="mask7_374_18436" style="mask-type:luminance" maskUnits="userSpaceOnUse" x="-11" y="-13" width="191" height="177">
<path d="M29.4266 -12.7196L-10.9599 33.7397L138.82 163.941L179.207 117.482L29.4266 -12.7196Z" fill="white"/>
</mask>
<g mask="url(#mask7_374_18436)">
<path d="M25.1344 9.32699C21.2839 6.08179 13.7717 8.83537 11.1629 11.8294L10.2332 12.9327C7.72421 16.0113 6.28337 23.8812 10.1348 27.127C10.1348 27.127 18.7623 32.8775 22.2655 34.9958C25.7688 37.1139 33.745 34.8257 35.2611 33.0816C36.7772 31.3376 37.6269 23.0434 34.9454 19.9496C32.2641 16.8556 25.1344 9.32699 25.1344 9.32699Z" fill="#F46C67"/>
</g>
</g>
<mask id="mask8_374_18436" style="mask-type:luminance" maskUnits="userSpaceOnUse" x="-8" y="-217" width="369" height="382">
<path d="M206.715 -216.666L-7.89348 30.2124L146.343 164.288L360.951 -82.5908L206.715 -216.666Z" fill="white"/>
</mask>
<g mask="url(#mask8_374_18436)">
<mask id="mask9_374_18436" style="mask-type:luminance" maskUnits="userSpaceOnUse" x="-11" y="-13" width="191" height="177">
<path d="M29.4266 -12.7196L-10.9599 33.7397L138.82 163.941L179.207 117.482L29.4266 -12.7196Z" fill="white"/>
</mask>
<g mask="url(#mask9_374_18436)">
<path d="M22.0905 34.796C21.0869 35.1099 20.0744 35.4251 19.0633 35.5462C18.0505 35.6658 17.0257 35.5784 16.2334 35.1219C15.4401 34.6649 14.5801 33.9623 15.0355 32.8221C15.4188 31.8665 18.3599 31.7192 18.3599 31.7192L22.0905 34.796Z" fill="#F46C67"/>
</g>
</g>
<mask id="mask10_374_18436" style="mask-type:luminance" maskUnits="userSpaceOnUse" x="-8" y="-217" width="369" height="382">
<path d="M206.715 -216.666L-7.89348 30.2124L146.343 164.288L360.951 -82.5908L206.715 -216.666Z" fill="white"/>
</mask>
<g mask="url(#mask10_374_18436)">
<mask id="mask11_374_18436" style="mask-type:luminance" maskUnits="userSpaceOnUse" x="-11" y="-13" width="191" height="177">
<path d="M29.4266 -12.7196L-10.9599 33.7397L138.82 163.941L179.207 117.482L29.4266 -12.7196Z" fill="white"/>
</mask>
<g mask="url(#mask11_374_18436)">
<path d="M34.3944 20.197C34.533 19.1542 34.6725 18.1032 34.6199 17.0861C34.5668 16.0679 34.3075 15.0731 33.7228 14.369C33.1381 13.6648 32.2994 12.9358 31.2534 13.5781C30.3759 14.1173 30.7303 17.042 30.7303 17.042L34.3944 20.197Z" fill="#F46C67"/>
</g>
</g>
<mask id="mask12_374_18436" style="mask-type:luminance" maskUnits="userSpaceOnUse" x="-8" y="-217" width="369" height="382">
<path d="M206.715 -216.666L-7.89348 30.2124L146.343 164.288L360.951 -82.5908L206.715 -216.666Z" fill="white"/>
</mask>
<g mask="url(#mask12_374_18436)">
<mask id="mask13_374_18436" style="mask-type:luminance" maskUnits="userSpaceOnUse" x="-11" y="-13" width="191" height="177">
<path d="M29.4266 -12.7196L-10.9599 33.7397L138.82 163.941L179.207 117.482L29.4266 -12.7196Z" fill="white"/>
</mask>
<g mask="url(#mask13_374_18436)">
<path d="M27.7591 26.4993C27.7812 26.4294 27.8292 26.2548 27.7692 26.1832C27.709 26.1117 27.451 26.3781 27.2953 26.4843C27.1393 26.5907 26.9336 26.6582 26.7716 26.5507C26.5695 26.4162 26.5483 26.0951 26.3844 25.9061C26.3738 25.8933 26.3621 25.8818 26.3493 25.8698C26.1272 25.8137 26.0291 26.0209 26.0478 26.2025C26.0597 26.3223 26.1141 26.4325 26.1748 26.5354C26.3058 26.7587 26.4729 26.9638 26.685 27.0848C26.8979 27.2069 27.1595 27.2336 27.3634 27.1112C27.5686 26.9891 27.679 26.75 27.7591 26.4993Z" fill="#AF4028"/>
</g>
</g>
<mask id="mask14_374_18436" style="mask-type:luminance" maskUnits="userSpaceOnUse" x="-8" y="-217" width="369" height="382">
<path d="M206.715 -216.666L-7.89348 30.2124L146.343 164.288L360.951 -82.5908L206.715 -216.666Z" fill="white"/>
</mask>
<g mask="url(#mask14_374_18436)">
<mask id="mask15_374_18436" style="mask-type:luminance" maskUnits="userSpaceOnUse" x="-11" y="-13" width="191" height="177">
<path d="M29.4266 -12.7196L-10.9599 33.7397L138.82 163.941L179.207 117.482L29.4266 -12.7196Z" fill="white"/>
</mask>
<g mask="url(#mask15_374_18436)">
<path d="M27.491 9.1204C27.7901 8.69793 27.7087 8.02574 27.2548 7.73573C26.6874 7.37323 26.0405 7.17699 25.3881 7.16163C25.5058 6.89436 25.5128 6.5729 25.3905 6.31461C25.1482 5.80259 24.5687 5.64455 24.068 5.84123C23.5138 6.05839 22.9773 6.31045 22.455 6.59428C22.433 6.59288 22.4105 6.59021 22.3876 6.58804C22.3921 6.42971 22.3649 6.27399 22.3026 6.14269C22.0494 5.60751 21.492 5.50238 20.98 5.66932C20.3204 5.88306 19.6852 6.15608 19.0745 6.47568C19.0539 5.81731 18.4383 5.18072 17.7011 5.5871C16.8621 6.04818 16.2495 6.69409 15.8571 7.49283C14.8481 7.15381 13.7677 7.07523 12.6933 7.29052C11.8878 7.45314 11.7474 8.32166 12.0866 8.85229C11.522 8.91409 10.9688 9.08021 10.4586 9.35727C9.98744 9.6125 9.74696 10.1759 9.98531 10.6801C10.0169 10.747 10.0582 10.8099 10.1057 10.8675C9.43395 10.9759 8.79565 11.2507 8.22245 11.7035C7.75861 12.0696 7.78314 12.59 8.03968 12.9663C7.15251 13.5185 6.48218 14.3039 6.02435 15.2705C5.8654 15.6065 5.98118 16.0058 6.2245 16.2781C5.90098 16.7179 5.62463 17.1925 5.39259 17.7035C5.13734 18.2625 5.43497 18.7091 5.87149 18.8962C5.3776 19.7565 5.12466 20.71 5.54053 21.6226C5.75857 22.1002 6.1889 22.2375 6.58454 22.1546C6.23674 23.2297 6.52631 24.5245 7.35446 25.3013C7.47812 25.4173 7.61834 25.5071 7.76716 25.5674C7.70526 26.1338 7.80911 26.7143 8.11502 27.212C8.38624 27.6533 8.92777 27.9547 9.43759 27.6853C9.44535 27.6817 9.45256 27.677 9.45953 27.6725C9.52955 28.2456 9.76784 28.7961 10.1797 29.22C10.5532 29.6043 11.147 29.7049 11.5784 29.3421C11.6661 29.2679 11.7392 29.175 11.7963 29.0719C11.8242 29.0897 11.8546 29.1081 11.8826 29.1258C12.0857 29.8878 12.4873 30.5942 13.0677 31.1394C13.4589 31.5069 14.0221 31.6356 14.4674 31.2623C14.5754 31.1719 14.6632 31.0476 14.7246 30.9076C15.1274 31.5806 15.6958 32.152 16.3754 32.5511C16.5456 32.6509 16.7344 32.708 16.9204 32.7166C16.9312 32.8093 16.9415 32.9026 16.9485 32.996C16.9896 33.5311 17.6175 33.8828 18.1054 33.7936C18.6784 33.6884 18.9434 33.1734 18.9021 32.6366C18.7916 31.1911 18.2538 29.8541 17.4132 28.6802C17.3777 28.6303 17.3402 28.588 17.3016 28.5486C18.5781 26.7115 19.4114 24.9639 19.7516 22.7915C20.1855 22.889 20.6712 22.7328 20.8748 22.1976C21.0479 21.7401 21.1861 21.2695 21.2917 20.7918C21.2951 20.7933 21.297 20.7946 21.2992 20.7956C21.8262 20.9909 22.3615 20.7046 22.5769 20.2111C22.9041 19.4624 23.031 18.6236 22.9448 17.809C23.4934 18.0275 24.2733 17.7911 24.3885 17.0227C24.4923 16.3316 24.5694 15.5982 24.5468 14.8797C24.737 15.0795 24.9297 15.2781 25.1269 15.4716C25.5095 15.8472 26.0875 15.9624 26.5265 15.5945C26.6875 15.4592 26.8029 15.2551 26.8537 15.0364C26.9113 15.1073 26.9814 15.1745 27.0682 15.2349C28.3423 16.1275 29.9801 16.9915 31.5844 16.7347C32.538 16.5816 32.5664 15.4269 31.9774 14.9611C32.2763 14.8185 32.4977 14.5513 32.5307 14.1767C32.5731 13.6827 32.1669 13.0938 31.627 13.1004C30.9803 13.1087 30.4675 12.541 29.9435 12.1232C30.0493 11.8074 29.9717 11.4496 29.7712 11.1495C29.1565 10.2305 28.2267 9.6562 27.177 9.40145C27.297 9.33466 27.4053 9.24219 27.491 9.1204Z" fill="#202B41"/>
</g>
</g>
<mask id="mask16_374_18436" style="mask-type:luminance" maskUnits="userSpaceOnUse" x="-132" y="-75" width="370" height="381">
<path d="M83.3502 -74.9612L-131.258 171.917L22.9779 305.993L237.586 59.1141L83.3502 -74.9612Z" fill="white"/>
</mask>
<g mask="url(#mask16_374_18436)">
<mask id="mask17_374_18436" style="mask-type:luminance" maskUnits="userSpaceOnUse" x="-11" y="-13" width="191" height="177">
<path d="M29.4266 -12.7196L-10.9599 33.7397L138.82 163.941L179.207 117.482L29.4266 -12.7196Z" fill="white"/>
</mask>
<g mask="url(#mask17_374_18436)">
<path d="M29.2322 20.3781C29.7759 20.8836 29.8409 21.6549 29.4315 22.0919C29.0233 22.5295 28.2966 22.4677 27.7538 21.963C27.2092 21.4586 27.1002 20.6951 27.5084 20.2576C27.9167 19.82 28.6891 19.8736 29.2322 20.3781Z" fill="#1B1918"/>
</g>
</g>
<mask id="mask18_374_18436" style="mask-type:luminance" maskUnits="userSpaceOnUse" x="-132" y="-75" width="370" height="381">
<path d="M83.3502 -74.9612L-131.258 171.917L22.9779 305.993L237.586 59.1141L83.3502 -74.9612Z" fill="white"/>
</mask>
<g mask="url(#mask18_374_18436)">
<mask id="mask19_374_18436" style="mask-type:luminance" maskUnits="userSpaceOnUse" x="-11" y="-13" width="191" height="177">
<path d="M29.4266 -12.7196L-10.9599 33.7397L138.82 163.941L179.207 117.482L29.4266 -12.7196Z" fill="white"/>
</mask>
<g mask="url(#mask19_374_18436)">
<path d="M21.6385 28.9156C22.1816 29.4201 22.9341 29.534 23.3425 29.0962C23.7517 28.6594 23.6609 27.8359 23.118 27.3312C22.574 26.826 21.8016 26.7723 21.3934 27.2099C20.985 27.6477 21.0939 28.4112 21.6385 28.9156Z" fill="#1B1918"/>
</g>
</g>
<mask id="mask20_374_18436" style="mask-type:luminance" maskUnits="userSpaceOnUse" x="-132" y="-75" width="370" height="381">
<path d="M83.3502 -74.9612L-131.258 171.917L22.9779 305.993L237.586 59.1141L83.3502 -74.9612Z" fill="white"/>
</mask>
<g mask="url(#mask20_374_18436)">
<mask id="mask21_374_18436" style="mask-type:luminance" maskUnits="userSpaceOnUse" x="-11" y="-13" width="191" height="177">
<path d="M29.4266 -12.7196L-10.9599 33.7397L138.82 163.941L179.207 117.482L29.4266 -12.7196Z" fill="white"/>
</mask>
<g mask="url(#mask21_374_18436)">
<path d="M26.5622 18.6158C26.5354 18.6466 26.5163 18.6845 26.5085 18.7274L26.1413 20.7207C26.1178 20.8475 26.2017 20.97 26.3285 20.9934C26.456 21.016 26.5768 20.9322 26.6002 20.8054L26.9692 18.8119C26.9918 18.6844 26.9079 18.5636 26.7813 18.54C26.6964 18.5238 26.6142 18.556 26.5622 18.6158Z" fill="#1B1918"/>
</g>
</g>
<mask id="mask22_374_18436" style="mask-type:luminance" maskUnits="userSpaceOnUse" x="-132" y="-75" width="370" height="381">
<path d="M83.3502 -74.9612L-131.258 171.917L22.9779 305.993L237.586 59.1141L83.3502 -74.9612Z" fill="white"/>
</mask>
<g mask="url(#mask22_374_18436)">
<mask id="mask23_374_18436" style="mask-type:luminance" maskUnits="userSpaceOnUse" x="-11" y="-13" width="191" height="177">
<path d="M29.4266 -12.7196L-10.9599 33.7397L138.82 163.941L179.207 117.482L29.4266 -12.7196Z" fill="white"/>
</mask>
<g mask="url(#mask23_374_18436)">
<path d="M19.3261 26.9627C19.2504 27.0498 19.2496 27.1825 19.3288 27.2713C19.4157 27.3673 19.5638 27.375 19.6587 27.2891C20.2642 26.7438 21.0394 26.3651 21.8412 26.2245C21.9688 26.2025 22.0532 26.0822 22.0309 25.9547C22.0089 25.8269 21.8876 25.7419 21.761 25.7647C20.8724 25.9195 20.0153 26.3373 19.3463 26.9413C19.3393 26.9476 19.3323 26.9557 19.3261 26.9627Z" fill="#1B1918"/>
</g>
</g>
<mask id="mask24_374_18436" style="mask-type:luminance" maskUnits="userSpaceOnUse" x="-132" y="-75" width="370" height="381">
<path d="M83.3502 -74.9612L-131.258 171.917L22.9779 305.993L237.586 59.1141L83.3502 -74.9612Z" fill="white"/>
</mask>
<g mask="url(#mask24_374_18436)">
<mask id="mask25_374_18436" style="mask-type:luminance" maskUnits="userSpaceOnUse" x="-11" y="-13" width="191" height="177">
<path d="M29.4266 -12.7196L-10.9599 33.7397L138.82 163.941L179.207 117.482L29.4266 -12.7196Z" fill="white"/>
</mask>
<g mask="url(#mask25_374_18436)">
<path d="M28.244 30.803C28.2117 30.8401 28.1682 30.8688 28.117 30.8814C27.9796 30.9184 27.8397 30.8371 27.8037 30.7003C27.5067 29.5832 27.7815 28.3357 28.5183 27.4454C29.257 26.5564 30.4303 26.0544 31.5833 26.1387C31.7239 26.1497 31.8302 26.2714 31.8202 26.413C31.8102 26.5545 31.6876 26.6599 31.5461 26.6499C30.5554 26.5784 29.5485 27.0047 28.9131 27.7731C28.2792 28.5379 28.0437 29.6086 28.2989 30.5688C28.3213 30.6535 28.2984 30.7404 28.244 30.803Z" fill="#AF4028"/>
</g>
</g>
</g>
<defs>
<clipPath id="clip0_374_18436">
<rect width="28" height="43.3255" fill="white" transform="translate(0 21.1318) rotate(-49)"/>
</clipPath>
</defs>
</svg>
