<svg width="300" height="181" viewBox="0 0 300 181" fill="none" xmlns="http://www.w3.org/2000/svg">
<path d="M182.489 179.17C187.055 181.709 194.461 181.592 198.944 178.908L295.772 122.018C300.255 119.333 298.776 106.245 298.776 106.245L115.148 19.4845C110.591 16.9257 103.215 17.0636 98.758 19.7949L0.218994 66.0997C0.218994 66.0997 -0.599091 78.4023 3.96955 80.942L182.489 179.17Z" fill="#4F4C4C"/>
<path d="M182.218 168.766C186.786 171.306 194.191 171.189 198.676 168.504L295.5 111.614C299.987 108.929 299.926 104.638 295.37 102.079L114.878 2.04465C110.32 -0.515751 102.945 -0.376259 98.4875 2.35542L3.49858 60.9567C-0.959319 63.6862 -0.868509 67.9991 3.69898 70.5373L182.218 168.766Z" fill="#393536"/>
<path d="M178.713 152.948C177.311 152.948 176.429 152.639 176.23 152.53L26.2612 70.0461L113.006 16.531C113.246 16.3896 114.258 16.0586 115.653 16.0586C116.983 16.0586 117.823 16.3513 118.014 16.4548L269.74 100.587L181.475 152.447C181.197 152.61 180.155 152.948 178.713 152.948Z" fill="#3A649E"/>
<path d="M209.558 67.2166L190.953 56.9004L147.97 136.988L166.609 147.24L209.558 67.2166Z" fill="#4E74A8"/>
<path d="M77.5518 98.2574L117.26 120.098L160.3 39.9036L120.666 17.9268L77.5518 98.2574Z" fill="#4E74A8"/>
<path d="M242.21 122.035L210.902 140.43L221.529 146.275C221.597 146.312 221.9 146.418 222.383 146.418C222.879 146.418 223.237 146.302 223.332 146.246L253.697 128.405L242.21 122.035Z" fill="#4F4C4C"/>
<path d="M55.0842 42.7612C55.0842 43.8461 53.5889 44.7255 51.7455 44.7255C49.9007 44.7255 48.4062 43.8461 48.4062 42.7612C48.4062 41.6772 49.9007 40.7979 51.7455 40.7979C53.5889 40.7979 55.0842 41.6772 55.0842 42.7612Z" fill="#4F4C4C"/>
<path d="M52.5828 42.7609C52.5828 43.033 52.2082 43.2541 51.7455 43.2541C51.2823 43.2541 50.9077 43.033 50.9077 42.7609C50.9077 42.4897 51.2823 42.2686 51.7455 42.2686C52.2082 42.2686 52.5828 42.4897 52.5828 42.7609Z" fill="#45A7D4"/>
<path d="M58.3242 38.4559L73.6143 28.6328" stroke="#4F4C4C" stroke-width="1.99232" stroke-miterlimit="10" stroke-linecap="round"/>
</svg>
