<svg width="530" height="1015" viewBox="0 0 530 1015" fill="none" xmlns="http://www.w3.org/2000/svg">
<g clip-path="url(#clip0_499_23075)">
<path d="M506.429 1015H23.5703C10.5533 1015 0 1004.45 0 991.432V28.1875V986.813C0 999.831 10.5533 1010.38 23.5703 1010.38H506.429C519.447 1010.38 530 999.831 530 986.813V991.432C530 1004.45 519.447 1015 506.429 1015Z" fill="#798C99"/>
<path d="M506.429 1010.38H23.5703C10.5533 1010.38 0 999.831 0 986.813V23.5684C0 10.5504 10.5533 0 23.5703 0H506.429C519.447 0 530 10.5504 530 23.5684V986.813C530 999.831 519.447 1010.38 506.429 1010.38Z" fill="#133441"/>
<rect x="26.52" y="26.4922" width="477.361" height="874.258" rx="25" fill="#DCDEEA"/>
</g>
<defs>
<clipPath id="clip0_499_23075">
<rect width="530" height="1015" fill="white"/>
</clipPath>
</defs>
</svg>
