<?xml version="1.0" encoding="UTF-8" standalone="no"?>
<svg
   width="400"
   height="767"
   viewBox="0 0 400 767"
   fill="none"
   version="1.1"
   id="svg57"
   sodipodi:docname="phone call - parent.svg"
   inkscape:version="1.3.1 (91b66b0783, 2023-11-16)"
   xmlns:inkscape="http://www.inkscape.org/namespaces/inkscape"
   xmlns:sodipodi="http://sodipodi.sourceforge.net/DTD/sodipodi-0.dtd"
   xmlns="http://www.w3.org/2000/svg"
   xmlns:svg="http://www.w3.org/2000/svg">
  <sodipodi:namedview
     id="namedview57"
     pagecolor="#ffffff"
     bordercolor="#000000"
     borderopacity="0.25"
     inkscape:showpageshadow="2"
     inkscape:pageopacity="0.0"
     inkscape:pagecheckerboard="0"
     inkscape:deskcolor="#d1d1d1"
     inkscape:zoom="0.96349413"
     inkscape:cx="199.79364"
     inkscape:cy="383.5"
     inkscape:window-width="1920"
     inkscape:window-height="974"
     inkscape:window-x="-11"
     inkscape:window-y="-11"
     inkscape:window-maximized="1"
     inkscape:current-layer="svg57" />
  <path
     d="M382.211 766.248H17.7889C7.96474 766.248 0 758.284 0 748.456V21.2793V744.969C0 754.797 7.96474 762.762 17.7889 762.762H382.211C392.035 762.762 400 754.797 400 744.969V748.456C400 758.284 392.035 766.248 382.211 766.248Z"
     fill="#798C99"
     id="path1" />
  <path
     d="M382.211 762.761H17.7889C7.96474 762.761 0 754.797 0 744.969V17.7924C0 7.96473 7.96474 0 17.7889 0H382.211C392.035 0 400 7.96473 400 17.7924V744.969C400 754.797 392.035 762.761 382.211 762.761Z"
     fill="#133441"
     id="path2" />
  <rect
     x="20"
     y="19.752"
     width="360"
     height="660"
     rx="25"
     fill="#DCDEEA"
     id="rect2" />
  <g
     clip-path="url(#clip0_606_31760)"
     id="g57">
    <mask
       id="mask0_606_31760"
       style="mask-type:luminance"
       maskUnits="userSpaceOnUse"
       x="-2952"
       y="-90"
       width="4308"
       height="2873">
      <path
         d="M-2951.95 -89.2471H1355.88V2782.64H-2951.95V-89.2471Z"
         fill="white"
         id="path3" />
    </mask>
    <g
       mask="url(#mask0_606_31760)"
       id="g4">
      <path
         d="M203.593 596.453C168.032 596.453 139.199 567.625 139.199 532.064V395.019H267.982V532.064C267.982 567.625 239.154 596.453 203.593 596.453Z"
         fill="#F3A396"
         id="path4" />
    </g>
    <mask
       id="mask1_606_31760"
       style="mask-type:luminance"
       maskUnits="userSpaceOnUse"
       x="-2952"
       y="-90"
       width="4308"
       height="2873">
      <path
         d="M-2951.95 -89.2471H1355.88V2782.64H-2951.95V-89.2471Z"
         fill="white"
         id="path5" />
    </mask>
    <g
       mask="url(#mask1_606_31760)"
       id="g6">
      <path
         d="M139.199 438.557C139.199 438.557 174.631 504.406 215.125 501.184C277.709 496.213 267.344 418.629 267.344 418.629C267.344 418.629 243.057 470.375 204.657 470.422C161.828 470.474 139.199 438.557 139.199 438.557Z"
         fill="#1A1A1A"
         id="path6" />
    </g>
    <mask
       id="mask2_606_31760"
       style="mask-type:luminance"
       maskUnits="userSpaceOnUse"
       x="-2952"
       y="-90"
       width="4308"
       height="2873">
      <path
         d="M-2951.95 -89.2471H1355.88V2782.64H-2951.95V-89.2471Z"
         fill="white"
         id="path7" />
    </mask>
    <g
       mask="url(#mask2_606_31760)"
       id="g8">
      <path
         d="M107.52 347.498L101.097 282.367C92.8261 240.725 125.316 218.715 153.717 218.715H252.113C282.242 218.715 318.135 240.559 302.855 287.497L294.067 358.466L107.52 347.498Z"
         fill="#1A1A1A"
         id="path8" />
    </g>
    <mask
       id="mask3_606_31760"
       style="mask-type:luminance"
       maskUnits="userSpaceOnUse"
       x="-2952"
       y="-90"
       width="4308"
       height="2873">
      <path
         d="M-2951.95 -89.2471H1355.88V2782.64H-2951.95V-89.2471Z"
         fill="white"
         id="path9" />
    </mask>
    <g
       mask="url(#mask3_606_31760)"
       id="g10">
      <path
         d="M287.406 383.197C306.903 397.598 340.642 332.107 321.636 316.599C302.63 301.091 290.068 329.528 290.068 329.528L289.599 353.602L286.807 376.158L285.734 383.102L287.406 383.197Z"
         fill="#F3A396"
         id="path10" />
    </g>
    <mask
       id="mask4_606_31760"
       style="mask-type:luminance"
       maskUnits="userSpaceOnUse"
       x="-2952"
       y="-90"
       width="4308"
       height="2873">
      <path
         d="M-2951.95 -89.2471H1355.88V2782.64H-2951.95V-89.2471Z"
         fill="white"
         id="path11" />
    </mask>
    <g
       mask="url(#mask4_606_31760)"
       id="g12">
      <path
         d="M316.373 336.332C316.373 336.332 302.234 331.616 292.201 352.431"
         stroke="#D26665"
         stroke-width="3.86556"
         stroke-miterlimit="10"
         stroke-linecap="round"
         stroke-linejoin="round"
         id="path12" />
    </g>
    <mask
       id="mask5_606_31760"
       style="mask-type:luminance"
       maskUnits="userSpaceOnUse"
       x="-2952"
       y="-90"
       width="4308"
       height="2873">
      <path
         d="M-2951.95 -89.2471H1355.88V2782.64H-2951.95V-89.2471Z"
         fill="white"
         id="path13" />
    </mask>
    <g
       mask="url(#mask5_606_31760)"
       id="g14">
      <path
         d="M299.068 342.247C299.068 342.247 314.447 350.471 304.281 362.839"
         stroke="#D26665"
         stroke-width="3.86556"
         stroke-miterlimit="10"
         stroke-linecap="round"
         stroke-linejoin="round"
         id="path14" />
    </g>
    <mask
       id="mask6_606_31760"
       style="mask-type:luminance"
       maskUnits="userSpaceOnUse"
       x="-2952"
       y="-90"
       width="4308"
       height="2873">
      <path
         d="M-2951.95 -89.2471H1355.88V2782.64H-2951.95V-89.2471Z"
         fill="white"
         id="path15" />
    </mask>
    <g
       mask="url(#mask6_606_31760)"
       id="g16">
      <path
         d="M117.105 383.198C97.5994 397.599 63.865 332.108 82.8711 316.6C101.877 301.091 113.81 329.822 113.81 329.822L114.913 353.603L117.704 376.159L118.777 383.103L117.105 383.198Z"
         fill="#F3A396"
         id="path16" />
    </g>
    <mask
       id="mask7_606_31760"
       style="mask-type:luminance"
       maskUnits="userSpaceOnUse"
       x="-2952"
       y="-90"
       width="4308"
       height="2873">
      <path
         d="M-2951.95 -89.2471H1355.88V2782.64H-2951.95V-89.2471Z"
         fill="white"
         id="path17" />
    </mask>
    <g
       mask="url(#mask7_606_31760)"
       id="g18">
      <path
         d="M88.1387 336.332C88.1387 336.332 102.277 331.616 112.306 352.431"
         stroke="#D26665"
         stroke-width="3.86556"
         stroke-miterlimit="10"
         stroke-linecap="round"
         stroke-linejoin="round"
         id="path18" />
    </g>
    <mask
       id="mask8_606_31760"
       style="mask-type:luminance"
       maskUnits="userSpaceOnUse"
       x="-2952"
       y="-90"
       width="4308"
       height="2873">
      <path
         d="M-2951.95 -89.2471H1355.88V2782.64H-2951.95V-89.2471Z"
         fill="white"
         id="path19" />
    </mask>
    <g
       mask="url(#mask8_606_31760)"
       id="g20">
      <path
         d="M105.444 342.247C105.444 342.247 90.0613 350.471 100.223 362.839"
         stroke="#D26665"
         stroke-width="3.86556"
         stroke-miterlimit="10"
         stroke-linecap="round"
         stroke-linejoin="round"
         id="path20" />
    </g>
    <mask
       id="mask9_606_31760"
       style="mask-type:luminance"
       maskUnits="userSpaceOnUse"
       x="-2952"
       y="-90"
       width="4308"
       height="2873">
      <path
         d="M-2951.95 -89.2471H1355.88V2782.64H-2951.95V-89.2471Z"
         fill="white"
         id="path21" />
    </mask>
    <g
       mask="url(#mask9_606_31760)"
       id="g22">
      <path
         d="M293.813 298.69C293.813 339.253 288.423 374.254 283.034 399.093C277.762 423.415 262.934 444.657 241.972 458.334L238.16 460.833C215.983 475.307 187.332 475.643 164.819 461.694C142.108 447.621 126.208 424.828 121.314 398.736C112.418 351.263 111.44 298.69 111.44 298.69C111.44 298.69 102.976 196.296 201.324 198.283C299.676 200.271 293.813 298.69 293.813 298.69Z"
         fill="#F3A396"
         id="path22" />
    </g>
    <mask
       id="mask10_606_31760"
       style="mask-type:luminance"
       maskUnits="userSpaceOnUse"
       x="-2952"
       y="-90"
       width="4308"
       height="2873">
      <path
         d="M-2951.95 -89.2471H1355.88V2782.64H-2951.95V-89.2471Z"
         fill="white"
         id="path23" />
    </mask>
    <g
       mask="url(#mask10_606_31760)"
       id="g24">
      <path
         d="M295.136 182.68C263.882 160.572 202.142 176.04 168.485 191.462C169.192 181.41 163.006 182.513 163.006 182.513C103.816 198.412 119.354 245.057 119.354 245.057C119.354 245.057 119.583 245.172 119.923 245.338C113.737 258.756 105.712 287.354 113.298 339.111C113.298 339.111 128.987 283.104 129.418 249.698C155.678 261.277 227.653 289.428 274.596 273.684C279.227 302.208 291.538 339.111 291.538 339.111C296.449 305.573 294.39 281.645 291.056 265.459C293.947 263.42 296.691 261.18 299.189 258.561C299.189 258.561 339.42 214.006 295.136 182.68Z"
         fill="#1A1A1A"
         id="path24" />
    </g>
    <mask
       id="mask11_606_31760"
       style="mask-type:luminance"
       maskUnits="userSpaceOnUse"
       x="-2952"
       y="-90"
       width="4308"
       height="2873">
      <path
         d="M-2951.95 -89.2471H1355.88V2782.64H-2951.95V-89.2471Z"
         fill="white"
         id="path25" />
    </mask>
    <g
       mask="url(#mask11_606_31760)"
       id="g26">
      <path
         d="M194.035 337.893V370.924C194.035 372.039 194.25 373.104 194.634 374.077C196.172 377.911 200.583 379.746 204.572 378.691L213.153 376.403"
         stroke="#D26665"
         stroke-width="3.86556"
         stroke-miterlimit="10"
         stroke-linecap="round"
         stroke-linejoin="round"
         id="path26" />
    </g>
    <mask
       id="mask12_606_31760"
       style="mask-type:luminance"
       maskUnits="userSpaceOnUse"
       x="-2952"
       y="-90"
       width="4308"
       height="2873">
      <path
         d="M-2951.95 -89.2471H1355.88V2782.64H-2951.95V-89.2471Z"
         fill="white"
         id="path27" />
    </mask>
    <g
       mask="url(#mask12_606_31760)"
       id="g28">
      <path
         d="M169.803 328.683C169.803 333.399 165.978 337.224 161.265 337.224C156.548 337.224 152.723 333.399 152.723 328.683C152.723 323.967 156.548 320.142 161.265 320.142C165.978 320.142 169.803 323.967 169.803 328.683Z"
         fill="#1A1A1A"
         id="path28" />
    </g>
    <mask
       id="mask13_606_31760"
       style="mask-type:luminance"
       maskUnits="userSpaceOnUse"
       x="-2952"
       y="-90"
       width="4308"
       height="2873">
      <path
         d="M-2951.95 -89.2471H1355.88V2782.64H-2951.95V-89.2471Z"
         fill="white"
         id="path29" />
    </mask>
    <g
       mask="url(#mask13_606_31760)"
       id="g30">
      <path
         d="M248.869 328.683C248.869 333.399 245.052 337.224 240.335 337.224C235.614 337.224 231.793 333.399 231.793 328.683C231.793 323.967 235.614 320.142 240.335 320.142C245.052 320.142 248.869 323.967 248.869 328.683Z"
         fill="#1A1A1A"
         id="path30" />
    </g>
    <mask
       id="mask14_606_31760"
       style="mask-type:luminance"
       maskUnits="userSpaceOnUse"
       x="-2952"
       y="-90"
       width="4308"
       height="2873">
      <path
         d="M-2951.95 -89.2471H1355.88V2782.64H-2951.95V-89.2471Z"
         fill="white"
         id="path31" />
    </mask>
    <g
       mask="url(#mask14_606_31760)"
       id="g32">
      <path
         d="M176.743 338.027L155.51 352.042"
         stroke="#D26665"
         stroke-width="2.90061"
         stroke-miterlimit="10"
         stroke-linecap="round"
         stroke-linejoin="round"
         id="path32" />
    </g>
    <mask
       id="mask15_606_31760"
       style="mask-type:luminance"
       maskUnits="userSpaceOnUse"
       x="-2952"
       y="-90"
       width="4308"
       height="2873">
      <path
         d="M-2951.95 -89.2471H1355.88V2782.64H-2951.95V-89.2471Z"
         fill="white"
         id="path33" />
    </mask>
    <g
       mask="url(#mask15_606_31760)"
       id="g34">
      <path
         d="M226.891 337.958L245.677 352.116"
         stroke="#D26665"
         stroke-width="2.90061"
         stroke-miterlimit="10"
         stroke-linecap="round"
         stroke-linejoin="round"
         id="path34" />
    </g>
    <mask
       id="mask16_606_31760"
       style="mask-type:luminance"
       maskUnits="userSpaceOnUse"
       x="-2952"
       y="-90"
       width="4308"
       height="2873">
      <path
         d="M-2951.95 -89.2471H1355.88V2782.64H-2951.95V-89.2471Z"
         fill="white"
         id="path35" />
    </mask>
    <g
       mask="url(#mask16_606_31760)"
       id="g36">
      <path
         d="M201.736 441.043V450.283"
         stroke="#D26665"
         stroke-width="2.90061"
         stroke-miterlimit="10"
         stroke-linecap="round"
         stroke-linejoin="round"
         id="path36" />
    </g>
    <mask
       id="mask17_606_31760"
       style="mask-type:luminance"
       maskUnits="userSpaceOnUse"
       x="-2952"
       y="-90"
       width="4308"
       height="2873">
      <path
         d="M-2951.95 -89.2471H1355.88V2782.64H-2951.95V-89.2471Z"
         fill="white"
         id="path37" />
    </mask>
    <g
       mask="url(#mask17_606_31760)"
       id="g38">
      <path
         d="M182.932 301.625L183.251 284.974L152.376 285.531C148.478 285.6 144.726 287.007 141.732 289.511L129.441 303.664L149.895 300.62L182.932 301.625Z"
         fill="#1A1A1A"
         id="path38" />
    </g>
    <mask
       id="mask18_606_31760"
       style="mask-type:luminance"
       maskUnits="userSpaceOnUse"
       x="-2952"
       y="-90"
       width="4308"
       height="2873">
      <path
         d="M-2951.95 -89.2471H1355.88V2782.64H-2951.95V-89.2471Z"
         fill="white"
         id="path39" />
    </mask>
    <g
       mask="url(#mask18_606_31760)"
       id="g40">
      <path
         d="M219.084 301.625L218.77 284.974L249.644 285.531C253.542 285.6 257.294 287.007 260.284 289.511L272.579 303.664L252.116 300.62L219.084 301.625Z"
         fill="#1A1A1A"
         id="path40" />
    </g>
    <mask
       id="mask19_606_31760"
       style="mask-type:luminance"
       maskUnits="userSpaceOnUse"
       x="-2952"
       y="-90"
       width="4308"
       height="2873">
      <path
         d="M-2951.95 -89.2471H1355.88V2782.64H-2951.95V-89.2471Z"
         fill="white"
         id="path41" />
    </mask>
    <g
       mask="url(#mask19_606_31760)"
       id="g42">
      <path
         d="M166.123 389.646H235.242C235.242 389.646 231.619 413.235 199.875 413.235C168.135 413.235 166.123 389.646 166.123 389.646Z"
         fill="white"
         id="path42" />
    </g>
    <mask
       id="mask20_606_31760"
       style="mask-type:luminance"
       maskUnits="userSpaceOnUse"
       x="-2952"
       y="-90"
       width="4308"
       height="2873">
      <path
         d="M-2951.95 -89.2471H1355.88V2782.64H-2951.95V-89.2471Z"
         fill="white"
         id="path43" />
    </mask>
    <g
       mask="url(#mask20_606_31760)"
       id="g45">
      <g
         opacity="0.190002"
         id="g44">
        <path
           d="M284.921 337.438C284.921 357.845 268.379 374.391 247.964 374.391C227.562 374.391 211.016 357.845 211.016 337.438C211.016 317.03 227.562 300.482 247.964 300.482C268.379 300.482 284.921 317.03 284.921 337.438Z"
           fill="white"
           id="path44" />
      </g>
    </g>
    <mask
       id="mask21_606_31760"
       style="mask-type:luminance"
       maskUnits="userSpaceOnUse"
       x="-2952"
       y="-90"
       width="4308"
       height="2873">
      <path
         d="M-2951.95 -89.2471H1355.88V2782.64H-2951.95V-89.2471Z"
         fill="white"
         id="path45" />
    </mask>
    <g
       mask="url(#mask21_606_31760)"
       id="g47">
      <g
         opacity="0.190002"
         id="g46">
        <path
           d="M194.141 337.438C194.141 357.845 177.599 374.391 157.184 374.391C136.783 374.391 120.236 357.845 120.236 337.438C120.236 317.03 136.783 300.482 157.184 300.482C177.599 300.482 194.141 317.03 194.141 337.438Z"
           fill="white"
           id="path46" />
      </g>
    </g>
    <mask
       id="mask22_606_31760"
       style="mask-type:luminance"
       maskUnits="userSpaceOnUse"
       x="-2952"
       y="-90"
       width="4308"
       height="2873">
      <path
         d="M-2951.95 -89.2471H1355.88V2782.64H-2951.95V-89.2471Z"
         fill="white"
         id="path47" />
    </mask>
    <g
       mask="url(#mask22_606_31760)"
       id="g48">
      <path
         d="M194.141 337.438C194.141 357.845 177.599 374.391 157.184 374.391C136.783 374.391 120.236 357.845 120.236 337.438C120.236 317.03 136.783 300.482 157.184 300.482C177.599 300.482 194.141 317.03 194.141 337.438Z"
         stroke="#1A1A1A"
         stroke-width="2.45834"
         stroke-miterlimit="10"
         stroke-linecap="round"
         stroke-linejoin="round"
         id="path48" />
    </g>
    <mask
       id="mask23_606_31760"
       style="mask-type:luminance"
       maskUnits="userSpaceOnUse"
       x="-2952"
       y="-90"
       width="4308"
       height="2873">
      <path
         d="M-2951.95 -89.2471H1355.88V2782.64H-2951.95V-89.2471Z"
         fill="white"
         id="path49" />
    </mask>
    <g
       mask="url(#mask23_606_31760)"
       id="g50">
      <path
         d="M284.921 337.438C284.921 357.845 268.379 374.391 247.964 374.391C227.562 374.391 211.016 357.845 211.016 337.438C211.016 317.03 227.562 300.482 247.964 300.482C268.379 300.482 284.921 317.03 284.921 337.438Z"
         stroke="#1A1A1A"
         stroke-width="2.45834"
         stroke-miterlimit="10"
         stroke-linecap="round"
         stroke-linejoin="round"
         id="path50" />
    </g>
    <mask
       id="mask24_606_31760"
       style="mask-type:luminance"
       maskUnits="userSpaceOnUse"
       x="-2952"
       y="-90"
       width="4308"
       height="2873">
      <path
         d="M-2951.95 -89.2471H1355.88V2782.64H-2951.95V-89.2471Z"
         fill="white"
         id="path51" />
    </mask>
    <g
       mask="url(#mask24_606_31760)"
       id="g52">
      <path
         d="M194.143 337.439C194.143 337.439 202.896 329.271 211.017 337.439"
         stroke="#1A1A1A"
         stroke-width="2.45834"
         stroke-miterlimit="10"
         stroke-linecap="round"
         stroke-linejoin="round"
         id="path52" />
    </g>
    <mask
       id="mask25_606_31760"
       style="mask-type:luminance"
       maskUnits="userSpaceOnUse"
       x="-2952"
       y="-90"
       width="4308"
       height="2873">
      <path
         d="M-2951.95 -89.2471H1355.88V2782.64H-2951.95V-89.2471Z"
         fill="white"
         id="path53" />
    </mask>
    <g
       mask="url(#mask25_606_31760)"
       id="g54">
      <path
         d="M120.237 337.438H114.094"
         stroke="#1A1A1A"
         stroke-width="2.45834"
         stroke-miterlimit="10"
         id="path54" />
    </g>
    <mask
       id="mask26_606_31760"
       style="mask-type:luminance"
       maskUnits="userSpaceOnUse"
       x="-2952"
       y="-90"
       width="4308"
       height="2873">
      <path
         d="M-2951.95 -89.2471H1355.88V2782.64H-2951.95V-89.2471Z"
         fill="white"
         id="path55" />
    </mask>
    <g
       mask="url(#mask26_606_31760)"
       id="g56">
      <path
         d="M292.184 337.438H286.045"
         stroke="#1A1A1A"
         stroke-width="2.45834"
         stroke-miterlimit="10"
         id="path56" />
    </g>
  </g>
  <path
     d="M172.379 95.072V118H170.827C170.582 118 170.374 117.957 170.203 117.872C170.043 117.787 169.883 117.643 169.723 117.44L156.459 100.16C156.48 100.427 156.496 100.688 156.507 100.944C156.518 101.2 156.523 101.44 156.523 101.664V118H153.803V95.072H155.403C155.542 95.072 155.659 95.0827 155.755 95.104C155.851 95.1147 155.936 95.1413 156.011 95.184C156.086 95.216 156.16 95.2693 156.235 95.344C156.31 95.408 156.39 95.4933 156.475 95.6L169.739 112.864C169.718 112.587 169.696 112.32 169.675 112.064C169.664 111.797 169.659 111.547 169.659 111.312V95.072H172.379ZM187.917 108.128C187.917 107.467 187.821 106.864 187.629 106.32C187.447 105.765 187.175 105.291 186.813 104.896C186.461 104.491 186.029 104.181 185.517 103.968C185.005 103.744 184.423 103.632 183.773 103.632C182.407 103.632 181.325 104.032 180.525 104.832C179.735 105.621 179.245 106.72 179.053 108.128H187.917ZM190.221 115.728C189.869 116.155 189.447 116.528 188.957 116.848C188.466 117.157 187.938 117.413 187.373 117.616C186.818 117.819 186.242 117.968 185.645 118.064C185.047 118.171 184.455 118.224 183.869 118.224C182.749 118.224 181.714 118.037 180.765 117.664C179.826 117.28 179.01 116.725 178.317 116C177.634 115.264 177.101 114.357 176.717 113.28C176.333 112.203 176.141 110.965 176.141 109.568C176.141 108.437 176.311 107.381 176.653 106.4C177.005 105.419 177.506 104.571 178.157 103.856C178.807 103.131 179.602 102.565 180.541 102.16C181.479 101.744 182.535 101.536 183.709 101.536C184.679 101.536 185.575 101.701 186.397 102.032C187.229 102.352 187.943 102.821 188.541 103.44C189.149 104.048 189.623 104.805 189.965 105.712C190.306 106.608 190.477 107.632 190.477 108.784C190.477 109.232 190.429 109.531 190.333 109.68C190.237 109.829 190.055 109.904 189.789 109.904H178.957C178.989 110.928 179.127 111.819 179.373 112.576C179.629 113.333 179.981 113.968 180.429 114.48C180.877 114.981 181.41 115.36 182.029 115.616C182.647 115.861 183.341 115.984 184.109 115.984C184.823 115.984 185.437 115.904 185.949 115.744C186.471 115.573 186.919 115.392 187.293 115.2C187.666 115.008 187.975 114.832 188.221 114.672C188.477 114.501 188.695 114.416 188.877 114.416C189.111 114.416 189.293 114.507 189.421 114.688L190.221 115.728ZM196.919 94.432V118H194.071V94.432H196.919ZM210.977 104.464C210.849 104.699 210.652 104.816 210.385 104.816C210.225 104.816 210.044 104.757 209.841 104.64C209.639 104.523 209.388 104.395 209.089 104.256C208.801 104.107 208.455 103.973 208.049 103.856C207.644 103.728 207.164 103.664 206.609 103.664C206.129 103.664 205.697 103.728 205.313 103.856C204.929 103.973 204.599 104.139 204.321 104.352C204.055 104.565 203.847 104.816 203.697 105.104C203.559 105.381 203.489 105.685 203.489 106.016C203.489 106.432 203.607 106.779 203.841 107.056C204.087 107.333 204.407 107.573 204.801 107.776C205.196 107.979 205.644 108.16 206.145 108.32C206.647 108.469 207.159 108.635 207.681 108.816C208.215 108.987 208.732 109.179 209.233 109.392C209.735 109.605 210.183 109.872 210.577 110.192C210.972 110.512 211.287 110.907 211.521 111.376C211.767 111.835 211.889 112.389 211.889 113.04C211.889 113.787 211.756 114.48 211.489 115.12C211.223 115.749 210.828 116.299 210.305 116.768C209.783 117.227 209.143 117.589 208.385 117.856C207.628 118.123 206.753 118.256 205.761 118.256C204.631 118.256 203.607 118.075 202.689 117.712C201.772 117.339 200.993 116.864 200.353 116.288L201.025 115.2C201.111 115.061 201.212 114.955 201.329 114.88C201.447 114.805 201.596 114.768 201.777 114.768C201.969 114.768 202.172 114.843 202.385 114.992C202.599 115.141 202.855 115.307 203.153 115.488C203.463 115.669 203.836 115.835 204.273 115.984C204.711 116.133 205.255 116.208 205.905 116.208C206.46 116.208 206.945 116.139 207.361 116C207.777 115.851 208.124 115.653 208.401 115.408C208.679 115.163 208.881 114.88 209.009 114.56C209.148 114.24 209.217 113.899 209.217 113.536C209.217 113.088 209.095 112.72 208.849 112.432C208.615 112.133 208.3 111.883 207.905 111.68C207.511 111.467 207.057 111.285 206.545 111.136C206.044 110.976 205.527 110.811 204.993 110.64C204.471 110.469 203.953 110.277 203.441 110.064C202.94 109.84 202.492 109.563 202.097 109.232C201.703 108.901 201.383 108.496 201.137 108.016C200.903 107.525 200.785 106.933 200.785 106.24C200.785 105.621 200.913 105.029 201.169 104.464C201.425 103.888 201.799 103.387 202.289 102.96C202.78 102.523 203.383 102.176 204.097 101.92C204.812 101.664 205.628 101.536 206.545 101.536C207.612 101.536 208.567 101.707 209.409 102.048C210.263 102.379 210.999 102.837 211.617 103.424L210.977 104.464ZM222.213 101.536C223.397 101.536 224.464 101.733 225.413 102.128C226.362 102.523 227.173 103.083 227.845 103.808C228.517 104.533 229.029 105.413 229.381 106.448C229.744 107.472 229.925 108.619 229.925 109.888C229.925 111.168 229.744 112.32 229.381 113.344C229.029 114.368 228.517 115.243 227.845 115.968C227.173 116.693 226.362 117.253 225.413 117.648C224.464 118.032 223.397 118.224 222.213 118.224C221.018 118.224 219.941 118.032 218.981 117.648C218.032 117.253 217.221 116.693 216.549 115.968C215.877 115.243 215.36 114.368 214.997 113.344C214.645 112.32 214.469 111.168 214.469 109.888C214.469 108.619 214.645 107.472 214.997 106.448C215.36 105.413 215.877 104.533 216.549 103.808C217.221 103.083 218.032 102.523 218.981 102.128C219.941 101.733 221.018 101.536 222.213 101.536ZM222.213 116C223.813 116 225.008 115.467 225.797 114.4C226.586 113.323 226.981 111.824 226.981 109.904C226.981 107.973 226.586 106.469 225.797 105.392C225.008 104.315 223.813 103.776 222.213 103.776C221.402 103.776 220.693 103.915 220.085 104.192C219.488 104.469 218.986 104.869 218.581 105.392C218.186 105.915 217.888 106.56 217.685 107.328C217.493 108.085 217.397 108.944 217.397 109.904C217.397 111.824 217.792 113.323 218.581 114.4C219.381 115.467 220.592 116 222.213 116ZM236.225 104.144C236.577 103.749 236.951 103.392 237.345 103.072C237.74 102.752 238.156 102.48 238.593 102.256C239.041 102.021 239.511 101.845 240.001 101.728C240.503 101.6 241.041 101.536 241.617 101.536C242.503 101.536 243.281 101.685 243.953 101.984C244.636 102.272 245.201 102.688 245.649 103.232C246.108 103.765 246.455 104.411 246.689 105.168C246.924 105.925 247.041 106.763 247.041 107.68V118H244.177V107.68C244.177 106.453 243.895 105.504 243.329 104.832C242.775 104.149 241.927 103.808 240.785 103.808C239.943 103.808 239.153 104.011 238.417 104.416C237.692 104.821 237.02 105.371 236.401 106.064V118H233.537V101.792H235.249C235.655 101.792 235.905 101.989 236.001 102.384L236.225 104.144Z"
     fill="black"
     id="path57" />
  <defs
     id="defs57">
    <clipPath
       id="clip0_606_31760">
      <rect
         width="250"
         height="424.795"
         fill="white"
         transform="translate(77.2539 171.657)"
         id="rect57" />
    </clipPath>
  </defs>
</svg>
