<svg width="107" height="109" viewBox="0 0 107 109" fill="none" xmlns="http://www.w3.org/2000/svg">
<g clip-path="url(#clip0_645_16607)">
<mask id="mask0_645_16607" style="mask-type:luminance" maskUnits="userSpaceOnUse" x="0" y="0" width="107" height="109">
<path d="M49.1554 0.45499L0.28772 42.9351L57.5814 108.844L106.449 66.3638L49.1554 0.45499Z" fill="white"/>
</mask>
<g mask="url(#mask0_645_16607)">
<path d="M142.498 37.9029C142.498 37.9029 117.938 -3.1655 115.202 0.157686C112.467 3.48114 108.445 2.80704 112.124 9.91332C115.804 17.0192 131.95 48.687 131.95 48.687L142.498 37.9029Z" fill="#F2967E"/>
</g>
<mask id="mask1_645_16607" style="mask-type:luminance" maskUnits="userSpaceOnUse" x="0" y="0" width="107" height="109">
<path d="M49.1554 0.45499L0.28772 42.9351L57.5814 108.844L106.449 66.3638L49.1554 0.45499Z" fill="white"/>
</mask>
<g mask="url(#mask1_645_16607)">
<path d="M73.4946 67.0532L80.7584 76.3018C80.7584 76.3018 83.3049 78.7113 77.7238 84.1794C72.6152 89.1862 69.0279 85.0517 69.0279 85.0517L57.633 71.243L73.4946 67.0532Z" fill="#C77B6A"/>
</g>
<mask id="mask2_645_16607" style="mask-type:luminance" maskUnits="userSpaceOnUse" x="0" y="0" width="107" height="109">
<path d="M49.1554 0.45499L0.28772 42.9351L57.5814 108.844L106.449 66.3638L49.1554 0.45499Z" fill="white"/>
</mask>
<g mask="url(#mask2_645_16607)">
<path d="M106.11 64.4256C106.11 64.4256 136.815 102.156 150.632 122.844C150.632 122.844 145.08 134.812 130.092 146.805C119.504 155.277 114.657 155.653 114.657 155.653L47.5416 108.057C47.5416 108.057 51.8064 98.0724 67.4056 84.5437L80.4528 84.9577C80.4528 84.9577 77.8955 78.0529 80.8728 73.6492C87.0982 68.9481 94.7563 65.4294 102.584 60.606L106.11 64.4256Z" fill="#F7F9BB"/>
</g>
<mask id="mask3_645_16607" style="mask-type:luminance" maskUnits="userSpaceOnUse" x="0" y="0" width="107" height="109">
<path d="M49.1554 0.45499L0.28772 42.9351L57.5814 108.844L106.449 66.3638L49.1554 0.45499Z" fill="white"/>
</mask>
<g mask="url(#mask3_645_16607)">
<path d="M80.4527 84.958L72.9121 80.0714L70.4108 85.5897L80.4527 84.958Z" fill="#BBC28A"/>
</g>
<mask id="mask4_645_16607" style="mask-type:luminance" maskUnits="userSpaceOnUse" x="0" y="0" width="107" height="109">
<path d="M49.1554 0.45499L0.28772 42.9351L57.5814 108.844L106.449 66.3638L49.1554 0.45499Z" fill="white"/>
</mask>
<g mask="url(#mask4_645_16607)">
<path d="M75.814 78.5428L80.4528 84.9583L80.1935 77.787L75.814 78.5428Z" fill="#BBC28A"/>
</g>
<mask id="mask5_645_16607" style="mask-type:luminance" maskUnits="userSpaceOnUse" x="0" y="0" width="107" height="109">
<path d="M49.1554 0.45499L0.28772 42.9351L57.5814 108.844L106.449 66.3638L49.1554 0.45499Z" fill="white"/>
</mask>
<g mask="url(#mask5_645_16607)">
<path d="M73.6675 83.4119C73.6675 83.4119 76.227 82.0621 78.7099 79.3429L83.3802 80.0734L83.8748 84.7385L131.609 123.74L130.849 135.101L118.835 136.253L80.2742 88.4502L74.646 87.0485L73.6675 83.4119Z" fill="#431B28"/>
</g>
<mask id="mask6_645_16607" style="mask-type:luminance" maskUnits="userSpaceOnUse" x="0" y="0" width="107" height="109">
<path d="M49.1554 0.45499L0.28772 42.9351L57.5814 108.844L106.449 66.3638L49.1554 0.45499Z" fill="white"/>
</mask>
<g mask="url(#mask6_645_16607)">
<path d="M84.8553 69.9949L85.7342 81.2898L75.8138 78.5425L78.6565 68.1872L84.8553 69.9949Z" fill="#DEE7A3"/>
</g>
<mask id="mask7_645_16607" style="mask-type:luminance" maskUnits="userSpaceOnUse" x="0" y="0" width="107" height="109">
<path d="M49.1554 0.45499L0.28772 42.9351L57.5814 108.844L106.449 66.3638L49.1554 0.45499Z" fill="white"/>
</mask>
<g mask="url(#mask7_645_16607)">
<path d="M62.2189 88.0685L75.1229 89.8506L72.9121 80.0714L61.258 81.7206L62.2189 88.0685Z" fill="#DEE7A3"/>
</g>
<mask id="mask8_645_16607" style="mask-type:luminance" maskUnits="userSpaceOnUse" x="0" y="0" width="107" height="109">
<path d="M49.1554 0.45499L0.28772 42.9351L57.5814 108.844L106.449 66.3638L49.1554 0.45499Z" fill="white"/>
</mask>
<g mask="url(#mask8_645_16607)">
<path d="M121.863 5.89383C121.863 5.89383 117.849 11.8032 113.802 12.0723C109.755 12.3415 106.695 12.3603 103.747 9.75481C100.8 7.14812 96.0412 7.33918 96.1598 6.27351C96.2789 5.20639 96.3489 1.86898 102.844 4.92881C102.844 4.92881 105.388 6.78342 105.459 5.14829C105.516 3.8252 102.225 1.33051 98.4955 -2.5757C93.4036 -7.90826 95.0262 -7.64447 96.336 -7.55927C97.6463 -7.47337 103.705 -2.18845 105.853 -1.18051C107.528 -0.394564 97.5637 -10.3472 98.7143 -11.6923C100.617 -13.9188 109.847 -2.05525 109.669 -3.69379C109.492 -5.33227 103.753 -12.6301 104.195 -13.7758C105.555 -17.3007 113.445 -4.15677 114.161 -4.73267C114.714 -5.17746 111.153 -11.3102 112.239 -12.4492C113.326 -13.5875 115.069 -10.3912 116.106 -8.43815C117.32 -6.15527 117.672 -5.02243 118.935 -2.90315C120.199 -0.784347 122.548 2.43202 121.863 5.89383Z" fill="#F2967E"/>
</g>
<mask id="mask9_645_16607" style="mask-type:luminance" maskUnits="userSpaceOnUse" x="0" y="0" width="107" height="109">
<path d="M49.1554 0.45499L0.28772 42.9351L57.5814 108.844L106.449 66.3638L49.1554 0.45499Z" fill="white"/>
</mask>
<g mask="url(#mask9_645_16607)">
<path d="M60.5559 89.888C60.5559 89.888 46.5851 103.385 44.0923 108.205C44.0923 108.205 58.8001 161.413 64.8387 165.635C70.8764 169.857 102.699 167.649 102.699 167.649L101.009 153.942L79.8319 151.347L70.5414 126.344L101.573 147.514L117.958 166.816L143.014 155.69L140.357 145.371L150.597 149.886L161.75 132.3C161.75 132.3 130.868 90.8721 115.899 75.4698L152.861 48.0763L129.864 11.6332L112.743 20.9921L126.792 43.5086L89.5086 66.4457L113.431 119.842L60.5559 89.888Z" fill="#313E49"/>
</g>
<mask id="mask10_645_16607" style="mask-type:luminance" maskUnits="userSpaceOnUse" x="0" y="0" width="107" height="109">
<path d="M49.1554 0.45499L0.28772 42.9351L57.5814 108.844L106.449 66.3638L49.1554 0.45499Z" fill="white"/>
</mask>
<g mask="url(#mask10_645_16607)">
<path d="M60.5558 89.8888L56.8373 92.8749L70.1135 111.325L77.3556 107.398L82.1714 117.025L113.431 119.843L60.5558 89.8888Z" fill="#27303A"/>
</g>
<mask id="mask11_645_16607" style="mask-type:luminance" maskUnits="userSpaceOnUse" x="0" y="0" width="107" height="109">
<path d="M49.1554 0.45499L0.28772 42.9351L57.5814 108.844L106.449 66.3638L49.1554 0.45499Z" fill="white"/>
</mask>
<g mask="url(#mask11_645_16607)">
<path d="M89.5086 66.4452L113.431 119.842L112.75 96.3608L104.035 88.1511L108.316 81.2723L92.8211 64.3555L89.5086 66.4452Z" fill="#27303A"/>
</g>
<mask id="mask12_645_16607" style="mask-type:luminance" maskUnits="userSpaceOnUse" x="0" y="0" width="107" height="109">
<path d="M49.1554 0.45499L0.28772 42.9351L57.5814 108.844L106.449 66.3638L49.1554 0.45499Z" fill="white"/>
</mask>
<g mask="url(#mask12_645_16607)">
<path d="M24.7602 29.5213C16.3707 41.0028 22.9004 47.9491 22.9004 47.9491C22.9004 47.9491 28.0498 53.2145 34.0024 59.646C31.8776 59.1551 29.7553 60.0228 28.6995 62.2026C26.4613 66.8237 38.8479 75.7559 43.4194 70.0784C46.376 73.0089 48.804 75.184 49.9407 75.678C54.235 77.5496 65.1502 76.5999 71.7385 72.2068C78.3277 67.8139 82.3402 57.3876 76.2622 50.3957C70.1849 43.4045 50.5187 20.4716 50.5187 20.4716C50.5187 20.4716 38.6526 10.5067 24.7602 29.5213Z" fill="#F2967E"/>
</g>
<mask id="mask13_645_16607" style="mask-type:luminance" maskUnits="userSpaceOnUse" x="0" y="0" width="107" height="109">
<path d="M49.1554 0.45499L0.28772 42.9351L57.5814 108.844L106.449 66.3638L49.1554 0.45499Z" fill="white"/>
</mask>
<g mask="url(#mask13_645_16607)">
<path d="M46.4974 47.8498C47.8228 49.3744 48.2172 51.1995 47.3799 51.9274C46.5427 52.6551 44.7902 52.0106 43.4649 50.4859C42.1402 48.9621 41.7453 47.1362 42.5824 46.4085C43.4197 45.6807 45.1728 46.3259 46.4974 47.8498Z" fill="#1A1B21"/>
</g>
<mask id="mask14_645_16607" style="mask-type:luminance" maskUnits="userSpaceOnUse" x="0" y="0" width="107" height="109">
<path d="M49.1554 0.45499L0.28772 42.9351L57.5814 108.844L106.449 66.3638L49.1554 0.45499Z" fill="white"/>
</mask>
<g mask="url(#mask14_645_16607)">
<path d="M59.7935 37.3599C61.1182 38.8838 61.5137 40.7092 60.677 41.4366C59.8397 42.1644 58.0867 41.5191 56.762 39.9952C55.4373 38.4714 55.0423 36.6456 55.8795 35.9178C56.7163 35.1904 58.4688 35.8361 59.7935 37.3599Z" fill="#1A1B21"/>
</g>
<mask id="mask15_645_16607" style="mask-type:luminance" maskUnits="userSpaceOnUse" x="0" y="0" width="107" height="109">
<path d="M49.1554 0.45499L0.28772 42.9351L57.5814 108.844L106.449 66.3638L49.1554 0.45499Z" fill="white"/>
</mask>
<g mask="url(#mask15_645_16607)">
<path d="M43.4848 39.3948C43.4848 39.3948 43.2766 39.3276 42.9097 39.2861C42.5409 39.2355 42.0198 39.2241 41.3946 39.2856C40.7754 39.3623 40.0538 39.5184 39.3214 39.8406C38.9503 39.9891 38.5818 40.1866 38.223 40.4243C37.8481 40.63 37.5277 40.9571 37.1834 41.235C36.8867 41.5767 36.5575 41.8923 36.3295 42.2865C36.0928 42.6759 35.8632 43.0576 35.7496 43.4844C35.6847 43.6919 35.6157 43.8924 35.565 44.0903C35.5321 44.293 35.5133 44.4984 35.4983 44.6923C35.4582 45.0822 35.4582 45.4426 35.5348 45.7715C35.5962 46.0973 35.6458 46.3917 35.7399 46.6366C35.8381 46.8818 35.949 47.0866 36.0354 47.2504C36.2088 47.5789 36.3332 47.7474 36.3332 47.7474C36.3332 47.7474 36.4131 47.5307 36.505 47.1904C36.5509 47.0182 36.612 46.8166 36.652 46.5956C36.7138 46.372 36.8346 46.1347 36.9134 45.8838C36.9777 45.6292 37.1077 45.3774 37.2431 45.1248C37.3114 44.9992 37.3554 44.8653 37.4275 44.739C37.5171 44.6195 37.5914 44.494 37.6727 44.3705C37.8041 44.1106 38.0297 43.8915 38.206 43.6437C38.391 43.4018 38.6372 43.1865 38.8452 42.9492C39.1002 42.7426 39.3096 42.4942 39.5815 42.2976C39.835 42.0848 40.0914 41.8735 40.3604 41.6798C40.8804 41.2764 41.4111 40.9149 41.8714 40.5783C42.35 40.2338 42.7467 39.9471 43.0257 39.7452C43.3176 39.522 43.4848 39.3948 43.4848 39.3948Z" fill="#1A1B21"/>
</g>
<mask id="mask16_645_16607" style="mask-type:luminance" maskUnits="userSpaceOnUse" x="0" y="0" width="107" height="109">
<path d="M49.1554 0.45499L0.28772 42.9351L57.5814 108.844L106.449 66.3638L49.1554 0.45499Z" fill="white"/>
</mask>
<g mask="url(#mask16_645_16607)">
<path d="M49.7156 33.9781C49.7156 33.9781 49.8421 33.8451 50.0591 33.6159C50.2557 33.3992 50.5361 33.0907 50.8702 32.7207C51.512 32.0155 52.2768 31.1483 53.0562 30.6165C53.2518 30.4898 53.4436 30.3459 53.6512 30.26C53.8461 30.1376 54.0612 30.0696 54.2768 29.989C54.4842 29.876 54.726 29.8767 54.9484 29.802C55.1726 29.7193 55.4089 29.7296 55.6338 29.6908C55.8557 29.6667 56.0796 29.6017 56.2749 29.61C56.4696 29.6095 56.6524 29.5884 56.8051 29.5757C57.1118 29.5478 57.3089 29.5131 57.3089 29.5131C57.3089 29.5131 57.1972 29.3657 56.9782 29.1337C56.7583 28.9038 56.4226 28.5678 55.9087 28.3342C55.654 28.2155 55.3793 28.0547 55.0415 28.0068C54.7104 27.9545 54.3538 27.8407 53.9686 27.8934C53.5825 27.913 53.1748 27.949 52.7917 28.1093C52.3846 28.216 52.0373 28.4425 51.6849 28.6623C51.0239 29.144 50.5004 29.7609 50.1866 30.3887C49.8456 31.0092 49.689 31.6365 49.6086 32.168C49.5464 32.7095 49.5582 33.1608 49.6074 33.4799C49.6492 33.7985 49.7156 33.9781 49.7156 33.9781Z" fill="#1A1B21"/>
</g>
<mask id="mask17_645_16607" style="mask-type:luminance" maskUnits="userSpaceOnUse" x="0" y="0" width="107" height="109">
<path d="M49.1554 0.45499L0.28772 42.9351L57.5814 108.844L106.449 66.3638L49.1554 0.45499Z" fill="white"/>
</mask>
<g mask="url(#mask17_645_16607)">
<path d="M40.1705 69.7951C40.2867 69.6941 40.3927 69.5788 40.4913 69.4499C38.6716 68.9637 37.4299 67.172 38.7193 66.0512C38.8011 65.9801 38.8919 65.9128 38.9932 65.8476C36.5056 63.1195 32.9578 61.5817 31.4032 62.9331C31.1771 63.1296 30.9923 63.389 30.8604 63.7141C29.8018 66.3162 37.3864 72.2152 40.1705 69.7951Z" fill="#C77A68"/>
</g>
<mask id="mask18_645_16607" style="mask-type:luminance" maskUnits="userSpaceOnUse" x="0" y="0" width="107" height="109">
<path d="M49.1554 0.45499L0.28772 42.9351L57.5814 108.844L106.449 66.3638L49.1554 0.45499Z" fill="white"/>
</mask>
<g mask="url(#mask18_645_16607)">
<path d="M34.0025 59.6459L39.6939 64.1527L41.27 63.135L30.6505 50.9188C30.6505 50.9188 32.4965 43.3356 28.8406 39.13C28.8406 39.13 38.6785 38.314 46.9163 30.8006C46.9163 30.8006 40.7959 32.2537 36.9735 33.1156C36.9735 33.1156 52.1749 29.5703 56.1545 18.3749C56.1545 18.3749 39.6244 8.66033 26.2317 19.9501C11.8277 32.0933 17.7883 41.1785 17.7883 41.1785C17.7883 41.1785 12.747 44.682 19.5362 52.492C22.102 55.4437 25.8603 57.5435 30.5518 60.0553C32.1272 59.0367 34.0025 59.6459 34.0025 59.6459Z" fill="#1A1B21"/>
</g>
<mask id="mask19_645_16607" style="mask-type:luminance" maskUnits="userSpaceOnUse" x="0" y="0" width="107" height="109">
<path d="M49.1554 0.45499L0.28772 42.9351L57.5814 108.844L106.449 66.3638L49.1554 0.45499Z" fill="white"/>
</mask>
<g mask="url(#mask19_645_16607)">
<path d="M50.4702 39.2941C51.1001 39.6631 51.7363 39.9983 52.3472 40.3865C52.9602 40.7701 53.5862 41.1236 54.1809 41.5313C54.7861 41.919 55.4019 42.2868 55.977 42.7169L56.8588 43.3286C57.1495 43.5388 57.4586 43.721 57.7309 43.9541L59.4182 45.2721C59.9926 45.6974 60.4815 46.2158 61.0165 46.6849L61.809 47.4013C62.0806 47.6336 62.2824 47.9278 62.5322 48.1791C62.999 48.7141 63.4732 49.2427 63.9652 49.7626L64.0173 49.2976C63.4068 49.8715 62.8082 50.458 62.2144 51.0512C61.629 51.653 61.0286 52.2385 60.4606 52.8604C61.1542 52.383 61.8151 51.8651 62.4914 51.3679C63.1595 50.8602 63.8211 50.3471 64.4733 49.8191L64.7268 49.6139L64.5164 49.3608C64.0678 48.7816 63.6169 48.1989 63.1496 47.6292C62.9093 47.3508 62.7041 47.0365 62.4305 46.791L61.6329 46.0307C61.0842 45.5438 60.5912 44.9857 59.9977 44.5553L58.2446 43.2298C57.9569 43.002 57.6296 42.8329 57.3251 42.6319L56.3959 42.0508C55.7812 41.6551 55.1249 41.332 54.4797 40.9924C53.836 40.6517 53.1734 40.3462 52.4995 40.0708C51.833 39.7809 51.1485 39.5215 50.4563 39.3052" fill="#AA6458"/>
</g>
<mask id="mask20_645_16607" style="mask-type:luminance" maskUnits="userSpaceOnUse" x="0" y="0" width="107" height="109">
<path d="M49.1554 0.45499L0.28772 42.9351L57.5814 108.844L106.449 66.3638L49.1554 0.45499Z" fill="white"/>
</mask>
<g mask="url(#mask20_645_16607)">
<path d="M67.6111 56.8904C69.411 58.961 69.3785 61.9359 67.5379 63.5359C65.6973 65.136 62.7459 64.7548 60.946 62.6843C59.1455 60.613 59.1788 57.6373 61.0194 56.0372C62.86 54.4372 65.8106 54.8191 67.6111 56.8904Z" fill="#DF6B7A"/>
</g>
<mask id="mask21_645_16607" style="mask-type:luminance" maskUnits="userSpaceOnUse" x="0" y="0" width="107" height="109">
<path d="M49.1554 0.45499L0.28772 42.9351L57.5814 108.844L106.449 66.3638L49.1554 0.45499Z" fill="white"/>
</mask>
<g mask="url(#mask21_645_16607)">
<path d="M60.8629 60.9807C60.6352 61.1787 60.4206 61.3883 60.213 61.6012C59.2097 59.6725 59.4803 57.3747 61.0194 56.0368C62.86 54.4367 65.8105 54.8186 67.611 56.8899C68.5962 58.0232 69.0292 59.4259 68.9199 60.7276C66.4383 59.2753 63.0984 59.0375 60.8629 60.9807Z" fill="#6D3A40"/>
</g>
</g>
<defs>
<clipPath id="clip0_645_16607">
<rect width="64.7504" height="87.33" fill="white" transform="translate(0.28772 42.9351) rotate(-41)"/>
</clipPath>
</defs>
</svg>
