<svg width="300" height="320" viewBox="0 0 300 320" fill="none" xmlns="http://www.w3.org/2000/svg">
<path d="M299 159.854C299 247.648 232.231 318.708 150 318.708C67.7686 318.708 1 247.648 1 159.854C1 72.0605 67.7686 1 150 1C232.231 1 299 72.0605 299 159.854Z" fill="#DCDEEA" stroke="black" stroke-width="2"/>
<g clip-path="url(#clip0_499_22884)">
<mask id="mask0_499_22884" style="mask-type:luminance" maskUnits="userSpaceOnUse" x="-276" y="-237" width="3006" height="2004">
<path d="M-275.261 -236.114H2729.2V1766.86H-275.261V-236.114Z" fill="white"/>
</mask>
<g mask="url(#mask0_499_22884)">
<mask id="mask1_499_22884" style="mask-type:luminance" maskUnits="userSpaceOnUse" x="-276" y="-237" width="3006" height="2004">
<path d="M2729.2 -236.114H-275.261V1766.86H2729.2V-236.114Z" fill="white"/>
</mask>
<g mask="url(#mask1_499_22884)">
<path d="M177.472 257.456L176.439 276.876L175.144 301.207C175.144 301.207 170.313 310.367 148.513 310.367C126.697 310.367 122.232 304.109 122.232 304.109L121.355 293.314L118.423 257.456H177.472Z" fill="#FFAF82"/>
</g>
</g>
<mask id="mask2_499_22884" style="mask-type:luminance" maskUnits="userSpaceOnUse" x="-276" y="-237" width="3006" height="2004">
<path d="M-275.261 -236.114H2729.2V1766.86H-275.261V-236.114Z" fill="white"/>
</mask>
<g mask="url(#mask2_499_22884)">
<mask id="mask3_499_22884" style="mask-type:luminance" maskUnits="userSpaceOnUse" x="-276" y="-237" width="3006" height="2004">
<path d="M2729.2 -236.114H-275.261V1766.86H2729.2V-236.114Z" fill="white"/>
</mask>
<g mask="url(#mask3_499_22884)">
<path d="M177.472 257.456L176.439 276.876C167.344 283.684 145.812 297.075 121.355 293.314L118.423 257.456H177.472Z" fill="#F88968"/>
</g>
</g>
<mask id="mask4_499_22884" style="mask-type:luminance" maskUnits="userSpaceOnUse" x="-276" y="-237" width="3006" height="2004">
<path d="M-275.261 -236.114H2729.2V1766.86H-275.261V-236.114Z" fill="white"/>
</mask>
<g mask="url(#mask4_499_22884)">
<mask id="mask5_499_22884" style="mask-type:luminance" maskUnits="userSpaceOnUse" x="-276" y="-237" width="3006" height="2004">
<path d="M2729.2 -236.114H-275.261V1766.86H2729.2V-236.114Z" fill="white"/>
</mask>
<g mask="url(#mask5_499_22884)">
<path d="M81.1702 169.154C81.1702 169.154 64.4654 152.81 51.1256 163.476C35.3612 176.077 51.8467 221.42 79.8032 216.619L81.1702 169.154Z" fill="#FFA378"/>
</g>
</g>
<mask id="mask6_499_22884" style="mask-type:luminance" maskUnits="userSpaceOnUse" x="-276" y="-237" width="3006" height="2004">
<path d="M-275.261 -236.114H2729.2V1766.86H-275.261V-236.114Z" fill="white"/>
</mask>
<g mask="url(#mask6_499_22884)">
<mask id="mask7_499_22884" style="mask-type:luminance" maskUnits="userSpaceOnUse" x="-276" y="-237" width="3006" height="2004">
<path d="M2729.2 -236.114H-275.261V1766.86H2729.2V-236.114Z" fill="white"/>
</mask>
<g mask="url(#mask7_499_22884)">
<path d="M71.4212 205.337C70.0361 205.289 68.8794 204.211 68.7622 202.796C66.9685 180.478 53.8991 176.609 53.3433 176.458C51.8801 176.05 51.0119 174.539 51.3994 173.072C51.796 171.603 53.2832 170.726 54.7524 171.11C55.4675 171.291 72.1482 175.912 74.2754 202.351C74.3986 203.874 73.2599 205.205 71.7426 205.328C71.6345 205.337 71.5293 205.34 71.4212 205.337Z" fill="#F88968"/>
</g>
</g>
<mask id="mask8_499_22884" style="mask-type:luminance" maskUnits="userSpaceOnUse" x="-276" y="-237" width="3006" height="2004">
<path d="M-275.261 -236.114H2729.2V1766.86H-275.261V-236.114Z" fill="white"/>
</mask>
<g mask="url(#mask8_499_22884)">
<mask id="mask9_499_22884" style="mask-type:luminance" maskUnits="userSpaceOnUse" x="-276" y="-237" width="3006" height="2004">
<path d="M2729.2 -236.114H-275.261V1766.86H2729.2V-236.114Z" fill="white"/>
</mask>
<g mask="url(#mask9_499_22884)">
<path d="M55.7978 193.959C55.1458 193.938 54.4998 193.686 53.9921 193.202C52.8804 192.147 52.8384 190.399 53.8899 189.293C54.1273 189.044 59.8027 183.224 68.7981 185.532C70.2763 185.907 71.1686 187.418 70.793 188.897C70.4115 190.369 68.9002 191.264 67.428 190.886C61.5153 189.368 57.9339 193.061 57.8979 193.103C57.3331 193.698 56.5579 193.986 55.7978 193.959Z" fill="#F88968"/>
</g>
</g>
<mask id="mask10_499_22884" style="mask-type:luminance" maskUnits="userSpaceOnUse" x="-276" y="-237" width="3006" height="2004">
<path d="M-275.261 -236.114H2729.2V1766.86H-275.261V-236.114Z" fill="white"/>
</mask>
<g mask="url(#mask10_499_22884)">
<mask id="mask11_499_22884" style="mask-type:luminance" maskUnits="userSpaceOnUse" x="-276" y="-237" width="3006" height="2004">
<path d="M2729.2 -236.114H-275.261V1766.86H2729.2V-236.114Z" fill="white"/>
</mask>
<g mask="url(#mask11_499_22884)">
<path d="M208.83 169.154C208.83 169.154 225.535 152.81 238.875 163.476C254.639 176.077 238.154 221.42 210.197 216.619L208.83 169.154Z" fill="#FFA378"/>
</g>
</g>
<mask id="mask12_499_22884" style="mask-type:luminance" maskUnits="userSpaceOnUse" x="-276" y="-237" width="3006" height="2004">
<path d="M-275.261 -236.114H2729.2V1766.86H-275.261V-236.114Z" fill="white"/>
</mask>
<g mask="url(#mask12_499_22884)">
<mask id="mask13_499_22884" style="mask-type:luminance" maskUnits="userSpaceOnUse" x="-276" y="-237" width="3006" height="2004">
<path d="M2729.2 -236.114H-275.261V1766.86H2729.2V-236.114Z" fill="white"/>
</mask>
<g mask="url(#mask13_499_22884)">
<path d="M218.58 205.337C219.968 205.289 221.124 204.211 221.242 202.796C223.035 180.478 236.102 176.609 236.66 176.458C238.121 176.05 238.992 174.539 238.601 173.072C238.205 171.603 236.721 170.726 235.248 171.11C234.536 171.291 217.856 175.912 215.728 202.351C215.605 203.874 216.741 205.205 218.261 205.328C218.369 205.337 218.471 205.34 218.58 205.337Z" fill="#F88968"/>
</g>
</g>
<mask id="mask14_499_22884" style="mask-type:luminance" maskUnits="userSpaceOnUse" x="-276" y="-237" width="3006" height="2004">
<path d="M-275.261 -236.114H2729.2V1766.86H-275.261V-236.114Z" fill="white"/>
</mask>
<g mask="url(#mask14_499_22884)">
<mask id="mask15_499_22884" style="mask-type:luminance" maskUnits="userSpaceOnUse" x="-276" y="-237" width="3006" height="2004">
<path d="M2729.2 -236.114H-275.261V1766.86H2729.2V-236.114Z" fill="white"/>
</mask>
<g mask="url(#mask15_499_22884)">
<path d="M234.206 193.959C234.858 193.938 235.504 193.686 236.011 193.202C237.12 192.147 237.165 190.399 236.111 189.293C235.876 189.044 230.198 183.224 221.205 185.532C219.724 185.907 218.835 187.418 219.21 188.897C219.592 190.369 221.1 191.264 222.576 190.886C228.488 189.368 232.07 193.061 232.106 193.103C232.67 193.698 233.443 193.986 234.206 193.959Z" fill="#F88968"/>
</g>
</g>
<mask id="mask16_499_22884" style="mask-type:luminance" maskUnits="userSpaceOnUse" x="-276" y="-237" width="3006" height="2004">
<path d="M-275.261 -236.114H2729.2V1766.86H-275.261V-236.114Z" fill="white"/>
</mask>
<g mask="url(#mask16_499_22884)">
<mask id="mask17_499_22884" style="mask-type:luminance" maskUnits="userSpaceOnUse" x="-276" y="-237" width="3006" height="2004">
<path d="M2729.2 -236.114H-275.261V1766.86H2729.2V-236.114Z" fill="white"/>
</mask>
<g mask="url(#mask17_499_22884)">
<path d="M145.838 276.519C88.1167 276.519 70.3002 207.963 64.9883 157.771C60.0881 111.496 96.0214 70.7103 142.555 70.1725C143.17 70.1695 143.795 70.1665 144.42 70.1665C145.198 70.1665 145.968 70.1695 146.734 70.1785C192.696 70.7944 228.497 110.468 224.528 156.265C220.118 207.116 203.533 276.519 145.838 276.519Z" fill="#FFAF82"/>
</g>
</g>
<mask id="mask18_499_22884" style="mask-type:luminance" maskUnits="userSpaceOnUse" x="-276" y="-237" width="3006" height="2004">
<path d="M-275.261 -236.114H2729.2V1766.86H-275.261V-236.114Z" fill="white"/>
</mask>
<g mask="url(#mask18_499_22884)">
<mask id="mask19_499_22884" style="mask-type:luminance" maskUnits="userSpaceOnUse" x="-276" y="-237" width="3006" height="2004">
<path d="M2729.2 -236.114H-275.261V1766.86H2729.2V-236.114Z" fill="white"/>
</mask>
<g mask="url(#mask19_499_22884)">
<path d="M219.126 33.2859C248.408 53.3157 221.917 92.3725 221.917 92.3725C221.917 92.3725 251.073 120.915 221.061 188.104L215.716 187.013C219.126 165.498 217.077 139.311 215.716 135.186C211.657 122.904 190.103 116.357 191.209 103.077C191.209 103.077 125.138 123.736 89.3815 103.45C89.3815 103.45 86.5603 120.467 76.7628 131.202C68.5666 140.185 73.2325 171.459 74.2871 184.991L68.7979 185.532C65.5441 171.747 57.6003 146.921 56.747 139.612C56.2122 135 54.2473 116.718 53.4061 103.645C52.673 92.1922 54.716 80.6611 59.9047 70.4219C62.774 64.7555 66.7639 59.0722 72.2561 54.9862C91.4516 40.6888 192.567 15.1188 219.126 33.2859Z" fill="#32324C"/>
</g>
</g>
<mask id="mask20_499_22884" style="mask-type:luminance" maskUnits="userSpaceOnUse" x="-276" y="-237" width="3006" height="2004">
<path d="M-275.261 -236.114H2729.2V1766.86H-275.261V-236.114Z" fill="white"/>
</mask>
<g mask="url(#mask20_499_22884)">
<mask id="mask21_499_22884" style="mask-type:luminance" maskUnits="userSpaceOnUse" x="-276" y="-237" width="3006" height="2004">
<path d="M2729.2 -236.114H-275.261V1766.86H2729.2V-236.114Z" fill="white"/>
</mask>
<g mask="url(#mask21_499_22884)">
<path d="M118.837 169.064C118.837 174.833 116.269 179.508 113.099 179.508C109.932 179.511 107.36 174.833 107.36 169.064C107.354 163.299 109.923 158.621 113.096 158.621C116.266 158.615 118.837 163.296 118.837 169.064Z" fill="#32324C"/>
</g>
</g>
<mask id="mask22_499_22884" style="mask-type:luminance" maskUnits="userSpaceOnUse" x="-276" y="-237" width="3006" height="2004">
<path d="M-275.261 -236.114H2729.2V1766.86H-275.261V-236.114Z" fill="white"/>
</mask>
<g mask="url(#mask22_499_22884)">
<mask id="mask23_499_22884" style="mask-type:luminance" maskUnits="userSpaceOnUse" x="-889" y="-2381" width="3552" height="3027">
<path d="M2662.39 -540.362L-98.1763 645.421L-888.699 -1194.95L1871.86 -2380.74L2662.39 -540.362Z" fill="white"/>
</mask>
<g mask="url(#mask23_499_22884)">
<path d="M86.0208 149.626C86.0208 149.626 95.5706 157.874 106.434 156.301C116.496 154.847 121.942 149.751 124.413 146.604C125.49 145.229 125.371 143.269 124.164 142.005C122.737 140.509 120.347 140.548 118.969 142.091C114.6 146.977 103.984 155.408 86.0208 149.626Z" fill="#32324C"/>
</g>
</g>
<mask id="mask24_499_22884" style="mask-type:luminance" maskUnits="userSpaceOnUse" x="-276" y="-237" width="3006" height="2004">
<path d="M-275.261 -236.114H2729.2V1766.86H-275.261V-236.114Z" fill="white"/>
</mask>
<g mask="url(#mask24_499_22884)">
<mask id="mask25_499_22884" style="mask-type:luminance" maskUnits="userSpaceOnUse" x="-276" y="-237" width="3006" height="2004">
<path d="M2729.2 -236.114H-275.261V1766.86H2729.2V-236.114Z" fill="white"/>
</mask>
<g mask="url(#mask25_499_22884)">
<path d="M175.108 169.064C175.108 174.833 177.674 179.508 180.843 179.508C184.013 179.511 186.585 174.833 186.585 169.064C186.588 163.299 184.019 158.621 180.846 158.621C177.68 158.615 175.108 163.296 175.108 169.064Z" fill="#32324C"/>
</g>
</g>
<mask id="mask26_499_22884" style="mask-type:luminance" maskUnits="userSpaceOnUse" x="-276" y="-237" width="3006" height="2004">
<path d="M-275.261 -236.114H2729.2V1766.86H-275.261V-236.114Z" fill="white"/>
</mask>
<g mask="url(#mask26_499_22884)">
<mask id="mask27_499_22884" style="mask-type:luminance" maskUnits="userSpaceOnUse" x="-286" y="-301" width="3057" height="2082">
<path d="M2717.65 -300.889L-285.776 -221.974L-233.166 1780.31L2770.26 1701.39L2717.65 -300.889Z" fill="white"/>
</mask>
<g mask="url(#mask27_499_22884)">
<path d="M203.659 148.148C203.659 148.148 197.841 136.949 187.167 134.386C177.282 132.01 170.336 134.726 166.875 136.734C165.363 137.613 164.75 139.477 165.403 141.098C166.175 143.016 168.409 143.865 170.26 142.942C176.131 140.023 189.112 136.123 203.659 148.148Z" fill="#32324C"/>
</g>
</g>
<mask id="mask28_499_22884" style="mask-type:luminance" maskUnits="userSpaceOnUse" x="-276" y="-237" width="3006" height="2004">
<path d="M-275.261 -236.114H2729.2V1766.86H-275.261V-236.114Z" fill="white"/>
</mask>
<g mask="url(#mask28_499_22884)">
<mask id="mask29_499_22884" style="mask-type:luminance" maskUnits="userSpaceOnUse" x="-276" y="-237" width="3006" height="2004">
<path d="M2729.2 -236.114H-275.261V1766.86H2729.2V-236.114Z" fill="white"/>
</mask>
<g mask="url(#mask29_499_22884)">
<path d="M145.971 204.469C145.057 204.379 144.195 203.88 143.678 203.039C142.795 201.609 143.24 199.734 144.67 198.851L153.35 193.488L146.536 190.979C145.403 190.564 144.622 189.513 144.55 188.308L143.375 168.728C143.276 167.048 144.553 165.606 146.226 165.507C147.903 165.393 149.351 166.685 149.453 168.361L150.504 185.955L161.326 189.939C162.414 190.339 163.183 191.327 163.3 192.49C163.418 193.647 162.865 194.77 161.873 195.383L147.866 204.027C147.278 204.391 146.611 204.532 145.971 204.469Z" fill="#F88968"/>
</g>
</g>
<mask id="mask30_499_22884" style="mask-type:luminance" maskUnits="userSpaceOnUse" x="-276" y="-237" width="3006" height="2004">
<path d="M-275.261 -236.114H2729.2V1766.86H-275.261V-236.114Z" fill="white"/>
</mask>
<g mask="url(#mask30_499_22884)">
<mask id="mask31_499_22884" style="mask-type:luminance" maskUnits="userSpaceOnUse" x="-276" y="-359" width="3006" height="770">
<path d="M2729.2 410.944H-275.261V-358.905H2729.2V410.944Z" fill="white"/>
</mask>
<g mask="url(#mask31_499_22884)">
<path d="M158.833 230.251C147.587 229.385 132.802 229.44 118.384 233.073C116.99 233.426 116.602 234.147 117.515 234.684C118.432 235.221 120.304 235.371 121.701 235.018C146.992 228.643 174.573 234.878 174.844 234.943C176.274 235.275 178.133 235.095 178.996 234.545C179.855 233.996 179.395 233.281 177.965 232.951C177.343 232.807 169.766 231.094 158.833 230.251Z" fill="#F88968"/>
</g>
</g>
</g>
<defs>
<clipPath id="clip0_499_22884">
<rect width="200" height="283.367" fill="white" transform="translate(45 27)"/>
</clipPath>
</defs>
</svg>
