<svg width="423" height="98" viewBox="0 0 423 98" fill="none" xmlns="http://www.w3.org/2000/svg">
<path d="M1 25.3874C1 11.9186 11.9186 1 25.3874 1V36.2976H1V25.3874Z" fill="#3A649E" stroke="#3A649E"/>
<rect x="1" y="36.2976" width="24.3874" height="25.4048" fill="#3A649E" stroke="#3A649E"/>
<path d="M1 72.6126C1 86.0814 11.9186 97 25.3874 97V61.7024H1V72.6126Z" fill="#3A649E" stroke="#3A649E"/>
<rect x="25.3875" y="1" width="360.957" height="96" fill="#3A649E"/>
<rect x="25.3875" y="1" width="360.957" height="96" stroke="#3A649E"/>
<path d="M410.732 25.3874C410.732 11.9186 399.813 1 386.344 1V36.2976H410.732V25.3874Z" fill="#3A649E" stroke="#3A649E"/>
<rect width="24.3874" height="25.4048" transform="matrix(-1 0 0 1 410.732 36.2976)" fill="#3A649E" stroke="#3A649E"/>
<path fill-rule="evenodd" clip-rule="evenodd" d="M410.289 77.262C410.579 75.7569 410.732 74.2025 410.732 72.6126V61.7024H386.344V97C392.25 97 397.665 94.9009 401.885 91.4081C406.094 94.2126 412.845 96.8784 421 95.3956C418.754 94.4329 410.09 88.6569 410.411 77.105C410.372 77.1585 410.331 77.2109 410.289 77.262Z" fill="#3A649E"/>
<path d="M410.289 77.262L410.674 77.5805L409.798 77.1672L410.289 77.262ZM410.732 61.7024V61.2024H411.232V61.7024H410.732ZM386.344 61.7024H385.844V61.2024H386.344V61.7024ZM386.344 97V97.5H385.844V97H386.344ZM401.885 91.4081L401.566 91.0229L401.852 90.7857L402.162 90.992L401.885 91.4081ZM421 95.3956L421.197 94.936L422.724 95.5904L421.089 95.8875L421 95.3956ZM410.411 77.105L410.006 76.8109L410.955 75.5061L410.911 77.1189L410.411 77.105ZM411.232 72.6126C411.232 74.2345 411.076 75.8206 410.78 77.3567L409.798 77.1672C410.083 75.6932 410.232 74.1705 410.232 72.6126H411.232ZM411.232 61.7024V72.6126H410.232V61.7024H411.232ZM386.344 61.2024H410.732V62.2024H386.344V61.2024ZM385.844 97V61.7024H386.844V97H385.844ZM402.204 91.7932C397.898 95.3575 392.37 97.5 386.344 97.5V96.5C392.129 96.5 397.433 94.4442 401.566 91.0229L402.204 91.7932ZM421.089 95.8875C412.775 97.3993 405.895 94.6803 401.608 91.8242L402.162 90.992C406.294 93.7448 412.914 96.3575 420.911 94.9036L421.089 95.8875ZM410.911 77.1189C410.754 82.7569 412.787 86.9763 415.133 89.9089C417.489 92.8538 420.15 94.4875 421.197 94.936L420.803 95.8551C419.603 95.341 416.81 93.6053 414.352 90.5336C411.885 87.4496 409.747 83.0051 409.911 77.0911L410.911 77.1189ZM409.903 76.9435C409.939 76.9002 409.974 76.856 410.006 76.8109L410.815 77.3991C410.77 77.4611 410.723 77.5215 410.674 77.5805L409.903 76.9435Z" fill="#3A649E"/>
</svg>
