<svg width="576" height="523" viewBox="0 0 576 523" fill="none" xmlns="http://www.w3.org/2000/svg">
<path d="M130.125 364.068C158.908 364.068 182.238 387.426 182.238 416.228C182.238 445.037 158.908 468.388 130.125 468.388C101.341 468.388 78.0114 445.037 78.0114 416.228C78.0114 387.426 101.341 364.068 130.125 364.068Z" fill="#DCDEEA"/>
<path d="M130.125 364.068C158.908 364.068 182.238 387.426 182.238 416.228C182.238 445.037 158.908 468.388 130.125 468.388C101.341 468.388 78.0114 445.037 78.0114 416.228C78.0114 387.426 101.341 364.068 130.125 364.068Z" stroke="#181211" stroke-width="2" stroke-miterlimit="10" stroke-linecap="round"/>
<path d="M58.067 443.771C70.0631 443.771 79.7852 453.501 79.7852 465.501C79.7852 477.507 70.0631 487.238 58.067 487.238C46.0782 487.238 36.3562 477.507 36.3562 465.501C36.3562 453.501 46.0782 443.771 58.067 443.771Z" fill="#DCDEEA"/>
<path d="M58.067 443.771C70.0631 443.771 79.7852 453.501 79.7852 465.501C79.7852 477.507 70.0631 487.238 58.067 487.238C46.0782 487.238 36.3562 477.507 36.3562 465.501C36.3562 453.501 46.0782 443.771 58.067 443.771Z" stroke="#181211" stroke-width="2" stroke-miterlimit="10" stroke-linecap="round"/>
<path d="M17.7955 492.902C24.5737 492.902 30.0713 498.405 30.0713 505.189C30.0713 511.981 24.5737 517.476 17.7955 517.476C11.0174 517.476 5.51971 511.981 5.51971 505.189C5.51971 498.405 11.0174 492.902 17.7955 492.902Z" fill="#DCDEEA"/>
<path d="M17.7955 492.902C24.5737 492.902 30.0713 498.405 30.0713 505.189C30.0713 511.981 24.5737 517.476 17.7955 517.476C11.0174 517.476 5.51971 511.981 5.51971 505.189C5.51971 498.405 11.0174 492.902 17.7955 492.902Z" stroke="#181211" stroke-width="2" stroke-miterlimit="10" stroke-linecap="round"/>
<path d="M139.7 334.774C64.7643 325.588 11.4662 257.341 20.651 182.346C29.8284 107.344 98.0148 53.9985 172.943 63.1841C178.757 63.8986 184.416 65.0036 189.951 66.403C217.711 24.8433 267.285 0.0562887 320.252 6.55322C370.569 12.726 411.091 45.5422 429.534 89.135C436.401 88.9282 443.378 89.2373 450.406 90.0999C525.334 99.2928 578.632 167.54 569.455 242.535C560.27 317.529 492.083 370.882 417.155 361.689C410.024 360.82 403.099 359.398 396.394 357.505C367.765 393.386 321.768 414.018 272.886 408.022C226.425 402.328 188.302 373.917 168.211 335.282C158.893 336.092 149.355 335.96 139.7 334.774Z" fill="#DCDEEA"/>
<path d="M139.7 334.774C64.7643 325.588 11.4663 257.341 20.651 182.346C29.8284 107.344 98.0148 53.9985 172.943 63.1841C178.757 63.8986 184.416 65.0036 189.951 66.4031C217.711 24.8433 267.285 0.0562887 320.252 6.55322C370.569 12.726 411.091 45.5422 429.534 89.135C436.401 88.9282 443.378 89.2373 450.406 90.0999C525.334 99.2928 578.632 167.54 569.455 242.535C560.27 317.529 492.083 370.882 417.155 361.689C410.024 360.82 403.099 359.398 396.394 357.505C367.765 393.386 321.768 414.018 272.886 408.022C226.425 402.328 188.302 373.917 168.211 335.282C158.893 336.092 149.355 335.96 139.7 334.774Z" stroke="#181211" stroke-width="2" stroke-miterlimit="10" stroke-linecap="round"/>
</svg>
