<?xml version="1.0" encoding="UTF-8" standalone="no"?>
<svg
   width="357"
   height="407"
   viewBox="0 0 357 407"
   fill="none"
   version="1.1"
   id="svg107"
   sodipodi:docname="video conference - student unhappy v2.svg"
   inkscape:version="1.3.1 (91b66b0783, 2023-11-16)"
   inkscape:export-filename="video conference - student unhappy v2.png"
   inkscape:export-xdpi="96"
   inkscape:export-ydpi="96"
   xmlns:inkscape="http://www.inkscape.org/namespaces/inkscape"
   xmlns:sodipodi="http://sodipodi.sourceforge.net/DTD/sodipodi-0.dtd"
   xmlns="http://www.w3.org/2000/svg"
   xmlns:svg="http://www.w3.org/2000/svg">
  <sodipodi:namedview
     id="namedview107"
     pagecolor="#ffffff"
     bordercolor="#000000"
     borderopacity="0.25"
     inkscape:showpageshadow="2"
     inkscape:pageopacity="0.0"
     inkscape:pagecheckerboard="0"
     inkscape:deskcolor="#d1d1d1"
     showgrid="false"
     inkscape:zoom="3.1400491"
     inkscape:cx="178.34116"
     inkscape:cy="203.34077"
     inkscape:window-width="2880"
     inkscape:window-height="1514"
     inkscape:window-x="2869"
     inkscape:window-y="-11"
     inkscape:window-maximized="1"
     inkscape:current-layer="svg107" />
  <rect
     y="0.43164101"
     width="357"
     height="405.68201"
     fill="white"
     id="rect1"
     style="fill:#c6d7dd;fill-opacity:1"
     x="0"
     clip-path="url(#clipPath6)" />
  <path
     d="m 30.9609,20.9271 c -0.0973,0.1623 -0.2001,0.2867 -0.3083,0.3733 -0.1082,0.0757 -0.2488,0.1135 -0.4219,0.1135 -0.1839,0 -0.4003,-0.0919 -0.6491,-0.2758 -0.238,-0.1839 -0.5463,-0.3841 -0.9249,-0.6004 -0.3679,-0.2272 -0.8168,-0.4328 -1.3469,-0.6167 -0.5193,-0.1839 -1.1521,-0.2758 -1.8986,-0.2758 -0.7032,0 -1.3252,0.0973 -1.8661,0.2921 -0.5409,0.1839 -0.9953,0.4381 -1.3631,0.7626 -0.357,0.3246 -0.6275,0.7086 -0.8114,1.1522 -0.1839,0.4327 -0.2759,0.9033 -0.2759,1.4118 0,0.649 0.1569,1.19 0.4706,1.6227 0.3246,0.4219 0.7465,0.7843 1.2658,1.0872 0.5301,0.3029 1.1251,0.568 1.785,0.7951 0.6707,0.2164 1.3522,0.4436 2.0446,0.6816 0.7032,0.238 1.3847,0.5084 2.0446,0.8114 0.6708,0.292 1.2658,0.6653 1.785,1.1196 0.5301,0.4544 0.952,1.0115 1.2658,1.6714 0.3245,0.66 0.4868,1.4713 0.4868,2.4341 0,1.0169 -0.1731,1.9744 -0.5193,2.8723 -0.3462,0.8871 -0.8546,1.6606 -1.5254,2.3205 -0.6599,0.6599 -1.4766,1.1791 -2.4503,1.5578 -0.9628,0.3786 -2.0608,0.5679 -3.2941,0.5679 -1.5037,0 -2.8776,-0.2704 -4.1217,-0.8113 -1.2333,-0.5518 -2.2881,-1.2928 -3.1644,-2.2232 l 0.9088,-1.4929 c 0.0865,-0.119 0.1893,-0.2163 0.3083,-0.2921 0.1298,-0.0865 0.2704,-0.1298 0.4219,-0.1298 0.2272,0 0.4868,0.1244 0.7789,0.3732 0.2921,0.238 0.6545,0.5031 1.0872,0.7952 0.4436,0.2921 0.9737,0.5625 1.5903,0.8113 0.6275,0.238 1.3901,0.357 2.2881,0.357 0.7464,0 1.4117,-0.1027 1.9959,-0.3083 0.5842,-0.2055 1.0764,-0.4922 1.4767,-0.86 0.4111,-0.3787 0.7248,-0.8276 0.9412,-1.3469 0.2163,-0.5193 0.3245,-1.098 0.3245,-1.7363 0,-0.7032 -0.1623,-1.2765 -0.4868,-1.7201 -0.3137,-0.4544 -0.7302,-0.833 -1.2495,-1.1359 -0.5193,-0.3029 -1.1143,-0.5571 -1.785,-0.7627 C 25.1083,30.1064 24.4267,29.89 23.7236,29.6736 23.0312,29.4464 22.3497,29.1868 21.6789,28.8947 21.019,28.6026 20.4294,28.224 19.9102,27.7588 19.3909,27.2936 18.969,26.7149 18.6444,26.0225 c -0.3137,-0.7032 -0.4706,-1.5686 -0.4706,-2.5964 0,-0.8222 0.1569,-1.6173 0.4706,-2.3854 0.3246,-0.7681 0.7898,-1.4496 1.3956,-2.0446 0.6058,-0.595 1.3522,-1.071 2.2393,-1.428 0.8979,-0.357 1.9257,-0.5355 3.0832,-0.5355 1.2982,0 2.4828,0.2055 3.5538,0.6166 1.071,0.4111 2.0068,1.0061 2.8073,1.785 z m 9.8264,19.8784 c -1.2982,0 -2.2989,-0.3624 -3.0021,-1.0872 -0.6923,-0.7248 -1.0385,-1.7688 -1.0385,-3.1319 V 26.5255 H 34.767 c -0.1731,0 -0.3192,-0.0486 -0.4382,-0.146 -0.119,-0.1082 -0.1785,-0.2705 -0.1785,-0.4868 v -1.1522 l 2.6938,-0.3407 0.6653,-5.0792 c 0.0216,-0.1622 0.0919,-0.2921 0.2109,-0.3894 0.119,-0.1082 0.2705,-0.1623 0.4544,-0.1623 h 1.4605 v 5.6633 h 4.7059 v 2.0933 h -4.7059 v 9.8662 c 0,0.6924 0.1676,1.2062 0.503,1.5416 0.3354,0.3354 0.7681,0.5031 1.2982,0.5031 0.3029,0 0.5625,-0.0379 0.7789,-0.1136 0.2272,-0.0866 0.4219,-0.1785 0.5842,-0.2759 0.1622,-0.0974 0.2975,-0.1839 0.4057,-0.2596 0.119,-0.0866 0.2217,-0.1299 0.3083,-0.1299 0.1514,0 0.2867,0.092 0.4057,0.2759 l 0.8438,1.3793 c -0.4977,0.4652 -1.0981,0.833 -1.8013,1.1035 -0.7031,0.2596 -1.428,0.3894 -2.1744,0.3894 z m 9.6243,-16.6978 v 10.4828 c 0,1.2441 0.2867,2.2069 0.86,2.8884 0.5734,0.6816 1.4388,1.0224 2.5964,1.0224 0.8438,0 1.6389,-0.2002 2.3854,-0.6004 0.7465,-0.4003 1.4334,-0.9575 2.0609,-1.6715 V 24.1077 h 2.8884 v 16.4382 h -1.7201 c -0.4111,0 -0.6707,-0.2001 -0.7789,-0.6004 l -0.2272,-1.7688 c -0.714,0.7897 -1.5145,1.428 -2.4016,1.9148 -0.8871,0.476 -1.904,0.714 -3.0507,0.714 -0.8979,0 -1.6931,-0.146 -2.3854,-0.4381 -0.6816,-0.3029 -1.2549,-0.7248 -1.7201,-1.2657 -0.4652,-0.5409 -0.8168,-1.1954 -1.0548,-1.9635 -0.2272,-0.7681 -0.3408,-1.6173 -0.3408,-2.5477 V 24.1077 Z m 27.1048,16.4382 c -0.411,0 -0.6707,-0.2001 -0.7789,-0.6004 l -0.2596,-1.996 c -0.7032,0.8547 -1.5091,1.5416 -2.4179,2.0609 -0.8979,0.5085 -1.931,0.7627 -3.0994,0.7627 -0.9411,0 -1.7958,-0.1785 -2.5639,-0.5355 -0.7681,-0.3678 -1.4226,-0.9033 -1.9635,-1.6065 -0.5409,-0.7032 -0.9574,-1.5795 -1.2495,-2.6288 -0.2921,-1.0494 -0.4381,-2.2556 -0.4381,-3.6187 0,-1.2117 0.1623,-2.3367 0.4868,-3.3753 0.3246,-1.0494 0.7897,-1.9581 1.3956,-2.7262 0.6166,-0.7681 1.363,-1.3685 2.2393,-1.8012 0.8763,-0.4435 1.8716,-0.6653 2.9858,-0.6653 1.0061,0 1.8662,0.1731 2.5802,0.5193 0.714,0.3353 1.3522,0.8113 1.9148,1.428 v -9.1198 h 2.8884 V 40.5459 Z M 71.918,38.4364 c 0.9412,0 1.7634,-0.2164 2.4666,-0.6491 0.714,-0.4328 1.3685,-1.044 1.9635,-1.8337 v -7.9514 c -0.5301,-0.714 -1.1143,-1.2116 -1.7526,-1.4929 -0.6274,-0.2921 -1.3252,-0.4381 -2.0933,-0.4381 -1.5362,0 -2.7153,0.5463 -3.5375,1.6389 -0.8222,1.0927 -1.2333,2.6505 -1.2333,4.6735 0,1.071 0.092,1.9905 0.2759,2.7586 0.1839,0.7573 0.4543,1.3847 0.8113,1.8824 0.357,0.4868 0.7952,0.8438 1.3144,1.071 0.5193,0.2272 1.1143,0.3408 1.785,0.3408 z M 90.5824,23.848 c 0.9845,0 1.8932,0.1677 2.7262,0.5031 0.833,0.3245 1.5524,0.8005 2.1582,1.428 0.6059,0.6166 1.0765,1.3847 1.4118,2.3043 0.3462,0.9087 0.5193,1.9472 0.5193,3.1156 0,0.4544 -0.0487,0.7573 -0.1461,0.9087 -0.0973,0.1515 -0.2812,0.2272 -0.5517,0.2272 H 85.7629 c 0.0217,1.0385 0.1623,1.9419 0.4219,2.71 0.2597,0.768 0.6167,1.4117 1.071,1.931 0.4544,0.5085 0.9953,0.8925 1.6228,1.1521 0.6274,0.2489 1.3306,0.3733 2.1095,0.3733 0.7248,0 1.3469,-0.0812 1.8662,-0.2434 0.53,-0.1731 0.9844,-0.357 1.363,-0.5518 0.3787,-0.1947 0.6924,-0.3732 0.9412,-0.5355 0.2597,-0.1731 0.4814,-0.2596 0.6653,-0.2596 0.238,0 0.422,0.0919 0.5518,0.2759 l 0.8113,1.0547 c -0.357,0.4328 -0.7843,0.8114 -1.2819,1.1359 -0.4977,0.3138 -1.0332,0.5734 -1.6065,0.7789 -0.5626,0.2056 -1.1467,0.357 -1.7526,0.4544 -0.6058,0.1082 -1.2062,0.1623 -1.8012,0.1623 -1.1359,0 -2.1853,-0.1893 -3.1481,-0.568 -0.952,-0.3894 -1.7796,-0.952 -2.4828,-1.6876 -0.6923,-0.7465 -1.2332,-1.666 -1.6227,-2.7586 -0.3894,-1.0927 -0.5842,-2.3476 -0.5842,-3.7648 0,-1.1467 0.1731,-2.2177 0.5193,-3.213 0.357,-0.9952 0.8655,-1.8553 1.5254,-2.5801 0.6599,-0.7356 1.4658,-1.309 2.4178,-1.7201 0.952,-0.4219 2.023,-0.6329 3.213,-0.6329 z m 0.0649,2.1258 c -1.3955,0 -2.4935,0.4057 -3.2941,1.2171 -0.8005,0.8005 -1.2982,1.9148 -1.4929,3.3428 h 8.9412 c 0,-0.6708 -0.0919,-1.282 -0.2758,-1.8337 -0.1839,-0.5626 -0.4544,-1.044 -0.8114,-1.4442 -0.357,-0.4111 -0.7951,-0.7249 -1.3144,-0.9412 -0.5085,-0.2272 -1.0926,-0.3408 -1.7526,-0.3408 z M 101.095,40.5459 V 24.1077 h 1.72 c 0.411,0 0.671,0.2001 0.779,0.6004 l 0.227,1.785 c 0.714,-0.7897 1.509,-1.428 2.386,-1.9148 0.887,-0.4869 1.909,-0.7303 3.066,-0.7303 0.898,0 1.688,0.1515 2.37,0.4544 0.692,0.2921 1.265,0.714 1.72,1.2657 0.465,0.5409 0.817,1.1954 1.055,1.9635 0.238,0.7681 0.357,1.6173 0.357,2.5477 v 10.4666 h -2.889 V 30.0793 c 0,-1.2441 -0.287,-2.2069 -0.86,-2.8884 -0.563,-0.6924 -1.428,-1.0386 -2.596,-1.0386 -0.855,0 -1.656,0.2056 -2.402,0.6166 -0.736,0.4111 -1.417,0.9683 -2.045,1.6715 v 12.1055 z m 23.016,0.2596 c -1.299,0 -2.299,-0.3624 -3.003,-1.0872 -0.692,-0.7248 -1.038,-1.7688 -1.038,-3.1319 V 26.5255 h -1.98 c -0.173,0 -0.319,-0.0486 -0.438,-0.146 -0.119,-0.1082 -0.178,-0.2705 -0.178,-0.4868 v -1.1522 l 2.693,-0.3407 0.666,-5.0792 c 0.021,-0.1622 0.092,-0.2921 0.211,-0.3894 0.119,-0.1082 0.27,-0.1623 0.454,-0.1623 h 1.46 v 5.6633 h 4.706 v 2.0933 h -4.706 v 9.8662 c 0,0.6924 0.168,1.2062 0.503,1.5416 0.336,0.3354 0.769,0.5031 1.299,0.5031 0.303,0 0.562,-0.0379 0.779,-0.1136 0.227,-0.0866 0.421,-0.1785 0.584,-0.2759 0.162,-0.0974 0.297,-0.1839 0.405,-0.2596 0.119,-0.0866 0.222,-0.1299 0.309,-0.1299 0.151,0 0.286,0.092 0.405,0.2759 l 0.844,1.3793 c -0.497,0.4652 -1.098,0.833 -1.801,1.1035 -0.703,0.2596 -1.428,0.3894 -2.174,0.3894 z"
     fill="#000000"
     id="path1"
     clip-path="url(#clipPath3)" />
  <rect
     x="0.5"
     y="0.931641"
     width="356"
     height="404.682"
     stroke="black"
     id="rect105" />
  <path
     d="m 256.98562,158.31232 c -26.68971,0 -48.32597,-21.63626 -48.32597,-48.32511 0,-26.689709 21.63626,-48.325976 48.32597,-48.325976 26.68885,0 48.32512,21.636267 48.32512,48.325976 0,26.68885 -21.63627,48.32511 -48.32512,48.32511"
     style="fill:#4f7c8d;fill-opacity:1;fill-rule:nonzero;stroke:none;stroke-width:0.0853328"
     id="path258" />
  <path
     d="m 301.31074,105.98721 c 0,26.68885 -21.63627,48.32511 -48.32512,48.32511 -26.68971,0 -48.32597,-21.63626 -48.32597,-48.32511 0,-26.689709 21.63626,-48.325976 48.32597,-48.325976 26.68885,0 48.32512,21.636267 48.32512,48.325976"
     style="fill:#dc313f;fill-opacity:1;fill-rule:nonzero;stroke:none;stroke-width:0.0853328"
     id="path260" />
  <path
     d="m 290.59092,105.98697 c 0,23.71498 -19.22389,42.93973 -42.93887,42.93973 -23.71584,0 -42.94059,-19.22475 -42.94059,-42.93973 0,-23.715842 19.22475,-42.941442 42.94059,-42.941442 23.71498,0 42.93887,19.2256 42.93887,42.941442"
     style="fill:#ffffff;fill-opacity:1;fill-rule:nonzero;stroke:none;stroke-width:0.0853328"
     id="path262" />
  <path
     d="m 264.5128,85.337927 c -6.09792,9.161386 -11.35702,16.378023 -11.74614,16.119463 -0.38912,-0.25941 4.23766,-7.895887 10.33643,-17.058131 6.09792,-9.161384 11.97653,-16.526504 11.74613,-16.120317 -5.0577,8.936105 -4.2385,7.896745 -10.33642,17.058985"
     style="fill:#1c1a18;fill-opacity:1;fill-rule:nonzero;stroke:none;stroke-width:0.0853328"
     id="path264" />
  <g
     clip-path="url(#clipPath9)"
     id="g104"
     transform="matrix(1.5,0,0,1.5,-89.206073,-47.454083)">
    <mask
       id="mask0_669_17586"
       maskUnits="userSpaceOnUse"
       x="-751"
       y="-835"
       width="5387"
       height="3591">
      <path
         d="M -750.525,-834.852 H 4635.46 V 2755.81 H -750.525 Z"
         fill="#ffffff"
         id="path2" />
    </mask>
    <g
       mask="url(#mask0_669_17586)"
       id="g5">
      <mask
         id="mask1_669_17586"
         maskUnits="userSpaceOnUse"
         x="70"
         y="87"
         width="219"
         height="700">
        <path
           d="M 288.034,87.208 H 70.9941 v 698.87 H 288.034 Z"
           fill="#ffffff"
           id="path3" />
      </mask>
      <g
         mask="url(#mask1_669_17586)"
         id="g4">
        <path
           d="m 229.958,428.191 c -11.134,5.833 -21.47,10.128 -31.826,12.711 -7.79,1.957 -15.599,2.946 -23.788,2.886 -7.24,0.06 -14.099,-0.72 -20.882,-2.24 -11.077,-2.488 -21.984,-7.011 -34.087,-13.357 l 4.579,-95.079 -0.494,-110.906 28.159,-7.562 8.474,-2.261 c 4.674,-1.254 9.462,-1.863 14.251,-1.901 4.788,0.039 9.576,0.647 14.25,1.901 l 9.538,2.565 27.095,7.258 -0.493,110.906 z"
           fill="#009762"
           id="path4" />
      </g>
    </g>
    <mask
       id="mask2_669_17586"
       maskUnits="userSpaceOnUse"
       x="-751"
       y="-835"
       width="5387"
       height="3591">
      <path
         d="M -750.525,-834.852 H 4635.46 V 2755.81 H -750.525 Z"
         fill="#ffffff"
         id="path5" />
    </mask>
    <g
       mask="url(#mask2_669_17586)"
       id="g8">
      <mask
         id="mask3_669_17586"
         maskUnits="userSpaceOnUse"
         x="70"
         y="87"
         width="219"
         height="700">
        <path
           d="M 288.034,87.208 H 70.9941 v 698.87 H 288.034 Z"
           fill="#ffffff"
           id="path6" />
      </mask>
      <g
         mask="url(#mask3_669_17586)"
         id="g7">
        <path
           d="m 198.132,214.948 v 225.954 c -7.79,1.957 -15.599,2.946 -23.788,2.887 -7.24,0.059 -14.099,-0.721 -20.882,-2.24 l -0.038,-5.625 -0.057,-5.889 -0.114,-13.681 -0.038,-5.891 -0.114,-13.66 -0.057,-5.892 -0.096,-13.66 -0.057,-5.871 -0.114,-13.662 -0.038,-5.853 -0.114,-13.68 -0.057,-5.871 -0.114,-13.681 -0.038,-5.851 -0.114,-13.7 -0.038,-5.833 -0.114,-13.719 -0.057,-5.814 -0.114,-13.717 -0.039,-5.815 -0.114,-13.7 -0.038,-5.814 -0.114,-13.737 -0.057,-5.796 v -0.493 l 8.474,-2.262 c 4.674,-1.254 9.463,-1.862 14.251,-1.9 4.788,0.039 9.576,0.646 14.25,1.9 l 9.444,2.547 z"
           fill="#ffffff"
           id="path7" />
      </g>
    </g>
    <mask
       id="mask4_669_17586"
       maskUnits="userSpaceOnUse"
       x="-751"
       y="-835"
       width="5387"
       height="3591">
      <path
         d="M -750.525,-834.852 H 4635.46 V 2755.81 H -750.525 Z"
         fill="#ffffff"
         id="path8" />
    </mask>
    <g
       mask="url(#mask4_669_17586)"
       id="g11">
      <mask
         id="mask5_669_17586"
         maskUnits="userSpaceOnUse"
         x="70"
         y="87"
         width="219"
         height="700">
        <path
           d="M 288.034,87.208 H 70.9941 v 698.87 H 288.034 Z"
           fill="#ffffff"
           id="path9" />
      </mask>
      <g
         mask="url(#mask5_669_17586)"
         id="g10">
        <path
           d="m 198.133,220.964 v 5.738 c -8.114,1.406 -16.037,1.9 -23.314,1.9 -9.006,0 -17.025,-0.779 -23.143,-1.653 l -0.057,-5.795 c 10.773,1.558 28.311,2.983 46.418,-0.209 z"
           fill="#e2e2e2"
           id="path10" />
      </g>
    </g>
    <mask
       id="mask6_669_17586"
       maskUnits="userSpaceOnUse"
       x="-751"
       y="-835"
       width="5387"
       height="3591">
      <path
         d="M -750.525,-834.852 H 4635.46 V 2755.81 H -750.525 Z"
         fill="#ffffff"
         id="path11" />
    </mask>
    <g
       mask="url(#mask6_669_17586)"
       id="g14">
      <mask
         id="mask7_669_17586"
         maskUnits="userSpaceOnUse"
         x="70"
         y="87"
         width="219"
         height="700">
        <path
           d="M 288.034,87.208 H 70.9941 v 698.87 H 288.034 Z"
           fill="#ffffff"
           id="path12" />
      </mask>
      <g
         mask="url(#mask7_669_17586)"
         id="g13">
        <path
           d="m 198.132,237.306 v 5.775 c -8,1.388 -15.809,1.901 -22.972,1.901 -9.082,0 -17.177,-0.818 -23.333,-1.73 l -0.038,-5.814 c 10.792,1.616 28.273,3.098 46.343,-0.132 z"
           fill="#e2e2e2"
           id="path13" />
      </g>
    </g>
    <mask
       id="mask8_669_17586"
       maskUnits="userSpaceOnUse"
       x="-751"
       y="-835"
       width="5387"
       height="3591">
      <path
         d="M -750.525,-834.852 H 4635.46 V 2755.81 H -750.525 Z"
         fill="#ffffff"
         id="path14" />
    </mask>
    <g
       mask="url(#mask8_669_17586)"
       id="g17">
      <mask
         id="mask9_669_17586"
         maskUnits="userSpaceOnUse"
         x="70"
         y="87"
         width="219"
         height="700">
        <path
           d="M 288.034,87.208 H 70.9941 v 698.87 H 288.034 Z"
           fill="#ffffff"
           id="path15" />
      </mask>
      <g
         mask="url(#mask9_669_17586)"
         id="g16">
        <path
           d="m 198.132,254.108 v 5.815 c -7.885,1.386 -15.58,1.899 -22.649,1.899 -9.139,0 -17.271,-0.855 -23.503,-1.824 l -0.039,-5.814 c 10.774,1.691 28.16,3.249 46.191,-0.076 z"
           fill="#e2e2e2"
           id="path16" />
      </g>
    </g>
    <mask
       id="mask10_669_17586"
       maskUnits="userSpaceOnUse"
       x="-751"
       y="-835"
       width="5387"
       height="3591">
      <path
         d="M -750.525,-834.852 H 4635.46 V 2755.81 H -750.525 Z"
         fill="#ffffff"
         id="path17" />
    </mask>
    <g
       mask="url(#mask10_669_17586)"
       id="g20">
      <mask
         id="mask11_669_17586"
         maskUnits="userSpaceOnUse"
         x="70"
         y="87"
         width="219"
         height="700">
        <path
           d="M 288.034,87.208 H 70.9941 v 698.87 H 288.034 Z"
           fill="#ffffff"
           id="path18" />
      </mask>
      <g
         mask="url(#mask11_669_17586)"
         id="g19">
        <path
           d="m 198.132,273.717 v 5.814 c -7.79,1.387 -15.371,1.9 -22.364,1.9 -9.177,0 -17.347,-0.894 -23.617,-1.9 l -0.057,-5.814 c 10.773,1.747 28.064,3.363 46.038,0 z"
           fill="#e2e2e2"
           id="path19" />
      </g>
    </g>
    <mask
       id="mask12_669_17586"
       maskUnits="userSpaceOnUse"
       x="-751"
       y="-835"
       width="5387"
       height="3591">
      <path
         d="M -750.525,-834.852 H 4635.46 V 2755.81 H -750.525 Z"
         fill="#ffffff"
         id="path20" />
    </mask>
    <g
       mask="url(#mask12_669_17586)"
       id="g23">
      <mask
         id="mask13_669_17586"
         maskUnits="userSpaceOnUse"
         x="70"
         y="87"
         width="219"
         height="700">
        <path
           d="M 288.034,87.208 H 70.9941 v 698.87 H 288.034 Z"
           fill="#ffffff"
           id="path21" />
      </mask>
      <g
         mask="url(#mask13_669_17586)"
         id="g22">
        <path
           d="m 198.131,293.344 v 5.795 c -7.676,1.387 -15.162,1.918 -22.097,1.918 -9.235,0 -17.443,-0.93 -23.732,-1.975 l -0.038,-5.834 c 10.754,1.824 27.931,3.479 45.867,0.096 z"
           fill="#e2e2e2"
           id="path22" />
      </g>
    </g>
    <mask
       id="mask14_669_17586"
       maskUnits="userSpaceOnUse"
       x="-751"
       y="-835"
       width="5387"
       height="3591">
      <path
         d="M -750.525,-834.852 H 4635.46 V 2755.81 H -750.525 Z"
         fill="#ffffff"
         id="path23" />
    </mask>
    <g
       mask="url(#mask14_669_17586)"
       id="g26">
      <mask
         id="mask15_669_17586"
         maskUnits="userSpaceOnUse"
         x="70"
         y="87"
         width="219"
         height="700">
        <path
           d="M 288.034,87.208 H 70.9941 v 698.87 H 288.034 Z"
           fill="#ffffff"
           id="path24" />
      </mask>
      <g
         mask="url(#mask15_669_17586)"
         id="g25">
        <path
           d="m 198.132,312.934 v 5.814 c -7.601,1.406 -14.992,1.919 -21.832,1.919 -9.272,0 -17.519,-0.969 -23.846,-2.033 l -0.038,-5.853 c 10.735,1.901 27.836,3.611 45.716,0.153 z"
           fill="#e2e2e2"
           id="path25" />
      </g>
    </g>
    <mask
       id="mask16_669_17586"
       maskUnits="userSpaceOnUse"
       x="-751"
       y="-835"
       width="5387"
       height="3591">
      <path
         d="M -750.525,-834.852 H 4635.46 V 2755.81 H -750.525 Z"
         fill="#ffffff"
         id="path26" />
    </mask>
    <g
       mask="url(#mask16_669_17586)"
       id="g29">
      <mask
         id="mask17_669_17586"
         maskUnits="userSpaceOnUse"
         x="70"
         y="87"
         width="219"
         height="700">
        <path
           d="M 288.034,87.208 H 70.9941 v 698.87 H 288.034 Z"
           fill="#ffffff"
           id="path27" />
      </mask>
      <g
         mask="url(#mask17_669_17586)"
         id="g28">
        <path
           d="m 198.132,332.541 v 5.815 c -7.505,1.405 -14.84,1.938 -21.604,1.938 -9.272,0 -17.537,-0.989 -23.903,-2.109 l -0.057,-5.872 c 10.736,1.957 27.722,3.724 45.564,0.228 z"
           fill="#e2e2e2"
           id="path28" />
      </g>
    </g>
    <mask
       id="mask18_669_17586"
       maskUnits="userSpaceOnUse"
       x="-751"
       y="-835"
       width="5387"
       height="3591">
      <path
         d="M -750.525,-834.852 H 4635.46 V 2755.81 H -750.525 Z"
         fill="#ffffff"
         id="path29" />
    </mask>
    <g
       mask="url(#mask18_669_17586)"
       id="g32">
      <mask
         id="mask19_669_17586"
         maskUnits="userSpaceOnUse"
         x="70"
         y="87"
         width="219"
         height="700">
        <path
           d="M 288.034,87.208 H 70.9941 v 698.87 H 288.034 Z"
           fill="#ffffff"
           id="path30" />
      </mask>
      <g
         mask="url(#mask19_669_17586)"
         id="g31">
        <path
           d="m 198.131,352.151 v 5.814 c -7.448,1.425 -14.688,1.957 -21.376,1.957 -9.31,0 -17.575,-1.026 -23.979,-2.203 l -0.038,-5.853 c 10.717,2.014 27.608,3.819 45.393,0.285 z"
           fill="#e2e2e2"
           id="path31" />
      </g>
    </g>
    <mask
       id="mask20_669_17586"
       maskUnits="userSpaceOnUse"
       x="-751"
       y="-835"
       width="5387"
       height="3591">
      <path
         d="M -750.525,-834.852 H 4635.46 V 2755.81 H -750.525 Z"
         fill="#ffffff"
         id="path32" />
    </mask>
    <g
       mask="url(#mask20_669_17586)"
       id="g35">
      <mask
         id="mask21_669_17586"
         maskUnits="userSpaceOnUse"
         x="70"
         y="87"
         width="219"
         height="700">
        <path
           d="M 288.034,87.208 H 70.9941 v 698.87 H 288.034 Z"
           fill="#ffffff"
           id="path33" />
      </mask>
      <g
         mask="url(#mask21_669_17586)"
         id="g34">
        <path
           d="m 198.133,371.759 v 5.833 c -7.372,1.407 -14.535,1.938 -21.186,1.938 -9.31,0 -17.575,-1.064 -23.997,-2.28 l -0.057,-5.871 c 10.697,2.109 27.512,3.952 45.24,0.38 z"
           fill="#e2e2e2"
           id="path34" />
      </g>
    </g>
    <mask
       id="mask22_669_17586"
       maskUnits="userSpaceOnUse"
       x="-751"
       y="-835"
       width="5387"
       height="3591">
      <path
         d="M -750.525,-834.852 H 4635.46 V 2755.81 H -750.525 Z"
         fill="#ffffff"
         id="path35" />
    </mask>
    <g
       mask="url(#mask22_669_17586)"
       id="g38">
      <mask
         id="mask23_669_17586"
         maskUnits="userSpaceOnUse"
         x="70"
         y="87"
         width="219"
         height="700">
        <path
           d="M 288.034,87.208 H 70.9941 v 698.87 H 288.034 Z"
           fill="#ffffff"
           id="path36" />
      </mask>
      <g
         mask="url(#mask23_669_17586)"
         id="g37">
        <path
           d="m 198.131,391.368 v 5.814 c -7.315,1.425 -14.402,1.975 -20.995,1.975 -9.311,0 -17.595,-1.101 -24.036,-2.355 l -0.057,-5.89 c 10.697,2.166 27.399,4.066 45.088,0.456 z"
           fill="#e2e2e2"
           id="path37" />
      </g>
    </g>
    <mask
       id="mask24_669_17586"
       maskUnits="userSpaceOnUse"
       x="-751"
       y="-835"
       width="5387"
       height="3591">
      <path
         d="M -750.525,-834.852 H 4635.46 V 2755.81 H -750.525 Z"
         fill="#ffffff"
         id="path38" />
    </mask>
    <g
       mask="url(#mask24_669_17586)"
       id="g41">
      <mask
         id="mask25_669_17586"
         maskUnits="userSpaceOnUse"
         x="70"
         y="87"
         width="219"
         height="700">
        <path
           d="M 288.034,87.208 H 70.9941 v 698.87 H 288.034 Z"
           fill="#ffffff"
           id="path39" />
      </mask>
      <g
         mask="url(#mask25_669_17586)"
         id="g40">
        <path
           d="m 138.965,246.857 c 0,0 -13.012,60.233 -23.912,81.072 0,0 -5.995,29.313 -26.8291,101.266 0,0 -10.8817,4.329 -17.2298,-3.933 0,0 10.0646,-79.103 16.1372,-104.396 0,0 27.2167,-87.389 36.3427,-98.659 0,0 14.054,5.71 15.491,24.65 z"
           fill="#009762"
           id="path40" />
      </g>
    </g>
    <mask
       id="mask26_669_17586"
       maskUnits="userSpaceOnUse"
       x="-751"
       y="-835"
       width="5387"
       height="3591">
      <path
         d="M -750.525,-834.852 H 4635.46 V 2755.81 H -750.525 Z"
         fill="#ffffff"
         id="path41" />
    </mask>
    <g
       mask="url(#mask26_669_17586)"
       id="g44">
      <mask
         id="mask27_669_17586"
         maskUnits="userSpaceOnUse"
         x="70"
         y="87"
         width="219"
         height="700">
        <path
           d="M 288.034,87.208 H 70.9941 v 698.87 H 288.034 Z"
           fill="#ffffff"
           id="path42" />
      </mask>
      <g
         mask="url(#mask27_669_17586)"
         id="g43">
        <path
           d="m 210.217,246.857 c 0,0 13.011,60.233 23.912,81.072 0,0 5.994,29.313 26.828,101.266 0,0 10.882,4.329 17.23,-3.933 0,0 -10.065,-79.103 -16.137,-104.396 0,0 -27.217,-87.389 -36.343,-98.659 0,0 -14.054,5.71 -15.49,24.65 z"
           fill="#009762"
           id="path43" />
      </g>
    </g>
    <mask
       id="mask28_669_17586"
       maskUnits="userSpaceOnUse"
       x="-751"
       y="-835"
       width="5387"
       height="3591">
      <path
         d="M -750.525,-834.852 H 4635.46 V 2755.81 H -750.525 Z"
         fill="#ffffff"
         id="path44" />
    </mask>
    <g
       mask="url(#mask28_669_17586)"
       id="g47">
      <mask
         id="mask29_669_17586"
         maskUnits="userSpaceOnUse"
         x="70"
         y="87"
         width="219"
         height="700">
        <path
           d="M 288.034,87.208 H 70.9941 v 698.87 H 288.034 Z"
           fill="#ffffff"
           id="path45" />
      </mask>
      <g
         mask="url(#mask29_669_17586)"
         id="g46">
        <path
           d="m 189.136,196.516 -0.49,9.211 -0.614,11.539 c 0,0 -2.292,4.346 -12.632,4.346 -10.347,0 -12.464,-2.968 -12.464,-2.968 l -0.416,-5.121 -1.391,-17.007 z"
           fill="#ffaf82"
           id="path46" />
      </g>
    </g>
    <mask
       id="mask30_669_17586"
       maskUnits="userSpaceOnUse"
       x="-386"
       y="-364"
       width="5387"
       height="3592">
      <path
         d="M -385.445,-363.176 H 5000.54 V 3227.48 H -385.445 Z"
         fill="#ffffff"
         id="path47" />
    </mask>
    <g
       mask="url(#mask30_669_17586)"
       id="g50">
      <mask
         id="mask31_669_17586"
         maskUnits="userSpaceOnUse"
         x="-986"
         y="39"
         width="1426"
         height="951">
        <path
           d="M 439.477,39.0312 H -985.566 V 989.06 H 439.477 Z"
           fill="#ffffff"
           id="path48" />
      </mask>
      <g
         mask="url(#mask31_669_17586)"
         id="g49">
        <path
           d="m 189.954,193.807 -0.491,9.211 -0.611,11.542 c 0,0 -2.291,4.343 -12.633,4.343 -10.349,0 -12.465,-2.968 -12.465,-2.968 l -0.416,-5.12 -1.391,-17.008 z"
           fill="#ffaf82"
           id="path49" />
      </g>
    </g>
    <mask
       id="mask32_669_17586"
       maskUnits="userSpaceOnUse"
       x="-386"
       y="-364"
       width="5387"
       height="3592">
      <path
         d="M -385.445,-363.176 H 5000.54 V 3227.48 H -385.445 Z"
         fill="#ffffff"
         id="path50" />
    </mask>
    <g
       mask="url(#mask32_669_17586)"
       id="g53">
      <mask
         id="mask33_669_17586"
         maskUnits="userSpaceOnUse"
         x="-986"
         y="39"
         width="1426"
         height="951">
        <path
           d="M 439.477,39.0312 H -985.566 V 989.06 H 439.477 Z"
           fill="#ffffff"
           id="path51" />
      </mask>
      <g
         mask="url(#mask33_669_17586)"
         id="g52">
        <path
           d="m 189.954,193.807 -0.491,9.211 c -4.312,3.229 -14.524,9.581 -26.125,7.797 l -1.391,-17.008 z"
           fill="#f88968"
           id="path52" />
      </g>
    </g>
    <mask
       id="mask34_669_17586"
       maskUnits="userSpaceOnUse"
       x="-386"
       y="-364"
       width="5387"
       height="3592">
      <path
         d="M -385.445,-363.176 H 5000.54 V 3227.48 H -385.445 Z"
         fill="#ffffff"
         id="path53" />
    </mask>
    <g
       mask="url(#mask34_669_17586)"
       id="g56">
      <mask
         id="mask35_669_17586"
         maskUnits="userSpaceOnUse"
         x="-986"
         y="39"
         width="1426"
         height="951">
        <path
           d="M 439.477,39.0312 H -985.566 V 989.06 H 439.477 Z"
           fill="#ffffff"
           id="path54" />
      </mask>
      <g
         mask="url(#mask35_669_17586)"
         id="g55">
        <path
           d="m 144.278,151.924 c 0,0 -7.923,-7.752 -14.251,-2.692 -7.475,5.976 0.346,27.482 13.604,25.206 z"
           fill="#ffa378"
           id="path55" />
      </g>
    </g>
    <mask
       id="mask36_669_17586"
       maskUnits="userSpaceOnUse"
       x="-386"
       y="-364"
       width="5387"
       height="3592">
      <path
         d="M -385.445,-363.176 H 5000.54 V 3227.48 H -385.445 Z"
         fill="#ffffff"
         id="path56" />
    </mask>
    <g
       mask="url(#mask36_669_17586)"
       id="g59">
      <mask
         id="mask37_669_17586"
         maskUnits="userSpaceOnUse"
         x="-986"
         y="39"
         width="1426"
         height="951">
        <path
           d="M 439.477,39.0312 H -985.566 V 989.06 H 439.477 Z"
           fill="#ffffff"
           id="path57" />
      </mask>
      <g
         mask="url(#mask37_669_17586)"
         id="g58">
        <path
           d="m 139.654,169.086 c -0.657,-0.022 -1.206,-0.534 -1.261,-1.204 -0.851,-10.586 -7.05,-12.421 -7.313,-12.493 -0.694,-0.194 -1.108,-0.91 -0.922,-1.606 0.188,-0.695 0.893,-1.113 1.59,-0.931 0.339,0.086 8.251,2.278 9.26,14.819 0.058,0.722 -0.482,1.355 -1.203,1.412 -0.05,0.003 -0.101,0.005 -0.151,0.003 z"
           fill="#f88968"
           id="path58" />
      </g>
    </g>
    <mask
       id="mask38_669_17586"
       maskUnits="userSpaceOnUse"
       x="-386"
       y="-364"
       width="5387"
       height="3592">
      <path
         d="M -385.445,-363.176 H 5000.54 V 3227.48 H -385.445 Z"
         fill="#ffffff"
         id="path59" />
    </mask>
    <g
       mask="url(#mask38_669_17586)"
       id="g62">
      <mask
         id="mask39_669_17586"
         maskUnits="userSpaceOnUse"
         x="-986"
         y="39"
         width="1426"
         height="951">
        <path
           d="M 439.477,39.0312 H -985.566 V 989.06 H 439.477 Z"
           fill="#ffffff"
           id="path60" />
      </mask>
      <g
         mask="url(#mask39_669_17586)"
         id="g61">
        <path
           d="m 132.245,163.69 c -0.31,-0.009 -0.616,-0.129 -0.857,-0.359 -0.527,-0.5 -0.547,-1.33 -0.05,-1.854 0.114,-0.118 2.805,-2.879 7.073,-1.784 0.701,0.178 1.124,0.895 0.943,1.596 -0.179,0.699 -0.895,1.123 -1.596,0.944 -2.802,-0.72 -4.5,1.032 -4.517,1.051 -0.268,0.283 -0.636,0.42 -0.996,0.406 z"
           fill="#f88968"
           id="path61" />
      </g>
    </g>
    <mask
       id="mask40_669_17586"
       maskUnits="userSpaceOnUse"
       x="-386"
       y="-364"
       width="5387"
       height="3592">
      <path
         d="M -385.445,-363.176 H 5000.54 V 3227.48 H -385.445 Z"
         fill="#ffffff"
         id="path62" />
    </mask>
    <g
       mask="url(#mask40_669_17586)"
       id="g65">
      <mask
         id="mask41_669_17586"
         maskUnits="userSpaceOnUse"
         x="-986"
         y="39"
         width="1426"
         height="951">
        <path
           d="M 439.477,39.0312 H -985.566 V 989.06 H 439.477 Z"
           fill="#ffffff"
           id="path63" />
      </mask>
      <g
         mask="url(#mask41_669_17586)"
         id="g64">
        <path
           d="m 204.828,151.924 c 0,0 7.923,-7.752 14.252,-2.692 7.477,5.976 -0.344,27.482 -13.604,25.206 z"
           fill="#ffa378"
           id="path64" />
      </g>
    </g>
    <mask
       id="mask42_669_17586"
       maskUnits="userSpaceOnUse"
       x="-386"
       y="-364"
       width="5387"
       height="3592">
      <path
         d="M -385.445,-363.176 H 5000.54 V 3227.48 H -385.445 Z"
         fill="#ffffff"
         id="path65" />
    </mask>
    <g
       mask="url(#mask42_669_17586)"
       id="g68">
      <mask
         id="mask43_669_17586"
         maskUnits="userSpaceOnUse"
         x="-986"
         y="39"
         width="1426"
         height="951">
        <path
           d="M 439.477,39.0312 H -985.566 V 989.06 H 439.477 Z"
           fill="#ffffff"
           id="path66" />
      </mask>
      <g
         mask="url(#mask43_669_17586)"
         id="g67">
        <path
           d="m 209.454,169.086 c 0.657,-0.022 1.208,-0.534 1.261,-1.204 0.851,-10.586 7.05,-12.421 7.313,-12.493 0.694,-0.194 1.108,-0.91 0.922,-1.606 -0.188,-0.695 -0.893,-1.113 -1.59,-0.931 -0.339,0.086 -8.251,2.278 -9.26,14.819 -0.058,0.722 0.482,1.355 1.203,1.412 0.05,0.003 0.101,0.005 0.151,0.003 z"
           fill="#f88968"
           id="path67" />
      </g>
    </g>
    <mask
       id="mask44_669_17586"
       maskUnits="userSpaceOnUse"
       x="-386"
       y="-364"
       width="5387"
       height="3592">
      <path
         d="M -385.445,-363.176 H 5000.54 V 3227.48 H -385.445 Z"
         fill="#ffffff"
         id="path68" />
    </mask>
    <g
       mask="url(#mask44_669_17586)"
       id="g71">
      <mask
         id="mask45_669_17586"
         maskUnits="userSpaceOnUse"
         x="-986"
         y="39"
         width="1426"
         height="951">
        <path
           d="M 439.477,39.0312 H -985.566 V 989.06 H 439.477 Z"
           fill="#ffffff"
           id="path69" />
      </mask>
      <g
         mask="url(#mask45_669_17586)"
         id="g70">
        <path
           d="m 216.862,163.69 c 0.311,-0.009 0.616,-0.129 0.858,-0.359 0.526,-0.5 0.547,-1.33 0.049,-1.854 -0.114,-0.118 -2.805,-2.879 -7.072,-1.784 -0.701,0.178 -1.125,0.895 -0.944,1.596 0.181,0.699 0.895,1.123 1.596,0.944 2.803,-0.72 4.501,1.032 4.518,1.051 0.268,0.283 0.635,0.42 0.995,0.406 z"
           fill="#f88968"
           id="path70" />
      </g>
    </g>
    <mask
       id="mask46_669_17586"
       maskUnits="userSpaceOnUse"
       x="-986"
       y="39"
       width="1426"
       height="951">
      <path
         d="M 439.475,39.0303 H -985.568 V 989.059 H 439.475 Z"
         fill="#ffffff"
         id="path71" />
    </mask>
    <g
       mask="url(#mask46_669_17586)"
       id="g72">
      <path
         d="m 173.391,104.975 c -22.072,0.253 -39.114,19.6 -36.79,41.549 2.52,23.806 10.971,56.323 38.347,56.323 27.365,0 35.232,-32.918 37.324,-57.037 1.884,-21.72 -15.097,-40.54 -36.898,-40.831 -0.361,-0.005 -0.729,-0.007 -1.096,-0.007 -0.299,0 -0.593,0.002 -0.887,0.003 z"
         fill="url(#paint0_linear_669_17586)"
         id="path72"
         style="fill:url(#paint0_linear_669_17586)" />
    </g>
    <mask
       id="mask47_669_17586"
       maskUnits="userSpaceOnUse"
       x="-386"
       y="-364"
       width="5387"
       height="3592">
      <path
         d="M -385.445,-363.176 H 5000.54 V 3227.48 H -385.445 Z"
         fill="#ffffff"
         id="path73" />
    </mask>
    <g
       mask="url(#mask47_669_17586)"
       id="g76">
      <mask
         id="mask48_669_17586"
         maskUnits="userSpaceOnUse"
         x="-986"
         y="39"
         width="1426"
         height="951">
        <path
           d="M 439.477,39.0312 H -985.566 V 989.06 H 439.477 Z"
           fill="#ffffff"
           id="path74" />
      </mask>
      <g
         mask="url(#mask48_669_17586)"
         id="g75">
        <path
           d="m 209.37,88.6073 c 13.891,9.5003 1.324,28.0257 1.324,28.0257 0,0 13.828,13.538 -0.407,45.406 l -2.535,-0.517 c 1.618,-10.205 0.647,-22.626 0,-24.583 -1.922,-5.826 -12.148,-8.93 -11.624,-15.227 0,0 -31.335,9.797 -48.297,0.175 0,0 -1.338,8.071 -5.985,13.163 -3.888,4.26 -1.675,19.096 -1.175,25.513 l -2.603,0.256 c -1.542,-6.538 -5.309,-18.311 -5.715,-21.78 -0.255,-2.185 -1.184,-10.857 -1.583,-17.059 -0.349,-5.432 0.621,-10.903 3.082,-15.759 1.36,-2.685 3.252,-5.383 5.856,-7.3211 9.105,-6.7793 57.064,-18.9074 69.662,-10.2926 z"
           fill="#32324c"
           id="path75" />
      </g>
    </g>
    <mask
       id="mask49_669_17586"
       maskUnits="userSpaceOnUse"
       x="-386"
       y="-364"
       width="5387"
       height="3592">
      <path
         d="M -385.445,-363.176 H 5000.54 V 3227.48 H -385.445 Z"
         fill="#ffffff"
         id="path76" />
    </mask>
    <g
       mask="url(#mask49_669_17586)"
       id="g79">
      <mask
         id="mask50_669_17586"
         maskUnits="userSpaceOnUse"
         x="-986"
         y="39"
         width="1426"
         height="951">
        <path
           d="M 439.477,39.0312 H -985.566 V 989.06 H 439.477 Z"
           fill="#ffffff"
           id="path77" />
      </mask>
      <g
         mask="url(#mask50_669_17586)"
         id="g78">
        <path
           d="m 162.145,151.881 c 0,2.736 -1.219,4.954 -2.722,4.954 -1.505,0.002 -2.722,-2.218 -2.722,-4.954 -0.003,-2.734 1.216,-4.953 2.719,-4.953 1.505,-0.002 2.725,2.217 2.725,4.953 z"
           fill="#32324c"
           id="path78" />
      </g>
    </g>
    <mask
       id="mask51_669_17586"
       maskUnits="userSpaceOnUse"
       x="-386"
       y="-364"
       width="5387"
       height="3592">
      <path
         d="M -385.445,-363.176 H 5000.54 V 3227.48 H -385.445 Z"
         fill="#ffffff"
         id="path79" />
    </mask>
    <g
       mask="url(#mask51_669_17586)"
       id="g82">
      <mask
         id="mask52_669_17586"
         maskUnits="userSpaceOnUse"
         x="-986"
         y="39"
         width="1426"
         height="951">
        <path
           d="M 439.477,39.0312 H -985.566 V 989.06 H 439.477 Z"
           fill="#ffffff"
           id="path80" />
      </mask>
      <g
         mask="url(#mask52_669_17586)"
         id="g81">
        <path
           d="m 152.207,139.204 c 0,0 4.961,-3.35 9.99,-1.999 4.655,1.248 6.935,3.954 7.923,5.577 0.43,0.706 0.262,1.624 -0.376,2.15 -0.756,0.626 -1.879,0.474 -2.442,-0.33 -1.784,-2.548 -6.31,-7.112 -15.095,-5.398 z"
           fill="#32324c"
           id="path81" />
      </g>
    </g>
    <mask
       id="mask53_669_17586"
       maskUnits="userSpaceOnUse"
       x="-386"
       y="-364"
       width="5387"
       height="3592">
      <path
         d="M -385.445,-363.176 H 5000.54 V 3227.48 H -385.445 Z"
         fill="#ffffff"
         id="path82" />
    </mask>
    <g
       mask="url(#mask53_669_17586)"
       id="g85">
      <mask
         id="mask54_669_17586"
         maskUnits="userSpaceOnUse"
         x="-986"
         y="39"
         width="1426"
         height="951">
        <path
           d="M 439.477,39.0312 H -985.566 V 989.06 H 439.477 Z"
           fill="#ffffff"
           id="path83" />
      </mask>
      <g
         mask="url(#mask54_669_17586)"
         id="g84">
        <path
           d="m 199.031,139.204 c 0,0 -4.961,-3.35 -9.991,-1.999 -4.657,1.248 -6.934,3.954 -7.923,5.577 -0.429,0.706 -0.262,1.624 0.376,2.15 0.757,0.626 1.88,0.474 2.442,-0.33 1.785,-2.548 6.31,-7.112 15.096,-5.398 z"
           fill="#32324c"
           id="path84" />
      </g>
    </g>
    <mask
       id="mask55_669_17586"
       maskUnits="userSpaceOnUse"
       x="-386"
       y="-364"
       width="5387"
       height="3592">
      <path
         d="M -385.445,-363.176 H 5000.54 V 3227.48 H -385.445 Z"
         fill="#ffffff"
         id="path85" />
    </mask>
    <g
       mask="url(#mask55_669_17586)"
       id="g88">
      <mask
         id="mask56_669_17586"
         maskUnits="userSpaceOnUse"
         x="-986"
         y="39"
         width="1426"
         height="951">
        <path
           d="M 439.477,39.0312 H -985.566 V 989.06 H 439.477 Z"
           fill="#ffffff"
           id="path86" />
      </mask>
      <g
         mask="url(#mask56_669_17586)"
         id="g87">
        <path
           d="m 188.834,151.881 c -0.001,2.736 1.218,4.954 2.72,4.954 1.504,0.002 2.722,-2.218 2.724,-4.954 0,-2.734 -1.216,-4.953 -2.721,-4.953 -1.503,-0.002 -2.723,2.217 -2.723,4.953 z"
           fill="#32324c"
           id="path87" />
      </g>
    </g>
    <mask
       id="mask57_669_17586"
       maskUnits="userSpaceOnUse"
       x="-386"
       y="-364"
       width="5387"
       height="3592">
      <path
         d="M -385.445,-363.176 H 5000.54 V 3227.48 H -385.445 Z"
         fill="#ffffff"
         id="path88" />
    </mask>
    <g
       mask="url(#mask57_669_17586)"
       id="g91">
      <mask
         id="mask58_669_17586"
         maskUnits="userSpaceOnUse"
         x="-986"
         y="39"
         width="1426"
         height="951">
        <path
           d="M 439.477,39.0312 H -985.566 V 989.06 H 439.477 Z"
           fill="#ffffff"
           id="path89" />
      </mask>
      <g
         mask="url(#mask58_669_17586)"
         id="g90">
        <path
           d="m 175.014,168.674 c -0.433,-0.042 -0.842,-0.28 -1.087,-0.679 -0.419,-0.678 -0.211,-1.567 0.47,-1.985 l 4.119,-2.544 -3.234,-1.19 c -0.54,-0.197 -0.908,-0.695 -0.942,-1.267 l -0.557,-9.288 c -0.05,-0.796 0.559,-1.48 1.352,-1.527 0.796,-0.054 1.482,0.558 1.528,1.354 l 0.502,8.345 5.133,1.889 c 0.516,0.19 0.88,0.659 0.936,1.211 0.055,0.549 -0.207,1.081 -0.677,1.371 l -6.643,4.103 c -0.28,0.171 -0.598,0.237 -0.9,0.207 z"
           fill="#f88968"
           id="path90" />
      </g>
    </g>
    <mask
       id="mask59_669_17586"
       maskUnits="userSpaceOnUse"
       x="-386"
       y="-364"
       width="5387"
       height="3592">
      <path
         d="M -385.445,-363.176 H 5000.54 V 3227.48 H -385.445 Z"
         fill="#ffffff"
         id="path91" />
    </mask>
    <g
       mask="url(#mask59_669_17586)"
       id="g94">
      <mask
         id="mask60_669_17586"
         maskUnits="userSpaceOnUse"
         x="-986"
         y="39"
         width="1426"
         height="951">
        <path
           d="M 439.477,39.0312 H -985.566 V 989.06 H 439.477 Z"
           fill="#ffffff"
           id="path92" />
      </mask>
      <g
         mask="url(#mask60_669_17586)"
         id="g93">
        <path
           d="m 175.943,187.248 c 2.404,-0.057 5.159,0.438 7.952,2.1 0.478,0.285 0.634,0.903 0.349,1.382 -0.282,0.476 -0.902,0.634 -1.38,0.349 -6.714,-3.997 -13.241,-0.19 -13.516,-0.027 -0.475,0.285 -1.095,0.131 -1.38,-0.345 -0.286,-0.477 -0.132,-1.093 0.342,-1.379 0.204,-0.123 3.353,-1.978 7.633,-2.08 z"
           fill="#f88968"
           id="path93" />
      </g>
    </g>
    <mask
       id="mask61_669_17586"
       maskUnits="userSpaceOnUse"
       x="-386"
       y="-364"
       width="5387"
       height="3592">
      <path
         d="M -385.445,-363.176 H 5000.54 V 3227.48 H -385.445 Z"
         fill="#ffffff"
         id="path94" />
    </mask>
    <g
       mask="url(#mask61_669_17586)"
       id="g97">
      <mask
         id="mask62_669_17586"
         maskUnits="userSpaceOnUse"
         x="-986"
         y="39"
         width="1426"
         height="951">
        <path
           d="M 439.477,39.0312 H -985.566 V 989.06 H 439.477 Z"
           fill="#ffffff"
           id="path95" />
      </mask>
      <g
         mask="url(#mask62_669_17586)"
         id="g96">
        <path
           d="m 188.485,185.254 c -0.353,0.25 -0.7,0.446 -1.042,0.593 -3.746,1.625 -6.828,-2.559 -11.515,-2.559 -4.11,0 -9.096,4.109 -12.032,2.598 -0.296,-0.153 -0.566,-0.36 -0.817,-0.632 -2.204,-2.407 -0.218,-5.485 2.333,-7.514 0.666,-0.529 1.371,-0.987 2.051,-1.342 0.816,-0.429 1.757,-0.768 2.709,-1.032 4.03,-1.132 8.331,-0.997 12.288,0.373 1.609,0.556 2.977,1.244 4.087,2.001 3.635,2.477 4.496,5.697 1.938,7.514 z"
           fill="#920e08"
           id="path96" />
      </g>
    </g>
    <mask
       id="mask63_669_17586"
       maskUnits="userSpaceOnUse"
       x="-386"
       y="-364"
       width="5387"
       height="3592">
      <path
         d="M -385.445,-363.176 H 5000.54 V 3227.48 H -385.445 Z"
         fill="#ffffff"
         id="path97" />
    </mask>
    <g
       mask="url(#mask63_669_17586)"
       id="g100">
      <mask
         id="mask64_669_17586"
         maskUnits="userSpaceOnUse"
         x="-986"
         y="39"
         width="1426"
         height="951">
        <path
           d="M 439.477,39.0312 H -985.566 V 989.06 H 439.477 Z"
           fill="#ffffff"
           id="path98" />
      </mask>
      <g
         mask="url(#mask64_669_17586)"
         id="g99">
        <path
           d="m 186.549,177.741 h -21.135 c 0.666,-0.53 1.369,-0.988 2.048,-1.344 0.819,-0.429 1.76,-0.767 2.712,-1.031 4.03,-1.131 8.329,-0.998 12.288,0.372 1.607,0.559 2.977,1.246 4.087,2.003 z"
           fill="#ffffff"
           id="path99" />
      </g>
    </g>
    <mask
       id="mask65_669_17586"
       maskUnits="userSpaceOnUse"
       x="-386"
       y="-364"
       width="5387"
       height="3592">
      <path
         d="M -385.445,-363.176 H 5000.54 V 3227.48 H -385.445 Z"
         fill="#ffffff"
         id="path100" />
    </mask>
    <g
       mask="url(#mask65_669_17586)"
       id="g103">
      <mask
         id="mask66_669_17586"
         maskUnits="userSpaceOnUse"
         x="-986"
         y="39"
         width="1426"
         height="951">
        <path
           d="M 439.477,39.0312 H -985.566 V 989.06 H 439.477 Z"
           fill="#ffffff"
           id="path101" />
      </mask>
      <g
         mask="url(#mask66_669_17586)"
         id="g102">
        <path
           d="m 187.445,185.849 c -3.748,1.621 -6.829,-2.56 -11.519,-2.56 -4.11,0 -9.093,4.11 -12.031,2.595 0.937,-1.187 4.554,-5.086 11.79,-5.086 7.163,0 10.782,3.822 11.76,5.051 z"
           fill="#f85c66"
           id="path102" />
      </g>
    </g>
  </g>
  <path
     d="m 236.03762,96.184013 c 3.50123,5.259937 6.52032,9.402877 6.74389,9.254397 0.22358,-0.14848 -2.4337,-4.53291 -5.93408,-9.792857 -3.50122,-5.25994 -6.52032,-9.40288 -6.74389,-9.2544 -0.22357,0.14848 2.43371,4.53291 5.93408,9.79286"
     style="fill:#1c1a18;fill-opacity:1;fill-rule:nonzero;stroke:none;stroke-width:0.0853328"
     id="path266" />
  <defs
     id="defs107">
    <linearGradient
       id="paint0_linear_669_17586"
       x1="174.402"
       y1="119.466"
       x2="174.402"
       y2="150.507"
       gradientUnits="userSpaceOnUse">
      <stop
         stop-color="#F85C66"
         id="stop105" />
      <stop
         offset="1"
         stop-color="#FFAF82"
         id="stop106" />
    </linearGradient>
    <clipPath
       id="clip1_669_17586">
      <rect
         width="217.04"
         height="700.453"
         fill="white"
         transform="translate(70.9941 85.625)"
         id="rect107" />
    </clipPath>
    <clipPath
       clipPathUnits="userSpaceOnUse"
       id="clipPath2">
      <g
         id="g3">
        <rect
           y="0.43164101"
           width="357"
           height="405.68201"
           fill="#ffffff"
           id="rect3"
           x="0" />
      </g>
    </clipPath>
    <clipPath
       clipPathUnits="userSpaceOnUse"
       id="clipPath3">
      <g
         id="g6">
        <rect
           y="0.43164101"
           width="357"
           height="405.68201"
           fill="#ffffff"
           id="rect4"
           x="0" />
      </g>
    </clipPath>
    <clipPath
       clipPathUnits="userSpaceOnUse"
       id="clipPath6">
      <g
         id="g9">
        <rect
           y="0.43164101"
           width="357"
           height="405.68201"
           fill="#ffffff"
           id="rect6"
           x="0" />
      </g>
    </clipPath>
    <clipPath
       clipPathUnits="userSpaceOnUse"
       id="clipPath9">
      <rect
         style="fill:none;stroke:#ff0000;stroke-width:1;stroke-linejoin:bevel;stroke-dasharray:none;stroke-opacity:1"
         id="rect9"
         width="231.84351"
         height="228.34038"
         x="64.330208"
         y="72.928795" />
    </clipPath>
  </defs>
  <path
     d="m 250.51002,110.56987 c 0,2.01814 -1.63584,3.65483 -3.65483,3.65483 -2.01813,0 -3.65482,-1.63669 -3.65482,-3.65483 0,-2.01898 1.63669,-3.65568 3.65482,-3.65568 2.01899,0 3.65483,1.6367 3.65483,3.65568"
     style="fill:#1c1a18;fill-opacity:1;fill-rule:nonzero;stroke:none;stroke-width:0.0853328"
     id="path268" />
</svg>
