<?xml version="1.0" encoding="UTF-8" standalone="no"?>
<svg
   width="357"
   height="406"
   viewBox="0 0 357 406"
   fill="none"
   version="1.1"
   id="svg62"
   sodipodi:docname="video conference - parent unhappy v2.svg"
   inkscape:version="1.3.1 (91b66b0783, 2023-11-16)"
   inkscape:export-filename="video conference - parent unhappy v2.png"
   inkscape:export-xdpi="96"
   inkscape:export-ydpi="96"
   xmlns:inkscape="http://www.inkscape.org/namespaces/inkscape"
   xmlns:sodipodi="http://sodipodi.sourceforge.net/DTD/sodipodi-0.dtd"
   xmlns="http://www.w3.org/2000/svg"
   xmlns:svg="http://www.w3.org/2000/svg">
  <sodipodi:namedview
     id="namedview62"
     pagecolor="#ffffff"
     bordercolor="#000000"
     borderopacity="0.25"
     inkscape:showpageshadow="2"
     inkscape:pageopacity="0.0"
     inkscape:pagecheckerboard="0"
     inkscape:deskcolor="#d1d1d1"
     showgrid="false"
     inkscape:zoom="3.1477833"
     inkscape:cx="178.53834"
     inkscape:cy="203.15884"
     inkscape:window-width="2880"
     inkscape:window-height="1514"
     inkscape:window-x="2869"
     inkscape:window-y="-11"
     inkscape:window-maximized="1"
     inkscape:current-layer="svg62" />
  <rect
     width="357"
     height="405.68201"
     fill="white"
     id="rect1"
     style="fill:#c6d7dd;fill-opacity:1"
     x="0"
     y="0"
     clip-path="url(#clipPath4)" />
  <path
     d="m 22.5065,31.4155 v 8.6978 H 19.3747 V 16.8596 h 6.8641 c 1.4713,0 2.7478,0.1731 3.8296,0.5193 1.0927,0.3353 1.996,0.8167 2.71,1.4442 0.714,0.6275 1.2441,1.3847 1.5903,2.2718 0.357,0.8871 0.5355,1.877 0.5355,2.9696 0,1.0818 -0.1894,2.0717 -0.568,2.9696 -0.3786,0.8979 -0.9358,1.6714 -1.6714,2.3205 -0.7248,0.6491 -1.6281,1.1575 -2.71,1.5254 -1.0818,0.357 -2.3205,0.5355 -3.716,0.5355 z m 0,-2.499 h 3.7323 c 0.8979,0 1.6876,-0.119 2.3692,-0.357 0.6923,-0.238 1.2711,-0.568 1.7363,-0.9899 0.4652,-0.4327 0.8168,-0.9466 1.0548,-1.5416 0.238,-0.595 0.357,-1.2495 0.357,-1.9635 0,-1.4821 -0.4598,-2.6396 -1.3794,-3.4726 -0.9087,-0.833 -2.288,-1.2495 -4.1379,-1.2495 h -3.7323 z m 27.1787,11.1968 h -1.282 c -0.2813,0 -0.5084,-0.0433 -0.6815,-0.1298 -0.1731,-0.0866 -0.2867,-0.2705 -0.3408,-0.5518 l -0.3246,-1.5253 c -0.4327,0.3894 -0.8546,0.741 -1.2657,1.0547 -0.4111,0.303 -0.8438,0.5626 -1.2982,0.779 -0.4543,0.2055 -0.9411,0.3624 -1.4604,0.4705 -0.5085,0.1082 -1.0764,0.1623 -1.7039,0.1623 -0.6383,0 -1.2387,-0.0865 -1.8012,-0.2596 -0.5517,-0.1839 -1.0331,-0.4544 -1.4442,-0.8114 -0.4111,-0.357 -0.7411,-0.8059 -0.9899,-1.3468 -0.238,-0.5518 -0.357,-1.2009 -0.357,-1.9473 0,-0.6491 0.1785,-1.2712 0.5355,-1.8662 0.357,-0.6058 0.9304,-1.1413 1.7201,-1.6065 0.8005,-0.4651 1.8445,-0.8438 3.1319,-1.1359 1.2873,-0.3029 2.8614,-0.476 4.7221,-0.5192 v -1.282 c 0,-1.2765 -0.2759,-2.2394 -0.8276,-2.8884 -0.5409,-0.66 -1.3469,-0.9899 -2.4179,-0.9899 -0.7031,0 -1.2981,0.0919 -1.785,0.2759 -0.476,0.173 -0.8925,0.3732 -1.2495,0.6004 -0.3461,0.2163 -0.6491,0.4165 -0.9087,0.6004 -0.2488,0.1731 -0.4976,0.2596 -0.7464,0.2596 -0.1948,0 -0.3679,-0.0487 -0.5193,-0.146 -0.1407,-0.1082 -0.2542,-0.238 -0.3408,-0.3895 l -0.5193,-0.9249 c 0.9088,-0.8763 1.8878,-1.5308 2.9372,-1.9635 1.0493,-0.4328 2.2123,-0.6491 3.4888,-0.6491 0.9196,0 1.7364,0.1514 2.4504,0.4543 0.714,0.3029 1.3144,0.7248 1.8012,1.2658 0.4868,0.5409 0.8546,1.1954 1.1034,1.9635 0.2489,0.768 0.3733,1.6119 0.3733,2.5314 z m -7.497,-1.7688 c 0.5084,0 0.9736,-0.0487 1.3955,-0.146 0.4219,-0.1082 0.8168,-0.2543 1.1846,-0.4382 0.3786,-0.1947 0.7356,-0.4273 1.071,-0.6977 0.3462,-0.2705 0.6815,-0.5788 1.0061,-0.925 v -3.424 c -1.3306,0.0433 -2.4611,0.1515 -3.3915,0.3246 -0.9304,0.1623 -1.6876,0.3786 -2.2718,0.6491 -0.5842,0.2704 -1.0115,0.5896 -1.282,0.9574 -0.2596,0.3678 -0.3894,0.7789 -0.3894,1.2333 0,0.4327 0.0703,0.8059 0.2109,1.1196 0.1407,0.3138 0.33,0.5734 0.568,0.779 0.238,0.1947 0.5192,0.3407 0.8438,0.4381 0.3245,0.0865 0.6761,0.1298 1.0548,0.1298 z m 11.873,1.7688 V 23.6751 h 1.6552 c 0.3137,0 0.5301,0.0595 0.6491,0.1785 0.119,0.119 0.2001,0.3245 0.2434,0.6166 l 0.1947,2.5639 c 0.5626,-1.1467 1.2549,-2.0392 2.0771,-2.6775 0.833,-0.6491 1.8066,-0.9736 2.9209,-0.9736 0.4544,0 0.8655,0.0541 1.2333,0.1622 0.3678,0.0974 0.7086,0.238 1.0223,0.4219 l -0.3732,2.1583 c -0.0757,0.2704 -0.2434,0.4057 -0.5031,0.4057 -0.1514,0 -0.384,-0.0487 -0.6977,-0.1461 -0.3138,-0.1082 -0.7519,-0.1623 -1.3144,-0.1623 -1.0061,0 -1.85,0.2921 -2.5315,0.8763 -0.6707,0.5842 -1.2333,1.4334 -1.6876,2.5477 V 40.1133 Z M 73.6579,23.4154 c 0.9845,0 1.8932,0.1677 2.7262,0.5031 0.833,0.3245 1.5524,0.8005 2.1582,1.428 0.6058,0.6166 1.0764,1.3847 1.4118,2.3042 0.3462,0.9088 0.5193,1.9473 0.5193,3.1157 0,0.4543 -0.0487,0.7572 -0.1461,0.9087 -0.0973,0.1515 -0.2812,0.2272 -0.5517,0.2272 H 68.8384 c 0.0217,1.0385 0.1623,1.9418 0.4219,2.7099 0.2597,0.7681 0.6167,1.4118 1.071,1.9311 0.4544,0.5084 0.9953,0.8925 1.6228,1.1521 0.6274,0.2488 1.3306,0.3732 2.1095,0.3732 0.7248,0 1.3469,-0.0811 1.8661,-0.2434 0.5301,-0.1731 0.9845,-0.357 1.3631,-0.5517 0.3787,-0.1947 0.6924,-0.3732 0.9412,-0.5355 0.2596,-0.1731 0.4814,-0.2596 0.6653,-0.2596 0.238,0 0.4219,0.0919 0.5518,0.2758 l 0.8113,1.0548 c -0.357,0.4327 -0.7843,0.8114 -1.2819,1.1359 -0.4977,0.3137 -1.0332,0.5734 -1.6065,0.7789 -0.5626,0.2056 -1.1468,0.357 -1.7526,0.4544 -0.6058,0.1082 -1.2062,0.1623 -1.8012,0.1623 -1.1359,0 -2.1853,-0.1894 -3.1481,-0.568 -0.952,-0.3894 -1.7796,-0.952 -2.4828,-1.6876 -0.6923,-0.7465 -1.2332,-1.666 -1.6227,-2.7587 -0.3895,-1.0926 -0.5842,-2.3475 -0.5842,-3.7647 0,-1.1467 0.1731,-2.2177 0.5193,-3.213 0.357,-0.9953 0.8654,-1.8553 1.5254,-2.5801 0.6599,-0.7357 1.4658,-1.309 2.4178,-1.7201 0.952,-0.4219 2.023,-0.6329 3.213,-0.6329 z m 0.0649,2.1258 c -1.3955,0 -2.4936,0.4057 -3.2941,1.217 -0.8006,0.8006 -1.2982,1.9149 -1.4929,3.3429 h 8.9412 c 0,-0.6708 -0.0919,-1.282 -0.2759,-1.8337 -0.1839,-0.5626 -0.4543,-1.044 -0.8113,-1.4443 -0.357,-0.411 -0.7952,-0.7248 -1.3144,-0.9411 -0.5085,-0.2272 -1.0927,-0.3408 -1.7526,-0.3408 z M 84.1704,40.1133 V 23.6751 h 1.7201 c 0.4111,0 0.6707,0.2001 0.7789,0.6004 l 0.2272,1.785 c 0.714,-0.7898 1.5091,-1.428 2.3854,-1.9149 0.8871,-0.4868 1.9094,-0.7302 3.0669,-0.7302 0.898,0 1.6877,0.1515 2.3692,0.4544 0.6924,0.2921 1.2658,0.714 1.7201,1.2657 0.4652,0.5409 0.8168,1.1954 1.0548,1.9635 0.238,0.7681 0.357,1.6173 0.357,2.5477 V 40.1133 H 94.9615 V 29.6467 c 0,-1.2441 -0.2866,-2.2069 -0.86,-2.8885 -0.5626,-0.6923 -1.428,-1.0385 -2.5964,-1.0385 -0.8546,0 -1.6552,0.2055 -2.4016,0.6166 -0.7356,0.4111 -1.4172,0.9683 -2.0446,1.6714 v 12.1056 z m 23.0156,0.2596 c -1.298,0 -2.299,-0.3624 -3.002,-1.0872 -0.692,-0.7248 -1.039,-1.7688 -1.039,-3.1319 V 26.0929 h -1.979 c -0.173,0 -0.319,-0.0487 -0.438,-0.146 -0.119,-0.1082 -0.179,-0.2705 -0.179,-0.4868 v -1.1522 l 2.694,-0.3408 0.665,-5.0791 c 0.022,-0.1623 0.092,-0.2921 0.211,-0.3894 0.119,-0.1082 0.27,-0.1623 0.454,-0.1623 h 1.461 v 5.6633 h 4.706 v 2.0933 h -4.706 v 9.8662 c 0,0.6924 0.168,1.2062 0.503,1.5416 0.335,0.3354 0.768,0.503 1.298,0.503 0.303,0 0.563,-0.0378 0.779,-0.1136 0.227,-0.0865 0.422,-0.1785 0.584,-0.2758 0.162,-0.0974 0.298,-0.1839 0.406,-0.2597 0.119,-0.0865 0.222,-0.1298 0.308,-0.1298 0.152,0 0.287,0.092 0.406,0.2759 l 0.844,1.3793 c -0.498,0.4652 -1.098,0.833 -1.802,1.1035 -0.703,0.2596 -1.428,0.3894 -2.174,0.3894 z"
     fill="#000000"
     id="path1"
     clip-path="url(#clipPath2)" />
  <path
     d="M 148.07647,195.28379 H 346.21113 V 65.844199 H 148.07647 Z"
     style="fill:#f6ec91;fill-opacity:1;fill-rule:nonzero;stroke:none;stroke-width:0.133333"
     id="path270" />
  <path
     d="M 354.71247,204.11713 H 144.6338 v -4 H 350.71247 V 63.115799 h 4 V 204.11713"
     style="fill:#4f7c8d;fill-opacity:1;fill-rule:nonzero;stroke:none;stroke-width:0.133333"
     id="path272" />
  <path
     d="m 154.6218,190.78379 h -4 V 68.449129 h 190.10267 v 4 H 154.6218 V 190.78379"
     style="fill:#7d7d5b;fill-opacity:1;fill-rule:nonzero;stroke:none;stroke-width:0.133333"
     id="path274" />
  <path
     d="M 340.72447,190.78379 H 150.6218 V 68.449129 H 340.72447 V 190.78379 M 140.6338,59.115799 V 200.11713 H 350.71247 V 59.115799 H 140.6338"
     style="fill:#d6a34d;fill-opacity:1;fill-rule:nonzero;stroke:none;stroke-width:0.133333"
     id="path276" />
  <path
     d="m 227.9018,140.02113 -33.13333,-4.724 4.72267,-33.13334 33.13333,4.72267 -4.72267,33.13467"
     style="fill:#7d7d5b;fill-opacity:1;fill-rule:nonzero;stroke:none;stroke-width:0.133333"
     id="path278" />
  <path
     d="m 223.9018,136.02113 -33.13333,-4.724 4.72267,-33.133331 33.13333,4.722661 -4.72267,33.13467"
     style="fill:#fabddb;fill-opacity:1;fill-rule:nonzero;stroke:none;stroke-width:0.133333"
     id="path280" />
  <path
     d="m 267.56713,179.08646 -31.84933,-10.28667 10.288,-31.84933 31.848,10.288 -10.28667,31.848"
     style="fill:#7d7d5b;fill-opacity:1;fill-rule:nonzero;stroke:none;stroke-width:0.133333"
     id="path282" />
  <path
     d="m 263.5658,175.08779 -31.848,-10.288 10.288,-31.84933 31.848,10.288 -10.288,31.84933"
     style="fill:#d1edba;fill-opacity:1;fill-rule:nonzero;stroke:none;stroke-width:0.133333"
     id="path284" />
  <path
     d="m 286.94047,131.49713 -11.91334,-31.27734 31.27467,-11.913331 11.91467,31.276001 -31.276,11.91467"
     style="fill:#7d7d5b;fill-opacity:1;fill-rule:nonzero;stroke:none;stroke-width:0.133333"
     id="path286" />
  <path
     d="m 314.21647,115.58246 -31.276,11.91467 -11.91334,-31.277331 31.27467,-11.91334 11.91467,31.276001"
     style="fill:#d5eefb;fill-opacity:1;fill-rule:nonzero;stroke:none;stroke-width:0.133333"
     id="path288" />
  <g
     clip-path="url(#clipPath7)"
     id="g60"
     transform="matrix(1.4,0,0,1.4,-71.805463,-14.717067)">
    <mask
       id="mask0_669_17327"
       maskUnits="userSpaceOnUse"
       x="28"
       y="73"
       width="1154"
       height="721">
      <path
         d="M 1181.89,73.0225 H 28.5742 V 793.553 H 1181.89 Z"
         fill="#ffffff"
         id="path2" />
    </mask>
    <g
       mask="url(#mask0_669_17327)"
       id="g3">
      <path
         d="m 241.923,395.788 c -4.067,-19.676 -24.765,-60.107 -24.765,-60.107 h -72.249 c 0,0 -20.697,40.431 -24.766,60.107 -4.068,19.677 2.685,37.02 12.383,43.052 9.699,6.033 48.507,6.787 48.507,6.787 0,0 38.809,-0.754 48.508,-6.787 9.698,-6.032 16.451,-23.375 12.382,-43.052 z"
         fill="#202b41"
         id="path3" />
    </g>
    <mask
       id="mask1_669_17327"
       maskUnits="userSpaceOnUse"
       x="28"
       y="73"
       width="1154"
       height="721">
      <path
         d="M 1181.89,73.0225 H 28.5742 V 793.553 H 1181.89 Z"
         fill="#ffffff"
         id="path4" />
    </mask>
    <g
       mask="url(#mask1_669_17327)"
       id="g5">
      <path
         d="m 149.328,571.704 c 12.031,0 25.851,-9.298 25.851,-19.915 l 4.481,-112.091 c 0,-10.616 -18.993,-41.032 -18.993,-41.032 -12.147,0 -41.671,-0.476 -41.671,10.141 l 8.247,143.592 c 0,10.617 13.403,19.305 22.085,19.305 z"
         fill="#202b41"
         id="path5" />
    </g>
    <mask
       id="mask2_669_17327"
       maskUnits="userSpaceOnUse"
       x="28"
       y="73"
       width="1154"
       height="721">
      <path
         d="M 1181.89,73.0225 H 28.5742 V 793.553 H 1181.89 Z"
         fill="#ffffff"
         id="path6" />
    </mask>
    <g
       mask="url(#mask2_669_17327)"
       id="g7">
      <path
         d="m 212.498,570.782 c -12.031,0 -25.85,-9.298 -25.85,-19.915 l -4.482,-112.092 c 0,-10.616 18.994,-41.032 18.994,-41.032 12.147,0 41.671,-0.476 41.671,10.141 l -8.248,143.593 c 0,10.617 -13.402,19.305 -22.085,19.305 z"
         fill="#202b41"
         id="path7" />
    </g>
    <mask
       id="mask3_669_17327"
       maskUnits="userSpaceOnUse"
       x="28"
       y="73"
       width="1154"
       height="721">
      <path
         d="M 1181.89,73.0225 H 28.5742 V 793.553 H 1181.89 Z"
         fill="#ffffff"
         id="path8" />
    </mask>
    <g
       mask="url(#mask3_669_17327)"
       id="g9">
      <path
         d="m 181.211,403.188 c 0.022,4.291 0.045,8.582 0.066,12.872 0.011,2.111 0.022,4.222 0.033,6.334 0.009,1.9 -0.213,4.018 0.39,5.851 0.577,1.75 2.155,3.17 4.082,2.849 0.783,-0.13 0.45,-1.322 -0.328,-1.192 -1.61,0.268 -2.546,-1.53 -2.77,-2.835 -0.148,-0.864 -0.123,-1.756 -0.128,-2.631 -0.004,-0.953 -0.009,-1.907 -0.015,-2.859 -0.02,-3.917 -0.04,-7.833 -0.06,-11.748 -0.012,-2.214 -0.022,-4.427 -0.034,-6.641 -0.004,-0.794 -1.24,-0.796 -1.236,0 z"
         fill="#455069"
         id="path9" />
    </g>
    <mask
       id="mask4_669_17327"
       maskUnits="userSpaceOnUse"
       x="28"
       y="73"
       width="1154"
       height="721">
      <path
         d="M 1181.89,73.0225 H 28.5742 V 793.553 H 1181.89 Z"
         fill="#ffffff"
         id="path10" />
    </mask>
    <g
       mask="url(#mask4_669_17327)"
       id="g11">
      <path
         d="m 185.715,406.385 c 0,4.89 0,9.78 0,14.671 0,0.795 1.236,0.796 1.236,0 0,-4.891 0,-9.781 0,-14.671 0,-0.796 -1.236,-0.798 -1.236,0 z"
         fill="#455069"
         id="path11" />
    </g>
    <mask
       id="mask5_669_17327"
       maskUnits="userSpaceOnUse"
       x="28"
       y="73"
       width="1154"
       height="721">
      <path
         d="M 1181.89,73.0225 H 28.5742 V 793.553 H 1181.89 Z"
         fill="#ffffff"
         id="path12" />
    </mask>
    <g
       mask="url(#mask5_669_17327)"
       id="g13">
      <path
         d="m 243.081,386.888 c -4.765,-24.397 5.415,-167.961 3.567,-170.078 -3.915,-4.483 -36.851,-15.585 -43.871,-15.585 h -44.495 c -7.02,0 -39.957,11.102 -43.871,15.585 -1.848,2.117 8.337,145.587 3.594,169.931 -2.93,15.04 128.002,15.14 125.076,0.147 z"
         fill="#f3a91b"
         id="path13" />
    </g>
    <mask
       id="mask6_669_17327"
       maskUnits="userSpaceOnUse"
       x="28"
       y="73"
       width="1154"
       height="721">
      <path
         d="M 1181.89,73.0225 H 28.5742 V 793.553 H 1181.89 Z"
         fill="#ffffff"
         id="path14" />
    </mask>
    <g
       mask="url(#mask6_669_17327)"
       id="g15">
      <path
         d="m 107.957,218.05 c 7.594,-4.704 35.768,-5.319 20.667,43.068 -12.53,40.143 -12.944,65.643 -18.51,78.036 -5.719,12.731 -35.319,20.673 -38.7997,2.666 -3.4809,-18.008 22.2589,-114.858 36.6427,-123.77 z"
         fill="#f3a91b"
         id="path15" />
    </g>
    <mask
       id="mask7_669_17327"
       maskUnits="userSpaceOnUse"
       x="28"
       y="73"
       width="1154"
       height="721">
      <path
         d="M 1181.89,73.0225 H 28.5742 V 793.553 H 1181.89 Z"
         fill="#ffffff"
         id="path16" />
    </mask>
    <g
       mask="url(#mask7_669_17327)"
       id="g17">
      <path
         d="m 168.878,221.663 c -10.776,-13.669 -15.907,-18.647 -15.907,-18.647 0,0 12.828,-3.027 26.689,-3.027 13.862,0 26.689,3.027 26.689,3.027 0,0 -5.131,4.978 -15.907,18.647 -4.321,5.484 -17.242,5.484 -21.564,0 z"
         fill="#f46c67"
         id="path17" />
    </g>
    <mask
       id="mask8_669_17327"
       maskUnits="userSpaceOnUse"
       x="28"
       y="73"
       width="1154"
       height="721">
      <path
         d="M 1181.89,73.0225 H 28.5742 V 793.553 H 1181.89 Z"
         fill="#ffffff"
         id="path18" />
    </mask>
    <g
       mask="url(#mask8_669_17327)"
       id="g19">
      <path
         d="m 198.028,203.322 -4.774,-39.43 h -27.186 l -4.773,39.43 c -0.475,3.925 2.588,7.382 6.542,7.382 h 23.647 c 3.954,0 7.019,-3.457 6.544,-7.382 z"
         fill="#f46c67"
         id="path19" />
    </g>
    <mask
       id="mask9_669_17327"
       maskUnits="userSpaceOnUse"
       x="28"
       y="73"
       width="1154"
       height="721">
      <path
         d="M 1181.89,73.0225 H 28.5742 V 793.553 H 1181.89 Z"
         fill="#ffffff"
         id="path20" />
    </mask>
    <g
       mask="url(#mask9_669_17327)"
       id="g21">
      <path
         d="m 166.068,163.892 -3.64,30.065 c 11.382,5.595 23.974,2.072 33.651,-6.727 l -2.825,-23.338 z"
         fill="#1b1918"
         id="path21" />
    </g>
    <mask
       id="mask10_669_17327"
       maskUnits="userSpaceOnUse"
       x="28"
       y="73"
       width="1154"
       height="721">
      <path
         d="M 1181.89,73.0225 H 28.5742 V 793.553 H 1181.89 Z"
         fill="#ffffff"
         id="path22" />
    </mask>
    <g
       mask="url(#mask10_669_17327)"
       id="g23">
      <path
         d="M 219.442,112.596 C 219.171,94.8444 194.468,81.2245 180.467,81.208 l -5.087,0.0783 c -13.995,0.4449 -38.269,14.8146 -37.997,32.5707 0,0 4.655,36.258 7.121,50.479 2.468,14.221 27.006,30.153 35.154,30.153 8.147,0 32.183,-16.924 34.212,-31.216 2.031,-14.291 5.572,-50.677 5.572,-50.677 z"
         fill="#f46c67"
         id="path23" />
    </g>
    <mask
       id="mask11_669_17327"
       maskUnits="userSpaceOnUse"
       x="28"
       y="73"
       width="1154"
       height="721">
      <path
         d="M 1181.89,73.0225 H 28.5742 V 793.553 H 1181.89 Z"
         fill="#ffffff"
         id="path24" />
    </mask>
    <g
       mask="url(#mask11_669_17327)"
       id="g25">
      <path
         d="m 144.63,163.409 c -3.157,-1.944 -6.338,-3.91 -8.999,-6.32 -2.661,-2.418 -4.798,-5.347 -5.416,-8.511 -0.619,-3.168 -0.739,-7.082 3.348,-8.507 3.43,-1.191 10.625,6.295 10.625,6.295 z"
         fill="#f46c67"
         id="path25" />
    </g>
    <mask
       id="mask12_669_17327"
       maskUnits="userSpaceOnUse"
       x="28"
       y="73"
       width="1154"
       height="721">
      <path
         d="M 1181.89,73.0225 H 28.5742 V 793.553 H 1181.89 Z"
         fill="#ffffff"
         id="path26" />
    </mask>
    <g
       mask="url(#mask12_669_17327)"
       id="g27">
      <path
         d="m 211.938,162.38 c 3.095,-2.044 6.214,-4.104 8.799,-6.596 2.586,-2.497 4.634,-5.488 5.155,-8.672 0.521,-3.185 0.521,-7.103 -3.608,-8.4 -3.464,-1.088 -10.427,6.62 -10.427,6.62 z"
         fill="#f46c67"
         id="path27" />
    </g>
    <mask
       id="mask13_669_17327"
       maskUnits="userSpaceOnUse"
       x="28"
       y="73"
       width="1154"
       height="721">
      <path
         d="M 1181.89,73.0225 H 28.5742 V 793.553 H 1181.89 Z"
         fill="#ffffff"
         id="path28" />
    </mask>
    <g
       mask="url(#mask13_669_17327)"
       id="g29">
      <path
         d="m 179.82,159.302 c 0.237,-0.103 0.813,-0.379 0.865,-0.705 0.05,-0.325 -1.255,-0.395 -1.898,-0.564 -0.644,-0.169 -1.299,-0.56 -1.388,-1.24 -0.109,-0.849 0.696,-1.648 0.82,-2.521 0.009,-0.058 0.013,-0.116 0.015,-0.178 -0.364,-0.72 -1.142,-0.502 -1.582,-0.032 -0.292,0.309 -0.459,0.708 -0.592,1.108 -0.292,0.865 -0.451,1.784 -0.282,2.628 0.167,0.849 0.701,1.607 1.499,1.866 0.799,0.264 1.691,0.005 2.543,-0.362 z"
         fill="#af4028"
         id="path29" />
    </g>
    <mask
       id="mask14_669_17327"
       maskUnits="userSpaceOnUse"
       x="28"
       y="73"
       width="1154"
       height="721">
      <path
         d="M 1181.89,73.0225 H 28.5742 V 793.553 H 1181.89 Z"
         fill="#ffffff"
         id="path30" />
    </mask>
    <g
       mask="url(#mask14_669_17327)"
       id="g31">
      <path
         d="m 225.444,118.389 c 1.817,-0.181 3.417,-1.952 3.138,-3.831 -0.347,-2.348 -1.321,-4.524 -2.79,-6.295 0.984,-0.305 1.855,-1.03 2.26,-1.953 0.802,-1.829 -0.118,-3.736 -1.8,-4.614 -1.859,-0.972 -3.771,-1.8166 -5.735,-2.55 -0.047,-0.0618 -0.091,-0.1277 -0.139,-0.1937 0.432,-0.3543 0.783,-0.7869 0.989,-1.2565 0.838,-1.9115 -0.171,-3.6378 -1.8,-4.6141 -2.094,-1.2606 -4.29,-2.3193 -6.553,-3.2051 1.704,-1.5778 1.974,-4.6883 -0.813,-5.71 -3.167,-1.1658 -6.303,-1.3019 -9.336,-0.4985 -1.432,-3.4688 -3.722,-6.5256 -6.78,-8.8863 -2.296,-1.7673 -4.931,-0.1318 -5.559,1.9981 -1.47,-1.3595 -3.192,-2.4471 -5.109,-3.164 -1.769,-0.6633 -3.825,1e-4 -4.615,1.8004 -0.105,0.2389 -0.177,0.4943 -0.22,0.7539 -1.842,-1.5367 -4.05,-2.5996 -6.581,-3.0775 -2.047,-0.3872 -3.375,0.8816 -3.783,2.4348 -3.521,-1.0835 -7.161,-1.0505 -10.792,-0.0329 -1.262,0.3543 -2.057,1.5861 -2.218,2.8632 -1.919,0.1566 -3.821,0.519 -5.718,1.0834 -2.077,0.6139 -2.577,2.439 -2.066,4.0333 -3.431,0.6756 -6.553,2.2082 -8.02,5.4257 -0.766,1.6849 -0.136,3.1474 1,4.0085 -3.666,1.5614 -6.441,5.3269 -6.592,9.3273 -0.023,0.597 0.062,1.178 0.246,1.714 -1.65,1.145 -2.955,2.764 -3.571,4.729 -0.547,1.743 -0.097,3.881 1.799,4.614 0.028,0.013 0.057,0.021 0.085,0.029 -1.363,1.512 -2.277,3.419 -2.452,5.496 -0.159,1.882 0.947,3.695 2.911,4.004 0.4,0.062 0.816,0.041 1.223,-0.045 0.017,0.115 0.038,0.239 0.056,0.354 -1.558,2.303 -2.509,5.006 -2.617,7.811 -0.073,1.891 0.887,3.687 2.911,4.009 0.49,0.078 1.024,0.024 1.538,-0.136 -0.859,2.628 -1.064,5.462 -0.554,8.194 0.128,0.684 0.413,1.318 0.82,1.833 -0.222,0.243 -0.446,0.486 -0.679,0.721 -1.328,1.347 -0.812,3.831 0.554,4.923 1.605,1.281 3.589,0.795 4.922,-0.556 3.59,-3.638 5.904,-8.161 7.083,-13.113 0.051,-0.21 0.077,-0.408 0.092,-0.602 7.841,-0.852 14.419,-2.677 20.986,-6.797 0.744,1.38 2.283,2.311 4.178,1.615 1.618,-0.598 3.19,-1.318 4.706,-2.142 0.003,0.012 0.004,0.02 0.007,0.028 0.699,1.854 2.699,2.616 4.51,2.048 2.749,-0.861 5.275,-2.464 7.243,-4.577 0.688,1.965 3.121,3.493 5.432,2.023 2.079,-1.323 4.209,-2.814 6.069,-4.536 -0.092,0.968 -0.175,1.94 -0.234,2.912 -0.114,1.887 0.916,3.692 2.911,4.009 0.732,0.115 1.542,-0.05 2.241,-0.42 -0.055,0.317 -0.072,0.659 -0.031,1.03 0.571,5.454 2.061,11.811 6.455,15.486 2.613,2.183 5.751,-0.412 5.628,-3.057 1.071,0.465 2.294,0.437 3.367,-0.342 1.413,-1.03 2.04,-3.473 0.774,-4.894 -1.518,-1.702 -1.194,-4.38 -1.294,-6.74 1.085,-0.449 1.858,-1.483 2.192,-2.711 1.024,-3.761 0.401,-7.564 -1.349,-10.946 0.456,0.165 0.952,0.239 1.474,0.185 z"
         fill="#202b41"
         id="path31" />
    </g>
    <mask
       id="mask15_669_17327"
       maskUnits="userSpaceOnUse"
       x="28"
       y="73"
       width="1154"
       height="721">
      <path
         d="M 1181.89,73.0225 H 28.5742 V 793.553 H 1181.89 Z"
         fill="#ffffff"
         id="path32" />
    </mask>
    <g
       mask="url(#mask15_669_17327)"
       id="g33">
      <path
         d="m 74.116,323.515 c -5.0466,18.98 -2.4707,22.729 1.4125,32.225 3.8832,9.496 41.0245,70.377 41.0245,70.377 l 28.348,-23.766 c 0,0 -29.625,-50.298 -31.332,-58.821 -0.446,-2.229 -1.171,-8.121 -2.225,-15.404 -3.961,-27.372 -29.4947,-33.691 -37.228,-4.611 z"
         fill="#f3a91b"
         id="path33" />
    </g>
    <mask
       id="mask16_669_17327"
       maskUnits="userSpaceOnUse"
       x="28"
       y="73"
       width="1154"
       height="721">
      <path
         d="M 1181.89,73.0225 H 28.5742 V 793.553 H 1181.89 Z"
         fill="#ffffff"
         id="path34" />
    </mask>
    <g
       mask="url(#mask16_669_17327)"
       id="g35">
      <path
         d="m 141.361,405.32 7.592,9.436 c 0,0 -10.715,9.767 -25.198,13.344 l -3.13,-5.397 c 0,0 1.955,-11.148 20.736,-17.383 z"
         fill="#f46c67"
         id="path35" />
    </g>
    <mask
       id="mask17_669_17327"
       maskUnits="userSpaceOnUse"
       x="28"
       y="73"
       width="1154"
       height="721">
      <path
         d="M 1181.89,73.0225 H 28.5742 V 793.553 H 1181.89 Z"
         fill="#ffffff"
         id="path36" />
    </mask>
    <g
       mask="url(#mask17_669_17327)"
       id="g37">
      <path
         d="m 251.071,218.05 c -7.596,-4.704 -35.769,-5.319 -20.668,43.068 12.53,40.143 12.944,65.643 18.51,78.036 5.719,12.731 35.319,20.673 38.8,2.666 3.481,-18.008 -22.259,-114.858 -36.642,-123.77 z"
         fill="#f3a91b"
         id="path37" />
    </g>
    <mask
       id="mask18_669_17327"
       maskUnits="userSpaceOnUse"
       x="28"
       y="73"
       width="1154"
       height="721">
      <path
         d="M 1181.89,73.0225 H 28.5742 V 793.553 H 1181.89 Z"
         fill="#ffffff"
         id="path38" />
    </mask>
    <g
       mask="url(#mask18_669_17327)"
       id="g39">
      <path
         d="m 284.912,323.515 c 5.048,18.98 2.471,22.729 -1.411,32.225 -3.884,9.496 -41.026,70.377 -41.026,70.377 l -28.348,-23.766 c 0,0 29.625,-50.298 31.333,-58.821 0.446,-2.229 1.171,-8.121 2.224,-15.404 3.962,-27.372 29.495,-33.691 37.228,-4.611 z"
         fill="#f3a91b"
         id="path39" />
    </g>
    <mask
       id="mask19_669_17327"
       maskUnits="userSpaceOnUse"
       x="28"
       y="73"
       width="1154"
       height="721">
      <path
         d="M 1181.89,73.0225 H 28.5742 V 793.553 H 1181.89 Z"
         fill="#ffffff"
         id="path40" />
    </mask>
    <g
       mask="url(#mask19_669_17327)"
       id="g41">
      <path
         d="m 217.668,405.32 -7.592,9.436 c 0,0 10.715,9.767 25.199,13.344 l 3.129,-5.397 c 0,0 -1.955,-11.148 -20.736,-17.383 z"
         fill="#f46c67"
         id="path41" />
    </g>
    <mask
       id="mask20_669_17327"
       maskUnits="userSpaceOnUse"
       x="28"
       y="73"
       width="1154"
       height="721">
      <path
         d="M 1181.89,73.0225 H 28.5742 V 793.553 H 1181.89 Z"
         fill="#ffffff"
         id="path42" />
    </mask>
    <g
       mask="url(#mask20_669_17327)"
       id="g43">
      <path
         d="m 243.15,313.253 c 0.301,-8.552 0.602,-17.109 0.904,-25.665 0.299,-8.524 0.599,-17.044 0.897,-25.568 0.17,-4.824 0.34,-9.652 0.51,-14.477 0.028,-0.794 -1.208,-0.794 -1.236,0 -0.301,8.557 -0.602,17.114 -0.902,25.671 -0.3,8.519 -0.6,17.042 -0.899,25.563 -0.17,4.827 -0.34,9.652 -0.509,14.476 -0.028,0.8 1.208,0.795 1.235,0 z"
         fill="#b37e1d"
         id="path43" />
    </g>
    <mask
       id="mask21_669_17327"
       maskUnits="userSpaceOnUse"
       x="28"
       y="73"
       width="1154"
       height="721">
      <path
         d="M 1181.89,73.0225 H 28.5742 V 793.553 H 1181.89 Z"
         fill="#ffffff"
         id="path44" />
    </mask>
    <g
       mask="url(#mask21_669_17327)"
       id="g45">
      <path
         d="m 119.338,326.028 c -0.32,-10.06 -0.64,-20.124 -0.961,-30.189 -0.319,-10.032 -0.638,-20.063 -0.957,-30.09 -0.18,-5.649 -0.36,-11.301 -0.539,-16.945 -0.025,-0.795 -1.262,-0.8 -1.236,0 0.32,10.065 0.64,20.125 0.96,30.189 0.32,10.032 0.639,20.064 0.958,30.091 0.18,5.648 0.359,11.297 0.539,16.944 0.026,0.796 1.261,0.8 1.236,0 z"
         fill="#b37e1d"
         id="path45" />
    </g>
    <mask
       id="mask22_669_17327"
       maskUnits="userSpaceOnUse"
       x="28"
       y="73"
       width="1154"
       height="721">
      <path
         d="M 1181.89,73.0225 H 28.5742 V 793.553 H 1181.89 Z"
         fill="#ffffff"
         id="path46" />
    </mask>
    <g
       mask="url(#mask22_669_17327)"
       id="g47">
      <path
         d="m 247.411,332.995 c 2.774,-1.145 5.547,-2.295 8.32,-3.44 0.31,-0.127 0.525,-0.408 0.431,-0.762 -0.076,-0.293 -0.451,-0.556 -0.759,-0.429 -2.774,1.145 -5.547,2.291 -8.321,3.44 -0.31,0.128 -0.524,0.408 -0.432,0.758 0.078,0.293 0.453,0.56 0.761,0.433 z"
         fill="#b37e1d"
         id="path47" />
    </g>
    <mask
       id="mask23_669_17327"
       maskUnits="userSpaceOnUse"
       x="28"
       y="73"
       width="1154"
       height="721">
      <path
         d="M 1181.89,73.0225 H 28.5742 V 793.553 H 1181.89 Z"
         fill="#ffffff"
         id="path48" />
    </mask>
    <g
       mask="url(#mask23_669_17327)"
       id="g49">
      <path
         d="m 111.393,334.128 c -2.87,-0.317 -5.74,-0.631 -8.611,-0.948 -0.335,-0.033 -0.615,0.314 -0.618,0.618 -0.004,0.367 0.288,0.585 0.618,0.618 2.871,0.317 5.741,0.631 8.611,0.948 0.335,0.036 0.615,-0.314 0.618,-0.618 0.004,-0.363 -0.287,-0.581 -0.618,-0.618 z"
         fill="#b37e1d"
         id="path49" />
    </g>
    <mask
       id="mask24_669_17327"
       maskUnits="userSpaceOnUse"
       x="-634"
       y="72"
       width="1154"
       height="722">
      <path
         d="M 519.48,72.5381 H -633.84 V 793.068 H 519.48 Z"
         fill="#ffffff"
         id="path50" />
    </mask>
    <g
       mask="url(#mask24_669_17327)"
       id="g51">
      <path
         d="m 199.513,149.063 c -0.087,2.616 -1.989,4.573 -4.099,4.494 -2.108,-0.074 -3.625,-2.15 -3.537,-4.762 0.082,-2.616 1.862,-4.672 3.97,-4.598 2.109,0.074 3.753,2.254 3.666,4.866 z"
         fill="#1b1918"
         id="path51" />
    </g>
    <mask
       id="mask25_669_17327"
       maskUnits="userSpaceOnUse"
       x="-634"
       y="72"
       width="1154"
       height="722">
      <path
         d="M 519.48,72.5381 H -633.84 V 793.068 H 519.48 Z"
         fill="#ffffff"
         id="path52" />
    </mask>
    <g
       mask="url(#mask25_669_17327)"
       id="g53">
      <path
         d="m 159.232,148.605 c -0.086,2.612 1.352,4.878 3.461,4.952 2.109,0.079 4.09,-2.068 4.177,-4.68 0.086,-2.616 -1.557,-4.795 -3.666,-4.869 -2.11,-0.074 -3.889,1.981 -3.972,4.597 z"
         fill="#1b1918"
         id="path53" />
    </g>
    <mask
       id="mask26_669_17327"
       maskUnits="userSpaceOnUse"
       x="-634"
       y="72"
       width="1154"
       height="722">
      <path
         d="M 519.48,72.5381 H -633.84 V 793.068 H 519.48 Z"
         fill="#ffffff"
         id="path54" />
    </mask>
    <g
       mask="url(#mask26_669_17327)"
       id="g55">
      <path
         d="m 198.028,137.882 c -0.144,0 -0.289,0.037 -0.421,0.115 l -6.154,3.634 c -0.391,0.231 -0.523,0.738 -0.292,1.129 0.234,0.391 0.737,0.519 1.128,0.288 l 6.158,-3.629 c 0.392,-0.235 0.519,-0.738 0.289,-1.129 -0.153,-0.264 -0.429,-0.408 -0.708,-0.408 z"
         fill="#1b1918"
         id="path55" />
    </g>
    <mask
       id="mask27_669_17327"
       maskUnits="userSpaceOnUse"
       x="-634"
       y="72"
       width="1154"
       height="722">
      <path
         d="M 519.48,72.5381 H -633.84 V 793.068 H 519.48 Z"
         fill="#ffffff"
         id="path56" />
    </mask>
    <g
       mask="url(#mask27_669_17327)"
       id="g57">
      <path
         d="m 159.079,137.935 c -0.407,0 -0.762,0.305 -0.815,0.721 -0.054,0.453 0.268,0.865 0.716,0.919 2.851,0.35 5.652,1.536 7.881,3.345 0.353,0.288 0.869,0.235 1.157,-0.12 0.288,-0.354 0.234,-0.873 -0.12,-1.157 -2.467,-2.007 -5.561,-3.321 -8.716,-3.704 -0.033,-0.004 -0.07,-0.004 -0.103,-0.004 z"
         fill="#1b1918"
         id="path57" />
    </g>
    <mask
       id="mask28_669_17327"
       maskUnits="userSpaceOnUse"
       x="-634"
       y="72"
       width="1154"
       height="722">
      <path
         d="M 519.48,72.5381 H -633.84 V 793.068 H 519.48 Z"
         fill="#ffffff"
         id="path58" />
    </mask>
    <g
       mask="url(#mask28_669_17327)"
       id="g59">
      <path
         d="m 169.489,170.546 c -0.173,0 -0.35,-0.049 -0.502,-0.156 -0.416,-0.28 -0.524,-0.841 -0.243,-1.253 2.286,-3.374 6.241,-5.528 10.314,-5.627 4.074,-0.091 8.124,1.87 10.566,5.133 0.296,0.4 0.218,0.964 -0.181,1.265 -0.4,0.301 -0.964,0.218 -1.265,-0.181 -2.101,-2.802 -5.565,-4.495 -9.079,-4.409 -3.501,0.083 -6.895,1.933 -8.86,4.833 -0.173,0.255 -0.457,0.395 -0.75,0.395 z"
         fill="#af4028"
         id="path59" />
    </g>
  </g>
  <defs
     id="defs62">
    <clipPath
       id="clip1_669_17327">
      <rect
         width="217.04"
         height="699.713"
         fill="white"
         transform="translate(70.9941 73.0225)"
         id="rect62" />
    </clipPath>
    <clipPath
       clipPathUnits="userSpaceOnUse"
       id="clipPath1">
      <g
         id="g2">
        <rect
           width="357"
           height="405.68201"
           fill="#ffffff"
           id="rect2"
           x="0"
           y="0" />
      </g>
    </clipPath>
    <clipPath
       clipPathUnits="userSpaceOnUse"
       id="clipPath2">
      <g
         id="g4">
        <rect
           width="357"
           height="405.68201"
           fill="#ffffff"
           id="rect3"
           x="0"
           y="0" />
      </g>
    </clipPath>
    <clipPath
       clipPathUnits="userSpaceOnUse"
       id="clipPath4">
      <g
         id="g6">
        <rect
           width="357"
           height="405.68201"
           fill="#ffffff"
           id="rect4"
           x="0"
           y="0" />
      </g>
    </clipPath>
    <clipPath
       clipPathUnits="userSpaceOnUse"
       id="clipPath7">
      <rect
         style="fill:none;stroke:#ff0000;stroke-width:0.932228;stroke-linejoin:bevel"
         id="rect7"
         width="231.97701"
         height="235.15384"
         x="65.408997"
         y="65.408997" />
    </clipPath>
  </defs>
</svg>
